<?xml version="1.0" encoding="utf-8"?>
<!-- Generator: Adobe Illustrator 22.0.1, SVG Export Plug-In . SVG Version: 6.00 Build 0)  -->
<svg version="1.1" id="Ebene_1" xmlns="http://www.w3.org/2000/svg" xmlns:xlink="http://www.w3.org/1999/xlink" x="0px" y="0px"
	 viewBox="0 0 246.6 170.1" style="enable-background:new 0 0 246.6 170.1;" xml:space="preserve">
<style type="text/css">
	.st0{clip-path:url(#SVGID_2_);}
	.st1{clip-path:url(#SVGID_4_);fill:#E1E1E0;}
	.st2{clip-path:url(#SVGID_2_);fill:none;stroke:#A1A2A2;stroke-width:0.222;}
	.st3{clip-path:url(#SVGID_2_);fill:none;stroke:#A1A2A2;stroke-width:0.222;stroke-dasharray:1.786,1.786;}
	.st4{fill:#6E6E6E;}
	.st5{font-family:'Univers-Light';}
	.st6{font-size:4.4445px;}
	.st7{font-family:'UniversCom-45Light';}
	.st8{font-size:4.138px;}
	.st9{font-size:4.3117px;}
	
		.st10{clip-path:url(#SVGID_6_);fill:none;stroke:#E4003E;stroke-width:0.889;stroke-miterlimit:10;stroke-dasharray:1.78,0,9.000000e-03,1.763,9.000000e-03,0;}
	.st11{font-size:6px;}
	.st12{fill:#28333C;}
	.st13{font-family:'UniversCom-65Bold';}
	.st14{clip-path:url(#SVGID_8_);fill:#28333C;}
	.st15{clip-path:url(#SVGID_10_);fill:#FFFFFF;}
	.st16{clip-path:url(#SVGID_12_);fill:#28333C;}
	.st17{clip-path:url(#SVGID_14_);fill:#FFFFFF;}
	.st18{clip-path:url(#SVGID_16_);fill:#28333C;}
	.st19{clip-path:url(#SVGID_18_);fill:#FFFFFF;}
	.st20{clip-path:url(#SVGID_20_);fill:#28333C;}
	.st21{clip-path:url(#SVGID_22_);fill:#FFFFFF;}
	.st22{clip-path:url(#SVGID_24_);fill:#28333C;}
	.st23{clip-path:url(#SVGID_2_);fill:#FFFFFF;}
	.st24{clip-path:url(#SVGID_26_);fill:#28333C;}
	.st25{clip-path:url(#SVGID_28_);fill:#FFFFFF;}
	.st26{clip-path:url(#SVGID_28_);fill:none;stroke:#FFFFFF;stroke-width:5.600000e-02;stroke-linecap:round;stroke-miterlimit:10;}
	.st27{clip-path:url(#SVGID_30_);fill:#28333C;}
	.st28{clip-path:url(#SVGID_32_);fill:#FFFFFF;}
	.st29{clip-path:url(#SVGID_34_);fill:#28333C;}
	.st30{clip-path:url(#SVGID_36_);fill:#28333C;}
	.st31{clip-path:url(#SVGID_38_);fill:#FFFFFF;}
	.st32{clip-path:url(#SVGID_40_);fill:#28333C;}
	.st33{clip-path:url(#SVGID_42_);fill:#FFFFFF;}
	.st34{clip-path:url(#SVGID_44_);fill:#28333C;}
	.st35{clip-path:url(#SVGID_46_);fill:#FFFFFF;}
	.st36{opacity:0.8;clip-path:url(#SVGID_48_);}
	.st37{clip-path:url(#SVGID_48_);fill:#28333C;}
	.st38{clip-path:url(#SVGID_52_);fill:#FFFFFF;}
	.st39{clip-path:url(#SVGID_54_);fill:#57A92E;}
	.st40{clip-path:url(#SVGID_54_);fill:#74191B;}
	.st41{clip-path:url(#SVGID_2_);fill:#EACE00;}
	.st42{clip-path:url(#SVGID_2_);fill:#EC7B02;}
	.st43{clip-path:url(#SVGID_2_);fill:#E51E1C;}
</style>
<g>
	<defs>
		<rect id="SVGID_1_" width="246.6" height="170.1"/>
	</defs>
	<clipPath id="SVGID_2_">
		<use xlink:href="#SVGID_1_"  style="overflow:visible;"/>
	</clipPath>
	<g class="st0">
		<defs>
			<rect id="SVGID_3_" width="246.6" height="170.1"/>
		</defs>
		<clipPath id="SVGID_4_">
			<use xlink:href="#SVGID_3_"  style="overflow:visible;"/>
		</clipPath>
		<path class="st1" d="M46.6,84.2c-4-2.5-8-5.3-11.3-8.7c-3.4-3.5-7.2-6.9-9.2-11.4c-2.2-5-0.1-10.1,5-12.2
			c5.6-2.3,9.7,1.1,14.4,3.7c13,7.1,27,11.7,41.7,13.5c11.3,1.4,22.8,1.4,34-0.5c7.2-1.2,14.3-3.4,21.1-6c6.6-2.5,13.6-5.2,19.8-8.6
			c6.5-3.6,22-8.7,23.3,3.1c0.5,4.6-3.2,8.9-6.2,11.9c-4,4.2-8.7,7.7-13.5,10.9c-7.8,5.3-15.9,10.4-24.8,13.8
			c-13.2,5.1-28,8-42.2,7.4c-14.5-0.6-28.8-4.8-41.8-11c-2.7-1.3-5.4-2.8-8-4.3C48.2,85.2,47.4,84.7,46.6,84.2"/>
	</g>
	<line class="st2" x1="22.7" y1="29.5" x2="191.2" y2="29.5"/>
	<line class="st2" x1="22.7" y1="77.7" x2="191.2" y2="77.7"/>
	<line class="st2" x1="22.7" y1="116.6" x2="191.2" y2="116.6"/>
	<line class="st2" x1="145.9" y1="146" x2="145.9" y2="29.3"/>
	<line class="st2" x1="22.7" y1="39.2" x2="191.2" y2="39.2"/>
	<line class="st2" x1="22.7" y1="87.5" x2="191.2" y2="87.5"/>
	<line class="st2" x1="22.7" y1="126.3" x2="191.2" y2="126.3"/>
	<line class="st2" x1="22.7" y1="49.1" x2="191.2" y2="49.1"/>
	<line class="st2" x1="22.7" y1="97.3" x2="191.2" y2="97.3"/>
	<line class="st2" x1="22.7" y1="136.2" x2="191.2" y2="136.2"/>
	<line class="st2" x1="22.7" y1="145.8" x2="191.2" y2="145.8"/>
	<line class="st2" x1="171.7" y1="145.8" x2="171.7" y2="29.4"/>
	<line class="st2" x1="22.7" y1="58.9" x2="191.2" y2="58.9"/>
	<line class="st2" x1="22.7" y1="107.1" x2="191.2" y2="107.1"/>
	<line class="st2" x1="94" y1="145.8" x2="94" y2="29.7"/>
	<line class="st2" x1="68" y1="145.8" x2="68" y2="29.7"/>
	<line class="st2" x1="42.4" y1="145.8" x2="42.4" y2="29.7"/>
	<line class="st3" x1="158.8" y1="145.8" x2="158.8" y2="29.7"/>
	<line class="st3" x1="132.9" y1="145.8" x2="132.9" y2="29.8"/>
	<line class="st3" x1="106.9" y1="145.8" x2="106.9" y2="29.7"/>
	<line class="st2" x1="22.7" y1="68.4" x2="191.2" y2="68.4"/>
	<line class="st2" x1="22.7" y1="116.6" x2="191.2" y2="116.6"/>
	<line class="st2" x1="119.8" y1="146.1" x2="119.8" y2="29.3"/>
	<g class="st0">
		<text transform="matrix(1 0 0 1 15.5933 32.0463)" class="st4 st5 st6">0</text>
	</g>
	<g class="st0">
		<text transform="matrix(1 0 0 1 13.1221 41.6464)" class="st4 st5 st6">10</text>
	</g>
	<g class="st0">
		<text transform="matrix(1 0 0 1 13.1221 51.247)" class="st4 st5 st6">20</text>
	</g>
	<g class="st0">
		<text transform="matrix(1 0 0 1 13.1221 60.8471)" class="st4 st5 st6">30</text>
	</g>
	<g class="st0">
		<text transform="matrix(1 0 0 1 13.1221 70.4472)" class="st4 st5 st6">40</text>
	</g>
	<g class="st0">
		<text transform="matrix(1 0 0 1 13.1221 80.0473)" class="st4 st5 st6">50</text>
	</g>
	<g class="st0">
		<text transform="matrix(1 0 0 1 13.1221 89.6474)" class="st4 st5 st6">60</text>
	</g>
	<g class="st0">
		<text transform="matrix(1 0 0 1 13.1221 99.247)" class="st4 st5 st6">70</text>
	</g>
	<g class="st0">
		<text transform="matrix(1 0 0 1 13.1221 108.8475)" class="st4 st5 st6">80</text>
	</g>
	<g class="st0">
		<text transform="matrix(1 0 0 1 13.1221 118.4472)" class="st4 st5 st6">90</text>
	</g>
	<g class="st0">
		<text transform="matrix(1 0 0 1 10.6509 128.0477)" class="st4 st5 st6">100</text>
	</g>
	<g class="st0">
		<text transform="matrix(1 0 0 1 10.6509 137.6474)" class="st4 st5 st6">110</text>
	</g>
	<g class="st0">
		<text transform="matrix(1 0 0 1 10.6509 147.2479)" class="st4 st5 st6">120</text>
	</g>
	<g class="st0">
		<text transform="matrix(1 0 0 1 38.189 24.8153)" class="st4 st7 st6">250</text>
	</g>
	<g class="st0">
		<text transform="matrix(1 0 0 1 63.6074 24.8153)" class="st4 st7 st6">500</text>
	</g>
	<g class="st0">
		<text transform="matrix(1 0 0 1.0741 92.2524 24.8143)" class="st4 st7 st8">1k</text>
	</g>
	<g class="st0">
		<text transform="matrix(1 0 0 1 117.0459 24.7767)" class="st4 st7 st6">2k</text>
	</g>
	<g class="st0">
		<text transform="matrix(1 0 0 1.0308 143.1201 24.8134)" class="st4 st7 st9">4k</text>
	</g>
	<g class="st0">
		<text transform="matrix(1 0 0 1 168.8457 24.703)" class="st4 st7 st6">8k</text>
	</g>
	<g class="st0">
		<defs>
			<rect id="SVGID_5_" x="9.2" y="19.6" width="183.3" height="129.5"/>
		</defs>
		<clipPath id="SVGID_6_">
			<use xlink:href="#SVGID_5_"  style="overflow:visible;"/>
		</clipPath>
		<path class="st10" d="M45.4,84.4c-4-2.5-8-5.3-11.4-8.8c-3.4-3.5-7.3-7-9.3-11.5c-2.3-5-0.1-10.1,5-12.2c5.6-2.3,9.8,1.1,14.5,3.7
			c13.1,7.1,27.2,11.8,42.1,13.6c11.3,1.4,23,1.4,34.3-0.5c7.3-1.2,14.4-3.4,21.3-6.1c6.7-2.6,13.7-5.2,19.9-8.7
			c6.5-3.7,22.2-8.7,23.5,3.1c0.5,4.6-3.3,9-6.2,12c-4.1,4.2-8.8,7.7-13.6,11c-7.9,5.3-16,10.5-25,13.9c-13.3,5.1-28.2,8.1-42.5,7.5
			c-14.6-0.6-29-4.8-42.1-11.1c-2.8-1.3-5.5-2.8-8.1-4.4C47,85.4,46.2,84.9,45.4,84.4z"/>
	</g>
	<g class="st0">
		<text transform="matrix(1 0 0 1 9.272 156.1054)"><tspan x="0" y="0" class="st7 st11">L</tspan><tspan x="3.2" y="0" class="st7 st11">oudness in dB</tspan></text>
	</g>
	<g class="st0">
		<text transform="matrix(-6.123234e-17 -1 1 -6.123234e-17 199.3136 146.203)" class="st7 st11">Degree of hearing loss</text>
	</g>
	<g class="st0">
		<text transform="matrix(1 0 0 1 210.9707 34.1142)"><tspan x="0" y="0" class="st12 st13 st11">No</tspan><tspan x="8.3" y="0" class="st12 st13 st11">r</tspan><tspan x="10.4" y="0" class="st12 st13 st11">mal</tspan></text>
	</g>
	<g class="st0">
		<text transform="matrix(1 0 0 1 232.0371 34.1142)" class="st12 st13 st11"> </text>
	</g>
	<g class="st0">
		<text transform="matrix(1 0 0 1 210.9707 41.3139)" class="st12 st7 st11">0-25 dB</text>
	</g>
	<g class="st0">
		<text transform="matrix(1 0 0 1 210.9707 57.3578)" class="st12 st13 st11">Mild</text>
	</g>
	<g class="st0">
		<text transform="matrix(1 0 0 1 223.6787 57.3578)" class="st12 st13 st11"> </text>
	</g>
	<g class="st0">
		<text transform="matrix(1 0 0 1 210.9707 64.558)" class="st12 st7 st11">26-40 dB</text>
	</g>
	<g class="st0">
		<text transform="matrix(1 0 0 1 210.9707 72.3822)"><tspan x="0" y="0" class="st12 st13 st11">Mode</tspan><tspan x="16.4" y="0" class="st12 st13 st11">r</tspan><tspan x="18.6" y="0" class="st12 st13 st11">a</tspan><tspan x="21.9" y="0" class="st12 st13 st11">t</tspan><tspan x="24.1" y="0" class="st12 st13 st11">e</tspan></text>
	</g>
	<g class="st0">
		<text transform="matrix(1 0 0 1 238.4453 72.3822)" class="st12 st13 st11"> </text>
	</g>
	<g class="st0">
		<text transform="matrix(1 0 0 1 210.9707 79.5819)"><tspan x="0" y="0" class="st12 st7 st11">4</tspan><tspan x="3.3" y="0" class="st12 st7 st11">1</tspan><tspan x="6.2" y="0" class="st12 st7 st11">-60 dB</tspan></text>
	</g>
	<g class="st0">
		<text transform="matrix(1 0 0 1 210.9707 91.372)"><tspan x="0" y="0" class="st12 st13 st11">Se</tspan><tspan x="7.3" y="0" class="st12 st13 st11">v</tspan><tspan x="10.6" y="0" class="st12 st13 st11">e</tspan><tspan x="13.9" y="0" class="st12 st13 st11">r</tspan><tspan x="16.1" y="0" class="st12 st13 st11">e</tspan></text>
	</g>
	<g class="st0">
		<text transform="matrix(1 0 0 1 230.3516 91.372)" class="st12 st13 st11"> </text>
	</g>
	<g class="st0">
		<text transform="matrix(1 0 0 1 210.9707 98.5722)"><tspan x="0" y="0" class="st12 st7 st11">6</tspan><tspan x="3.3" y="0" class="st12 st7 st11">1</tspan><tspan x="6.2" y="0" class="st12 st7 st11">-80 dB</tspan></text>
	</g>
	<g class="st0">
		<text transform="matrix(1 0 0 1 210.9707 110.3622)"><tspan x="0" y="0" class="st12 st13 st11">P</tspan><tspan x="3.7" y="0" class="st12 st13 st11">r</tspan><tspan x="5.9" y="0" class="st12 st13 st11">o</tspan><tspan x="9.5" y="0" class="st12 st13 st11">f</tspan><tspan x="11.4" y="0" class="st12 st13 st11">ound</tspan></text>
	</g>
	<g class="st0">
		<text transform="matrix(1 0 0 1 237.0283 110.3622)" class="st12 st13 st11"> </text>
	</g>
	<g class="st0">
		<text transform="matrix(1 0 0 1 210.9707 117.5624)"><tspan x="0" y="0" class="st12 st7 st11">8</tspan><tspan x="3.3" y="0" class="st12 st7 st11">1</tspan><tspan x="6.2" y="0" class="st12 st7 st11">-</tspan><tspan x="7.9" y="0" class="st12 st7 st11">1</tspan><tspan x="10.9" y="0" class="st12 st7 st11">20 dB</tspan></text>
	</g>
	<g class="st0">
		<text transform="matrix(1 0 0 1 149.4414 17.3021)"><tspan x="0" y="0" class="st7 st11">F</tspan><tspan x="3" y="0" class="st7 st11">requency in Hz</tspan></text>
	</g>
	<g class="st0">
		<defs>
			<rect id="SVGID_7_" width="246.6" height="170.1"/>
		</defs>
		<clipPath id="SVGID_8_">
			<use xlink:href="#SVGID_7_"  style="overflow:visible;"/>
		</clipPath>
		<path class="st14" d="M147.1,142.8c3.8,0,6.9-3.1,6.9-6.9c0-3.8-3.1-6.9-6.9-6.9c-3.8,0-6.9,3.1-6.9,6.9
			C140.2,139.8,143.3,142.8,147.1,142.8"/>
	</g>
	<g class="st0">
		<defs>
			<rect id="SVGID_9_" x="138.9" y="127.7" width="16.5" height="16.5"/>
		</defs>
		<clipPath id="SVGID_10_">
			<use xlink:href="#SVGID_9_"  style="overflow:visible;"/>
		</clipPath>
		<path class="st15" d="M144.7,137.7l-0.9-0.1l-0.3,0.3l1.1,0.4l0.4,1.1l0.3-0.3l-0.1-0.9l1.9-1.7l1.3,3.2l0.6-0.6l-0.7-3.6l1.2-1.1
			c0.5-0.5,0.8-1.1,0.7-1.8c-0.7,0-1.3,0.2-1.8,0.7l-1.1,1.2l-3.6-0.7l-0.6,0.6l3.2,1.3L144.7,137.7z"/>
	</g>
	<g class="st0">
		<defs>
			<rect id="SVGID_11_" width="246.6" height="170.1"/>
		</defs>
		<clipPath id="SVGID_12_">
			<use xlink:href="#SVGID_11_"  style="overflow:visible;"/>
		</clipPath>
		<path class="st16" d="M107.7,142.8c3.8,0,6.9-3.1,6.9-6.9c0-3.8-3.1-6.9-6.9-6.9c-3.8,0-6.9,3.1-6.9,6.9
			C100.8,139.8,103.9,142.8,107.7,142.8"/>
	</g>
	<g class="st0">
		<defs>
			<rect id="SVGID_13_" x="99.4" y="127.7" width="16.5" height="16.5"/>
		</defs>
		<clipPath id="SVGID_14_">
			<use xlink:href="#SVGID_13_"  style="overflow:visible;"/>
		</clipPath>
		<path class="st17" d="M107,133h-1.9h-0.1h-0.7c-0.2,0-0.4,0.2-0.4,0.4v0.3v0.5v4.2c0,0.2,0.2,0.4,0.4,0.4h2.6
			c0.2,0,0.4-0.2,0.4-0.4v-5C107.4,133.2,107.3,133,107,133 M105.7,133.7c0.5,0,0.9,0.4,0.9,1c0,0.5-0.4,0.9-0.9,0.9
			c-0.5,0-0.9-0.4-0.9-1C104.8,134.1,105.2,133.7,105.7,133.7 M105.7,138.3c-0.6,0-1.1-0.5-1.1-1.1c0-0.6,0.5-1.1,1.1-1.1
			c0.6,0,1.1,0.5,1.1,1.1C106.8,137.8,106.3,138.3,105.7,138.3"/>
		<path class="st17" d="M105.7,134.9c0.2,0,0.3-0.1,0.3-0.3c0-0.2-0.1-0.3-0.3-0.3c-0.2,0-0.3,0.1-0.3,0.3
			C105.4,134.8,105.5,134.9,105.7,134.9"/>
		<path class="st17" d="M105.7,136.8c-0.2,0-0.4,0.2-0.4,0.4c0,0.2,0.2,0.4,0.4,0.4c0.2,0,0.4-0.2,0.4-0.4
			C106.1,137,105.9,136.8,105.7,136.8"/>
		<path class="st17" d="M111.1,133h-1.9h-0.1h-0.7c-0.2,0-0.4,0.2-0.4,0.4v0.3v0.5v4.2c0,0.2,0.2,0.4,0.4,0.4h2.6
			c0.2,0,0.4-0.2,0.4-0.4v-5C111.5,133.2,111.3,133,111.1,133 M109.8,133.7c0.5,0,0.9,0.4,0.9,1c0,0.5-0.4,0.9-0.9,0.9
			c-0.5,0-0.9-0.4-0.9-1C108.9,134.1,109.3,133.7,109.8,133.7 M109.8,138.3c-0.6,0-1.1-0.5-1.1-1.1c0-0.6,0.5-1.1,1.1-1.1
			c0.6,0,1.1,0.5,1.1,1.1C110.9,137.8,110.4,138.3,109.8,138.3"/>
		<path class="st17" d="M109.8,134.9c0.2,0,0.3-0.1,0.3-0.3c0-0.2-0.1-0.3-0.3-0.3c-0.2,0-0.3,0.1-0.3,0.3
			C109.5,134.8,109.6,134.9,109.8,134.9"/>
		<path class="st17" d="M109.8,136.8c-0.2,0-0.4,0.2-0.4,0.4c0,0.2,0.2,0.4,0.4,0.4c0.2,0,0.4-0.2,0.4-0.4
			C110.2,137,110,136.8,109.8,136.8"/>
	</g>
	<g class="st0">
		<defs>
			<rect id="SVGID_15_" width="246.6" height="170.1"/>
		</defs>
		<clipPath id="SVGID_16_">
			<use xlink:href="#SVGID_15_"  style="overflow:visible;"/>
		</clipPath>
		<path class="st18" d="M29.7,132.7c3.8,0,6.9-3.1,6.9-6.9c0-3.8-3.1-6.9-6.9-6.9c-3.8,0-6.9,3.1-6.9,6.9
			C22.8,129.7,25.9,132.7,29.7,132.7"/>
	</g>
	<g class="st0">
		<defs>
			<rect id="SVGID_17_" x="21.4" y="117.6" width="16.5" height="16.5"/>
		</defs>
		<clipPath id="SVGID_18_">
			<use xlink:href="#SVGID_17_"  style="overflow:visible;"/>
		</clipPath>
		<path class="st19" d="M32.3,126.9c0.4,0,0.8,0.4,0.8,0.8c0,0.4-0.4,0.8-0.8,0.8c-0.4,0-0.8-0.4-0.8-0.8
			C31.5,127.3,31.9,126.9,32.3,126.9"/>
		<path class="st19" d="M31.8,124.3v-0.8v-0.3c0-0.3-0.2-0.5-0.5-0.5h-5.1c-0.3,0-0.5,0.2-0.5,0.5v2.9c0,0.3,0.2,0.5,0.5,0.5h0.5v0
			c0.2-0.2,0.5-0.3,0.8-0.3c0.7,0,1.3,0.6,1.3,1.3H31c0-0.5,0.3-1,0.8-1.2V124.3z"/>
		<path class="st19" d="M33.9,124.8c-0.1-0.3-0.5-0.5-0.8-0.5h-1.1v2.2c0.1,0,0.2,0,0.3,0c0.7,0,1.3,0.6,1.3,1.3
			c0.3,0,0.5-0.2,0.5-0.5v-0.8v-1.1L33.9,124.8z M33.8,125.6h-1.2v-1.1h0.5c0.1,0,0.3,0.1,0.4,0.2l0.3,0.6V125.6z"/>
		<path class="st19" d="M27.5,126.9c0.4,0,0.8,0.4,0.8,0.8c0,0.4-0.4,0.8-0.8,0.8c-0.4,0-0.8-0.4-0.8-0.8
			C26.7,127.3,27.1,126.9,27.5,126.9"/>
	</g>
	<g class="st0">
		<defs>
			<rect id="SVGID_19_" width="246.6" height="170.1"/>
		</defs>
		<clipPath id="SVGID_20_">
			<use xlink:href="#SVGID_19_"  style="overflow:visible;"/>
		</clipPath>
		<path class="st20" d="M56.1,104c3.8,0,6.9-3.1,6.9-6.9c0-3.8-3.1-6.9-6.9-6.9c-3.8,0-6.9,3.1-6.9,6.9
			C49.2,100.9,52.3,104,56.1,104"/>
	</g>
	<g class="st0">
		<defs>
			<rect id="SVGID_21_" x="47.9" y="88.8" width="16.5" height="16.5"/>
		</defs>
		<clipPath id="SVGID_22_">
			<use xlink:href="#SVGID_21_"  style="overflow:visible;"/>
		</clipPath>
		<path class="st21" d="M60.5,95.1c0,0-0.1,0.1-0.3,0.3c-0.2,0.3-0.4,0.3-0.6,0.2c-0.1,0-0.2-0.1-0.2-0.1s0,0.4-0.2,0.4
			c0,0-0.2,0-0.2,0s0,0.6-0.7,1.3c-0.3,0.3-0.3,0.4-0.5,0.8c-0.2,0.5,0,1,0,1s0.2,0.1,0.3,0.1c0.1,0,0.2,0.2,0.2,0.3c0,0,0,0,0,0
			h-0.9c-0.1-0.1-0.3-0.4-0.4-0.9c-0.1-0.6-0.1-1-0.1-1c-0.6,0.3-1.4-0.2-1.6-0.3c-0.1-0.1-0.1-0.1-0.3-0.1c-0.2,0-0.2,0.1-0.4,0.3
			c-0.1,0.2-0.7,0.8-0.8,1c-0.1,0.1,0,0.5,0,0.5c0.2,0,0.3,0.2,0.3,0.2s0.2,0.2,0,0.2c0,0,0,0,0,0h-0.4c0,0-0.1,0-0.1,0
			c-0.1,0-0.1-0.1-0.2-0.2c0-0.1-0.1-0.1-0.2-0.4c-0.1-0.4-0.1-0.6-0.1-0.6c-0.1,0.2-0.3,0.3-0.3,0.4c0,0.1-0.1,0.4-0.1,0.4
			s0.2,0.1,0.3,0.2c0.1,0.1,0,0.2-0.1,0.2c0,0,0,0-0.1,0h-0.2c-0.1,0-0.2,0-0.2-0.1c-0.1,0-0.2-0.2-0.1-0.3c0-0.1,0-0.2,0-0.4
			c0-0.2,0.1-0.5,0.1-0.5c0.1-0.2,0.3-0.5,0.3-0.5c-0.2,0-0.5,0.3-0.7,0.4c-0.2,0.1-0.5,0.1-0.5,0.1s-0.5,0.2-0.6,0
			c-0.2-0.2,0.6-0.5,1.3-1.1c0.7-0.5,0.5-1.1,0.9-1.5s1-0.6,1.7-0.6c1.8,0.1,2.1-0.1,2.6-0.2c0.5-0.1,0.8-0.5,1.4-0.8
			c0.5-0.2,0.8,0.1,1,0.2c0.2,0.1,0.1,0.4,0.1,0.4s0.2,0.2,0.5,0.3C60.7,95,60.6,95.1,60.5,95.1"/>
	</g>
	<g class="st0">
		<defs>
			<rect id="SVGID_23_" width="246.6" height="170.1"/>
		</defs>
		<clipPath id="SVGID_24_">
			<use xlink:href="#SVGID_23_"  style="overflow:visible;"/>
		</clipPath>
		<path class="st22" d="M94.9,115.9c3.8,0,6.9-3.1,6.9-6.9c0-3.8-3.1-6.9-6.9-6.9c-3.8,0-6.9,3.1-6.9,6.9
			C88.1,112.8,91.1,115.9,94.9,115.9"/>
	</g>
	<path class="st23" d="M97.2,112.3v-2.8h0.3v-3.7h1.2v6.5H97.2z M92.8,109.4h0.3v2.8h-1.5v-6.5h1.2V109.4z M93.8,109.4v-3.7h0.8v3.7
		H95v2.8h-1.5v-2.8H93.8z M95.7,109.4v-3.7h0.8v3.7h0.3v2.8h-1.5v-2.8H95.7z"/>
	<g class="st0">
		<defs>
			<rect id="SVGID_25_" width="246.6" height="170.1"/>
		</defs>
		<clipPath id="SVGID_26_">
			<use xlink:href="#SVGID_25_"  style="overflow:visible;"/>
		</clipPath>
		<path class="st24" d="M171.9,114.9c3.8,0,6.9-3.1,6.9-6.9c0-3.8-3.1-6.9-6.9-6.9c-3.8,0-6.9,3.1-6.9,6.9
			C165,111.8,168.1,114.9,171.9,114.9"/>
	</g>
	<g class="st0">
		<defs>
			<rect id="SVGID_27_" x="163.6" y="99.7" width="16.5" height="16.5"/>
		</defs>
		<clipPath id="SVGID_28_">
			<use xlink:href="#SVGID_27_"  style="overflow:visible;"/>
		</clipPath>
		<path class="st25" d="M168.8,110.4c-0.9,0-1.6-0.7-1.6-1.6c0-0.9,0.7-1.6,1.6-1.6c0.9,0,1.6,0.7,1.6,1.6
			C170.3,109.7,169.7,110.4,168.8,110.4 M168.8,107.9c-0.5,0-0.9,0.4-0.9,0.9c0,0.5,0.4,0.9,0.9,0.9c0.5,0,0.9-0.4,0.9-0.9
			C169.7,108.3,169.3,107.9,168.8,107.9"/>
		<path class="st25" d="M175,110.4c-0.9,0-1.6-0.7-1.6-1.6c0-0.9,0.7-1.6,1.6-1.6c0.9,0,1.6,0.7,1.6,1.6
			C176.5,109.7,175.8,110.4,175,110.4 M175,107.9c-0.5,0-0.9,0.4-0.9,0.9c0,0.5,0.4,0.9,0.9,0.9c0.5,0,0.9-0.4,0.9-0.9
			C175.9,108.3,175.5,107.9,175,107.9"/>
		<path class="st25" d="M175.2,106.8c0.1,0,0.2-0.1,0.2-0.2c0-0.4-0.4-0.5-0.4-0.5c0,0-1.3-0.1-1.3-0.1c-0.6,0-1.1,0-1.2,0.6h-1.7
			l-1.4-0.7c0,0-0.1,0-0.1,0h-1.1c-0.1,0-0.2,0.1-0.2,0.1c0,0.1,0,0.2,0.1,0.2c0,0,1,0.6,1.8,1c0.6,0.6,0.6,1.4,0.6,1.4
			c0,0.1,0.1,0.2,0.2,0.2h2.1c0.1,0,0.2-0.1,0.2-0.2C173.1,107.4,173.7,106.8,175.2,106.8"/>
		<path class="st25" d="M174.9,109c-0.1,0-0.1,0-0.2-0.1l-1.7-2.2c-0.1-0.1-0.1-0.3,0-0.3c0.1-0.1,0.3-0.1,0.3,0l1.7,2.2
			c0.1,0.1,0.1,0.3,0,0.3C175,109,175,109,174.9,109"/>
		<path class="st25" d="M168.8,109c-0.1,0-0.2,0-0.2-0.1c-0.1-0.1,0-0.3,0.1-0.3l2-1.4c0.1-0.1,0.3,0,0.3,0.1c0.1,0.1,0,0.3-0.1,0.3
			l-2,1.4C168.9,109,168.9,109,168.8,109"/>
		<line class="st26" x1="175.1" y1="106.6" x2="173.9" y2="105.2"/>
	</g>
	<g class="st0">
		<defs>
			<rect id="SVGID_29_" width="246.6" height="170.1"/>
		</defs>
		<clipPath id="SVGID_30_">
			<use xlink:href="#SVGID_29_"  style="overflow:visible;"/>
		</clipPath>
		<path class="st27" d="M32,45.8c3.8,0,6.9-3.1,6.9-6.9c0-3.8-3.1-6.9-6.9-6.9c-3.8,0-6.9,3.1-6.9,6.9C25.1,42.7,28.2,45.8,32,45.8"
			/>
	</g>
	<g class="st0">
		<defs>
			<rect id="SVGID_31_" x="23.7" y="30.7" width="16.5" height="16.5"/>
		</defs>
		<clipPath id="SVGID_32_">
			<use xlink:href="#SVGID_31_"  style="overflow:visible;"/>
		</clipPath>
		<path class="st28" d="M29.4,40.5c0,0.4,0.3,0.7,0.7,0.7c0.4,0,0.7-0.3,0.7-0.7c0-0.7-0.7-1.3-0.7-1.3S29.4,39.8,29.4,40.5"/>
		<path class="st28" d="M32.1,35.8c-1.4,0-2.6,1.1-2.7,2.6h-0.1v0.2h1.6v-0.2h-0.1c0.1-0.7,0.6-1.2,1.3-1.2c0.7,0,1.3,0.6,1.3,1.3
			v2.7h1.3v-2.7C34.7,37,33.5,35.8,32.1,35.8"/>
	</g>
	<g class="st0">
		<defs>
			<rect id="SVGID_33_" width="246.6" height="170.1"/>
		</defs>
		<clipPath id="SVGID_34_">
			<use xlink:href="#SVGID_33_"  style="overflow:visible;"/>
		</clipPath>
		<path class="st29" d="M98.4,45.8c3.8,0,6.9-3.1,6.9-6.9c0-3.8-3.1-6.9-6.9-6.9c-3.8,0-6.9,3.1-6.9,6.9
			C91.5,42.7,94.6,45.8,98.4,45.8"/>
	</g>
	<path class="st23" d="M100,39.9l-1.1-1.7h0.5L97.6,35l-1.8,3.2h0.5l-1.1,1.7h0.5l-1,1.6h2.6v0.8h0.6v-0.8h2.6l-1-1.6H100z
		 M101.4,39.7h0.3l-0.7-1.1h0.3l-1.1-2l-0.7,1.2l0.4,0.6h-0.5l1.1,1.7h-0.5l0.6,0.9v-0.4h1.4L101.4,39.7z"/>
	<g class="st0">
		<defs>
			<rect id="SVGID_35_" width="246.6" height="170.1"/>
		</defs>
		<clipPath id="SVGID_36_">
			<use xlink:href="#SVGID_35_"  style="overflow:visible;"/>
		</clipPath>
		<path class="st30" d="M130.3,103.7c3.8,0,6.9-3.1,6.9-6.9c0-3.8-3.1-6.9-6.9-6.9c-3.8,0-6.9,3.1-6.9,6.9
			C123.4,100.6,126.5,103.7,130.3,103.7"/>
	</g>
	<g class="st0">
		<defs>
			<rect id="SVGID_37_" x="122" y="88.6" width="16.5" height="16.5"/>
		</defs>
		<clipPath id="SVGID_38_">
			<use xlink:href="#SVGID_37_"  style="overflow:visible;"/>
		</clipPath>
		<path class="st31" d="M131.9,92.8h-2.8c-0.5,0-0.9,0.4-0.9,0.9v6.3c0,0.5,0.4,0.9,0.9,0.9h2.8c0.5,0,0.9-0.4,0.9-0.9v-6.3
			C132.8,93.3,132.4,92.8,131.9,92.8 M129.7,93.4h1.7c0,0,0.1,0,0.1,0.1c0,0,0,0.1-0.1,0.1h-1.7C129.6,93.5,129.6,93.5,129.7,93.4
			C129.6,93.4,129.6,93.4,129.7,93.4 M130.6,100.8c-0.2,0-0.3-0.2-0.3-0.3c0-0.2,0.2-0.3,0.3-0.3c0.2,0,0.3,0.2,0.3,0.3
			C130.9,100.7,130.7,100.8,130.6,100.8 M132.4,99.8h-3.8v-5.7h3.8V99.8z"/>
	</g>
	<g class="st0">
		<defs>
			<rect id="SVGID_39_" width="246.6" height="170.1"/>
		</defs>
		<clipPath id="SVGID_40_">
			<use xlink:href="#SVGID_39_"  style="overflow:visible;"/>
		</clipPath>
		<path class="st32" d="M120.1,45.8c3.8,0,6.9-3.1,6.9-6.9c0-3.8-3.1-6.9-6.9-6.9c-3.8,0-6.9,3.1-6.9,6.9
			C113.2,42.7,116.3,45.8,120.1,45.8"/>
	</g>
	<g class="st0">
		<defs>
			<rect id="SVGID_41_" x="111.8" y="30.7" width="16.5" height="16.5"/>
		</defs>
		<clipPath id="SVGID_42_">
			<use xlink:href="#SVGID_41_"  style="overflow:visible;"/>
		</clipPath>
		<path class="st33" d="M123.5,36l-0.3-0.3l-2.5,2.4c-0.1-0.1-0.2-0.1-0.4-0.2v-4.5H120v4.5c-0.4,0.1-0.8,0.5-0.8,1c0,0.6,0.4,1,1,1
			c0.6,0,1-0.4,1-1c0-0.2-0.1-0.3-0.1-0.5L123.5,36z M120.2,39.5c-0.3,0-0.6-0.3-0.6-0.6c0-0.3,0.3-0.6,0.6-0.6
			c0.3,0,0.6,0.3,0.6,0.6C120.8,39.2,120.5,39.5,120.2,39.5"/>
	</g>
	<g class="st0">
		<defs>
			<rect id="SVGID_43_" width="246.6" height="170.1"/>
		</defs>
		<clipPath id="SVGID_44_">
			<use xlink:href="#SVGID_43_"  style="overflow:visible;"/>
		</clipPath>
		<path class="st34" d="M145.6,45.8c3.8,0,6.9-3.1,6.9-6.9c0-3.8-3.1-6.9-6.9-6.9c-3.8,0-6.9,3.1-6.9,6.9
			C138.8,42.7,141.8,45.8,145.6,45.8"/>
	</g>
	<g class="st0">
		<defs>
			<rect id="SVGID_45_" x="137.4" y="30.7" width="16.5" height="16.5"/>
		</defs>
		<clipPath id="SVGID_46_">
			<use xlink:href="#SVGID_45_"  style="overflow:visible;"/>
		</clipPath>
		<path class="st35" d="M148.8,37.7l-0.8-0.4l0.5-0.8l-0.8,0.2c-0.4-0.4-0.9-0.6-1.5-0.5c-0.8,0.2-1.3,1-1,1.8c0,0,0,0,0,0l-2.6-0.2
			c-0.1,0.9,0.6,1.7,1.7,2.1l-1.9,1c1,0.2,2.2,0.2,3.6-0.1v0.5l-0.2,0.1c-0.1,0-0.1,0.2-0.1,0.2c0,0.1,0.2,0.1,0.2,0.1l0.2-0.1
			l0.7,0.2c0,0,0,0,0,0c0.1,0,0.1-0.1,0.2-0.1c0-0.1,0-0.2-0.1-0.2l-0.6-0.2v-0.6c1.2-0.4,1.9-1.6,1.8-2.8L148.8,37.7z"/>
	</g>
	<g class="st0">
		<defs>
			<rect id="SVGID_47_" width="246.6" height="170.1"/>
		</defs>
		<clipPath id="SVGID_48_">
			<use xlink:href="#SVGID_47_"  style="overflow:visible;"/>
		</clipPath>
		<g class="st36">
			<g>
				<defs>
					<rect id="SVGID_49_" x="96.8" y="69.8" width="15.8" height="15.8"/>
				</defs>
				<clipPath id="SVGID_50_">
					<use xlink:href="#SVGID_49_"  style="overflow:visible;"/>
				</clipPath>
			</g>
		</g>
		<path class="st37" d="M123.8,89.4c3.8,0,6.9-3.1,6.9-6.9c0-3.8-3.1-6.9-6.9-6.9c-3.8,0-6.9,3.1-6.9,6.9
			C117,86.3,120,89.4,123.8,89.4"/>
	</g>
	<g class="st0">
		<defs>
			<rect id="SVGID_51_" x="115.6" y="74.2" width="16.5" height="16.5"/>
		</defs>
		<clipPath id="SVGID_52_">
			<use xlink:href="#SVGID_51_"  style="overflow:visible;"/>
		</clipPath>
		<path class="st38" d="M126.8,83.9c0.4,0,0.7,0.4,0.7,0.8c0,0.4-0.3,0.8-0.7,0.8c-0.4,0-0.7-0.4-0.7-0.8
			C126.1,84.3,126.4,83.9,126.8,83.9"/>
		<path class="st38" d="M122,85.4c0.1-0.8,0.2-1.5,0.2-2.3v-0.5c0-0.3,0-0.6,0-1c0-0.5,0.2-0.9,0.4-1.1c0.1-0.2,0.3-0.3,0.5-0.5
			c0.6-0.5,1.4-1,2.2-1c0.2,0,0.4,0,0.5,0.1c0.1,0.1,0.2,0.2,0.2,0.3c0,0.1-0.1,0.3-0.4,0.4c-0.4,0.2-0.8,0.3-1.2,0.5l-0.1,0
			c-0.2,0.1-0.8,0.3-1,0.9c-0.2,0.6,0.3,1.2,0.5,1.4l0.6-0.6c-0.3-0.3-0.3-0.5-0.3-0.6c0-0.1,0.2-0.2,0.5-0.3l0.1,0
			c0.4-0.1,0.9-0.3,1.3-0.5c0.5-0.3,0.8-0.7,0.8-1.2c0-0.4-0.2-0.9-0.6-1.1c-0.2-0.2-0.6-0.2-0.9-0.2c-1,0-1.9,0.6-2.6,1.1
			c-0.2,0.2-0.5,0.4-0.7,0.7c-0.3,0.4-0.5,0.9-0.5,1.6c0,0.4,0,0.7,0,1.1v0.4c0,0.7-0.1,1.4-0.2,2.1L122,85.4z"/>
		<path class="st38" d="M120.3,85.9h2.5l-0.5-0.9l-2,0.1c-0.2,0-0.3,0.1-0.4,0.3C119.9,85.6,120,85.9,120.3,85.9"/>
		<path class="st38" d="M123,82v2.2c0,0.9,0.6,1.5,1.4,1.5h1.7c-0.3-0.2-0.4-0.6-0.4-1c0-0.7,0.5-1.3,1.1-1.3c0.2,0,0.4,0.1,0.6,0.2
			V82H123z M123.4,83.9c0-0.1,0.1-0.1,0.1-0.1s0.1,0.1,0.1,0.1c0,0.1,0,0.1,0,0.2c0.2,0.5,0.5,0.8,0.9,1.1c0.1,0,0.1,0.1,0,0.2
			c0,0-0.1,0.1-0.1,0.1c0,0,0,0-0.1,0c-0.4-0.3-0.8-0.7-1-1.2C123.5,84.1,123.4,84,123.4,83.9"/>
	</g>
	<g class="st0">
		<defs>
			<rect id="SVGID_53_" width="246.6" height="170.1"/>
		</defs>
		<clipPath id="SVGID_54_">
			<use xlink:href="#SVGID_53_"  style="overflow:visible;"/>
		</clipPath>
		<path class="st39" d="M204.3,29.8c0,0-1,0-1,1v22c0,0,0,1,1,1h2.9c0,0,1,0,1-1v-22c0,0,0-1-1-1H204.3z"/>
		<path class="st40" d="M204.3,105.1c0,0-1,0-1,1v38c0,0,0,1,1,1h2.9c0,0,1,0,1-1v-38c0,0,0-1-1-1H204.3z"/>
	</g>
	<rect x="203.3" y="53.2" class="st41" width="4.9" height="14.9"/>
	<rect x="203.3" y="68.1" class="st42" width="4.9" height="19"/>
	<rect x="203.3" y="87.1" class="st43" width="4.9" height="19"/>
</g>
</svg>
