<?xml version="1.0" encoding="utf-8"?>
<!-- Generator: Adobe Illustrator 22.0.1, SVG Export Plug-In . SVG Version: 6.00 Build 0)  -->
<svg version="1.1" xmlns="http://www.w3.org/2000/svg" xmlns:xlink="http://www.w3.org/1999/xlink" x="0px" y="0px"
	 viewBox="0 0 246.6 170.1" style="enable-background:new 0 0 246.6 170.1;" xml:space="preserve">
<style type="text/css">
	.st0{fill:#E1E1E0;}
	.st1{fill:none;stroke:#A1A2A2;stroke-width:0.222;}
	.st2{fill:none;stroke:#A1A2A2;stroke-width:0.222;stroke-dasharray:1.786,1.786;}
	.st3{fill:#6E6E6E;}
	.st4{font-family:'Univers-Light';}
	.st5{font-size:4.4445px;}
	.st6{font-family:'UniversCom-45Light';}
	.st7{font-size:4.4446px;}
	
		.st8{clip-path:url(#SVGID_2_);fill:none;stroke:#E4003E;stroke-width:0.889;stroke-miterlimit:10;stroke-dasharray:1.78,0,9.000000e-03,1.763,9.000000e-03,0;}
	.st9{font-size:6px;}
	.st10{fill:#28333C;}
	.st11{font-family:'UniversCom-65Bold';}
	.st12{clip-path:url(#SVGID_4_);fill:#FFFFFF;}
	.st13{clip-path:url(#SVGID_11_);}
	.st14{clip-path:url(#SVGID_12_);}
	.st15{clip-path:url(#SVGID_13_);}
	.st16{clip-path:url(#SVGID_14_);}
	.st17{clip-path:url(#SVGID_15_);}
	.st18{clip-path:url(#SVGID_16_);fill:#FFFFFF;}
	.st19{clip-path:url(#SVGID_21_);}
	.st20{clip-path:url(#SVGID_22_);}
	.st21{clip-path:url(#SVGID_23_);}
	.st22{clip-path:url(#SVGID_24_);fill:#FFFFFF;}
	.st23{clip-path:url(#SVGID_26_);fill:#FFFFFF;}
	.st24{fill:#FFFFFF;}
	.st25{clip-path:url(#SVGID_32_);}
	.st26{clip-path:url(#SVGID_33_);}
	.st27{clip-path:url(#SVGID_34_);}
	.st28{clip-path:url(#SVGID_35_);}
	.st29{clip-path:url(#SVGID_36_);fill:#FFFFFF;}
	.st30{clip-path:url(#SVGID_36_);fill:none;stroke:#FFFFFF;stroke-width:5.600000e-02;stroke-linecap:round;stroke-miterlimit:10;}
	.st31{clip-path:url(#SVGID_39_);}
	.st32{clip-path:url(#SVGID_40_);fill:#FFFFFF;}
	.st33{clip-path:url(#SVGID_42_);fill:#FFFFFF;}
	.st34{clip-path:url(#SVGID_44_);fill:#FFFFFF;}
	.st35{clip-path:url(#SVGID_46_);fill:#FFFFFF;}
	.st36{clip-path:url(#SVGID_51_);}
	.st37{clip-path:url(#SVGID_52_);}
	.st38{clip-path:url(#SVGID_53_);}
	.st39{clip-path:url(#SVGID_54_);fill:#FFFFFF;}
	.st40{fill:#57A92E;}
	.st41{fill:#74191B;}
	.st42{fill:#EACE00;}
	.st43{fill:#EC7B02;}
	.st44{fill:#E51E1C;}
	.st45{fill:none;}
	.st46{font-size:6.0491px;}
	.st47{font-size:6.05px;}
</style>
<g id="Ebene_2">
</g>
<g id="Ebene_1">
	<g>
		<g>
			<path class="st0" d="M46.3,83.8c-4-2.5-8-5.3-11.3-8.7c-3.4-3.5-7.2-6.9-9.2-11.4c-2.2-5-0.1-10.1,5-12.2
				c5.6-2.3,9.7,1.1,14.4,3.7c13,7.1,27,11.7,41.7,13.5c11.3,1.4,22.8,1.4,34-0.5c7.2-1.2,14.3-3.4,21.1-6
				c6.6-2.5,13.6-5.2,19.8-8.6c6.5-3.6,22-8.7,23.3,3.1c0.5,4.6-3.2,8.9-6.2,11.9c-4,4.2-8.7,7.7-13.5,10.9
				c-7.8,5.3-15.9,10.4-24.8,13.8c-13.2,5.1-28,8-42.2,7.4c-14.5-0.6-28.8-4.8-41.8-11c-2.7-1.3-5.4-2.8-8-4.3
				C48,84.8,47.2,84.3,46.3,83.8"/>
		</g>
		<g>
			<line class="st1" x1="22.5" y1="29.1" x2="190.9" y2="29.1"/>
		</g>
		<g>
			<line class="st1" x1="22.5" y1="77.3" x2="190.9" y2="77.3"/>
		</g>
		<g>
			<line class="st1" x1="22.5" y1="116.2" x2="190.9" y2="116.2"/>
		</g>
		<g>
			<line class="st1" x1="145.6" y1="145.6" x2="145.6" y2="28.9"/>
		</g>
		<g>
			<line class="st1" x1="22.5" y1="38.8" x2="190.9" y2="38.8"/>
		</g>
		<g>
			<line class="st1" x1="22.5" y1="87.1" x2="190.9" y2="87.1"/>
		</g>
		<g>
			<line class="st1" x1="22.5" y1="125.9" x2="190.9" y2="125.9"/>
		</g>
		<g>
			<line class="st1" x1="22.5" y1="48.7" x2="190.9" y2="48.7"/>
		</g>
		<g>
			<line class="st1" x1="22.5" y1="96.9" x2="190.9" y2="96.9"/>
		</g>
		<g>
			<line class="st1" x1="22.5" y1="135.8" x2="190.9" y2="135.8"/>
		</g>
		<g>
			<line class="st1" x1="22.5" y1="145.4" x2="190.9" y2="145.4"/>
		</g>
		<g>
			<line class="st1" x1="171.4" y1="145.4" x2="171.4" y2="29"/>
		</g>
		<g>
			<line class="st1" x1="22.5" y1="58.5" x2="190.9" y2="58.5"/>
		</g>
		<g>
			<line class="st1" x1="22.5" y1="106.7" x2="190.9" y2="106.7"/>
		</g>
		<g>
			<line class="st1" x1="93.8" y1="145.4" x2="93.8" y2="29.3"/>
		</g>
		<g>
			<line class="st1" x1="67.8" y1="145.4" x2="67.8" y2="29.3"/>
		</g>
		<g>
			<line class="st1" x1="42.2" y1="145.4" x2="42.2" y2="29.3"/>
		</g>
		<g>
			<line class="st2" x1="158.6" y1="145.4" x2="158.6" y2="29.3"/>
		</g>
		<g>
			<line class="st2" x1="132.6" y1="145.4" x2="132.6" y2="29.4"/>
		</g>
		<g>
			<line class="st2" x1="106.7" y1="145.4" x2="106.7" y2="29.3"/>
		</g>
		<g>
			<line class="st1" x1="22.5" y1="68" x2="190.9" y2="68"/>
		</g>
		<g>
			<line class="st1" x1="22.5" y1="116.2" x2="190.9" y2="116.2"/>
		</g>
		<g>
			<line class="st1" x1="119.6" y1="145.7" x2="119.6" y2="28.9"/>
		</g>
		<g>
			<text transform="matrix(1 0 0 1 15.3433 31.6713)" class="st3 st4 st5">0</text>
		</g>
		<g>
			<text transform="matrix(1 0 0 1 12.8721 41.2714)" class="st3 st4 st5">10</text>
		</g>
		<g>
			<text transform="matrix(1 0 0 1 12.8721 50.872)" class="st3 st4 st5">20</text>
		</g>
		<g>
			<text transform="matrix(1 0 0 1 12.8721 60.4721)" class="st3 st4 st5">30</text>
		</g>
		<g>
			<text transform="matrix(1 0 0 1 12.8721 70.0722)" class="st3 st4 st5">40</text>
		</g>
		<g>
			<text transform="matrix(1 0 0 1 12.8721 79.6723)" class="st3 st4 st5">50</text>
		</g>
		<g>
			<text transform="matrix(1 0 0 1 12.8721 89.2724)" class="st3 st4 st5">60</text>
		</g>
		<g>
			<text transform="matrix(1 0 0 1 12.8721 98.872)" class="st3 st4 st5">70</text>
		</g>
		<g>
			<text transform="matrix(1 0 0 1 12.8721 108.4725)" class="st3 st4 st5">80</text>
		</g>
		<g>
			<text transform="matrix(1 0 0 1 12.8721 118.0722)" class="st3 st4 st5">90</text>
		</g>
		<g>
			<text transform="matrix(1 0 0 1 10.4009 127.6727)" class="st3 st4 st5">100</text>
		</g>
		<g>
			<text transform="matrix(1 0 0 1 10.4009 137.2724)" class="st3 st4 st5">110</text>
		</g>
		<g>
			<text transform="matrix(1 0 0 1 10.4009 146.8729)" class="st3 st4 st5">120</text>
		</g>
		<g>
			<text transform="matrix(1 0 0 1 37.939 24.4403)" class="st3 st6 st5">250</text>
		</g>
		<g>
			<text transform="matrix(1 0 0 1 63.3574 24.4403)" class="st3 st6 st5">500</text>
		</g>
		<g>
			<text transform="matrix(0.931 0 0 1 92.002 24.4395)" class="st3 st6 st7">1k</text>
		</g>
		<g>
			<text transform="matrix(1 0 0 1 116.7959 24.4017)" class="st3 st6 st5">2k</text>
		</g>
		<g>
			<text transform="matrix(0.9701 0 0 1 142.8701 24.4385)" class="st3 st6 st5">4k</text>
		</g>
		<g>
			<text transform="matrix(1 0 0 1 168.5957 24.328)" class="st3 st6 st5">8k</text>
		</g>
		<g>
			<g>
				<defs>
					<rect id="SVGID_1_" x="8.9" y="19.2" width="183.3" height="129.5"/>
				</defs>
				<clipPath id="SVGID_2_">
					<use xlink:href="#SVGID_1_"  style="overflow:visible;"/>
				</clipPath>
				<path class="st8" d="M45.2,84c-4-2.5-8-5.3-11.4-8.8s-7.3-7-9.3-11.5c-2.3-5-0.1-10.1,5-12.2c5.6-2.3,9.8,1.1,14.5,3.7
					C57.1,62.3,71.2,67,86.1,68.8c11.3,1.4,23,1.4,34.3-0.5c7.3-1.2,14.4-3.4,21.3-6.1c6.7-2.6,13.7-5.2,19.9-8.7
					c6.5-3.7,22.2-8.7,23.5,3.1c0.5,4.6-3.3,9-6.2,12c-4.1,4.2-8.8,7.7-13.6,11c-7.9,5.3-16,10.5-25,13.9
					c-13.3,5.1-28.2,8.1-42.5,7.5c-14.6-0.6-29-4.8-42.1-11.1c-2.8-1.3-5.5-2.8-8.1-4.4C46.8,85,46,84.5,45.2,84z"/>
			</g>
			<g>
				<text transform="matrix(-6.123234e-17 -1 1 -6.123234e-17 199.0636 145.8281)" class="st6 st9">Degree of hearing loss</text>
			</g>
			<g>
				<text transform="matrix(1 0 0 1 223.4287 56.9828)" class="st10 st11 st9"> </text>
			</g>
			<g>
				<text transform="matrix(1 0 0 1 210.7207 64.183)" class="st10 st6 st9">26-40 dB</text>
			</g>
			<g>
				<text transform="matrix(1 0 0 1 210.7207 79.2069)" class="st10 st6 st9">4</text>
				<text transform="matrix(1 0 0 1 214.0207 79.2069)" class="st10 st6 st9">1</text>
				<text transform="matrix(1 0 0 1 216.9207 79.2069)" class="st10 st6 st9">-60 dB</text>
			</g>
			<g>
				<text transform="matrix(1 0 0 1 210.7207 98.1972)" class="st10 st6 st9">6</text>
				<text transform="matrix(1 0 0 1 214.0207 98.1972)" class="st10 st6 st9">1</text>
				<text transform="matrix(1 0 0 1 216.9207 98.1972)" class="st10 st6 st9">-80 dB</text>
			</g>
			<g>
				<g>
					<path class="st10" d="M146.9,142.4c3.8,0,6.9-3.1,6.9-6.9c0-3.8-3.1-6.9-6.9-6.9c-3.8,0-6.9,3.1-6.9,6.9
						C139.9,139.4,143.1,142.4,146.9,142.4"/>
				</g>
				<g>
					<g>
						<defs>
							<rect id="SVGID_3_" x="138.6" y="127.3" width="16.5" height="16.5"/>
						</defs>
						<clipPath id="SVGID_4_">
							<use xlink:href="#SVGID_3_"  style="overflow:visible;"/>
						</clipPath>
						<path class="st12" d="M144.4,137.3l-0.9-0.1l-0.3,0.3l1.1,0.4l0.4,1.1l0.3-0.3l-0.1-0.9l1.9-1.7l1.3,3.2l0.6-0.6l-0.7-3.6
							l1.2-1.1c0.5-0.5,0.8-1.1,0.7-1.8c-0.7,0-1.3,0.2-1.8,0.7l-1.1,1.2l-3.6-0.7l-0.6,0.6l3.2,1.3L144.4,137.3z"/>
					</g>
					<g>
						<g>
							<path class="st10" d="M107.4,142.4c3.8,0,6.9-3.1,6.9-6.9c0-3.8-3.1-6.9-6.9-6.9s-6.9,3.1-6.9,6.9
								C100.6,139.4,103.7,142.4,107.4,142.4"/>
						</g>
						<g>
							<g>
								<defs>
									<rect id="SVGID_5_" x="99.2" y="127.3" width="16.5" height="16.5"/>
								</defs>
								<defs>
									<rect id="SVGID_6_" x="99.2" y="127.3" width="16.5" height="16.5"/>
								</defs>
								<defs>
									<rect id="SVGID_7_" x="99.2" y="127.3" width="16.5" height="16.5"/>
								</defs>
								<defs>
									<rect id="SVGID_8_" x="99.2" y="127.3" width="16.5" height="16.5"/>
								</defs>
								<defs>
									<rect id="SVGID_9_" x="99.2" y="127.3" width="16.5" height="16.5"/>
								</defs>
								<defs>
									<rect id="SVGID_10_" x="99.2" y="127.3" width="16.5" height="16.5"/>
								</defs>
								<clipPath id="SVGID_11_">
									<use xlink:href="#SVGID_5_"  style="overflow:visible;"/>
								</clipPath>
								<clipPath id="SVGID_12_" class="st13">
									<use xlink:href="#SVGID_6_"  style="overflow:visible;"/>
								</clipPath>
								<clipPath id="SVGID_13_" class="st14">
									<use xlink:href="#SVGID_7_"  style="overflow:visible;"/>
								</clipPath>
								<clipPath id="SVGID_14_" class="st15">
									<use xlink:href="#SVGID_8_"  style="overflow:visible;"/>
								</clipPath>
								<clipPath id="SVGID_15_" class="st16">
									<use xlink:href="#SVGID_9_"  style="overflow:visible;"/>
								</clipPath>
								<clipPath id="SVGID_16_" class="st17">
									<use xlink:href="#SVGID_10_"  style="overflow:visible;"/>
								</clipPath>
								<path class="st18" d="M106.8,132.6h-1.9h-0.1h-0.7c-0.2,0-0.4,0.2-0.4,0.4v0.3v0.5v4.2c0,0.2,0.2,0.4,0.4,0.4h2.6
									c0.2,0,0.4-0.2,0.4-0.4v-5C107.2,132.8,107.1,132.6,106.8,132.6 M105.4,133.3c0.5,0,0.9,0.4,0.9,1c0,0.5-0.4,0.9-0.9,0.9
									s-0.9-0.4-0.9-1C104.6,133.7,104.9,133.3,105.4,133.3 M105.4,137.9c-0.6,0-1.1-0.5-1.1-1.1s0.5-1.1,1.1-1.1s1.1,0.5,1.1,1.1
									C106.6,137.4,106.1,137.9,105.4,137.9"/>
								<path class="st18" d="M105.4,134.5c0.2,0,0.3-0.1,0.3-0.3s-0.1-0.3-0.3-0.3c-0.2,0-0.3,0.1-0.3,0.3
									C105.2,134.4,105.2,134.5,105.4,134.5"/>
								<path class="st18" d="M105.4,136.4c-0.2,0-0.4,0.2-0.4,0.4s0.2,0.4,0.4,0.4c0.2,0,0.4-0.2,0.4-0.4S105.7,136.4,105.4,136.4"
									/>
								<path class="st18" d="M110.8,132.6h-1.9h-0.1h-0.7c-0.2,0-0.4,0.2-0.4,0.4v0.3v0.5v4.2c0,0.2,0.2,0.4,0.4,0.4h2.6
									c0.2,0,0.4-0.2,0.4-0.4v-5C111.2,132.8,111.1,132.6,110.8,132.6 M109.6,133.3c0.5,0,0.9,0.4,0.9,1c0,0.5-0.4,0.9-0.9,0.9
									s-0.9-0.4-0.9-1C108.7,133.7,109.1,133.3,109.6,133.3 M109.6,137.9c-0.6,0-1.1-0.5-1.1-1.1s0.5-1.1,1.1-1.1s1.1,0.5,1.1,1.1
									S110.2,137.9,109.6,137.9"/>
								<path class="st18" d="M109.6,134.5c0.2,0,0.3-0.1,0.3-0.3s-0.1-0.3-0.3-0.3c-0.2,0-0.3,0.1-0.3,0.3
									C109.2,134.4,109.3,134.5,109.6,134.5"/>
								<path class="st18" d="M109.6,136.4c-0.2,0-0.4,0.2-0.4,0.4s0.2,0.4,0.4,0.4c0.2,0,0.4-0.2,0.4-0.4
									C109.9,136.6,109.8,136.4,109.6,136.4"/>
							</g>
							<g>
								<g>
									<path class="st10" d="M29.5,132.3c3.8,0,6.9-3.1,6.9-6.9c0-3.8-3.1-6.9-6.9-6.9s-6.9,3.1-6.9,6.9
										C22.5,129.3,25.6,132.3,29.5,132.3"/>
								</g>
								<g>
									<g>
										<defs>
											<rect id="SVGID_17_" x="21.1" y="117.2" width="16.5" height="16.5"/>
										</defs>
										<defs>
											<rect id="SVGID_18_" x="21.1" y="117.2" width="16.5" height="16.5"/>
										</defs>
										<defs>
											<rect id="SVGID_19_" x="21.1" y="117.2" width="16.5" height="16.5"/>
										</defs>
										<defs>
											<rect id="SVGID_20_" x="21.1" y="117.2" width="16.5" height="16.5"/>
										</defs>
										<clipPath id="SVGID_21_">
											<use xlink:href="#SVGID_17_"  style="overflow:visible;"/>
										</clipPath>
										<clipPath id="SVGID_22_" class="st19">
											<use xlink:href="#SVGID_18_"  style="overflow:visible;"/>
										</clipPath>
										<clipPath id="SVGID_23_" class="st20">
											<use xlink:href="#SVGID_19_"  style="overflow:visible;"/>
										</clipPath>
										<clipPath id="SVGID_24_" class="st21">
											<use xlink:href="#SVGID_20_"  style="overflow:visible;"/>
										</clipPath>
										<path class="st22" d="M32,126.5c0.4,0,0.8,0.4,0.8,0.8s-0.4,0.8-0.8,0.8c-0.4,0-0.8-0.4-0.8-0.8
											C31.2,126.9,31.6,126.5,32,126.5"/>
										<path class="st22" d="M31.5,123.9v-0.8v-0.3c0-0.3-0.2-0.5-0.5-0.5h-5.1c-0.3,0-0.5,0.2-0.5,0.5v2.9
											c0,0.3,0.2,0.5,0.5,0.5h0.5l0,0c0.2-0.2,0.5-0.3,0.8-0.3c0.7,0,1.3,0.6,1.3,1.3h2.2c0-0.5,0.3-1,0.8-1.2V123.9z"/>
										<path class="st22" d="M33.7,124.4c-0.1-0.3-0.5-0.5-0.8-0.5h-1.1v2.2c0.1,0,0.2,0,0.3,0c0.7,0,1.3,0.6,1.3,1.3
											c0.3,0,0.5-0.2,0.5-0.5v-0.8V125L33.7,124.4z M33.5,125.2h-1.2v-1.1h0.5c0.1,0,0.3,0.1,0.4,0.2l0.3,0.6V125.2z"/>
										<path class="st22" d="M27.2,126.5c0.4,0,0.8,0.4,0.8,0.8s-0.4,0.8-0.8,0.8s-0.8-0.4-0.8-0.8
											C26.5,126.9,26.9,126.5,27.2,126.5"/>
									</g>
									<g>
										<g>
											<path class="st10" d="M55.8,103.6c3.8,0,6.9-3.1,6.9-6.9s-3.1-6.9-6.9-6.9c-3.8,0-6.9,3.1-6.9,6.9
												C49,100.5,52,103.6,55.8,103.6"/>
										</g>
										<g>
											<g>
												<g>
													<defs>
														<rect id="SVGID_25_" x="47.7" y="88.4" width="16.5" height="16.5"/>
													</defs>
													<clipPath id="SVGID_26_">
														<use xlink:href="#SVGID_25_"  style="overflow:visible;"/>
													</clipPath>
													<path class="st23" d="M60.2,94.7c0,0-0.1,0.1-0.3,0.3c-0.2,0.3-0.4,0.3-0.6,0.2c-0.1,0-0.2-0.1-0.2-0.1s0,0.4-0.2,0.4
														h-0.2c0,0,0,0.6-0.7,1.3c-0.3,0.3-0.3,0.4-0.5,0.8c-0.2,0.5,0,1,0,1s0.2,0.1,0.3,0.1S58,98.9,58,99l0,0h-0.9
														c-0.1-0.1-0.3-0.4-0.4-0.9c-0.1-0.6-0.1-1-0.1-1c-0.6,0.3-1.4-0.2-1.6-0.3c-0.1-0.1-0.1-0.1-0.3-0.1s-0.2,0.1-0.4,0.3
														c-0.1,0.2-0.7,0.8-0.8,1c-0.1,0.1,0,0.5,0,0.5c0.2,0,0.3,0.2,0.3,0.2s0.2,0.2,0,0.2l0,0h-0.4h-0.1
														c-0.1,0-0.1-0.1-0.2-0.2c0-0.1-0.1-0.1-0.2-0.4c-0.1-0.4-0.1-0.6-0.1-0.6c-0.1,0.2-0.3,0.3-0.3,0.4s-0.1,0.4-0.1,0.4
														s0.2,0.1,0.3,0.2s0,0.2-0.1,0.2c0,0,0,0-0.1,0h-0.2c-0.1,0-0.2,0-0.2-0.1c-0.1,0-0.2-0.2-0.1-0.3c0-0.1,0-0.2,0-0.4
														c0-0.2,0.1-0.5,0.1-0.5c0.1-0.2,0.3-0.5,0.3-0.5c-0.2,0-0.5,0.3-0.7,0.4s-0.5,0.1-0.5,0.1s-0.5,0.2-0.6,0
														c-0.2-0.2,0.6-0.5,1.3-1.1c0.7-0.5,0.5-1.1,0.9-1.5s1-0.6,1.7-0.6c1.8,0.1,2.1-0.1,2.6-0.2s0.8-0.5,1.4-0.8
														c0.5-0.2,0.8,0.1,1,0.2s0.1,0.4,0.1,0.4s0.2,0.2,0.5,0.3C60.5,94.6,60.3,94.7,60.2,94.7"/>
												</g>
												<g>
													<g>
														<g>
															<path class="st10" d="M94.7,115.5c3.8,0,6.9-3.1,6.9-6.9s-3.1-6.9-6.9-6.9s-6.9,3.1-6.9,6.9
																C87.8,112.4,90.8,115.5,94.7,115.5"/>
														</g>
														<g>
															<path class="st24" d="M96.9,111.9v-2.8h0.3v-3.7h1.2v6.5H96.9z M92.6,109h0.3v2.8h-1.5v-6.5h1.2V109z M93.6,109v-3.7
																h0.8v3.7h0.4v2.8h-1.5V109H93.6z M95.4,109v-3.7h0.8v3.7h0.3v2.8h-1.5V109H95.4z"/>
														</g>
														<g>
															<g>
																<g>
																	<path class="st10" d="M171.6,114.5c3.8,0,6.9-3.1,6.9-6.9s-3.1-6.9-6.9-6.9c-3.8,0-6.9,3.1-6.9,6.9
																		S167.9,114.5,171.6,114.5"/>
																</g>
																<g>
																	<g>
																		<g>
																			<defs>
																				<rect id="SVGID_27_" x="163.4" y="99.3" width="16.5" height="16.5"/>
																			</defs>
																			<defs>
																				<rect id="SVGID_28_" x="163.4" y="99.3" width="16.5" height="16.5"/>
																			</defs>
																			<defs>
																				<rect id="SVGID_29_" x="163.4" y="99.3" width="16.5" height="16.5"/>
																			</defs>
																			<defs>
																				<rect id="SVGID_30_" x="163.4" y="99.3" width="16.5" height="16.5"/>
																			</defs>
																			<defs>
																				<rect id="SVGID_31_" x="163.4" y="99.3" width="16.5" height="16.5"/>
																			</defs>
																			<clipPath id="SVGID_32_">
																				<use xlink:href="#SVGID_27_"  style="overflow:visible;"/>
																			</clipPath>
																			<clipPath id="SVGID_33_" class="st25">
																				<use xlink:href="#SVGID_28_"  style="overflow:visible;"/>
																			</clipPath>
																			<clipPath id="SVGID_34_" class="st26">
																				<use xlink:href="#SVGID_29_"  style="overflow:visible;"/>
																			</clipPath>
																			<clipPath id="SVGID_35_" class="st27">
																				<use xlink:href="#SVGID_30_"  style="overflow:visible;"/>
																			</clipPath>
																			<clipPath id="SVGID_36_" class="st28">
																				<use xlink:href="#SVGID_31_"  style="overflow:visible;"/>
																			</clipPath>
																			<path class="st29" d="M168.6,110c-0.9,0-1.6-0.7-1.6-1.6s0.7-1.6,1.6-1.6c0.9,0,1.6,0.7,1.6,1.6
																				C170.1,109.3,169.4,110,168.6,110 M168.6,107.5c-0.5,0-0.9,0.4-0.9,0.9s0.4,0.9,0.9,0.9s0.9-0.4,0.9-0.9
																				S169.1,107.5,168.6,107.5"/>
																			<path class="st29" d="M174.8,110c-0.9,0-1.6-0.7-1.6-1.6s0.7-1.6,1.6-1.6c0.9,0,1.6,0.7,1.6,1.6
																				C176.2,109.3,175.6,110,174.8,110 M174.8,107.5c-0.5,0-0.9,0.4-0.9,0.9s0.4,0.9,0.9,0.9s0.9-0.4,0.9-0.9
																				S175.2,107.5,174.8,107.5"/>
																			<path class="st29" d="M174.9,106.4c0.1,0,0.2-0.1,0.2-0.2c0-0.4-0.4-0.5-0.4-0.5l-1.3-0.1c-0.6,0-1.1,0-1.2,0.6
																				h-1.7l-1.4-0.7h-0.1h-1.1c-0.1,0-0.2,0.1-0.2,0.1c0,0.1,0,0.2,0.1,0.2c0,0,1,0.6,1.8,1c0.6,0.6,0.6,1.4,0.6,1.4
																				c0,0.1,0.1,0.2,0.2,0.2h2.1c0.1,0,0.2-0.1,0.2-0.2C172.9,107,173.4,106.4,174.9,106.4"/>
																			<path class="st29" d="M174.6,108.6c-0.1,0-0.1,0-0.2-0.1l-1.7-2.2c-0.1-0.1-0.1-0.3,0-0.3c0.1-0.1,0.3-0.1,0.3,0
																				l1.7,2.2c0.1,0.1,0.1,0.3,0,0.3C174.8,108.6,174.8,108.6,174.6,108.6"/>
																			<path class="st29" d="M168.6,108.6c-0.1,0-0.2,0-0.2-0.1c-0.1-0.1,0-0.3,0.1-0.3l2-1.4c0.1-0.1,0.3,0,0.3,0.1
																				c0.1,0.1,0,0.3-0.1,0.3l-2,1.4C168.6,108.6,168.6,108.6,168.6,108.6"/>
																			<line class="st30" x1="174.9" y1="106.2" x2="173.6" y2="104.8"/>
																		</g>
																		<g>
																			<path class="st10" d="M31.8,45.4c3.8,0,6.9-3.1,6.9-6.9c0-3.8-3.1-6.9-6.9-6.9c-3.8,0-6.9,3.1-6.9,6.9
																				C24.9,42.3,28,45.4,31.8,45.4"/>
																		</g>
																		<g>
																			<defs>
																				<rect id="SVGID_37_" x="23.5" y="30.3" width="16.5" height="16.5"/>
																			</defs>
																			<defs>
																				<rect id="SVGID_38_" x="23.5" y="30.3" width="16.5" height="16.5"/>
																			</defs>
																			<clipPath id="SVGID_39_">
																				<use xlink:href="#SVGID_37_"  style="overflow:visible;"/>
																			</clipPath>
																			<clipPath id="SVGID_40_" class="st31">
																				<use xlink:href="#SVGID_38_"  style="overflow:visible;"/>
																			</clipPath>
																			<path class="st32" d="M29.1,40.1c0,0.4,0.3,0.7,0.7,0.7c0.4,0,0.7-0.3,0.7-0.7c0-0.7-0.7-1.3-0.7-1.3
																				S29.1,39.4,29.1,40.1"/>
																			<path class="st32" d="M31.8,35.4c-1.4,0-2.6,1.1-2.7,2.6H29v0.2h1.6V38h-0.1c0.1-0.7,0.6-1.2,1.3-1.2
																				s1.3,0.6,1.3,1.3v2.7h1.3v-2.7C34.5,36.6,33.2,35.4,31.8,35.4"/>
																		</g>
																		<g>
																			<path class="st10" d="M98.2,45.4c3.8,0,6.9-3.1,6.9-6.9c0-3.8-3.1-6.9-6.9-6.9s-6.9,3.1-6.9,6.9
																				C91.2,42.3,94.3,45.4,98.2,45.4"/>
																		</g>
																		<g>
																			<path class="st24" d="M99.8,39.5l-1.1-1.7h0.5l-1.8-3.2l-1.8,3.2H96l-1.1,1.7h0.5l-1,1.6H97v0.8h0.6v-0.8h2.6
																				l-1-1.6H99.8z M101.2,39.3h0.3l-0.7-1.1h0.3l-1.1-2l-0.7,1.2l0.4,0.6h-0.5l1.1,1.7h-0.5l0.6,0.9v-0.4h1.4
																				L101.2,39.3z"/>
																		</g>
																		<g>
																			<path class="st10" d="M130.1,103.3c3.8,0,6.9-3.1,6.9-6.9s-3.1-6.9-6.9-6.9c-3.8,0-6.9,3.1-6.9,6.9
																				S126.2,103.3,130.1,103.3"/>
																		</g>
																		<g>
																			<defs>
																				<rect id="SVGID_41_" x="121.8" y="88.2" width="16.5" height="16.5"/>
																			</defs>
																			<clipPath id="SVGID_42_">
																				<use xlink:href="#SVGID_41_"  style="overflow:visible;"/>
																			</clipPath>
																			<path class="st33" d="M131.6,92.4h-2.8c-0.5,0-0.9,0.4-0.9,0.9v6.3c0,0.5,0.4,0.9,0.9,0.9h2.8
																				c0.5,0,0.9-0.4,0.9-0.9v-6.3C132.6,92.9,132.1,92.4,131.6,92.4 M129.4,93h1.7c0,0,0.1,0,0.1,0.1
																				c0,0,0,0.1-0.1,0.1h-1.7C129.4,93.1,129.4,93.1,129.4,93C129.4,93,129.4,93,129.4,93 M130.4,100.4
																				c-0.2,0-0.3-0.2-0.3-0.3c0-0.2,0.2-0.3,0.3-0.3c0.2,0,0.3,0.2,0.3,0.3C130.6,100.3,130.4,100.4,130.4,100.4
																				 M132.1,99.4h-3.8v-5.7h3.8V99.4z"/>
																		</g>
																		<g>
																			<path class="st10" d="M119.8,45.4c3.8,0,6.9-3.1,6.9-6.9c0-3.8-3.1-6.9-6.9-6.9s-6.9,3.1-6.9,6.9
																				C112.9,42.3,116.1,45.4,119.8,45.4"/>
																		</g>
																		<g>
																			<defs>
																				<rect id="SVGID_43_" x="111.6" y="30.3" width="16.5" height="16.5"/>
																			</defs>
																			<clipPath id="SVGID_44_">
																				<use xlink:href="#SVGID_43_"  style="overflow:visible;"/>
																			</clipPath>
																			<path class="st34" d="M123.2,35.6l-0.3-0.3l-2.5,2.4c-0.1-0.1-0.2-0.1-0.4-0.2V33h-0.3v4.5
																				c-0.4,0.1-0.8,0.5-0.8,1c0,0.6,0.4,1,1,1s1-0.4,1-1c0-0.2-0.1-0.3-0.1-0.5L123.2,35.6z M119.9,39.1
																				c-0.3,0-0.6-0.3-0.6-0.6s0.3-0.6,0.6-0.6c0.3,0,0.6,0.3,0.6,0.6C120.6,38.8,120.2,39.1,119.9,39.1"/>
																		</g>
																		<g>
																			<path class="st10" d="M145.4,45.4c3.8,0,6.9-3.1,6.9-6.9c0-3.8-3.1-6.9-6.9-6.9c-3.8,0-6.9,3.1-6.9,6.9
																				C138.6,42.3,141.6,45.4,145.4,45.4"/>
																		</g>
																		<g>
																			<defs>
																				<rect id="SVGID_45_" x="137.1" y="30.3" width="16.5" height="16.5"/>
																			</defs>
																			<clipPath id="SVGID_46_">
																				<use xlink:href="#SVGID_45_"  style="overflow:visible;"/>
																			</clipPath>
																			<path class="st35" d="M148.6,37.3l-0.8-0.4l0.5-0.8l-0.8,0.2c-0.4-0.4-0.9-0.6-1.5-0.5c-0.8,0.2-1.3,1-1,1.8l0,0
																				l-2.6-0.2c-0.1,0.9,0.6,1.7,1.7,2.1l-1.9,1c1,0.2,2.2,0.2,3.6-0.1v0.5l-0.2,0.1c-0.1,0-0.1,0.2-0.1,0.2
																				c0,0.1,0.2,0.1,0.2,0.1l0.2-0.1l0.7,0.2l0,0c0.1,0,0.1-0.1,0.2-0.1c0-0.1,0-0.2-0.1-0.2l-0.6-0.2v-0.6
																				c1.2-0.4,1.9-1.6,1.8-2.8L148.6,37.3z"/>
																		</g>
																		<g>
																			<path class="st10" d="M123.6,89c3.8,0,6.9-3.1,6.9-6.9s-3.1-6.9-6.9-6.9s-6.9,3.1-6.9,6.9
																				C116.8,85.9,119.8,89,123.6,89"/>
																		</g>
																		<g>
																			<defs>
																				<rect id="SVGID_47_" x="115.3" y="73.8" width="16.5" height="16.5"/>
																			</defs>
																			<defs>
																				<rect id="SVGID_48_" x="115.3" y="73.8" width="16.5" height="16.5"/>
																			</defs>
																			<defs>
																				<rect id="SVGID_49_" x="115.3" y="73.8" width="16.5" height="16.5"/>
																			</defs>
																			<defs>
																				<rect id="SVGID_50_" x="115.3" y="73.8" width="16.5" height="16.5"/>
																			</defs>
																			<clipPath id="SVGID_51_">
																				<use xlink:href="#SVGID_47_"  style="overflow:visible;"/>
																			</clipPath>
																			<clipPath id="SVGID_52_" class="st36">
																				<use xlink:href="#SVGID_48_"  style="overflow:visible;"/>
																			</clipPath>
																			<clipPath id="SVGID_53_" class="st37">
																				<use xlink:href="#SVGID_49_"  style="overflow:visible;"/>
																			</clipPath>
																			<clipPath id="SVGID_54_" class="st38">
																				<use xlink:href="#SVGID_50_"  style="overflow:visible;"/>
																			</clipPath>
																			<path class="st39" d="M126.6,83.5c0.4,0,0.7,0.4,0.7,0.8s-0.3,0.8-0.7,0.8c-0.4,0-0.7-0.4-0.7-0.8
																				C125.8,83.9,126.2,83.5,126.6,83.5"/>
																			<path class="st39" d="M121.8,85c0.1-0.8,0.2-1.5,0.2-2.3v-0.5c0-0.3,0-0.6,0-1c0-0.5,0.2-0.9,0.4-1.1
																				c0.1-0.2,0.3-0.3,0.5-0.5c0.6-0.5,1.4-1,2.2-1c0.2,0,0.4,0,0.5,0.1s0.2,0.2,0.2,0.3c0,0.1-0.1,0.3-0.4,0.4
																				c-0.4,0.2-0.8,0.3-1.2,0.5H124c-0.2,0.1-0.8,0.3-1,0.9s0.3,1.2,0.5,1.4l0.6-0.6c-0.3-0.3-0.3-0.5-0.3-0.6
																				s0.2-0.2,0.5-0.3h0.1c0.4-0.1,0.9-0.3,1.3-0.5c0.5-0.3,0.8-0.7,0.8-1.2c0-0.4-0.2-0.9-0.6-1.1
																				c-0.2-0.2-0.6-0.2-0.9-0.2c-1,0-1.9,0.6-2.6,1.1c-0.2,0.2-0.5,0.4-0.7,0.7c-0.3,0.4-0.5,0.9-0.5,1.6
																				c0,0.4,0,0.7,0,1.1v0.4c0,0.7-0.1,1.4-0.2,2.1L121.8,85z"/>
																			<path class="st39" d="M120.1,85.5h2.5l-0.5-0.9l-2,0.1c-0.2,0-0.3,0.1-0.4,0.3C119.7,85.2,119.8,85.5,120.1,85.5
																				"/>
																			<path class="st39" d="M122.8,81.6v2.2c0,0.9,0.6,1.5,1.4,1.5h1.7c-0.3-0.2-0.4-0.6-0.4-1c0-0.7,0.5-1.3,1.1-1.3
																				c0.2,0,0.4,0.1,0.6,0.2v-1.6H122.8z M123.2,83.5C123.2,83.4,123.2,83.4,123.2,83.5h0.2c0,0.1,0,0.1,0,0.2
																				c0.2,0.5,0.5,0.8,0.9,1.1c0.1,0,0.1,0.1,0,0.2l-0.1,0.1c0,0,0,0-0.1,0c-0.4-0.3-0.8-0.7-1-1.2
																				C123.2,83.7,123.2,83.6,123.2,83.5"/>
																		</g>
																		<g>
																			<path class="st40" d="M204.1,29.4c0,0-1,0-1,1v22c0,0,0,1,1,1h2.9c0,0,1,0,1-1v-22c0,0,0-1-1-1H204.1z"/>
																			<path class="st41" d="M204.1,104.7c0,0-1,0-1,1v38c0,0,0,1,1,1h2.9c0,0,1,0,1-1v-38c0,0,0-1-1-1
																				C206.9,104.7,204.1,104.7,204.1,104.7z"/>
																		</g>
																		<g>
																			<rect x="203.1" y="52.8" class="st42" width="4.9" height="14.9"/>
																		</g>
																		<g>
																			<rect x="203.1" y="67.7" class="st43" width="4.9" height="19"/>
																		</g>
																		<g>
																			<rect x="203.1" y="86.7" class="st44" width="4.9" height="19"/>
																		</g>
																	</g>
																</g>
															</g>
														</g>
													</g>
												</g>
											</g>
										</g>
									</g>
								</g>
							</g>
						</g>
					</g>
				</g>
			</g>
		</g>
	</g>
	<rect x="163.6" y="99.7" class="st45" width="16.5" height="16.5"/>
	<text transform="matrix(1 0 0 1 210.9989 57.3472)" class="st11 st46">leve</text>
	<text transform="matrix(1 0 0 1 210.3322 72.3472)" class="st11 st46">moderada</text>
	<text transform="matrix(1 0 0 1 210.3322 91.4503)" class="st11 st46">intensa</text>
	<rect x="210.1" y="105.6" class="st45" width="52.9" height="26.6"/>
	<text transform="matrix(1 0 0 1 210.0585 110.0112)"><tspan x="0" y="0" class="st11 st47">profunda </tspan><tspan x="0" y="7.2" class="st10 st6 st9">81-120 dB</tspan></text>
	<rect x="130.5" y="12.2" class="st45" width="61" height="7.2"/>
	<text transform="matrix(1 0 0 1 145.1025 16.6182)" class="st6 st47">Frecuencia en Hz</text>
	<rect x="8.9" y="151.5" class="st45" width="61" height="7.2"/>
	<text transform="matrix(1 0 0 1 8.9132 155.8222)" class="st6 st47">Volumen en dB  </text>
	<rect x="210.8" y="30" class="st45" width="45.8" height="20"/>
	<text transform="matrix(1 0 0 1 210.8386 34.3212)"><tspan x="0" y="0" class="st11 st47">Pérdida  </tspan><tspan x="0" y="7.2" class="st11 st47">normal</tspan><tspan x="0" y="14.4" class="st10 st6 st9">26-40 dB</tspan></text>
</g>
<g id="Ebene_3">
</g>
<g id="Ebene_4">
</g>
<g id="Ebene_5">
</g>
</svg>
