<?xml version="1.0" encoding="utf-8"?>
<!-- Generator: Adobe Illustrator 22.0.1, SVG Export Plug-In . SVG Version: 6.00 Build 0)  -->
<svg version="1.1" id="Ebene_1" xmlns="http://www.w3.org/2000/svg" xmlns:xlink="http://www.w3.org/1999/xlink" x="0px" y="0px"
	 viewBox="0 0 482.4 467.3" style="enable-background:new 0 0 482.4 467.3;" xml:space="preserve">
<style type="text/css">
	.st0{fill:none;stroke:#000000;stroke-width:0.5;stroke-miterlimit:10;}
	.st1{fill:none;stroke:#6E6E6E;stroke-width:0.5;stroke-miterlimit:10;}
	.st2{fill:none;stroke:#6E6E6E;stroke-width:0.5;stroke-miterlimit:10;stroke-dasharray:1.990338e-02,1.9804,1.9903,0;}
	
		.st3{fill:none;stroke:#6E6E6E;stroke-width:0.5;stroke-miterlimit:10;stroke-dasharray:1.9903,1.9804,1.990338e-02,1.9804,1.9903,0;}
	.st4{font-family:'UniversCom-45Light';}
	.st5{font-size:12px;}
	.st6{font-size:15px;}
	.st7{fill:none;stroke:#2E2382;stroke-miterlimit:10;}
	.st8{fill:none;stroke:#E3000B;stroke-miterlimit:10;}
</style>
<g id="Grid">
	<g>
		<rect x="53" y="50.3" class="st0" width="428" height="414"/>
		<line class="st0" x1="87.7" y1="50.3" x2="87.7" y2="464.3"/>
		<line class="st0" x1="159" y1="50.3" x2="159" y2="464.3"/>
		<line class="st0" x1="230.7" y1="50.3" x2="230.7" y2="464.3"/>
		<line class="st0" x1="302.3" y1="50.3" x2="302.3" y2="464.3"/>
		<line class="st0" x1="373.7" y1="50.3" x2="373.7" y2="464.3"/>
		<line class="st0" x1="445.7" y1="50.3" x2="445.7" y2="464.3"/>
		<line class="st0" x1="53" y1="75.7" x2="481" y2="75.7"/>
		<line class="st0" x1="53" y1="105" x2="481" y2="105"/>
		<line class="st0" x1="53" y1="135.3" x2="481" y2="135.3"/>
		<line class="st0" x1="53" y1="165.3" x2="481" y2="165.3"/>
		<line class="st0" x1="53" y1="197.3" x2="481" y2="197.3"/>
		<line class="st0" x1="53" y1="225.7" x2="481" y2="225.7"/>
		<line class="st0" x1="53" y1="254" x2="481" y2="254"/>
		<line class="st0" x1="53" y1="284.3" x2="481" y2="284.3"/>
		<line class="st0" x1="53" y1="315.7" x2="481" y2="315.7"/>
		<line class="st0" x1="53" y1="345" x2="481" y2="345"/>
		<line class="st0" x1="53" y1="375.3" x2="481" y2="375.3"/>
		<line class="st0" x1="53" y1="405.7" x2="481" y2="405.7"/>
		<line class="st0" x1="53" y1="436" x2="481" y2="436"/>
	</g>
	<g>
		<g>
			<line class="st1" x1="337" y1="50.3" x2="337" y2="51.3"/>
			<line class="st2" x1="337" y1="53.3" x2="337" y2="57.3"/>
			<line class="st3" x1="337" y1="57.3" x2="337" y2="463.3"/>
			<line class="st1" x1="337" y1="463.3" x2="337" y2="464.3"/>
		</g>
	</g>
	<g>
		<g>
			<line class="st1" x1="409.7" y1="50.3" x2="409.7" y2="51.3"/>
			<line class="st2" x1="409.7" y1="53.3" x2="409.7" y2="57.3"/>
			<line class="st3" x1="409.7" y1="57.3" x2="409.7" y2="463.3"/>
			<line class="st1" x1="409.7" y1="463.3" x2="409.7" y2="464.3"/>
		</g>
	</g>
</g>
<g id="Labels">
	<g>
		<text transform="matrix(1 0 0 1 77.6696 36.4355)" class="st4 st5">250</text>
		<text transform="matrix(1 0 0 1 24.2676 78.8748)" class="st4 st5">-10</text>
		<text transform="matrix(1 0 0 1 29.2715 107.6728)" class="st4 st5">0</text>
		<text transform="matrix(1 0 0 1 25.9356 136.9858)" class="st4 st5">10</text>
		<text transform="matrix(1 0 0 1 25.9356 165.3192)" class="st4 st5">20</text>
		<text transform="matrix(1 0 0 1 25.9356 197.319)" class="st4 st5">30</text>
		<text transform="matrix(1 0 0 1 25.9356 225.6527)" class="st4 st5">40</text>
		<text transform="matrix(1 0 0 1 25.9356 253.9857)" class="st4 st5">50</text>
		<text transform="matrix(1 0 0 1 25.9356 284.319)" class="st4 st5">60</text>
		<text transform="matrix(1 0 0 1 25.9356 315.6526)" class="st4 st5">70</text>
		<text transform="matrix(1 0 0 1 25.9356 344.9857)" class="st4 st5">80</text>
		<text transform="matrix(1 0 0 1 25.9356 375.319)" class="st4 st5">90</text>
		<text transform="matrix(1 0 0 1 22.5996 405.6526)" class="st4 st5">100</text>
		<text transform="matrix(1 0 0 1 22.5996 435.9857)" class="st4 st5">110</text>
		<text transform="matrix(1 0 0 1 22.5996 464.319)" class="st4 st5">120</text>
		<text transform="matrix(1 0 0 1 149.0031 36.4355)" class="st4 st5">500</text>
		<text transform="matrix(1 0 0 1 217.3338 36.4355)" class="st4 st5">1000</text>
		<text transform="matrix(1 0 0 1 289.0001 36.4355)" class="st4 st5">2000</text>
		<text transform="matrix(1 0 0 1 360.3337 36.4355)" class="st4 st5">4000</text>
		<text transform="matrix(1 0 0 1 432.3334 36.4355)" class="st4 st5">8000</text>
		<text transform="matrix(1 0 0 1 389.8265 12.9375)" class="st4 st6">Frequenz (Hz)</text>
		<text transform="matrix(6.123234e-17 -1 1 6.123234e-17 12.9375 467.1816)" class="st4 st6">Hörniveau (dB) Ref.: ANSI-2010</text>
	</g>
</g>
<g id="Ebene_3">
	<polyline class="st7" points="87.7,105 157,105 230.7,121 302.3,150.5 337,150.5 373.7,181 409.7,211.5 445.7,211.5 	"/>
	<g>
		<line class="st7" x1="78.7" y1="96" x2="96.6" y2="113.9"/>
		<line class="st7" x1="96.6" y1="96" x2="78.7" y2="113.9"/>
	</g>
	<g>
		<line class="st7" x1="150.1" y1="96" x2="167.9" y2="113.9"/>
		<line class="st7" x1="167.9" y1="96" x2="150.1" y2="113.9"/>
	</g>
	<g>
		<line class="st7" x1="221.7" y1="112.1" x2="239.6" y2="130"/>
		<line class="st7" x1="239.6" y1="112.1" x2="221.7" y2="130"/>
	</g>
	<g>
		<line class="st7" x1="293.4" y1="141.4" x2="311.3" y2="159.2"/>
		<line class="st7" x1="311.3" y1="141.4" x2="293.4" y2="159.2"/>
	</g>
	<g>
		<line class="st7" x1="328.1" y1="141.4" x2="345.9" y2="159.2"/>
		<line class="st7" x1="345.9" y1="141.4" x2="328.1" y2="159.2"/>
	</g>
	<g>
		<line class="st7" x1="364.7" y1="171.9" x2="382.6" y2="189.7"/>
		<line class="st7" x1="382.6" y1="171.9" x2="364.7" y2="189.7"/>
	</g>
	<g>
		<line class="st7" x1="400.7" y1="202.4" x2="418.6" y2="220.2"/>
		<line class="st7" x1="418.6" y1="202.4" x2="400.7" y2="220.2"/>
	</g>
	<g>
		<line class="st7" x1="436.7" y1="202.4" x2="454.6" y2="220.2"/>
		<line class="st7" x1="454.6" y1="202.4" x2="436.7" y2="220.2"/>
	</g>
	<polyline class="st8" points="87.7,137 156,150.3 302.3,150.5 337,165.3 373.7,195 409.7,240 445.7,254 	"/>
	<circle class="st8" cx="87.7" cy="137" r="9.8"/>
	<circle class="st8" cx="159" cy="150.3" r="9.8"/>
	<circle class="st8" cx="230.7" cy="150.3" r="9.8"/>
	<circle class="st8" cx="302.3" cy="150.3" r="9.8"/>
	<circle class="st8" cx="337" cy="165.3" r="9.8"/>
	<circle class="st8" cx="373.7" cy="195.5" r="9.8"/>
	<circle class="st8" cx="409.7" cy="240.2" r="9.8"/>
	<circle class="st8" cx="445.7" cy="254" r="9.8"/>
</g>
</svg>
