<?xml version="1.0" encoding="utf-8"?>
<!-- Generator: Adobe Illustrator 22.0.1, SVG Export Plug-In . SVG Version: 6.00 Build 0)  -->
<svg version="1.1" xmlns="http://www.w3.org/2000/svg" xmlns:xlink="http://www.w3.org/1999/xlink" x="0px" y="0px"
	 viewBox="0 0 871.3 767.1" style="enable-background:new 0 0 871.3 767.1;" xml:space="preserve">
<style type="text/css">
	.st0{fill:none;stroke:#A3A19E;stroke-miterlimit:10;}
	.st1{font-family:'UniversCom-55Roman';}
	.st2{font-size:20px;}
	.st3{fill:none;}
	.st4{font-family:'GillSansMTPro-Medium';}
	.st5{fill:none;stroke:#A3A19E;stroke-width:3;stroke-linecap:round;stroke-linejoin:round;stroke-miterlimit:10;}
</style>
<g id="Grid">
</g>
<g id="Labels">
	<rect x="92.2" y="157.1" class="st0" width="644" height="571"/>
	<line class="st0" x1="129.2" y1="157.1" x2="129.2" y2="728.1"/>
	<line class="st0" x1="242.2" y1="157.1" x2="242.2" y2="728.1"/>
	<line class="st0" x1="298.2" y1="157.1" x2="298.2" y2="728.1"/>
	<line class="st0" x1="352.2" y1="157.1" x2="352.2" y2="728.1"/>
	<line class="st0" x1="408.2" y1="157.1" x2="408.2" y2="728.1"/>
	<line class="st0" x1="461.2" y1="157.1" x2="461.2" y2="728.1"/>
	<line class="st0" x1="517.2" y1="157.1" x2="517.2" y2="728.1"/>
	<line class="st0" x1="570.2" y1="157.1" x2="570.2" y2="728.1"/>
	<line class="st0" x1="626.2" y1="157.1" x2="626.2" y2="728.1"/>
	<line class="st0" x1="679.2" y1="157.1" x2="679.2" y2="728.1"/>
	<line class="st0" x1="92.2" y1="208.1" x2="736.2" y2="208.1"/>
	<line class="st0" x1="92.2" y1="255.1" x2="736.2" y2="255.1"/>
	<line class="st0" x1="92.2" y1="302.1" x2="736.2" y2="302.1"/>
	<line class="st0" x1="92.2" y1="349.1" x2="736.2" y2="349.1"/>
	<line class="st0" x1="92.2" y1="394.1" x2="736.2" y2="394.1"/>
	<line class="st0" x1="92.2" y1="442.6" x2="736.2" y2="442.6"/>
	<line class="st0" x1="92.2" y1="491" x2="736.2" y2="491"/>
	<line class="st0" x1="92.2" y1="536.1" x2="736.2" y2="536.1"/>
	<line class="st0" x1="92.2" y1="587.9" x2="736.2" y2="587.9"/>
	<line class="st0" x1="92.2" y1="634.1" x2="736.2" y2="634.1"/>
	<line class="st0" x1="92.2" y1="680.3" x2="736.2" y2="680.3"/>
	<text transform="matrix(1 0 0 1 52.2366 162.8884)" class="st1 st2">-10</text>
	<text transform="matrix(1 0 0 1 67.9598 212.5551)" class="st1 st2">0</text>
	<text transform="matrix(1 0 0 1 58.2723 259.8884)" class="st1 st2">10</text>
	<text transform="matrix(1 0 0 1 57.8821 307.2217)" class="st1 st2">20</text>
	<text transform="matrix(1 0 0 1 57.8821 354.2217)" class="st1 st2">30</text>
	<text transform="matrix(1 0 0 1 57.8821 399.2217)" class="st1 st2">40</text>
	<text transform="matrix(1 0 0 1 57.8821 447.5551)" class="st1 st2">50</text>
	<text transform="matrix(1 0 0 1 57.8821 496.2217)" class="st1 st2">60</text>
	<text transform="matrix(1 0 0 1 57.8821 541.8884)" class="st1 st2">70</text>
	<text transform="matrix(1 0 0 1 57.8821 592.5551)" class="st1 st2">80</text>
	<text transform="matrix(1 0 0 1 57.8821 638.5551)" class="st1 st2">90</text>
	<text transform="matrix(1 0 0 1 48.1946 685.5551)" class="st1 st2">100</text>
	<text transform="matrix(1 0 0 1 49.2913 733.2217)" class="st1 st2">110</text>
	<text transform="matrix(1 0 0 1 225.528 141.2217)" class="st1 st2">500</text>
	<text transform="matrix(1 0 0 1 112.8614 141.2217)" class="st1 st2">250</text>
	<text transform="matrix(1 0 0 1 281.5279 141.2217)" class="st1 st2">750</text>
	<text transform="matrix(1 0 0 1 329.9677 141.2217)" class="st1 st2">1000</text>
	<text transform="matrix(1 0 0 1 385.968 141.2217)" class="st1 st2">1500</text>
	<text transform="matrix(1 0 0 1 438.9675 141.2217)" class="st1 st2">2000</text>
	<text transform="matrix(1 0 0 1 494.9679 141.2217)" class="st1 st2">3000</text>
	<text transform="matrix(1 0 0 1 547.9673 141.2217)" class="st1 st2">4000</text>
	<text transform="matrix(1 0 0 1 603.9677 141.2217)" class="st1 st2">5000</text>
	<text transform="matrix(1 0 0 1 656.9682 141.2217)" class="st1 st2">6000</text>
	<text transform="matrix(1 0 0 1 752.0781 208.0474)" class="st1 st2">Edad 20</text>
	<text transform="matrix(1 0 0 1 752.0781 330.6646)" class="st1 st2">Edad 50</text>
	<text transform="matrix(1 0 0 1 752.0781 389.7927)" class="st1 st2">Edad 60</text>
	<text transform="matrix(1 0 0 1 752.0781 486.167)" class="st1 st2">Edad 70</text>
	<text transform="matrix(1 0 0 1 752.0781 582.1802)" class="st1 st2">Edad 80</text>
	<rect x="277.3" y="86.7" class="st3" width="457.5" height="31.5"/>
	<text transform="matrix(1 0 0 1 510.3267 100.336)" class="st4 st2">Frecuencia en hertzios (Hz) </text>
	<text transform="matrix(0 -1 1 0 34.328 284.9561)" class="st4 st2">Umbral auditivo </text>
</g>
<g id="Graphs">
	<polyline class="st5" points="110.2,299.1 349.2,310.1 518.2,438.1 572.2,460.1 696.2,576.1 	"/>
	<polyline class="st5" points="110.2,263.9 352.2,275.1 461.2,319.1 517.2,375.1 571.2,401.1 625.2,425.1 696.2,479.1 	"/>
	<polyline class="st5" points="110.2,239.1 350.2,243.1 463.2,280.1 519.2,311.1 627.2,352.1 680.2,371.1 695.2,382.1 	"/>
	<polyline class="st5" points="110.2,224.1 351.2,225.1 460.2,249.1 571.2,293.1 624.2,313.1 697.2,326.1 	"/>
	<polyline class="st5" points="110.2,213.1 352.2,213.1 516.2,241.1 626.2,259.1 697.2,266.1 	"/>
	<line class="st5" x1="110.2" y1="205.1" x2="696.2" y2="205.1"/>
	<text transform="matrix(1 0 0 1 752.0781 272.1755)" class="st1 st2">Edad 40</text>
</g>
</svg>
