<?xml version="1.0" encoding="utf-8"?>
<!-- Generator: Adobe Illustrator 22.0.1, SVG Export Plug-In . SVG Version: 6.00 Build 0)  -->
<svg version="1.1" id="Ebene_1" xmlns="http://www.w3.org/2000/svg" xmlns:xlink="http://www.w3.org/1999/xlink" x="0px" y="0px"
	 viewBox="0 0 17 18" style="enable-background:new 0 0 17 18;" xml:space="preserve">
<path id="_5-interface_-_arrow_right" d="M0.1,9.5C0.1,9.3,0,9.2,0,9.1c0,0,0,0,0-0.1l0,0l0,0l0,0c0-0.2,0.1-0.4,0.2-0.5l0,0l0,0
	l0,0l6.6-8.1C7,0,7.3-0.1,7.5,0.1c0.1,0,0.1,0.1,0.2,0.2c0.2,0.3,0.2,0.8,0,1.1L2.1,8.2h14.3c0.4,0.1,0.7,0.6,0.6,1
	c-0.1,0.3-0.3,0.5-0.6,0.6H2.2l5.5,6.8C8,17,8,17.4,7.7,17.8C7.6,18,7.3,18.1,7,17.9c-0.1,0-0.1-0.1-0.1-0.1L0.3,9.7l0,0
	c0,0,0,0-0.1,0C0.2,9.6,0.1,9.5,0.1,9.5z"/>
</svg>
