<?xml version="1.0" encoding="utf-8"?>
<!-- Generator: Adobe Illustrator 22.0.1, SVG Export Plug-In . SVG Version: 6.00 Build 0)  -->
<svg version="1.1" id="Ebene_1" xmlns="http://www.w3.org/2000/svg" xmlns:xlink="http://www.w3.org/1999/xlink" x="0px" y="0px"
	 viewBox="0 0 18.9 17.8" style="enable-background:new 0 0 18.9 17.8;" xml:space="preserve">
<style type="text/css">
	.st0{fill:none;stroke:#000000;stroke-width:1.3734;stroke-linejoin:round;stroke-miterlimit:10;}
</style>
<g>
	<g>
		<path d="M18.3,17.8c-0.4,0-0.7-0.3-0.7-0.7V8L9.4,1.5L1.3,8v9.2c0,0.4-0.3,0.7-0.6,0.7S0,17.6,0,17.2V7.7c0-0.2,0.1-0.4,0.2-0.5
			l8.8-7C9.2,0,9.6,0,9.8,0.1l8.9,7c0.2,0.1,0.2,0.3,0.2,0.5v9.5C18.9,17.6,18.6,17.8,18.3,17.8z"/>
	</g>
	<g>
		<path class="st0" d="M18.3,7.7"/>
	</g>
	<g>
		<path class="st0" d="M9.5,8.2"/>
	</g>
	<g>
		<rect x="7.3" y="10.7" width="4.2" height="7"/>
	</g>
</g>
</svg>
