<?xml version="1.0" encoding="utf-8"?>
<!-- Generator: Adobe Illustrator 22.0.1, SVG Export Plug-In . SVG Version: 6.00 Build 0)  -->
<svg version="1.1" id="Ebene_1" xmlns="http://www.w3.org/2000/svg" xmlns:xlink="http://www.w3.org/1999/xlink" x="0px" y="0px"
	 viewBox="0 0 18.9 17.8" style="enable-background:new 0 0 18.9 17.8;" xml:space="preserve">
<path d="M18.3,9.4c-0.3-0.3-0.6-0.5-1-0.6c-0.2-4-3.5-7.1-7.5-7.1H9.1c-4,0-7.3,3.2-7.5,7.1C0.7,9.1,0,9.9,0,10.9v3.5
	c0,1.2,0.9,2.1,2.1,2.1s2.1-0.9,2.1-2.1v-3.5c0-1-0.7-1.8-1.6-2c0.2-3.4,3-6.1,6.5-6.1h0.6c3.4,0,6.3,2.7,6.5,6.1
	c-0.3,0.1-0.7,0.3-0.9,0.5c-0.4,0.4-0.6,0.9-0.6,1.5l0,3.5c0,0.6,0.2,1.1,0.6,1.5s0.9,0.6,1.5,0.6c0,0,0,0,0,0
	c1.1,0,2.1-0.9,2.1-2.1l0-3.5C18.9,10.3,18.7,9.8,18.3,9.4z M3.2,10.9v3.5c0,0.6-0.5,1-1,1c-0.6,0-1-0.5-1-1v-3.5c0-0.6,0.5-1,1-1
	C2.7,9.8,3.2,10.3,3.2,10.9z M17.8,14.3c0,0.6-0.5,1-1.1,1c-0.3,0-0.5-0.1-0.7-0.3c-0.2-0.2-0.3-0.5-0.3-0.7l0-3.5
	c0-0.3,0.1-0.5,0.3-0.7c0.2-0.2,0.5-0.3,0.7-0.3c0,0,0,0,0,0c0.3,0,0.5,0.1,0.7,0.3c0.2,0.2,0.3,0.5,0.3,0.7L17.8,14.3z"/>
</svg>
