<?xml version="1.0" encoding="utf-8"?>
<!-- Generator: Adobe Illustrator 22.0.1, SVG Export Plug-In . SVG Version: 6.00 Build 0)  -->
<svg version="1.1" id="Ebene_1" xmlns="http://www.w3.org/2000/svg" xmlns:xlink="http://www.w3.org/1999/xlink" x="0px" y="0px"
	 viewBox="0 0 17 18" style="enable-background:new 0 0 17 18;" xml:space="preserve">
<path id="_5-interface_-_arrow_right" d="M16.9,8.5C16.9,8.7,17,8.8,17,8.9c0,0,0,0,0,0.1c0,0,0,0,0,0v0c0,0,0,0,0,0
	c0,0.2-0.1,0.4-0.2,0.5c0,0,0,0,0,0s0,0,0,0s0,0,0,0l-6.6,8.1C10,18,9.7,18.1,9.5,17.9c-0.1,0-0.1-0.1-0.2-0.2
	c-0.2-0.3-0.2-0.8,0-1.1l5.6-6.8H0.6C0.2,9.7-0.1,9.2,0,8.8c0.1-0.3,0.3-0.5,0.6-0.6h14.2L9.3,1.4C9,1,9,0.6,9.3,0.2
	C9.4,0,9.7-0.1,10,0.1c0.1,0,0.1,0.1,0.1,0.1l6.6,8.1c0,0,0,0,0,0c0,0,0,0,0.1,0C16.8,8.4,16.9,8.5,16.9,8.5z"/>
</svg>
