<?xml version="1.0" encoding="utf-8"?>
<!-- Generator: Adobe Illustrator 22.0.1, SVG Export Plug-In . SVG Version: 6.00 Build 0)  -->
<svg version="1.1" id="Ebene_1" xmlns="http://www.w3.org/2000/svg" xmlns:xlink="http://www.w3.org/1999/xlink" x="0px" y="0px"
	 viewBox="0 0 17 18" style="enable-background:new 0 0 17 18;" xml:space="preserve">
<path d="M9.2,9.1l6.7-8C16,0.9,16,0.6,15.8,0.4c-0.1-0.1-0.2-0.1-0.3-0.1c-0.2,0-0.3,0-0.3,0.1L8.5,8.3L1.9,0.5
	C1.7,0.3,1.4,0.2,1.2,0.4C1,0.5,1,0.8,1.2,1l6.6,7.9l-6.7,8C1,17.1,1,17.4,1.2,17.6c0.1,0.1,0.2,0.1,0.3,0.1c0.2,0,0.3,0,0.3-0.1
	l6.7-7.9l6.6,7.8c0.2,0.2,0.5,0.3,0.7,0.1c0.2-0.1,0.2-0.4,0-0.6L9.2,9.1z"/>
</svg>
