<?xml version="1.0" encoding="utf-8"?>
<!-- Generator: Adobe Illustrator 22.0.1, SVG Export Plug-In . SVG Version: 6.00 Build 0)  -->
<svg version="1.1" id="Ebene_1" xmlns="http://www.w3.org/2000/svg" xmlns:xlink="http://www.w3.org/1999/xlink" x="0px" y="0px"
	 viewBox="0 0 44.5 34.7" style="enable-background:new 0 0 44.5 34.7;" xml:space="preserve">
<style type="text/css">
	.st0{filter:url(#Adobe_OpacityMaskFilter);}
	.st1{mask:url(#SVGID_1_);}
	.st2{filter:url(#Adobe_OpacityMaskFilter_1_);}
	.st3{clip-path:url(#SVGID_5_);fill:url(#SVGID_6_);}
	.st4{clip-path:url(#SVGID_5_);}
	.st5{clip-path:url(#SVGID_8_);fill:#D8D9D9;}
	.st6{clip-path:url(#SVGID_10_);fill:#CC1122;}
	.st7{filter:url(#Adobe_OpacityMaskFilter_2_);}
	.st8{clip-path:url(#SVGID_10_);}
	.st9{clip-path:url(#SVGID_10_);mask:url(#SVGID_11_);}
	.st10{filter:url(#Adobe_OpacityMaskFilter_3_);}
	.st11{clip-path:url(#SVGID_15_);fill:url(#SVGID_16_);}
	.st12{clip-path:url(#SVGID_15_);}
	.st13{clip-path:url(#SVGID_18_);fill:#D8D9D9;}
	.st14{fill:#CC1122;}
	.st15{fill:none;}
	.st16{filter:url(#Adobe_OpacityMaskFilter_4_);}
	.st17{mask:url(#SVGID_19_);}
	.st18{filter:url(#Adobe_OpacityMaskFilter_5_);}
	.st19{clip-path:url(#SVGID_23_);fill:url(#SVGID_24_);}
	.st20{clip-path:url(#SVGID_23_);}
	.st21{clip-path:url(#SVGID_26_);fill:#D8D9D9;}
</style>
<g id="Musik">
	<g>
		<path class="st15" d="M13.5,23.6c1.1,0.6,3.5,1.6,5.2-0.1c2-1.9,0.5-4.3,0-4.9l-0.5-0.5"/>
		<path class="st15" d="M20.8,25.6c-1.4,1.3-3,1.8-4.5,1.8c-1.9,0-3.6-0.8-4.8-1.5l-5,5.8C26.6,30.9,32,20.1,32.1,20l0.1-0.2
			c0.2-0.2,3.8-5.5,0.3-9.1c-3.2-3.3-7.2-0.6-7.9-0.1l-4.5,5.2l0.9,0.8C22.4,18.3,24.1,22.4,20.8,25.6z M28,13.1c1.1,0,2,0.9,2,2
			c0,1.1-0.9,2-2,2s-2-0.9-2-2S26.9,13.1,28,13.1z"/>
		<path class="st15" d="M15.9,16.2L4.7,6.6c0.6,9,4.1,13.5,6.2,15.3"/>
		<path d="M43,13.8l-6,0c-0.1-1.8-0.8-3.6-2.3-5.2c-4.3-4.4-9.7-2.1-12-0.3l-4.8,5.6L1.7,0l0,3.2C1.5,15.6,6.1,21.6,9,24.2L0,34.7
			l3.2,0c23.7,0.3,30.7-11.8,31.5-13.3c0.8-1.1,1.6-2.7,2-4.6l6.3,0c0.8,0,1.5-0.7,1.5-1.5C44.5,14.5,43.8,13.8,43,13.8z M4.7,6.6
			l11.2,9.6l2.3,1.9l0.5,0.5c0.4,0.6,1.9,3,0,4.9c-1.7,1.7-4.1,0.7-5.2,0.1c-0.3-0.2-0.6-0.3-0.6-0.4l-0.2-0.1
			c-0.1,0-0.8-0.4-1.7-1.2C8.8,20,5.3,15.6,4.7,6.6z M32.2,19.8L32.1,20C32,20.1,26.6,30.9,6.5,31.7l5-5.8c1.1,0.7,2.9,1.5,4.8,1.5
			c1.5,0,3.1-0.4,4.5-1.8c3.3-3.2,1.6-7.3,0.2-9l-0.9-0.8l4.5-5.2c0.7-0.5,4.7-3.2,7.9,0.1C36,14.3,32.3,19.6,32.2,19.8z"/>
		<circle cx="28" cy="15.1" r="2"/>
	</g>
</g>
</svg>
