<?xml version="1.0" encoding="utf-8"?>
<!-- Generator: Adobe Illustrator 22.0.1, SVG Export Plug-In . SVG Version: 6.00 Build 0)  -->
<svg version="1.1" id="Ebene_1" xmlns="http://www.w3.org/2000/svg" xmlns:xlink="http://www.w3.org/1999/xlink" x="0px" y="0px"
	 viewBox="0 0 800.2 654.7" style="enable-background:new 0 0 800.2 654.7;" xml:space="preserve">
<style type="text/css">
	.st0{fill:none;stroke:#A3A19E;stroke-miterlimit:10;}
	.st1{font-family:'UniversCom-55Roman';}
	.st2{font-size:20px;}
	.st3{fill:none;}
	.st4{font-family:'GillSansMTPro-Medium';}
	.st5{fill:none;stroke:#A3A19E;stroke-width:3;stroke-linecap:round;stroke-linejoin:round;stroke-miterlimit:10;}
</style>
<g id="Grid">
</g>
<g id="Labels">
	<rect x="74.7" y="73.6" class="st0" width="644" height="571"/>
	<line class="st0" x1="111.7" y1="73.6" x2="111.7" y2="644.6"/>
	<line class="st0" x1="224.7" y1="73.6" x2="224.7" y2="644.6"/>
	<line class="st0" x1="280.7" y1="73.6" x2="280.7" y2="644.6"/>
	<line class="st0" x1="334.7" y1="73.6" x2="334.7" y2="644.6"/>
	<line class="st0" x1="390.7" y1="73.6" x2="390.7" y2="644.6"/>
	<line class="st0" x1="443.7" y1="73.6" x2="443.7" y2="644.6"/>
	<line class="st0" x1="499.7" y1="73.6" x2="499.7" y2="644.6"/>
	<line class="st0" x1="552.7" y1="73.6" x2="552.7" y2="644.6"/>
	<line class="st0" x1="608.7" y1="73.6" x2="608.7" y2="644.6"/>
	<line class="st0" x1="661.7" y1="73.6" x2="661.7" y2="644.6"/>
	<line class="st0" x1="74.7" y1="124.6" x2="718.7" y2="124.6"/>
	<line class="st0" x1="74.7" y1="171.6" x2="718.7" y2="171.6"/>
	<line class="st0" x1="74.7" y1="218.6" x2="718.7" y2="218.6"/>
	<line class="st0" x1="74.7" y1="265.6" x2="718.7" y2="265.6"/>
	<line class="st0" x1="74.7" y1="310.6" x2="718.7" y2="310.6"/>
	<line class="st0" x1="74.7" y1="359.1" x2="718.7" y2="359.1"/>
	<line class="st0" x1="74.7" y1="407.5" x2="718.7" y2="407.5"/>
	<line class="st0" x1="74.7" y1="452.6" x2="718.7" y2="452.6"/>
	<line class="st0" x1="74.7" y1="504.4" x2="718.7" y2="504.4"/>
	<line class="st0" x1="74.7" y1="550.6" x2="718.7" y2="550.6"/>
	<line class="st0" x1="74.7" y1="596.8" x2="718.7" y2="596.8"/>
	<text transform="matrix(1 0 0 1 34.7288 79.3728)" class="st1 st2">-10</text>
	<text transform="matrix(1 0 0 1 50.452 129.0395)" class="st1 st2">0</text>
	<text transform="matrix(1 0 0 1 40.7645 176.3728)" class="st1 st2">10</text>
	<text transform="matrix(1 0 0 1 40.3743 223.7061)" class="st1 st2">20</text>
	<text transform="matrix(1 0 0 1 40.3743 270.7061)" class="st1 st2">30</text>
	<text transform="matrix(1 0 0 1 40.3743 315.7061)" class="st1 st2">40</text>
	<text transform="matrix(1 0 0 1 40.3743 364.0395)" class="st1 st2">50</text>
	<text transform="matrix(1 0 0 1 40.3743 412.7061)" class="st1 st2">60</text>
	<text transform="matrix(1 0 0 1 40.3743 458.3728)" class="st1 st2">70</text>
	<text transform="matrix(1 0 0 1 40.3743 509.0395)" class="st1 st2">80</text>
	<text transform="matrix(1 0 0 1 40.3743 555.0395)" class="st1 st2">90</text>
	<text transform="matrix(1 0 0 1 30.6868 602.0395)" class="st1 st2">100</text>
	<text transform="matrix(1 0 0 1 31.7835 649.7061)" class="st1 st2">110</text>
	<text transform="matrix(1 0 0 1 208.0202 57.7061)" class="st1 st2">500</text>
	<text transform="matrix(1 0 0 1 95.3536 57.7061)" class="st1 st2">250</text>
	<text transform="matrix(1 0 0 1 264.0201 57.7061)" class="st1 st2">750</text>
	<text transform="matrix(1 0 0 1 312.4599 57.7061)" class="st1 st2">1000</text>
	<text transform="matrix(1 0 0 1 368.4602 57.7061)" class="st1 st2">1500</text>
	<text transform="matrix(1 0 0 1 421.4597 57.7061)" class="st1 st2">2000</text>
	<text transform="matrix(1 0 0 1 477.4601 57.7061)" class="st1 st2">3000</text>
	<text transform="matrix(1 0 0 1 530.4595 57.7061)" class="st1 st2">4000</text>
	<text transform="matrix(1 0 0 1 586.46 57.7061)" class="st1 st2">5000</text>
	<text transform="matrix(1 0 0 1 639.4604 57.7061)" class="st1 st2">6000</text>
	<text transform="matrix(1 0 0 1 734.5703 127.5317)" class="st1 st2">Age 20</text>
	<text transform="matrix(1 0 0 1 734.5703 249.149)" class="st1 st2">Age 50</text>
	<text transform="matrix(1 0 0 1 734.5703 304.2771)" class="st1 st2">Age 60</text>
	<text transform="matrix(1 0 0 1 734.5703 401.6514)" class="st1 st2">Age 70</text>
	<text transform="matrix(1 0 0 1 734.5703 498.6646)" class="st1 st2">Age 80</text>
	<rect x="259.8" y="3.2" class="st3" width="457.5" height="31.5"/>
	<text transform="matrix(1 0 0 1 524.0571 16.8204)" class="st4 st2">Frequency in hertz (Hz)</text>
	<text transform="matrix(6.123234e-17 -1 1 6.123234e-17 16.8202 271.3105)" class="st4 st2">Hearing Threshold in db</text>
</g>
<g id="Graphs">
	<polyline class="st5" points="92.7,215.6 331.7,226.6 500.7,354.6 554.7,376.6 678.7,492.6 	"/>
	<polyline class="st5" points="92.7,180.4 334.7,191.6 443.7,235.6 499.7,291.6 553.7,317.6 607.7,341.6 678.7,395.6 	"/>
	<polyline class="st5" points="92.7,155.6 332.7,159.6 445.7,196.6 501.7,227.6 609.7,268.6 662.7,287.6 677.7,298.6 	"/>
	<polyline class="st5" points="92.7,140.6 333.7,141.6 442.7,165.6 553.7,209.6 606.7,229.6 679.7,242.6 	"/>
	<polyline class="st5" points="92.7,129.6 334.7,129.6 498.7,157.6 608.7,175.6 679.7,182.6 	"/>
	<line class="st5" x1="92.7" y1="121.6" x2="678.7" y2="121.6"/>
	<text transform="matrix(1 0 0 1 734.5703 188.6599)" class="st1 st2">Age 40</text>
</g>
</svg>
