<?xml version="1.0" encoding="utf-8"?>
<!-- Generator: Adobe Illustrator 22.0.1, SVG Export Plug-In . SVG Version: 6.00 Build 0)  -->
<svg version="1.1" id="Ebene_1" xmlns="http://www.w3.org/2000/svg" xmlns:xlink="http://www.w3.org/1999/xlink" x="0px" y="0px"
	 viewBox="0 0 800.2 654.7" style="enable-background:new 0 0 800.2 654.7;" xml:space="preserve">
<style type="text/css">
	.st0{fill:none;stroke:#A3A19E;stroke-miterlimit:10;}
	.st1{enable-background:new    ;}
	.st2{fill:none;}
	.st3{fill:none;stroke:#A3A19E;stroke-width:3;stroke-linecap:round;stroke-linejoin:round;stroke-miterlimit:10;}
	.st4{fill:none;stroke:#CC1122;stroke-width:3;stroke-linecap:round;stroke-linejoin:round;stroke-miterlimit:10;}
	.st5{fill:#CC0E22;}
</style>
<g id="Grid">
</g>
<rect x="74.7" y="73.6" class="st0" width="644" height="571"/>
<line class="st0" x1="111.7" y1="73.6" x2="111.7" y2="644.6"/>
<line class="st0" x1="224.7" y1="73.6" x2="224.7" y2="644.6"/>
<line class="st0" x1="280.7" y1="73.6" x2="280.7" y2="644.6"/>
<line class="st0" x1="334.7" y1="73.6" x2="334.7" y2="644.6"/>
<line class="st0" x1="390.7" y1="73.6" x2="390.7" y2="644.6"/>
<line class="st0" x1="443.7" y1="73.6" x2="443.7" y2="644.6"/>
<line class="st0" x1="499.7" y1="73.6" x2="499.7" y2="644.6"/>
<line class="st0" x1="552.7" y1="73.6" x2="552.7" y2="644.6"/>
<line class="st0" x1="608.7" y1="73.6" x2="608.7" y2="644.6"/>
<line class="st0" x1="661.7" y1="73.6" x2="661.7" y2="644.6"/>
<line class="st0" x1="74.7" y1="124.6" x2="718.7" y2="124.6"/>
<line class="st0" x1="74.7" y1="171.6" x2="718.7" y2="171.6"/>
<line class="st0" x1="74.7" y1="218.6" x2="718.7" y2="218.6"/>
<line class="st0" x1="74.7" y1="265.6" x2="718.7" y2="265.6"/>
<line class="st0" x1="74.7" y1="310.6" x2="718.7" y2="310.6"/>
<line class="st0" x1="74.7" y1="359.1" x2="718.7" y2="359.1"/>
<line class="st0" x1="74.7" y1="407.5" x2="718.7" y2="407.5"/>
<line class="st0" x1="74.7" y1="452.6" x2="718.7" y2="452.6"/>
<line class="st0" x1="74.7" y1="504.4" x2="718.7" y2="504.4"/>
<line class="st0" x1="74.7" y1="550.6" x2="718.7" y2="550.6"/>
<line class="st0" x1="74.7" y1="596.8" x2="718.7" y2="596.8"/>
<g class="st1">
	<path d="M35.6,73.4h5v1.5h-5V73.4z"/>
	<path d="M46.8,67.7c-0.2,0.2-0.5,0.4-0.7,0.6c-0.3,0.2-0.6,0.4-0.8,0.5c-0.3,0.2-0.6,0.3-0.9,0.5c-0.3,0.2-0.6,0.3-0.8,0.4v-2
		c0.7-0.3,1.3-0.7,1.9-1.1s1.1-0.7,1.5-1.1h1.8v13.8h-1.9V67.7z"/>
	<path d="M52.4,72.6c0-0.3,0-0.8,0-1.3s0.1-1,0.2-1.6s0.2-1.1,0.4-1.6s0.5-1,0.8-1.5s0.8-0.8,1.3-1s1.1-0.4,1.9-0.4
		c0.7,0,1.3,0.1,1.8,0.3c0.5,0.2,0.9,0.5,1.3,0.9c0.3,0.4,0.6,0.8,0.8,1.3c0.2,0.5,0.4,1,0.5,1.5c0.1,0.5,0.2,1,0.2,1.6
		s0.1,1,0.1,1.4c0,1.6-0.2,3-0.5,3.9c-0.3,1-0.8,1.8-1.4,2.4c-0.2,0.2-0.5,0.4-0.8,0.5c-0.3,0.1-0.5,0.2-0.8,0.3
		c-0.2,0.1-0.5,0.1-0.7,0.2c-0.2,0-0.4,0-0.6,0c-0.5,0-0.9-0.1-1.3-0.2c-0.4-0.1-0.7-0.3-1-0.5c-0.3-0.2-0.6-0.5-0.8-0.7
		c-0.2-0.3-0.4-0.6-0.6-0.9c-0.2-0.5-0.4-1-0.6-1.8C52.5,74.8,52.4,73.9,52.4,72.6z M54.3,72.5c0,0.8,0,1.5,0.1,2.2
		c0.1,0.7,0.2,1.2,0.4,1.7c0.2,0.5,0.5,0.9,0.8,1.2c0.3,0.3,0.8,0.4,1.3,0.4c0.6,0,1-0.2,1.4-0.5c0.4-0.3,0.6-0.8,0.8-1.3
		s0.3-1.1,0.4-1.8c0.1-0.6,0.1-1.3,0.1-1.9c0-0.8,0-1.6-0.1-2.3s-0.2-1.3-0.4-1.8c-0.2-0.5-0.5-0.9-0.8-1.2
		c-0.3-0.3-0.8-0.4-1.3-0.4c-0.6,0-1.1,0.2-1.5,0.5c-0.4,0.4-0.6,0.8-0.8,1.4c-0.2,0.5-0.3,1.2-0.4,1.8
		C54.4,71.3,54.3,71.9,54.3,72.5z"/>
</g>
<g class="st1">
	<path d="M51.3,122.3c0-0.3,0-0.8,0-1.3s0.1-1,0.2-1.6s0.2-1.1,0.4-1.6s0.5-1,0.8-1.5s0.8-0.8,1.3-1s1.1-0.4,1.9-0.4
		c0.7,0,1.3,0.1,1.8,0.3c0.5,0.2,0.9,0.5,1.3,0.9c0.3,0.4,0.6,0.8,0.8,1.3c0.2,0.5,0.4,1,0.5,1.5c0.1,0.5,0.2,1,0.2,1.6
		s0.1,1,0.1,1.4c0,1.6-0.2,3-0.5,3.9c-0.3,1-0.8,1.8-1.4,2.4c-0.2,0.2-0.5,0.4-0.8,0.5c-0.3,0.1-0.5,0.2-0.8,0.3
		c-0.2,0.1-0.5,0.1-0.7,0.2c-0.2,0-0.4,0-0.6,0c-0.5,0-0.9-0.1-1.3-0.2c-0.4-0.1-0.7-0.3-1-0.5c-0.3-0.2-0.6-0.5-0.8-0.7
		c-0.2-0.3-0.4-0.6-0.6-0.9c-0.2-0.5-0.4-1-0.6-1.8C51.4,124.5,51.3,123.5,51.3,122.3z M53.3,122.2c0,0.8,0,1.5,0.1,2.2
		c0.1,0.7,0.2,1.2,0.4,1.7c0.2,0.5,0.5,0.9,0.8,1.2c0.3,0.3,0.8,0.4,1.3,0.4c0.6,0,1-0.2,1.4-0.5c0.4-0.3,0.6-0.8,0.8-1.3
		s0.3-1.1,0.4-1.8c0.1-0.6,0.1-1.3,0.1-1.9c0-0.8,0-1.6-0.1-2.3s-0.2-1.3-0.4-1.8c-0.2-0.5-0.5-0.9-0.8-1.2
		c-0.3-0.3-0.8-0.4-1.3-0.4c-0.6,0-1.1,0.2-1.5,0.5c-0.4,0.4-0.6,0.8-0.8,1.4c-0.2,0.5-0.3,1.2-0.4,1.8
		C53.3,120.9,53.3,121.6,53.3,122.2z"/>
</g>
<g class="st1">
	<path d="M46.2,164.7c-0.2,0.2-0.5,0.4-0.7,0.6c-0.3,0.2-0.6,0.4-0.8,0.5c-0.3,0.2-0.6,0.3-0.9,0.5c-0.3,0.2-0.6,0.3-0.8,0.4v-2
		c0.7-0.3,1.3-0.7,1.9-1.1s1.1-0.7,1.5-1.1h1.8v13.8h-1.9V164.7z"/>
	<path d="M51.8,169.6c0-0.3,0-0.8,0-1.3s0.1-1,0.2-1.6s0.2-1.1,0.4-1.6s0.5-1,0.8-1.5s0.8-0.8,1.3-1s1.1-0.4,1.9-0.4
		c0.7,0,1.3,0.1,1.8,0.3c0.5,0.2,0.9,0.5,1.3,0.9c0.3,0.4,0.6,0.8,0.8,1.3c0.2,0.5,0.4,1,0.5,1.5c0.1,0.5,0.2,1,0.2,1.6
		s0.1,1,0.1,1.4c0,1.6-0.2,3-0.5,3.9c-0.3,1-0.8,1.8-1.4,2.4c-0.2,0.2-0.5,0.4-0.8,0.5c-0.3,0.1-0.5,0.2-0.8,0.3
		c-0.2,0.1-0.5,0.1-0.7,0.2c-0.2,0-0.4,0-0.6,0c-0.5,0-0.9-0.1-1.3-0.2c-0.4-0.1-0.7-0.3-1-0.5c-0.3-0.2-0.6-0.5-0.8-0.7
		c-0.2-0.3-0.4-0.6-0.6-0.9c-0.2-0.5-0.4-1-0.6-1.8C51.9,171.8,51.8,170.9,51.8,169.6z M53.7,169.5c0,0.8,0,1.5,0.1,2.2
		c0.1,0.7,0.2,1.2,0.4,1.7c0.2,0.5,0.5,0.9,0.8,1.2c0.3,0.3,0.8,0.4,1.3,0.4c0.6,0,1-0.2,1.4-0.5c0.4-0.3,0.6-0.8,0.8-1.3
		s0.3-1.1,0.4-1.8c0.1-0.6,0.1-1.3,0.1-1.9c0-0.8,0-1.6-0.1-2.3s-0.2-1.3-0.4-1.8c-0.2-0.5-0.5-0.9-0.8-1.2
		c-0.3-0.3-0.8-0.4-1.3-0.4c-0.6,0-1.1,0.2-1.5,0.5c-0.4,0.4-0.6,0.8-0.8,1.4c-0.2,0.5-0.3,1.2-0.4,1.8
		C53.8,168.3,53.7,168.9,53.7,169.5z"/>
</g>
<g class="st1">
	<path d="M41.4,221.9l3.6-3.6c0.4-0.4,0.8-0.8,1.1-1.2c0.4-0.4,0.7-0.8,1-1.2c0.4-0.5,0.7-1,0.8-1.4c0.1-0.4,0.2-0.7,0.2-1.1
		c0-0.2,0-0.4-0.1-0.6c0-0.3-0.1-0.5-0.3-0.7c-0.2-0.2-0.4-0.4-0.7-0.6c-0.3-0.2-0.7-0.3-1.2-0.3c-0.6,0-1,0.1-1.3,0.3
		s-0.5,0.4-0.7,0.7s-0.2,0.5-0.3,0.8c0,0.3,0,0.5,0,0.6h-2.1c0-0.2,0-0.4,0-0.6c0-0.2,0.1-0.5,0.2-0.8c0.1-0.3,0.2-0.5,0.4-0.8
		c0.2-0.3,0.4-0.6,0.7-0.8c0.5-0.4,1-0.7,1.5-0.8c0.5-0.1,1-0.2,1.5-0.2c0.5,0,1.1,0.1,1.6,0.2s1,0.4,1.4,0.7c0.4,0.3,0.7,0.7,1,1.2
		c0.2,0.5,0.4,1.1,0.4,1.9c0,0.2,0,0.4,0,0.6c0,0.2-0.1,0.4-0.2,0.7s-0.3,0.6-0.5,0.9c-0.2,0.3-0.5,0.7-0.9,1.2
		c-0.1,0.1-0.3,0.3-0.5,0.6c-0.2,0.3-0.5,0.5-0.8,0.8c-0.3,0.3-0.5,0.5-0.8,0.8c-0.2,0.3-0.4,0.4-0.5,0.5l-2.4,2.3h6.6v1.6h-8.8
		V221.9z"/>
	<path d="M52.4,216.9c0-0.3,0-0.8,0-1.3s0.1-1,0.2-1.6s0.2-1.1,0.4-1.6s0.5-1,0.8-1.5s0.8-0.8,1.3-1s1.1-0.4,1.9-0.4
		c0.7,0,1.3,0.1,1.8,0.3c0.5,0.2,0.9,0.5,1.3,0.9c0.3,0.4,0.6,0.8,0.8,1.3c0.2,0.5,0.4,1,0.5,1.5c0.1,0.5,0.2,1,0.2,1.6
		s0.1,1,0.1,1.4c0,1.6-0.2,3-0.5,3.9c-0.3,1-0.8,1.8-1.4,2.4c-0.2,0.2-0.5,0.4-0.8,0.5c-0.3,0.1-0.5,0.2-0.8,0.3
		c-0.2,0.1-0.5,0.1-0.7,0.2c-0.2,0-0.4,0-0.6,0c-0.5,0-0.9-0.1-1.3-0.2c-0.4-0.1-0.7-0.3-1-0.5c-0.3-0.2-0.6-0.5-0.8-0.7
		c-0.2-0.3-0.4-0.6-0.6-0.9c-0.2-0.5-0.4-1-0.6-1.8C52.5,219.2,52.4,218.2,52.4,216.9z M54.3,216.8c0,0.8,0,1.5,0.1,2.2
		c0.1,0.7,0.2,1.2,0.4,1.7c0.2,0.5,0.5,0.9,0.8,1.2c0.3,0.3,0.8,0.4,1.3,0.4c0.6,0,1-0.2,1.4-0.5c0.4-0.3,0.6-0.8,0.8-1.3
		s0.3-1.1,0.4-1.8c0.1-0.6,0.1-1.3,0.1-1.9c0-0.8,0-1.6-0.1-2.3s-0.2-1.3-0.4-1.8c-0.2-0.5-0.5-0.9-0.8-1.2
		c-0.3-0.3-0.8-0.4-1.3-0.4c-0.6,0-1.1,0.2-1.5,0.5c-0.4,0.4-0.6,0.8-0.8,1.4c-0.2,0.5-0.3,1.2-0.4,1.8
		C54.3,215.6,54.3,216.2,54.3,216.8z"/>
</g>
<g class="st1">
	<path d="M43.3,267.1c0,0.7,0.2,1.2,0.6,1.6s1.1,0.6,1.9,0.6c0.5,0,0.9-0.1,1.2-0.2c0.4-0.1,0.6-0.3,0.9-0.6
		c0.2-0.2,0.4-0.5,0.5-0.8c0.1-0.3,0.2-0.6,0.2-0.9c0-0.4-0.1-0.7-0.2-1c-0.1-0.3-0.3-0.5-0.4-0.7c-0.2-0.2-0.4-0.4-0.6-0.5
		c-0.2-0.1-0.5-0.2-0.7-0.3c-0.4-0.1-0.7-0.1-1-0.1s-0.6,0-1,0v-1.6c0.3,0,0.7,0,1.2,0s0.8-0.1,1.2-0.3c0.4-0.2,0.7-0.4,1-0.8
		c0.3-0.3,0.4-0.8,0.4-1.3c0-0.8-0.2-1.3-0.7-1.7s-1-0.5-1.7-0.5c-0.3,0-0.5,0-0.8,0.1c-0.3,0.1-0.5,0.2-0.8,0.4
		c-0.2,0.2-0.4,0.4-0.6,0.7s-0.3,0.6-0.3,1.1h-2c0-0.9,0.2-1.5,0.6-2c0.4-0.5,0.8-0.9,1.3-1.1c0.5-0.3,1-0.4,1.5-0.5
		s0.9-0.1,1.2-0.1c0.8,0,1.4,0.1,2,0.3c0.6,0.2,1,0.5,1.4,0.8c0.4,0.4,0.7,0.8,0.8,1.2c0.2,0.4,0.3,0.9,0.3,1.4c0,0.3,0,0.6-0.1,0.9
		c-0.1,0.3-0.2,0.7-0.5,1c-0.2,0.3-0.5,0.6-0.9,0.8c-0.4,0.2-0.8,0.4-1.3,0.6c0.7,0.1,1.3,0.3,1.7,0.7c0.4,0.3,0.7,0.7,0.9,1.1
		s0.3,0.7,0.3,1c0,0.3,0.1,0.5,0.1,0.6c0,0.5-0.1,1-0.3,1.5c-0.2,0.5-0.5,0.9-0.9,1.3s-0.9,0.7-1.5,1c-0.6,0.2-1.3,0.4-2.1,0.4
		c-0.7,0-1.4-0.1-2.1-0.3c-0.7-0.2-1.2-0.6-1.7-1.1c-0.2-0.2-0.4-0.4-0.5-0.7c-0.1-0.2-0.2-0.5-0.2-0.7c-0.1-0.2-0.1-0.4-0.1-0.6
		s0-0.4,0-0.5H43.3z"/>
	<path d="M52.4,263.9c0-0.3,0-0.8,0-1.3s0.1-1,0.2-1.6s0.2-1.1,0.4-1.6s0.5-1,0.8-1.5s0.8-0.8,1.3-1s1.1-0.4,1.9-0.4
		c0.7,0,1.3,0.1,1.8,0.3c0.5,0.2,0.9,0.5,1.3,0.9c0.3,0.4,0.6,0.8,0.8,1.3c0.2,0.5,0.4,1,0.5,1.5c0.1,0.5,0.2,1,0.2,1.6
		s0.1,1,0.1,1.4c0,1.6-0.2,3-0.5,3.9c-0.3,1-0.8,1.8-1.4,2.4c-0.2,0.2-0.5,0.4-0.8,0.5c-0.3,0.1-0.5,0.2-0.8,0.3
		c-0.2,0.1-0.5,0.1-0.7,0.2c-0.2,0-0.4,0-0.6,0c-0.5,0-0.9-0.1-1.3-0.2c-0.4-0.1-0.7-0.3-1-0.5c-0.3-0.2-0.6-0.5-0.8-0.7
		c-0.2-0.3-0.4-0.6-0.6-0.9c-0.2-0.5-0.4-1-0.6-1.8C52.5,266.2,52.4,265.2,52.4,263.9z M54.3,263.8c0,0.8,0,1.5,0.1,2.2
		c0.1,0.7,0.2,1.2,0.4,1.7c0.2,0.5,0.5,0.9,0.8,1.2c0.3,0.3,0.8,0.4,1.3,0.4c0.6,0,1-0.2,1.4-0.5c0.4-0.3,0.6-0.8,0.8-1.3
		s0.3-1.1,0.4-1.8c0.1-0.6,0.1-1.3,0.1-1.9c0-0.8,0-1.6-0.1-2.3s-0.2-1.3-0.4-1.8c-0.2-0.5-0.5-0.9-0.8-1.2
		c-0.3-0.3-0.8-0.4-1.3-0.4c-0.6,0-1.1,0.2-1.5,0.5c-0.4,0.4-0.6,0.8-0.8,1.4c-0.2,0.5-0.3,1.2-0.4,1.8
		C54.3,262.6,54.3,263.2,54.3,263.8z"/>
</g>
<g class="st1">
	<path d="M47.2,312.7h-6.2v-2.4l6-8.6h2.2v9.4h2v1.6h-2v3h-1.9V312.7z M47.2,311.1v-7.3l-4.8,7.3H47.2z"/>
	<path d="M52.4,308.9c0-0.3,0-0.8,0-1.3s0.1-1,0.2-1.6s0.2-1.1,0.4-1.6s0.5-1,0.8-1.5s0.8-0.8,1.3-1s1.1-0.4,1.9-0.4
		c0.7,0,1.3,0.1,1.8,0.3c0.5,0.2,0.9,0.5,1.3,0.9c0.3,0.4,0.6,0.8,0.8,1.3c0.2,0.5,0.4,1,0.5,1.5c0.1,0.5,0.2,1,0.2,1.6
		s0.1,1,0.1,1.4c0,1.6-0.2,3-0.5,3.9c-0.3,1-0.8,1.8-1.4,2.4c-0.2,0.2-0.5,0.4-0.8,0.5c-0.3,0.1-0.5,0.2-0.8,0.3
		c-0.2,0.1-0.5,0.1-0.7,0.2c-0.2,0-0.4,0-0.6,0c-0.5,0-0.9-0.1-1.3-0.2c-0.4-0.1-0.7-0.3-1-0.5c-0.3-0.2-0.6-0.5-0.8-0.7
		c-0.2-0.3-0.4-0.6-0.6-0.9c-0.2-0.5-0.4-1-0.6-1.8C52.5,311.2,52.4,310.2,52.4,308.9z M54.3,308.8c0,0.8,0,1.5,0.1,2.2
		c0.1,0.7,0.2,1.2,0.4,1.7c0.2,0.5,0.5,0.9,0.8,1.2c0.3,0.3,0.8,0.4,1.3,0.4c0.6,0,1-0.2,1.4-0.5c0.4-0.3,0.6-0.8,0.8-1.3
		s0.3-1.1,0.4-1.8c0.1-0.6,0.1-1.3,0.1-1.9c0-0.8,0-1.6-0.1-2.3s-0.2-1.3-0.4-1.8c-0.2-0.5-0.5-0.9-0.8-1.2
		c-0.3-0.3-0.8-0.4-1.3-0.4c-0.6,0-1.1,0.2-1.5,0.5c-0.4,0.4-0.6,0.8-0.8,1.4c-0.2,0.5-0.3,1.2-0.4,1.8
		C54.3,307.6,54.3,308.2,54.3,308.8z"/>
</g>
<g class="st1">
	<path d="M43.6,360.8c0,0.3,0.1,0.6,0.2,0.9c0.1,0.2,0.3,0.4,0.5,0.6c0.2,0.2,0.5,0.3,0.7,0.4c0.3,0.1,0.5,0.1,0.8,0.1
		c0.6,0,1.1-0.1,1.5-0.4c0.4-0.2,0.6-0.5,0.8-0.9c0.2-0.3,0.3-0.7,0.4-1s0.1-0.7,0.1-0.9c0-0.9-0.2-1.7-0.7-2.2
		c-0.5-0.5-1.1-0.8-1.9-0.8c-0.4,0-0.8,0.1-1.1,0.2c-0.3,0.1-0.6,0.3-0.8,0.5s-0.4,0.4-0.4,0.6c-0.1,0.2-0.1,0.4-0.2,0.5h-1.8
		l0.4-8.2h7.8v1.6h-6.1l-0.3,4.5c0.1-0.1,0.2-0.2,0.4-0.4c0.2-0.1,0.4-0.3,0.6-0.4c0.2-0.1,0.5-0.2,0.8-0.3c0.3-0.1,0.7-0.1,1.1-0.1
		c0.7,0,1.3,0.1,1.8,0.4c0.5,0.3,1,0.6,1.3,1c0.3,0.4,0.6,0.9,0.8,1.5s0.3,1.1,0.3,1.7c0,0.7-0.1,1.3-0.4,1.9
		c-0.2,0.6-0.6,1.1-1,1.5s-0.9,0.8-1.5,1c-0.6,0.2-1.3,0.4-2,0.4c-0.6,0-1.1-0.1-1.6-0.2s-0.9-0.4-1.3-0.7c-0.4-0.3-0.7-0.7-0.9-1.1
		c-0.2-0.5-0.3-1-0.4-1.6H43.6z"/>
	<path d="M52.4,357.3c0-0.3,0-0.8,0-1.3s0.1-1,0.2-1.6s0.2-1.1,0.4-1.6s0.5-1,0.8-1.5s0.8-0.8,1.3-1s1.1-0.4,1.9-0.4
		c0.7,0,1.3,0.1,1.8,0.3c0.5,0.2,0.9,0.5,1.3,0.9c0.3,0.4,0.6,0.8,0.8,1.3c0.2,0.5,0.4,1,0.5,1.5c0.1,0.5,0.2,1,0.2,1.6
		s0.1,1,0.1,1.4c0,1.6-0.2,3-0.5,3.9c-0.3,1-0.8,1.8-1.4,2.4c-0.2,0.2-0.5,0.4-0.8,0.5c-0.3,0.1-0.5,0.2-0.8,0.3
		c-0.2,0.1-0.5,0.1-0.7,0.2c-0.2,0-0.4,0-0.6,0c-0.5,0-0.9-0.1-1.3-0.2c-0.4-0.1-0.7-0.3-1-0.5c-0.3-0.2-0.6-0.5-0.8-0.7
		c-0.2-0.3-0.4-0.6-0.6-0.9c-0.2-0.5-0.4-1-0.6-1.8C52.5,359.5,52.4,358.5,52.4,357.3z M54.3,357.2c0,0.8,0,1.5,0.1,2.2
		c0.1,0.7,0.2,1.2,0.4,1.7c0.2,0.5,0.5,0.9,0.8,1.2c0.3,0.3,0.8,0.4,1.3,0.4c0.6,0,1-0.2,1.4-0.5c0.4-0.3,0.6-0.8,0.8-1.3
		s0.3-1.1,0.4-1.8c0.1-0.6,0.1-1.3,0.1-1.9c0-0.8,0-1.6-0.1-2.3s-0.2-1.3-0.4-1.8c-0.2-0.5-0.5-0.9-0.8-1.2
		c-0.3-0.3-0.8-0.4-1.3-0.4c-0.6,0-1.1,0.2-1.5,0.5c-0.4,0.4-0.6,0.8-0.8,1.4c-0.2,0.5-0.3,1.2-0.4,1.8
		C54.3,355.9,54.3,356.6,54.3,357.2z"/>
</g>
<g class="st1">
	<path d="M48.5,402.1c0-0.4-0.1-0.7-0.2-1c-0.1-0.3-0.3-0.5-0.5-0.6c-0.2-0.2-0.4-0.3-0.7-0.3c-0.2-0.1-0.5-0.1-0.7-0.1
		c-1,0-1.7,0.4-2.2,1.3c-0.5,0.9-0.8,2.2-0.9,4.1c0.1-0.2,0.2-0.3,0.4-0.5c0.2-0.2,0.4-0.4,0.6-0.6c0.3-0.2,0.6-0.3,0.9-0.5
		c0.4-0.1,0.8-0.2,1.3-0.2c0.6,0,1.1,0.1,1.6,0.3c0.5,0.2,1,0.5,1.3,0.8c0.4,0.4,0.7,0.8,0.9,1.4c0.2,0.6,0.3,1.2,0.3,1.9
		c0,0.8-0.1,1.5-0.4,2.1c-0.3,0.6-0.6,1.1-1,1.5c-0.4,0.4-0.9,0.7-1.5,0.9s-1.1,0.3-1.7,0.3c-0.7,0-1.3-0.1-1.9-0.4
		s-1.1-0.6-1.5-1.1c-0.3-0.3-0.5-0.7-0.6-1.1c-0.2-0.4-0.3-0.8-0.4-1.3c-0.1-0.4-0.2-0.9-0.2-1.4s0-0.9,0-1.3c0-0.5,0-1,0.1-1.6
		c0.1-0.6,0.1-1.2,0.3-1.7s0.3-1.1,0.6-1.7c0.2-0.5,0.6-1,0.9-1.4s0.8-0.7,1.4-1c0.5-0.2,1.2-0.4,1.9-0.4c0.5,0,0.9,0,1.2,0.1
		c0.4,0.1,0.7,0.2,0.9,0.3c0.3,0.1,0.5,0.3,0.7,0.4c0.2,0.2,0.3,0.3,0.5,0.4c0.2,0.2,0.3,0.4,0.4,0.6c0.1,0.2,0.2,0.4,0.2,0.6
		c0,0.2,0.1,0.4,0.1,0.6c0,0.2,0,0.3,0,0.5H48.5z M46.2,411.5c0.3,0,0.6-0.1,0.9-0.2c0.3-0.1,0.6-0.3,0.9-0.6c0.3-0.3,0.5-0.6,0.6-1
		c0.2-0.4,0.2-0.9,0.2-1.4c0-0.2,0-0.5-0.1-0.9s-0.2-0.7-0.4-1c-0.2-0.3-0.4-0.6-0.8-0.8s-0.8-0.3-1.4-0.3c-0.5,0-0.9,0.1-1.2,0.3
		c-0.3,0.2-0.6,0.4-0.9,0.7c-0.2,0.3-0.4,0.6-0.5,1c-0.1,0.4-0.2,0.8-0.2,1.2c0,0.5,0.1,0.9,0.2,1.2s0.3,0.7,0.6,1
		c0.2,0.3,0.5,0.5,0.8,0.6S45.8,411.5,46.2,411.5z"/>
	<path d="M52.4,405.9c0-0.3,0-0.8,0-1.3s0.1-1,0.2-1.6s0.2-1.1,0.4-1.6s0.5-1,0.8-1.5s0.8-0.8,1.3-1s1.1-0.4,1.9-0.4
		c0.7,0,1.3,0.1,1.8,0.3c0.5,0.2,0.9,0.5,1.3,0.9c0.3,0.4,0.6,0.8,0.8,1.3c0.2,0.5,0.4,1,0.5,1.5c0.1,0.5,0.2,1,0.2,1.6
		s0.1,1,0.1,1.4c0,1.6-0.2,3-0.5,3.9c-0.3,1-0.8,1.8-1.4,2.4c-0.2,0.2-0.5,0.4-0.8,0.5c-0.3,0.1-0.5,0.2-0.8,0.3
		c-0.2,0.1-0.5,0.1-0.7,0.2c-0.2,0-0.4,0-0.6,0c-0.5,0-0.9-0.1-1.3-0.2c-0.4-0.1-0.7-0.3-1-0.5c-0.3-0.2-0.6-0.5-0.8-0.7
		c-0.2-0.3-0.4-0.6-0.6-0.9c-0.2-0.5-0.4-1-0.6-1.8C52.5,408.2,52.4,407.2,52.4,405.9z M54.3,405.8c0,0.8,0,1.5,0.1,2.2
		c0.1,0.7,0.2,1.2,0.4,1.7c0.2,0.5,0.5,0.9,0.8,1.2c0.3,0.3,0.8,0.4,1.3,0.4c0.6,0,1-0.2,1.4-0.5c0.4-0.3,0.6-0.8,0.8-1.3
		s0.3-1.1,0.4-1.8c0.1-0.6,0.1-1.3,0.1-1.9c0-0.8,0-1.6-0.1-2.3s-0.2-1.3-0.4-1.8c-0.2-0.5-0.5-0.9-0.8-1.2
		c-0.3-0.3-0.8-0.4-1.3-0.4c-0.6,0-1.1,0.2-1.5,0.5c-0.4,0.4-0.6,0.8-0.8,1.4c-0.2,0.5-0.3,1.2-0.4,1.8
		C54.3,404.6,54.3,405.2,54.3,405.8z"/>
</g>
<g class="st1">
	<path d="M41.1,444.5h9.1v1.7l-5.1,12.2h-2.3l5.3-12.2h-7.1V444.5z"/>
	<path d="M52.4,451.6c0-0.3,0-0.8,0-1.3s0.1-1,0.2-1.6s0.2-1.1,0.4-1.6s0.5-1,0.8-1.5s0.8-0.8,1.3-1s1.1-0.4,1.9-0.4
		c0.7,0,1.3,0.1,1.8,0.3c0.5,0.2,0.9,0.5,1.3,0.9c0.3,0.4,0.6,0.8,0.8,1.3c0.2,0.5,0.4,1,0.5,1.5c0.1,0.5,0.2,1,0.2,1.6
		s0.1,1,0.1,1.4c0,1.6-0.2,3-0.5,3.9c-0.3,1-0.8,1.8-1.4,2.4c-0.2,0.2-0.5,0.4-0.8,0.5c-0.3,0.1-0.5,0.2-0.8,0.3
		c-0.2,0.1-0.5,0.1-0.7,0.2c-0.2,0-0.4,0-0.6,0c-0.5,0-0.9-0.1-1.3-0.2c-0.4-0.1-0.7-0.3-1-0.5c-0.3-0.2-0.6-0.5-0.8-0.7
		c-0.2-0.3-0.4-0.6-0.6-0.9c-0.2-0.5-0.4-1-0.6-1.8C52.5,453.8,52.4,452.9,52.4,451.6z M54.3,451.5c0,0.8,0,1.5,0.1,2.2
		c0.1,0.7,0.2,1.2,0.4,1.7c0.2,0.5,0.5,0.9,0.8,1.2c0.3,0.3,0.8,0.4,1.3,0.4c0.6,0,1-0.2,1.4-0.5c0.4-0.3,0.6-0.8,0.8-1.3
		s0.3-1.1,0.4-1.8c0.1-0.6,0.1-1.3,0.1-1.9c0-0.8,0-1.6-0.1-2.3s-0.2-1.3-0.4-1.8c-0.2-0.5-0.5-0.9-0.8-1.2
		c-0.3-0.3-0.8-0.4-1.3-0.4c-0.6,0-1.1,0.2-1.5,0.5c-0.4,0.4-0.6,0.8-0.8,1.4c-0.2,0.5-0.3,1.2-0.4,1.8
		C54.3,450.3,54.3,450.9,54.3,451.5z"/>
</g>
<g class="st1">
	<path d="M44.2,501.7c-0.9-0.2-1.6-0.6-2.1-1.2c-0.5-0.6-0.7-1.2-0.7-1.9c0-0.3,0.1-0.7,0.2-1.1c0.1-0.4,0.4-0.8,0.7-1.2
		c0.3-0.4,0.8-0.7,1.4-1s1.3-0.4,2.2-0.4c0.7,0,1.4,0.1,2,0.3c0.6,0.2,1,0.4,1.4,0.8c0.4,0.3,0.7,0.7,0.9,1.2
		c0.2,0.4,0.3,0.9,0.3,1.5c0,0.3-0.1,0.7-0.2,1c-0.1,0.3-0.3,0.6-0.5,0.9c-0.2,0.3-0.5,0.5-0.9,0.7c-0.4,0.2-0.8,0.4-1.3,0.4
		c0.2,0.1,0.5,0.1,0.8,0.3s0.7,0.3,1,0.6c0.3,0.3,0.6,0.6,0.8,1c0.2,0.4,0.4,1,0.4,1.6c0,0.5-0.1,1-0.3,1.4
		c-0.2,0.5-0.4,0.9-0.8,1.3c-0.4,0.4-0.9,0.7-1.5,1c-0.6,0.2-1.3,0.4-2.2,0.4c-0.6,0-1.2-0.1-1.9-0.2s-1.2-0.5-1.7-0.9
		c-0.4-0.3-0.7-0.8-0.9-1.3c-0.2-0.5-0.3-1-0.3-1.5c0-0.5,0.1-0.9,0.3-1.4c0.2-0.4,0.4-0.8,0.8-1.2c0.3-0.3,0.7-0.6,1-0.7
		C43.6,502,43.9,501.8,44.2,501.7z M43.1,505.2c0,0.3,0,0.5,0.1,0.8s0.2,0.6,0.5,0.8c0.2,0.3,0.5,0.5,0.9,0.6
		c0.4,0.2,0.8,0.2,1.3,0.2c0.6,0,1-0.1,1.4-0.3c0.4-0.2,0.6-0.4,0.8-0.7c0.2-0.3,0.4-0.5,0.4-0.8c0.1-0.3,0.1-0.6,0.1-0.9
		c0-0.8-0.3-1.4-0.8-1.8c-0.5-0.5-1.2-0.7-2-0.7c-0.4,0-0.8,0.1-1.2,0.2c-0.3,0.1-0.6,0.3-0.9,0.5c-0.2,0.2-0.4,0.5-0.6,0.8
		C43.2,504.5,43.1,504.8,43.1,505.2z M48.6,498.6c0-0.6-0.2-1.2-0.7-1.6c-0.4-0.4-1.1-0.6-1.9-0.6c-0.4,0-0.7,0.1-1,0.2
		s-0.6,0.3-0.8,0.4c-0.2,0.2-0.4,0.4-0.5,0.7c-0.1,0.3-0.2,0.6-0.2,0.9c0,0.3,0.1,0.6,0.2,0.9c0.1,0.3,0.3,0.5,0.5,0.7
		c0.2,0.2,0.5,0.4,0.8,0.5c0.3,0.1,0.7,0.2,1,0.2c0.8,0,1.4-0.2,1.9-0.6C48.3,499.8,48.6,499.3,48.6,498.6z"/>
	<path d="M52.4,502.3c0-0.3,0-0.8,0-1.3s0.1-1,0.2-1.6s0.2-1.1,0.4-1.6s0.5-1,0.8-1.5s0.8-0.8,1.3-1s1.1-0.4,1.9-0.4
		c0.7,0,1.3,0.1,1.8,0.3c0.5,0.2,0.9,0.5,1.3,0.9c0.3,0.4,0.6,0.8,0.8,1.3c0.2,0.5,0.4,1,0.5,1.5c0.1,0.5,0.2,1,0.2,1.6
		s0.1,1,0.1,1.4c0,1.6-0.2,3-0.5,3.9c-0.3,1-0.8,1.8-1.4,2.4c-0.2,0.2-0.5,0.4-0.8,0.5c-0.3,0.1-0.5,0.2-0.8,0.3
		c-0.2,0.1-0.5,0.1-0.7,0.2c-0.2,0-0.4,0-0.6,0c-0.5,0-0.9-0.1-1.3-0.2c-0.4-0.1-0.7-0.3-1-0.5c-0.3-0.2-0.6-0.5-0.8-0.7
		c-0.2-0.3-0.4-0.6-0.6-0.9c-0.2-0.5-0.4-1-0.6-1.8C52.5,504.5,52.4,503.5,52.4,502.3z M54.3,502.2c0,0.8,0,1.5,0.1,2.2
		c0.1,0.7,0.2,1.2,0.4,1.7c0.2,0.5,0.5,0.9,0.8,1.2c0.3,0.3,0.8,0.4,1.3,0.4c0.6,0,1-0.2,1.4-0.5c0.4-0.3,0.6-0.8,0.8-1.3
		s0.3-1.1,0.4-1.8c0.1-0.6,0.1-1.3,0.1-1.9c0-0.8,0-1.6-0.1-2.3s-0.2-1.3-0.4-1.8c-0.2-0.5-0.5-0.9-0.8-1.2
		c-0.3-0.3-0.8-0.4-1.3-0.4c-0.6,0-1.1,0.2-1.5,0.5c-0.4,0.4-0.6,0.8-0.8,1.4c-0.2,0.5-0.3,1.2-0.4,1.8
		C54.3,500.9,54.3,501.6,54.3,502.2z"/>
</g>
<g class="st1">
	<path d="M43.4,551.7c0,0.6,0.2,1.1,0.5,1.5s0.9,0.6,1.7,0.6c0.8,0,1.3-0.2,1.8-0.6c0.4-0.4,0.7-0.9,0.9-1.5
		c0.2-0.6,0.3-1.2,0.3-1.9c0-0.7,0-1.3,0-1.8c-0.2,0.3-0.4,0.6-0.6,0.8c-0.2,0.2-0.5,0.4-0.8,0.5c-0.3,0.1-0.6,0.2-0.9,0.3
		c-0.3,0.1-0.6,0.1-0.8,0.1c-0.5,0-1.1-0.1-1.6-0.3s-1-0.5-1.3-0.8c-0.4-0.4-0.7-0.8-0.9-1.4c-0.2-0.5-0.4-1.2-0.4-1.9
		c0-0.8,0.1-1.5,0.4-2c0.3-0.6,0.6-1,1-1.4c0.4-0.4,0.9-0.6,1.4-0.8c0.5-0.2,1.1-0.2,1.6-0.2c0.4,0,0.8,0,1.2,0.1
		c0.4,0.1,0.9,0.3,1.3,0.5c0.4,0.2,0.8,0.6,1.2,1c0.4,0.4,0.6,1,0.8,1.7c0.1,0.4,0.2,0.9,0.3,1.5c0.1,0.6,0.1,1.3,0.1,2.2
		c0,0.3,0,0.8,0,1.2c0,0.5-0.1,1-0.2,1.6c-0.1,0.5-0.3,1.1-0.5,1.6c-0.2,0.5-0.5,1-0.9,1.4s-0.9,0.8-1.4,1c-0.6,0.3-1.3,0.4-2.1,0.4
		c-0.5,0-0.9-0.1-1.4-0.2c-0.5-0.1-0.9-0.3-1.3-0.6c-0.4-0.3-0.7-0.6-1-1.1s-0.4-1.1-0.4-1.8H43.4z M48.4,545.4
		c0-0.5-0.1-0.9-0.2-1.3c-0.1-0.4-0.3-0.7-0.6-0.9c-0.3-0.2-0.5-0.4-0.9-0.6c-0.3-0.1-0.6-0.2-1-0.2c-0.4,0-0.8,0.1-1.1,0.2
		c-0.3,0.2-0.6,0.4-0.8,0.6c-0.2,0.3-0.4,0.6-0.5,0.9c-0.1,0.4-0.2,0.7-0.2,1.2c0,0.9,0.2,1.6,0.7,2.1c0.5,0.5,1.1,0.7,1.9,0.7
		c0.8,0,1.4-0.3,1.9-0.8C48.1,547,48.4,546.3,48.4,545.4z"/>
	<path d="M52.4,548.3c0-0.3,0-0.8,0-1.3s0.1-1,0.2-1.6s0.2-1.1,0.4-1.6s0.5-1,0.8-1.5s0.8-0.8,1.3-1s1.1-0.4,1.9-0.4
		c0.7,0,1.3,0.1,1.8,0.3c0.5,0.2,0.9,0.5,1.3,0.9c0.3,0.4,0.6,0.8,0.8,1.3c0.2,0.5,0.4,1,0.5,1.5c0.1,0.5,0.2,1,0.2,1.6
		s0.1,1,0.1,1.4c0,1.6-0.2,3-0.5,3.9c-0.3,1-0.8,1.8-1.4,2.4c-0.2,0.2-0.5,0.4-0.8,0.5c-0.3,0.1-0.5,0.2-0.8,0.3
		c-0.2,0.1-0.5,0.1-0.7,0.2c-0.2,0-0.4,0-0.6,0c-0.5,0-0.9-0.1-1.3-0.2c-0.4-0.1-0.7-0.3-1-0.5c-0.3-0.2-0.6-0.5-0.8-0.7
		c-0.2-0.3-0.4-0.6-0.6-0.9c-0.2-0.5-0.4-1-0.6-1.8C52.5,550.5,52.4,549.5,52.4,548.3z M54.3,548.2c0,0.8,0,1.5,0.1,2.2
		c0.1,0.7,0.2,1.2,0.4,1.7c0.2,0.5,0.5,0.9,0.8,1.2c0.3,0.3,0.8,0.4,1.3,0.4c0.6,0,1-0.2,1.4-0.5c0.4-0.3,0.6-0.8,0.8-1.3
		s0.3-1.1,0.4-1.8c0.1-0.6,0.1-1.3,0.1-1.9c0-0.8,0-1.6-0.1-2.3s-0.2-1.3-0.4-1.8c-0.2-0.5-0.5-0.9-0.8-1.2
		c-0.3-0.3-0.8-0.4-1.3-0.4c-0.6,0-1.1,0.2-1.5,0.5c-0.4,0.4-0.6,0.8-0.8,1.4c-0.2,0.5-0.3,1.2-0.4,1.8
		C54.3,546.9,54.3,547.6,54.3,548.2z"/>
</g>
<g class="st1">
	<path d="M36.1,590.4c-0.2,0.2-0.5,0.4-0.7,0.6c-0.3,0.2-0.6,0.4-0.8,0.5c-0.3,0.2-0.6,0.3-0.9,0.5c-0.3,0.2-0.6,0.3-0.8,0.4v-2
		c0.7-0.3,1.3-0.7,1.9-1.1s1.1-0.7,1.5-1.1H38V602h-1.9V590.4z"/>
	<path d="M41.7,595.3c0-0.3,0-0.8,0-1.3s0.1-1,0.2-1.6s0.2-1.1,0.4-1.6s0.5-1,0.8-1.5s0.8-0.8,1.3-1s1.1-0.4,1.9-0.4
		c0.7,0,1.3,0.1,1.8,0.3c0.5,0.2,0.9,0.5,1.3,0.9c0.3,0.4,0.6,0.8,0.8,1.3c0.2,0.5,0.4,1,0.5,1.5c0.1,0.5,0.2,1,0.2,1.6
		s0.1,1,0.1,1.4c0,1.6-0.2,3-0.5,3.9c-0.3,1-0.8,1.8-1.4,2.4c-0.2,0.2-0.5,0.4-0.8,0.5c-0.3,0.1-0.5,0.2-0.8,0.3
		c-0.2,0.1-0.5,0.1-0.7,0.2c-0.2,0-0.4,0-0.6,0c-0.5,0-0.9-0.1-1.3-0.2c-0.4-0.1-0.7-0.3-1-0.5c-0.3-0.2-0.6-0.5-0.8-0.7
		c-0.2-0.3-0.4-0.6-0.6-0.9c-0.2-0.5-0.4-1-0.6-1.8C41.8,597.5,41.7,596.5,41.7,595.3z M43.6,595.2c0,0.8,0,1.5,0.1,2.2
		c0.1,0.7,0.2,1.2,0.4,1.7c0.2,0.5,0.5,0.9,0.8,1.2c0.3,0.3,0.8,0.4,1.3,0.4c0.6,0,1-0.2,1.4-0.5c0.4-0.3,0.6-0.8,0.8-1.3
		s0.3-1.1,0.4-1.8c0.1-0.6,0.1-1.3,0.1-1.9c0-0.8,0-1.6-0.1-2.3s-0.2-1.3-0.4-1.8c-0.2-0.5-0.5-0.9-0.8-1.2
		c-0.3-0.3-0.8-0.4-1.3-0.4c-0.6,0-1.1,0.2-1.5,0.5c-0.4,0.4-0.6,0.8-0.8,1.4c-0.2,0.5-0.3,1.2-0.4,1.8
		C43.7,593.9,43.6,594.6,43.6,595.2z"/>
	<path d="M52.8,595.3c0-0.3,0-0.8,0-1.3s0.1-1,0.2-1.6s0.2-1.1,0.4-1.6s0.5-1,0.8-1.5s0.8-0.8,1.3-1s1.1-0.4,1.9-0.4
		c0.7,0,1.3,0.1,1.8,0.3c0.5,0.2,0.9,0.5,1.3,0.9c0.3,0.4,0.6,0.8,0.8,1.3c0.2,0.5,0.4,1,0.5,1.5c0.1,0.5,0.2,1,0.2,1.6
		s0.1,1,0.1,1.4c0,1.6-0.2,3-0.5,3.9c-0.3,1-0.8,1.8-1.4,2.4c-0.2,0.2-0.5,0.4-0.8,0.5c-0.3,0.1-0.5,0.2-0.8,0.3
		c-0.2,0.1-0.5,0.1-0.7,0.2c-0.2,0-0.4,0-0.6,0c-0.5,0-0.9-0.1-1.3-0.2c-0.4-0.1-0.7-0.3-1-0.5c-0.3-0.2-0.6-0.5-0.8-0.7
		c-0.2-0.3-0.4-0.6-0.6-0.9c-0.2-0.5-0.4-1-0.6-1.8C52.9,597.5,52.8,596.5,52.8,595.3z M54.8,595.2c0,0.8,0,1.5,0.1,2.2
		c0.1,0.7,0.2,1.2,0.4,1.7c0.2,0.5,0.5,0.9,0.8,1.2c0.3,0.3,0.8,0.4,1.3,0.4c0.6,0,1-0.2,1.4-0.5c0.4-0.3,0.6-0.8,0.8-1.3
		s0.3-1.1,0.4-1.8c0.1-0.6,0.1-1.3,0.1-1.9c0-0.8,0-1.6-0.1-2.3s-0.2-1.3-0.4-1.8c-0.2-0.5-0.5-0.9-0.8-1.2
		c-0.3-0.3-0.8-0.4-1.3-0.4c-0.6,0-1.1,0.2-1.5,0.5c-0.4,0.4-0.6,0.8-0.8,1.4c-0.2,0.5-0.3,1.2-0.4,1.8
		C54.8,593.9,54.8,594.6,54.8,595.2z"/>
</g>
<g class="st1">
	<path d="M37.2,638c-0.2,0.2-0.5,0.4-0.7,0.6c-0.3,0.2-0.6,0.4-0.8,0.5c-0.3,0.2-0.6,0.3-0.9,0.5c-0.3,0.2-0.6,0.3-0.8,0.4v-2
		c0.7-0.3,1.3-0.7,1.9-1.1s1.1-0.7,1.5-1.1h1.8v13.8h-1.9V638z"/>
	<path d="M45.6,638c-0.2,0.2-0.5,0.4-0.7,0.6c-0.3,0.2-0.6,0.4-0.8,0.5c-0.3,0.2-0.6,0.3-0.9,0.5c-0.3,0.2-0.6,0.3-0.8,0.4v-2
		c0.7-0.3,1.3-0.7,1.9-1.1s1.1-0.7,1.5-1.1h1.8v13.8h-1.9V638z"/>
	<path d="M51.2,642.9c0-0.3,0-0.8,0-1.3s0.1-1,0.2-1.6s0.2-1.1,0.4-1.6s0.5-1,0.8-1.5s0.8-0.8,1.3-1s1.1-0.4,1.9-0.4
		c0.7,0,1.3,0.1,1.8,0.3c0.5,0.2,0.9,0.5,1.3,0.9c0.3,0.4,0.6,0.8,0.8,1.3c0.2,0.5,0.4,1,0.5,1.5c0.1,0.5,0.2,1,0.2,1.6
		s0.1,1,0.1,1.4c0,1.6-0.2,3-0.5,3.9c-0.3,1-0.8,1.8-1.4,2.4c-0.2,0.2-0.5,0.4-0.8,0.5c-0.3,0.1-0.5,0.2-0.8,0.3
		c-0.2,0.1-0.5,0.1-0.7,0.2c-0.2,0-0.4,0-0.6,0c-0.5,0-0.9-0.1-1.3-0.2c-0.4-0.1-0.7-0.3-1-0.5c-0.3-0.2-0.6-0.5-0.8-0.7
		c-0.2-0.3-0.4-0.6-0.6-0.9c-0.2-0.5-0.4-1-0.6-1.8C51.3,645.2,51.2,644.2,51.2,642.9z M53.2,642.8c0,0.8,0,1.5,0.1,2.2
		c0.1,0.7,0.2,1.2,0.4,1.7c0.2,0.5,0.5,0.9,0.8,1.2c0.3,0.3,0.8,0.4,1.3,0.4c0.6,0,1-0.2,1.4-0.5c0.4-0.3,0.6-0.8,0.8-1.3
		s0.3-1.1,0.4-1.8c0.1-0.6,0.1-1.3,0.1-1.9c0-0.8,0-1.6-0.1-2.3s-0.2-1.3-0.4-1.8c-0.2-0.5-0.5-0.9-0.8-1.2
		c-0.3-0.3-0.8-0.4-1.3-0.4c-0.6,0-1.1,0.2-1.5,0.5c-0.4,0.4-0.6,0.8-0.8,1.4c-0.2,0.5-0.3,1.2-0.4,1.8
		C53.2,641.6,53.2,642.2,53.2,642.8z"/>
</g>
<g class="st1">
	<path d="M211.2,54.4c0,0.3,0.1,0.6,0.2,0.9c0.1,0.2,0.3,0.4,0.5,0.6c0.2,0.2,0.5,0.3,0.7,0.4c0.3,0.1,0.5,0.1,0.8,0.1
		c0.6,0,1.1-0.1,1.5-0.4c0.4-0.2,0.6-0.5,0.8-0.9c0.2-0.3,0.3-0.7,0.4-1s0.1-0.7,0.1-0.9c0-0.9-0.2-1.7-0.7-2.2
		c-0.5-0.5-1.1-0.8-1.9-0.8c-0.4,0-0.8,0.1-1.1,0.2c-0.3,0.1-0.6,0.3-0.8,0.5s-0.4,0.4-0.4,0.6c-0.1,0.2-0.1,0.4-0.2,0.5h-1.8
		l0.4-8.2h7.8v1.6h-6.1l-0.3,4.5c0.1-0.1,0.2-0.2,0.4-0.4c0.2-0.1,0.4-0.3,0.6-0.4c0.2-0.1,0.5-0.2,0.8-0.3c0.3-0.1,0.7-0.1,1.1-0.1
		c0.7,0,1.3,0.1,1.8,0.4c0.5,0.3,1,0.6,1.3,1c0.3,0.4,0.6,0.9,0.8,1.5s0.3,1.1,0.3,1.7c0,0.7-0.1,1.3-0.4,1.9
		c-0.2,0.6-0.6,1.1-1,1.5s-0.9,0.8-1.5,1c-0.6,0.2-1.3,0.4-2,0.4c-0.6,0-1.1-0.1-1.6-0.2s-0.9-0.4-1.3-0.7c-0.4-0.3-0.7-0.7-0.9-1.1
		c-0.2-0.5-0.3-1-0.4-1.6H211.2z"/>
	<path d="M220,50.9c0-0.3,0-0.8,0-1.3s0.1-1,0.2-1.6s0.2-1.1,0.4-1.6s0.5-1,0.8-1.5s0.8-0.8,1.3-1s1.1-0.4,1.9-0.4
		c0.7,0,1.3,0.1,1.8,0.3c0.5,0.2,0.9,0.5,1.3,0.9c0.3,0.4,0.6,0.8,0.8,1.3c0.2,0.5,0.4,1,0.5,1.5c0.1,0.5,0.2,1,0.2,1.6
		s0.1,1,0.1,1.4c0,1.6-0.2,3-0.5,3.9c-0.3,1-0.8,1.8-1.4,2.4c-0.2,0.2-0.5,0.4-0.8,0.5c-0.3,0.1-0.5,0.2-0.8,0.3
		c-0.2,0.1-0.5,0.1-0.7,0.2c-0.2,0-0.4,0-0.6,0c-0.5,0-0.9-0.1-1.3-0.2c-0.4-0.1-0.7-0.3-1-0.5c-0.3-0.2-0.6-0.5-0.8-0.7
		c-0.2-0.3-0.4-0.6-0.6-0.9c-0.2-0.5-0.4-1-0.6-1.8C220.1,53.2,220,52.2,220,50.9z M221.9,50.8c0,0.8,0,1.5,0.1,2.2
		c0.1,0.7,0.2,1.2,0.4,1.7c0.2,0.5,0.5,0.9,0.8,1.2c0.3,0.3,0.8,0.4,1.3,0.4c0.6,0,1-0.2,1.4-0.5c0.4-0.3,0.6-0.8,0.8-1.3
		s0.3-1.1,0.4-1.8c0.1-0.6,0.1-1.3,0.1-1.9c0-0.8,0-1.6-0.1-2.3s-0.2-1.3-0.4-1.8c-0.2-0.5-0.5-0.9-0.8-1.2
		c-0.3-0.3-0.8-0.4-1.3-0.4c-0.6,0-1.1,0.2-1.5,0.5c-0.4,0.4-0.6,0.8-0.8,1.4c-0.2,0.5-0.3,1.2-0.4,1.8
		C222,49.6,221.9,50.2,221.9,50.8z"/>
	<path d="M231.1,50.9c0-0.3,0-0.8,0-1.3s0.1-1,0.2-1.6s0.2-1.1,0.4-1.6s0.5-1,0.8-1.5s0.8-0.8,1.3-1s1.1-0.4,1.9-0.4
		c0.7,0,1.3,0.1,1.8,0.3c0.5,0.2,0.9,0.5,1.3,0.9c0.3,0.4,0.6,0.8,0.8,1.3c0.2,0.5,0.4,1,0.5,1.5c0.1,0.5,0.2,1,0.2,1.6
		s0.1,1,0.1,1.4c0,1.6-0.2,3-0.5,3.9c-0.3,1-0.8,1.8-1.4,2.4c-0.2,0.2-0.5,0.4-0.8,0.5c-0.3,0.1-0.5,0.2-0.8,0.3
		c-0.2,0.1-0.5,0.1-0.7,0.2c-0.2,0-0.4,0-0.6,0c-0.5,0-0.9-0.1-1.3-0.2c-0.4-0.1-0.7-0.3-1-0.5c-0.3-0.2-0.6-0.5-0.8-0.7
		c-0.2-0.3-0.4-0.6-0.6-0.9c-0.2-0.5-0.4-1-0.6-1.8C231.2,53.2,231.1,52.2,231.1,50.9z M233.1,50.8c0,0.8,0,1.5,0.1,2.2
		c0.1,0.7,0.2,1.2,0.4,1.7c0.2,0.5,0.5,0.9,0.8,1.2c0.3,0.3,0.8,0.4,1.3,0.4c0.6,0,1-0.2,1.4-0.5c0.4-0.3,0.6-0.8,0.8-1.3
		s0.3-1.1,0.4-1.8c0.1-0.6,0.1-1.3,0.1-1.9c0-0.8,0-1.6-0.1-2.3s-0.2-1.3-0.4-1.8c-0.2-0.5-0.5-0.9-0.8-1.2
		c-0.3-0.3-0.8-0.4-1.3-0.4c-0.6,0-1.1,0.2-1.5,0.5c-0.4,0.4-0.6,0.8-0.8,1.4c-0.2,0.5-0.3,1.2-0.4,1.8
		C233.1,49.6,233.1,50.2,233.1,50.8z"/>
</g>
<g class="st1">
	<path d="M96.4,55.9l3.6-3.6c0.4-0.4,0.8-0.8,1.1-1.2c0.4-0.4,0.7-0.8,1-1.2c0.4-0.5,0.7-1,0.8-1.4c0.1-0.4,0.2-0.7,0.2-1.1
		c0-0.2,0-0.4-0.1-0.6c0-0.3-0.1-0.5-0.3-0.7c-0.2-0.2-0.4-0.4-0.7-0.6c-0.3-0.2-0.7-0.3-1.2-0.3c-0.6,0-1,0.1-1.3,0.3
		S99.2,46,99,46.2s-0.2,0.5-0.3,0.8c0,0.3,0,0.5,0,0.6h-2.1c0-0.2,0-0.4,0-0.6c0-0.2,0.1-0.5,0.2-0.8c0.1-0.3,0.2-0.5,0.4-0.8
		c0.2-0.3,0.4-0.6,0.7-0.8c0.5-0.4,1-0.7,1.5-0.8c0.5-0.1,1-0.2,1.5-0.2c0.5,0,1.1,0.1,1.6,0.2s1,0.4,1.4,0.7c0.4,0.3,0.7,0.7,1,1.2
		c0.2,0.5,0.4,1.1,0.4,1.9c0,0.2,0,0.4,0,0.6c0,0.2-0.1,0.4-0.2,0.7s-0.3,0.6-0.5,0.9c-0.2,0.3-0.5,0.7-0.9,1.2
		c-0.1,0.1-0.3,0.3-0.5,0.6c-0.2,0.3-0.5,0.5-0.8,0.8c-0.3,0.3-0.5,0.5-0.8,0.8c-0.2,0.3-0.4,0.4-0.5,0.5l-2.4,2.3h6.6v1.6h-8.8
		V55.9z"/>
	<path d="M109.7,54.4c0,0.3,0.1,0.6,0.2,0.9c0.1,0.2,0.3,0.4,0.5,0.6c0.2,0.2,0.5,0.3,0.7,0.4c0.3,0.1,0.5,0.1,0.8,0.1
		c0.6,0,1.1-0.1,1.5-0.4c0.4-0.2,0.6-0.5,0.8-0.9c0.2-0.3,0.3-0.7,0.4-1s0.1-0.7,0.1-0.9c0-0.9-0.2-1.7-0.7-2.2
		c-0.5-0.5-1.1-0.8-1.9-0.8c-0.4,0-0.8,0.1-1.1,0.2c-0.3,0.1-0.6,0.3-0.8,0.5s-0.4,0.4-0.4,0.6c-0.1,0.2-0.1,0.4-0.2,0.5h-1.8
		l0.4-8.2h7.8v1.6h-6.1l-0.3,4.5c0.1-0.1,0.2-0.2,0.4-0.4c0.2-0.1,0.4-0.3,0.6-0.4c0.2-0.1,0.5-0.2,0.8-0.3c0.3-0.1,0.7-0.1,1.1-0.1
		c0.7,0,1.3,0.1,1.8,0.4c0.5,0.3,1,0.6,1.3,1c0.3,0.4,0.6,0.9,0.8,1.5s0.3,1.1,0.3,1.7c0,0.7-0.1,1.3-0.4,1.9
		c-0.2,0.6-0.6,1.1-1,1.5s-0.9,0.8-1.5,1c-0.6,0.2-1.3,0.4-2,0.4c-0.6,0-1.1-0.1-1.6-0.2s-0.9-0.4-1.3-0.7c-0.4-0.3-0.7-0.7-0.9-1.1
		c-0.2-0.5-0.3-1-0.4-1.6H109.7z"/>
	<path d="M118.5,50.9c0-0.3,0-0.8,0-1.3s0.1-1,0.2-1.6s0.2-1.1,0.4-1.6s0.5-1,0.8-1.5s0.8-0.8,1.3-1s1.1-0.4,1.9-0.4
		c0.7,0,1.3,0.1,1.8,0.3c0.5,0.2,0.9,0.5,1.3,0.9c0.3,0.4,0.6,0.8,0.8,1.3c0.2,0.5,0.4,1,0.5,1.5c0.1,0.5,0.2,1,0.2,1.6
		s0.1,1,0.1,1.4c0,1.6-0.2,3-0.5,3.9c-0.3,1-0.8,1.8-1.4,2.4c-0.2,0.2-0.5,0.4-0.8,0.5c-0.3,0.1-0.5,0.2-0.8,0.3
		c-0.2,0.1-0.5,0.1-0.7,0.2c-0.2,0-0.4,0-0.6,0c-0.5,0-0.9-0.1-1.3-0.2c-0.4-0.1-0.7-0.3-1-0.5c-0.3-0.2-0.6-0.5-0.8-0.7
		c-0.2-0.3-0.4-0.6-0.6-0.9c-0.2-0.5-0.4-1-0.6-1.8C118.6,53.2,118.5,52.2,118.5,50.9z M120.4,50.8c0,0.8,0,1.5,0.1,2.2
		c0.1,0.7,0.2,1.2,0.4,1.7c0.2,0.5,0.5,0.9,0.8,1.2c0.3,0.3,0.8,0.4,1.3,0.4c0.6,0,1-0.2,1.4-0.5c0.4-0.3,0.6-0.8,0.8-1.3
		s0.3-1.1,0.4-1.8c0.1-0.6,0.1-1.3,0.1-1.9c0-0.8,0-1.6-0.1-2.3s-0.2-1.3-0.4-1.8c-0.2-0.5-0.5-0.9-0.8-1.2
		c-0.3-0.3-0.8-0.4-1.3-0.4c-0.6,0-1.1,0.2-1.5,0.5c-0.4,0.4-0.6,0.8-0.8,1.4c-0.2,0.5-0.3,1.2-0.4,1.8
		C120.4,49.6,120.4,50.2,120.4,50.8z"/>
</g>
<g class="st1">
	<path d="M264.7,43.9h9.1v1.7l-5.1,12.2h-2.3l5.3-12.2h-7.1V43.9z"/>
	<path d="M278.3,54.4c0,0.3,0.1,0.6,0.2,0.9c0.1,0.2,0.3,0.4,0.5,0.6c0.2,0.2,0.5,0.3,0.7,0.4c0.3,0.1,0.5,0.1,0.8,0.1
		c0.6,0,1.1-0.1,1.5-0.4c0.4-0.2,0.6-0.5,0.8-0.9c0.2-0.3,0.3-0.7,0.4-1s0.1-0.7,0.1-0.9c0-0.9-0.2-1.7-0.7-2.2
		c-0.5-0.5-1.1-0.8-1.9-0.8c-0.4,0-0.8,0.1-1.1,0.2c-0.3,0.1-0.6,0.3-0.8,0.5s-0.4,0.4-0.4,0.6c-0.1,0.2-0.1,0.4-0.2,0.5h-1.8
		l0.4-8.2h7.8v1.6h-6.1l-0.3,4.5c0.1-0.1,0.2-0.2,0.4-0.4c0.2-0.1,0.4-0.3,0.6-0.4c0.2-0.1,0.5-0.2,0.8-0.3c0.3-0.1,0.7-0.1,1.1-0.1
		c0.7,0,1.3,0.1,1.8,0.4c0.5,0.3,1,0.6,1.3,1c0.3,0.4,0.6,0.9,0.8,1.5s0.3,1.1,0.3,1.7c0,0.7-0.1,1.3-0.4,1.9
		c-0.2,0.6-0.6,1.1-1,1.5s-0.9,0.8-1.5,1c-0.6,0.2-1.3,0.4-2,0.4c-0.6,0-1.1-0.1-1.6-0.2s-0.9-0.4-1.3-0.7c-0.4-0.3-0.7-0.7-0.9-1.1
		c-0.2-0.5-0.3-1-0.4-1.6H278.3z"/>
	<path d="M287.1,50.9c0-0.3,0-0.8,0-1.3s0.1-1,0.2-1.6s0.2-1.1,0.4-1.6s0.5-1,0.8-1.5s0.8-0.8,1.3-1s1.1-0.4,1.9-0.4
		c0.7,0,1.3,0.1,1.8,0.3c0.5,0.2,0.9,0.5,1.3,0.9c0.3,0.4,0.6,0.8,0.8,1.3c0.2,0.5,0.4,1,0.5,1.5c0.1,0.5,0.2,1,0.2,1.6
		s0.1,1,0.1,1.4c0,1.6-0.2,3-0.5,3.9c-0.3,1-0.8,1.8-1.4,2.4c-0.2,0.2-0.5,0.4-0.8,0.5c-0.3,0.1-0.5,0.2-0.8,0.3
		c-0.2,0.1-0.5,0.1-0.7,0.2c-0.2,0-0.4,0-0.6,0c-0.5,0-0.9-0.1-1.3-0.2c-0.4-0.1-0.7-0.3-1-0.5c-0.3-0.2-0.6-0.5-0.8-0.7
		c-0.2-0.3-0.4-0.6-0.6-0.9c-0.2-0.5-0.4-1-0.6-1.8C287.2,53.2,287.1,52.2,287.1,50.9z M289.1,50.8c0,0.8,0,1.5,0.1,2.2
		c0.1,0.7,0.2,1.2,0.4,1.7c0.2,0.5,0.5,0.9,0.8,1.2c0.3,0.3,0.8,0.4,1.3,0.4c0.6,0,1-0.2,1.4-0.5c0.4-0.3,0.6-0.8,0.8-1.3
		s0.3-1.1,0.4-1.8c0.1-0.6,0.1-1.3,0.1-1.9c0-0.8,0-1.6-0.1-2.3s-0.2-1.3-0.4-1.8c-0.2-0.5-0.5-0.9-0.8-1.2
		c-0.3-0.3-0.8-0.4-1.3-0.4c-0.6,0-1.1,0.2-1.5,0.5c-0.4,0.4-0.6,0.8-0.8,1.4c-0.2,0.5-0.3,1.2-0.4,1.8
		C289.1,49.6,289.1,50.2,289.1,50.8z"/>
</g>
<g class="st1">
	<path d="M317.9,46c-0.2,0.2-0.5,0.4-0.7,0.6c-0.3,0.2-0.6,0.4-0.8,0.5c-0.3,0.2-0.6,0.3-0.9,0.5c-0.3,0.2-0.6,0.3-0.8,0.4v-2
		c0.7-0.3,1.3-0.7,1.9-1.1s1.1-0.7,1.5-1.1h1.8v13.8h-1.9V46z"/>
	<path d="M323.5,50.9c0-0.3,0-0.8,0-1.3s0.1-1,0.2-1.6s0.2-1.1,0.4-1.6s0.5-1,0.8-1.5s0.8-0.8,1.3-1s1.1-0.4,1.9-0.4
		c0.7,0,1.3,0.1,1.8,0.3c0.5,0.2,0.9,0.5,1.3,0.9c0.3,0.4,0.6,0.8,0.8,1.3c0.2,0.5,0.4,1,0.5,1.5c0.1,0.5,0.2,1,0.2,1.6
		s0.1,1,0.1,1.4c0,1.6-0.2,3-0.5,3.9c-0.3,1-0.8,1.8-1.4,2.4c-0.2,0.2-0.5,0.4-0.8,0.5c-0.3,0.1-0.5,0.2-0.8,0.3
		c-0.2,0.1-0.5,0.1-0.7,0.2c-0.2,0-0.4,0-0.6,0c-0.5,0-0.9-0.1-1.3-0.2c-0.4-0.1-0.7-0.3-1-0.5c-0.3-0.2-0.6-0.5-0.8-0.7
		c-0.2-0.3-0.4-0.6-0.6-0.9c-0.2-0.5-0.4-1-0.6-1.8C323.6,53.2,323.5,52.2,323.5,50.9z M325.4,50.8c0,0.8,0,1.5,0.1,2.2
		c0.1,0.7,0.2,1.2,0.4,1.7c0.2,0.5,0.5,0.9,0.8,1.2c0.3,0.3,0.8,0.4,1.3,0.4c0.6,0,1-0.2,1.4-0.5c0.4-0.3,0.6-0.8,0.8-1.3
		s0.3-1.1,0.4-1.8c0.1-0.6,0.1-1.3,0.1-1.9c0-0.8,0-1.6-0.1-2.3s-0.2-1.3-0.4-1.8c-0.2-0.5-0.5-0.9-0.8-1.2
		c-0.3-0.3-0.8-0.4-1.3-0.4c-0.6,0-1.1,0.2-1.5,0.5c-0.4,0.4-0.6,0.8-0.8,1.4c-0.2,0.5-0.3,1.2-0.4,1.8
		C325.5,49.6,325.4,50.2,325.4,50.8z"/>
	<path d="M334.6,50.9c0-0.3,0-0.8,0-1.3s0.1-1,0.2-1.6s0.2-1.1,0.4-1.6s0.5-1,0.8-1.5s0.8-0.8,1.3-1s1.1-0.4,1.9-0.4
		c0.7,0,1.3,0.1,1.8,0.3c0.5,0.2,0.9,0.5,1.3,0.9c0.3,0.4,0.6,0.8,0.8,1.3c0.2,0.5,0.4,1,0.5,1.5c0.1,0.5,0.2,1,0.2,1.6
		s0.1,1,0.1,1.4c0,1.6-0.2,3-0.5,3.9c-0.3,1-0.8,1.8-1.4,2.4c-0.2,0.2-0.5,0.4-0.8,0.5c-0.3,0.1-0.5,0.2-0.8,0.3
		c-0.2,0.1-0.5,0.1-0.7,0.2c-0.2,0-0.4,0-0.6,0c-0.5,0-0.9-0.1-1.3-0.2c-0.4-0.1-0.7-0.3-1-0.5c-0.3-0.2-0.6-0.5-0.8-0.7
		c-0.2-0.3-0.4-0.6-0.6-0.9c-0.2-0.5-0.4-1-0.6-1.8C334.7,53.2,334.6,52.2,334.6,50.9z M336.5,50.8c0,0.8,0,1.5,0.1,2.2
		c0.1,0.7,0.2,1.2,0.4,1.7c0.2,0.5,0.5,0.9,0.8,1.2c0.3,0.3,0.8,0.4,1.3,0.4c0.6,0,1-0.2,1.4-0.5c0.4-0.3,0.6-0.8,0.8-1.3
		s0.3-1.1,0.4-1.8c0.1-0.6,0.1-1.3,0.1-1.9c0-0.8,0-1.6-0.1-2.3s-0.2-1.3-0.4-1.8c-0.2-0.5-0.5-0.9-0.8-1.2
		c-0.3-0.3-0.8-0.4-1.3-0.4c-0.6,0-1.1,0.2-1.5,0.5c-0.4,0.4-0.6,0.8-0.8,1.4c-0.2,0.5-0.3,1.2-0.4,1.8
		C336.6,49.6,336.5,50.2,336.5,50.8z"/>
	<path d="M345.7,50.9c0-0.3,0-0.8,0-1.3s0.1-1,0.2-1.6s0.2-1.1,0.4-1.6s0.5-1,0.8-1.5s0.8-0.8,1.3-1s1.1-0.4,1.9-0.4
		c0.7,0,1.3,0.1,1.8,0.3c0.5,0.2,0.9,0.5,1.3,0.9c0.3,0.4,0.6,0.8,0.8,1.3c0.2,0.5,0.4,1,0.5,1.5c0.1,0.5,0.2,1,0.2,1.6
		s0.1,1,0.1,1.4c0,1.6-0.2,3-0.5,3.9c-0.3,1-0.8,1.8-1.4,2.4c-0.2,0.2-0.5,0.4-0.8,0.5c-0.3,0.1-0.5,0.2-0.8,0.3
		c-0.2,0.1-0.5,0.1-0.7,0.2c-0.2,0-0.4,0-0.6,0c-0.5,0-0.9-0.1-1.3-0.2c-0.4-0.1-0.7-0.3-1-0.5c-0.3-0.2-0.6-0.5-0.8-0.7
		c-0.2-0.3-0.4-0.6-0.6-0.9c-0.2-0.5-0.4-1-0.6-1.8C345.8,53.2,345.7,52.2,345.7,50.9z M347.7,50.8c0,0.8,0,1.5,0.1,2.2
		c0.1,0.7,0.2,1.2,0.4,1.7c0.2,0.5,0.5,0.9,0.8,1.2c0.3,0.3,0.8,0.4,1.3,0.4c0.6,0,1-0.2,1.4-0.5c0.4-0.3,0.6-0.8,0.8-1.3
		s0.3-1.1,0.4-1.8c0.1-0.6,0.1-1.3,0.1-1.9c0-0.8,0-1.6-0.1-2.3s-0.2-1.3-0.4-1.8c-0.2-0.5-0.5-0.9-0.8-1.2
		c-0.3-0.3-0.8-0.4-1.3-0.4c-0.6,0-1.1,0.2-1.5,0.5c-0.4,0.4-0.6,0.8-0.8,1.4c-0.2,0.5-0.3,1.2-0.4,1.8
		C347.7,49.6,347.7,50.2,347.7,50.8z"/>
</g>
<g class="st1">
	<path d="M373.9,46c-0.2,0.2-0.5,0.4-0.7,0.6c-0.3,0.2-0.6,0.4-0.8,0.5c-0.3,0.2-0.6,0.3-0.9,0.5c-0.3,0.2-0.5,0.3-0.8,0.4v-2
		c0.7-0.3,1.3-0.7,1.9-1.1c0.6-0.4,1.1-0.7,1.5-1.1h1.8v13.8h-1.9V46z"/>
	<path d="M382.5,54.4c0,0.3,0.1,0.6,0.2,0.9c0.1,0.2,0.3,0.4,0.5,0.6s0.5,0.3,0.7,0.4c0.3,0.1,0.5,0.1,0.8,0.1
		c0.6,0,1.1-0.1,1.5-0.4c0.4-0.2,0.6-0.5,0.8-0.9c0.2-0.3,0.3-0.7,0.4-1c0.1-0.4,0.1-0.7,0.1-0.9c0-0.9-0.2-1.7-0.7-2.2
		c-0.5-0.5-1.1-0.8-1.9-0.8c-0.4,0-0.8,0.1-1.1,0.2c-0.3,0.1-0.6,0.3-0.8,0.5c-0.2,0.2-0.4,0.4-0.4,0.6c-0.1,0.2-0.1,0.4-0.2,0.5
		h-1.8l0.4-8.2h7.8v1.6h-6.1l-0.3,4.5c0.1-0.1,0.2-0.2,0.4-0.4c0.2-0.1,0.4-0.3,0.6-0.4c0.2-0.1,0.5-0.2,0.8-0.3
		c0.3-0.1,0.7-0.1,1.1-0.1c0.7,0,1.3,0.1,1.8,0.4c0.5,0.3,1,0.6,1.3,1c0.3,0.4,0.6,0.9,0.8,1.5c0.2,0.5,0.3,1.1,0.3,1.7
		c0,0.7-0.1,1.3-0.3,1.9c-0.2,0.6-0.6,1.1-1,1.5s-0.9,0.8-1.5,1c-0.6,0.2-1.3,0.4-2,0.4c-0.6,0-1.1-0.1-1.6-0.2
		c-0.5-0.2-0.9-0.4-1.3-0.7c-0.4-0.3-0.7-0.7-0.9-1.1c-0.2-0.5-0.3-1-0.4-1.6H382.5z"/>
	<path d="M391.3,50.9c0-0.3,0-0.8,0-1.3c0-0.5,0.1-1,0.2-1.6c0.1-0.5,0.2-1.1,0.4-1.6s0.5-1,0.8-1.5s0.8-0.8,1.3-1
		c0.5-0.3,1.1-0.4,1.9-0.4c0.7,0,1.3,0.1,1.8,0.3c0.5,0.2,0.9,0.5,1.3,0.9s0.6,0.8,0.8,1.3c0.2,0.5,0.4,1,0.5,1.5
		c0.1,0.5,0.2,1,0.2,1.6s0.1,1,0.1,1.4c0,1.6-0.2,3-0.5,3.9c-0.3,1-0.8,1.8-1.4,2.4c-0.2,0.2-0.5,0.4-0.8,0.5
		c-0.3,0.1-0.5,0.2-0.8,0.3s-0.5,0.1-0.7,0.2c-0.2,0-0.4,0-0.6,0c-0.5,0-0.9-0.1-1.3-0.2c-0.4-0.1-0.7-0.3-1-0.5
		c-0.3-0.2-0.6-0.5-0.8-0.7c-0.2-0.3-0.4-0.6-0.6-0.9c-0.2-0.5-0.4-1-0.6-1.8C391.4,53.2,391.3,52.2,391.3,50.9z M393.2,50.8
		c0,0.8,0,1.5,0.1,2.2c0.1,0.7,0.2,1.2,0.4,1.7c0.2,0.5,0.5,0.9,0.8,1.2c0.3,0.3,0.8,0.4,1.3,0.4c0.6,0,1-0.2,1.4-0.5
		c0.4-0.3,0.6-0.8,0.8-1.3s0.3-1.1,0.4-1.8c0.1-0.6,0.1-1.3,0.1-1.9c0-0.8,0-1.6-0.1-2.3s-0.2-1.3-0.4-1.8c-0.2-0.5-0.5-0.9-0.8-1.2
		c-0.3-0.3-0.8-0.4-1.3-0.4c-0.6,0-1.1,0.2-1.5,0.5c-0.4,0.4-0.6,0.8-0.8,1.4s-0.3,1.2-0.4,1.8C393.2,49.6,393.2,50.2,393.2,50.8z"
		/>
	<path d="M402.4,50.9c0-0.3,0-0.8,0-1.3c0-0.5,0.1-1,0.2-1.6c0.1-0.5,0.2-1.1,0.4-1.6s0.5-1,0.8-1.5s0.8-0.8,1.3-1
		c0.5-0.3,1.1-0.4,1.9-0.4c0.7,0,1.3,0.1,1.8,0.3c0.5,0.2,0.9,0.5,1.3,0.9s0.6,0.8,0.8,1.3c0.2,0.5,0.4,1,0.5,1.5
		c0.1,0.5,0.2,1,0.2,1.6s0.1,1,0.1,1.4c0,1.6-0.2,3-0.5,3.9c-0.3,1-0.8,1.8-1.4,2.4c-0.2,0.2-0.5,0.4-0.8,0.5
		c-0.3,0.1-0.5,0.2-0.8,0.3s-0.5,0.1-0.7,0.2c-0.2,0-0.4,0-0.6,0c-0.5,0-0.9-0.1-1.3-0.2c-0.4-0.1-0.7-0.3-1-0.5
		c-0.3-0.2-0.6-0.5-0.8-0.7c-0.2-0.3-0.4-0.6-0.6-0.9c-0.2-0.5-0.4-1-0.6-1.8C402.5,53.2,402.4,52.2,402.4,50.9z M404.3,50.8
		c0,0.8,0,1.5,0.1,2.2c0.1,0.7,0.2,1.2,0.4,1.7c0.2,0.5,0.5,0.9,0.8,1.2c0.3,0.3,0.8,0.4,1.3,0.4c0.6,0,1-0.2,1.4-0.5
		c0.4-0.3,0.6-0.8,0.8-1.3s0.3-1.1,0.4-1.8c0.1-0.6,0.1-1.3,0.1-1.9c0-0.8,0-1.6-0.1-2.3s-0.2-1.3-0.4-1.8c-0.2-0.5-0.5-0.9-0.8-1.2
		c-0.3-0.3-0.8-0.4-1.3-0.4c-0.6,0-1.1,0.2-1.5,0.5c-0.4,0.4-0.6,0.8-0.8,1.4s-0.3,1.2-0.4,1.8C404.4,49.6,404.3,50.2,404.3,50.8z"
		/>
</g>
<g class="st1">
	<path d="M422.5,55.9l3.6-3.6c0.4-0.4,0.8-0.8,1.1-1.2c0.4-0.4,0.7-0.8,1-1.2c0.4-0.5,0.7-1,0.8-1.4c0.1-0.4,0.2-0.7,0.2-1.1
		c0-0.2,0-0.4-0.1-0.6c0-0.3-0.1-0.5-0.3-0.7c-0.2-0.2-0.4-0.4-0.7-0.6c-0.3-0.2-0.7-0.3-1.2-0.3c-0.6,0-1,0.1-1.3,0.3
		s-0.5,0.4-0.7,0.7c-0.1,0.3-0.2,0.5-0.3,0.8s0,0.5,0,0.6h-2.1c0-0.2,0-0.4,0-0.6c0-0.2,0.1-0.5,0.2-0.8c0.1-0.3,0.2-0.5,0.4-0.8
		c0.2-0.3,0.4-0.6,0.7-0.8c0.5-0.4,1-0.7,1.5-0.8c0.5-0.1,1-0.2,1.5-0.2c0.5,0,1.1,0.1,1.6,0.2c0.5,0.1,1,0.4,1.4,0.7
		c0.4,0.3,0.7,0.7,1,1.2c0.2,0.5,0.4,1.1,0.4,1.9c0,0.2,0,0.4,0,0.6c0,0.2-0.1,0.4-0.2,0.7c-0.1,0.3-0.3,0.6-0.5,0.9
		c-0.2,0.3-0.5,0.7-0.9,1.2c-0.1,0.1-0.3,0.3-0.5,0.6c-0.2,0.3-0.5,0.5-0.8,0.8s-0.5,0.5-0.8,0.8c-0.2,0.3-0.4,0.4-0.5,0.5l-2.4,2.3
		h6.6v1.6h-8.8V55.9z"/>
	<path d="M433.5,50.9c0-0.3,0-0.8,0-1.3c0-0.5,0.1-1,0.2-1.6c0.1-0.5,0.2-1.1,0.4-1.6s0.5-1,0.8-1.5s0.8-0.8,1.3-1
		c0.5-0.3,1.1-0.4,1.9-0.4c0.7,0,1.3,0.1,1.8,0.3c0.5,0.2,0.9,0.5,1.3,0.9s0.6,0.8,0.8,1.3c0.2,0.5,0.4,1,0.5,1.5
		c0.1,0.5,0.2,1,0.2,1.6s0.1,1,0.1,1.4c0,1.6-0.2,3-0.5,3.9c-0.3,1-0.8,1.8-1.4,2.4c-0.2,0.2-0.5,0.4-0.8,0.5
		c-0.3,0.1-0.5,0.2-0.8,0.3s-0.5,0.1-0.7,0.2c-0.2,0-0.4,0-0.6,0c-0.5,0-0.9-0.1-1.3-0.2c-0.4-0.1-0.7-0.3-1-0.5
		c-0.3-0.2-0.6-0.5-0.8-0.7c-0.2-0.3-0.4-0.6-0.6-0.9c-0.2-0.5-0.4-1-0.6-1.8C433.6,53.2,433.5,52.2,433.5,50.9z M435.4,50.8
		c0,0.8,0,1.5,0.1,2.2c0.1,0.7,0.2,1.2,0.4,1.7c0.2,0.5,0.5,0.9,0.8,1.2c0.3,0.3,0.8,0.4,1.3,0.4c0.6,0,1-0.2,1.4-0.5
		c0.4-0.3,0.6-0.8,0.8-1.3s0.3-1.1,0.4-1.8c0.1-0.6,0.1-1.3,0.1-1.9c0-0.8,0-1.6-0.1-2.3s-0.2-1.3-0.4-1.8c-0.2-0.5-0.5-0.9-0.8-1.2
		c-0.3-0.3-0.8-0.4-1.3-0.4c-0.6,0-1.1,0.2-1.5,0.5c-0.4,0.4-0.6,0.8-0.8,1.4s-0.3,1.2-0.4,1.8C435.4,49.6,435.4,50.2,435.4,50.8z"
		/>
	<path d="M444.6,50.9c0-0.3,0-0.8,0-1.3c0-0.5,0.1-1,0.2-1.6c0.1-0.5,0.2-1.1,0.4-1.6s0.5-1,0.8-1.5s0.8-0.8,1.3-1
		c0.5-0.3,1.1-0.4,1.9-0.4c0.7,0,1.3,0.1,1.8,0.3c0.5,0.2,0.9,0.5,1.3,0.9s0.6,0.8,0.8,1.3c0.2,0.5,0.4,1,0.5,1.5
		c0.1,0.5,0.2,1,0.2,1.6s0.1,1,0.1,1.4c0,1.6-0.2,3-0.5,3.9c-0.3,1-0.8,1.8-1.4,2.4c-0.2,0.2-0.5,0.4-0.8,0.5
		c-0.3,0.1-0.5,0.2-0.8,0.3s-0.5,0.1-0.7,0.2c-0.2,0-0.4,0-0.6,0c-0.5,0-0.9-0.1-1.3-0.2c-0.4-0.1-0.7-0.3-1-0.5
		c-0.3-0.2-0.6-0.5-0.8-0.7c-0.2-0.3-0.4-0.6-0.6-0.9c-0.2-0.5-0.4-1-0.6-1.8C444.7,53.2,444.6,52.2,444.6,50.9z M446.5,50.8
		c0,0.8,0,1.5,0.1,2.2c0.1,0.7,0.2,1.2,0.4,1.7c0.2,0.5,0.5,0.9,0.8,1.2c0.3,0.3,0.8,0.4,1.3,0.4c0.6,0,1-0.2,1.4-0.5
		c0.4-0.3,0.6-0.8,0.8-1.3s0.3-1.1,0.4-1.8c0.1-0.6,0.1-1.3,0.1-1.9c0-0.8,0-1.6-0.1-2.3s-0.2-1.3-0.4-1.8c-0.2-0.5-0.5-0.9-0.8-1.2
		c-0.3-0.3-0.8-0.4-1.3-0.4c-0.6,0-1.1,0.2-1.5,0.5c-0.4,0.4-0.6,0.8-0.8,1.4s-0.3,1.2-0.4,1.8C446.5,49.6,446.5,50.2,446.5,50.8z"
		/>
	<path d="M455.7,50.9c0-0.3,0-0.8,0-1.3c0-0.5,0.1-1,0.2-1.6c0.1-0.5,0.2-1.1,0.4-1.6s0.5-1,0.8-1.5s0.8-0.8,1.3-1
		c0.5-0.3,1.1-0.4,1.9-0.4c0.7,0,1.3,0.1,1.8,0.3c0.5,0.2,0.9,0.5,1.3,0.9c0.3,0.4,0.6,0.8,0.8,1.3c0.2,0.5,0.4,1,0.5,1.5
		c0.1,0.5,0.2,1,0.2,1.6s0.1,1,0.1,1.4c0,1.6-0.2,3-0.5,3.9c-0.3,1-0.8,1.8-1.4,2.4c-0.2,0.2-0.5,0.4-0.8,0.5
		c-0.3,0.1-0.5,0.2-0.8,0.3c-0.2,0.1-0.5,0.1-0.7,0.2c-0.2,0-0.4,0-0.6,0c-0.5,0-0.9-0.1-1.3-0.2c-0.4-0.1-0.7-0.3-1-0.5
		c-0.3-0.2-0.6-0.5-0.8-0.7c-0.2-0.3-0.4-0.6-0.6-0.9c-0.2-0.5-0.4-1-0.6-1.8S455.7,52.2,455.7,50.9z M457.6,50.8
		c0,0.8,0,1.5,0.1,2.2c0.1,0.7,0.2,1.2,0.4,1.7s0.5,0.9,0.8,1.2s0.8,0.4,1.3,0.4c0.6,0,1-0.2,1.4-0.5c0.4-0.3,0.6-0.8,0.8-1.3
		s0.3-1.1,0.4-1.8c0.1-0.6,0.1-1.3,0.1-1.9c0-0.8,0-1.6-0.1-2.3s-0.2-1.3-0.4-1.8s-0.5-0.9-0.8-1.2c-0.3-0.3-0.8-0.4-1.3-0.4
		c-0.6,0-1.1,0.2-1.5,0.5c-0.4,0.4-0.6,0.8-0.8,1.4c-0.2,0.5-0.3,1.2-0.4,1.8C457.6,49.6,457.6,50.2,457.6,50.8z"/>
</g>
<g class="st1">
	<path d="M480.3,54.1c0,0.7,0.2,1.2,0.6,1.6s1.1,0.6,1.9,0.6c0.5,0,0.9-0.1,1.2-0.2c0.4-0.1,0.6-0.3,0.9-0.6
		c0.2-0.2,0.4-0.5,0.5-0.8c0.1-0.3,0.2-0.6,0.2-0.9c0-0.4-0.1-0.7-0.2-1c-0.1-0.3-0.3-0.5-0.4-0.7c-0.2-0.2-0.4-0.4-0.6-0.5
		s-0.5-0.2-0.7-0.3c-0.4-0.1-0.7-0.1-1-0.1c-0.3,0-0.6,0-1,0v-1.6c0.3,0,0.7,0,1.2,0s0.8-0.1,1.2-0.3c0.4-0.2,0.7-0.4,1-0.8
		c0.3-0.3,0.4-0.8,0.4-1.3c0-0.8-0.2-1.3-0.7-1.7s-1-0.5-1.7-0.5c-0.3,0-0.5,0-0.8,0.1c-0.3,0.1-0.5,0.2-0.8,0.4
		c-0.2,0.2-0.4,0.4-0.6,0.7c-0.2,0.3-0.3,0.6-0.3,1.1h-2c0-0.9,0.2-1.5,0.6-2c0.4-0.5,0.8-0.9,1.3-1.1c0.5-0.3,1-0.4,1.5-0.5
		s0.9-0.1,1.2-0.1c0.8,0,1.4,0.1,2,0.3c0.6,0.2,1,0.5,1.4,0.8c0.4,0.4,0.7,0.8,0.8,1.2c0.2,0.4,0.3,0.9,0.3,1.4c0,0.3,0,0.6-0.1,0.9
		c-0.1,0.3-0.2,0.7-0.5,1c-0.2,0.3-0.5,0.6-0.9,0.8c-0.4,0.2-0.8,0.4-1.3,0.6c0.7,0.1,1.3,0.3,1.7,0.7c0.4,0.3,0.7,0.7,0.9,1.1
		c0.2,0.4,0.3,0.7,0.3,1c0,0.3,0.1,0.5,0.1,0.6c0,0.5-0.1,1-0.3,1.5c-0.2,0.5-0.5,0.9-0.9,1.3c-0.4,0.4-0.9,0.7-1.5,1
		c-0.6,0.2-1.3,0.4-2.1,0.4c-0.7,0-1.4-0.1-2.1-0.3c-0.7-0.2-1.2-0.6-1.7-1.1c-0.2-0.2-0.4-0.4-0.5-0.7s-0.2-0.5-0.2-0.7
		c-0.1-0.2-0.1-0.4-0.1-0.6c0-0.2,0-0.4,0-0.5H480.3z"/>
	<path d="M489.5,50.9c0-0.3,0-0.8,0-1.3c0-0.5,0.1-1,0.2-1.6c0.1-0.5,0.2-1.1,0.4-1.6s0.5-1,0.8-1.5s0.8-0.8,1.3-1
		c0.5-0.3,1.1-0.4,1.9-0.4c0.7,0,1.3,0.1,1.8,0.3c0.5,0.2,0.9,0.5,1.3,0.9c0.3,0.4,0.6,0.8,0.8,1.3c0.2,0.5,0.4,1,0.5,1.5
		c0.1,0.5,0.2,1,0.2,1.6s0.1,1,0.1,1.4c0,1.6-0.2,3-0.5,3.9c-0.3,1-0.8,1.8-1.4,2.4c-0.2,0.2-0.5,0.4-0.8,0.5
		c-0.3,0.1-0.5,0.2-0.8,0.3c-0.2,0.1-0.5,0.1-0.7,0.2c-0.2,0-0.4,0-0.6,0c-0.5,0-0.9-0.1-1.3-0.2c-0.4-0.1-0.7-0.3-1-0.5
		c-0.3-0.2-0.6-0.5-0.8-0.7c-0.2-0.3-0.4-0.6-0.6-0.9c-0.2-0.5-0.4-1-0.6-1.8S489.5,52.2,489.5,50.9z M491.4,50.8
		c0,0.8,0,1.5,0.1,2.2c0.1,0.7,0.2,1.2,0.4,1.7s0.5,0.9,0.8,1.2s0.8,0.4,1.3,0.4c0.6,0,1-0.2,1.4-0.5c0.4-0.3,0.6-0.8,0.8-1.3
		s0.3-1.1,0.4-1.8c0.1-0.6,0.1-1.3,0.1-1.9c0-0.8,0-1.6-0.1-2.3s-0.2-1.3-0.4-1.8s-0.5-0.9-0.8-1.2c-0.3-0.3-0.8-0.4-1.3-0.4
		c-0.6,0-1.1,0.2-1.5,0.5c-0.4,0.4-0.6,0.8-0.8,1.4c-0.2,0.5-0.3,1.2-0.4,1.8C491.4,49.6,491.4,50.2,491.4,50.8z"/>
	<path d="M500.6,50.9c0-0.3,0-0.8,0-1.3c0-0.5,0.1-1,0.2-1.6c0.1-0.5,0.2-1.1,0.4-1.6s0.5-1,0.8-1.5s0.8-0.8,1.3-1
		c0.5-0.3,1.1-0.4,1.9-0.4c0.7,0,1.3,0.1,1.8,0.3c0.5,0.2,0.9,0.5,1.3,0.9c0.3,0.4,0.6,0.8,0.8,1.3c0.2,0.5,0.4,1,0.5,1.5
		c0.1,0.5,0.2,1,0.2,1.6s0.1,1,0.1,1.4c0,1.6-0.2,3-0.5,3.9c-0.3,1-0.8,1.8-1.4,2.4c-0.2,0.2-0.5,0.4-0.8,0.5
		c-0.3,0.1-0.5,0.2-0.8,0.3c-0.2,0.1-0.5,0.1-0.7,0.2c-0.2,0-0.4,0-0.6,0c-0.5,0-0.9-0.1-1.3-0.2c-0.4-0.1-0.7-0.3-1-0.5
		c-0.3-0.2-0.6-0.5-0.8-0.7c-0.2-0.3-0.4-0.6-0.6-0.9c-0.2-0.5-0.4-1-0.6-1.8S500.6,52.2,500.6,50.9z M502.5,50.8
		c0,0.8,0,1.5,0.1,2.2c0.1,0.7,0.2,1.2,0.4,1.7s0.5,0.9,0.8,1.2s0.8,0.4,1.3,0.4c0.6,0,1-0.2,1.4-0.5c0.4-0.3,0.6-0.8,0.8-1.3
		s0.3-1.1,0.4-1.8c0.1-0.6,0.1-1.3,0.1-1.9c0-0.8,0-1.6-0.1-2.3s-0.2-1.3-0.4-1.8s-0.5-0.9-0.8-1.2c-0.3-0.3-0.8-0.4-1.3-0.4
		c-0.6,0-1.1,0.2-1.5,0.5c-0.4,0.4-0.6,0.8-0.8,1.4c-0.2,0.5-0.3,1.2-0.4,1.8C502.5,49.6,502.5,50.2,502.5,50.8z"/>
	<path d="M511.7,50.9c0-0.3,0-0.8,0-1.3c0-0.5,0.1-1,0.2-1.6c0.1-0.5,0.2-1.1,0.4-1.6s0.5-1,0.8-1.5s0.8-0.8,1.3-1
		c0.5-0.3,1.1-0.4,1.9-0.4c0.7,0,1.3,0.1,1.8,0.3c0.5,0.2,0.9,0.5,1.3,0.9s0.6,0.8,0.8,1.3c0.2,0.5,0.4,1,0.5,1.5
		c0.1,0.5,0.2,1,0.2,1.6s0.1,1,0.1,1.4c0,1.6-0.2,3-0.5,3.9c-0.3,1-0.8,1.8-1.4,2.4c-0.2,0.2-0.5,0.4-0.8,0.5
		c-0.3,0.1-0.5,0.2-0.8,0.3s-0.5,0.1-0.7,0.2c-0.2,0-0.4,0-0.6,0c-0.5,0-0.9-0.1-1.3-0.2c-0.4-0.1-0.7-0.3-1-0.5
		c-0.3-0.2-0.6-0.5-0.8-0.7c-0.2-0.3-0.4-0.6-0.6-0.9c-0.2-0.5-0.4-1-0.6-1.8C511.8,53.2,511.7,52.2,511.7,50.9z M513.6,50.8
		c0,0.8,0,1.5,0.1,2.2c0.1,0.7,0.2,1.2,0.4,1.7c0.2,0.5,0.5,0.9,0.8,1.2c0.3,0.3,0.8,0.4,1.3,0.4c0.6,0,1-0.2,1.4-0.5
		c0.4-0.3,0.6-0.8,0.8-1.3s0.3-1.1,0.4-1.8c0.1-0.6,0.1-1.3,0.1-1.9c0-0.8,0-1.6-0.1-2.3s-0.2-1.3-0.4-1.8c-0.2-0.5-0.5-0.9-0.8-1.2
		c-0.3-0.3-0.8-0.4-1.3-0.4c-0.6,0-1.1,0.2-1.5,0.5c-0.4,0.4-0.6,0.8-0.8,1.4s-0.3,1.2-0.4,1.8C513.7,49.6,513.6,50.2,513.6,50.8z"
		/>
</g>
<g class="st1">
	<path d="M537.3,54.7H531v-2.4l6-8.6h2.2v9.4h2v1.6h-2v3h-1.9V54.7z M537.3,53.1v-7.3l-4.8,7.3H537.3z"/>
	<path d="M542.5,50.9c0-0.3,0-0.8,0-1.3c0-0.5,0.1-1,0.2-1.6s0.2-1.1,0.4-1.6s0.5-1,0.8-1.5s0.8-0.8,1.3-1s1.1-0.4,1.9-0.4
		c0.7,0,1.3,0.1,1.8,0.3c0.5,0.2,0.9,0.5,1.3,0.9s0.6,0.8,0.8,1.3c0.2,0.5,0.4,1,0.5,1.5c0.1,0.5,0.2,1,0.2,1.6s0.1,1,0.1,1.4
		c0,1.6-0.2,3-0.5,3.9c-0.3,1-0.8,1.8-1.4,2.4c-0.2,0.2-0.5,0.4-0.8,0.5c-0.3,0.1-0.5,0.2-0.8,0.3s-0.5,0.1-0.7,0.2
		c-0.2,0-0.4,0-0.6,0c-0.5,0-0.9-0.1-1.3-0.2c-0.4-0.1-0.7-0.3-1-0.5c-0.3-0.2-0.6-0.5-0.8-0.7c-0.2-0.3-0.4-0.6-0.6-0.9
		c-0.2-0.5-0.4-1-0.6-1.8C542.6,53.2,542.5,52.2,542.5,50.9z M544.4,50.8c0,0.8,0,1.5,0.1,2.2c0.1,0.7,0.2,1.2,0.4,1.7
		s0.5,0.9,0.8,1.2s0.8,0.4,1.3,0.4c0.6,0,1-0.2,1.4-0.5c0.4-0.3,0.6-0.8,0.8-1.3s0.3-1.1,0.4-1.8c0.1-0.6,0.1-1.3,0.1-1.9
		c0-0.8,0-1.6-0.1-2.3s-0.2-1.3-0.4-1.8c-0.2-0.5-0.5-0.9-0.8-1.2c-0.3-0.3-0.8-0.4-1.3-0.4c-0.6,0-1.1,0.2-1.4,0.5
		c-0.4,0.4-0.6,0.8-0.8,1.4c-0.2,0.5-0.3,1.2-0.4,1.8C544.4,49.6,544.4,50.2,544.4,50.8z"/>
	<path d="M553.6,50.9c0-0.3,0-0.8,0-1.3c0-0.5,0.1-1,0.2-1.6s0.2-1.1,0.4-1.6s0.5-1,0.8-1.5s0.8-0.8,1.3-1s1.1-0.4,1.9-0.4
		c0.7,0,1.3,0.1,1.8,0.3c0.5,0.2,0.9,0.5,1.3,0.9c0.3,0.4,0.6,0.8,0.8,1.3c0.2,0.5,0.4,1,0.5,1.5c0.1,0.5,0.2,1,0.2,1.6
		s0.1,1,0.1,1.4c0,1.6-0.2,3-0.5,3.9c-0.3,1-0.8,1.8-1.4,2.4c-0.2,0.2-0.5,0.4-0.8,0.5c-0.3,0.1-0.5,0.2-0.8,0.3
		c-0.2,0.1-0.5,0.1-0.7,0.2c-0.2,0-0.4,0-0.6,0c-0.5,0-0.9-0.1-1.3-0.2c-0.4-0.1-0.7-0.3-1-0.5c-0.3-0.2-0.6-0.5-0.8-0.7
		c-0.2-0.3-0.4-0.6-0.6-0.9c-0.2-0.5-0.4-1-0.6-1.8C553.7,53.2,553.6,52.2,553.6,50.9z M555.5,50.8c0,0.8,0,1.5,0.1,2.2
		c0.1,0.7,0.2,1.2,0.4,1.7c0.2,0.5,0.5,0.9,0.8,1.2c0.3,0.3,0.8,0.4,1.3,0.4c0.6,0,1-0.2,1.4-0.5c0.4-0.3,0.6-0.8,0.8-1.3
		s0.3-1.1,0.4-1.8c0.1-0.6,0.1-1.3,0.1-1.9c0-0.8,0-1.6-0.1-2.3s-0.2-1.3-0.4-1.8s-0.5-0.9-0.8-1.2c-0.3-0.3-0.8-0.4-1.3-0.4
		c-0.6,0-1.1,0.2-1.5,0.5c-0.4,0.4-0.6,0.8-0.8,1.4c-0.2,0.5-0.3,1.2-0.4,1.8C555.5,49.6,555.5,50.2,555.5,50.8z"/>
	<path d="M564.7,50.9c0-0.3,0-0.8,0-1.3s0.1-1,0.2-1.6c0.1-0.5,0.2-1.1,0.4-1.6s0.5-1,0.8-1.5c0.3-0.4,0.8-0.8,1.3-1
		c0.5-0.3,1.1-0.4,1.9-0.4c0.7,0,1.3,0.1,1.8,0.3c0.5,0.2,0.9,0.5,1.3,0.9c0.3,0.4,0.6,0.8,0.8,1.3c0.2,0.5,0.4,1,0.5,1.5
		c0.1,0.5,0.2,1,0.2,1.6c0,0.5,0.1,1,0.1,1.4c0,1.6-0.2,3-0.5,3.9c-0.3,1-0.8,1.8-1.4,2.4c-0.2,0.2-0.5,0.4-0.8,0.5
		c-0.3,0.1-0.5,0.2-0.8,0.3c-0.2,0.1-0.5,0.1-0.7,0.2c-0.2,0-0.4,0-0.6,0c-0.5,0-0.9-0.1-1.3-0.2c-0.4-0.1-0.7-0.3-1-0.5
		c-0.3-0.2-0.6-0.5-0.8-0.7c-0.2-0.3-0.4-0.6-0.6-0.9c-0.2-0.5-0.4-1-0.6-1.8S564.7,52.2,564.7,50.9z M566.6,50.8
		c0,0.8,0,1.5,0.1,2.2c0.1,0.7,0.2,1.2,0.4,1.7s0.5,0.9,0.8,1.2c0.3,0.3,0.8,0.4,1.3,0.4c0.6,0,1-0.2,1.4-0.5
		c0.4-0.3,0.6-0.8,0.8-1.3s0.3-1.1,0.4-1.8c0.1-0.6,0.1-1.3,0.1-1.9c0-0.8,0-1.6-0.1-2.3s-0.2-1.3-0.4-1.8c-0.2-0.5-0.5-0.9-0.8-1.2
		c-0.3-0.3-0.8-0.4-1.3-0.4c-0.6,0-1.1,0.2-1.5,0.5c-0.4,0.4-0.6,0.8-0.8,1.4s-0.3,1.2-0.4,1.8C566.6,49.6,566.6,50.2,566.6,50.8z"
		/>
</g>
<g class="st1">
	<path d="M589.7,54.4c0,0.3,0.1,0.6,0.2,0.9c0.1,0.2,0.3,0.4,0.5,0.6c0.2,0.2,0.5,0.3,0.7,0.4s0.5,0.1,0.8,0.1
		c0.6,0,1.1-0.1,1.5-0.4c0.4-0.2,0.6-0.5,0.8-0.9s0.3-0.7,0.4-1c0.1-0.4,0.1-0.7,0.1-0.9c0-0.9-0.2-1.7-0.7-2.2
		c-0.5-0.5-1.1-0.8-1.9-0.8c-0.4,0-0.8,0.1-1.1,0.2c-0.3,0.1-0.6,0.3-0.8,0.5c-0.2,0.2-0.4,0.4-0.4,0.6c-0.1,0.2-0.1,0.4-0.2,0.5
		h-1.8l0.4-8.2h7.8v1.6h-6.1l-0.3,4.5c0.1-0.1,0.2-0.2,0.4-0.4c0.2-0.1,0.4-0.3,0.6-0.4c0.2-0.1,0.5-0.2,0.8-0.3
		c0.3-0.1,0.7-0.1,1.1-0.1c0.7,0,1.3,0.1,1.8,0.4c0.5,0.3,1,0.6,1.3,1s0.6,0.9,0.8,1.5c0.2,0.5,0.3,1.1,0.3,1.7
		c0,0.7-0.1,1.3-0.4,1.9s-0.6,1.1-1,1.5s-0.9,0.8-1.5,1s-1.3,0.4-2,0.4c-0.6,0-1.1-0.1-1.6-0.2c-0.5-0.2-0.9-0.4-1.3-0.7
		s-0.7-0.7-0.9-1.1s-0.3-1-0.4-1.6H589.7z"/>
	<path d="M598.5,50.9c0-0.3,0-0.8,0-1.3c0-0.5,0.1-1,0.2-1.6c0.1-0.5,0.2-1.1,0.4-1.6s0.5-1,0.8-1.5s0.8-0.8,1.3-1
		c0.5-0.3,1.1-0.4,1.9-0.4c0.7,0,1.3,0.1,1.8,0.3c0.5,0.2,0.9,0.5,1.3,0.9c0.3,0.4,0.6,0.8,0.8,1.3c0.2,0.5,0.4,1,0.5,1.5
		c0.1,0.5,0.2,1,0.2,1.6s0.1,1,0.1,1.4c0,1.6-0.2,3-0.5,3.9c-0.3,1-0.8,1.8-1.4,2.4c-0.2,0.2-0.5,0.4-0.8,0.5
		c-0.3,0.1-0.5,0.2-0.8,0.3c-0.2,0.1-0.5,0.1-0.7,0.2c-0.2,0-0.4,0-0.6,0c-0.5,0-0.9-0.1-1.3-0.2c-0.4-0.1-0.7-0.3-1-0.5
		c-0.3-0.2-0.6-0.5-0.8-0.7c-0.2-0.3-0.4-0.6-0.6-0.9c-0.2-0.5-0.4-1-0.6-1.8S598.5,52.2,598.5,50.9z M600.4,50.8
		c0,0.8,0,1.5,0.1,2.2c0.1,0.7,0.2,1.2,0.4,1.7s0.5,0.9,0.8,1.2s0.8,0.4,1.3,0.4c0.6,0,1-0.2,1.4-0.5c0.4-0.3,0.6-0.8,0.8-1.3
		s0.3-1.1,0.4-1.8c0.1-0.6,0.1-1.3,0.1-1.9c0-0.8,0-1.6-0.1-2.3s-0.2-1.3-0.4-1.8s-0.5-0.9-0.8-1.2c-0.3-0.3-0.8-0.4-1.3-0.4
		c-0.6,0-1.1,0.2-1.5,0.5c-0.4,0.4-0.6,0.8-0.8,1.4c-0.2,0.5-0.3,1.2-0.4,1.8C600.4,49.6,600.4,50.2,600.4,50.8z"/>
	<path d="M609.6,50.9c0-0.3,0-0.8,0-1.3c0-0.5,0.1-1,0.2-1.6c0.1-0.5,0.2-1.1,0.4-1.6s0.5-1,0.8-1.5s0.8-0.8,1.3-1
		c0.5-0.3,1.1-0.4,1.9-0.4c0.7,0,1.3,0.1,1.8,0.3c0.5,0.2,0.9,0.5,1.3,0.9c0.3,0.4,0.6,0.8,0.8,1.3c0.2,0.5,0.4,1,0.5,1.5
		c0.1,0.5,0.2,1,0.2,1.6s0.1,1,0.1,1.4c0,1.6-0.2,3-0.5,3.9c-0.3,1-0.8,1.8-1.4,2.4c-0.2,0.2-0.5,0.4-0.8,0.5
		c-0.3,0.1-0.5,0.2-0.8,0.3c-0.2,0.1-0.5,0.1-0.7,0.2c-0.2,0-0.4,0-0.6,0c-0.5,0-0.9-0.1-1.3-0.2c-0.4-0.1-0.7-0.3-1-0.5
		c-0.3-0.2-0.6-0.5-0.8-0.7c-0.2-0.3-0.4-0.6-0.6-0.9c-0.2-0.5-0.4-1-0.6-1.8S609.6,52.2,609.6,50.9z M611.5,50.8
		c0,0.8,0,1.5,0.1,2.2c0.1,0.7,0.2,1.2,0.4,1.7s0.5,0.9,0.8,1.2s0.8,0.4,1.3,0.4c0.6,0,1-0.2,1.4-0.5c0.4-0.3,0.6-0.8,0.8-1.3
		s0.3-1.1,0.4-1.8c0.1-0.6,0.1-1.3,0.1-1.9c0-0.8,0-1.6-0.1-2.3s-0.2-1.3-0.4-1.8s-0.5-0.9-0.8-1.2c-0.3-0.3-0.8-0.4-1.3-0.4
		c-0.6,0-1.1,0.2-1.5,0.5c-0.4,0.4-0.6,0.8-0.8,1.4c-0.2,0.5-0.3,1.2-0.4,1.8C611.5,49.6,611.5,50.2,611.5,50.8z"/>
	<path d="M620.7,50.9c0-0.3,0-0.8,0-1.3c0-0.5,0.1-1,0.2-1.6c0.1-0.5,0.2-1.1,0.4-1.6s0.5-1,0.8-1.5s0.8-0.8,1.3-1
		c0.5-0.3,1.1-0.4,1.9-0.4c0.7,0,1.3,0.1,1.8,0.3c0.5,0.2,0.9,0.5,1.3,0.9s0.6,0.8,0.8,1.3c0.2,0.5,0.4,1,0.5,1.5
		c0.1,0.5,0.2,1,0.2,1.6s0.1,1,0.1,1.4c0,1.6-0.2,3-0.5,3.9c-0.3,1-0.8,1.8-1.4,2.4c-0.2,0.2-0.5,0.4-0.8,0.5
		c-0.3,0.1-0.5,0.2-0.8,0.3s-0.5,0.1-0.7,0.2c-0.2,0-0.4,0-0.6,0c-0.5,0-0.9-0.1-1.3-0.2c-0.4-0.1-0.7-0.3-1-0.5
		c-0.3-0.2-0.6-0.5-0.8-0.7c-0.2-0.3-0.4-0.6-0.6-0.9c-0.2-0.5-0.4-1-0.6-1.8C620.8,53.2,620.7,52.2,620.7,50.9z M622.6,50.8
		c0,0.8,0,1.5,0.1,2.2c0.1,0.7,0.2,1.2,0.4,1.7c0.2,0.5,0.5,0.9,0.8,1.2c0.3,0.3,0.8,0.4,1.3,0.4c0.6,0,1-0.2,1.4-0.5
		c0.4-0.3,0.6-0.8,0.8-1.3s0.3-1.1,0.4-1.8c0.1-0.6,0.1-1.3,0.1-1.9c0-0.8,0-1.6-0.1-2.3s-0.2-1.3-0.4-1.8c-0.2-0.5-0.5-0.9-0.8-1.2
		c-0.3-0.3-0.8-0.4-1.3-0.4c-0.6,0-1.1,0.2-1.5,0.5c-0.4,0.4-0.6,0.8-0.8,1.4s-0.3,1.2-0.4,1.8C622.7,49.6,622.6,50.2,622.6,50.8z"
		/>
</g>
<g class="st1">
	<path d="M647.6,47.1c0-0.4-0.1-0.7-0.2-1c-0.1-0.3-0.3-0.5-0.5-0.6s-0.4-0.3-0.7-0.3c-0.2-0.1-0.5-0.1-0.7-0.1
		c-1,0-1.7,0.4-2.2,1.3c-0.5,0.9-0.8,2.2-0.8,4.1c0.1-0.2,0.2-0.3,0.4-0.5c0.2-0.2,0.4-0.4,0.6-0.6s0.6-0.3,0.9-0.5s0.8-0.2,1.3-0.2
		c0.6,0,1.1,0.1,1.6,0.3c0.5,0.2,1,0.5,1.3,0.8c0.4,0.4,0.7,0.8,0.9,1.4c0.2,0.6,0.3,1.2,0.3,1.9c0,0.8-0.1,1.5-0.4,2.1
		c-0.3,0.6-0.6,1.1-1,1.5c-0.4,0.4-0.9,0.7-1.5,0.9c-0.6,0.2-1.1,0.3-1.7,0.3c-0.7,0-1.3-0.1-1.9-0.4s-1.1-0.6-1.5-1.1
		c-0.3-0.3-0.5-0.7-0.6-1.1c-0.2-0.4-0.3-0.8-0.4-1.3c-0.1-0.4-0.2-0.9-0.2-1.4s0-0.9,0-1.3c0-0.5,0-1,0.1-1.6
		c0.1-0.6,0.1-1.2,0.3-1.7c0.1-0.6,0.3-1.1,0.6-1.7s0.5-1,0.9-1.4s0.8-0.7,1.4-1c0.5-0.2,1.2-0.4,1.9-0.4c0.5,0,0.9,0,1.2,0.1
		c0.4,0.1,0.7,0.2,0.9,0.3c0.3,0.1,0.5,0.3,0.7,0.4c0.2,0.2,0.3,0.3,0.5,0.4c0.2,0.2,0.3,0.4,0.4,0.6c0.1,0.2,0.2,0.4,0.2,0.6
		c0,0.2,0.1,0.4,0.1,0.6c0,0.2,0,0.3,0,0.5H647.6z M645.2,56.5c0.3,0,0.6-0.1,0.9-0.2c0.3-0.1,0.6-0.3,0.9-0.6
		c0.3-0.3,0.5-0.6,0.6-1c0.2-0.4,0.2-0.9,0.2-1.4c0-0.2,0-0.5-0.1-0.9c-0.1-0.4-0.2-0.7-0.3-1c-0.2-0.3-0.4-0.6-0.8-0.8
		s-0.8-0.3-1.4-0.3c-0.5,0-0.9,0.1-1.2,0.3c-0.3,0.2-0.6,0.4-0.9,0.7c-0.2,0.3-0.4,0.6-0.5,1c-0.1,0.4-0.2,0.8-0.2,1.2
		c0,0.5,0.1,0.9,0.2,1.2c0.1,0.4,0.3,0.7,0.5,1c0.2,0.3,0.5,0.5,0.8,0.6C644.5,56.4,644.9,56.5,645.2,56.5z"/>
	<path d="M651.5,50.9c0-0.3,0-0.8,0-1.3c0-0.5,0.1-1,0.2-1.6c0.1-0.5,0.2-1.1,0.4-1.6s0.5-1,0.8-1.5s0.8-0.8,1.3-1
		c0.5-0.3,1.1-0.4,1.9-0.4c0.7,0,1.3,0.1,1.8,0.3c0.5,0.2,0.9,0.5,1.3,0.9c0.3,0.4,0.6,0.8,0.8,1.3c0.2,0.5,0.4,1,0.5,1.5
		c0.1,0.5,0.2,1,0.2,1.6s0.1,1,0.1,1.4c0,1.6-0.2,3-0.5,3.9c-0.3,1-0.8,1.8-1.4,2.4c-0.2,0.2-0.5,0.4-0.8,0.5
		c-0.3,0.1-0.5,0.2-0.8,0.3c-0.2,0.1-0.5,0.1-0.7,0.2c-0.2,0-0.4,0-0.6,0c-0.5,0-0.9-0.1-1.3-0.2c-0.4-0.1-0.7-0.3-1-0.5
		c-0.3-0.2-0.6-0.5-0.8-0.7c-0.2-0.3-0.4-0.6-0.6-0.9c-0.2-0.5-0.4-1-0.6-1.8S651.5,52.2,651.5,50.9z M653.4,50.8
		c0,0.8,0,1.5,0.1,2.2c0.1,0.7,0.2,1.2,0.4,1.7s0.5,0.9,0.8,1.2s0.8,0.4,1.3,0.4c0.6,0,1-0.2,1.4-0.5c0.4-0.3,0.6-0.8,0.8-1.3
		s0.3-1.1,0.4-1.8c0.1-0.6,0.1-1.3,0.1-1.9c0-0.8,0-1.6-0.1-2.3s-0.2-1.3-0.4-1.8s-0.5-0.9-0.8-1.2c-0.3-0.3-0.8-0.4-1.3-0.4
		c-0.6,0-1.1,0.2-1.5,0.5c-0.4,0.4-0.6,0.8-0.8,1.4c-0.2,0.5-0.3,1.2-0.4,1.8C653.4,49.6,653.4,50.2,653.4,50.8z"/>
	<path d="M662.6,50.9c0-0.3,0-0.8,0-1.3c0-0.5,0.1-1,0.2-1.6c0.1-0.5,0.2-1.1,0.4-1.6s0.5-1,0.8-1.5s0.8-0.8,1.3-1
		c0.5-0.3,1.1-0.4,1.9-0.4c0.7,0,1.3,0.1,1.8,0.3c0.5,0.2,0.9,0.5,1.3,0.9c0.3,0.4,0.6,0.8,0.8,1.3c0.2,0.5,0.4,1,0.5,1.5
		c0.1,0.5,0.2,1,0.2,1.6s0.1,1,0.1,1.4c0,1.6-0.2,3-0.5,3.9c-0.3,1-0.8,1.8-1.4,2.4c-0.2,0.2-0.5,0.4-0.8,0.5
		c-0.3,0.1-0.5,0.2-0.8,0.3c-0.2,0.1-0.5,0.1-0.7,0.2c-0.2,0-0.4,0-0.6,0c-0.5,0-0.9-0.1-1.3-0.2c-0.4-0.1-0.7-0.3-1-0.5
		c-0.3-0.2-0.6-0.5-0.8-0.7c-0.2-0.3-0.4-0.6-0.6-0.9c-0.2-0.5-0.4-1-0.6-1.8S662.6,52.2,662.6,50.9z M664.5,50.8
		c0,0.8,0,1.5,0.1,2.2c0.1,0.7,0.2,1.2,0.4,1.7s0.5,0.9,0.8,1.2s0.8,0.4,1.3,0.4c0.6,0,1-0.2,1.4-0.5c0.4-0.3,0.6-0.8,0.8-1.3
		s0.3-1.1,0.4-1.8c0.1-0.6,0.1-1.3,0.1-1.9c0-0.8,0-1.6-0.1-2.3s-0.2-1.3-0.4-1.8s-0.5-0.9-0.8-1.2c-0.3-0.3-0.8-0.4-1.3-0.4
		c-0.6,0-1.1,0.2-1.5,0.5c-0.4,0.4-0.6,0.8-0.8,1.4c-0.2,0.5-0.3,1.2-0.4,1.8C664.5,49.6,664.5,50.2,664.5,50.8z"/>
	<path d="M673.7,50.9c0-0.3,0-0.8,0-1.3c0-0.5,0.1-1,0.2-1.6c0.1-0.5,0.2-1.1,0.4-1.6s0.5-1,0.8-1.5s0.8-0.8,1.3-1
		c0.5-0.3,1.1-0.4,1.9-0.4c0.7,0,1.3,0.1,1.8,0.3c0.5,0.2,0.9,0.5,1.3,0.9s0.6,0.8,0.8,1.3c0.2,0.5,0.4,1,0.5,1.5
		c0.1,0.5,0.2,1,0.2,1.6s0.1,1,0.1,1.4c0,1.6-0.2,3-0.5,3.9c-0.3,1-0.8,1.8-1.4,2.4c-0.2,0.2-0.5,0.4-0.8,0.5
		c-0.3,0.1-0.5,0.2-0.8,0.3s-0.5,0.1-0.7,0.2c-0.2,0-0.4,0-0.6,0c-0.5,0-0.9-0.1-1.3-0.2c-0.4-0.1-0.7-0.3-1-0.5
		c-0.3-0.2-0.6-0.5-0.8-0.7c-0.2-0.3-0.4-0.6-0.6-0.9c-0.2-0.5-0.4-1-0.6-1.8C673.8,53.2,673.7,52.2,673.7,50.9z M675.6,50.8
		c0,0.8,0,1.5,0.1,2.2c0.1,0.7,0.2,1.2,0.4,1.7c0.2,0.5,0.5,0.9,0.8,1.2c0.3,0.3,0.8,0.4,1.3,0.4c0.6,0,1-0.2,1.4-0.5
		c0.4-0.3,0.6-0.8,0.8-1.3s0.3-1.1,0.4-1.8c0.1-0.6,0.1-1.3,0.1-1.9c0-0.8,0-1.6-0.1-2.3s-0.2-1.3-0.4-1.8c-0.2-0.5-0.5-0.9-0.8-1.2
		c-0.3-0.3-0.8-0.4-1.3-0.4c-0.6,0-1.1,0.2-1.5,0.5c-0.4,0.4-0.6,0.8-0.8,1.4s-0.3,1.2-0.4,1.8C675.7,49.6,675.6,50.2,675.6,50.8z"
		/>
</g>
<g class="st1">
	<path d="M740.8,113.1h2.1l5.8,14.4h-2.2l-1.6-3.8h-6.7l-1.6,3.8h-2.1L740.8,113.1z M739,122.2h5.5l-2.7-7.1L739,122.2z"/>
	<path d="M752.6,128.3c0,0.3,0.1,0.5,0.1,0.8c0.1,0.2,0.2,0.4,0.4,0.6c0.2,0.2,0.4,0.3,0.7,0.4c0.3,0.1,0.7,0.2,1.1,0.2
		c0.7,0,1.2-0.1,1.5-0.3c0.4-0.2,0.6-0.5,0.8-1c0.2-0.4,0.3-0.9,0.3-1.5s0.1-1.2,0.1-1.9c-0.2,0.4-0.5,0.7-0.8,1s-0.6,0.4-1,0.5
		c-0.3,0.1-0.6,0.2-0.9,0.2c-0.3,0-0.5,0-0.7,0c-0.2,0-0.5,0-0.8-0.1c-0.3,0-0.5-0.1-0.8-0.2c-0.3-0.1-0.5-0.2-0.8-0.4
		c-0.3-0.2-0.5-0.4-0.7-0.6c-0.4-0.5-0.7-1.1-0.9-1.7c-0.2-0.6-0.2-1.3-0.2-2c0-0.9,0.1-1.6,0.4-2.2c0.2-0.6,0.6-1.2,1-1.6
		s0.9-0.7,1.4-0.9c0.5-0.2,1.1-0.3,1.7-0.3c0.5,0,0.9,0.1,1.3,0.2c0.4,0.1,0.7,0.2,0.9,0.4c0.2,0.2,0.4,0.3,0.6,0.5
		c0.1,0.2,0.3,0.3,0.4,0.5l0-1.4h1.8l0,1.8l0,6.3c0,0.6,0,1.1,0,1.6c0,0.4,0,0.8-0.1,1.1c0,0.3-0.1,0.6-0.1,0.8
		c-0.1,0.2-0.1,0.4-0.2,0.6c-0.2,0.4-0.5,0.7-0.8,1c-0.3,0.2-0.7,0.4-1.1,0.5c-0.4,0.1-0.8,0.2-1.2,0.2c-0.4,0-0.8,0.1-1.1,0.1
		c-0.7,0-1.2,0-1.7-0.1c-0.5-0.1-0.9-0.2-1.2-0.4c-0.3-0.2-0.5-0.4-0.7-0.6c-0.2-0.2-0.3-0.5-0.4-0.7c-0.1-0.2-0.2-0.5-0.2-0.7
		c0-0.2,0-0.5-0.1-0.7H752.6z M754.8,126c0.6,0,1-0.1,1.3-0.3c0.3-0.2,0.6-0.4,0.8-0.7c0.1-0.1,0.2-0.3,0.3-0.4s0.2-0.3,0.2-0.5
		c0.1-0.2,0.1-0.5,0.1-0.8c0-0.3,0-0.7,0-1.1c0-0.6-0.1-1.2-0.2-1.5s-0.3-0.7-0.6-1s-0.6-0.5-0.9-0.6c-0.4-0.2-0.8-0.2-1.2-0.2
		c-0.6,0-1.1,0.1-1.4,0.4c-0.4,0.3-0.6,0.6-0.8,1c-0.2,0.4-0.3,0.8-0.4,1.2c-0.1,0.4-0.1,0.8-0.1,1.1c0,0.4,0,0.8,0.1,1.2
		s0.2,0.8,0.4,1.2s0.5,0.6,0.8,0.9C753.7,125.8,754.2,126,754.8,126z"/>
	<path d="M764.1,122.9c0,0.5,0,1,0.1,1.4c0.1,0.4,0.3,0.8,0.5,1.2c0.2,0.3,0.5,0.6,0.9,0.8s0.8,0.3,1.3,0.3c0.6,0,1.1-0.2,1.6-0.5
		c0.4-0.3,0.7-0.9,0.8-1.6h1.9c0,0.3-0.1,0.6-0.2,0.9c-0.1,0.4-0.3,0.8-0.7,1.2c-0.1,0.1-0.3,0.3-0.4,0.4s-0.4,0.3-0.7,0.4
		c-0.3,0.1-0.6,0.2-1,0.3c-0.4,0.1-0.8,0.1-1.3,0.1c-1.6,0-2.8-0.5-3.5-1.4s-1.1-2.2-1.1-3.8c0-1,0.1-1.9,0.4-2.7
		c0.3-0.8,0.8-1.5,1.6-2c0.2-0.2,0.5-0.3,0.8-0.4c0.3-0.1,0.5-0.2,0.8-0.2c0.2-0.1,0.5-0.1,0.7-0.1c0.2,0,0.4,0,0.5,0
		c0.7,0,1.4,0.1,1.9,0.3s0.9,0.5,1.2,0.8c0.3,0.3,0.6,0.7,0.7,1.1c0.2,0.4,0.3,0.8,0.4,1.2c0.1,0.4,0.1,0.8,0.1,1.2s0,0.7,0,1H764.1
		z M769.4,121.5c0-0.2,0-0.5-0.1-0.9s-0.1-0.7-0.3-1c-0.2-0.3-0.4-0.6-0.8-0.8c-0.3-0.2-0.8-0.3-1.4-0.3c-0.3,0-0.6,0-0.9,0.2
		c-0.3,0.1-0.6,0.3-0.9,0.5c-0.3,0.2-0.5,0.5-0.7,0.9c-0.2,0.4-0.3,0.8-0.3,1.4H769.4z"/>
	<path d="M778.9,125.7l3.6-3.6c0.4-0.4,0.8-0.8,1.1-1.2c0.4-0.4,0.7-0.8,1-1.2c0.4-0.5,0.7-1,0.8-1.4c0.1-0.4,0.2-0.7,0.2-1.1
		c0-0.2,0-0.4-0.1-0.6c0-0.3-0.1-0.5-0.3-0.7c-0.2-0.2-0.4-0.4-0.7-0.6c-0.3-0.2-0.7-0.3-1.2-0.3c-0.6,0-1,0.1-1.3,0.3
		s-0.5,0.4-0.7,0.7s-0.2,0.5-0.3,0.8s0,0.5,0,0.6h-2.1c0-0.2,0-0.4,0-0.6c0-0.2,0.1-0.5,0.2-0.8c0.1-0.3,0.2-0.5,0.4-0.8
		c0.2-0.3,0.4-0.6,0.7-0.8c0.5-0.4,1-0.7,1.5-0.8c0.5-0.1,1-0.2,1.5-0.2c0.5,0,1.1,0.1,1.6,0.2s1,0.4,1.4,0.7c0.4,0.3,0.7,0.7,1,1.2
		c0.2,0.5,0.4,1.1,0.4,1.9c0,0.2,0,0.4,0,0.6c0,0.2-0.1,0.4-0.2,0.7s-0.3,0.6-0.5,0.9c-0.2,0.3-0.5,0.7-0.9,1.2
		c-0.1,0.1-0.3,0.3-0.5,0.6c-0.2,0.3-0.5,0.5-0.8,0.8s-0.5,0.5-0.8,0.8c-0.2,0.3-0.4,0.4-0.5,0.5l-2.4,2.3h6.6v1.6h-8.8V125.7z"/>
	<path d="M789.9,120.8c0-0.3,0-0.8,0-1.3c0-0.5,0.1-1,0.2-1.6s0.2-1.1,0.4-1.6s0.5-1,0.8-1.5s0.8-0.8,1.3-1s1.1-0.4,1.9-0.4
		c0.7,0,1.3,0.1,1.8,0.3c0.5,0.2,0.9,0.5,1.3,0.9c0.3,0.4,0.6,0.8,0.8,1.3c0.2,0.5,0.4,1,0.5,1.5c0.1,0.5,0.2,1,0.2,1.6
		s0.1,1,0.1,1.4c0,1.6-0.2,3-0.5,3.9c-0.3,1-0.8,1.8-1.4,2.4c-0.2,0.2-0.5,0.4-0.8,0.5c-0.3,0.1-0.5,0.2-0.8,0.3
		c-0.2,0.1-0.5,0.1-0.7,0.2c-0.2,0-0.4,0-0.6,0c-0.5,0-0.9-0.1-1.3-0.2c-0.4-0.1-0.7-0.3-1-0.5c-0.3-0.2-0.6-0.5-0.8-0.7
		c-0.2-0.3-0.4-0.6-0.6-0.9c-0.2-0.5-0.4-1-0.6-1.8C790,123,789.9,122,789.9,120.8z M791.8,120.7c0,0.8,0,1.5,0.1,2.2
		c0.1,0.7,0.2,1.2,0.4,1.7c0.2,0.5,0.5,0.9,0.8,1.2c0.3,0.3,0.8,0.4,1.3,0.4c0.6,0,1-0.2,1.4-0.5c0.4-0.3,0.6-0.8,0.8-1.3
		s0.3-1.1,0.4-1.8c0.1-0.6,0.1-1.3,0.1-1.9c0-0.8,0-1.6-0.1-2.3s-0.2-1.3-0.4-1.8s-0.5-0.9-0.8-1.2c-0.3-0.3-0.8-0.4-1.3-0.4
		c-0.6,0-1.1,0.2-1.5,0.5c-0.4,0.4-0.6,0.8-0.8,1.4c-0.2,0.5-0.3,1.2-0.4,1.8C791.9,119.4,791.8,120.1,791.8,120.7z"/>
</g>
<g class="st1">
	<path d="M740.8,234.7h2.1l5.8,14.4h-2.2l-1.6-3.8h-6.7l-1.6,3.8h-2.1L740.8,234.7z M739,243.8h5.5l-2.7-7.1L739,243.8z"/>
	<path d="M752.6,249.9c0,0.3,0.1,0.5,0.1,0.8c0.1,0.2,0.2,0.4,0.4,0.6c0.2,0.2,0.4,0.3,0.7,0.4c0.3,0.1,0.7,0.2,1.1,0.2
		c0.7,0,1.2-0.1,1.5-0.3c0.4-0.2,0.6-0.5,0.8-1c0.2-0.4,0.3-0.9,0.3-1.5s0.1-1.2,0.1-1.9c-0.2,0.4-0.5,0.7-0.8,1s-0.6,0.4-1,0.5
		c-0.3,0.1-0.6,0.2-0.9,0.2c-0.3,0-0.5,0-0.7,0c-0.2,0-0.5,0-0.8-0.1c-0.3,0-0.5-0.1-0.8-0.2c-0.3-0.1-0.5-0.2-0.8-0.4
		c-0.3-0.2-0.5-0.4-0.7-0.6c-0.4-0.5-0.7-1.1-0.9-1.7c-0.2-0.6-0.2-1.3-0.2-2c0-0.9,0.1-1.6,0.4-2.2c0.2-0.6,0.6-1.2,1-1.6
		s0.9-0.7,1.4-0.9c0.5-0.2,1.1-0.3,1.7-0.3c0.5,0,0.9,0.1,1.3,0.2c0.4,0.1,0.7,0.2,0.9,0.4c0.2,0.2,0.4,0.3,0.6,0.5
		c0.1,0.2,0.3,0.3,0.4,0.5l0-1.4h1.8l0,1.8l0,6.3c0,0.6,0,1.1,0,1.6c0,0.4,0,0.8-0.1,1.1c0,0.3-0.1,0.6-0.1,0.8
		c-0.1,0.2-0.1,0.4-0.2,0.6c-0.2,0.4-0.5,0.7-0.8,1c-0.3,0.2-0.7,0.4-1.1,0.5c-0.4,0.1-0.8,0.2-1.2,0.2c-0.4,0-0.8,0.1-1.1,0.1
		c-0.7,0-1.2,0-1.7-0.1c-0.5-0.1-0.9-0.2-1.2-0.4c-0.3-0.2-0.5-0.4-0.7-0.6c-0.2-0.2-0.3-0.5-0.4-0.7c-0.1-0.2-0.2-0.5-0.2-0.7
		c0-0.2,0-0.5-0.1-0.7H752.6z M754.8,247.6c0.6,0,1-0.1,1.3-0.3c0.3-0.2,0.6-0.4,0.8-0.7c0.1-0.1,0.2-0.3,0.3-0.4s0.2-0.3,0.2-0.5
		c0.1-0.2,0.1-0.5,0.1-0.8c0-0.3,0-0.7,0-1.1c0-0.6-0.1-1.2-0.2-1.5s-0.3-0.7-0.6-1s-0.6-0.5-0.9-0.6c-0.4-0.2-0.8-0.2-1.2-0.2
		c-0.6,0-1.1,0.1-1.4,0.4c-0.4,0.3-0.6,0.6-0.8,1c-0.2,0.4-0.3,0.8-0.4,1.2c-0.1,0.4-0.1,0.8-0.1,1.1c0,0.4,0,0.8,0.1,1.2
		s0.2,0.8,0.4,1.2s0.5,0.6,0.8,0.9C753.7,247.5,754.2,247.6,754.8,247.6z"/>
	<path d="M764.1,244.5c0,0.5,0,1,0.1,1.4c0.1,0.4,0.3,0.8,0.5,1.2c0.2,0.3,0.5,0.6,0.9,0.8s0.8,0.3,1.3,0.3c0.6,0,1.1-0.2,1.6-0.5
		c0.4-0.3,0.7-0.9,0.8-1.6h1.9c0,0.3-0.1,0.6-0.2,0.9c-0.1,0.4-0.3,0.8-0.7,1.2c-0.1,0.1-0.3,0.3-0.4,0.4s-0.4,0.3-0.7,0.4
		c-0.3,0.1-0.6,0.2-1,0.3c-0.4,0.1-0.8,0.1-1.3,0.1c-1.6,0-2.8-0.5-3.5-1.4s-1.1-2.2-1.1-3.8c0-1,0.1-1.9,0.4-2.7
		c0.3-0.8,0.8-1.5,1.6-2c0.2-0.2,0.5-0.3,0.8-0.4c0.3-0.1,0.5-0.2,0.8-0.2c0.2-0.1,0.5-0.1,0.7-0.1c0.2,0,0.4,0,0.5,0
		c0.7,0,1.4,0.1,1.9,0.3s0.9,0.5,1.2,0.8c0.3,0.3,0.6,0.7,0.7,1.1c0.2,0.4,0.3,0.8,0.4,1.2c0.1,0.4,0.1,0.8,0.1,1.2s0,0.7,0,1H764.1
		z M769.4,243.1c0-0.2,0-0.5-0.1-0.9s-0.1-0.7-0.3-1c-0.2-0.3-0.4-0.6-0.8-0.8c-0.3-0.2-0.8-0.3-1.4-0.3c-0.3,0-0.6,0-0.9,0.2
		c-0.3,0.1-0.6,0.3-0.9,0.5c-0.3,0.2-0.5,0.5-0.7,0.9c-0.2,0.4-0.3,0.8-0.3,1.4H769.4z"/>
	<path d="M781.1,245.9c0,0.3,0.1,0.6,0.2,0.9c0.1,0.2,0.3,0.4,0.5,0.6s0.5,0.3,0.7,0.4c0.3,0.1,0.5,0.1,0.8,0.1
		c0.6,0,1.1-0.1,1.4-0.4c0.4-0.2,0.6-0.5,0.8-0.9c0.2-0.3,0.3-0.7,0.4-1s0.1-0.7,0.1-0.9c0-0.9-0.2-1.7-0.7-2.2
		c-0.5-0.5-1.1-0.8-1.9-0.8c-0.4,0-0.8,0.1-1.1,0.2c-0.3,0.1-0.6,0.3-0.8,0.5c-0.2,0.2-0.4,0.4-0.4,0.6c-0.1,0.2-0.1,0.4-0.2,0.5
		h-1.8l0.4-8.2h7.8v1.6h-6.1l-0.3,4.5c0.1-0.1,0.2-0.2,0.4-0.4c0.2-0.1,0.4-0.3,0.6-0.4c0.2-0.1,0.5-0.2,0.8-0.3
		c0.3-0.1,0.7-0.1,1.1-0.1c0.7,0,1.3,0.1,1.8,0.4c0.5,0.3,1,0.6,1.3,1c0.3,0.4,0.6,0.9,0.8,1.5c0.2,0.5,0.3,1.1,0.3,1.7
		c0,0.7-0.1,1.3-0.3,1.9c-0.2,0.6-0.6,1.1-1,1.5c-0.4,0.4-0.9,0.8-1.6,1c-0.6,0.2-1.3,0.4-2,0.4c-0.6,0-1.1-0.1-1.6-0.2
		c-0.5-0.2-0.9-0.4-1.3-0.7s-0.7-0.7-0.9-1.1c-0.2-0.5-0.3-1-0.4-1.6H781.1z"/>
	<path d="M789.9,242.4c0-0.3,0-0.8,0-1.3c0-0.5,0.1-1,0.2-1.6s0.2-1.1,0.4-1.6s0.5-1,0.8-1.5s0.8-0.8,1.3-1s1.1-0.4,1.9-0.4
		c0.7,0,1.3,0.1,1.8,0.3c0.5,0.2,0.9,0.5,1.3,0.9c0.3,0.4,0.6,0.8,0.8,1.3c0.2,0.5,0.4,1,0.5,1.5c0.1,0.5,0.2,1,0.2,1.6
		s0.1,1,0.1,1.4c0,1.6-0.2,3-0.5,3.9c-0.3,1-0.8,1.8-1.4,2.4c-0.2,0.2-0.5,0.4-0.8,0.5c-0.3,0.1-0.5,0.2-0.8,0.3
		c-0.2,0.1-0.5,0.1-0.7,0.2c-0.2,0-0.4,0-0.6,0c-0.5,0-0.9-0.1-1.3-0.2c-0.4-0.1-0.7-0.3-1-0.5c-0.3-0.2-0.6-0.5-0.8-0.7
		c-0.2-0.3-0.4-0.6-0.6-0.9c-0.2-0.5-0.4-1-0.6-1.8C790,244.6,789.9,243.6,789.9,242.4z M791.8,242.3c0,0.8,0,1.5,0.1,2.2
		c0.1,0.7,0.2,1.2,0.4,1.7c0.2,0.5,0.5,0.9,0.8,1.2c0.3,0.3,0.8,0.4,1.3,0.4c0.6,0,1-0.2,1.4-0.5c0.4-0.3,0.6-0.8,0.8-1.3
		s0.3-1.1,0.4-1.8c0.1-0.6,0.1-1.3,0.1-1.9c0-0.8,0-1.6-0.1-2.3s-0.2-1.3-0.4-1.8s-0.5-0.9-0.8-1.2c-0.3-0.3-0.8-0.4-1.3-0.4
		c-0.6,0-1.1,0.2-1.5,0.5c-0.4,0.4-0.6,0.8-0.8,1.4c-0.2,0.5-0.3,1.2-0.4,1.8C791.9,241,791.8,241.7,791.8,242.3z"/>
</g>
<g class="st1">
	<path d="M740.8,289.8h2.1l5.8,14.4h-2.2l-1.6-3.8h-6.7l-1.6,3.8h-2.1L740.8,289.8z M739,298.9h5.5l-2.7-7.1L739,298.9z"/>
	<path d="M752.6,305.1c0,0.3,0.1,0.5,0.1,0.8c0.1,0.2,0.2,0.4,0.4,0.6c0.2,0.2,0.4,0.3,0.7,0.4c0.3,0.1,0.7,0.2,1.1,0.2
		c0.7,0,1.2-0.1,1.5-0.3c0.4-0.2,0.6-0.5,0.8-1c0.2-0.4,0.3-0.9,0.3-1.5s0.1-1.2,0.1-1.9c-0.2,0.4-0.5,0.7-0.8,1s-0.6,0.4-1,0.5
		c-0.3,0.1-0.6,0.2-0.9,0.2c-0.3,0-0.5,0-0.7,0c-0.2,0-0.5,0-0.8-0.1c-0.3,0-0.5-0.1-0.8-0.2c-0.3-0.1-0.5-0.2-0.8-0.4
		c-0.3-0.2-0.5-0.4-0.7-0.6c-0.4-0.5-0.7-1.1-0.9-1.7c-0.2-0.6-0.2-1.3-0.2-2c0-0.9,0.1-1.6,0.4-2.2c0.2-0.6,0.6-1.2,1-1.6
		s0.9-0.7,1.4-0.9c0.5-0.2,1.1-0.3,1.7-0.3c0.5,0,0.9,0.1,1.3,0.2c0.4,0.1,0.7,0.2,0.9,0.4c0.2,0.2,0.4,0.3,0.6,0.5
		c0.1,0.2,0.3,0.3,0.4,0.5l0-1.4h1.8l0,1.8l0,6.3c0,0.6,0,1.1,0,1.6c0,0.4,0,0.8-0.1,1.1c0,0.3-0.1,0.6-0.1,0.8
		c-0.1,0.2-0.1,0.4-0.2,0.6c-0.2,0.4-0.5,0.7-0.8,1c-0.3,0.2-0.7,0.4-1.1,0.5c-0.4,0.1-0.8,0.2-1.2,0.2c-0.4,0-0.8,0.1-1.1,0.1
		c-0.7,0-1.2,0-1.7-0.1c-0.5-0.1-0.9-0.2-1.2-0.4c-0.3-0.2-0.5-0.4-0.7-0.6c-0.2-0.2-0.3-0.5-0.4-0.7c-0.1-0.2-0.2-0.5-0.2-0.7
		c0-0.2,0-0.5-0.1-0.7H752.6z M754.8,302.7c0.6,0,1-0.1,1.3-0.3c0.3-0.2,0.6-0.4,0.8-0.7c0.1-0.1,0.2-0.3,0.3-0.4s0.2-0.3,0.2-0.5
		c0.1-0.2,0.1-0.5,0.1-0.8c0-0.3,0-0.7,0-1.1c0-0.6-0.1-1.2-0.2-1.5s-0.3-0.7-0.6-1s-0.6-0.5-0.9-0.6c-0.4-0.2-0.8-0.2-1.2-0.2
		c-0.6,0-1.1,0.1-1.4,0.4c-0.4,0.3-0.6,0.6-0.8,1c-0.2,0.4-0.3,0.8-0.4,1.2c-0.1,0.4-0.1,0.8-0.1,1.1c0,0.4,0,0.8,0.1,1.2
		s0.2,0.8,0.4,1.2s0.5,0.6,0.8,0.9C753.7,302.6,754.2,302.7,754.8,302.7z"/>
	<path d="M764.1,299.6c0,0.5,0,1,0.1,1.4c0.1,0.4,0.3,0.8,0.5,1.2c0.2,0.3,0.5,0.6,0.9,0.8s0.8,0.3,1.3,0.3c0.6,0,1.1-0.2,1.6-0.5
		c0.4-0.3,0.7-0.9,0.8-1.6h1.9c0,0.3-0.1,0.6-0.2,0.9c-0.1,0.4-0.3,0.8-0.7,1.2c-0.1,0.1-0.3,0.3-0.4,0.4s-0.4,0.3-0.7,0.4
		c-0.3,0.1-0.6,0.2-1,0.3c-0.4,0.1-0.8,0.1-1.3,0.1c-1.6,0-2.8-0.5-3.5-1.4s-1.1-2.2-1.1-3.8c0-1,0.1-1.9,0.4-2.7
		c0.3-0.8,0.8-1.5,1.6-2c0.2-0.2,0.5-0.3,0.8-0.4c0.3-0.1,0.5-0.2,0.8-0.2c0.2-0.1,0.5-0.1,0.7-0.1c0.2,0,0.4,0,0.5,0
		c0.7,0,1.4,0.1,1.9,0.3s0.9,0.5,1.2,0.8c0.3,0.3,0.6,0.7,0.7,1.1c0.2,0.4,0.3,0.8,0.4,1.2c0.1,0.4,0.1,0.8,0.1,1.2s0,0.7,0,1H764.1
		z M769.4,298.3c0-0.2,0-0.5-0.1-0.9s-0.1-0.7-0.3-1c-0.2-0.3-0.4-0.6-0.8-0.8c-0.3-0.2-0.8-0.3-1.4-0.3c-0.3,0-0.6,0-0.9,0.2
		c-0.3,0.1-0.6,0.3-0.9,0.5c-0.3,0.2-0.5,0.5-0.7,0.9c-0.2,0.4-0.3,0.8-0.3,1.4H769.4z"/>
	<path d="M786,293.7c0-0.4-0.1-0.7-0.2-1c-0.1-0.3-0.3-0.5-0.5-0.6c-0.2-0.2-0.4-0.3-0.7-0.3c-0.2-0.1-0.5-0.1-0.7-0.1
		c-1,0-1.7,0.4-2.2,1.3c-0.5,0.9-0.8,2.2-0.9,4.1c0.1-0.2,0.2-0.3,0.4-0.5c0.2-0.2,0.4-0.4,0.6-0.6c0.3-0.2,0.6-0.3,0.9-0.5
		c0.4-0.1,0.8-0.2,1.3-0.2c0.6,0,1.1,0.1,1.6,0.3c0.5,0.2,1,0.5,1.3,0.8c0.4,0.4,0.7,0.8,0.9,1.4c0.2,0.6,0.3,1.2,0.3,1.9
		c0,0.8-0.1,1.5-0.4,2.1s-0.6,1.1-1,1.5c-0.4,0.4-0.9,0.7-1.5,0.9s-1.1,0.3-1.7,0.3c-0.7,0-1.3-0.1-1.9-0.4s-1.1-0.6-1.5-1.1
		c-0.3-0.3-0.5-0.7-0.6-1.1c-0.2-0.4-0.3-0.8-0.4-1.3c-0.1-0.4-0.2-0.9-0.2-1.4s0-0.9,0-1.3c0-0.5,0-1,0.1-1.6
		c0.1-0.6,0.1-1.2,0.3-1.7c0.1-0.6,0.3-1.1,0.6-1.7s0.6-1,0.9-1.4c0.4-0.4,0.8-0.7,1.4-1c0.5-0.2,1.2-0.4,1.9-0.4
		c0.5,0,0.9,0,1.2,0.1c0.4,0.1,0.7,0.2,0.9,0.3c0.3,0.1,0.5,0.3,0.7,0.4c0.2,0.2,0.3,0.3,0.5,0.4c0.2,0.2,0.3,0.4,0.4,0.6
		c0.1,0.2,0.2,0.4,0.2,0.6c0,0.2,0.1,0.4,0.1,0.6c0,0.2,0,0.3,0,0.5H786z M783.7,303.1c0.3,0,0.6-0.1,0.9-0.2
		c0.3-0.1,0.6-0.3,0.9-0.6c0.3-0.3,0.5-0.6,0.6-1c0.2-0.4,0.2-0.9,0.2-1.4c0-0.2,0-0.5-0.1-0.9c-0.1-0.4-0.2-0.7-0.3-1
		c-0.2-0.3-0.4-0.6-0.8-0.8s-0.8-0.3-1.4-0.3c-0.5,0-0.9,0.1-1.2,0.3c-0.3,0.2-0.6,0.4-0.9,0.7c-0.2,0.3-0.4,0.6-0.5,1
		c-0.1,0.4-0.2,0.8-0.2,1.2c0,0.5,0.1,0.9,0.2,1.2s0.3,0.7,0.5,1c0.2,0.3,0.5,0.5,0.8,0.6C782.9,303,783.3,303.1,783.7,303.1z"/>
	<path d="M789.9,297.5c0-0.3,0-0.8,0-1.3c0-0.5,0.1-1,0.2-1.6s0.2-1.1,0.4-1.6s0.5-1,0.8-1.5s0.8-0.8,1.3-1s1.1-0.4,1.9-0.4
		c0.7,0,1.3,0.1,1.8,0.3c0.5,0.2,0.9,0.5,1.3,0.9c0.3,0.4,0.6,0.8,0.8,1.3c0.2,0.5,0.4,1,0.5,1.5c0.1,0.5,0.2,1,0.2,1.6
		s0.1,1,0.1,1.4c0,1.6-0.2,3-0.5,3.9c-0.3,1-0.8,1.8-1.4,2.4c-0.2,0.2-0.5,0.4-0.8,0.5c-0.3,0.1-0.5,0.2-0.8,0.3
		c-0.2,0.1-0.5,0.1-0.7,0.2c-0.2,0-0.4,0-0.6,0c-0.5,0-0.9-0.1-1.3-0.2c-0.4-0.1-0.7-0.3-1-0.5c-0.3-0.2-0.6-0.5-0.8-0.7
		c-0.2-0.3-0.4-0.6-0.6-0.9c-0.2-0.5-0.4-1-0.6-1.8C790,299.7,789.9,298.8,789.9,297.5z M791.8,297.4c0,0.8,0,1.5,0.1,2.2
		c0.1,0.7,0.2,1.2,0.4,1.7c0.2,0.5,0.5,0.9,0.8,1.2c0.3,0.3,0.8,0.4,1.3,0.4c0.6,0,1-0.2,1.4-0.5c0.4-0.3,0.6-0.8,0.8-1.3
		s0.3-1.1,0.4-1.8c0.1-0.6,0.1-1.3,0.1-1.9c0-0.8,0-1.6-0.1-2.3s-0.2-1.3-0.4-1.8s-0.5-0.9-0.8-1.2c-0.3-0.3-0.8-0.4-1.3-0.4
		c-0.6,0-1.1,0.2-1.5,0.5c-0.4,0.4-0.6,0.8-0.8,1.4c-0.2,0.5-0.3,1.2-0.4,1.8C791.9,296.2,791.8,296.8,791.8,297.4z"/>
</g>
<g class="st1">
	<path d="M740.8,387.2h2.1l5.8,14.4h-2.2l-1.6-3.8h-6.7l-1.6,3.8h-2.1L740.8,387.2z M739,396.3h5.5l-2.7-7.1L739,396.3z"/>
	<path d="M752.6,402.4c0,0.3,0.1,0.5,0.1,0.8c0.1,0.2,0.2,0.4,0.4,0.6c0.2,0.2,0.4,0.3,0.7,0.4c0.3,0.1,0.7,0.2,1.1,0.2
		c0.7,0,1.2-0.1,1.5-0.3c0.4-0.2,0.6-0.5,0.8-1c0.2-0.4,0.3-0.9,0.3-1.5s0.1-1.2,0.1-1.9c-0.2,0.4-0.5,0.7-0.8,1s-0.6,0.4-1,0.5
		c-0.3,0.1-0.6,0.2-0.9,0.2c-0.3,0-0.5,0-0.7,0c-0.2,0-0.5,0-0.8-0.1c-0.3,0-0.5-0.1-0.8-0.2c-0.3-0.1-0.5-0.2-0.8-0.4
		c-0.3-0.2-0.5-0.4-0.7-0.6c-0.4-0.5-0.7-1.1-0.9-1.7c-0.2-0.6-0.2-1.3-0.2-2c0-0.9,0.1-1.6,0.4-2.2c0.2-0.6,0.6-1.2,1-1.6
		s0.9-0.7,1.4-0.9c0.5-0.2,1.1-0.3,1.7-0.3c0.5,0,0.9,0.1,1.3,0.2c0.4,0.1,0.7,0.2,0.9,0.4c0.2,0.2,0.4,0.3,0.6,0.5
		c0.1,0.2,0.3,0.3,0.4,0.5l0-1.4h1.8l0,1.8l0,6.3c0,0.6,0,1.1,0,1.6c0,0.4,0,0.8-0.1,1.1c0,0.3-0.1,0.6-0.1,0.8
		c-0.1,0.2-0.1,0.4-0.2,0.6c-0.2,0.4-0.5,0.7-0.8,1c-0.3,0.2-0.7,0.4-1.1,0.5c-0.4,0.1-0.8,0.2-1.2,0.2c-0.4,0-0.8,0.1-1.1,0.1
		c-0.7,0-1.2,0-1.7-0.1c-0.5-0.1-0.9-0.2-1.2-0.4c-0.3-0.2-0.5-0.4-0.7-0.6c-0.2-0.2-0.3-0.5-0.4-0.7c-0.1-0.2-0.2-0.5-0.2-0.7
		c0-0.2,0-0.5-0.1-0.7H752.6z M754.8,400.1c0.6,0,1-0.1,1.3-0.3c0.3-0.2,0.6-0.4,0.8-0.7c0.1-0.1,0.2-0.3,0.3-0.4s0.2-0.3,0.2-0.5
		c0.1-0.2,0.1-0.5,0.1-0.8c0-0.3,0-0.7,0-1.1c0-0.6-0.1-1.2-0.2-1.5s-0.3-0.7-0.6-1s-0.6-0.5-0.9-0.6c-0.4-0.2-0.8-0.2-1.2-0.2
		c-0.6,0-1.1,0.1-1.4,0.4c-0.4,0.3-0.6,0.6-0.8,1c-0.2,0.4-0.3,0.8-0.4,1.2c-0.1,0.4-0.1,0.8-0.1,1.1c0,0.4,0,0.8,0.1,1.2
		s0.2,0.8,0.4,1.2s0.5,0.6,0.8,0.9C753.7,400,754.2,400.1,754.8,400.1z"/>
	<path d="M764.1,397c0,0.5,0,1,0.1,1.4c0.1,0.4,0.3,0.8,0.5,1.2c0.2,0.3,0.5,0.6,0.9,0.8s0.8,0.3,1.3,0.3c0.6,0,1.1-0.2,1.6-0.5
		c0.4-0.3,0.7-0.9,0.8-1.6h1.9c0,0.3-0.1,0.6-0.2,0.9c-0.1,0.4-0.3,0.8-0.7,1.2c-0.1,0.1-0.3,0.3-0.4,0.4s-0.4,0.3-0.7,0.4
		c-0.3,0.1-0.6,0.2-1,0.3c-0.4,0.1-0.8,0.1-1.3,0.1c-1.6,0-2.8-0.5-3.5-1.4s-1.1-2.2-1.1-3.8c0-1,0.1-1.9,0.4-2.7
		c0.3-0.8,0.8-1.5,1.6-2c0.2-0.2,0.5-0.3,0.8-0.4c0.3-0.1,0.5-0.2,0.8-0.2c0.2-0.1,0.5-0.1,0.7-0.1c0.2,0,0.4,0,0.5,0
		c0.7,0,1.4,0.1,1.9,0.3s0.9,0.5,1.2,0.8c0.3,0.3,0.6,0.7,0.7,1.1c0.2,0.4,0.3,0.8,0.4,1.2c0.1,0.4,0.1,0.8,0.1,1.2s0,0.7,0,1H764.1
		z M769.4,395.7c0-0.2,0-0.5-0.1-0.9s-0.1-0.7-0.3-1c-0.2-0.3-0.4-0.6-0.8-0.8c-0.3-0.2-0.8-0.3-1.4-0.3c-0.3,0-0.6,0-0.9,0.2
		c-0.3,0.1-0.6,0.3-0.9,0.5c-0.3,0.2-0.5,0.5-0.7,0.9c-0.2,0.4-0.3,0.8-0.3,1.4H769.4z"/>
	<path d="M778.6,387.8h9.1v1.7l-5.1,12.2h-2.3l5.3-12.2h-7.1V387.8z"/>
	<path d="M789.9,394.9c0-0.3,0-0.8,0-1.3c0-0.5,0.1-1,0.2-1.6s0.2-1.1,0.4-1.6s0.5-1,0.8-1.5s0.8-0.8,1.3-1s1.1-0.4,1.9-0.4
		c0.7,0,1.3,0.1,1.8,0.3c0.5,0.2,0.9,0.5,1.3,0.9c0.3,0.4,0.6,0.8,0.8,1.3c0.2,0.5,0.4,1,0.5,1.5c0.1,0.5,0.2,1,0.2,1.6
		s0.1,1,0.1,1.4c0,1.6-0.2,3-0.5,3.9c-0.3,1-0.8,1.8-1.4,2.4c-0.2,0.2-0.5,0.4-0.8,0.5c-0.3,0.1-0.5,0.2-0.8,0.3
		c-0.2,0.1-0.5,0.1-0.7,0.2c-0.2,0-0.4,0-0.6,0c-0.5,0-0.9-0.1-1.3-0.2c-0.4-0.1-0.7-0.3-1-0.5c-0.3-0.2-0.6-0.5-0.8-0.7
		c-0.2-0.3-0.4-0.6-0.6-0.9c-0.2-0.5-0.4-1-0.6-1.8C790,397.1,789.9,396.1,789.9,394.9z M791.8,394.8c0,0.8,0,1.5,0.1,2.2
		c0.1,0.7,0.2,1.2,0.4,1.7c0.2,0.5,0.5,0.9,0.8,1.2c0.3,0.3,0.8,0.4,1.3,0.4c0.6,0,1-0.2,1.4-0.5c0.4-0.3,0.6-0.8,0.8-1.3
		s0.3-1.1,0.4-1.8c0.1-0.6,0.1-1.3,0.1-1.9c0-0.8,0-1.6-0.1-2.3s-0.2-1.3-0.4-1.8s-0.5-0.9-0.8-1.2c-0.3-0.3-0.8-0.4-1.3-0.4
		c-0.6,0-1.1,0.2-1.5,0.5c-0.4,0.4-0.6,0.8-0.8,1.4c-0.2,0.5-0.3,1.2-0.4,1.8C791.9,393.5,791.8,394.2,791.8,394.8z"/>
</g>
<g class="st1">
	<path d="M740.8,484.2h2.1l5.8,14.4h-2.2l-1.6-3.8h-6.7l-1.6,3.8h-2.1L740.8,484.2z M739,493.3h5.5l-2.7-7.1L739,493.3z"/>
	<path d="M752.6,499.4c0,0.3,0.1,0.5,0.1,0.8c0.1,0.2,0.2,0.4,0.4,0.6c0.2,0.2,0.4,0.3,0.7,0.4c0.3,0.1,0.7,0.2,1.1,0.2
		c0.7,0,1.2-0.1,1.5-0.3c0.4-0.2,0.6-0.5,0.8-1c0.2-0.4,0.3-0.9,0.3-1.5s0.1-1.2,0.1-1.9c-0.2,0.4-0.5,0.7-0.8,1s-0.6,0.4-1,0.5
		c-0.3,0.1-0.6,0.2-0.9,0.2c-0.3,0-0.5,0-0.7,0c-0.2,0-0.5,0-0.8-0.1c-0.3,0-0.5-0.1-0.8-0.2c-0.3-0.1-0.5-0.2-0.8-0.4
		c-0.3-0.2-0.5-0.4-0.7-0.6c-0.4-0.5-0.7-1.1-0.9-1.7c-0.2-0.6-0.2-1.3-0.2-2c0-0.9,0.1-1.6,0.4-2.2c0.2-0.6,0.6-1.2,1-1.6
		s0.9-0.7,1.4-0.9c0.5-0.2,1.1-0.3,1.7-0.3c0.5,0,0.9,0.1,1.3,0.2c0.4,0.1,0.7,0.2,0.9,0.4c0.2,0.2,0.4,0.3,0.6,0.5
		c0.1,0.2,0.3,0.3,0.4,0.5l0-1.4h1.8l0,1.8l0,6.3c0,0.6,0,1.1,0,1.6c0,0.4,0,0.8-0.1,1.1c0,0.3-0.1,0.6-0.1,0.8
		c-0.1,0.2-0.1,0.4-0.2,0.6c-0.2,0.4-0.5,0.7-0.8,1c-0.3,0.2-0.7,0.4-1.1,0.5c-0.4,0.1-0.8,0.2-1.2,0.2c-0.4,0-0.8,0.1-1.1,0.1
		c-0.7,0-1.2,0-1.7-0.1c-0.5-0.1-0.9-0.2-1.2-0.4c-0.3-0.2-0.5-0.4-0.7-0.6c-0.2-0.2-0.3-0.5-0.4-0.7c-0.1-0.2-0.2-0.5-0.2-0.7
		c0-0.2,0-0.5-0.1-0.7H752.6z M754.8,497.1c0.6,0,1-0.1,1.3-0.3c0.3-0.2,0.6-0.4,0.8-0.7c0.1-0.1,0.2-0.3,0.3-0.4s0.2-0.3,0.2-0.5
		c0.1-0.2,0.1-0.5,0.1-0.8c0-0.3,0-0.7,0-1.1c0-0.6-0.1-1.2-0.2-1.5s-0.3-0.7-0.6-1s-0.6-0.5-0.9-0.6c-0.4-0.2-0.8-0.2-1.2-0.2
		c-0.6,0-1.1,0.1-1.4,0.4c-0.4,0.3-0.6,0.6-0.8,1c-0.2,0.4-0.3,0.8-0.4,1.2c-0.1,0.4-0.1,0.8-0.1,1.1c0,0.4,0,0.8,0.1,1.2
		s0.2,0.8,0.4,1.2s0.5,0.6,0.8,0.9C753.7,497,754.2,497.1,754.8,497.1z"/>
	<path d="M764.1,494c0,0.5,0,1,0.1,1.4c0.1,0.4,0.3,0.8,0.5,1.2c0.2,0.3,0.5,0.6,0.9,0.8s0.8,0.3,1.3,0.3c0.6,0,1.1-0.2,1.6-0.5
		c0.4-0.3,0.7-0.9,0.8-1.6h1.9c0,0.3-0.1,0.6-0.2,0.9c-0.1,0.4-0.3,0.8-0.7,1.2c-0.1,0.1-0.3,0.3-0.4,0.4s-0.4,0.3-0.7,0.4
		c-0.3,0.1-0.6,0.2-1,0.3c-0.4,0.1-0.8,0.1-1.3,0.1c-1.6,0-2.8-0.5-3.5-1.4s-1.1-2.2-1.1-3.8c0-1,0.1-1.9,0.4-2.7
		c0.3-0.8,0.8-1.5,1.6-2c0.2-0.2,0.5-0.3,0.8-0.4c0.3-0.1,0.5-0.2,0.8-0.2c0.2-0.1,0.5-0.1,0.7-0.1c0.2,0,0.4,0,0.5,0
		c0.7,0,1.4,0.1,1.9,0.3s0.9,0.5,1.2,0.8c0.3,0.3,0.6,0.7,0.7,1.1c0.2,0.4,0.3,0.8,0.4,1.2c0.1,0.4,0.1,0.8,0.1,1.2s0,0.7,0,1H764.1
		z M769.4,492.7c0-0.2,0-0.5-0.1-0.9s-0.1-0.7-0.3-1c-0.2-0.3-0.4-0.6-0.8-0.8c-0.3-0.2-0.8-0.3-1.4-0.3c-0.3,0-0.6,0-0.9,0.2
		c-0.3,0.1-0.6,0.3-0.9,0.5c-0.3,0.2-0.5,0.5-0.7,0.9c-0.2,0.4-0.3,0.8-0.3,1.4H769.4z"/>
	<path d="M781.7,491.4c-0.9-0.2-1.6-0.6-2.1-1.2c-0.5-0.6-0.7-1.2-0.7-1.9c0-0.3,0.1-0.7,0.2-1.1c0.1-0.4,0.4-0.8,0.7-1.2
		c0.3-0.4,0.8-0.7,1.4-1s1.3-0.4,2.2-0.4c0.7,0,1.4,0.1,1.9,0.3c0.6,0.2,1,0.4,1.4,0.8s0.7,0.7,0.9,1.2c0.2,0.4,0.3,0.9,0.3,1.5
		c0,0.3-0.1,0.7-0.2,1c-0.1,0.3-0.3,0.6-0.5,0.9c-0.2,0.3-0.5,0.5-0.9,0.7s-0.8,0.4-1.3,0.4c0.2,0.1,0.5,0.1,0.8,0.3s0.7,0.3,1,0.6
		c0.3,0.3,0.6,0.6,0.8,1c0.2,0.4,0.4,1,0.4,1.6c0,0.5-0.1,1-0.3,1.4c-0.2,0.5-0.4,0.9-0.8,1.3c-0.4,0.4-0.9,0.7-1.5,1
		c-0.6,0.2-1.3,0.4-2.2,0.4c-0.6,0-1.2-0.1-1.9-0.2s-1.2-0.5-1.7-0.9c-0.4-0.3-0.7-0.8-0.9-1.3s-0.3-1-0.3-1.5
		c0-0.5,0.1-0.9,0.3-1.4c0.2-0.4,0.4-0.8,0.8-1.2c0.3-0.3,0.7-0.6,1-0.7C781.1,491.6,781.4,491.5,781.7,491.4z M780.7,494.8
		c0,0.3,0,0.5,0.1,0.8s0.2,0.6,0.5,0.8c0.2,0.3,0.5,0.5,0.9,0.6c0.4,0.2,0.8,0.2,1.3,0.2c0.6,0,1-0.1,1.4-0.3
		c0.4-0.2,0.6-0.4,0.8-0.7c0.2-0.3,0.3-0.5,0.4-0.8s0.1-0.6,0.1-0.9c0-0.8-0.3-1.4-0.8-1.8c-0.5-0.5-1.2-0.7-2-0.7
		c-0.4,0-0.8,0.1-1.2,0.2c-0.3,0.1-0.6,0.3-0.9,0.5c-0.2,0.2-0.4,0.5-0.6,0.8C780.7,494.1,780.7,494.4,780.7,494.8z M786.1,488.2
		c0-0.6-0.2-1.2-0.7-1.6c-0.4-0.4-1.1-0.6-1.9-0.6c-0.4,0-0.7,0.1-1,0.2c-0.3,0.1-0.6,0.3-0.8,0.4c-0.2,0.2-0.4,0.4-0.5,0.7
		c-0.1,0.3-0.2,0.6-0.2,0.9c0,0.3,0.1,0.6,0.2,0.9c0.1,0.3,0.3,0.5,0.5,0.7s0.5,0.4,0.8,0.5c0.3,0.1,0.7,0.2,1,0.2
		c0.8,0,1.4-0.2,1.9-0.6C785.8,489.5,786.1,488.9,786.1,488.2z"/>
	<path d="M789.9,491.9c0-0.3,0-0.8,0-1.3c0-0.5,0.1-1,0.2-1.6s0.2-1.1,0.4-1.6s0.5-1,0.8-1.5s0.8-0.8,1.3-1s1.1-0.4,1.9-0.4
		c0.7,0,1.3,0.1,1.8,0.3c0.5,0.2,0.9,0.5,1.3,0.9c0.3,0.4,0.6,0.8,0.8,1.3c0.2,0.5,0.4,1,0.5,1.5c0.1,0.5,0.2,1,0.2,1.6
		s0.1,1,0.1,1.4c0,1.6-0.2,3-0.5,3.9c-0.3,1-0.8,1.8-1.4,2.4c-0.2,0.2-0.5,0.4-0.8,0.5c-0.3,0.1-0.5,0.2-0.8,0.3
		c-0.2,0.1-0.5,0.1-0.7,0.2c-0.2,0-0.4,0-0.6,0c-0.5,0-0.9-0.1-1.3-0.2c-0.4-0.1-0.7-0.3-1-0.5c-0.3-0.2-0.6-0.5-0.8-0.7
		c-0.2-0.3-0.4-0.6-0.6-0.9c-0.2-0.5-0.4-1-0.6-1.8C790,494.1,789.9,493.1,789.9,491.9z M791.8,491.8c0,0.8,0,1.5,0.1,2.2
		c0.1,0.7,0.2,1.2,0.4,1.7c0.2,0.5,0.5,0.9,0.8,1.2c0.3,0.3,0.8,0.4,1.3,0.4c0.6,0,1-0.2,1.4-0.5c0.4-0.3,0.6-0.8,0.8-1.3
		s0.3-1.1,0.4-1.8c0.1-0.6,0.1-1.3,0.1-1.9c0-0.8,0-1.6-0.1-2.3s-0.2-1.3-0.4-1.8s-0.5-0.9-0.8-1.2c-0.3-0.3-0.8-0.4-1.3-0.4
		c-0.6,0-1.1,0.2-1.5,0.5c-0.4,0.4-0.6,0.8-0.8,1.4c-0.2,0.5-0.3,1.2-0.4,1.8C791.9,490.5,791.8,491.2,791.8,491.8z"/>
</g>
<rect x="259.8" y="3.2" class="st2" width="457.5" height="31.5"/>
<g class="st1">
	<path d="M532.9,4.9h-5.3v3.8h5.3v1.8h-5.3v6.3h-2V3.2h7.3V4.9z"/>
	<path d="M536.4,7.8v2.1c0.6-0.9,1.4-2.2,2.7-2.2c0.3,0,1.1,0,2.1,1l-0.9,1.6c-0.2-0.2-1-0.9-1.7-0.9c-0.7,0-2.1,0.7-2.1,2.8v4.7
		h-1.8v-9H536.4z"/>
	<path d="M549.4,15.9c-0.6,0.4-1.6,1.1-3.5,1.1c-0.9,0-2-0.1-3.1-1.3c-1.2-1.2-1.3-2.6-1.3-3.5c0-2.8,1.8-4.6,4.2-4.6
		c2.1,0,3.5,1.5,3.8,3.5c0.1,0.6,0.1,1,0.1,1.3h-6.3c0.1,1.3,0.9,2.8,2.9,2.8c1.2,0,2.3-0.4,3.3-1.1V15.9z M547.8,11.4
		c0-0.4-0.2-2.2-2.2-2.2c-0.6,0-1.2,0.2-1.7,0.8c-0.5,0.5-0.6,1.1-0.6,1.5H547.8z"/>
	<path d="M559.1,21.4h-1.8v-4.8c-0.4,0.1-1.1,0.3-2,0.3c-2.4,0-4.4-1.8-4.4-4.6c0-1.7,0.9-4.6,4.8-4.6h3.3V21.4z M557.3,9.5h-1.1
		c-0.8,0-1.6,0-2.1,0.4c-0.4,0.3-1.3,1-1.3,2.5c0,1.8,1.1,3.1,3,3.1c0.5,0,0.6,0,1.6-0.4V9.5z"/>
	<path d="M567.2,16.8v-1.1c-0.8,0.9-1.9,1.3-2.7,1.3c-0.6,0-1.8-0.2-2.5-1.4c-0.3-0.4-0.5-1-0.5-2.6V7.8h1.8V13c0,1,0,2.6,1.8,2.6
		c0.8,0,1.6-0.5,2.1-1.3V7.8h1.8v9H567.2z"/>
	<path d="M579,15.9c-0.6,0.4-1.6,1.1-3.5,1.1c-0.9,0-2-0.1-3.1-1.3c-1.2-1.2-1.3-2.6-1.3-3.5c0-2.8,1.8-4.6,4.2-4.6
		c2.1,0,3.5,1.5,3.8,3.5c0.1,0.6,0.1,1,0.1,1.3h-6.3c0.1,1.3,0.9,2.8,2.9,2.8c1.2,0,2.3-0.4,3.3-1.1V15.9z M577.4,11.4
		c0-0.4-0.2-2.2-2.2-2.2c-0.6,0-1.2,0.2-1.7,0.8c-0.5,0.5-0.6,1.1-0.6,1.5H577.4z"/>
	<path d="M582.9,7.8V9c0.8-0.9,1.9-1.3,2.7-1.3c0.6,0,1.8,0.2,2.5,1.4c0.3,0.4,0.5,1,0.5,2.6v5.1h-1.8v-5.1c0-1,0-1.5-0.5-2
		c-0.3-0.4-0.7-0.6-1.3-0.6c-0.8,0-1.6,0.5-2.1,1.3v6.4H581v-9H582.9z"/>
	<path d="M597.6,10.2c-0.5-0.3-1.3-0.9-2.5-0.9c-1.9,0-2.7,1.6-2.7,3c0,1.5,0.9,3,3.1,3c0.9,0,1.7-0.3,2.4-0.6v1.8
		c-0.4,0.1-1.3,0.5-2.6,0.5c-3.1,0-4.6-2.2-4.6-4.6c0-2.2,1.2-4.7,4.4-4.7c1.2,0,1.9,0.3,2.6,0.6V10.2z"/>
	<path d="M601,21.4h-2l3.1-6.5l-3.5-7.1h2l2.4,5.1l2.3-5.1h2L601,21.4z"/>
	<path d="M616.1,5.1c0,0.6-0.5,1.1-1.1,1.1c-0.7,0-1-0.6-1-1.1c0-0.5,0.4-1,1-1C615.6,4.1,616.1,4.5,616.1,5.1z M615.9,16.8h-1.8v-9
		h1.8V16.8z"/>
	<path d="M620.3,7.8V9c0.8-0.9,1.9-1.3,2.7-1.3c0.6,0,1.8,0.2,2.5,1.4c0.3,0.4,0.5,1,0.5,2.6v5.1h-1.8v-5.1c0-1,0-1.5-0.5-2
		c-0.3-0.4-0.7-0.6-1.3-0.6c-0.8,0-1.6,0.5-2.1,1.3v6.4h-1.8v-9H620.3z"/>
	<path d="M635.8,9c0.7-0.8,1.7-1.4,2.8-1.4c1.3,0,2.3,0.8,2.7,1.7c0.2,0.6,0.3,1.5,0.3,2.3v5.1h-1.8v-5.6c0-0.7-0.2-1.1-0.3-1.4
		c-0.3-0.5-0.9-0.8-1.4-0.8c-0.9,0-1.5,0.4-2.3,1.3v6.4H634V3.2h1.8V9z"/>
	<path d="M651.6,15.9c-0.6,0.4-1.6,1.1-3.5,1.1c-0.9,0-2-0.1-3.1-1.3c-1.2-1.2-1.3-2.6-1.3-3.5c0-2.8,1.8-4.6,4.2-4.6
		c2.1,0,3.5,1.5,3.8,3.5c0.1,0.6,0.1,1,0.1,1.3h-6.3c0.1,1.3,0.9,2.8,2.9,2.8c1.2,0,2.3-0.4,3.3-1.1V15.9z M650,11.4
		c0-0.4-0.2-2.2-2.2-2.2c-0.6,0-1.2,0.2-1.7,0.8c-0.5,0.5-0.6,1.1-0.6,1.5H650z"/>
	<path d="M655.3,7.8v2.1c0.6-0.9,1.4-2.2,2.7-2.2c0.3,0,1.1,0,2.1,1l-0.9,1.6c-0.2-0.2-1-0.9-1.7-0.9c-0.7,0-2.1,0.7-2.1,2.8v4.7
		h-1.8v-9H655.3z"/>
	<path d="M663.8,7.8h2.8v1.6h-2.8v3.9c0,1.1,0,1.3,0.3,1.6c0.3,0.4,0.8,0.4,1,0.4c0.4,0,1,0,2-0.6v1.7c-0.8,0.5-1.8,0.6-2.3,0.6
		c-0.6,0-1.7-0.3-2.3-1.1c-0.4-0.7-0.4-1.6-0.4-2.4v-4h-1.6V9.3l3.3-3.3V7.8z"/>
	<path d="M670.8,15.2h4.8v1.6h-7.9l4.7-7.3h-4.5V7.8h7.7L670.8,15.2z"/>
	<path d="M686.5,21.4c-1.5-1.9-2.2-2.8-2.9-4.6c-0.7-1.7-0.9-3.3-0.9-4.6c0-4.4,2.2-7.2,3.8-9.2h1.1c-1.2,1.9-2.9,4.3-2.9,9.3
		c0,3.3,0.9,6.5,2.9,9.1H686.5z"/>
	<path d="M700.9,16.8h-2v-5.9h-7.6v5.9h-2V3.2h2v5.9h7.6V3.2h2V16.8z"/>
	<path d="M705.7,15.2h4.8v1.6h-7.9l4.7-7.3h-4.5V7.8h7.7L705.7,15.2z"/>
	<path d="M712.1,3c1.5,1.9,2.2,2.8,2.9,4.6c0.7,1.7,0.9,3.3,0.9,4.6c0,4.4-2.2,7.2-3.8,9.2H711c1.2-1.9,2.9-4.3,2.9-9.3
		c0-3.3-0.9-6.5-2.9-9.2H712.1z"/>
</g>
<g class="st1">
	<path d="M16.8,258.2v2h-5.9v7.6h5.9v2H3.2v-2h5.9v-7.6H3.2v-2H16.8z"/>
	<path d="M15.9,248c0.4,0.6,1.1,1.6,1.1,3.5c0,0.9-0.1,2-1.3,3.1c-1.2,1.2-2.6,1.3-3.5,1.3c-2.8,0-4.6-1.8-4.6-4.2
		c0-2.1,1.5-3.5,3.5-3.8c0.6-0.1,1-0.1,1.3-0.1v6.3c1.3-0.1,2.8-0.9,2.8-2.9c0-1.2-0.4-2.3-1.1-3.3H15.9z M11.4,249.6
		c-0.4,0-2.2,0.2-2.2,2.2c0,0.6,0.2,1.2,0.8,1.7c0.5,0.5,1.1,0.6,1.5,0.6V249.6z"/>
	<path d="M16.3,238.8c0.5,0.8,0.7,1.2,0.7,1.7c0,0.8-0.3,1.2-0.9,1.4c0.6,0.8,0.9,1.6,0.9,2.4c0,1.3-1,2.2-2.2,2.2
		c-1.8,0-2.3-1.6-2.8-3.1l-0.6-1.6h-0.5c-1.1,0-1.6,0.5-1.6,1.6c0,1,0.5,2,1.5,2.8H8.9c-0.8-0.7-1.2-1.7-1.2-3c0-1.8,0.9-3.3,3-3.3
		h4.6c0.3,0,0.5-0.1,0.5-0.3c0-0.2-0.2-0.5-0.5-0.9H16.3z M12.4,241.9c0.5,1.5,1,2.8,2.1,2.8c0.7,0,1.3-0.5,1.3-1.3
		c0-0.6-0.3-1.1-0.7-1.6H12.4z"/>
	<path d="M7.8,235.7h2.1c-0.9-0.6-2.2-1.4-2.2-2.7c0-0.3,0-1.1,1-2.1l1.6,0.9c-0.2,0.2-0.9,1-0.9,1.7c0,0.7,0.7,2.1,2.8,2.1h4.7v1.8
		h-9V235.7z"/>
	<path d="M5.1,227.7c0.6,0,1.1,0.5,1.1,1.1c0,0.7-0.6,1-1.1,1c-0.5,0-1-0.4-1-1S4.5,227.7,5.1,227.7z M16.8,227.8v1.8h-9v-1.8H16.8z
		"/>
	<path d="M7.8,223.5H9c-0.9-0.8-1.3-1.9-1.3-2.7c0-0.6,0.2-1.8,1.4-2.5c0.4-0.3,1-0.5,2.6-0.5h5.1v1.8h-5.1c-1,0-1.5,0-2,0.5
		c-0.4,0.3-0.6,0.7-0.6,1.3c0,0.8,0.5,1.6,1.3,2.1h6.4v1.8h-9V223.5z"/>
	<path d="M9.2,208.1v1.8c0.7-0.7,1.2-0.9,2-0.9c0.7,0,1.6,0.4,2,0.8c1.3,1.2,0.6,3.6,1.7,3.6c0.5,0,0.8-0.9,1.2-2.7
		c0.4-1.9,1.4-2.6,2.5-2.6c1.8,0,2.9,1.6,2.9,4.2c0,2.4-1.1,4.1-2.7,4.1c-1.3,0-2.1-0.7-2.5-2.3c-0.4,0.6-0.7,0.9-1.1,0.9
		c-0.6,0-1.1-0.6-1.3-1.4h0c-0.3,0.7-0.7,1.2-1.1,1.5c-0.5,0.3-1,0.5-1.7,0.5c-1.9,0-3.1-1.5-3.1-3.9v-3.7H9.2z M9.4,212.3
		c0,1,0.7,1.8,1.6,1.8c1,0,1.6-0.7,1.6-1.8c0-1-0.7-1.7-1.7-1.7C10.1,210.6,9.4,211.4,9.4,212.3z M17.3,212.8c0,1.2,0.6,2,1.4,2
		c0.9,0,1.4-0.9,1.4-2.5c0-1.6-0.5-2.5-1.3-2.5C17.6,209.9,17.3,211.7,17.3,212.8z"/>
	<path d="M4.9,190.7v4.8h11.9v2H4.9v4.7H3.2v-11.4H4.9z"/>
	<path d="M9,187.3c-0.8-0.7-1.4-1.7-1.4-2.8c0-1.3,0.8-2.3,1.7-2.7c0.6-0.2,1.5-0.3,2.3-0.3h5.1v1.8h-5.6c-0.7,0-1.1,0.2-1.4,0.3
		c-0.5,0.3-0.8,0.9-0.8,1.4c0,0.9,0.4,1.5,1.3,2.3h6.4v1.8H3.2v-1.8H9z"/>
	<path d="M7.8,177.4h2.1c-0.9-0.6-2.2-1.4-2.2-2.7c0-0.3,0-1.1,1-2.1l1.6,0.9c-0.2,0.2-0.9,1-0.9,1.7c0,0.7,0.7,2.1,2.8,2.1h4.7v1.8
		h-9V177.4z"/>
	<path d="M15.9,164.4c0.4,0.6,1.1,1.6,1.1,3.5c0,0.9-0.1,2-1.3,3.1c-1.2,1.2-2.6,1.3-3.5,1.3c-2.8,0-4.6-1.8-4.6-4.2
		c0-2.1,1.5-3.5,3.5-3.8c0.6-0.1,1-0.1,1.3-0.1v6.3c1.3-0.1,2.8-0.9,2.8-2.9c0-1.2-0.4-2.3-1.1-3.3H15.9z M11.4,166
		c-0.4,0-2.2,0.2-2.2,2.2c0,0.6,0.2,1.2,0.8,1.7c0.5,0.5,1.1,0.6,1.5,0.6V166z"/>
	<path d="M10.2,157.1c-0.6,1-1,1.8-1,2.6c0,0.8,0.5,1.1,0.8,1.1c0.6,0,0.9-0.6,1.6-1.9c0.7-1.3,1.6-2.2,2.8-2.2
		c0.8,0,2.5,0.6,2.5,3.1c0,1.3-0.4,2.1-0.8,3h-1.9c0.9-1.3,1.2-2.4,1.2-2.9c0-0.6-0.3-1.4-0.9-1.4c-0.6,0-0.9,0.5-1.4,1.4
		c-0.8,1.5-1.6,2.8-3.1,2.8c-1.3,0-2.3-1.1-2.3-2.9c0-1.3,0.5-2.3,0.7-2.7H10.2z"/>
	<path d="M9,152.8c-0.8-0.7-1.4-1.7-1.4-2.8c0-1.3,0.8-2.3,1.7-2.7c0.6-0.2,1.5-0.3,2.3-0.3h5.1v1.8h-5.6c-0.7,0-1.1,0.2-1.4,0.3
		c-0.5,0.3-0.8,0.9-0.8,1.4c0,0.9,0.4,1.5,1.3,2.3h6.4v1.8H3.2v-1.8H9z"/>
	<path d="M12.4,135.5c3.2,0,4.6,2.6,4.6,4.8c0,2.9-2.1,4.8-4.7,4.8c-2.5,0-4.7-1.8-4.7-4.8C7.7,137.6,9.5,135.5,12.4,135.5z
		 M12.3,143.3c2.3,0,3.1-1.7,3.1-3c0-1.8-1.3-3-3.1-3c-2.3,0-3.1,1.8-3.1,3C9.3,142,10.4,143.3,12.3,143.3z"/>
	<path d="M16.8,131.7v1.8H3.2v-1.8H16.8z"/>
	<path d="M16.8,121.4v3.8c0,3.5-2.9,4.4-4.6,4.4c-2.9,0-4.5-2.2-4.5-4.4c0-0.9,0.2-1.6,0.4-1.9H3.2v-1.8H16.8z M9.6,123.2
		c-0.2,0.3-0.4,0.8-0.4,1.7c0,1.5,1,2.9,3.2,2.9c1.5,0,2.3-0.6,2.6-1.3c0.2-0.5,0.3-0.9,0.3-1.9v-1.4H9.6z"/>
	<path d="M5.1,111.4c0.6,0,1.1,0.5,1.1,1.1c0,0.7-0.6,1-1.1,1c-0.5,0-1-0.4-1-1C4.1,111.9,4.5,111.4,5.1,111.4z M16.8,111.6v1.8h-9
		v-1.8H16.8z"/>
	<path d="M7.8,107.2H9c-0.9-0.8-1.3-1.9-1.3-2.7c0-0.6,0.2-1.8,1.4-2.5c0.4-0.3,1-0.5,2.6-0.5h5.1v1.8h-5.1c-1,0-1.5,0-2,0.5
		c-0.4,0.3-0.6,0.7-0.6,1.3c0,0.8,0.5,1.6,1.3,2.1h6.4v1.8h-9V107.2z"/>
	<path d="M16.8,85.7v3.8c0,3.5-2.9,4.4-4.6,4.4c-2.9,0-4.5-2.2-4.5-4.4c0-0.9,0.2-1.6,0.4-1.9H3.2v-1.8H16.8z M9.6,87.5
		c-0.2,0.3-0.4,0.8-0.4,1.7c0,1.5,1,2.9,3.2,2.9c1.5,0,2.3-0.6,2.6-1.3c0.2-0.5,0.3-0.9,0.3-1.9v-1.4H9.6z"/>
	<path d="M8.5,81.6c-0.2-0.3-0.8-1.1-0.8-2.5c0-2.4,2.1-3.9,4.6-3.9c3.2,0,4.8,2.2,4.8,4.6c0,1.1-0.3,2.6-0.7,3.5H3.2v-1.8H8.5z
		 M15,81.6c0.2-0.7,0.3-1.6,0.3-1.9c0-1.1-0.8-2.7-3-2.7c-2,0-3,1.2-3,2.5c0,1,0.6,1.7,0.9,2H15z"/>
</g>
<g id="Graphs">
	<polyline class="st3" points="92.7,215.6 331.7,226.6 500.7,354.6 554.7,376.6 678.7,492.6 	"/>
	<polyline class="st3" points="92.7,180.4 334.7,191.6 443.7,235.6 499.7,291.6 553.7,317.6 607.7,341.6 678.7,395.6 	"/>
	<polyline class="st3" points="92.7,155.6 332.7,159.6 445.7,196.6 501.7,227.6 609.7,268.6 662.7,287.6 677.7,298.6 	"/>
	<polyline class="st3" points="92.7,140.6 333.7,141.6 442.7,165.6 553.7,209.6 606.7,229.6 679.7,242.6 	"/>
	<polyline class="st4" points="92.7,129.6 334.7,129.6 498.7,157.6 608.7,175.6 679.7,182.6 	"/>
	<line class="st3" x1="92.7" y1="121.6" x2="678.7" y2="121.6"/>
	<g class="st1">
		<path class="st5" d="M740.8,174.2h2.1l5.8,14.4h-2.2l-1.6-3.8h-6.7l-1.6,3.8h-2.1L740.8,174.2z M739,183.3h5.5l-2.7-7.1L739,183.3
			z"/>
		<path class="st5" d="M752.6,189.4c0,0.3,0.1,0.5,0.1,0.8c0.1,0.2,0.2,0.4,0.4,0.6c0.2,0.2,0.4,0.3,0.7,0.4
			c0.3,0.1,0.7,0.2,1.1,0.2c0.7,0,1.2-0.1,1.5-0.3c0.4-0.2,0.6-0.5,0.8-1c0.2-0.4,0.3-0.9,0.3-1.5s0.1-1.2,0.1-1.9
			c-0.2,0.4-0.5,0.7-0.8,1s-0.6,0.4-1,0.5c-0.3,0.1-0.6,0.2-0.9,0.2c-0.3,0-0.5,0-0.7,0c-0.2,0-0.5,0-0.8-0.1
			c-0.3,0-0.5-0.1-0.8-0.2c-0.3-0.1-0.5-0.2-0.8-0.4c-0.3-0.2-0.5-0.4-0.7-0.6c-0.4-0.5-0.7-1.1-0.9-1.7c-0.2-0.6-0.2-1.3-0.2-2
			c0-0.9,0.1-1.6,0.4-2.2c0.2-0.6,0.6-1.2,1-1.6s0.9-0.7,1.4-0.9c0.5-0.2,1.1-0.3,1.7-0.3c0.5,0,0.9,0.1,1.3,0.2
			c0.4,0.1,0.7,0.2,0.9,0.4c0.2,0.2,0.4,0.3,0.6,0.5c0.1,0.2,0.3,0.3,0.4,0.5l0-1.4h1.8l0,1.8l0,6.3c0,0.6,0,1.1,0,1.6
			c0,0.4,0,0.8-0.1,1.1c0,0.3-0.1,0.6-0.1,0.8c-0.1,0.2-0.1,0.4-0.2,0.6c-0.2,0.4-0.5,0.7-0.8,1c-0.3,0.2-0.7,0.4-1.1,0.5
			c-0.4,0.1-0.8,0.2-1.2,0.2c-0.4,0-0.8,0.1-1.1,0.1c-0.7,0-1.2,0-1.7-0.1c-0.5-0.1-0.9-0.2-1.2-0.4c-0.3-0.2-0.5-0.4-0.7-0.6
			c-0.2-0.2-0.3-0.5-0.4-0.7c-0.1-0.2-0.2-0.5-0.2-0.7c0-0.2,0-0.5-0.1-0.7H752.6z M754.8,187.1c0.6,0,1-0.1,1.3-0.3
			c0.3-0.2,0.6-0.4,0.8-0.7c0.1-0.1,0.2-0.3,0.3-0.4s0.2-0.3,0.2-0.5c0.1-0.2,0.1-0.5,0.1-0.8c0-0.3,0-0.7,0-1.1
			c0-0.6-0.1-1.2-0.2-1.5s-0.3-0.7-0.6-1s-0.6-0.5-0.9-0.6c-0.4-0.2-0.8-0.2-1.2-0.2c-0.6,0-1.1,0.1-1.4,0.4c-0.4,0.3-0.6,0.6-0.8,1
			c-0.2,0.4-0.3,0.8-0.4,1.2c-0.1,0.4-0.1,0.8-0.1,1.1c0,0.4,0,0.8,0.1,1.2s0.2,0.8,0.4,1.2s0.5,0.6,0.8,0.9
			C753.7,187,754.2,187.1,754.8,187.1z"/>
		<path class="st5" d="M764.1,184c0,0.5,0,1,0.1,1.4c0.1,0.4,0.3,0.8,0.5,1.2c0.2,0.3,0.5,0.6,0.9,0.8s0.8,0.3,1.3,0.3
			c0.6,0,1.1-0.2,1.6-0.5c0.4-0.3,0.7-0.9,0.8-1.6h1.9c0,0.3-0.1,0.6-0.2,0.9c-0.1,0.4-0.3,0.8-0.7,1.2c-0.1,0.1-0.3,0.3-0.4,0.4
			s-0.4,0.3-0.7,0.4c-0.3,0.1-0.6,0.2-1,0.3c-0.4,0.1-0.8,0.1-1.3,0.1c-1.6,0-2.8-0.5-3.5-1.4s-1.1-2.2-1.1-3.8c0-1,0.1-1.9,0.4-2.7
			c0.3-0.8,0.8-1.5,1.6-2c0.2-0.2,0.5-0.3,0.8-0.4c0.3-0.1,0.5-0.2,0.8-0.2c0.2-0.1,0.5-0.1,0.7-0.1c0.2,0,0.4,0,0.5,0
			c0.7,0,1.4,0.1,1.9,0.3s0.9,0.5,1.2,0.8c0.3,0.3,0.6,0.7,0.7,1.1c0.2,0.4,0.3,0.8,0.4,1.2c0.1,0.4,0.1,0.8,0.1,1.2s0,0.7,0,1
			H764.1z M769.4,182.7c0-0.2,0-0.5-0.1-0.9s-0.1-0.7-0.3-1c-0.2-0.3-0.4-0.6-0.8-0.8c-0.3-0.2-0.8-0.3-1.4-0.3
			c-0.3,0-0.6,0-0.9,0.2c-0.3,0.1-0.6,0.3-0.9,0.5c-0.3,0.2-0.5,0.5-0.7,0.9c-0.2,0.4-0.3,0.8-0.3,1.4H769.4z"/>
		<path class="st5" d="M784.7,185.7h-6.2v-2.4l6-8.6h2.2v9.4h2v1.6h-2v3h-1.9V185.7z M784.8,184v-7.3L780,184H784.8z"/>
		<path class="st5" d="M789.9,181.9c0-0.3,0-0.8,0-1.3c0-0.5,0.1-1,0.2-1.6s0.2-1.1,0.4-1.6s0.5-1,0.8-1.5s0.8-0.8,1.3-1
			s1.1-0.4,1.9-0.4c0.7,0,1.3,0.1,1.8,0.3c0.5,0.2,0.9,0.5,1.3,0.9c0.3,0.4,0.6,0.8,0.8,1.3c0.2,0.5,0.4,1,0.5,1.5
			c0.1,0.5,0.2,1,0.2,1.6s0.1,1,0.1,1.4c0,1.6-0.2,3-0.5,3.9c-0.3,1-0.8,1.8-1.4,2.4c-0.2,0.2-0.5,0.4-0.8,0.5
			c-0.3,0.1-0.5,0.2-0.8,0.3c-0.2,0.1-0.5,0.1-0.7,0.2c-0.2,0-0.4,0-0.6,0c-0.5,0-0.9-0.1-1.3-0.2c-0.4-0.1-0.7-0.3-1-0.5
			c-0.3-0.2-0.6-0.5-0.8-0.7c-0.2-0.3-0.4-0.6-0.6-0.9c-0.2-0.5-0.4-1-0.6-1.8C790,184.1,789.9,183.1,789.9,181.9z M791.8,181.8
			c0,0.8,0,1.5,0.1,2.2c0.1,0.7,0.2,1.2,0.4,1.7c0.2,0.5,0.5,0.9,0.8,1.2c0.3,0.3,0.8,0.4,1.3,0.4c0.6,0,1-0.2,1.4-0.5
			c0.4-0.3,0.6-0.8,0.8-1.3s0.3-1.1,0.4-1.8c0.1-0.6,0.1-1.3,0.1-1.9c0-0.8,0-1.6-0.1-2.3s-0.2-1.3-0.4-1.8s-0.5-0.9-0.8-1.2
			c-0.3-0.3-0.8-0.4-1.3-0.4c-0.6,0-1.1,0.2-1.5,0.5c-0.4,0.4-0.6,0.8-0.8,1.4c-0.2,0.5-0.3,1.2-0.4,1.8
			C791.9,180.5,791.8,181.2,791.8,181.8z"/>
	</g>
</g>
</svg>
