<?xml version="1.0" encoding="utf-8"?>
<!-- Generator: Adobe Illustrator 22.0.1, SVG Export Plug-In . SVG Version: 6.00 Build 0)  -->
<svg version="1.1" id="Ebene_1" xmlns="http://www.w3.org/2000/svg" xmlns:xlink="http://www.w3.org/1999/xlink" x="0px" y="0px"
	 viewBox="0 0 800.2 654.7" style="enable-background:new 0 0 800.2 654.7;" xml:space="preserve">
<style type="text/css">
	.st0{fill:none;stroke:#A3A19E;stroke-miterlimit:10;}
	.st1{enable-background:new    ;}
	.st2{fill:#CC1122;}
	.st3{fill:none;}
	.st4{fill:none;stroke:#CC1122;stroke-width:3;stroke-linecap:round;stroke-linejoin:round;stroke-miterlimit:10;}
	.st5{fill:none;stroke:#A3A19E;stroke-width:3;stroke-linecap:round;stroke-linejoin:round;stroke-miterlimit:10;}
</style>
<g id="Grid">
</g>
<rect x="74.5" y="73.7" class="st0" width="644" height="571"/>
<line class="st0" x1="111.5" y1="73.7" x2="111.5" y2="644.7"/>
<line class="st0" x1="224.5" y1="73.7" x2="224.5" y2="644.7"/>
<line class="st0" x1="280.5" y1="73.7" x2="280.5" y2="644.7"/>
<line class="st0" x1="334.5" y1="73.7" x2="334.5" y2="644.7"/>
<line class="st0" x1="390.5" y1="73.7" x2="390.5" y2="644.7"/>
<line class="st0" x1="443.5" y1="73.7" x2="443.5" y2="644.7"/>
<line class="st0" x1="499.5" y1="73.7" x2="499.5" y2="644.7"/>
<line class="st0" x1="552.5" y1="73.7" x2="552.5" y2="644.7"/>
<line class="st0" x1="608.5" y1="73.7" x2="608.5" y2="644.7"/>
<line class="st0" x1="661.5" y1="73.7" x2="661.5" y2="644.7"/>
<line class="st0" x1="74.5" y1="124.7" x2="718.5" y2="124.7"/>
<line class="st0" x1="74.5" y1="171.7" x2="718.5" y2="171.7"/>
<line class="st0" x1="74.5" y1="218.7" x2="718.5" y2="218.7"/>
<line class="st0" x1="74.5" y1="265.7" x2="718.5" y2="265.7"/>
<line class="st0" x1="74.5" y1="310.7" x2="718.5" y2="310.7"/>
<line class="st0" x1="74.5" y1="359.2" x2="718.5" y2="359.2"/>
<line class="st0" x1="74.5" y1="407.6" x2="718.5" y2="407.6"/>
<line class="st0" x1="74.5" y1="452.7" x2="718.5" y2="452.7"/>
<line class="st0" x1="74.5" y1="504.5" x2="718.5" y2="504.5"/>
<line class="st0" x1="74.5" y1="550.7" x2="718.5" y2="550.7"/>
<line class="st0" x1="74.5" y1="596.9" x2="718.5" y2="596.9"/>
<g class="st1">
	<path d="M35.4,73.5h5V75h-5V73.5z"/>
	<path d="M46.6,67.8c-0.2,0.2-0.5,0.4-0.7,0.6c-0.3,0.2-0.6,0.4-0.8,0.5c-0.3,0.2-0.6,0.3-0.9,0.5c-0.3,0.2-0.6,0.3-0.8,0.4v-2
		c0.7-0.3,1.3-0.7,1.9-1.1s1.1-0.7,1.5-1.1h1.8v13.8h-1.9L46.6,67.8L46.6,67.8z"/>
	<path d="M52.2,72.7c0-0.3,0-0.8,0-1.3s0.1-1,0.2-1.6s0.2-1.1,0.4-1.6s0.5-1,0.8-1.5s0.8-0.8,1.3-1c0.5-0.2,1.1-0.4,1.9-0.4
		c0.7,0,1.3,0.1,1.8,0.3c0.5,0.2,0.9,0.5,1.3,0.9c0.3,0.4,0.6,0.8,0.8,1.3s0.4,1,0.5,1.5s0.2,1,0.2,1.6s0.1,1,0.1,1.4
		c0,1.6-0.2,3-0.5,3.9c-0.3,1-0.8,1.8-1.4,2.4c-0.2,0.2-0.5,0.4-0.8,0.5s-0.5,0.2-0.8,0.3c-0.2,0.1-0.5,0.1-0.7,0.2
		c-0.2,0-0.4,0-0.6,0c-0.5,0-0.9-0.1-1.3-0.2c-0.4-0.1-0.7-0.3-1-0.5s-0.6-0.5-0.8-0.7c-0.2-0.3-0.4-0.6-0.6-0.9
		c-0.2-0.5-0.4-1-0.6-1.8C52.3,74.9,52.2,74,52.2,72.7z M54.1,72.6c0,0.8,0,1.5,0.1,2.2s0.2,1.2,0.4,1.7s0.5,0.9,0.8,1.2
		c0.3,0.3,0.8,0.4,1.3,0.4c0.6,0,1-0.2,1.4-0.5s0.6-0.8,0.8-1.3s0.3-1.1,0.4-1.8c0.1-0.6,0.1-1.3,0.1-1.9c0-0.8,0-1.6-0.1-2.3
		s-0.2-1.3-0.4-1.8s-0.5-0.9-0.8-1.2s-0.8-0.4-1.3-0.4c-0.6,0-1.1,0.2-1.5,0.5c-0.4,0.4-0.6,0.8-0.8,1.4c-0.2,0.5-0.3,1.2-0.4,1.8
		C54.2,71.4,54.1,72,54.1,72.6z"/>
</g>
<g class="st1">
	<path d="M51.1,122.4c0-0.3,0-0.8,0-1.3s0.1-1,0.2-1.6s0.2-1.1,0.4-1.6s0.5-1,0.8-1.5s0.8-0.8,1.3-1s1.1-0.4,1.9-0.4
		c0.7,0,1.3,0.1,1.8,0.3c0.5,0.2,0.9,0.5,1.3,0.9c0.3,0.4,0.6,0.8,0.8,1.3s0.4,1,0.5,1.5s0.2,1,0.2,1.6s0.1,1,0.1,1.4
		c0,1.6-0.2,3-0.5,3.9c-0.3,1-0.8,1.8-1.4,2.4c-0.2,0.2-0.5,0.4-0.8,0.5c-0.3,0.1-0.5,0.2-0.8,0.3c-0.2,0.1-0.5,0.1-0.7,0.2
		c-0.2,0-0.4,0-0.6,0c-0.5,0-0.9-0.1-1.3-0.2c-0.4-0.1-0.7-0.3-1-0.5s-0.6-0.5-0.8-0.7c-0.2-0.3-0.4-0.6-0.6-0.9
		c-0.2-0.5-0.4-1-0.6-1.8C51.2,124.6,51.1,123.6,51.1,122.4z M53.1,122.3c0,0.8,0,1.5,0.1,2.2s0.2,1.2,0.4,1.7s0.5,0.9,0.8,1.2
		c0.3,0.3,0.8,0.4,1.3,0.4c0.6,0,1-0.2,1.4-0.5s0.6-0.8,0.8-1.3s0.3-1.1,0.4-1.8c0.1-0.6,0.1-1.3,0.1-1.9c0-0.8,0-1.6-0.1-2.3
		s-0.2-1.3-0.4-1.8s-0.5-0.9-0.8-1.2c-0.3-0.3-0.8-0.4-1.3-0.4c-0.6,0-1.1,0.2-1.5,0.5c-0.4,0.4-0.6,0.8-0.8,1.4
		c-0.2,0.5-0.3,1.2-0.4,1.8C53.1,121,53.1,121.7,53.1,122.3z"/>
</g>
<g class="st1">
	<path d="M46,164.8c-0.2,0.2-0.5,0.4-0.7,0.6c-0.3,0.2-0.6,0.4-0.8,0.5c-0.3,0.2-0.6,0.3-0.9,0.5c-0.3,0.2-0.6,0.3-0.8,0.4v-2
		c0.7-0.3,1.3-0.7,1.9-1.1s1.1-0.7,1.5-1.1H48v13.8h-1.9L46,164.8L46,164.8z"/>
	<path d="M51.6,169.7c0-0.3,0-0.8,0-1.3s0.1-1,0.2-1.6s0.2-1.1,0.4-1.6s0.5-1,0.8-1.5s0.8-0.8,1.3-1s1.1-0.4,1.9-0.4
		c0.7,0,1.3,0.1,1.8,0.3s0.9,0.5,1.3,0.9c0.3,0.4,0.6,0.8,0.8,1.3s0.4,1,0.5,1.5s0.2,1,0.2,1.6s0.1,1,0.1,1.4c0,1.6-0.2,3-0.5,3.9
		c-0.3,1-0.8,1.8-1.4,2.4c-0.2,0.2-0.5,0.4-0.8,0.5s-0.5,0.2-0.8,0.3c-0.2,0.1-0.5,0.1-0.7,0.2c-0.2,0-0.4,0-0.6,0
		c-0.5,0-0.9-0.1-1.3-0.2c-0.4-0.1-0.7-0.3-1-0.5s-0.6-0.5-0.8-0.7c-0.2-0.3-0.4-0.6-0.6-0.9c-0.2-0.5-0.4-1-0.6-1.8
		C51.7,171.9,51.6,171,51.6,169.7z M53.5,169.6c0,0.8,0,1.5,0.1,2.2s0.2,1.2,0.4,1.7s0.5,0.9,0.8,1.2s0.8,0.4,1.3,0.4
		c0.6,0,1-0.2,1.4-0.5s0.6-0.8,0.8-1.3s0.3-1.1,0.4-1.8c0.1-0.6,0.1-1.3,0.1-1.9c0-0.8,0-1.6-0.1-2.3s-0.2-1.3-0.4-1.8
		s-0.5-0.9-0.8-1.2s-0.8-0.4-1.3-0.4c-0.6,0-1.1,0.2-1.5,0.5c-0.4,0.4-0.6,0.8-0.8,1.4c-0.2,0.5-0.3,1.2-0.4,1.8
		C53.6,168.4,53.5,169,53.5,169.6z"/>
</g>
<g class="st1">
	<path d="M41.2,222l3.6-3.6c0.4-0.4,0.8-0.8,1.1-1.2c0.4-0.4,0.7-0.8,1-1.2c0.4-0.5,0.7-1,0.8-1.4s0.2-0.7,0.2-1.1
		c0-0.2,0-0.4-0.1-0.6c0-0.3-0.1-0.5-0.3-0.7s-0.4-0.4-0.7-0.6c-0.3-0.2-0.7-0.3-1.2-0.3c-0.6,0-1,0.1-1.3,0.3s-0.5,0.4-0.7,0.7
		s-0.2,0.5-0.3,0.8c0,0.3,0,0.5,0,0.6h-2.1c0-0.2,0-0.4,0-0.6c0-0.2,0.1-0.5,0.2-0.8c0.1-0.3,0.2-0.5,0.4-0.8s0.4-0.6,0.7-0.8
		c0.5-0.4,1-0.7,1.5-0.8s1-0.2,1.5-0.2s1.1,0.1,1.6,0.2s1,0.4,1.4,0.7s0.7,0.7,1,1.2c0.2,0.5,0.4,1.1,0.4,1.9c0,0.2,0,0.4,0,0.6
		c0,0.2-0.1,0.4-0.2,0.7s-0.3,0.6-0.5,0.9c-0.2,0.3-0.5,0.7-0.9,1.2c-0.1,0.1-0.3,0.3-0.5,0.6s-0.5,0.5-0.8,0.8s-0.5,0.5-0.8,0.8
		c-0.2,0.3-0.4,0.4-0.5,0.5l-2.4,2.3h6.6v1.6h-8.8L41.2,222L41.2,222z"/>
	<path d="M52.2,217c0-0.3,0-0.8,0-1.3s0.1-1,0.2-1.6s0.2-1.1,0.4-1.6s0.5-1,0.8-1.5s0.8-0.8,1.3-1s1.1-0.4,1.9-0.4
		c0.7,0,1.3,0.1,1.8,0.3s0.9,0.5,1.3,0.9c0.3,0.4,0.6,0.8,0.8,1.3s0.4,1,0.5,1.5s0.2,1,0.2,1.6s0.1,1,0.1,1.4c0,1.6-0.2,3-0.5,3.9
		c-0.3,1-0.8,1.8-1.4,2.4c-0.2,0.2-0.5,0.4-0.8,0.5s-0.5,0.2-0.8,0.3c-0.2,0.1-0.5,0.1-0.7,0.2c-0.2,0-0.4,0-0.6,0
		c-0.5,0-0.9-0.1-1.3-0.2c-0.4-0.1-0.7-0.3-1-0.5s-0.6-0.5-0.8-0.7c-0.2-0.3-0.4-0.6-0.6-0.9c-0.2-0.5-0.4-1-0.6-1.8
		C52.3,219.3,52.2,218.3,52.2,217z M54.1,216.9c0,0.8,0,1.5,0.1,2.2s0.2,1.2,0.4,1.7s0.5,0.9,0.8,1.2s0.8,0.4,1.3,0.4
		c0.6,0,1-0.2,1.4-0.5s0.6-0.8,0.8-1.3s0.3-1.1,0.4-1.8c0.1-0.6,0.1-1.3,0.1-1.9c0-0.8,0-1.6-0.1-2.3s-0.2-1.3-0.4-1.8
		s-0.5-0.9-0.8-1.2s-0.8-0.4-1.3-0.4c-0.6,0-1.1,0.2-1.5,0.5c-0.4,0.4-0.6,0.8-0.8,1.4c-0.2,0.5-0.3,1.2-0.4,1.8
		C54.1,215.7,54.1,216.3,54.1,216.9z"/>
</g>
<g class="st1">
	<path d="M43.1,267.2c0,0.7,0.2,1.2,0.6,1.6s1.1,0.6,1.9,0.6c0.5,0,0.9-0.1,1.2-0.2c0.4-0.1,0.6-0.3,0.9-0.6
		c0.2-0.2,0.4-0.5,0.5-0.8s0.2-0.6,0.2-0.9c0-0.4-0.1-0.7-0.2-1c-0.1-0.3-0.3-0.5-0.4-0.7c-0.2-0.2-0.4-0.4-0.6-0.5
		c-0.2-0.1-0.5-0.2-0.7-0.3c-0.4-0.1-0.7-0.1-1-0.1s-0.6,0-1,0v-1.6c0.3,0,0.7,0,1.2,0s0.8-0.1,1.2-0.3c0.4-0.2,0.7-0.4,1-0.8
		c0.3-0.3,0.4-0.8,0.4-1.3c0-0.8-0.2-1.3-0.7-1.7c-0.5-0.4-1-0.5-1.7-0.5c-0.3,0-0.5,0-0.8,0.1s-0.5,0.2-0.8,0.4
		c-0.2,0.2-0.4,0.4-0.6,0.7s-0.3,0.6-0.3,1.1h-2c0-0.9,0.2-1.5,0.6-2c0.4-0.5,0.8-0.9,1.3-1.1c0.5-0.3,1-0.4,1.5-0.5
		s0.9-0.1,1.2-0.1c0.8,0,1.4,0.1,2,0.3c0.6,0.2,1,0.5,1.4,0.8c0.4,0.4,0.7,0.8,0.8,1.2c0.2,0.4,0.3,0.9,0.3,1.4c0,0.3,0,0.6-0.1,0.9
		s-0.2,0.7-0.5,1c-0.2,0.3-0.5,0.6-0.9,0.8c-0.4,0.2-0.8,0.4-1.3,0.6c0.7,0.1,1.3,0.3,1.7,0.7c0.4,0.3,0.7,0.7,0.9,1.1
		s0.3,0.7,0.3,1s0.1,0.5,0.1,0.6c0,0.5-0.1,1-0.3,1.5s-0.5,0.9-0.9,1.3s-0.9,0.7-1.5,1c-0.6,0.2-1.3,0.4-2.1,0.4
		c-0.7,0-1.4-0.1-2.1-0.3c-0.7-0.2-1.2-0.6-1.7-1.1c-0.2-0.2-0.4-0.4-0.5-0.7c-0.1-0.2-0.2-0.5-0.2-0.7c-0.1-0.2-0.1-0.4-0.1-0.6
		s0-0.4,0-0.5h1.8C43.1,267.4,43.1,267.2,43.1,267.2z"/>
	<path d="M52.2,264c0-0.3,0-0.8,0-1.3s0.1-1,0.2-1.6s0.2-1.1,0.4-1.6s0.5-1,0.8-1.5s0.8-0.8,1.3-1c0.5-0.2,1.1-0.4,1.9-0.4
		c0.7,0,1.3,0.1,1.8,0.3c0.5,0.2,0.9,0.5,1.3,0.9c0.3,0.4,0.6,0.8,0.8,1.3s0.4,1,0.5,1.5s0.2,1,0.2,1.6s0.1,1,0.1,1.4
		c0,1.6-0.2,3-0.5,3.9c-0.3,1-0.8,1.8-1.4,2.4c-0.2,0.2-0.5,0.4-0.8,0.5s-0.5,0.2-0.8,0.3c-0.2,0.1-0.5,0.1-0.7,0.2
		c-0.2,0-0.4,0-0.6,0c-0.5,0-0.9-0.1-1.3-0.2c-0.4-0.1-0.7-0.3-1-0.5s-0.6-0.5-0.8-0.7c-0.2-0.3-0.4-0.6-0.6-0.9
		c-0.2-0.5-0.4-1-0.6-1.8C52.3,266.3,52.2,265.3,52.2,264z M54.1,263.9c0,0.8,0,1.5,0.1,2.2s0.2,1.2,0.4,1.7s0.5,0.9,0.8,1.2
		c0.3,0.3,0.8,0.4,1.3,0.4c0.6,0,1-0.2,1.4-0.5s0.6-0.8,0.8-1.3s0.3-1.1,0.4-1.8c0.1-0.6,0.1-1.3,0.1-1.9c0-0.8,0-1.6-0.1-2.3
		s-0.2-1.3-0.4-1.8s-0.5-0.9-0.8-1.2c-0.3-0.3-0.8-0.4-1.3-0.4c-0.6,0-1.1,0.2-1.5,0.5c-0.4,0.4-0.6,0.8-0.8,1.4
		c-0.2,0.5-0.3,1.2-0.4,1.8C54.1,262.7,54.1,263.3,54.1,263.9z"/>
</g>
<g class="st1">
	<path d="M47,312.8h-6.2v-2.4l6-8.6H49v9.4h2v1.6h-2v3h-1.9L47,312.8L47,312.8z M47,311.2v-7.3l-4.8,7.3H47z"/>
	<path d="M52.2,309c0-0.3,0-0.8,0-1.3s0.1-1,0.2-1.6s0.2-1.1,0.4-1.6s0.5-1,0.8-1.5s0.8-0.8,1.3-1s1.1-0.4,1.9-0.4
		c0.7,0,1.3,0.1,1.8,0.3c0.5,0.2,0.9,0.5,1.3,0.9c0.3,0.4,0.6,0.8,0.8,1.3s0.4,1,0.5,1.5s0.2,1,0.2,1.6s0.1,1,0.1,1.4
		c0,1.6-0.2,3-0.5,3.9c-0.3,1-0.8,1.8-1.4,2.4c-0.2,0.2-0.5,0.4-0.8,0.5s-0.5,0.2-0.8,0.3c-0.2,0.1-0.5,0.1-0.7,0.2
		c-0.2,0-0.4,0-0.6,0c-0.5,0-0.9-0.1-1.3-0.2c-0.4-0.1-0.7-0.3-1-0.5s-0.6-0.5-0.8-0.7c-0.2-0.3-0.4-0.6-0.6-0.9
		c-0.2-0.5-0.4-1-0.6-1.8C52.3,311.3,52.2,310.3,52.2,309z M54.1,308.9c0,0.8,0,1.5,0.1,2.2s0.2,1.2,0.4,1.7s0.5,0.9,0.8,1.2
		c0.3,0.3,0.8,0.4,1.3,0.4c0.6,0,1-0.2,1.4-0.5s0.6-0.8,0.8-1.3s0.3-1.1,0.4-1.8c0.1-0.6,0.1-1.3,0.1-1.9c0-0.8,0-1.6-0.1-2.3
		s-0.2-1.3-0.4-1.8s-0.5-0.9-0.8-1.2c-0.3-0.3-0.8-0.4-1.3-0.4c-0.6,0-1.1,0.2-1.5,0.5c-0.4,0.4-0.6,0.8-0.8,1.4
		c-0.2,0.5-0.3,1.2-0.4,1.8C54.1,307.7,54.1,308.3,54.1,308.9z"/>
</g>
<g class="st1">
	<path d="M43.4,360.9c0,0.3,0.1,0.6,0.2,0.9c0.1,0.2,0.3,0.4,0.5,0.6s0.5,0.3,0.7,0.4c0.3,0.1,0.5,0.1,0.8,0.1
		c0.6,0,1.1-0.1,1.5-0.4c0.4-0.2,0.6-0.5,0.8-0.9c0.2-0.3,0.3-0.7,0.4-1s0.1-0.7,0.1-0.9c0-0.9-0.2-1.7-0.7-2.2s-1.1-0.8-1.9-0.8
		c-0.4,0-0.8,0.1-1.1,0.2s-0.6,0.3-0.8,0.5s-0.4,0.4-0.4,0.6c-0.1,0.2-0.1,0.4-0.2,0.5h-1.8l0.4-8.2h7.8v1.6h-6.1l-0.3,4.5
		c0.1-0.1,0.2-0.2,0.4-0.4c0.2-0.1,0.4-0.3,0.6-0.4c0.2-0.1,0.5-0.2,0.8-0.3c0.3-0.1,0.7-0.1,1.1-0.1c0.7,0,1.3,0.1,1.8,0.4
		s1,0.6,1.3,1s0.6,0.9,0.8,1.5s0.3,1.1,0.3,1.7c0,0.7-0.1,1.3-0.4,1.9c-0.2,0.6-0.6,1.1-1,1.5s-0.9,0.8-1.5,1s-1.3,0.4-2,0.4
		c-0.6,0-1.1-0.1-1.6-0.2s-0.9-0.4-1.3-0.7c-0.4-0.3-0.7-0.7-0.9-1.1c-0.2-0.5-0.3-1-0.4-1.6h2.1C43.4,361,43.4,360.9,43.4,360.9z"
		/>
	<path d="M52.2,357.4c0-0.3,0-0.8,0-1.3s0.1-1,0.2-1.6s0.2-1.1,0.4-1.6s0.5-1,0.8-1.5s0.8-0.8,1.3-1s1.1-0.4,1.9-0.4
		c0.7,0,1.3,0.1,1.8,0.3c0.5,0.2,0.9,0.5,1.3,0.9c0.3,0.4,0.6,0.8,0.8,1.3s0.4,1,0.5,1.5s0.2,1,0.2,1.6s0.1,1,0.1,1.4
		c0,1.6-0.2,3-0.5,3.9c-0.3,1-0.8,1.8-1.4,2.4c-0.2,0.2-0.5,0.4-0.8,0.5s-0.5,0.2-0.8,0.3c-0.2,0.1-0.5,0.1-0.7,0.2
		c-0.2,0-0.4,0-0.6,0c-0.5,0-0.9-0.1-1.3-0.2c-0.4-0.1-0.7-0.3-1-0.5s-0.6-0.5-0.8-0.7c-0.2-0.3-0.4-0.6-0.6-0.9
		c-0.2-0.5-0.4-1-0.6-1.8C52.3,359.6,52.2,358.6,52.2,357.4z M54.1,357.3c0,0.8,0,1.5,0.1,2.2s0.2,1.2,0.4,1.7s0.5,0.9,0.8,1.2
		c0.3,0.3,0.8,0.4,1.3,0.4c0.6,0,1-0.2,1.4-0.5s0.6-0.8,0.8-1.3s0.3-1.1,0.4-1.8c0.1-0.6,0.1-1.3,0.1-1.9c0-0.8,0-1.6-0.1-2.3
		s-0.2-1.3-0.4-1.8s-0.5-0.9-0.8-1.2c-0.3-0.3-0.8-0.4-1.3-0.4c-0.6,0-1.1,0.2-1.5,0.5c-0.4,0.4-0.6,0.8-0.8,1.4
		c-0.2,0.5-0.3,1.2-0.4,1.8C54.1,356,54.1,356.7,54.1,357.3z"/>
</g>
<g class="st1">
	<path d="M48.3,402.2c0-0.4-0.1-0.7-0.2-1c-0.1-0.3-0.3-0.5-0.5-0.6c-0.2-0.2-0.4-0.3-0.7-0.3c-0.2-0.1-0.5-0.1-0.7-0.1
		c-1,0-1.7,0.4-2.2,1.3s-0.8,2.2-0.9,4.1c0.1-0.2,0.2-0.3,0.4-0.5s0.4-0.4,0.6-0.6c0.3-0.2,0.6-0.3,0.9-0.5c0.4-0.1,0.8-0.2,1.3-0.2
		c0.6,0,1.1,0.1,1.6,0.3c0.5,0.2,1,0.5,1.3,0.8c0.4,0.4,0.7,0.8,0.9,1.4s0.3,1.2,0.3,1.9c0,0.8-0.1,1.5-0.4,2.1
		c-0.3,0.6-0.6,1.1-1,1.5s-0.9,0.7-1.5,0.9s-1.1,0.3-1.7,0.3c-0.7,0-1.3-0.1-1.9-0.4s-1.1-0.6-1.5-1.1c-0.3-0.3-0.5-0.7-0.6-1.1
		c-0.2-0.4-0.3-0.8-0.4-1.3c-0.1-0.4-0.2-0.9-0.2-1.4s0-0.9,0-1.3c0-0.5,0-1,0.1-1.6s0.1-1.2,0.3-1.7s0.3-1.1,0.6-1.7
		c0.2-0.5,0.6-1,0.9-1.4s0.8-0.7,1.4-1c0.5-0.2,1.2-0.4,1.9-0.4c0.5,0,0.9,0,1.2,0.1c0.4,0.1,0.7,0.2,0.9,0.3
		c0.3,0.1,0.5,0.3,0.7,0.4c0.2,0.2,0.3,0.3,0.5,0.4c0.2,0.2,0.3,0.4,0.4,0.6c0.1,0.2,0.2,0.4,0.2,0.6s0.1,0.4,0.1,0.6s0,0.3,0,0.5
		h-2.1C48.3,402.1,48.3,402.2,48.3,402.2z M46,411.6c0.3,0,0.6-0.1,0.9-0.2c0.3-0.1,0.6-0.3,0.9-0.6c0.3-0.3,0.5-0.6,0.6-1
		c0.2-0.4,0.2-0.9,0.2-1.4c0-0.2,0-0.5-0.1-0.9s-0.2-0.7-0.4-1s-0.4-0.6-0.8-0.8s-0.8-0.3-1.4-0.3c-0.5,0-0.9,0.1-1.2,0.3
		c-0.3,0.2-0.6,0.4-0.9,0.7c-0.2,0.3-0.4,0.6-0.5,1s-0.2,0.8-0.2,1.2c0,0.5,0.1,0.9,0.2,1.2s0.3,0.7,0.6,1c0.2,0.3,0.5,0.5,0.8,0.6
		S45.6,411.6,46,411.6z"/>
	<path d="M52.2,406c0-0.3,0-0.8,0-1.3s0.1-1,0.2-1.6s0.2-1.1,0.4-1.6s0.5-1,0.8-1.5s0.8-0.8,1.3-1s1.1-0.4,1.9-0.4
		c0.7,0,1.3,0.1,1.8,0.3c0.5,0.2,0.9,0.5,1.3,0.9c0.3,0.4,0.6,0.8,0.8,1.3s0.4,1,0.5,1.5s0.2,1,0.2,1.6s0.1,1,0.1,1.4
		c0,1.6-0.2,3-0.5,3.9c-0.3,1-0.8,1.8-1.4,2.4c-0.2,0.2-0.5,0.4-0.8,0.5s-0.5,0.2-0.8,0.3c-0.2,0.1-0.5,0.1-0.7,0.2
		c-0.2,0-0.4,0-0.6,0c-0.5,0-0.9-0.1-1.3-0.2c-0.4-0.1-0.7-0.3-1-0.5s-0.6-0.5-0.8-0.7c-0.2-0.3-0.4-0.6-0.6-0.9
		c-0.2-0.5-0.4-1-0.6-1.8C52.3,408.3,52.2,407.3,52.2,406z M54.1,405.9c0,0.8,0,1.5,0.1,2.2s0.2,1.2,0.4,1.7s0.5,0.9,0.8,1.2
		c0.3,0.3,0.8,0.4,1.3,0.4c0.6,0,1-0.2,1.4-0.5s0.6-0.8,0.8-1.3s0.3-1.1,0.4-1.8c0.1-0.6,0.1-1.3,0.1-1.9c0-0.8,0-1.6-0.1-2.3
		s-0.2-1.3-0.4-1.8s-0.5-0.9-0.8-1.2c-0.3-0.3-0.8-0.4-1.3-0.4c-0.6,0-1.1,0.2-1.5,0.5c-0.4,0.4-0.6,0.8-0.8,1.4
		c-0.2,0.5-0.3,1.2-0.4,1.8C54.1,404.7,54.1,405.3,54.1,405.9z"/>
</g>
<g class="st1">
	<path d="M40.9,444.6H50v1.7l-5.1,12.2h-2.3l5.3-12.2h-7.1L40.9,444.6L40.9,444.6z"/>
	<path d="M52.2,451.7c0-0.3,0-0.8,0-1.3s0.1-1,0.2-1.6s0.2-1.1,0.4-1.6s0.5-1,0.8-1.5s0.8-0.8,1.3-1s1.1-0.4,1.9-0.4
		c0.7,0,1.3,0.1,1.8,0.3c0.5,0.2,0.9,0.5,1.3,0.9c0.3,0.4,0.6,0.8,0.8,1.3s0.4,1,0.5,1.5s0.2,1,0.2,1.6s0.1,1,0.1,1.4
		c0,1.6-0.2,3-0.5,3.9c-0.3,1-0.8,1.8-1.4,2.4c-0.2,0.2-0.5,0.4-0.8,0.5s-0.5,0.2-0.8,0.3c-0.2,0.1-0.5,0.1-0.7,0.2
		c-0.2,0-0.4,0-0.6,0c-0.5,0-0.9-0.1-1.3-0.2c-0.4-0.1-0.7-0.3-1-0.5s-0.6-0.5-0.8-0.7c-0.2-0.3-0.4-0.6-0.6-0.9
		c-0.2-0.5-0.4-1-0.6-1.8C52.3,453.9,52.2,453,52.2,451.7z M54.1,451.6c0,0.8,0,1.5,0.1,2.2s0.2,1.2,0.4,1.7s0.5,0.9,0.8,1.2
		c0.3,0.3,0.8,0.4,1.3,0.4c0.6,0,1-0.2,1.4-0.5s0.6-0.8,0.8-1.3s0.3-1.1,0.4-1.8c0.1-0.6,0.1-1.3,0.1-1.9c0-0.8,0-1.6-0.1-2.3
		s-0.2-1.3-0.4-1.8s-0.5-0.9-0.8-1.2c-0.3-0.3-0.8-0.4-1.3-0.4c-0.6,0-1.1,0.2-1.5,0.5c-0.4,0.4-0.6,0.8-0.8,1.4
		c-0.2,0.5-0.3,1.2-0.4,1.8C54.1,450.4,54.1,451,54.1,451.6z"/>
</g>
<g class="st1">
	<path d="M44,501.8c-0.9-0.2-1.6-0.6-2.1-1.2s-0.7-1.2-0.7-1.9c0-0.3,0.1-0.7,0.2-1.1c0.1-0.4,0.4-0.8,0.7-1.2
		c0.3-0.4,0.8-0.7,1.4-1s1.3-0.4,2.2-0.4c0.7,0,1.4,0.1,2,0.3c0.6,0.2,1,0.4,1.4,0.8c0.4,0.3,0.7,0.7,0.9,1.2
		c0.2,0.4,0.3,0.9,0.3,1.5c0,0.3-0.1,0.7-0.2,1c-0.1,0.3-0.3,0.6-0.5,0.9s-0.5,0.5-0.9,0.7s-0.8,0.4-1.3,0.4
		c0.2,0.1,0.5,0.1,0.8,0.3s0.7,0.3,1,0.6c0.3,0.3,0.6,0.6,0.8,1s0.4,1,0.4,1.6c0,0.5-0.1,1-0.3,1.4c-0.2,0.5-0.4,0.9-0.8,1.3
		c-0.4,0.4-0.9,0.7-1.5,1c-0.6,0.2-1.3,0.4-2.2,0.4c-0.6,0-1.2-0.1-1.9-0.2s-1.2-0.5-1.7-0.9c-0.4-0.3-0.7-0.8-0.9-1.3
		s-0.3-1-0.3-1.5s0.1-0.9,0.3-1.4c0.2-0.4,0.4-0.8,0.8-1.2c0.3-0.3,0.7-0.6,1-0.7C43.4,502.1,43.7,501.9,44,501.8z M42.9,505.3
		c0,0.3,0,0.5,0.1,0.8s0.2,0.6,0.5,0.8c0.2,0.3,0.5,0.5,0.9,0.6c0.4,0.2,0.8,0.2,1.3,0.2c0.6,0,1-0.1,1.4-0.3
		c0.4-0.2,0.6-0.4,0.8-0.7c0.2-0.3,0.4-0.5,0.4-0.8c0.1-0.3,0.1-0.6,0.1-0.9c0-0.8-0.3-1.4-0.8-1.8c-0.5-0.5-1.2-0.7-2-0.7
		c-0.4,0-0.8,0.1-1.2,0.2c-0.3,0.1-0.6,0.3-0.9,0.5c-0.2,0.2-0.4,0.5-0.6,0.8C43,504.6,42.9,504.9,42.9,505.3z M48.4,498.7
		c0-0.6-0.2-1.2-0.7-1.6c-0.4-0.4-1.1-0.6-1.9-0.6c-0.4,0-0.7,0.1-1,0.2s-0.6,0.3-0.8,0.4c-0.2,0.2-0.4,0.4-0.5,0.7
		c-0.1,0.3-0.2,0.6-0.2,0.9s0.1,0.6,0.2,0.9c0.1,0.3,0.3,0.5,0.5,0.7s0.5,0.4,0.8,0.5s0.7,0.2,1,0.2c0.8,0,1.4-0.2,1.9-0.6
		C48.1,499.9,48.4,499.4,48.4,498.7z"/>
	<path d="M52.2,502.4c0-0.3,0-0.8,0-1.3s0.1-1,0.2-1.6s0.2-1.1,0.4-1.6s0.5-1,0.8-1.5s0.8-0.8,1.3-1s1.1-0.4,1.9-0.4
		c0.7,0,1.3,0.1,1.8,0.3c0.5,0.2,0.9,0.5,1.3,0.9c0.3,0.4,0.6,0.8,0.8,1.3s0.4,1,0.5,1.5s0.2,1,0.2,1.6s0.1,1,0.1,1.4
		c0,1.6-0.2,3-0.5,3.9c-0.3,1-0.8,1.8-1.4,2.4c-0.2,0.2-0.5,0.4-0.8,0.5s-0.5,0.2-0.8,0.3c-0.2,0.1-0.5,0.1-0.7,0.2
		c-0.2,0-0.4,0-0.6,0c-0.5,0-0.9-0.1-1.3-0.2c-0.4-0.1-0.7-0.3-1-0.5s-0.6-0.5-0.8-0.7c-0.2-0.3-0.4-0.6-0.6-0.9
		c-0.2-0.5-0.4-1-0.6-1.8C52.3,504.6,52.2,503.6,52.2,502.4z M54.1,502.3c0,0.8,0,1.5,0.1,2.2s0.2,1.2,0.4,1.7s0.5,0.9,0.8,1.2
		c0.3,0.3,0.8,0.4,1.3,0.4c0.6,0,1-0.2,1.4-0.5s0.6-0.8,0.8-1.3s0.3-1.1,0.4-1.8c0.1-0.6,0.1-1.3,0.1-1.9c0-0.8,0-1.6-0.1-2.3
		s-0.2-1.3-0.4-1.8s-0.5-0.9-0.8-1.2c-0.3-0.3-0.8-0.4-1.3-0.4c-0.6,0-1.1,0.2-1.5,0.5c-0.4,0.4-0.6,0.8-0.8,1.4
		c-0.2,0.5-0.3,1.2-0.4,1.8C54.1,501,54.1,501.7,54.1,502.3z"/>
</g>
<g class="st1">
	<path d="M43.2,551.8c0,0.6,0.2,1.1,0.5,1.5s0.9,0.6,1.7,0.6s1.3-0.2,1.8-0.6c0.4-0.4,0.7-0.9,0.9-1.5s0.3-1.2,0.3-1.9s0-1.3,0-1.8
		c-0.2,0.3-0.4,0.6-0.6,0.8c-0.2,0.2-0.5,0.4-0.8,0.5s-0.6,0.2-0.9,0.3c-0.3,0.1-0.6,0.1-0.8,0.1c-0.5,0-1.1-0.1-1.6-0.3
		s-1-0.5-1.3-0.8c-0.4-0.4-0.7-0.8-0.9-1.4c-0.2-0.5-0.4-1.2-0.4-1.9c0-0.8,0.1-1.5,0.4-2c0.3-0.6,0.6-1,1-1.4s0.9-0.6,1.4-0.8
		s1.1-0.2,1.6-0.2c0.4,0,0.8,0,1.2,0.1s0.9,0.3,1.3,0.5c0.4,0.2,0.8,0.6,1.2,1s0.6,1,0.8,1.7c0.1,0.4,0.2,0.9,0.3,1.5
		s0.1,1.3,0.1,2.2c0,0.3,0,0.8,0,1.2c0,0.5-0.1,1-0.2,1.6c-0.1,0.5-0.3,1.1-0.5,1.6s-0.5,1-0.9,1.4s-0.9,0.8-1.4,1
		c-0.6,0.3-1.3,0.4-2.1,0.4c-0.5,0-0.9-0.1-1.4-0.2c-0.5-0.1-0.9-0.3-1.3-0.6c-0.4-0.3-0.7-0.6-1-1.1s-0.4-1.1-0.4-1.8h2
		C43.2,551.5,43.2,551.8,43.2,551.8z M48.2,545.5c0-0.5-0.1-0.9-0.2-1.3c-0.1-0.4-0.3-0.7-0.6-0.9s-0.5-0.4-0.9-0.6
		c-0.3-0.1-0.6-0.2-1-0.2s-0.8,0.1-1.1,0.2c-0.3,0.2-0.6,0.4-0.8,0.6c-0.2,0.3-0.4,0.6-0.5,0.9c-0.1,0.4-0.2,0.7-0.2,1.2
		c0,0.9,0.2,1.6,0.7,2.1s1.1,0.7,1.9,0.7c0.8,0,1.4-0.3,1.9-0.8C47.9,547.1,48.2,546.4,48.2,545.5z"/>
	<path d="M52.2,548.4c0-0.3,0-0.8,0-1.3s0.1-1,0.2-1.6s0.2-1.1,0.4-1.6s0.5-1,0.8-1.5s0.8-0.8,1.3-1s1.1-0.4,1.9-0.4
		c0.7,0,1.3,0.1,1.8,0.3s0.9,0.5,1.3,0.9c0.3,0.4,0.6,0.8,0.8,1.3s0.4,1,0.5,1.5s0.2,1,0.2,1.6s0.1,1,0.1,1.4c0,1.6-0.2,3-0.5,3.9
		c-0.3,1-0.8,1.8-1.4,2.4c-0.2,0.2-0.5,0.4-0.8,0.5s-0.5,0.2-0.8,0.3c-0.2,0.1-0.5,0.1-0.7,0.2c-0.2,0-0.4,0-0.6,0
		c-0.5,0-0.9-0.1-1.3-0.2c-0.4-0.1-0.7-0.3-1-0.5s-0.6-0.5-0.8-0.7c-0.2-0.3-0.4-0.6-0.6-0.9c-0.2-0.5-0.4-1-0.6-1.8
		C52.3,550.6,52.2,549.6,52.2,548.4z M54.1,548.3c0,0.8,0,1.5,0.1,2.2s0.2,1.2,0.4,1.7s0.5,0.9,0.8,1.2s0.8,0.4,1.3,0.4
		c0.6,0,1-0.2,1.4-0.5s0.6-0.8,0.8-1.3s0.3-1.1,0.4-1.8c0.1-0.6,0.1-1.3,0.1-1.9c0-0.8,0-1.6-0.1-2.3s-0.2-1.3-0.4-1.8
		s-0.5-0.9-0.8-1.2s-0.8-0.4-1.3-0.4c-0.6,0-1.1,0.2-1.5,0.5c-0.4,0.4-0.6,0.8-0.8,1.4c-0.2,0.5-0.3,1.2-0.4,1.8
		C54.1,547,54.1,547.7,54.1,548.3z"/>
</g>
<g class="st1">
	<path d="M35.9,590.5c-0.2,0.2-0.5,0.4-0.7,0.6c-0.3,0.2-0.6,0.4-0.8,0.5c-0.3,0.2-0.6,0.3-0.9,0.5c-0.3,0.2-0.6,0.3-0.8,0.4v-2
		c0.7-0.3,1.3-0.7,1.9-1.1s1.1-0.7,1.5-1.1h1.7v13.8h-1.9V590.5z"/>
	<path d="M41.5,595.4c0-0.3,0-0.8,0-1.3s0.1-1,0.2-1.6s0.2-1.1,0.4-1.6s0.5-1,0.8-1.5s0.8-0.8,1.3-1s1.1-0.4,1.9-0.4
		c0.7,0,1.3,0.1,1.8,0.3s0.9,0.5,1.3,0.9c0.3,0.4,0.6,0.8,0.8,1.3s0.4,1,0.5,1.5s0.2,1,0.2,1.6s0.1,1,0.1,1.4c0,1.6-0.2,3-0.5,3.9
		c-0.3,1-0.8,1.8-1.4,2.4c-0.2,0.2-0.5,0.4-0.8,0.5s-0.5,0.2-0.8,0.3c-0.2,0.1-0.5,0.1-0.7,0.2c-0.2,0-0.4,0-0.6,0
		c-0.5,0-0.9-0.1-1.3-0.2c-0.4-0.1-0.7-0.3-1-0.5s-0.6-0.5-0.8-0.7c-0.2-0.3-0.4-0.6-0.6-0.9c-0.2-0.5-0.4-1-0.6-1.8
		C41.6,597.6,41.5,596.6,41.5,595.4z M43.4,595.3c0,0.8,0,1.5,0.1,2.2s0.2,1.2,0.4,1.7s0.5,0.9,0.8,1.2s0.8,0.4,1.3,0.4
		c0.6,0,1-0.2,1.4-0.5s0.6-0.8,0.8-1.3s0.3-1.1,0.4-1.8c0.1-0.6,0.1-1.3,0.1-1.9c0-0.8,0-1.6-0.1-2.3s-0.2-1.3-0.4-1.8
		s-0.5-0.9-0.8-1.2s-0.8-0.4-1.3-0.4c-0.6,0-1.1,0.2-1.5,0.5c-0.4,0.4-0.6,0.8-0.8,1.4c-0.2,0.5-0.3,1.2-0.4,1.8
		C43.5,594,43.4,594.7,43.4,595.3z"/>
	<path d="M52.6,595.4c0-0.3,0-0.8,0-1.3s0.1-1,0.2-1.6s0.2-1.1,0.4-1.6s0.5-1,0.8-1.5s0.8-0.8,1.3-1s1.1-0.4,1.9-0.4
		c0.7,0,1.3,0.1,1.8,0.3s0.9,0.5,1.3,0.9c0.3,0.4,0.6,0.8,0.8,1.3s0.4,1,0.5,1.5s0.2,1,0.2,1.6s0.1,1,0.1,1.4c0,1.6-0.2,3-0.5,3.9
		c-0.3,1-0.8,1.8-1.4,2.4c-0.2,0.2-0.5,0.4-0.8,0.5s-0.5,0.2-0.8,0.3c-0.2,0.1-0.5,0.1-0.7,0.2c-0.2,0-0.4,0-0.6,0
		c-0.5,0-0.9-0.1-1.3-0.2c-0.4-0.1-0.7-0.3-1-0.5s-0.6-0.5-0.8-0.7c-0.2-0.3-0.4-0.6-0.6-0.9c-0.2-0.5-0.4-1-0.6-1.8
		C52.7,597.6,52.6,596.6,52.6,595.4z M54.6,595.3c0,0.8,0,1.5,0.1,2.2s0.2,1.2,0.4,1.7s0.5,0.9,0.8,1.2s0.8,0.4,1.3,0.4
		c0.6,0,1-0.2,1.4-0.5s0.6-0.8,0.8-1.3s0.3-1.1,0.4-1.8c0.1-0.6,0.1-1.3,0.1-1.9c0-0.8,0-1.6-0.1-2.3s-0.2-1.3-0.4-1.8
		s-0.5-0.9-0.8-1.2s-0.8-0.4-1.3-0.4c-0.6,0-1.1,0.2-1.5,0.5c-0.4,0.4-0.6,0.8-0.8,1.4c-0.2,0.5-0.3,1.2-0.4,1.8
		C54.6,594,54.6,594.7,54.6,595.3z"/>
</g>
<g class="st1">
	<path d="M37,638.1c-0.2,0.2-0.5,0.4-0.7,0.6c-0.3,0.2-0.6,0.4-0.8,0.5c-0.3,0.2-0.6,0.3-0.9,0.5c-0.3,0.2-0.6,0.3-0.8,0.4v-2
		c0.7-0.3,1.3-0.7,1.9-1.1s1.1-0.7,1.5-1.1H39v13.8h-1.9L37,638.1L37,638.1z"/>
	<path d="M45.4,638.1c-0.2,0.2-0.5,0.4-0.7,0.6c-0.3,0.2-0.6,0.4-0.8,0.5c-0.3,0.2-0.6,0.3-0.9,0.5c-0.3,0.2-0.6,0.3-0.8,0.4v-2
		c0.7-0.3,1.3-0.7,1.9-1.1s1.1-0.7,1.5-1.1h1.8v13.8h-1.9L45.4,638.1L45.4,638.1z"/>
	<path d="M51,643c0-0.3,0-0.8,0-1.3s0.1-1,0.2-1.6s0.2-1.1,0.4-1.6s0.5-1,0.8-1.5s0.8-0.8,1.3-1s1.1-0.4,1.9-0.4
		c0.7,0,1.3,0.1,1.8,0.3s0.9,0.5,1.3,0.9c0.3,0.4,0.6,0.8,0.8,1.3s0.4,1,0.5,1.5s0.2,1,0.2,1.6s0.1,1,0.1,1.4c0,1.6-0.2,3-0.5,3.9
		c-0.3,1-0.8,1.8-1.4,2.4c-0.2,0.2-0.5,0.4-0.8,0.5s-0.5,0.2-0.8,0.3c-0.2,0.1-0.5,0.1-0.7,0.2c-0.2,0-0.4,0-0.6,0
		c-0.5,0-0.9-0.1-1.3-0.2c-0.4-0.1-0.7-0.3-1-0.5s-0.6-0.5-0.8-0.7c-0.2-0.3-0.4-0.6-0.6-0.9c-0.2-0.5-0.4-1-0.6-1.8
		C51.1,645.3,51,644.3,51,643z M53,642.9c0,0.8,0,1.5,0.1,2.2s0.2,1.2,0.4,1.7s0.5,0.9,0.8,1.2s0.8,0.4,1.3,0.4c0.6,0,1-0.2,1.4-0.5
		s0.6-0.8,0.8-1.3s0.3-1.1,0.4-1.8c0.1-0.6,0.1-1.3,0.1-1.9c0-0.8,0-1.6-0.1-2.3s-0.2-1.3-0.4-1.8s-0.5-0.9-0.8-1.2
		s-0.8-0.4-1.3-0.4c-0.6,0-1.1,0.2-1.5,0.5c-0.4,0.4-0.6,0.8-0.8,1.4c-0.2,0.5-0.3,1.2-0.4,1.8C53,641.7,53,642.3,53,642.9z"/>
</g>
<g class="st1">
	<path d="M211,54.5c0,0.3,0.1,0.6,0.2,0.9c0.1,0.2,0.3,0.4,0.5,0.6c0.2,0.2,0.5,0.3,0.7,0.4c0.3,0.1,0.5,0.1,0.8,0.1
		c0.6,0,1.1-0.1,1.5-0.4c0.4-0.2,0.6-0.5,0.8-0.9c0.2-0.3,0.3-0.7,0.4-1c0.1-0.3,0.1-0.7,0.1-0.9c0-0.9-0.2-1.7-0.7-2.2
		s-1.1-0.8-1.9-0.8c-0.4,0-0.8,0.1-1.1,0.2c-0.3,0.1-0.6,0.3-0.8,0.5s-0.4,0.4-0.4,0.6c-0.1,0.2-0.1,0.4-0.2,0.5h-1.8l0.4-8.2h7.8
		v1.6h-6.1l-0.3,4.5c0.1-0.1,0.2-0.2,0.4-0.4c0.2-0.1,0.4-0.3,0.6-0.4c0.2-0.1,0.5-0.2,0.8-0.3s0.7-0.1,1.1-0.1
		c0.7,0,1.3,0.1,1.8,0.4c0.5,0.3,1,0.6,1.3,1s0.6,0.9,0.8,1.5s0.3,1.1,0.3,1.7c0,0.7-0.1,1.3-0.4,1.9c-0.2,0.6-0.6,1.1-1,1.5
		s-0.9,0.8-1.5,1s-1.3,0.4-2,0.4c-0.6,0-1.1-0.1-1.6-0.2c-0.5-0.1-0.9-0.4-1.3-0.7c-0.4-0.3-0.7-0.7-0.9-1.1c-0.2-0.5-0.3-1-0.4-1.6
		L211,54.5L211,54.5z"/>
	<path d="M219.8,51c0-0.3,0-0.8,0-1.3s0.1-1,0.2-1.6s0.2-1.1,0.4-1.6s0.5-1,0.8-1.5s0.8-0.8,1.3-1s1.1-0.4,1.9-0.4
		c0.7,0,1.3,0.1,1.8,0.3s0.9,0.5,1.3,0.9c0.3,0.4,0.6,0.8,0.8,1.3s0.4,1,0.5,1.5s0.2,1,0.2,1.6s0.1,1,0.1,1.4c0,1.6-0.2,3-0.5,3.9
		c-0.3,1-0.8,1.8-1.4,2.4c-0.2,0.2-0.5,0.4-0.8,0.5s-0.5,0.2-0.8,0.3c-0.2,0.1-0.5,0.1-0.7,0.2c-0.2,0-0.4,0-0.6,0
		c-0.5,0-0.9-0.1-1.3-0.2c-0.4-0.1-0.7-0.3-1-0.5s-0.6-0.5-0.8-0.7c-0.2-0.3-0.4-0.6-0.6-0.9c-0.2-0.5-0.4-1-0.6-1.8
		C219.9,53.3,219.8,52.3,219.8,51z M221.7,50.9c0,0.8,0,1.5,0.1,2.2s0.2,1.2,0.4,1.7s0.5,0.9,0.8,1.2s0.8,0.4,1.3,0.4
		c0.6,0,1-0.2,1.4-0.5s0.6-0.8,0.8-1.3s0.3-1.1,0.4-1.8c0.1-0.6,0.1-1.3,0.1-1.9c0-0.8,0-1.6-0.1-2.3s-0.2-1.3-0.4-1.8
		s-0.5-0.9-0.8-1.2s-0.8-0.4-1.3-0.4c-0.6,0-1.1,0.2-1.5,0.5c-0.4,0.4-0.6,0.8-0.8,1.4c-0.2,0.5-0.3,1.2-0.4,1.8
		C221.8,49.7,221.7,50.3,221.7,50.9z"/>
	<path d="M230.9,51c0-0.3,0-0.8,0-1.3s0.1-1,0.2-1.6s0.2-1.1,0.4-1.6s0.5-1,0.8-1.5s0.8-0.8,1.3-1s1.1-0.4,1.9-0.4
		c0.7,0,1.3,0.1,1.8,0.3s0.9,0.5,1.3,0.9c0.3,0.4,0.6,0.8,0.8,1.3s0.4,1,0.5,1.5s0.2,1,0.2,1.6s0.1,1,0.1,1.4c0,1.6-0.2,3-0.5,3.9
		c-0.3,1-0.8,1.8-1.4,2.4c-0.2,0.2-0.5,0.4-0.8,0.5s-0.5,0.2-0.8,0.3c-0.2,0.1-0.5,0.1-0.7,0.2c-0.2,0-0.4,0-0.6,0
		c-0.5,0-0.9-0.1-1.3-0.2c-0.4-0.1-0.7-0.3-1-0.5s-0.6-0.5-0.8-0.7c-0.2-0.3-0.4-0.6-0.6-0.9c-0.2-0.5-0.4-1-0.6-1.8
		C231,53.3,230.9,52.3,230.9,51z M232.9,50.9c0,0.8,0,1.5,0.1,2.2s0.2,1.2,0.4,1.7s0.5,0.9,0.8,1.2s0.8,0.4,1.3,0.4
		c0.6,0,1-0.2,1.4-0.5s0.6-0.8,0.8-1.3s0.3-1.1,0.4-1.8c0.1-0.6,0.1-1.3,0.1-1.9c0-0.8,0-1.6-0.1-2.3s-0.2-1.3-0.4-1.8
		s-0.5-0.9-0.8-1.2s-0.8-0.4-1.3-0.4c-0.6,0-1.1,0.2-1.5,0.5c-0.4,0.4-0.6,0.8-0.8,1.4c-0.2,0.5-0.3,1.2-0.4,1.8
		C232.9,49.7,232.9,50.3,232.9,50.9z"/>
</g>
<g class="st1">
	<path d="M96.2,56l3.6-3.6c0.4-0.4,0.8-0.8,1.1-1.2c0.4-0.4,0.7-0.8,1-1.2c0.4-0.5,0.7-1,0.8-1.4c0.1-0.4,0.2-0.7,0.2-1.1
		c0-0.2,0-0.4-0.1-0.6c0-0.3-0.1-0.5-0.3-0.7c-0.2-0.2-0.4-0.4-0.7-0.6c-0.3-0.2-0.7-0.3-1.2-0.3c-0.6,0-1,0.1-1.3,0.3
		s-0.3,0.5-0.5,0.7s-0.2,0.5-0.3,0.8c0,0.3,0,0.5,0,0.6h-2.1c0-0.2,0-0.4,0-0.6s0.1-0.5,0.2-0.8s0.2-0.5,0.4-0.8
		c0.2-0.3,0.4-0.6,0.7-0.8c0.5-0.4,1-0.7,1.5-0.8s1-0.2,1.5-0.2s1.1,0.1,1.6,0.2c0.5,0.1,1,0.4,1.4,0.7s0.7,0.7,1,1.2
		c0.2,0.5,0.4,1.1,0.4,1.9c0,0.2,0,0.4,0,0.6c0,0.2-0.1,0.4-0.2,0.7s-0.3,0.6-0.5,0.9c-0.2,0.3-0.5,0.7-0.9,1.2
		c-0.1,0.1-0.3,0.3-0.5,0.6s-0.5,0.5-0.8,0.8s-0.5,0.5-0.8,0.8c-0.2,0.3-0.4,0.4-0.5,0.5l-2.4,2.3h6.6v1.6h-8.8L96.2,56L96.2,56z"/>
	<path d="M109.5,54.5c0,0.3,0.1,0.6,0.2,0.9c0.1,0.2,0.3,0.4,0.5,0.6c0.2,0.2,0.5,0.3,0.7,0.4c0.3,0.1,0.5,0.1,0.8,0.1
		c0.6,0,1.1-0.1,1.5-0.4c0.4-0.2,0.6-0.5,0.8-0.9c0.2-0.3,0.3-0.7,0.4-1s0.1-0.7,0.1-0.9c0-0.9-0.2-1.7-0.7-2.2s-1.1-0.8-1.9-0.8
		c-0.4,0-0.8,0.1-1.1,0.2c-0.3,0.1-0.6,0.3-0.8,0.5c-0.2,0.2-0.4,0.4-0.4,0.6c-0.1,0.2-0.1,0.4-0.2,0.5h-1.8l0.4-8.2h7.8v1.6h-6.1
		l-0.3,4.5c0.1-0.1,0.2-0.2,0.4-0.4c0.2-0.1,0.4-0.3,0.6-0.4c0.2-0.1,0.5-0.2,0.8-0.3s0.7-0.1,1.1-0.1c0.7,0,1.3,0.1,1.8,0.4
		c0.5,0.3,1,0.6,1.3,1s0.6,0.9,0.8,1.5s0.3,1.1,0.3,1.7c0,0.7-0.1,1.3-0.4,1.9c-0.2,0.6-0.6,1.1-1,1.5s-0.9,0.8-1.5,1
		s-1.3,0.4-2,0.4c-0.6,0-1.1-0.1-1.6-0.2c-0.5-0.1-0.9-0.4-1.3-0.7s-0.7-0.7-0.9-1.1c-0.2-0.5-0.3-1-0.4-1.6L109.5,54.5L109.5,54.5z
		"/>
	<path d="M118.3,51c0-0.3,0-0.8,0-1.3s0.1-1,0.2-1.6s0.2-1.1,0.4-1.6s0.5-1,0.8-1.5s0.8-0.8,1.3-1s1.1-0.4,1.9-0.4
		c0.7,0,1.3,0.1,1.8,0.3s0.9,0.5,1.3,0.9c0.3,0.4,0.6,0.8,0.8,1.3c0.2,0.5,0.4,1,0.5,1.5s0.2,1,0.2,1.6s0.1,1,0.1,1.4
		c0,1.6-0.2,3-0.5,3.9c-0.3,1-0.8,1.8-1.4,2.4c-0.2,0.2-0.5,0.4-0.8,0.5s-0.5,0.2-0.8,0.3c-0.2,0.1-0.5,0.1-0.7,0.2
		c-0.2,0-0.4,0-0.6,0c-0.5,0-0.9-0.1-1.3-0.2c-0.4-0.1-0.7-0.3-1-0.5s-0.6-0.5-0.8-0.7c-0.2-0.3-0.4-0.6-0.6-0.9
		c-0.2-0.5-0.4-1-0.6-1.8C118.4,53.3,118.3,52.3,118.3,51z M120.2,50.9c0,0.8,0,1.5,0.1,2.2s0.2,1.2,0.4,1.7
		c0.2,0.5,0.5,0.9,0.8,1.2s0.8,0.4,1.3,0.4c0.6,0,1-0.2,1.4-0.5s0.6-0.8,0.8-1.3s0.3-1.1,0.4-1.8c0.1-0.6,0.1-1.3,0.1-1.9
		c0-0.8,0-1.6-0.1-2.3s-0.2-1.3-0.4-1.8c-0.2-0.5-0.5-0.9-0.8-1.2s-0.8-0.4-1.3-0.4c-0.6,0-1.1,0.2-1.5,0.5
		c-0.4,0.4-0.6,0.8-0.8,1.4c-0.2,0.5-0.3,1.2-0.4,1.8C120.2,49.7,120.2,50.3,120.2,50.9z"/>
</g>
<g class="st1">
	<path d="M264.5,44h9.1v1.7l-5.1,12.2h-2.3l5.3-12.2h-7.1V44H264.5z"/>
	<path d="M278.1,54.5c0,0.3,0.1,0.6,0.2,0.9c0.1,0.2,0.3,0.4,0.5,0.6c0.2,0.2,0.5,0.3,0.7,0.4c0.3,0.1,0.5,0.1,0.8,0.1
		c0.6,0,1.1-0.1,1.5-0.4c0.4-0.2,0.6-0.5,0.8-0.9c0.2-0.3,0.3-0.7,0.4-1s0.1-0.7,0.1-0.9c0-0.9-0.2-1.7-0.7-2.2s-1.1-0.8-1.9-0.8
		c-0.4,0-0.8,0.1-1.1,0.2c-0.3,0.1-0.6,0.3-0.8,0.5c-0.2,0.2-0.4,0.4-0.4,0.6c-0.1,0.2-0.1,0.4-0.2,0.5h-1.8l0.4-8.2h7.8v1.6h-6.1
		L278,50c0.1-0.1,0.2-0.2,0.4-0.4c0.2-0.1,0.4-0.3,0.6-0.4c0.2-0.1,0.5-0.2,0.8-0.3s0.7-0.1,1.1-0.1c0.7,0,1.3,0.1,1.8,0.4
		c0.5,0.3,1,0.6,1.3,1s0.6,0.9,0.8,1.5s0.3,1.1,0.3,1.7c0,0.7-0.1,1.3-0.4,1.9c-0.2,0.6-0.6,1.1-1,1.5s-0.9,0.8-1.5,1
		s-1.3,0.4-2,0.4c-0.6,0-1.1-0.1-1.6-0.2c-0.5-0.1-0.9-0.4-1.3-0.7s-0.7-0.7-0.9-1.1c-0.2-0.5-0.3-1-0.4-1.6L278.1,54.5L278.1,54.5z
		"/>
	<path d="M286.9,51c0-0.3,0-0.8,0-1.3s0.1-1,0.2-1.6s0.2-1.1,0.4-1.6s0.5-1,0.8-1.5s0.8-0.8,1.3-1s1.1-0.4,1.9-0.4
		c0.7,0,1.3,0.1,1.8,0.3s0.9,0.5,1.3,0.9c0.3,0.4,0.6,0.8,0.8,1.3c0.2,0.5,0.4,1,0.5,1.5s0.2,1,0.2,1.6s0.1,1,0.1,1.4
		c0,1.6-0.2,3-0.5,3.9c-0.3,1-0.8,1.8-1.4,2.4c-0.2,0.2-0.5,0.4-0.8,0.5s-0.5,0.2-0.8,0.3c-0.2,0.1-0.5,0.1-0.7,0.2
		c-0.2,0-0.4,0-0.6,0c-0.5,0-0.9-0.1-1.3-0.2c-0.4-0.1-0.7-0.3-1-0.5s-0.6-0.5-0.8-0.7c-0.2-0.3-0.4-0.6-0.6-0.9
		c-0.2-0.5-0.4-1-0.6-1.8C287,53.3,286.9,52.3,286.9,51z M288.9,50.9c0,0.8,0,1.5,0.1,2.2s0.2,1.2,0.4,1.7c0.2,0.5,0.5,0.9,0.8,1.2
		s0.8,0.4,1.3,0.4c0.6,0,1-0.2,1.4-0.5s0.6-0.8,0.8-1.3s0.3-1.1,0.4-1.8c0.1-0.6,0.1-1.3,0.1-1.9c0-0.8,0-1.6-0.1-2.3
		s-0.2-1.3-0.4-1.8c-0.2-0.5-0.5-0.9-0.8-1.2s-0.8-0.4-1.3-0.4c-0.6,0-1.1,0.2-1.5,0.5c-0.4,0.4-0.6,0.8-0.8,1.4
		c-0.2,0.5-0.3,1.2-0.4,1.8C288.9,49.7,288.9,50.3,288.9,50.9z"/>
</g>
<g class="st1">
	<path d="M317.7,46.1c-0.2,0.2-0.5,0.4-0.7,0.6c-0.3,0.2-0.6,0.4-0.8,0.5c-0.3,0.2-0.6,0.3-0.9,0.5s-0.6,0.3-0.8,0.4v-2
		c0.7-0.3,1.3-0.7,1.9-1.1c0.6-0.4,1.1-0.7,1.5-1.1h1.8v13.8h-1.9V46.1H317.7z"/>
	<path d="M323.3,51c0-0.3,0-0.8,0-1.3s0.1-1,0.2-1.6s0.2-1.1,0.4-1.6s0.5-1,0.8-1.5s0.8-0.8,1.3-1s1.1-0.4,1.9-0.4
		c0.7,0,1.3,0.1,1.8,0.3s0.9,0.5,1.3,0.9c0.3,0.4,0.6,0.8,0.8,1.3c0.2,0.5,0.4,1,0.5,1.5s0.2,1,0.2,1.6s0.1,1,0.1,1.4
		c0,1.6-0.2,3-0.5,3.9c-0.3,1-0.8,1.8-1.4,2.4c-0.2,0.2-0.5,0.4-0.8,0.5s-0.5,0.2-0.8,0.3c-0.2,0.1-0.5,0.1-0.7,0.2
		c-0.2,0-0.4,0-0.6,0c-0.5,0-0.9-0.1-1.3-0.2c-0.4-0.1-0.7-0.3-1-0.5s-0.6-0.5-0.8-0.7c-0.2-0.3-0.4-0.6-0.6-0.9
		c-0.2-0.5-0.4-1-0.6-1.8C323.4,53.3,323.3,52.3,323.3,51z M325.2,50.9c0,0.8,0,1.5,0.1,2.2s0.2,1.2,0.4,1.7
		c0.2,0.5,0.5,0.9,0.8,1.2s0.8,0.4,1.3,0.4c0.6,0,1-0.2,1.4-0.5s0.6-0.8,0.8-1.3s0.3-1.1,0.4-1.8c0.1-0.6,0.1-1.3,0.1-1.9
		c0-0.8,0-1.6-0.1-2.3s-0.2-1.3-0.4-1.8c-0.2-0.5-0.5-0.9-0.8-1.2s-0.8-0.4-1.3-0.4c-0.6,0-1.1,0.2-1.5,0.5
		c-0.4,0.4-0.6,0.8-0.8,1.4c-0.2,0.5-0.3,1.2-0.4,1.8C325.3,49.7,325.2,50.3,325.2,50.9z"/>
	<path d="M334.4,51c0-0.3,0-0.8,0-1.3s0.1-1,0.2-1.6s0.2-1.1,0.4-1.6s0.5-1,0.8-1.5s0.8-0.8,1.3-1s1.1-0.4,1.9-0.4
		c0.7,0,1.3,0.1,1.8,0.3s0.9,0.5,1.3,0.9c0.3,0.4,0.6,0.8,0.8,1.3c0.2,0.5,0.4,1,0.5,1.5s0.2,1,0.2,1.6s0.1,1,0.1,1.4
		c0,1.6-0.2,3-0.5,3.9c-0.3,1-0.8,1.8-1.4,2.4c-0.2,0.2-0.5,0.4-0.8,0.5s-0.5,0.2-0.8,0.3c-0.2,0.1-0.5,0.1-0.7,0.2
		c-0.2,0-0.4,0-0.6,0c-0.5,0-0.9-0.1-1.3-0.2c-0.4-0.1-0.7-0.3-1-0.5s-0.6-0.5-0.8-0.7c-0.2-0.3-0.4-0.6-0.6-0.9
		c-0.2-0.5-0.4-1-0.6-1.8C334.5,53.3,334.4,52.3,334.4,51z M336.3,50.9c0,0.8,0,1.5,0.1,2.2s0.2,1.2,0.4,1.7
		c0.2,0.5,0.5,0.9,0.8,1.2s0.8,0.4,1.3,0.4c0.6,0,1-0.2,1.4-0.5s0.6-0.8,0.8-1.3s0.3-1.1,0.4-1.8c0.1-0.6,0.1-1.3,0.1-1.9
		c0-0.8,0-1.6-0.1-2.3s-0.2-1.3-0.4-1.8c-0.2-0.5-0.5-0.9-0.8-1.2s-0.8-0.4-1.3-0.4c-0.6,0-1.1,0.2-1.5,0.5
		c-0.4,0.4-0.6,0.8-0.8,1.4c-0.2,0.5-0.3,1.2-0.4,1.8C336.4,49.7,336.3,50.3,336.3,50.9z"/>
	<path d="M345.5,51c0-0.3,0-0.8,0-1.3s0.1-1,0.2-1.6s0.2-1.1,0.4-1.6s0.5-1,0.8-1.5s0.8-0.8,1.3-1s1.1-0.4,1.9-0.4
		c0.7,0,1.3,0.1,1.8,0.3s0.9,0.5,1.3,0.9c0.3,0.4,0.6,0.8,0.8,1.3c0.2,0.5,0.4,1,0.5,1.5s0.2,1,0.2,1.6s0.1,1,0.1,1.4
		c0,1.6-0.2,3-0.5,3.9c-0.3,1-0.8,1.8-1.4,2.4c-0.2,0.2-0.5,0.4-0.8,0.5s-0.5,0.2-0.8,0.3c-0.2,0.1-0.5,0.1-0.7,0.2
		c-0.2,0-0.4,0-0.6,0c-0.5,0-0.9-0.1-1.3-0.2c-0.4-0.1-0.7-0.3-1-0.5s-0.6-0.5-0.8-0.7c-0.2-0.3-0.4-0.6-0.6-0.9
		c-0.2-0.5-0.4-1-0.6-1.8C345.6,53.3,345.5,52.3,345.5,51z M347.5,50.9c0,0.8,0,1.5,0.1,2.2s0.2,1.2,0.4,1.7
		c0.2,0.5,0.5,0.9,0.8,1.2s0.8,0.4,1.3,0.4c0.6,0,1-0.2,1.4-0.5s0.6-0.8,0.8-1.3s0.3-1.1,0.4-1.8c0.1-0.6,0.1-1.3,0.1-1.9
		c0-0.8,0-1.6-0.1-2.3s-0.2-1.3-0.4-1.8c-0.2-0.5-0.5-0.9-0.8-1.2s-0.8-0.4-1.3-0.4c-0.6,0-1.1,0.2-1.5,0.5
		c-0.4,0.4-0.6,0.8-0.8,1.4c-0.2,0.5-0.3,1.2-0.4,1.8C347.5,49.7,347.5,50.3,347.5,50.9z"/>
</g>
<g class="st1">
	<path d="M373.7,46.1c-0.2,0.2-0.5,0.4-0.7,0.6c-0.3,0.2-0.6,0.4-0.8,0.5c-0.3,0.2-0.6,0.3-0.9,0.5s-0.5,0.3-0.8,0.4v-2
		c0.7-0.3,1.3-0.7,1.9-1.1s1.1-0.7,1.5-1.1h1.8v13.8h-1.9V46.1H373.7z"/>
	<path d="M382.3,54.5c0,0.3,0.1,0.6,0.2,0.9c0.1,0.2,0.3,0.4,0.5,0.6s0.5,0.3,0.7,0.4c0.3,0.1,0.5,0.1,0.8,0.1
		c0.6,0,1.1-0.1,1.5-0.4c0.4-0.2,0.6-0.5,0.8-0.9c0.2-0.3,0.3-0.7,0.4-1c0.1-0.4,0.1-0.7,0.1-0.9c0-0.9-0.2-1.7-0.7-2.2
		s-1.1-0.8-1.9-0.8c-0.4,0-0.8,0.1-1.1,0.2c-0.3,0.1-0.6,0.3-0.8,0.5c-0.2,0.2-0.4,0.4-0.4,0.6c-0.1,0.2-0.1,0.4-0.2,0.5h-1.8
		l0.4-8.2h7.8v1.6h-6.1l-0.3,4.5c0.1-0.1,0.2-0.2,0.4-0.4c0.2-0.1,0.4-0.3,0.6-0.4c0.2-0.1,0.5-0.2,0.8-0.3s0.7-0.1,1.1-0.1
		c0.7,0,1.3,0.1,1.8,0.4c0.5,0.3,1,0.6,1.3,1s0.6,0.9,0.8,1.5c0.2,0.5,0.3,1.1,0.3,1.7c0,0.7-0.1,1.3-0.3,1.9
		c-0.2,0.6-0.6,1.1-1,1.5s-0.9,0.8-1.5,1s-1.3,0.4-2,0.4c-0.6,0-1.1-0.1-1.6-0.2c-0.5-0.2-0.9-0.4-1.3-0.7s-0.7-0.7-0.9-1.1
		c-0.2-0.5-0.3-1-0.4-1.6L382.3,54.5L382.3,54.5z"/>
	<path d="M391.1,51c0-0.3,0-0.8,0-1.3s0.1-1,0.2-1.6c0.1-0.5,0.2-1.1,0.4-1.6s0.5-1,0.8-1.5s0.8-0.8,1.3-1c0.5-0.3,1.1-0.4,1.9-0.4
		c0.7,0,1.3,0.1,1.8,0.3s0.9,0.5,1.3,0.9s0.6,0.8,0.8,1.3c0.2,0.5,0.4,1,0.5,1.5s0.2,1,0.2,1.6s0.1,1,0.1,1.4c0,1.6-0.2,3-0.5,3.9
		c-0.3,1-0.8,1.8-1.4,2.4c-0.2,0.2-0.5,0.4-0.8,0.5s-0.5,0.2-0.8,0.3s-0.5,0.1-0.7,0.2c-0.2,0-0.4,0-0.6,0c-0.5,0-0.9-0.1-1.3-0.2
		c-0.4-0.1-0.7-0.3-1-0.5s-0.6-0.5-0.8-0.7c-0.2-0.3-0.4-0.6-0.6-0.9c-0.2-0.5-0.4-1-0.6-1.8C391.2,53.3,391.1,52.3,391.1,51z
		 M393,50.9c0,0.8,0,1.5,0.1,2.2s0.2,1.2,0.4,1.7c0.2,0.5,0.5,0.9,0.8,1.2s0.8,0.4,1.3,0.4c0.6,0,1-0.2,1.4-0.5s0.6-0.8,0.8-1.3
		s0.3-1.1,0.4-1.8c0.1-0.6,0.1-1.3,0.1-1.9c0-0.8,0-1.6-0.1-2.3s-0.2-1.3-0.4-1.8c-0.2-0.5-0.5-0.9-0.8-1.2s-0.8-0.4-1.3-0.4
		c-0.6,0-1.1,0.2-1.5,0.5c-0.4,0.4-0.6,0.8-0.8,1.4c-0.2,0.6-0.3,1.2-0.4,1.8C393,49.7,393,50.3,393,50.9z"/>
	<path d="M402.2,51c0-0.3,0-0.8,0-1.3s0.1-1,0.2-1.6c0.1-0.5,0.2-1.1,0.4-1.6s0.5-1,0.8-1.5s0.8-0.8,1.3-1c0.5-0.3,1.1-0.4,1.9-0.4
		c0.7,0,1.3,0.1,1.8,0.3s0.9,0.5,1.3,0.9s0.6,0.8,0.8,1.3c0.2,0.5,0.4,1,0.5,1.5s0.2,1,0.2,1.6s0.1,1,0.1,1.4c0,1.6-0.2,3-0.5,3.9
		c-0.3,1-0.8,1.8-1.4,2.4c-0.2,0.2-0.5,0.4-0.8,0.5s-0.5,0.2-0.8,0.3s-0.5,0.1-0.7,0.2c-0.2,0-0.4,0-0.6,0c-0.5,0-0.9-0.1-1.3-0.2
		c-0.4-0.1-0.7-0.3-1-0.5s-0.6-0.5-0.8-0.7c-0.2-0.3-0.4-0.6-0.6-0.9c-0.2-0.5-0.4-1-0.6-1.8C402.3,53.3,402.2,52.3,402.2,51z
		 M404.1,50.9c0,0.8,0,1.5,0.1,2.2s0.2,1.2,0.4,1.7c0.2,0.5,0.5,0.9,0.8,1.2s0.8,0.4,1.3,0.4c0.6,0,1-0.2,1.4-0.5s0.6-0.8,0.8-1.3
		s0.3-1.1,0.4-1.8c0.1-0.6,0.1-1.3,0.1-1.9c0-0.8,0-1.6-0.1-2.3s-0.2-1.3-0.4-1.8c-0.2-0.5-0.5-0.9-0.8-1.2s-0.8-0.4-1.3-0.4
		c-0.6,0-1.1,0.2-1.5,0.5c-0.4,0.4-0.6,0.8-0.8,1.4c-0.2,0.6-0.3,1.2-0.4,1.8C404.2,49.7,404.1,50.3,404.1,50.9z"/>
</g>
<g class="st1">
	<path d="M422.3,56l3.6-3.6c0.4-0.4,0.8-0.8,1.1-1.2c0.4-0.4,0.7-0.8,1-1.2c0.4-0.5,0.7-1,0.8-1.4c0.1-0.4,0.2-0.7,0.2-1.1
		c0-0.2,0-0.4-0.1-0.6c0-0.3-0.1-0.5-0.3-0.7c-0.2-0.2-0.4-0.4-0.7-0.6c-0.3-0.2-0.7-0.3-1.2-0.3c-0.6,0-1,0.1-1.3,0.3
		s-0.5,0.4-0.7,0.7c-0.1,0.3-0.2,0.5-0.3,0.8c-0.1,0.3,0,0.5,0,0.6h-2.1c0-0.2,0-0.4,0-0.6c0-0.2,0.1-0.5,0.2-0.8s0.2-0.5,0.4-0.8
		c0.2-0.3,0.4-0.6,0.7-0.8c0.5-0.4,1-0.7,1.5-0.8s1-0.2,1.5-0.2s1.1,0.1,1.6,0.2c0.5,0.1,1,0.4,1.4,0.7s0.7,0.7,1,1.2
		c0.2,0.5,0.4,1.1,0.4,1.9c0,0.2,0,0.4,0,0.6s-0.1,0.4-0.2,0.7s-0.3,0.6-0.5,0.9s-0.5,0.7-0.9,1.2c-0.1,0.1-0.3,0.3-0.5,0.6
		s-0.5,0.5-0.8,0.8s-0.5,0.5-0.8,0.8c-0.2,0.3-0.4,0.4-0.5,0.5l-2.4,2.3h6.6v1.6h-8.8L422.3,56L422.3,56z"/>
	<path d="M433.3,51c0-0.3,0-0.8,0-1.3s0.1-1,0.2-1.6c0.1-0.5,0.2-1.1,0.4-1.6s0.5-1,0.8-1.5s0.8-0.8,1.3-1c0.5-0.3,1.1-0.4,1.9-0.4
		c0.7,0,1.3,0.1,1.8,0.3s0.9,0.5,1.3,0.9s0.6,0.8,0.8,1.3c0.2,0.5,0.4,1,0.5,1.5s0.2,1,0.2,1.6s0.1,1,0.1,1.4c0,1.6-0.2,3-0.5,3.9
		c-0.3,1-0.8,1.8-1.4,2.4c-0.2,0.2-0.5,0.4-0.8,0.5s-0.5,0.2-0.8,0.3s-0.5,0.1-0.7,0.2c-0.2,0-0.4,0-0.6,0c-0.5,0-0.9-0.1-1.3-0.2
		c-0.4-0.1-0.7-0.3-1-0.5s-0.6-0.5-0.8-0.7c-0.2-0.3-0.4-0.6-0.6-0.9c-0.2-0.5-0.4-1-0.6-1.8C433.4,53.3,433.3,52.3,433.3,51z
		 M435.2,50.9c0,0.8,0,1.5,0.1,2.2s0.2,1.2,0.4,1.7c0.2,0.5,0.5,0.9,0.8,1.2s0.8,0.4,1.3,0.4c0.6,0,1-0.2,1.4-0.5s0.6-0.8,0.8-1.3
		s0.3-1.1,0.4-1.8c0.1-0.6,0.1-1.3,0.1-1.9c0-0.8,0-1.6-0.1-2.3s-0.2-1.3-0.4-1.8c-0.2-0.5-0.5-0.9-0.8-1.2s-0.8-0.4-1.3-0.4
		c-0.6,0-1.1,0.2-1.5,0.5c-0.4,0.4-0.6,0.8-0.8,1.4c-0.2,0.6-0.3,1.2-0.4,1.8C435.2,49.7,435.2,50.3,435.2,50.9z"/>
	<path d="M444.4,51c0-0.3,0-0.8,0-1.3s0.1-1,0.2-1.6c0.1-0.5,0.2-1.1,0.4-1.6s0.5-1,0.8-1.5s0.8-0.8,1.3-1c0.5-0.3,1.1-0.4,1.9-0.4
		c0.7,0,1.3,0.1,1.8,0.3s0.9,0.5,1.3,0.9s0.6,0.8,0.8,1.3c0.2,0.5,0.4,1,0.5,1.5s0.2,1,0.2,1.6s0.1,1,0.1,1.4c0,1.6-0.2,3-0.5,3.9
		c-0.3,1-0.8,1.8-1.4,2.4c-0.2,0.2-0.5,0.4-0.8,0.5s-0.5,0.2-0.8,0.3s-0.5,0.1-0.7,0.2c-0.2,0-0.4,0-0.6,0c-0.5,0-0.9-0.1-1.3-0.2
		c-0.4-0.1-0.7-0.3-1-0.5s-0.6-0.5-0.8-0.7c-0.2-0.3-0.4-0.6-0.6-0.9c-0.2-0.5-0.4-1-0.6-1.8C444.5,53.3,444.4,52.3,444.4,51z
		 M446.3,50.9c0,0.8,0,1.5,0.1,2.2s0.2,1.2,0.4,1.7c0.2,0.5,0.5,0.9,0.8,1.2s0.8,0.4,1.3,0.4c0.6,0,1-0.2,1.4-0.5s0.6-0.8,0.8-1.3
		s0.3-1.1,0.4-1.8c0.1-0.6,0.1-1.3,0.1-1.9c0-0.8,0-1.6-0.1-2.3s-0.2-1.3-0.4-1.8c-0.2-0.5-0.5-0.9-0.8-1.2s-0.8-0.4-1.3-0.4
		c-0.6,0-1.1,0.2-1.5,0.5c-0.4,0.4-0.6,0.8-0.8,1.4c-0.2,0.6-0.3,1.2-0.4,1.8C446.3,49.7,446.3,50.3,446.3,50.9z"/>
	<path d="M455.5,51c0-0.3,0-0.8,0-1.3s0.1-1,0.2-1.6c0.1-0.5,0.2-1.1,0.4-1.6s0.5-1,0.8-1.5s0.8-0.8,1.3-1c0.5-0.3,1.1-0.4,1.9-0.4
		c0.7,0,1.3,0.1,1.8,0.3s0.9,0.5,1.3,0.9c0.3,0.4,0.6,0.8,0.8,1.3c0.2,0.5,0.4,1,0.5,1.5s0.2,1,0.2,1.6s0.1,1,0.1,1.4
		c0,1.6-0.2,3-0.5,3.9c-0.3,1-0.8,1.8-1.4,2.4c-0.2,0.2-0.5,0.4-0.8,0.5s-0.5,0.2-0.8,0.3c-0.2,0.1-0.5,0.1-0.7,0.2
		c-0.2,0-0.4,0-0.6,0c-0.5,0-0.9-0.1-1.3-0.2c-0.4-0.1-0.7-0.3-1-0.5s-0.6-0.5-0.8-0.7c-0.2-0.3-0.4-0.6-0.6-0.9
		c-0.2-0.5-0.4-1-0.6-1.8C455.5,53,455.5,52.3,455.5,51z M457.4,50.9c0,0.8,0,1.5,0.1,2.2s0.2,1.2,0.4,1.7s0.5,0.9,0.8,1.2
		s0.8,0.4,1.3,0.4c0.6,0,1-0.2,1.4-0.5s0.6-0.8,0.8-1.3s0.3-1.1,0.4-1.8c0.1-0.6,0.1-1.3,0.1-1.9c0-0.8,0-1.6-0.1-2.3
		s-0.2-1.3-0.4-1.8s-0.5-0.9-0.8-1.2s-0.8-0.4-1.3-0.4c-0.6,0-1.1,0.2-1.5,0.5c-0.4,0.4-0.6,0.8-0.8,1.4c-0.2,0.5-0.3,1.2-0.4,1.8
		C457.4,49.7,457.4,50.3,457.4,50.9z"/>
</g>
<g class="st1">
	<path d="M480.1,54.2c0,0.7,0.2,1.2,0.6,1.6c0.4,0.4,1.1,0.6,1.9,0.6c0.5,0,0.9-0.1,1.2-0.2c0.4-0.1,0.6-0.3,0.9-0.6
		c0.2-0.2,0.4-0.5,0.5-0.8s0.2-0.6,0.2-0.9c0-0.4-0.1-0.7-0.2-1s-0.3-0.5-0.4-0.7c-0.2-0.2-0.4-0.4-0.6-0.5s-0.5-0.2-0.7-0.3
		c-0.4-0.1-0.7-0.1-1-0.1s-0.6,0-1,0v-1.6c0.3,0,0.7,0,1.2,0s0.8-0.1,1.2-0.3c0.4-0.2,0.7-0.4,1-0.8c0.3-0.3,0.4-0.8,0.4-1.3
		c0-0.8-0.2-1.3-0.7-1.7s-1-0.5-1.7-0.5c-0.3,0-0.5,0-0.8,0.1s-0.5,0.2-0.8,0.4c-0.2,0.2-0.4,0.4-0.6,0.7s-0.3,0.6-0.3,1.1h-2
		c0-0.9,0.2-1.5,0.6-2s0.8-0.9,1.3-1.1c0.5-0.3,1-0.4,1.5-0.5s0.9-0.1,1.2-0.1c0.8,0,1.4,0.1,2,0.3s1,0.5,1.4,0.8
		c0.4,0.4,0.7,0.8,0.8,1.2c0.2,0.4,0.3,0.9,0.3,1.4c0,0.3,0,0.6-0.1,0.9s-0.2,0.7-0.5,1c-0.2,0.3-0.5,0.6-0.9,0.8s-0.8,0.4-1.3,0.6
		c0.7,0.1,1.3,0.3,1.7,0.7c0.4,0.3,0.7,0.7,0.9,1.1c0.2,0.4,0.3,0.7,0.3,1s0.1,0.5,0.1,0.6c0,0.5-0.1,1-0.3,1.5
		c-0.2,0.5-0.5,0.9-0.9,1.3s-0.9,0.7-1.5,1c-0.6,0.2-1.3,0.4-2.1,0.4c-0.7,0-1.4-0.1-2.1-0.3s-1.2-0.6-1.7-1.1
		c-0.2-0.2-0.4-0.4-0.5-0.7s-0.2-0.5-0.2-0.7c-0.1-0.2-0.1-0.4-0.1-0.6s0-0.4,0-0.5h1.8L480.1,54.2L480.1,54.2z"/>
	<path d="M489.3,51c0-0.3,0-0.8,0-1.3s0.1-1,0.2-1.6c0.1-0.5,0.2-1.1,0.4-1.6s0.5-1,0.8-1.5s0.8-0.8,1.3-1c0.5-0.3,1.1-0.4,1.9-0.4
		c0.7,0,1.3,0.1,1.8,0.3s0.9,0.5,1.3,0.9c0.3,0.4,0.6,0.8,0.8,1.3c0.2,0.5,0.4,1,0.5,1.5s0.2,1,0.2,1.6s0.1,1,0.1,1.4
		c0,1.6-0.2,3-0.5,3.9c-0.3,1-0.8,1.8-1.4,2.4c-0.2,0.2-0.5,0.4-0.8,0.5s-0.5,0.2-0.8,0.3c-0.2,0.1-0.5,0.1-0.7,0.2
		c-0.2,0-0.4,0-0.6,0c-0.5,0-0.9-0.1-1.3-0.2c-0.4-0.1-0.7-0.3-1-0.5s-0.6-0.5-0.8-0.7c-0.2-0.3-0.4-0.6-0.6-0.9
		c-0.2-0.5-0.4-1-0.6-1.8C489.3,53,489.3,52.3,489.3,51z M491.2,50.9c0,0.8,0,1.5,0.1,2.2s0.2,1.2,0.4,1.7s0.5,0.9,0.8,1.2
		s0.8,0.4,1.3,0.4c0.6,0,1-0.2,1.4-0.5s0.6-0.8,0.8-1.3s0.3-1.1,0.4-1.8c0.1-0.6,0.1-1.3,0.1-1.9c0-0.8,0-1.6-0.1-2.3
		s-0.2-1.3-0.4-1.8s-0.5-0.9-0.8-1.2s-0.8-0.4-1.3-0.4c-0.6,0-1.1,0.2-1.5,0.5c-0.4,0.4-0.6,0.8-0.8,1.4c-0.2,0.5-0.3,1.2-0.4,1.8
		C491.2,49.7,491.2,50.3,491.2,50.9z"/>
	<path d="M500.4,51c0-0.3,0-0.8,0-1.3s0.1-1,0.2-1.6c0.1-0.5,0.2-1.1,0.4-1.6s0.5-1,0.8-1.5s0.8-0.8,1.3-1c0.5-0.3,1.1-0.4,1.9-0.4
		c0.7,0,1.3,0.1,1.8,0.3s0.9,0.5,1.3,0.9c0.3,0.4,0.6,0.8,0.8,1.3c0.2,0.5,0.4,1,0.5,1.5s0.2,1,0.2,1.6s0.1,1,0.1,1.4
		c0,1.6-0.2,3-0.5,3.9c-0.3,1-0.8,1.8-1.4,2.4c-0.2,0.2-0.5,0.4-0.8,0.5s-0.5,0.2-0.8,0.3c-0.2,0.1-0.5,0.1-0.7,0.2
		c-0.2,0-0.4,0-0.6,0c-0.5,0-0.9-0.1-1.3-0.2c-0.4-0.1-0.7-0.3-1-0.5s-0.6-0.5-0.8-0.7c-0.2-0.3-0.4-0.6-0.6-0.9
		c-0.2-0.5-0.4-1-0.6-1.8C500.4,53,500.4,52.3,500.4,51z M502.3,50.9c0,0.8,0,1.5,0.1,2.2s0.2,1.2,0.4,1.7s0.5,0.9,0.8,1.2
		s0.8,0.4,1.3,0.4c0.6,0,1-0.2,1.4-0.5s0.6-0.8,0.8-1.3s0.3-1.1,0.4-1.8c0.1-0.6,0.1-1.3,0.1-1.9c0-0.8,0-1.6-0.1-2.3
		s-0.2-1.3-0.4-1.8s-0.5-0.9-0.8-1.2s-0.8-0.4-1.3-0.4c-0.6,0-1.1,0.2-1.5,0.5c-0.4,0.4-0.6,0.8-0.8,1.4c-0.2,0.5-0.3,1.2-0.4,1.8
		C502.3,49.7,502.3,50.3,502.3,50.9z"/>
	<path d="M511.5,51c0-0.3,0-0.8,0-1.3s0.1-1,0.2-1.6c0.1-0.5,0.2-1.1,0.4-1.6c0.2-0.5,0.5-1,0.8-1.5c0.3-0.5,0.8-0.8,1.3-1
		c0.5-0.3,1.1-0.4,1.9-0.4c0.7,0,1.3,0.1,1.8,0.3s0.9,0.5,1.3,0.9s0.6,0.8,0.8,1.3s0.4,1,0.5,1.5s0.2,1,0.2,1.6s0.1,1,0.1,1.4
		c0,1.6-0.2,3-0.5,3.9c-0.3,1-0.8,1.8-1.4,2.4c-0.2,0.2-0.5,0.4-0.8,0.5s-0.5,0.2-0.8,0.3s-0.5,0.1-0.7,0.2c-0.2,0-0.4,0-0.6,0
		c-0.5,0-0.9-0.1-1.3-0.2c-0.4-0.1-0.7-0.3-1-0.5s-0.6-0.5-0.8-0.7c-0.2-0.3-0.4-0.6-0.6-0.9c-0.2-0.5-0.4-1-0.6-1.8
		C511.6,53.3,511.5,52.3,511.5,51z M513.4,50.9c0,0.8,0,1.5,0.1,2.2s0.2,1.2,0.4,1.7c0.2,0.5,0.5,0.9,0.8,1.2
		c0.3,0.3,0.8,0.4,1.3,0.4c0.6,0,1-0.2,1.4-0.5s0.6-0.8,0.8-1.3s0.3-1.1,0.4-1.8c0.1-0.6,0.1-1.3,0.1-1.9c0-0.8,0-1.6-0.1-2.3
		s-0.2-1.3-0.4-1.8s-0.5-0.9-0.8-1.2s-0.8-0.4-1.3-0.4c-0.6,0-1.1,0.2-1.5,0.5c-0.4,0.4-0.6,0.8-0.8,1.4c-0.2,0.6-0.3,1.2-0.4,1.8
		C513.5,49.7,513.4,50.3,513.4,50.9z"/>
</g>
<g class="st1">
	<path d="M537.1,54.8h-6.3v-2.4l6-8.6h2.2v9.4h2v1.6h-2v3h-1.9V54.8z M537.1,53.2v-7.3l-4.8,7.3H537.1z"/>
	<path d="M542.3,51c0-0.3,0-0.8,0-1.3s0.1-1,0.2-1.6s0.2-1.1,0.4-1.6s0.5-1,0.8-1.5s0.8-0.8,1.3-1s1.1-0.4,1.9-0.4
		c0.7,0,1.3,0.1,1.8,0.3s0.9,0.5,1.3,0.9s0.6,0.8,0.8,1.3s0.4,1,0.5,1.5s0.2,1,0.2,1.6s0.1,1,0.1,1.4c0,1.6-0.2,3-0.5,3.9
		c-0.3,1-0.8,1.8-1.4,2.4c-0.2,0.2-0.5,0.4-0.8,0.5s-0.5,0.2-0.8,0.3s-0.5,0.1-0.7,0.2c-0.2,0-0.4,0-0.6,0c-0.5,0-0.9-0.1-1.3-0.2
		c-0.4-0.1-0.7-0.3-1-0.5s-0.6-0.5-0.8-0.7c-0.2-0.3-0.4-0.6-0.6-0.9c-0.2-0.5-0.4-1-0.6-1.8C542.4,53.3,542.3,52.3,542.3,51z
		 M544.2,50.9c0,0.8,0,1.5,0.1,2.2s0.2,1.2,0.4,1.7s0.5,0.9,0.8,1.2s0.8,0.4,1.3,0.4c0.6,0,1-0.2,1.4-0.5s0.6-0.8,0.8-1.3
		s0.3-1.1,0.4-1.8c0.1-0.6,0.1-1.3,0.1-1.9c0-0.8,0-1.6-0.1-2.3s-0.2-1.3-0.4-1.8s-0.5-0.9-0.8-1.2s-0.8-0.4-1.3-0.4
		c-0.6,0-1.1,0.2-1.4,0.5c-0.4,0.4-0.6,0.8-0.8,1.4c-0.2,0.5-0.3,1.2-0.4,1.8C544.2,49.7,544.2,50.3,544.2,50.9z"/>
	<path d="M553.4,51c0-0.3,0-0.8,0-1.3s0.1-1,0.2-1.6s0.2-1.1,0.4-1.6s0.5-1,0.8-1.5s0.8-0.8,1.3-1s1.1-0.4,1.9-0.4
		c0.7,0,1.3,0.1,1.8,0.3s0.9,0.5,1.3,0.9c0.3,0.4,0.6,0.8,0.8,1.3s0.4,1,0.5,1.5s0.2,1,0.2,1.6s0.1,1,0.1,1.4c0,1.6-0.2,3-0.5,3.9
		c-0.3,1-0.8,1.8-1.4,2.4c-0.2,0.2-0.5,0.4-0.8,0.5s-0.5,0.2-0.8,0.3c-0.2,0.1-0.5,0.1-0.7,0.2c-0.2,0-0.4,0-0.6,0
		c-0.5,0-0.9-0.1-1.3-0.2c-0.4-0.1-0.7-0.3-1-0.5s-0.6-0.5-0.8-0.7c-0.2-0.3-0.4-0.6-0.6-0.9c-0.2-0.5-0.4-1-0.6-1.8
		C553.5,53.3,553.4,52.3,553.4,51z M555.3,50.9c0,0.8,0,1.5,0.1,2.2s0.2,1.2,0.4,1.7s0.5,0.9,0.8,1.2s0.8,0.4,1.3,0.4
		c0.6,0,1-0.2,1.4-0.5s0.6-0.8,0.8-1.3s0.3-1.1,0.4-1.8c0.1-0.6,0.1-1.3,0.1-1.9c0-0.8,0-1.6-0.1-2.3s-0.2-1.3-0.4-1.8
		s-0.5-0.9-0.8-1.2s-0.8-0.4-1.3-0.4c-0.6,0-1.1,0.2-1.5,0.5c-0.4,0.4-0.6,0.8-0.8,1.4c-0.2,0.5-0.3,1.2-0.4,1.8
		C555.3,49.7,555.3,50.3,555.3,50.9z"/>
	<path d="M564.5,51c0-0.3,0-0.8,0-1.3s0.1-1,0.2-1.6c0.1-0.5,0.2-1.1,0.4-1.6s0.5-1,0.8-1.5c0.3-0.4,0.8-0.8,1.3-1
		c0.5-0.3,1.1-0.4,1.9-0.4c0.7,0,1.3,0.1,1.8,0.3s0.9,0.5,1.3,0.9c0.3,0.4,0.6,0.8,0.8,1.3s0.4,1,0.5,1.5s0.2,1,0.2,1.6
		c0,0.5,0.1,1,0.1,1.4c0,1.6-0.2,3-0.5,3.9c-0.3,1-0.8,1.8-1.4,2.4c-0.2,0.2-0.5,0.4-0.8,0.5s-0.5,0.2-0.8,0.3
		c-0.2,0.1-0.5,0.1-0.7,0.2c-0.2,0-0.4,0-0.6,0c-0.5,0-0.9-0.1-1.3-0.2c-0.4-0.1-0.7-0.3-1-0.5s-0.6-0.5-0.8-0.7
		c-0.2-0.3-0.4-0.6-0.6-0.9c-0.2-0.5-0.4-1-0.6-1.8C564.5,53,564.5,52.3,564.5,51z M566.4,50.9c0,0.8,0,1.5,0.1,2.2s0.2,1.2,0.4,1.7
		s0.5,0.9,0.8,1.2s0.8,0.4,1.3,0.4c0.6,0,1-0.2,1.4-0.5s0.6-0.8,0.8-1.3s0.3-1.1,0.4-1.8c0.1-0.6,0.1-1.3,0.1-1.9
		c0-0.8,0-1.6-0.1-2.3s-0.2-1.3-0.4-1.8s-0.5-0.9-0.8-1.2s-0.8-0.4-1.3-0.4c-0.6,0-1.1,0.2-1.5,0.5c-0.4,0.4-0.6,0.8-0.8,1.4
		c-0.2,0.6-0.3,1.2-0.4,1.8C566.4,49.7,566.4,50.3,566.4,50.9z"/>
</g>
<g class="st1">
	<path d="M589.5,54.5c0,0.3,0.1,0.6,0.2,0.9c0.1,0.2,0.3,0.4,0.5,0.6c0.2,0.2,0.5,0.3,0.7,0.4c0.2,0.1,0.5,0.1,0.8,0.1
		c0.6,0,1.1-0.1,1.5-0.4c0.4-0.2,0.6-0.5,0.8-0.9s0.3-0.7,0.4-1c0.1-0.4,0.1-0.7,0.1-0.9c0-0.9-0.2-1.7-0.7-2.2s-1.1-0.8-1.9-0.8
		c-0.4,0-0.8,0.1-1.1,0.2c-0.3,0.1-0.6,0.3-0.8,0.5s-0.4,0.4-0.4,0.6c-0.1,0.2-0.1,0.4-0.2,0.5h-1.8l0.4-8.2h7.8v1.6h-6.1l-0.3,4.5
		c0.1-0.1,0.2-0.2,0.4-0.4c0.2-0.1,0.4-0.3,0.6-0.4c0.2-0.1,0.5-0.2,0.8-0.3s0.7-0.1,1.1-0.1c0.7,0,1.3,0.1,1.8,0.4
		c0.5,0.3,1,0.6,1.3,1s0.6,0.9,0.8,1.5c0.2,0.5,0.3,1.1,0.3,1.7c0,0.7-0.1,1.3-0.4,1.9c-0.3,0.6-0.6,1.1-1,1.5s-0.9,0.8-1.5,1
		s-1.3,0.4-2,0.4c-0.6,0-1.1-0.1-1.6-0.2c-0.5-0.2-0.9-0.4-1.3-0.7c-0.4-0.3-0.7-0.7-0.9-1.1c-0.2-0.4-0.3-1-0.4-1.6L589.5,54.5
		L589.5,54.5z"/>
	<path d="M598.3,51c0-0.3,0-0.8,0-1.3s0.1-1,0.2-1.6c0.1-0.5,0.2-1.1,0.4-1.6s0.5-1,0.8-1.5s0.8-0.8,1.3-1c0.5-0.3,1.1-0.4,1.9-0.4
		c0.7,0,1.3,0.1,1.8,0.3s0.9,0.5,1.3,0.9c0.3,0.4,0.6,0.8,0.8,1.3s0.4,1,0.5,1.5s0.2,1,0.2,1.6s0.1,1,0.1,1.4c0,1.6-0.2,3-0.5,3.9
		c-0.3,1-0.8,1.8-1.4,2.4c-0.2,0.2-0.5,0.4-0.8,0.5s-0.5,0.2-0.8,0.3c-0.2,0.1-0.5,0.1-0.7,0.2c-0.2,0-0.4,0-0.6,0
		c-0.5,0-0.9-0.1-1.3-0.2c-0.4-0.1-0.7-0.3-1-0.5s-0.6-0.5-0.8-0.7c-0.2-0.3-0.4-0.6-0.6-0.9c-0.2-0.5-0.4-1-0.6-1.8
		C598.3,53,598.3,52.3,598.3,51z M600.2,50.9c0,0.8,0,1.5,0.1,2.2s0.2,1.2,0.4,1.7s0.5,0.9,0.8,1.2s0.8,0.4,1.3,0.4
		c0.6,0,1-0.2,1.4-0.5s0.6-0.8,0.8-1.3s0.3-1.1,0.4-1.8c0.1-0.6,0.1-1.3,0.1-1.9c0-0.8,0-1.6-0.1-2.3s-0.2-1.3-0.4-1.8
		s-0.5-0.9-0.8-1.2s-0.8-0.4-1.3-0.4c-0.6,0-1.1,0.2-1.5,0.5c-0.4,0.4-0.6,0.8-0.8,1.4c-0.2,0.5-0.3,1.2-0.4,1.8
		C600.2,49.7,600.2,50.3,600.2,50.9z"/>
	<path d="M609.4,51c0-0.3,0-0.8,0-1.3s0.1-1,0.2-1.6c0.1-0.5,0.2-1.1,0.4-1.6s0.5-1,0.8-1.5s0.8-0.8,1.3-1c0.5-0.3,1.1-0.4,1.9-0.4
		c0.7,0,1.3,0.1,1.8,0.3s0.9,0.5,1.3,0.9c0.3,0.4,0.6,0.8,0.8,1.3s0.4,1,0.5,1.5s0.2,1,0.2,1.6s0.1,1,0.1,1.4c0,1.6-0.2,3-0.5,3.9
		c-0.3,1-0.8,1.8-1.4,2.4c-0.2,0.2-0.5,0.4-0.8,0.5s-0.5,0.2-0.8,0.3c-0.2,0.1-0.5,0.1-0.7,0.2c-0.2,0-0.4,0-0.6,0
		c-0.5,0-0.9-0.1-1.3-0.2c-0.4-0.1-0.7-0.3-1-0.5s-0.6-0.5-0.8-0.7c-0.2-0.3-0.4-0.6-0.6-0.9c-0.2-0.5-0.4-1-0.6-1.8
		C609.4,53,609.4,52.3,609.4,51z M611.3,50.9c0,0.8,0,1.5,0.1,2.2s0.2,1.2,0.4,1.7s0.5,0.9,0.8,1.2s0.8,0.4,1.3,0.4
		c0.6,0,1-0.2,1.4-0.5s0.6-0.8,0.8-1.3s0.3-1.1,0.4-1.8c0.1-0.6,0.1-1.3,0.1-1.9c0-0.8,0-1.6-0.1-2.3s-0.2-1.3-0.4-1.8
		s-0.5-0.9-0.8-1.2s-0.8-0.4-1.3-0.4c-0.6,0-1.1,0.2-1.5,0.5c-0.4,0.4-0.6,0.8-0.8,1.4c-0.2,0.5-0.3,1.2-0.4,1.8
		C611.3,49.7,611.3,50.3,611.3,50.9z"/>
	<path d="M620.5,51c0-0.3,0-0.8,0-1.3s0.1-1,0.2-1.6c0.1-0.5,0.2-1.1,0.4-1.6s0.5-1,0.8-1.5s0.8-0.8,1.3-1c0.5-0.3,1.1-0.4,1.9-0.4
		c0.7,0,1.3,0.1,1.8,0.3s0.9,0.5,1.3,0.9s0.6,0.8,0.8,1.3s0.4,1,0.5,1.5s0.2,1,0.2,1.6s0.1,1,0.1,1.4c0,1.6-0.2,3-0.5,3.9
		c-0.3,1-0.8,1.8-1.4,2.4c-0.2,0.2-0.5,0.4-0.8,0.5s-0.5,0.2-0.8,0.3s-0.5,0.1-0.7,0.2c-0.2,0-0.4,0-0.6,0c-0.5,0-0.9-0.1-1.3-0.2
		c-0.4-0.1-0.7-0.3-1-0.5s-0.6-0.5-0.8-0.7c-0.2-0.3-0.4-0.6-0.6-0.9c-0.2-0.5-0.4-1-0.6-1.8C620.6,53.3,620.5,52.3,620.5,51z
		 M622.4,50.9c0,0.8,0,1.5,0.1,2.2s0.2,1.2,0.4,1.7s0.5,0.9,0.8,1.2s0.8,0.4,1.3,0.4c0.6,0,1-0.2,1.4-0.5s0.6-0.8,0.8-1.3
		s0.3-1.1,0.4-1.8c0.1-0.6,0.1-1.3,0.1-1.9c0-0.8,0-1.6-0.1-2.3s-0.2-1.3-0.4-1.8s-0.5-0.9-0.8-1.2s-0.8-0.4-1.3-0.4
		c-0.6,0-1.1,0.2-1.5,0.5c-0.4,0.4-0.6,0.8-0.8,1.4c-0.2,0.6-0.3,1.2-0.4,1.8C622.5,49.7,622.4,50.3,622.4,50.9z"/>
</g>
<g class="st1">
	<path d="M647.4,47.2c0-0.4-0.1-0.7-0.2-1c-0.1-0.3-0.3-0.5-0.5-0.6s-0.4-0.3-0.7-0.3c-0.2-0.1-0.5-0.1-0.7-0.1
		c-1,0-1.7,0.4-2.2,1.3c-0.5,0.9-0.8,2.2-0.8,4.1c0.1-0.2,0.2-0.3,0.4-0.5s0.4-0.4,0.6-0.6s0.6-0.3,0.9-0.5c0.3-0.2,0.8-0.2,1.3-0.2
		c0.6,0,1.1,0.1,1.6,0.3s1,0.5,1.3,0.8c0.4,0.4,0.7,0.8,0.9,1.4c0.2,0.6,0.3,1.2,0.3,1.9c0,0.8-0.1,1.5-0.4,2.1
		c-0.3,0.6-0.6,1.1-1,1.5s-0.9,0.7-1.5,0.9S645.6,58,645,58c-0.7,0-1.3-0.1-1.9-0.4s-1.1-0.6-1.5-1.1c-0.3-0.3-0.5-0.7-0.6-1.1
		c-0.2-0.4-0.3-0.8-0.4-1.3c-0.1-0.4-0.2-0.9-0.2-1.4s0-0.9,0-1.3c0-0.5,0-1,0.1-1.6s0.1-1.2,0.3-1.7c0.1-0.6,0.3-1.1,0.6-1.7
		c0.3-0.6,0.5-1,0.9-1.4s0.8-0.7,1.4-1c0.5-0.2,1.2-0.4,1.9-0.4c0.5,0,0.9,0,1.2,0.1c0.4,0.1,0.7,0.2,0.9,0.3
		c0.3,0.1,0.5,0.3,0.7,0.4c0.2,0.2,0.3,0.3,0.5,0.4c0.2,0.2,0.3,0.4,0.4,0.6c0.1,0.2,0.2,0.4,0.2,0.6s0.1,0.4,0.1,0.6s0,0.3,0,0.5
		L647.4,47.2L647.4,47.2z M645,56.6c0.3,0,0.6-0.1,0.9-0.2c0.3-0.1,0.6-0.3,0.9-0.6c0.3-0.3,0.5-0.6,0.6-1c0.2-0.4,0.2-0.9,0.2-1.4
		c0-0.2,0-0.5-0.1-0.9s-0.2-0.7-0.3-1c-0.2-0.3-0.4-0.6-0.8-0.8c-0.4-0.2-0.8-0.3-1.4-0.3c-0.5,0-0.9,0.1-1.2,0.3s-0.6,0.4-0.9,0.7
		c-0.2,0.3-0.4,0.6-0.5,1s-0.2,0.8-0.2,1.2c0,0.5,0.1,0.9,0.2,1.2c0.1,0.4,0.3,0.7,0.5,1s0.5,0.5,0.8,0.6
		C644.3,56.5,644.7,56.6,645,56.6z"/>
	<path d="M651.3,51c0-0.3,0-0.8,0-1.3s0.1-1,0.2-1.6c0.1-0.5,0.2-1.1,0.4-1.6s0.5-1,0.8-1.5s0.8-0.8,1.3-1c0.5-0.3,1.1-0.4,1.9-0.4
		c0.7,0,1.3,0.1,1.8,0.3s0.9,0.5,1.3,0.9c0.3,0.4,0.6,0.8,0.8,1.3s0.4,1,0.5,1.5s0.2,1,0.2,1.6s0.1,1,0.1,1.4c0,1.6-0.2,3-0.5,3.9
		c-0.3,1-0.8,1.8-1.4,2.4c-0.2,0.2-0.5,0.4-0.8,0.5s-0.5,0.2-0.8,0.3c-0.2,0.1-0.5,0.1-0.7,0.2c-0.2,0-0.4,0-0.6,0
		c-0.5,0-0.9-0.1-1.3-0.2c-0.4-0.1-0.7-0.3-1-0.5s-0.6-0.5-0.8-0.7c-0.2-0.3-0.4-0.6-0.6-0.9c-0.2-0.5-0.4-1-0.6-1.8
		C651.3,53,651.3,52.3,651.3,51z M653.2,50.9c0,0.8,0,1.5,0.1,2.2s0.2,1.2,0.4,1.7s0.5,0.9,0.8,1.2s0.8,0.4,1.3,0.4
		c0.6,0,1-0.2,1.4-0.5s0.6-0.8,0.8-1.3s0.3-1.1,0.4-1.8c0.1-0.6,0.1-1.3,0.1-1.9c0-0.8,0-1.6-0.1-2.3s-0.2-1.3-0.4-1.8
		s-0.5-0.9-0.8-1.2s-0.8-0.4-1.3-0.4c-0.6,0-1.1,0.2-1.5,0.5c-0.4,0.4-0.6,0.8-0.8,1.4c-0.2,0.5-0.3,1.2-0.4,1.8
		C653.2,49.7,653.2,50.3,653.2,50.9z"/>
	<path d="M662.4,51c0-0.3,0-0.8,0-1.3s0.1-1,0.2-1.6c0.1-0.5,0.2-1.1,0.4-1.6s0.5-1,0.8-1.5s0.8-0.8,1.3-1c0.5-0.3,1.1-0.4,1.9-0.4
		c0.7,0,1.3,0.1,1.8,0.3s0.9,0.5,1.3,0.9c0.3,0.4,0.6,0.8,0.8,1.3s0.4,1,0.5,1.5s0.2,1,0.2,1.6s0.1,1,0.1,1.4c0,1.6-0.2,3-0.5,3.9
		c-0.3,1-0.8,1.8-1.4,2.4c-0.2,0.2-0.5,0.4-0.8,0.5s-0.5,0.2-0.8,0.3c-0.2,0.1-0.5,0.1-0.7,0.2c-0.2,0-0.4,0-0.6,0
		c-0.5,0-0.9-0.1-1.3-0.2c-0.4-0.1-0.7-0.3-1-0.5s-0.6-0.5-0.8-0.7c-0.2-0.3-0.4-0.6-0.6-0.9c-0.2-0.5-0.4-1-0.6-1.8
		C662.4,53,662.4,52.3,662.4,51z M664.3,50.9c0,0.8,0,1.5,0.1,2.2s0.2,1.2,0.4,1.7s0.5,0.9,0.8,1.2s0.8,0.4,1.3,0.4
		c0.6,0,1-0.2,1.4-0.5s0.6-0.8,0.8-1.3s0.3-1.1,0.4-1.8c0.1-0.6,0.1-1.3,0.1-1.9c0-0.8,0-1.6-0.1-2.3s-0.2-1.3-0.4-1.8
		s-0.5-0.9-0.8-1.2s-0.8-0.4-1.3-0.4c-0.6,0-1.1,0.2-1.5,0.5c-0.4,0.4-0.6,0.8-0.8,1.4c-0.2,0.5-0.3,1.2-0.4,1.8
		C664.3,49.7,664.3,50.3,664.3,50.9z"/>
	<path d="M673.5,51c0-0.3,0-0.8,0-1.3s0.1-1,0.2-1.6c0.1-0.5,0.2-1.1,0.4-1.6s0.5-1,0.8-1.5s0.8-0.8,1.3-1c0.5-0.3,1.1-0.4,1.9-0.4
		c0.7,0,1.3,0.1,1.8,0.3s0.9,0.5,1.3,0.9s0.6,0.8,0.8,1.3s0.4,1,0.5,1.5s0.2,1,0.2,1.6s0.1,1,0.1,1.4c0,1.6-0.2,3-0.5,3.9
		c-0.3,1-0.8,1.8-1.4,2.4c-0.2,0.2-0.5,0.4-0.8,0.5s-0.5,0.2-0.8,0.3s-0.5,0.1-0.7,0.2c-0.2,0-0.4,0-0.6,0c-0.5,0-0.9-0.1-1.3-0.2
		c-0.4-0.1-0.7-0.3-1-0.5s-0.6-0.5-0.8-0.7c-0.2-0.3-0.4-0.6-0.6-0.9c-0.2-0.5-0.4-1-0.6-1.8C673.6,53.3,673.5,52.3,673.5,51z
		 M675.4,50.9c0,0.8,0,1.5,0.1,2.2s0.2,1.2,0.4,1.7s0.5,0.9,0.8,1.2s0.8,0.4,1.3,0.4c0.6,0,1-0.2,1.4-0.5s0.6-0.8,0.8-1.3
		s0.3-1.1,0.4-1.8c0.1-0.6,0.1-1.3,0.1-1.9c0-0.8,0-1.6-0.1-2.3s-0.2-1.3-0.4-1.8s-0.5-0.9-0.8-1.2s-0.8-0.4-1.3-0.4
		c-0.6,0-1.1,0.2-1.5,0.5c-0.4,0.4-0.6,0.8-0.8,1.4c-0.2,0.6-0.3,1.2-0.4,1.8C675.5,49.7,675.4,50.3,675.4,50.9z"/>
</g>
<g class="st1">
	<path d="M740.6,113.2h2.1l5.8,14.4h-2.2l-1.6-3.8H738l-1.6,3.8h-2.1L740.6,113.2z M738.8,122.3h5.5l-2.7-7.1L738.8,122.3z"/>
	<path d="M752.4,128.4c0,0.3,0.1,0.5,0.1,0.8c0.1,0.2,0.2,0.4,0.4,0.6s0.4,0.3,0.7,0.4c0.3,0.1,0.7,0.2,1.1,0.2
		c0.7,0,1.2-0.1,1.5-0.3c0.4-0.2,0.6-0.5,0.8-1c0.2-0.4,0.3-0.9,0.3-1.5c0-0.6,0.1-1.2,0.1-1.9c-0.2,0.4-0.5,0.7-0.8,1
		s-0.6,0.4-1,0.5c-0.3,0.1-0.6,0.2-0.9,0.2c-0.3,0-0.5,0-0.7,0s-0.5,0-0.8-0.1c-0.3,0-0.5-0.1-0.8-0.2s-0.5-0.2-0.8-0.4
		c-0.3-0.2-0.5-0.4-0.7-0.6c-0.4-0.5-0.7-1.1-0.9-1.7s-0.2-1.3-0.2-2c0-0.9,0.1-1.6,0.4-2.2c0.2-0.6,0.6-1.2,1-1.6s0.9-0.7,1.4-0.9
		c0.5-0.2,1.1-0.3,1.7-0.3c0.5,0,0.9,0.1,1.3,0.2c0.4,0.1,0.7,0.2,0.9,0.4c0.2,0.2,0.4,0.3,0.6,0.5c0.1,0.2,0.3,0.3,0.4,0.5v-1.4
		h1.8v1.8v6.3c0,0.6,0,1.1,0,1.6c0,0.4,0,0.8-0.1,1.1c0,0.3-0.1,0.6-0.1,0.8c-0.1,0.2-0.1,0.4-0.2,0.6c-0.2,0.4-0.5,0.7-0.8,1
		c-0.3,0.2-0.7,0.4-1.1,0.5c-0.4,0.1-0.8,0.2-1.2,0.2s-0.8,0.1-1.1,0.1c-0.7,0-1.2,0-1.7-0.1s-0.9-0.2-1.2-0.4s-0.5-0.4-0.7-0.6
		s-0.3-0.5-0.4-0.7c-0.1-0.2-0.2-0.5-0.2-0.7s0-0.5-0.1-0.7L752.4,128.4L752.4,128.4z M754.6,126.1c0.6,0,1-0.1,1.3-0.3
		c0.3-0.2,0.6-0.4,0.8-0.7c0.1-0.1,0.2-0.3,0.3-0.4s0.2-0.3,0.2-0.5c0.1-0.2,0.1-0.5,0.1-0.8s0-0.7,0-1.1c0-0.6-0.1-1.2-0.2-1.5
		s-0.3-0.7-0.6-1s-0.6-0.5-0.9-0.6c-0.4-0.2-0.8-0.2-1.2-0.2c-0.6,0-1.1,0.1-1.4,0.4c-0.4,0.3-0.6,0.6-0.8,1s-0.3,0.8-0.4,1.2
		c-0.1,0.4-0.1,0.8-0.1,1.1c0,0.4,0,0.8,0.1,1.2s0.2,0.8,0.4,1.2s0.5,0.6,0.8,0.9C753.5,125.9,754,126.1,754.6,126.1z"/>
	<path d="M763.9,123c0,0.5,0,1,0.1,1.4s0.3,0.8,0.5,1.2c0.2,0.3,0.5,0.6,0.9,0.8s0.8,0.3,1.3,0.3c0.6,0,1.1-0.2,1.6-0.5
		c0.4-0.3,0.7-0.9,0.8-1.6h1.9c0,0.3-0.1,0.6-0.2,0.9c-0.1,0.4-0.3,0.8-0.7,1.2c-0.1,0.1-0.3,0.3-0.4,0.4s-0.4,0.3-0.7,0.4
		s-0.6,0.2-1,0.3c-0.4,0.1-0.8,0.1-1.3,0.1c-1.6,0-2.8-0.5-3.5-1.4s-1.1-2.2-1.1-3.8c0-1,0.1-1.9,0.4-2.7c0.3-0.8,0.8-1.5,1.6-2
		c0.2-0.2,0.5-0.3,0.8-0.4s0.5-0.2,0.8-0.2c0.2-0.1,0.5-0.1,0.7-0.1s0.4,0,0.5,0c0.7,0,1.4,0.1,1.9,0.3s0.9,0.5,1.2,0.8
		s0.6,0.7,0.7,1.1c0.2,0.4,0.3,0.8,0.4,1.2c0.1,0.4,0.1,0.8,0.1,1.2s0,0.7,0,1L763.9,123L763.9,123z M769.2,121.6
		c0-0.2,0-0.5-0.1-0.9s-0.1-0.7-0.3-1s-0.4-0.6-0.8-0.8c-0.3-0.2-0.8-0.3-1.4-0.3c-0.3,0-0.6,0-0.9,0.2c-0.3,0.1-0.6,0.3-0.9,0.5
		c-0.3,0.2-0.5,0.5-0.7,0.9s-0.3,0.8-0.3,1.4C763.8,121.6,769.2,121.6,769.2,121.6z"/>
	<path d="M778.7,125.8l3.6-3.6c0.4-0.4,0.8-0.8,1.1-1.2c0.4-0.4,0.7-0.8,1-1.2c0.4-0.5,0.7-1,0.8-1.4s0.2-0.7,0.2-1.1
		c0-0.2,0-0.4-0.1-0.6c0-0.3-0.1-0.5-0.3-0.7s-0.4-0.4-0.7-0.6s-0.7-0.3-1.2-0.3c-0.6,0-1,0.1-1.3,0.3s-0.5,0.4-0.7,0.7
		s-0.2,0.5-0.3,0.8s0,0.5,0,0.6h-2.1c0-0.2,0-0.4,0-0.6s0.1-0.5,0.2-0.8c0.1-0.3,0.2-0.5,0.4-0.8s0.4-0.6,0.7-0.8
		c0.5-0.4,1-0.7,1.5-0.8c0.5-0.1,1-0.2,1.5-0.2s1.1,0.1,1.6,0.2s1,0.4,1.4,0.7c0.4,0.3,0.7,0.7,1,1.2c0.2,0.5,0.4,1.1,0.4,1.9
		c0,0.2,0,0.4,0,0.6s-0.1,0.4-0.2,0.7s-0.3,0.6-0.5,0.9s-0.5,0.7-0.9,1.2c-0.1,0.1-0.3,0.3-0.5,0.6c-0.2,0.3-0.5,0.5-0.8,0.8
		s-0.5,0.5-0.8,0.8c-0.2,0.3-0.4,0.4-0.5,0.5l-2.4,2.3h6.6v1.6h-8.8L778.7,125.8L778.7,125.8z"/>
	<path d="M789.7,120.9c0-0.3,0-0.8,0-1.3s0.1-1,0.2-1.6s0.2-1.1,0.4-1.6s0.5-1,0.8-1.5s0.8-0.8,1.3-1s1.1-0.4,1.9-0.4
		c0.7,0,1.3,0.1,1.8,0.3c0.5,0.2,0.9,0.5,1.3,0.9c0.3,0.4,0.6,0.8,0.8,1.3s0.4,1,0.5,1.5s0.2,1,0.2,1.6s0.1,1,0.1,1.4
		c0,1.6-0.2,3-0.5,3.9c-0.3,1-0.8,1.8-1.4,2.4c-0.2,0.2-0.5,0.4-0.8,0.5s-0.5,0.2-0.8,0.3c-0.2,0.1-0.5,0.1-0.7,0.2
		c-0.2,0-0.4,0-0.6,0c-0.5,0-0.9-0.1-1.3-0.2c-0.4-0.1-0.7-0.3-1-0.5s-0.6-0.5-0.8-0.7c-0.2-0.3-0.4-0.6-0.6-0.9
		c-0.2-0.5-0.4-1-0.6-1.8C789.8,123.1,789.7,122.1,789.7,120.9z M791.6,120.8c0,0.8,0,1.5,0.1,2.2s0.2,1.2,0.4,1.7s0.5,0.9,0.8,1.2
		c0.3,0.3,0.8,0.4,1.3,0.4c0.6,0,1-0.2,1.4-0.5s0.6-0.8,0.8-1.3s0.3-1.1,0.4-1.8c0.1-0.6,0.1-1.3,0.1-1.9c0-0.8,0-1.6-0.1-2.3
		s-0.2-1.3-0.4-1.8s-0.5-0.9-0.8-1.2c-0.3-0.3-0.8-0.4-1.3-0.4c-0.6,0-1.1,0.2-1.5,0.5c-0.4,0.4-0.6,0.8-0.8,1.4
		c-0.2,0.5-0.3,1.2-0.4,1.8C791.7,119.5,791.6,120.2,791.6,120.8z"/>
</g>
<g class="st1">
	<path d="M740.6,234.8h2.1l5.8,14.4h-2.2l-1.6-3.8H738l-1.6,3.8h-2.1L740.6,234.8z M738.8,243.9h5.5l-2.7-7.1L738.8,243.9z"/>
	<path d="M752.4,250c0,0.3,0.1,0.5,0.1,0.8c0.1,0.2,0.2,0.4,0.4,0.6c0.2,0.2,0.4,0.3,0.7,0.4c0.3,0.1,0.7,0.2,1.1,0.2
		c0.7,0,1.2-0.1,1.5-0.3c0.4-0.2,0.6-0.5,0.8-1c0.2-0.4,0.3-0.9,0.3-1.5s0.1-1.2,0.1-1.9c-0.2,0.4-0.5,0.7-0.8,1s-0.6,0.4-1,0.5
		c-0.3,0.1-0.6,0.2-0.9,0.2c-0.3,0-0.5,0-0.7,0s-0.5,0-0.8-0.1c-0.3,0-0.5-0.1-0.8-0.2c-0.3-0.1-0.5-0.2-0.8-0.4s-0.5-0.4-0.7-0.6
		c-0.4-0.5-0.7-1.1-0.9-1.7c-0.2-0.6-0.2-1.3-0.2-2c0-0.9,0.1-1.6,0.4-2.2c0.2-0.6,0.6-1.2,1-1.6s0.9-0.7,1.4-0.9s1.1-0.3,1.7-0.3
		c0.5,0,0.9,0.1,1.3,0.2c0.4,0.1,0.7,0.2,0.9,0.4s0.4,0.3,0.6,0.5c0.1,0.2,0.3,0.3,0.4,0.5v-1.4h1.8v1.8v6.3c0,0.6,0,1.1,0,1.6
		c0,0.4,0,0.8-0.1,1.1c0,0.3-0.1,0.6-0.1,0.8c-0.1,0.2-0.1,0.4-0.2,0.6c-0.2,0.4-0.5,0.7-0.8,1c-0.3,0.2-0.7,0.4-1.1,0.5
		c-0.4,0.1-0.8,0.2-1.2,0.2s-0.8,0.1-1.1,0.1c-0.7,0-1.2,0-1.7-0.1s-0.9-0.2-1.2-0.4s-0.5-0.4-0.7-0.6c-0.2-0.2-0.3-0.5-0.4-0.7
		c-0.1-0.2-0.2-0.5-0.2-0.7s0-0.5-0.1-0.7L752.4,250L752.4,250z M754.6,247.7c0.6,0,1-0.1,1.3-0.3s0.6-0.4,0.8-0.7
		c0.1-0.1,0.2-0.3,0.3-0.4s0.2-0.3,0.2-0.5c0.1-0.2,0.1-0.5,0.1-0.8s0-0.7,0-1.1c0-0.6-0.1-1.2-0.2-1.5s-0.3-0.7-0.6-1
		s-0.6-0.5-0.9-0.6c-0.4-0.2-0.8-0.2-1.2-0.2c-0.6,0-1.1,0.1-1.4,0.4c-0.4,0.3-0.6,0.6-0.8,1s-0.3,0.8-0.4,1.2
		c-0.1,0.4-0.1,0.8-0.1,1.1c0,0.4,0,0.8,0.1,1.2s0.2,0.8,0.4,1.2s0.5,0.6,0.8,0.9C753.5,247.6,754,247.7,754.6,247.7z"/>
	<path d="M763.9,244.6c0,0.5,0,1,0.1,1.4s0.3,0.8,0.5,1.2c0.2,0.3,0.5,0.6,0.9,0.8s0.8,0.3,1.3,0.3c0.6,0,1.1-0.2,1.6-0.5
		c0.4-0.3,0.7-0.9,0.8-1.6h1.9c0,0.3-0.1,0.6-0.2,0.9c-0.1,0.4-0.3,0.8-0.7,1.2c-0.1,0.1-0.3,0.3-0.4,0.4s-0.4,0.3-0.7,0.4
		c-0.3,0.1-0.6,0.2-1,0.3s-0.8,0.1-1.3,0.1c-1.6,0-2.8-0.5-3.5-1.4s-1.1-2.2-1.1-3.8c0-1,0.1-1.9,0.4-2.7c0.3-0.8,0.8-1.5,1.6-2
		c0.2-0.2,0.5-0.3,0.8-0.4c0.3-0.1,0.5-0.2,0.8-0.2c0.2-0.1,0.5-0.1,0.7-0.1s0.4,0,0.5,0c0.7,0,1.4,0.1,1.9,0.3s0.9,0.5,1.2,0.8
		s0.6,0.7,0.7,1.1c0.2,0.4,0.3,0.8,0.4,1.2c0.1,0.4,0.1,0.8,0.1,1.2s0,0.7,0,1h-7.3V244.6z M769.2,243.2c0-0.2,0-0.5-0.1-0.9
		s-0.1-0.7-0.3-1s-0.4-0.6-0.8-0.8c-0.3-0.2-0.8-0.3-1.4-0.3c-0.3,0-0.6,0-0.9,0.2c-0.3,0.1-0.6,0.3-0.9,0.5
		c-0.3,0.2-0.5,0.5-0.7,0.9s-0.3,0.8-0.3,1.4L769.2,243.2L769.2,243.2z"/>
	<path d="M780.9,246c0,0.3,0.1,0.6,0.2,0.9c0.1,0.2,0.3,0.4,0.5,0.6s0.5,0.3,0.7,0.4c0.3,0.1,0.5,0.1,0.8,0.1c0.6,0,1.1-0.1,1.4-0.4
		c0.4-0.2,0.6-0.5,0.8-0.9c0.2-0.3,0.3-0.7,0.4-1s0.1-0.7,0.1-0.9c0-0.9-0.2-1.7-0.7-2.2s-1.1-0.8-1.9-0.8c-0.4,0-0.8,0.1-1.1,0.2
		c-0.3,0.1-0.6,0.3-0.8,0.5s-0.4,0.4-0.4,0.6c-0.1,0.2-0.1,0.4-0.2,0.5h-1.8l0.4-8.2h7.8v1.6H781l-0.3,4.5c0.1-0.1,0.2-0.2,0.4-0.4
		c0.2-0.1,0.4-0.3,0.6-0.4c0.2-0.1,0.5-0.2,0.8-0.3s0.7-0.1,1.1-0.1c0.7,0,1.3,0.1,1.8,0.4c0.5,0.3,1,0.6,1.3,1s0.6,0.9,0.8,1.5
		c0.2,0.5,0.3,1.1,0.3,1.7c0,0.7-0.1,1.3-0.3,1.9c-0.2,0.6-0.6,1.1-1,1.5s-0.9,0.8-1.6,1c-0.6,0.2-1.3,0.4-2,0.4
		c-0.6,0-1.1-0.1-1.6-0.2c-0.5-0.2-0.9-0.4-1.3-0.7s-0.7-0.7-0.9-1.1c-0.2-0.5-0.3-1-0.4-1.6h2.2L780.9,246L780.9,246z"/>
	<path d="M789.7,242.5c0-0.3,0-0.8,0-1.3s0.1-1,0.2-1.6s0.2-1.1,0.4-1.6s0.5-1,0.8-1.5s0.8-0.8,1.3-1s1.1-0.4,1.9-0.4
		c0.7,0,1.3,0.1,1.8,0.3s0.9,0.5,1.3,0.9c0.3,0.4,0.6,0.8,0.8,1.3s0.4,1,0.5,1.5s0.2,1,0.2,1.6s0.1,1,0.1,1.4c0,1.6-0.2,3-0.5,3.9
		c-0.3,1-0.8,1.8-1.4,2.4c-0.2,0.2-0.5,0.4-0.8,0.5s-0.5,0.2-0.8,0.3c-0.2,0.1-0.5,0.1-0.7,0.2c-0.2,0-0.4,0-0.6,0
		c-0.5,0-0.9-0.1-1.3-0.2c-0.4-0.1-0.7-0.3-1-0.5s-0.6-0.5-0.8-0.7c-0.2-0.3-0.4-0.6-0.6-0.9c-0.2-0.5-0.4-1-0.6-1.8
		C789.8,244.7,789.7,243.7,789.7,242.5z M791.6,242.4c0,0.8,0,1.5,0.1,2.2s0.2,1.2,0.4,1.7s0.5,0.9,0.8,1.2s0.8,0.4,1.3,0.4
		c0.6,0,1-0.2,1.4-0.5s0.6-0.8,0.8-1.3s0.3-1.1,0.4-1.8c0.1-0.6,0.1-1.3,0.1-1.9c0-0.8,0-1.6-0.1-2.3s-0.2-1.3-0.4-1.8
		s-0.5-0.9-0.8-1.2s-0.8-0.4-1.3-0.4c-0.6,0-1.1,0.2-1.5,0.5c-0.4,0.4-0.6,0.8-0.8,1.4c-0.2,0.5-0.3,1.2-0.4,1.8
		C791.7,241.1,791.6,241.8,791.6,242.4z"/>
</g>
<g class="st1">
	<path d="M740.6,289.9h2.1l5.8,14.4h-2.2l-1.6-3.8H738l-1.6,3.8h-2.1L740.6,289.9z M738.8,299h5.5l-2.7-7.1L738.8,299z"/>
	<path d="M752.4,305.2c0,0.3,0.1,0.5,0.1,0.8c0.1,0.2,0.2,0.4,0.4,0.6s0.4,0.3,0.7,0.4s0.7,0.2,1.1,0.2c0.7,0,1.2-0.1,1.5-0.3
		c0.4-0.2,0.6-0.5,0.8-1c0.2-0.4,0.3-0.9,0.3-1.5s0.1-1.2,0.1-1.9c-0.2,0.4-0.5,0.7-0.8,1s-0.6,0.4-1,0.5c-0.3,0.1-0.6,0.2-0.9,0.2
		c-0.3,0-0.5,0-0.7,0s-0.5,0-0.8-0.1c-0.3,0-0.5-0.1-0.8-0.2s-0.5-0.2-0.8-0.4c-0.3-0.2-0.5-0.4-0.7-0.6c-0.4-0.5-0.7-1.1-0.9-1.7
		s-0.2-1.3-0.2-2c0-0.9,0.1-1.6,0.4-2.2c0.2-0.6,0.6-1.2,1-1.6s0.9-0.7,1.4-0.9c0.5-0.2,1.1-0.3,1.7-0.3c0.5,0,0.9,0.1,1.3,0.2
		c0.4,0.1,0.7,0.2,0.9,0.4c0.2,0.2,0.4,0.3,0.6,0.5c0.1,0.2,0.3,0.3,0.4,0.5v-1.4h1.8v1.8v6.3c0,0.6,0,1.1,0,1.6
		c0,0.4,0,0.8-0.1,1.1c0,0.3-0.1,0.6-0.1,0.8c-0.1,0.2-0.1,0.4-0.2,0.6c-0.2,0.4-0.5,0.7-0.8,1c-0.3,0.2-0.7,0.4-1.1,0.5
		c-0.4,0.1-0.8,0.2-1.2,0.2s-0.8,0.1-1.1,0.1c-0.7,0-1.2,0-1.7-0.1s-0.9-0.2-1.2-0.4c-0.3-0.2-0.5-0.4-0.7-0.6s-0.3-0.5-0.4-0.7
		c-0.1-0.2-0.2-0.5-0.2-0.7s0-0.5-0.1-0.7L752.4,305.2L752.4,305.2z M754.6,302.8c0.6,0,1-0.1,1.3-0.3c0.3-0.2,0.6-0.4,0.8-0.7
		c0.1-0.1,0.2-0.3,0.3-0.4s0.2-0.3,0.2-0.5c0.1-0.2,0.1-0.5,0.1-0.8s0-0.7,0-1.1c0-0.6-0.1-1.2-0.2-1.5s-0.3-0.7-0.6-1
		s-0.6-0.5-0.9-0.6c-0.4-0.2-0.8-0.2-1.2-0.2c-0.6,0-1.1,0.1-1.4,0.4c-0.4,0.3-0.6,0.6-0.8,1s-0.3,0.8-0.4,1.2
		c-0.1,0.4-0.1,0.8-0.1,1.1c0,0.4,0,0.8,0.1,1.2s0.2,0.8,0.4,1.2s0.5,0.6,0.8,0.9C753.5,302.7,754,302.8,754.6,302.8z"/>
	<path d="M763.9,299.7c0,0.5,0,1,0.1,1.4s0.3,0.8,0.5,1.2c0.2,0.3,0.5,0.6,0.9,0.8s0.8,0.3,1.3,0.3c0.6,0,1.1-0.2,1.6-0.5
		c0.4-0.3,0.7-0.9,0.8-1.6h1.9c0,0.3-0.1,0.6-0.2,0.9c-0.1,0.4-0.3,0.8-0.7,1.2c-0.1,0.1-0.3,0.3-0.4,0.4s-0.4,0.3-0.7,0.4
		s-0.6,0.2-1,0.3c-0.4,0.1-0.8,0.1-1.3,0.1c-1.6,0-2.8-0.5-3.5-1.4s-1.1-2.2-1.1-3.8c0-1,0.1-1.9,0.4-2.7c0.3-0.8,0.8-1.5,1.6-2
		c0.2-0.2,0.5-0.3,0.8-0.4s0.5-0.2,0.8-0.2c0.2-0.1,0.5-0.1,0.7-0.1s0.4,0,0.5,0c0.7,0,1.4,0.1,1.9,0.3s0.9,0.5,1.2,0.8
		s0.6,0.7,0.7,1.1c0.2,0.4,0.3,0.8,0.4,1.2c0.1,0.4,0.1,0.8,0.1,1.2s0,0.7,0,1h-7.3V299.7z M769.2,298.4c0-0.2,0-0.5-0.1-0.9
		s-0.1-0.7-0.3-1s-0.4-0.6-0.8-0.8c-0.3-0.2-0.8-0.3-1.4-0.3c-0.3,0-0.6,0-0.9,0.2c-0.3,0.1-0.6,0.3-0.9,0.5
		c-0.3,0.2-0.5,0.5-0.7,0.9s-0.3,0.8-0.3,1.4L769.2,298.4L769.2,298.4z"/>
	<path d="M785.8,293.8c0-0.4-0.1-0.7-0.2-1c-0.1-0.3-0.3-0.5-0.5-0.6c-0.2-0.2-0.4-0.3-0.7-0.3c-0.2-0.1-0.5-0.1-0.7-0.1
		c-1,0-1.7,0.4-2.2,1.3s-0.8,2.2-0.9,4.1c0.1-0.2,0.2-0.3,0.4-0.5s0.4-0.4,0.6-0.6c0.3-0.2,0.6-0.3,0.9-0.5c0.4-0.1,0.8-0.2,1.3-0.2
		c0.6,0,1.1,0.1,1.6,0.3c0.5,0.2,1,0.5,1.3,0.8c0.4,0.4,0.7,0.8,0.9,1.4s0.3,1.2,0.3,1.9c0,0.8-0.1,1.5-0.4,2.1s-0.6,1.1-1,1.5
		s-0.9,0.7-1.5,0.9s-1.1,0.3-1.7,0.3c-0.7,0-1.3-0.1-1.9-0.4s-1.1-0.6-1.5-1.1c-0.3-0.3-0.5-0.7-0.6-1.1c-0.2-0.4-0.3-0.8-0.4-1.3
		c-0.1-0.4-0.2-0.9-0.2-1.4s0-0.9,0-1.3c0-0.5,0-1,0.1-1.6s0.1-1.2,0.3-1.7c0.1-0.6,0.3-1.1,0.6-1.7s0.6-1,0.9-1.4
		c0.4-0.4,0.8-0.7,1.4-1c0.5-0.2,1.2-0.4,1.9-0.4c0.5,0,0.9,0,1.2,0.1c0.4,0.1,0.7,0.2,0.9,0.3c0.3,0.1,0.5,0.3,0.7,0.4
		c0.2,0.2,0.3,0.3,0.5,0.4c0.2,0.2,0.3,0.4,0.4,0.6c0.1,0.2,0.2,0.4,0.2,0.6s0.1,0.4,0.1,0.6s0,0.3,0,0.5h-2.1L785.8,293.8
		L785.8,293.8z M783.5,303.2c0.3,0,0.6-0.1,0.9-0.2c0.3-0.1,0.6-0.3,0.9-0.6c0.3-0.3,0.5-0.6,0.6-1c0.2-0.4,0.2-0.9,0.2-1.4
		c0-0.2,0-0.5-0.1-0.9s-0.2-0.7-0.3-1c-0.2-0.3-0.4-0.6-0.8-0.8s-0.8-0.3-1.4-0.3c-0.5,0-0.9,0.1-1.2,0.3c-0.3,0.2-0.6,0.4-0.9,0.7
		c-0.2,0.3-0.4,0.6-0.5,1s-0.2,0.8-0.2,1.2c0,0.5,0.1,0.9,0.2,1.2s0.3,0.7,0.5,1s0.5,0.5,0.8,0.6
		C782.7,303.1,783.1,303.2,783.5,303.2z"/>
	<path d="M789.7,297.6c0-0.3,0-0.8,0-1.3s0.1-1,0.2-1.6s0.2-1.1,0.4-1.6s0.5-1,0.8-1.5s0.8-0.8,1.3-1s1.1-0.4,1.9-0.4
		c0.7,0,1.3,0.1,1.8,0.3c0.5,0.2,0.9,0.5,1.3,0.9c0.3,0.4,0.6,0.8,0.8,1.3s0.4,1,0.5,1.5s0.2,1,0.2,1.6s0.1,1,0.1,1.4
		c0,1.6-0.2,3-0.5,3.9c-0.3,1-0.8,1.8-1.4,2.4c-0.2,0.2-0.5,0.4-0.8,0.5s-0.5,0.2-0.8,0.3c-0.2,0.1-0.5,0.1-0.7,0.2
		c-0.2,0-0.4,0-0.6,0c-0.5,0-0.9-0.1-1.3-0.2c-0.4-0.1-0.7-0.3-1-0.5s-0.6-0.5-0.8-0.7c-0.2-0.3-0.4-0.6-0.6-0.9
		c-0.2-0.5-0.4-1-0.6-1.8C789.8,299.8,789.7,298.9,789.7,297.6z M791.6,297.5c0,0.8,0,1.5,0.1,2.2s0.2,1.2,0.4,1.7s0.5,0.9,0.8,1.2
		c0.3,0.3,0.8,0.4,1.3,0.4c0.6,0,1-0.2,1.4-0.5s0.6-0.8,0.8-1.3s0.3-1.1,0.4-1.8c0.1-0.6,0.1-1.3,0.1-1.9c0-0.8,0-1.6-0.1-2.3
		s-0.2-1.3-0.4-1.8s-0.5-0.9-0.8-1.2c-0.3-0.3-0.8-0.4-1.3-0.4c-0.6,0-1.1,0.2-1.5,0.5c-0.4,0.4-0.6,0.8-0.8,1.4
		c-0.2,0.5-0.3,1.2-0.4,1.8C791.7,296.3,791.6,296.9,791.6,297.5z"/>
</g>
<g class="st1">
	<path d="M740.6,387.3h2.1l5.8,14.4h-2.2l-1.6-3.8H738l-1.6,3.8h-2.1L740.6,387.3z M738.8,396.4h5.5l-2.7-7.1L738.8,396.4z"/>
	<path d="M752.4,402.5c0,0.3,0.1,0.5,0.1,0.8c0.1,0.2,0.2,0.4,0.4,0.6s0.4,0.3,0.7,0.4s0.7,0.2,1.1,0.2c0.7,0,1.2-0.1,1.5-0.3
		c0.4-0.2,0.6-0.5,0.8-1c0.2-0.4,0.3-0.9,0.3-1.5s0.1-1.2,0.1-1.9c-0.2,0.4-0.5,0.7-0.8,1s-0.6,0.4-1,0.5c-0.3,0.1-0.6,0.2-0.9,0.2
		c-0.3,0-0.5,0-0.7,0s-0.5,0-0.8-0.1c-0.3,0-0.5-0.1-0.8-0.2s-0.5-0.2-0.8-0.4c-0.3-0.2-0.5-0.4-0.7-0.6c-0.4-0.5-0.7-1.1-0.9-1.7
		s-0.2-1.3-0.2-2c0-0.9,0.1-1.6,0.4-2.2c0.2-0.6,0.6-1.2,1-1.6s0.9-0.7,1.4-0.9c0.5-0.2,1.1-0.3,1.7-0.3c0.5,0,0.9,0.1,1.3,0.2
		c0.4,0.1,0.7,0.2,0.9,0.4c0.2,0.2,0.4,0.3,0.6,0.5c0.1,0.2,0.3,0.3,0.4,0.5v-1.4h1.8v1.8v6.3c0,0.6,0,1.1,0,1.6
		c0,0.4,0,0.8-0.1,1.1c0,0.3-0.1,0.6-0.1,0.8c-0.1,0.2-0.1,0.4-0.2,0.6c-0.2,0.4-0.5,0.7-0.8,1c-0.3,0.2-0.7,0.4-1.1,0.5
		c-0.4,0.1-0.8,0.2-1.2,0.2s-0.8,0.1-1.1,0.1c-0.7,0-1.2,0-1.7-0.1s-0.9-0.2-1.2-0.4c-0.3-0.2-0.5-0.4-0.7-0.6s-0.3-0.5-0.4-0.7
		c-0.1-0.2-0.2-0.5-0.2-0.7s0-0.5-0.1-0.7L752.4,402.5L752.4,402.5z M754.6,400.2c0.6,0,1-0.1,1.3-0.3c0.3-0.2,0.6-0.4,0.8-0.7
		c0.1-0.1,0.2-0.3,0.3-0.4s0.2-0.3,0.2-0.5c0.1-0.2,0.1-0.5,0.1-0.8s0-0.7,0-1.1c0-0.6-0.1-1.2-0.2-1.5s-0.3-0.7-0.6-1
		s-0.6-0.5-0.9-0.6c-0.4-0.2-0.8-0.2-1.2-0.2c-0.6,0-1.1,0.1-1.4,0.4c-0.4,0.3-0.6,0.6-0.8,1s-0.3,0.8-0.4,1.2
		c-0.1,0.4-0.1,0.8-0.1,1.1c0,0.4,0,0.8,0.1,1.2s0.2,0.8,0.4,1.2s0.5,0.6,0.8,0.9C753.5,400.1,754,400.2,754.6,400.2z"/>
	<path d="M763.9,397.1c0,0.5,0,1,0.1,1.4s0.3,0.8,0.5,1.2c0.2,0.3,0.5,0.6,0.9,0.8s0.8,0.3,1.3,0.3c0.6,0,1.1-0.2,1.6-0.5
		c0.4-0.3,0.7-0.9,0.8-1.6h1.9c0,0.3-0.1,0.6-0.2,0.9c-0.1,0.4-0.3,0.8-0.7,1.2c-0.1,0.1-0.3,0.3-0.4,0.4s-0.4,0.3-0.7,0.4
		s-0.6,0.2-1,0.3c-0.4,0.1-0.8,0.1-1.3,0.1c-1.6,0-2.8-0.5-3.5-1.4s-1.1-2.2-1.1-3.8c0-1,0.1-1.9,0.4-2.7c0.3-0.8,0.8-1.5,1.6-2
		c0.2-0.2,0.5-0.3,0.8-0.4s0.5-0.2,0.8-0.2c0.2-0.1,0.5-0.1,0.7-0.1s0.4,0,0.5,0c0.7,0,1.4,0.1,1.9,0.3s0.9,0.5,1.2,0.8
		s0.6,0.7,0.7,1.1c0.2,0.4,0.3,0.8,0.4,1.2c0.1,0.4,0.1,0.8,0.1,1.2s0,0.7,0,1h-7.3V397.1z M769.2,395.8c0-0.2,0-0.5-0.1-0.9
		s-0.1-0.7-0.3-1s-0.4-0.6-0.8-0.8c-0.3-0.2-0.8-0.3-1.4-0.3c-0.3,0-0.6,0-0.9,0.2c-0.3,0.1-0.6,0.3-0.9,0.5
		c-0.3,0.2-0.5,0.5-0.7,0.9s-0.3,0.8-0.3,1.4L769.2,395.8L769.2,395.8z"/>
	<path d="M778.4,387.9h9.1v1.7l-5.1,12.2h-2.3l5.3-12.2h-7.1L778.4,387.9L778.4,387.9z"/>
	<path d="M789.7,395c0-0.3,0-0.8,0-1.3s0.1-1,0.2-1.6s0.2-1.1,0.4-1.6s0.5-1,0.8-1.5s0.8-0.8,1.3-1s1.1-0.4,1.9-0.4
		c0.7,0,1.3,0.1,1.8,0.3c0.5,0.2,0.9,0.5,1.3,0.9c0.3,0.4,0.6,0.8,0.8,1.3s0.4,1,0.5,1.5s0.2,1,0.2,1.6s0.1,1,0.1,1.4
		c0,1.6-0.2,3-0.5,3.9c-0.3,1-0.8,1.8-1.4,2.4c-0.2,0.2-0.5,0.4-0.8,0.5s-0.5,0.2-0.8,0.3c-0.2,0.1-0.5,0.1-0.7,0.2
		c-0.2,0-0.4,0-0.6,0c-0.5,0-0.9-0.1-1.3-0.2c-0.4-0.1-0.7-0.3-1-0.5s-0.6-0.5-0.8-0.7c-0.2-0.3-0.4-0.6-0.6-0.9
		c-0.2-0.5-0.4-1-0.6-1.8C789.8,397.2,789.7,396.2,789.7,395z M791.6,394.9c0,0.8,0,1.5,0.1,2.2s0.2,1.2,0.4,1.7s0.5,0.9,0.8,1.2
		c0.3,0.3,0.8,0.4,1.3,0.4c0.6,0,1-0.2,1.4-0.5s0.6-0.8,0.8-1.3s0.3-1.1,0.4-1.8c0.1-0.6,0.1-1.3,0.1-1.9c0-0.8,0-1.6-0.1-2.3
		s-0.2-1.3-0.4-1.8s-0.5-0.9-0.8-1.2c-0.3-0.3-0.8-0.4-1.3-0.4c-0.6,0-1.1,0.2-1.5,0.5c-0.4,0.4-0.6,0.8-0.8,1.4
		c-0.2,0.5-0.3,1.2-0.4,1.8C791.7,393.6,791.6,394.3,791.6,394.9z"/>
</g>
<g class="st1">
	<path class="st2" d="M740.6,484.3h2.1l5.8,14.4h-2.2l-1.6-3.8H738l-1.6,3.8h-2.1L740.6,484.3z M738.8,493.4h5.5l-2.7-7.1
		L738.8,493.4z"/>
	<path class="st2" d="M752.4,499.5c0,0.3,0.1,0.5,0.1,0.8c0.1,0.2,0.2,0.4,0.4,0.6s0.4,0.3,0.7,0.4s0.7,0.2,1.1,0.2
		c0.7,0,1.2-0.1,1.5-0.3c0.4-0.2,0.6-0.5,0.8-1c0.2-0.4,0.3-0.9,0.3-1.5s0.1-1.2,0.1-1.9c-0.2,0.4-0.5,0.7-0.8,1s-0.6,0.4-1,0.5
		c-0.3,0.1-0.6,0.2-0.9,0.2c-0.3,0-0.5,0-0.7,0s-0.5,0-0.8-0.1c-0.3,0-0.5-0.1-0.8-0.2s-0.5-0.2-0.8-0.4c-0.3-0.2-0.5-0.4-0.7-0.6
		c-0.4-0.5-0.7-1.1-0.9-1.7s-0.2-1.3-0.2-2c0-0.9,0.1-1.6,0.4-2.2c0.2-0.6,0.6-1.2,1-1.6s0.9-0.7,1.4-0.9c0.5-0.2,1.1-0.3,1.7-0.3
		c0.5,0,0.9,0.1,1.3,0.2c0.4,0.1,0.7,0.2,0.9,0.4c0.2,0.2,0.4,0.3,0.6,0.5c0.1,0.2,0.3,0.3,0.4,0.5v-1.4h1.8v1.8v6.3
		c0,0.6,0,1.1,0,1.6c0,0.4,0,0.8-0.1,1.1c0,0.3-0.1,0.6-0.1,0.8c-0.1,0.2-0.1,0.4-0.2,0.6c-0.2,0.4-0.5,0.7-0.8,1
		c-0.3,0.2-0.7,0.4-1.1,0.5c-0.4,0.1-0.8,0.2-1.2,0.2s-0.8,0.1-1.1,0.1c-0.7,0-1.2,0-1.7-0.1s-0.9-0.2-1.2-0.4
		c-0.3-0.2-0.5-0.4-0.7-0.6s-0.3-0.5-0.4-0.7c-0.1-0.2-0.2-0.5-0.2-0.7s0-0.5-0.1-0.7L752.4,499.5L752.4,499.5z M754.6,497.2
		c0.6,0,1-0.1,1.3-0.3c0.3-0.2,0.6-0.4,0.8-0.7c0.1-0.1,0.2-0.3,0.3-0.4s0.2-0.3,0.2-0.5c0.1-0.2,0.1-0.5,0.1-0.8s0-0.7,0-1.1
		c0-0.6-0.1-1.2-0.2-1.5s-0.3-0.7-0.6-1s-0.6-0.5-0.9-0.6c-0.4-0.2-0.8-0.2-1.2-0.2c-0.6,0-1.1,0.1-1.4,0.4c-0.4,0.3-0.6,0.6-0.8,1
		s-0.3,0.8-0.4,1.2c-0.1,0.4-0.1,0.8-0.1,1.1c0,0.4,0,0.8,0.1,1.2s0.2,0.8,0.4,1.2s0.5,0.6,0.8,0.9
		C753.5,497.1,754,497.2,754.6,497.2z"/>
	<path class="st2" d="M763.9,494.1c0,0.5,0,1,0.1,1.4s0.3,0.8,0.5,1.2c0.2,0.3,0.5,0.6,0.9,0.8s0.8,0.3,1.3,0.3
		c0.6,0,1.1-0.2,1.6-0.5c0.4-0.3,0.7-0.9,0.8-1.6h1.9c0,0.3-0.1,0.6-0.2,0.9c-0.1,0.4-0.3,0.8-0.7,1.2c-0.1,0.1-0.3,0.3-0.4,0.4
		s-0.4,0.3-0.7,0.4s-0.6,0.2-1,0.3c-0.4,0.1-0.8,0.1-1.3,0.1c-1.6,0-2.8-0.5-3.5-1.4s-1.1-2.2-1.1-3.8c0-1,0.1-1.9,0.4-2.7
		c0.3-0.8,0.8-1.5,1.6-2c0.2-0.2,0.5-0.3,0.8-0.4s0.5-0.2,0.8-0.2c0.2-0.1,0.5-0.1,0.7-0.1s0.4,0,0.5,0c0.7,0,1.4,0.1,1.9,0.3
		s0.9,0.5,1.2,0.8s0.6,0.7,0.7,1.1c0.2,0.4,0.3,0.8,0.4,1.2c0.1,0.4,0.1,0.8,0.1,1.2s0,0.7,0,1h-7.3V494.1z M769.2,492.8
		c0-0.2,0-0.5-0.1-0.9s-0.1-0.7-0.3-1s-0.4-0.6-0.8-0.8c-0.3-0.2-0.8-0.3-1.4-0.3c-0.3,0-0.6,0-0.9,0.2c-0.3,0.1-0.6,0.3-0.9,0.5
		c-0.3,0.2-0.5,0.5-0.7,0.9s-0.3,0.8-0.3,1.4L769.2,492.8L769.2,492.8z"/>
	<path class="st2" d="M781.5,491.5c-0.9-0.2-1.6-0.6-2.1-1.2s-0.7-1.2-0.7-1.9c0-0.3,0.1-0.7,0.2-1.1c0.1-0.4,0.4-0.8,0.7-1.2
		c0.3-0.4,0.8-0.7,1.4-1s1.3-0.4,2.2-0.4c0.7,0,1.4,0.1,1.9,0.3c0.6,0.2,1,0.4,1.4,0.8s0.7,0.7,0.9,1.2c0.2,0.4,0.3,0.9,0.3,1.5
		c0,0.3-0.1,0.7-0.2,1c-0.1,0.3-0.3,0.6-0.5,0.9s-0.5,0.5-0.9,0.7s-0.8,0.4-1.3,0.4c0.2,0.1,0.5,0.1,0.8,0.3s0.7,0.3,1,0.6
		c0.3,0.3,0.6,0.6,0.8,1s0.4,1,0.4,1.6c0,0.5-0.1,1-0.3,1.4c-0.2,0.5-0.4,0.9-0.8,1.3c-0.4,0.4-0.9,0.7-1.5,1
		c-0.6,0.2-1.3,0.4-2.2,0.4c-0.6,0-1.2-0.1-1.9-0.2s-1.2-0.5-1.7-0.9c-0.4-0.3-0.7-0.8-0.9-1.3s-0.3-1-0.3-1.5s0.1-0.9,0.3-1.4
		c0.2-0.4,0.4-0.8,0.8-1.2c0.3-0.3,0.7-0.6,1-0.7C780.9,491.7,781.2,491.6,781.5,491.5z M780.5,494.9c0,0.3,0,0.5,0.1,0.8
		s0.2,0.6,0.5,0.8c0.2,0.3,0.5,0.5,0.9,0.6c0.4,0.2,0.8,0.2,1.3,0.2c0.6,0,1-0.1,1.4-0.3c0.4-0.2,0.6-0.4,0.8-0.7
		c0.2-0.3,0.3-0.5,0.4-0.8s0.1-0.6,0.1-0.9c0-0.8-0.3-1.4-0.8-1.8c-0.5-0.5-1.2-0.7-2-0.7c-0.4,0-0.8,0.1-1.2,0.2
		c-0.3,0.1-0.6,0.3-0.9,0.5c-0.2,0.2-0.4,0.5-0.6,0.8C780.5,494.2,780.5,494.5,780.5,494.9z M785.9,488.3c0-0.6-0.2-1.2-0.7-1.6
		c-0.4-0.4-1.1-0.6-1.9-0.6c-0.4,0-0.7,0.1-1,0.2s-0.6,0.3-0.8,0.4c-0.2,0.2-0.4,0.4-0.5,0.7c-0.1,0.3-0.2,0.6-0.2,0.9
		s0.1,0.6,0.2,0.9c0.1,0.3,0.3,0.5,0.5,0.7s0.5,0.4,0.8,0.5s0.7,0.2,1,0.2c0.8,0,1.4-0.2,1.9-0.6C785.6,489.6,785.9,489,785.9,488.3
		z"/>
	<path class="st2" d="M789.7,492c0-0.3,0-0.8,0-1.3s0.1-1,0.2-1.6s0.2-1.1,0.4-1.6s0.5-1,0.8-1.5s0.8-0.8,1.3-1s1.1-0.4,1.9-0.4
		c0.7,0,1.3,0.1,1.8,0.3c0.5,0.2,0.9,0.5,1.3,0.9c0.3,0.4,0.6,0.8,0.8,1.3s0.4,1,0.5,1.5s0.2,1,0.2,1.6s0.1,1,0.1,1.4
		c0,1.6-0.2,3-0.5,3.9c-0.3,1-0.8,1.8-1.4,2.4c-0.2,0.2-0.5,0.4-0.8,0.5s-0.5,0.2-0.8,0.3c-0.2,0.1-0.5,0.1-0.7,0.2
		c-0.2,0-0.4,0-0.6,0c-0.5,0-0.9-0.1-1.3-0.2c-0.4-0.1-0.7-0.3-1-0.5s-0.6-0.5-0.8-0.7c-0.2-0.3-0.4-0.6-0.6-0.9
		c-0.2-0.5-0.4-1-0.6-1.8C789.8,494.2,789.7,493.2,789.7,492z M791.6,491.9c0,0.8,0,1.5,0.1,2.2s0.2,1.2,0.4,1.7s0.5,0.9,0.8,1.2
		c0.3,0.3,0.8,0.4,1.3,0.4c0.6,0,1-0.2,1.4-0.5s0.6-0.8,0.8-1.3s0.3-1.1,0.4-1.8c0.1-0.6,0.1-1.3,0.1-1.9c0-0.8,0-1.6-0.1-2.3
		s-0.2-1.3-0.4-1.8s-0.5-0.9-0.8-1.2c-0.3-0.3-0.8-0.4-1.3-0.4c-0.6,0-1.1,0.2-1.5,0.5c-0.4,0.4-0.6,0.8-0.8,1.4
		c-0.2,0.5-0.3,1.2-0.4,1.8C791.7,490.6,791.6,491.3,791.6,491.9z"/>
</g>
<rect x="259.6" y="3.3" class="st3" width="457.5" height="31.5"/>
<g class="st1">
	<path d="M532.7,5h-5.3v3.8h5.3v1.8h-5.3v6.3h-2V3.3h7.3V5z"/>
	<path d="M536.2,7.9V10c0.6-0.9,1.4-2.2,2.7-2.2c0.3,0,1.1,0,2.1,1l-0.9,1.6c-0.2-0.2-1-0.9-1.7-0.9s-2.1,0.7-2.1,2.8V17h-1.8V8
		L536.2,7.9L536.2,7.9z"/>
	<path d="M549.2,16c-0.6,0.4-1.6,1.1-3.5,1.1c-0.9,0-2-0.1-3.1-1.3c-1.2-1.2-1.3-2.6-1.3-3.5c0-2.8,1.8-4.6,4.2-4.6
		c2.1,0,3.5,1.5,3.8,3.5c0.1,0.6,0.1,1,0.1,1.3h-6.3c0.1,1.3,0.9,2.8,2.9,2.8c1.2,0,2.3-0.4,3.3-1.1V16H549.2z M547.6,11.5
		c0-0.4-0.2-2.2-2.2-2.2c-0.6,0-1.2,0.2-1.7,0.8c-0.5,0.5-0.6,1.1-0.6,1.5h4.5V11.5z"/>
	<path d="M558.9,21.5h-1.8v-4.8c-0.4,0.1-1.1,0.3-2,0.3c-2.4,0-4.4-1.8-4.4-4.6c0-1.7,0.9-4.6,4.8-4.6h3.3v13.7H558.9z M557.1,9.6
		H556c-0.8,0-1.6,0-2.1,0.4c-0.4,0.3-1.3,1-1.3,2.5c0,1.8,1.1,3.1,3,3.1c0.5,0,0.6,0,1.6-0.4V9.6H557.1z"/>
	<path d="M567,16.9v-1.1c-0.8,0.9-1.9,1.3-2.7,1.3c-0.6,0-1.8-0.2-2.5-1.4c-0.3-0.4-0.5-1-0.5-2.6V7.9h1.8v5.2c0,1,0,2.6,1.8,2.6
		c0.8,0,1.6-0.5,2.1-1.3V7.9h1.8v9H567z"/>
	<path d="M578.8,16c-0.6,0.4-1.6,1.1-3.5,1.1c-0.9,0-2-0.1-3.1-1.3c-1.2-1.2-1.3-2.6-1.3-3.5c0-2.8,1.8-4.6,4.2-4.6
		c2.1,0,3.5,1.5,3.8,3.5c0.1,0.6,0.1,1,0.1,1.3h-6.3c0.1,1.3,0.9,2.8,2.9,2.8c1.2,0,2.3-0.4,3.3-1.1V16H578.8z M577.2,11.5
		c0-0.4-0.2-2.2-2.2-2.2c-0.6,0-1.2,0.2-1.7,0.8c-0.5,0.5-0.6,1.1-0.6,1.5h4.5V11.5z"/>
	<path d="M582.7,7.9v1.2c0.8-0.9,1.9-1.3,2.7-1.3c0.6,0,1.8,0.2,2.5,1.4c0.3,0.4,0.5,1,0.5,2.6v5.1h-1.8v-5.1c0-1,0-1.5-0.5-2
		c-0.3-0.4-0.7-0.6-1.3-0.6c-0.8,0-1.6,0.5-2.1,1.3v6.4h-1.9v-9C580.8,7.9,582.7,7.9,582.7,7.9z"/>
	<path d="M597.4,10.3c-0.5-0.3-1.3-0.9-2.5-0.9c-1.9,0-2.7,1.6-2.7,3c0,1.5,0.9,3,3.1,3c0.9,0,1.7-0.3,2.4-0.6v1.8
		c-0.4,0.1-1.3,0.5-2.6,0.5c-3.1,0-4.6-2.2-4.6-4.6c0-2.2,1.2-4.7,4.4-4.7c1.2,0,1.9,0.3,2.6,0.6v1.9H597.4z"/>
	<path d="M600.8,21.5h-2l3.1-6.5l-3.5-7.1h2l2.4,5.1l2.3-5.1h2L600.8,21.5z"/>
	<path d="M615.9,5.2c0,0.6-0.5,1.1-1.1,1.1c-0.7,0-1-0.6-1-1.1s0.4-1,1-1S615.9,4.6,615.9,5.2z M615.7,16.9h-1.8v-9h1.8V16.9z"/>
	<path d="M620.1,7.9v1.2c0.8-0.9,1.9-1.3,2.7-1.3c0.6,0,1.8,0.2,2.5,1.4c0.3,0.4,0.5,1,0.5,2.6v5.1H624v-5.1c0-1,0-1.5-0.5-2
		c-0.3-0.4-0.7-0.6-1.3-0.6c-0.8,0-1.6,0.5-2.1,1.3v6.4h-1.8v-9C618.3,7.9,620.1,7.9,620.1,7.9z"/>
	<path d="M635.6,9.1c0.7-0.8,1.7-1.4,2.8-1.4c1.3,0,2.3,0.8,2.7,1.7c0.2,0.6,0.3,1.5,0.3,2.3v5.1h-1.8v-5.6c0-0.7-0.2-1.1-0.3-1.4
		C639,9.3,638.4,9,637.9,9c-0.9,0-1.5,0.4-2.3,1.3v6.4h-1.8V3.3h1.8L635.6,9.1L635.6,9.1z"/>
	<path d="M651.4,16c-0.6,0.4-1.6,1.1-3.5,1.1c-0.9,0-2-0.1-3.1-1.3c-1.2-1.2-1.3-2.6-1.3-3.5c0-2.8,1.8-4.6,4.2-4.6
		c2.1,0,3.5,1.5,3.8,3.5c0.1,0.6,0.1,1,0.1,1.3h-6.3c0.1,1.3,0.9,2.8,2.9,2.8c1.2,0,2.3-0.4,3.3-1.1V16H651.4z M649.8,11.5
		c0-0.4-0.2-2.2-2.2-2.2c-0.6,0-1.2,0.2-1.7,0.8c-0.5,0.5-0.6,1.1-0.6,1.5h4.5V11.5z"/>
	<path d="M655.1,7.9V10c0.6-0.9,1.4-2.2,2.7-2.2c0.3,0,1.1,0,2.1,1l-0.9,1.6c-0.2-0.2-1-0.9-1.7-0.9s-2.1,0.7-2.1,2.8V17h-1.8V8
		L655.1,7.9L655.1,7.9L655.1,7.9z"/>
	<path d="M663.6,7.9h2.8v1.6h-2.8v3.9c0,1.1,0,1.3,0.3,1.6c0.3,0.4,0.8,0.4,1,0.4c0.4,0,1,0,2-0.6v1.7c-0.8,0.5-1.8,0.6-2.3,0.6
		c-0.6,0-1.7-0.3-2.3-1.1c-0.4-0.7-0.4-1.6-0.4-2.4v-4h-1.6V9.4l3.3-3.3V7.9z"/>
	<path d="M670.6,15.3h4.8v1.6h-7.9l4.7-7.3h-4.5V7.9h7.7L670.6,15.3z"/>
	<path d="M686.3,21.5c-1.5-1.9-2.2-2.8-2.9-4.6c-0.7-1.7-0.9-3.3-0.9-4.6c0-4.4,2.2-7.2,3.8-9.2h1.1c-1.2,1.9-2.9,4.3-2.9,9.3
		c0,3.3,0.9,6.5,2.9,9.1H686.3z"/>
	<path d="M700.7,16.9h-2V11h-7.6v5.9h-2V3.3h2v5.9h7.6V3.3h2V16.9z"/>
	<path d="M705.5,15.3h4.8v1.6h-7.9l4.7-7.3h-4.5V7.9h7.7L705.5,15.3z"/>
	<path d="M711.9,3.1c1.5,1.9,2.2,2.8,2.9,4.6c0.7,1.7,0.9,3.3,0.9,4.6c0,4.4-2.2,7.2-3.8,9.2h-1.1c1.2-1.9,2.9-4.3,2.9-9.3
		c0-3.3-0.9-6.5-2.9-9.2L711.9,3.1L711.9,3.1L711.9,3.1z"/>
</g>
<g class="st1">
	<path d="M16.6,258.3v2h-5.9v7.6h5.9v2H3v-2h5.9v-7.6H3v-2H16.6L16.6,258.3z"/>
	<path d="M15.7,248.1c0.4,0.6,1.1,1.6,1.1,3.5c0,0.9-0.1,2-1.3,3.1c-1.2,1.2-2.6,1.3-3.5,1.3c-2.8,0-4.6-1.8-4.6-4.2
		c0-2.1,1.5-3.5,3.5-3.8c0.6-0.1,1-0.1,1.3-0.1v6.3c1.3-0.1,2.8-0.9,2.8-2.9c0-1.2-0.4-2.3-1.1-3.3L15.7,248.1L15.7,248.1z
		 M11.2,249.7c-0.4,0-2.2,0.2-2.2,2.2c0,0.6,0.2,1.2,0.8,1.7c0.5,0.5,1.1,0.6,1.5,0.6v-4.5H11.2z"/>
	<path d="M16.1,238.9c0.5,0.8,0.7,1.2,0.7,1.7c0,0.8-0.3,1.2-0.9,1.4c0.6,0.8,0.9,1.6,0.9,2.4c0,1.3-1,2.2-2.2,2.2
		c-1.8,0-2.3-1.6-2.8-3.1l-0.6-1.6h-0.5c-1.1,0-1.6,0.5-1.6,1.6c0,1,0.5,2,1.5,2.8H8.7c-0.8-0.7-1.2-1.7-1.2-3c0-1.8,0.9-3.3,3-3.3
		h4.6c0.3,0,0.5-0.1,0.5-0.3s-0.2-0.5-0.5-0.9h1V238.9z M12.2,242c0.5,1.5,1,2.8,2.1,2.8c0.7,0,1.3-0.5,1.3-1.3
		c0-0.6-0.3-1.1-0.7-1.6h-2.7V242z"/>
	<path d="M7.6,235.8h2.1c-0.9-0.6-2.2-1.4-2.2-2.7c0-0.3,0-1.1,1-2.1l1.6,0.9c-0.2,0.2-0.9,1-0.9,1.7s0.7,2.1,2.8,2.1h4.7v1.8h-9
		L7.6,235.8L7.6,235.8z"/>
	<path d="M4.9,227.8c0.6,0,1.1,0.5,1.1,1.1c0,0.7-0.6,1-1.1,1s-1-0.4-1-1S4.3,227.8,4.9,227.8z M16.6,227.9v1.8h-9v-1.8H16.6z"/>
	<path d="M7.6,223.6h1.2c-0.9-0.8-1.3-1.9-1.3-2.7c0-0.6,0.2-1.8,1.4-2.5c0.4-0.3,1-0.5,2.6-0.5h5.1v1.8h-5.1c-1,0-1.5,0-2,0.5
		c-0.4,0.3-0.6,0.7-0.6,1.3c0,0.8,0.5,1.6,1.3,2.1h6.4v1.8h-9C7.6,225.4,7.6,223.6,7.6,223.6z"/>
	<path d="M9,208.2v1.8c0.7-0.7,1.2-0.9,2-0.9c0.7,0,1.6,0.4,2,0.8c1.3,1.2,0.6,3.6,1.7,3.6c0.5,0,0.8-0.9,1.2-2.7
		c0.4-1.9,1.4-2.6,2.5-2.6c1.8,0,2.9,1.6,2.9,4.2c0,2.4-1.1,4.1-2.7,4.1c-1.3,0-2.1-0.7-2.5-2.3c-0.4,0.6-0.7,0.9-1.1,0.9
		c-0.6,0-1.1-0.6-1.3-1.4l0,0c-0.3,0.7-0.7,1.2-1.1,1.5c-0.5,0.3-1,0.5-1.7,0.5c-1.9,0-3.1-1.5-3.1-3.9v-3.7L9,208.2L9,208.2z
		 M9.2,212.4c0,1,0.7,1.8,1.6,1.8c1,0,1.6-0.7,1.6-1.8c0-1-0.7-1.7-1.7-1.7C9.9,210.7,9.2,211.5,9.2,212.4z M17.1,212.9
		c0,1.2,0.6,2,1.4,2c0.9,0,1.4-0.9,1.4-2.5s-0.5-2.5-1.3-2.5C17.4,210,17.1,211.8,17.1,212.9z"/>
	<path d="M4.7,190.8v4.8h11.9v2H4.7v4.7H3v-11.4h1.7V190.8z"/>
	<path d="M8.8,187.4c-0.8-0.7-1.4-1.7-1.4-2.8c0-1.3,0.8-2.3,1.7-2.7c0.6-0.2,1.5-0.3,2.3-0.3h5.1v1.8h-5.6c-0.7,0-1.1,0.2-1.4,0.3
		c-0.5,0.3-0.8,0.9-0.8,1.4c0,0.9,0.4,1.5,1.3,2.3h6.4v1.8H3v-1.8H8.8z"/>
	<path d="M7.6,177.5h2.1c-0.9-0.6-2.2-1.4-2.2-2.7c0-0.3,0-1.1,1-2.1l1.6,0.9c-0.2,0.2-0.9,1-0.9,1.7s0.7,2.1,2.8,2.1h4.7v1.8h-9
		L7.6,177.5L7.6,177.5z"/>
	<path d="M15.7,164.5c0.4,0.6,1.1,1.6,1.1,3.5c0,0.9-0.1,2-1.3,3.1c-1.2,1.2-2.6,1.3-3.5,1.3c-2.8,0-4.6-1.8-4.6-4.2
		c0-2.1,1.5-3.5,3.5-3.8c0.6-0.1,1-0.1,1.3-0.1v6.3c1.3-0.1,2.8-0.9,2.8-2.9c0-1.2-0.4-2.3-1.1-3.3L15.7,164.5L15.7,164.5z
		 M11.2,166.1c-0.4,0-2.2,0.2-2.2,2.2c0,0.6,0.2,1.2,0.8,1.7c0.5,0.5,1.1,0.6,1.5,0.6v-4.5H11.2z"/>
	<path d="M10,157.2c-0.6,1-1,1.8-1,2.6s0.5,1.1,0.8,1.1c0.6,0,0.9-0.6,1.6-1.9c0.7-1.3,1.6-2.2,2.8-2.2c0.8,0,2.5,0.6,2.5,3.1
		c0,1.3-0.4,2.1-0.8,3H14c0.9-1.3,1.2-2.4,1.2-2.9c0-0.6-0.3-1.4-0.9-1.4c-0.6,0-0.9,0.5-1.4,1.4c-0.8,1.5-1.6,2.8-3.1,2.8
		c-1.3,0-2.3-1.1-2.3-2.9c0-1.3,0.5-2.3,0.7-2.7L10,157.2L10,157.2z"/>
	<path d="M8.8,152.9c-0.8-0.7-1.4-1.7-1.4-2.8c0-1.3,0.8-2.3,1.7-2.7c0.6-0.2,1.5-0.3,2.3-0.3h5.1v1.8h-5.6c-0.7,0-1.1,0.2-1.4,0.3
		c-0.5,0.3-0.8,0.9-0.8,1.4c0,0.9,0.4,1.5,1.3,2.3h6.4v1.8H3v-1.8H8.8z"/>
	<path d="M12.2,135.6c3.2,0,4.6,2.6,4.6,4.8c0,2.9-2.1,4.8-4.7,4.8c-2.5,0-4.7-1.8-4.7-4.8C7.5,137.7,9.3,135.6,12.2,135.6z
		 M12.1,143.4c2.3,0,3.1-1.7,3.1-3c0-1.8-1.3-3-3.1-3c-2.3,0-3.1,1.8-3.1,3C9.1,142.1,10.2,143.4,12.1,143.4z"/>
	<path d="M16.6,131.8v1.8H3v-1.8H16.6z"/>
	<path d="M16.6,121.5v3.8c0,3.5-2.9,4.4-4.6,4.4c-2.9,0-4.5-2.2-4.5-4.4c0-0.9,0.2-1.6,0.4-1.9H3v-1.8L16.6,121.5L16.6,121.5z
		 M9.4,123.3C9.2,123.6,9,124.1,9,125c0,1.5,1,2.9,3.2,2.9c1.5,0,2.3-0.6,2.6-1.3c0.2-0.5,0.3-0.9,0.3-1.9v-1.4
		C15.1,123.3,9.4,123.3,9.4,123.3z"/>
	<path d="M4.9,111.5c0.6,0,1.1,0.5,1.1,1.1c0,0.7-0.6,1-1.1,1s-1-0.4-1-1S4.3,111.5,4.9,111.5z M16.6,111.7v1.8h-9v-1.8H16.6z"/>
	<path d="M7.6,107.3h1.2c-0.9-0.8-1.3-1.9-1.3-2.7c0-0.6,0.2-1.8,1.4-2.5c0.4-0.3,1-0.5,2.6-0.5h5.1v1.8h-5.1c-1,0-1.5,0-2,0.5
		c-0.4,0.3-0.6,0.7-0.6,1.3c0,0.8,0.5,1.6,1.3,2.1h6.4v1.8h-9C7.6,109.1,7.6,107.3,7.6,107.3z"/>
	<path d="M16.6,85.8v3.8c0,3.5-2.9,4.4-4.6,4.4c-2.9,0-4.5-2.2-4.5-4.4c0-0.9,0.2-1.6,0.4-1.9H3v-1.8L16.6,85.8L16.6,85.8z
		 M9.4,87.6C9.2,87.9,9,88.4,9,89.3c0,1.5,1,2.9,3.2,2.9c1.5,0,2.3-0.6,2.6-1.3c0.2-0.5,0.3-0.9,0.3-1.9v-1.4
		C15.1,87.6,9.4,87.6,9.4,87.6z"/>
	<path d="M8.3,81.7c-0.2-0.3-0.8-1.1-0.8-2.5c0-2.4,2.1-3.9,4.6-3.9c3.2,0,4.8,2.2,4.8,4.6c0,1.1-0.3,2.6-0.7,3.5H3v-1.8h5.3V81.7z
		 M14.8,81.7c0.2-0.7,0.3-1.6,0.3-1.9c0-1.1-0.8-2.7-3-2.7c-2,0-3,1.2-3,2.5c0,1,0.6,1.7,0.9,2L14.8,81.7L14.8,81.7z"/>
</g>
<g id="Graphs">
	<polyline class="st4" points="92.5,215.7 331.5,226.7 500.5,354.7 554.5,376.7 678.5,492.7 	"/>
	<polyline class="st5" points="92.5,180.5 334.5,191.7 443.5,235.7 499.5,291.7 553.5,317.7 607.5,341.7 678.5,395.7 	"/>
	<polyline class="st5" points="92.5,155.7 332.5,159.7 445.5,196.7 501.5,227.7 609.5,268.7 662.5,287.7 677.5,298.7 	"/>
	<polyline class="st5" points="92.5,140.7 333.5,141.7 442.5,165.7 553.5,209.7 606.5,229.7 679.5,242.7 	"/>
	<polyline class="st5" points="92.5,129.7 334.5,129.7 498.5,157.7 608.5,175.7 679.5,182.7 	"/>
	<line class="st5" x1="92.5" y1="121.7" x2="678.5" y2="121.7"/>
	<g class="st1">
		<path d="M740.6,174.3h2.1l5.8,14.4h-2.2l-1.6-3.8H738l-1.6,3.8h-2.1L740.6,174.3z M738.8,183.4h5.5l-2.7-7.1L738.8,183.4z"/>
		<path d="M752.4,189.5c0,0.3,0.1,0.5,0.1,0.8c0.1,0.2,0.2,0.4,0.4,0.6c0.2,0.2,0.4,0.3,0.7,0.4c0.3,0.1,0.7,0.2,1.1,0.2
			c0.7,0,1.2-0.1,1.5-0.3c0.4-0.2,0.6-0.5,0.8-1c0.2-0.4,0.3-0.9,0.3-1.5s0.1-1.2,0.1-1.9c-0.2,0.4-0.5,0.7-0.8,1s-0.6,0.4-1,0.5
			c-0.3,0.1-0.6,0.2-0.9,0.2c-0.3,0-0.5,0-0.7,0s-0.5,0-0.8-0.1c-0.3,0-0.5-0.1-0.8-0.2c-0.3-0.1-0.5-0.2-0.8-0.4s-0.5-0.4-0.7-0.6
			c-0.4-0.5-0.7-1.1-0.9-1.7c-0.2-0.6-0.2-1.3-0.2-2c0-0.9,0.1-1.6,0.4-2.2c0.2-0.6,0.6-1.2,1-1.6s0.9-0.7,1.4-0.9s1.1-0.3,1.7-0.3
			c0.5,0,0.9,0.1,1.3,0.2c0.4,0.1,0.7,0.2,0.9,0.4s0.4,0.3,0.6,0.5c0.1,0.2,0.3,0.3,0.4,0.5v-1.4h1.8v1.8v6.3c0,0.6,0,1.1,0,1.6
			c0,0.4,0,0.8-0.1,1.1c0,0.3-0.1,0.6-0.1,0.8c-0.1,0.2-0.1,0.4-0.2,0.6c-0.2,0.4-0.5,0.7-0.8,1c-0.3,0.2-0.7,0.4-1.1,0.5
			c-0.4,0.1-0.8,0.2-1.2,0.2s-0.8,0.1-1.1,0.1c-0.7,0-1.2,0-1.7-0.1s-0.9-0.2-1.2-0.4s-0.5-0.4-0.7-0.6c-0.2-0.2-0.3-0.5-0.4-0.7
			c-0.1-0.2-0.2-0.5-0.2-0.7s0-0.5-0.1-0.7L752.4,189.5L752.4,189.5z M754.6,187.2c0.6,0,1-0.1,1.3-0.3s0.6-0.4,0.8-0.7
			c0.1-0.1,0.2-0.3,0.3-0.4s0.2-0.3,0.2-0.5c0.1-0.2,0.1-0.5,0.1-0.8s0-0.7,0-1.1c0-0.6-0.1-1.2-0.2-1.5s-0.3-0.7-0.6-1
			s-0.6-0.5-0.9-0.6c-0.4-0.2-0.8-0.2-1.2-0.2c-0.6,0-1.1,0.1-1.4,0.4c-0.4,0.3-0.6,0.6-0.8,1s-0.3,0.8-0.4,1.2
			c-0.1,0.4-0.1,0.8-0.1,1.1c0,0.4,0,0.8,0.1,1.2s0.2,0.8,0.4,1.2s0.5,0.6,0.8,0.9C753.5,187.1,754,187.2,754.6,187.2z"/>
		<path d="M763.9,184.1c0,0.5,0,1,0.1,1.4s0.3,0.8,0.5,1.2c0.2,0.3,0.5,0.6,0.9,0.8s0.8,0.3,1.3,0.3c0.6,0,1.1-0.2,1.6-0.5
			c0.4-0.3,0.7-0.9,0.8-1.6h1.9c0,0.3-0.1,0.6-0.2,0.9c-0.1,0.4-0.3,0.8-0.7,1.2c-0.1,0.1-0.3,0.3-0.4,0.4s-0.4,0.3-0.7,0.4
			c-0.3,0.1-0.6,0.2-1,0.3s-0.8,0.1-1.3,0.1c-1.6,0-2.8-0.5-3.5-1.4s-1.1-2.2-1.1-3.8c0-1,0.1-1.9,0.4-2.7c0.3-0.8,0.8-1.5,1.6-2
			c0.2-0.2,0.5-0.3,0.8-0.4c0.3-0.1,0.5-0.2,0.8-0.2c0.2-0.1,0.5-0.1,0.7-0.1s0.4,0,0.5,0c0.7,0,1.4,0.1,1.9,0.3s0.9,0.5,1.2,0.8
			s0.6,0.7,0.7,1.1c0.2,0.4,0.3,0.8,0.4,1.2c0.1,0.4,0.1,0.8,0.1,1.2s0,0.7,0,1h-7.3V184.1z M769.2,182.8c0-0.2,0-0.5-0.1-0.9
			s-0.1-0.7-0.3-1s-0.4-0.6-0.8-0.8c-0.3-0.2-0.8-0.3-1.4-0.3c-0.3,0-0.6,0-0.9,0.2c-0.3,0.1-0.6,0.3-0.9,0.5
			c-0.3,0.2-0.5,0.5-0.7,0.9s-0.3,0.8-0.3,1.4L769.2,182.8L769.2,182.8z"/>
		<path d="M784.5,185.8h-6.2v-2.4l6-8.6h2.2v9.4h2v1.6h-2v3h-1.9L784.5,185.8L784.5,185.8z M784.6,184.1v-7.3l-4.8,7.3H784.6z"/>
		<path d="M789.7,182c0-0.3,0-0.8,0-1.3s0.1-1,0.2-1.6s0.2-1.1,0.4-1.6s0.5-1,0.8-1.5s0.8-0.8,1.3-1s1.1-0.4,1.9-0.4
			c0.7,0,1.3,0.1,1.8,0.3s0.9,0.5,1.3,0.9c0.3,0.4,0.6,0.8,0.8,1.3s0.4,1,0.5,1.5s0.2,1,0.2,1.6s0.1,1,0.1,1.4c0,1.6-0.2,3-0.5,3.9
			c-0.3,1-0.8,1.8-1.4,2.4c-0.2,0.2-0.5,0.4-0.8,0.5s-0.5,0.2-0.8,0.3c-0.2,0.1-0.5,0.1-0.7,0.2c-0.2,0-0.4,0-0.6,0
			c-0.5,0-0.9-0.1-1.3-0.2c-0.4-0.1-0.7-0.3-1-0.5s-0.6-0.5-0.8-0.7c-0.2-0.3-0.4-0.6-0.6-0.9c-0.2-0.5-0.4-1-0.6-1.8
			C789.8,184.2,789.7,183.2,789.7,182z M791.6,181.9c0,0.8,0,1.5,0.1,2.2s0.2,1.2,0.4,1.7s0.5,0.9,0.8,1.2s0.8,0.4,1.3,0.4
			c0.6,0,1-0.2,1.4-0.5s0.6-0.8,0.8-1.3s0.3-1.1,0.4-1.8c0.1-0.6,0.1-1.3,0.1-1.9c0-0.8,0-1.6-0.1-2.3s-0.2-1.3-0.4-1.8
			s-0.5-0.9-0.8-1.2s-0.8-0.4-1.3-0.4c-0.6,0-1.1,0.2-1.5,0.5c-0.4,0.4-0.6,0.8-0.8,1.4c-0.2,0.5-0.3,1.2-0.4,1.8
			C791.7,180.6,791.6,181.3,791.6,181.9z"/>
	</g>
</g>
</svg>
