<?xml version="1.0" encoding="utf-8"?>
<!-- Generator: Adobe Illustrator 22.0.1, SVG Export Plug-In . SVG Version: 6.00 Build 0)  -->
<svg version="1.1" id="Ebene_1" xmlns="http://www.w3.org/2000/svg" xmlns:xlink="http://www.w3.org/1999/xlink" x="0px" y="0px"
	 viewBox="0 0 796 646.9" style="enable-background:new 0 0 796 646.9;" xml:space="preserve">
<style type="text/css">
	.st0{fill:none;stroke:#A3A19E;stroke-miterlimit:10;}
	.st1{enable-background:new    ;}
	.st2{fill:#CC1122;}
	.st3{fill:none;}
	.st4{fill:none;stroke:#CC1122;stroke-width:3;stroke-linecap:round;stroke-linejoin:round;stroke-miterlimit:10;}
	.st5{fill:none;stroke:#A3A19E;stroke-width:3;stroke-linecap:round;stroke-linejoin:round;stroke-miterlimit:10;}
</style>
<g id="Grid">
</g>
<rect x="71.5" y="70.7" class="st0" width="644" height="571"/>
<line class="st0" x1="108.5" y1="70.7" x2="108.5" y2="641.7"/>
<line class="st0" x1="221.5" y1="70.7" x2="221.5" y2="641.7"/>
<line class="st0" x1="277.5" y1="70.7" x2="277.5" y2="641.7"/>
<line class="st0" x1="331.5" y1="70.7" x2="331.5" y2="641.7"/>
<line class="st0" x1="387.5" y1="70.7" x2="387.5" y2="641.7"/>
<line class="st0" x1="440.5" y1="70.7" x2="440.5" y2="641.7"/>
<line class="st0" x1="496.5" y1="70.7" x2="496.5" y2="641.7"/>
<line class="st0" x1="549.5" y1="70.7" x2="549.5" y2="641.7"/>
<line class="st0" x1="605.5" y1="70.7" x2="605.5" y2="641.7"/>
<line class="st0" x1="658.5" y1="70.7" x2="658.5" y2="641.7"/>
<line class="st0" x1="71.5" y1="121.7" x2="715.5" y2="121.7"/>
<line class="st0" x1="71.5" y1="168.7" x2="715.5" y2="168.7"/>
<line class="st0" x1="71.5" y1="215.7" x2="715.5" y2="215.7"/>
<line class="st0" x1="71.5" y1="262.7" x2="715.5" y2="262.7"/>
<line class="st0" x1="71.5" y1="307.7" x2="715.5" y2="307.7"/>
<line class="st0" x1="71.5" y1="356.2" x2="715.5" y2="356.2"/>
<line class="st0" x1="71.5" y1="404.6" x2="715.5" y2="404.6"/>
<line class="st0" x1="71.5" y1="449.7" x2="715.5" y2="449.7"/>
<line class="st0" x1="71.5" y1="501.5" x2="715.5" y2="501.5"/>
<line class="st0" x1="71.5" y1="547.7" x2="715.5" y2="547.7"/>
<line class="st0" x1="71.5" y1="593.9" x2="715.5" y2="593.9"/>
<g class="st1">
	<path d="M32.4,70.5h5V72h-5V70.5z"/>
	<path d="M43.6,64.8c-0.2,0.2-0.5,0.4-0.7,0.6c-0.3,0.2-0.6,0.4-0.8,0.5c-0.3,0.2-0.6,0.3-0.9,0.5c-0.3,0.2-0.6,0.3-0.8,0.4v-2
		c0.7-0.3,1.3-0.7,1.9-1.1s1.1-0.7,1.5-1.1h1.8v13.8h-1.9L43.6,64.8L43.6,64.8z"/>
	<path d="M49.2,69.7c0-0.3,0-0.8,0-1.3s0.1-1,0.2-1.6s0.2-1.1,0.4-1.6s0.5-1,0.8-1.5s0.8-0.8,1.3-1s1.1-0.4,1.9-0.4
		c0.7,0,1.3,0.1,1.8,0.3c0.5,0.2,0.9,0.5,1.3,0.9c0.3,0.4,0.6,0.8,0.8,1.3s0.4,1,0.5,1.5s0.2,1,0.2,1.6s0.1,1,0.1,1.4
		c0,1.6-0.2,3-0.5,3.9c-0.3,1-0.8,1.8-1.4,2.4c-0.2,0.2-0.5,0.4-0.8,0.5s-0.5,0.2-0.8,0.3c-0.2,0.1-0.5,0.1-0.7,0.2
		c-0.2,0-0.4,0-0.6,0c-0.5,0-0.9-0.1-1.3-0.2c-0.4-0.1-0.7-0.3-1-0.5s-0.6-0.5-0.8-0.7c-0.2-0.3-0.4-0.6-0.6-0.9
		c-0.2-0.5-0.4-1-0.6-1.8C49.3,71.9,49.2,71,49.2,69.7z M51.1,69.6c0,0.8,0,1.5,0.1,2.2s0.2,1.2,0.4,1.7s0.5,0.9,0.8,1.2
		c0.3,0.3,0.8,0.4,1.3,0.4c0.6,0,1-0.2,1.4-0.5s0.6-0.8,0.8-1.3s0.3-1.1,0.4-1.8c0.1-0.6,0.1-1.3,0.1-1.9c0-0.8,0-1.6-0.1-2.3
		s-0.2-1.3-0.4-1.8s-0.5-0.9-0.8-1.2c-0.3-0.3-0.8-0.4-1.3-0.4c-0.6,0-1.1,0.2-1.5,0.5c-0.4,0.4-0.6,0.8-0.8,1.4
		c-0.2,0.5-0.3,1.2-0.4,1.8C51.2,68.4,51.1,69,51.1,69.6z"/>
</g>
<g class="st1">
	<path d="M48.1,119.4c0-0.3,0-0.8,0-1.3s0.1-1,0.2-1.6s0.2-1.1,0.4-1.6s0.5-1,0.8-1.5s0.8-0.8,1.3-1s1.1-0.4,1.9-0.4
		c0.7,0,1.3,0.1,1.8,0.3c0.5,0.2,0.9,0.5,1.3,0.9c0.3,0.4,0.6,0.8,0.8,1.3s0.4,1,0.5,1.5s0.2,1,0.2,1.6s0.1,1,0.1,1.4
		c0,1.6-0.2,3-0.5,3.9c-0.3,1-0.8,1.8-1.4,2.4c-0.2,0.2-0.5,0.4-0.8,0.5s-0.5,0.2-0.8,0.3c-0.2,0.1-0.5,0.1-0.7,0.2
		c-0.2,0-0.4,0-0.6,0c-0.5,0-0.9-0.1-1.3-0.2c-0.4-0.1-0.7-0.3-1-0.5s-0.6-0.5-0.8-0.7c-0.2-0.3-0.4-0.6-0.6-0.9
		c-0.2-0.5-0.4-1-0.6-1.8C48.2,121.6,48.1,120.6,48.1,119.4z M50.1,119.3c0,0.8,0,1.5,0.1,2.2s0.2,1.2,0.4,1.7s0.5,0.9,0.8,1.2
		c0.3,0.3,0.8,0.4,1.3,0.4c0.6,0,1-0.2,1.4-0.5s0.6-0.8,0.8-1.3s0.3-1.1,0.4-1.8c0.1-0.6,0.1-1.3,0.1-1.9c0-0.8,0-1.6-0.1-2.3
		s-0.2-1.3-0.4-1.8s-0.5-0.9-0.8-1.2c-0.3-0.3-0.8-0.4-1.3-0.4c-0.6,0-1.1,0.2-1.5,0.5c-0.4,0.4-0.6,0.8-0.8,1.4
		c-0.2,0.5-0.3,1.2-0.4,1.8C50.1,118,50.1,118.7,50.1,119.3z"/>
</g>
<g class="st1">
	<path d="M43,161.8c-0.2,0.2-0.5,0.4-0.7,0.6c-0.3,0.2-0.6,0.4-0.8,0.5c-0.3,0.2-0.6,0.3-0.9,0.5c-0.3,0.2-0.6,0.3-0.8,0.4v-2
		c0.7-0.3,1.3-0.7,1.9-1.1s1.1-0.7,1.5-1.1H45v13.8h-1.9L43,161.8L43,161.8z"/>
	<path d="M48.6,166.7c0-0.3,0-0.8,0-1.3s0.1-1,0.2-1.6s0.2-1.1,0.4-1.6s0.5-1,0.8-1.5s0.8-0.8,1.3-1s1.1-0.4,1.9-0.4
		c0.7,0,1.3,0.1,1.8,0.3s0.9,0.5,1.3,0.9c0.3,0.4,0.6,0.8,0.8,1.3s0.4,1,0.5,1.5s0.2,1,0.2,1.6s0.1,1,0.1,1.4c0,1.6-0.2,3-0.5,3.9
		c-0.3,1-0.8,1.8-1.4,2.4c-0.2,0.2-0.5,0.4-0.8,0.5s-0.5,0.2-0.8,0.3c-0.2,0.1-0.5,0.1-0.7,0.2c-0.2,0-0.4,0-0.6,0
		c-0.5,0-0.9-0.1-1.3-0.2c-0.4-0.1-0.7-0.3-1-0.5s-0.6-0.5-0.8-0.7c-0.2-0.3-0.4-0.6-0.6-0.9c-0.2-0.5-0.4-1-0.6-1.8
		C48.7,168.9,48.6,168,48.6,166.7z M50.5,166.6c0,0.8,0,1.5,0.1,2.2s0.2,1.2,0.4,1.7s0.5,0.9,0.8,1.2s0.8,0.4,1.3,0.4
		c0.6,0,1-0.2,1.4-0.5s0.6-0.8,0.8-1.3s0.3-1.1,0.4-1.8c0.1-0.6,0.1-1.3,0.1-1.9c0-0.8,0-1.6-0.1-2.3s-0.2-1.3-0.4-1.8
		s-0.5-0.9-0.8-1.2s-0.8-0.4-1.3-0.4c-0.6,0-1.1,0.2-1.5,0.5c-0.4,0.4-0.6,0.8-0.8,1.4c-0.2,0.5-0.3,1.2-0.4,1.8
		C50.6,165.4,50.5,166,50.5,166.6z"/>
</g>
<g class="st1">
	<path d="M38.2,219l3.6-3.6c0.4-0.4,0.8-0.8,1.1-1.2c0.4-0.4,0.7-0.8,1-1.2c0.4-0.5,0.7-1,0.8-1.4s0.2-0.7,0.2-1.1
		c0-0.2,0-0.4-0.1-0.6c0-0.3-0.1-0.5-0.3-0.7s-0.4-0.4-0.7-0.6c-0.3-0.2-0.7-0.3-1.2-0.3c-0.6,0-1,0.1-1.3,0.3s-0.5,0.4-0.7,0.7
		s-0.2,0.5-0.3,0.8c0,0.3,0,0.5,0,0.6h-2.1c0-0.2,0-0.4,0-0.6c0-0.2,0.1-0.5,0.2-0.8c0.1-0.3,0.2-0.5,0.4-0.8s0.4-0.6,0.7-0.8
		c0.5-0.4,1-0.7,1.5-0.8s1-0.2,1.5-0.2s1.1,0.1,1.6,0.2s1,0.4,1.4,0.7s0.7,0.7,1,1.2c0.2,0.5,0.4,1.1,0.4,1.9c0,0.2,0,0.4,0,0.6
		c0,0.2-0.1,0.4-0.2,0.7s-0.3,0.6-0.5,0.9c-0.2,0.3-0.5,0.7-0.9,1.2c-0.1,0.1-0.3,0.3-0.5,0.6s-0.5,0.5-0.8,0.8s-0.5,0.5-0.8,0.8
		c-0.2,0.3-0.4,0.4-0.5,0.5l-2.4,2.3h6.6v1.6h-8.8L38.2,219L38.2,219z"/>
	<path d="M49.2,214c0-0.3,0-0.8,0-1.3s0.1-1,0.2-1.6s0.2-1.1,0.4-1.6s0.5-1,0.8-1.5s0.8-0.8,1.3-1s1.1-0.4,1.9-0.4
		c0.7,0,1.3,0.1,1.8,0.3s0.9,0.5,1.3,0.9c0.3,0.4,0.6,0.8,0.8,1.3s0.4,1,0.5,1.5s0.2,1,0.2,1.6s0.1,1,0.1,1.4c0,1.6-0.2,3-0.5,3.9
		c-0.3,1-0.8,1.8-1.4,2.4c-0.2,0.2-0.5,0.4-0.8,0.5s-0.5,0.2-0.8,0.3c-0.2,0.1-0.5,0.1-0.7,0.2c-0.2,0-0.4,0-0.6,0
		c-0.5,0-0.9-0.1-1.3-0.2c-0.4-0.1-0.7-0.3-1-0.5s-0.6-0.5-0.8-0.7c-0.2-0.3-0.4-0.6-0.6-0.9c-0.2-0.5-0.4-1-0.6-1.8
		C49.3,216.3,49.2,215.3,49.2,214z M51.1,213.9c0,0.8,0,1.5,0.1,2.2s0.2,1.2,0.4,1.7s0.5,0.9,0.8,1.2s0.8,0.4,1.3,0.4
		c0.6,0,1-0.2,1.4-0.5s0.6-0.8,0.8-1.3s0.3-1.1,0.4-1.8c0.1-0.6,0.1-1.3,0.1-1.9c0-0.8,0-1.6-0.1-2.3s-0.2-1.3-0.4-1.8
		s-0.5-0.9-0.8-1.2s-0.8-0.4-1.3-0.4c-0.6,0-1.1,0.2-1.5,0.5c-0.4,0.4-0.6,0.8-0.8,1.4c-0.2,0.5-0.3,1.2-0.4,1.8
		C51.1,212.7,51.1,213.3,51.1,213.9z"/>
</g>
<g class="st1">
	<path d="M40.1,264.2c0,0.7,0.2,1.2,0.6,1.6s1.1,0.6,1.9,0.6c0.5,0,0.9-0.1,1.2-0.2c0.4-0.1,0.6-0.3,0.9-0.6
		c0.2-0.2,0.4-0.5,0.5-0.8s0.2-0.6,0.2-0.9c0-0.4-0.1-0.7-0.2-1c-0.1-0.3-0.3-0.5-0.4-0.7c-0.2-0.2-0.4-0.4-0.6-0.5
		c-0.2-0.1-0.5-0.2-0.7-0.3c-0.4-0.1-0.7-0.1-1-0.1s-0.6,0-1,0v-1.6c0.3,0,0.7,0,1.2,0s0.8-0.1,1.2-0.3c0.4-0.2,0.7-0.4,1-0.8
		c0.3-0.3,0.4-0.8,0.4-1.3c0-0.8-0.2-1.3-0.7-1.7s-1-0.5-1.7-0.5c-0.3,0-0.5,0-0.8,0.1s-0.5,0.2-0.8,0.4c-0.2,0.2-0.4,0.4-0.6,0.7
		s-0.3,0.6-0.3,1.1h-2c0-0.9,0.2-1.5,0.6-2c0.4-0.5,0.8-0.9,1.3-1.1c0.5-0.3,1-0.4,1.5-0.5s0.9-0.1,1.2-0.1c0.8,0,1.4,0.1,2,0.3
		c0.6,0.2,1,0.5,1.4,0.8c0.4,0.4,0.7,0.8,0.8,1.2c0.2,0.4,0.3,0.9,0.3,1.4c0,0.3,0,0.6-0.1,0.9s-0.2,0.7-0.5,1
		c-0.2,0.3-0.5,0.6-0.9,0.8c-0.4,0.2-0.8,0.4-1.3,0.6c0.7,0.1,1.3,0.3,1.7,0.7c0.4,0.3,0.7,0.7,0.9,1.1s0.3,0.7,0.3,1
		s0.1,0.5,0.1,0.6c0,0.5-0.1,1-0.3,1.5s-0.5,0.9-0.9,1.3s-0.9,0.7-1.5,1c-0.6,0.2-1.3,0.4-2.1,0.4c-0.7,0-1.4-0.1-2.1-0.3
		c-0.7-0.2-1.2-0.6-1.7-1.1c-0.2-0.2-0.4-0.4-0.5-0.7c-0.1-0.2-0.2-0.5-0.2-0.7c-0.1-0.2-0.1-0.4-0.1-0.6s0-0.4,0-0.5h1.8V264.2z"/>
	<path d="M49.2,261c0-0.3,0-0.8,0-1.3s0.1-1,0.2-1.6s0.2-1.1,0.4-1.6s0.5-1,0.8-1.5s0.8-0.8,1.3-1s1.1-0.4,1.9-0.4
		c0.7,0,1.3,0.1,1.8,0.3c0.5,0.2,0.9,0.5,1.3,0.9c0.3,0.4,0.6,0.8,0.8,1.3s0.4,1,0.5,1.5s0.2,1,0.2,1.6s0.1,1,0.1,1.4
		c0,1.6-0.2,3-0.5,3.9c-0.3,1-0.8,1.8-1.4,2.4c-0.2,0.2-0.5,0.4-0.8,0.5s-0.5,0.2-0.8,0.3c-0.2,0.1-0.5,0.1-0.7,0.2
		c-0.2,0-0.4,0-0.6,0c-0.5,0-0.9-0.1-1.3-0.2c-0.4-0.1-0.7-0.3-1-0.5s-0.6-0.5-0.8-0.7c-0.2-0.3-0.4-0.6-0.6-0.9
		c-0.2-0.5-0.4-1-0.6-1.8C49.3,263.3,49.2,262.3,49.2,261z M51.1,260.9c0,0.8,0,1.5,0.1,2.2s0.2,1.2,0.4,1.7s0.5,0.9,0.8,1.2
		c0.3,0.3,0.8,0.4,1.3,0.4c0.6,0,1-0.2,1.4-0.5s0.6-0.8,0.8-1.3s0.3-1.1,0.4-1.8c0.1-0.6,0.1-1.3,0.1-1.9c0-0.8,0-1.6-0.1-2.3
		s-0.2-1.3-0.4-1.8s-0.5-0.9-0.8-1.2c-0.3-0.3-0.8-0.4-1.3-0.4c-0.6,0-1.1,0.2-1.5,0.5c-0.4,0.4-0.6,0.8-0.8,1.4
		c-0.2,0.5-0.3,1.2-0.4,1.8C51.1,259.7,51.1,260.3,51.1,260.9z"/>
</g>
<g class="st1">
	<path d="M44,309.8h-6.2v-2.4l6-8.6H46v9.4h2v1.6h-2v3h-1.9L44,309.8L44,309.8z M44,308.2v-7.3l-4.8,7.3H44z"/>
	<path d="M49.2,306c0-0.3,0-0.8,0-1.3s0.1-1,0.2-1.6s0.2-1.1,0.4-1.6s0.5-1,0.8-1.5s0.8-0.8,1.3-1s1.1-0.4,1.9-0.4
		c0.7,0,1.3,0.1,1.8,0.3c0.5,0.2,0.9,0.5,1.3,0.9c0.3,0.4,0.6,0.8,0.8,1.3s0.4,1,0.5,1.5s0.2,1,0.2,1.6s0.1,1,0.1,1.4
		c0,1.6-0.2,3-0.5,3.9c-0.3,1-0.8,1.8-1.4,2.4c-0.2,0.2-0.5,0.4-0.8,0.5s-0.5,0.2-0.8,0.3c-0.2,0.1-0.5,0.1-0.7,0.2
		c-0.2,0-0.4,0-0.6,0c-0.5,0-0.9-0.1-1.3-0.2c-0.4-0.1-0.7-0.3-1-0.5s-0.6-0.5-0.8-0.7c-0.2-0.3-0.4-0.6-0.6-0.9
		c-0.2-0.5-0.4-1-0.6-1.8C49.3,308.3,49.2,307.3,49.2,306z M51.1,305.9c0,0.8,0,1.5,0.1,2.2s0.2,1.2,0.4,1.7s0.5,0.9,0.8,1.2
		c0.3,0.3,0.8,0.4,1.3,0.4c0.6,0,1-0.2,1.4-0.5s0.6-0.8,0.8-1.3s0.3-1.1,0.4-1.8c0.1-0.6,0.1-1.3,0.1-1.9c0-0.8,0-1.6-0.1-2.3
		s-0.2-1.3-0.4-1.8s-0.5-0.9-0.8-1.2c-0.3-0.3-0.8-0.4-1.3-0.4c-0.6,0-1.1,0.2-1.5,0.5c-0.4,0.4-0.6,0.8-0.8,1.4
		c-0.2,0.5-0.3,1.2-0.4,1.8C51.1,304.7,51.1,305.3,51.1,305.9z"/>
</g>
<g class="st1">
	<path d="M40.4,357.9c0,0.3,0.1,0.6,0.2,0.9c0.1,0.2,0.3,0.4,0.5,0.6s0.5,0.3,0.7,0.4c0.3,0.1,0.5,0.1,0.8,0.1
		c0.6,0,1.1-0.1,1.5-0.4c0.4-0.2,0.6-0.5,0.8-0.9c0.2-0.3,0.3-0.7,0.4-1s0.1-0.7,0.1-0.9c0-0.9-0.2-1.7-0.7-2.2s-1.1-0.8-1.9-0.8
		c-0.4,0-0.8,0.1-1.1,0.2s-0.6,0.3-0.8,0.5s-0.4,0.4-0.4,0.6c-0.1,0.2-0.1,0.4-0.2,0.5h-1.8l0.4-8.2h7.8v1.6h-6.1l-0.3,4.5
		c0.1-0.1,0.2-0.2,0.4-0.4c0.2-0.1,0.4-0.3,0.6-0.4c0.2-0.1,0.5-0.2,0.8-0.3c0.3-0.1,0.7-0.1,1.1-0.1c0.7,0,1.3,0.1,1.8,0.4
		s1,0.6,1.3,1s0.6,0.9,0.8,1.5s0.3,1.1,0.3,1.7c0,0.7-0.1,1.3-0.4,1.9c-0.2,0.6-0.6,1.1-1,1.5s-0.9,0.8-1.5,1s-1.3,0.4-2,0.4
		c-0.6,0-1.1-0.1-1.6-0.2s-0.9-0.4-1.3-0.7c-0.4-0.3-0.7-0.7-0.9-1.1c-0.2-0.5-0.3-1-0.4-1.6h2.1V357.9z"/>
	<path d="M49.2,354.4c0-0.3,0-0.8,0-1.3s0.1-1,0.2-1.6s0.2-1.1,0.4-1.6s0.5-1,0.8-1.5s0.8-0.8,1.3-1s1.1-0.4,1.9-0.4
		c0.7,0,1.3,0.1,1.8,0.3c0.5,0.2,0.9,0.5,1.3,0.9c0.3,0.4,0.6,0.8,0.8,1.3s0.4,1,0.5,1.5s0.2,1,0.2,1.6s0.1,1,0.1,1.4
		c0,1.6-0.2,3-0.5,3.9c-0.3,1-0.8,1.8-1.4,2.4c-0.2,0.2-0.5,0.4-0.8,0.5s-0.5,0.2-0.8,0.3c-0.2,0.1-0.5,0.1-0.7,0.2
		c-0.2,0-0.4,0-0.6,0c-0.5,0-0.9-0.1-1.3-0.2c-0.4-0.1-0.7-0.3-1-0.5s-0.6-0.5-0.8-0.7c-0.2-0.3-0.4-0.6-0.6-0.9
		c-0.2-0.5-0.4-1-0.6-1.8C49.3,356.6,49.2,355.6,49.2,354.4z M51.1,354.3c0,0.8,0,1.5,0.1,2.2s0.2,1.2,0.4,1.7s0.5,0.9,0.8,1.2
		c0.3,0.3,0.8,0.4,1.3,0.4c0.6,0,1-0.2,1.4-0.5s0.6-0.8,0.8-1.3s0.3-1.1,0.4-1.8c0.1-0.6,0.1-1.3,0.1-1.9c0-0.8,0-1.6-0.1-2.3
		s-0.2-1.3-0.4-1.8s-0.5-0.9-0.8-1.2c-0.3-0.3-0.8-0.4-1.3-0.4c-0.6,0-1.1,0.2-1.5,0.5c-0.4,0.4-0.6,0.8-0.8,1.4
		c-0.2,0.5-0.3,1.2-0.4,1.8C51.1,353,51.1,353.7,51.1,354.3z"/>
</g>
<g class="st1">
	<path d="M45.3,399.2c0-0.4-0.1-0.7-0.2-1c-0.1-0.3-0.3-0.5-0.5-0.6c-0.2-0.2-0.4-0.3-0.7-0.3c-0.2-0.1-0.5-0.1-0.7-0.1
		c-1,0-1.7,0.4-2.2,1.3s-0.8,2.2-0.9,4.1c0.1-0.2,0.2-0.3,0.4-0.5s0.4-0.4,0.6-0.6c0.3-0.2,0.6-0.3,0.9-0.5c0.4-0.1,0.8-0.2,1.3-0.2
		c0.6,0,1.1,0.1,1.6,0.3c0.5,0.2,1,0.5,1.3,0.8c0.4,0.4,0.7,0.8,0.9,1.4s0.3,1.2,0.3,1.9c0,0.8-0.1,1.5-0.4,2.1
		c-0.3,0.6-0.6,1.1-1,1.5s-0.9,0.7-1.5,0.9s-1.1,0.3-1.7,0.3c-0.7,0-1.3-0.1-1.9-0.4s-1.1-0.6-1.5-1.1c-0.3-0.3-0.5-0.7-0.6-1.1
		c-0.2-0.4-0.3-0.8-0.4-1.3c-0.1-0.4-0.2-0.9-0.2-1.4s0-0.9,0-1.3c0-0.5,0-1,0.1-1.6s0.1-1.2,0.3-1.7s0.3-1.1,0.6-1.7
		c0.2-0.5,0.6-1,0.9-1.4s0.8-0.7,1.4-1c0.5-0.2,1.2-0.4,1.9-0.4c0.5,0,0.9,0,1.2,0.1c0.4,0.1,0.7,0.2,0.9,0.3
		c0.3,0.1,0.5,0.3,0.7,0.4c0.2,0.2,0.3,0.3,0.5,0.4c0.2,0.2,0.3,0.4,0.4,0.6c0.1,0.2,0.2,0.4,0.2,0.6s0.1,0.4,0.1,0.6s0,0.3,0,0.5
		h-2.1V399.2z M43,408.6c0.3,0,0.6-0.1,0.9-0.2c0.3-0.1,0.6-0.3,0.9-0.6c0.3-0.3,0.5-0.6,0.6-1c0.2-0.4,0.2-0.9,0.2-1.4
		c0-0.2,0-0.5-0.1-0.9s-0.2-0.7-0.4-1s-0.4-0.6-0.8-0.8s-0.8-0.3-1.4-0.3c-0.5,0-0.9,0.1-1.2,0.3c-0.3,0.2-0.6,0.4-0.9,0.7
		c-0.2,0.3-0.4,0.6-0.5,1s-0.2,0.8-0.2,1.2c0,0.5,0.1,0.9,0.2,1.2s0.3,0.7,0.6,1c0.2,0.3,0.5,0.5,0.8,0.6S42.6,408.6,43,408.6z"/>
	<path d="M49.2,403c0-0.3,0-0.8,0-1.3s0.1-1,0.2-1.6s0.2-1.1,0.4-1.6s0.5-1,0.8-1.5s0.8-0.8,1.3-1s1.1-0.4,1.9-0.4
		c0.7,0,1.3,0.1,1.8,0.3c0.5,0.2,0.9,0.5,1.3,0.9c0.3,0.4,0.6,0.8,0.8,1.3s0.4,1,0.5,1.5s0.2,1,0.2,1.6s0.1,1,0.1,1.4
		c0,1.6-0.2,3-0.5,3.9c-0.3,1-0.8,1.8-1.4,2.4c-0.2,0.2-0.5,0.4-0.8,0.5s-0.5,0.2-0.8,0.3c-0.2,0.1-0.5,0.1-0.7,0.2
		c-0.2,0-0.4,0-0.6,0c-0.5,0-0.9-0.1-1.3-0.2c-0.4-0.1-0.7-0.3-1-0.5s-0.6-0.5-0.8-0.7c-0.2-0.3-0.4-0.6-0.6-0.9
		c-0.2-0.5-0.4-1-0.6-1.8C49.3,405.3,49.2,404.3,49.2,403z M51.1,402.9c0,0.8,0,1.5,0.1,2.2s0.2,1.2,0.4,1.7s0.5,0.9,0.8,1.2
		c0.3,0.3,0.8,0.4,1.3,0.4c0.6,0,1-0.2,1.4-0.5s0.6-0.8,0.8-1.3s0.3-1.1,0.4-1.8c0.1-0.6,0.1-1.3,0.1-1.9c0-0.8,0-1.6-0.1-2.3
		s-0.2-1.3-0.4-1.8s-0.5-0.9-0.8-1.2c-0.3-0.3-0.8-0.4-1.3-0.4c-0.6,0-1.1,0.2-1.5,0.5c-0.4,0.4-0.6,0.8-0.8,1.4
		c-0.2,0.5-0.3,1.2-0.4,1.8C51.1,401.7,51.1,402.3,51.1,402.9z"/>
</g>
<g class="st1">
	<path d="M37.9,441.6H47v1.7l-5.1,12.2h-2.3l5.3-12.2h-7.1L37.9,441.6L37.9,441.6z"/>
	<path d="M49.2,448.7c0-0.3,0-0.8,0-1.3s0.1-1,0.2-1.6s0.2-1.1,0.4-1.6s0.5-1,0.8-1.5s0.8-0.8,1.3-1s1.1-0.4,1.9-0.4
		c0.7,0,1.3,0.1,1.8,0.3c0.5,0.2,0.9,0.5,1.3,0.9c0.3,0.4,0.6,0.8,0.8,1.3s0.4,1,0.5,1.5s0.2,1,0.2,1.6s0.1,1,0.1,1.4
		c0,1.6-0.2,3-0.5,3.9c-0.3,1-0.8,1.8-1.4,2.4c-0.2,0.2-0.5,0.4-0.8,0.5s-0.5,0.2-0.8,0.3c-0.2,0.1-0.5,0.1-0.7,0.2
		c-0.2,0-0.4,0-0.6,0c-0.5,0-0.9-0.1-1.3-0.2c-0.4-0.1-0.7-0.3-1-0.5s-0.6-0.5-0.8-0.7c-0.2-0.3-0.4-0.6-0.6-0.9
		c-0.2-0.5-0.4-1-0.6-1.8C49.3,450.9,49.2,450,49.2,448.7z M51.1,448.6c0,0.8,0,1.5,0.1,2.2s0.2,1.2,0.4,1.7s0.5,0.9,0.8,1.2
		c0.3,0.3,0.8,0.4,1.3,0.4c0.6,0,1-0.2,1.4-0.5s0.6-0.8,0.8-1.3s0.3-1.1,0.4-1.8c0.1-0.6,0.1-1.3,0.1-1.9c0-0.8,0-1.6-0.1-2.3
		s-0.2-1.3-0.4-1.8s-0.5-0.9-0.8-1.2c-0.3-0.3-0.8-0.4-1.3-0.4c-0.6,0-1.1,0.2-1.5,0.5c-0.4,0.4-0.6,0.8-0.8,1.4
		c-0.2,0.5-0.3,1.2-0.4,1.8C51.1,447.4,51.1,448,51.1,448.6z"/>
</g>
<g class="st1">
	<path d="M41,498.8c-0.9-0.2-1.6-0.6-2.1-1.2s-0.7-1.2-0.7-1.9c0-0.3,0.1-0.7,0.2-1.1c0.1-0.4,0.4-0.8,0.7-1.2
		c0.3-0.4,0.8-0.7,1.4-1s1.3-0.4,2.2-0.4c0.7,0,1.4,0.1,2,0.3c0.6,0.2,1,0.4,1.4,0.8c0.4,0.3,0.7,0.7,0.9,1.2
		c0.2,0.4,0.3,0.9,0.3,1.5c0,0.3-0.1,0.7-0.2,1c-0.1,0.3-0.3,0.6-0.5,0.9s-0.5,0.5-0.9,0.7s-0.8,0.4-1.3,0.4
		c0.2,0.1,0.5,0.1,0.8,0.3s0.7,0.3,1,0.6c0.3,0.3,0.6,0.6,0.8,1s0.4,1,0.4,1.6c0,0.5-0.1,1-0.3,1.4c-0.2,0.5-0.4,0.9-0.8,1.3
		c-0.4,0.4-0.9,0.7-1.5,1c-0.6,0.2-1.3,0.4-2.2,0.4c-0.6,0-1.2-0.1-1.9-0.2s-1.2-0.5-1.7-0.9c-0.4-0.3-0.7-0.8-0.9-1.3
		s-0.3-1-0.3-1.5s0.1-0.9,0.3-1.4c0.2-0.4,0.4-0.8,0.8-1.2c0.3-0.3,0.7-0.6,1-0.7C40.4,499.1,40.7,498.9,41,498.8z M39.9,502.3
		c0,0.3,0,0.5,0.1,0.8s0.2,0.6,0.5,0.8c0.2,0.3,0.5,0.5,0.9,0.6c0.4,0.2,0.8,0.2,1.3,0.2c0.6,0,1-0.1,1.4-0.3
		c0.4-0.2,0.6-0.4,0.8-0.7c0.2-0.3,0.4-0.5,0.4-0.8c0.1-0.3,0.1-0.6,0.1-0.9c0-0.8-0.3-1.4-0.8-1.8c-0.5-0.5-1.2-0.7-2-0.7
		c-0.4,0-0.8,0.1-1.2,0.2c-0.3,0.1-0.6,0.3-0.9,0.5c-0.2,0.2-0.4,0.5-0.6,0.8C40,501.6,39.9,501.9,39.9,502.3z M45.4,495.7
		c0-0.6-0.2-1.2-0.7-1.6c-0.4-0.4-1.1-0.6-1.9-0.6c-0.4,0-0.7,0.1-1,0.2s-0.6,0.3-0.8,0.4c-0.2,0.2-0.4,0.4-0.5,0.7
		c-0.1,0.3-0.2,0.6-0.2,0.9s0.1,0.6,0.2,0.9c0.1,0.3,0.3,0.5,0.5,0.7s0.5,0.4,0.8,0.5s0.7,0.2,1,0.2c0.8,0,1.4-0.2,1.9-0.6
		C45.1,496.9,45.4,496.4,45.4,495.7z"/>
	<path d="M49.2,499.4c0-0.3,0-0.8,0-1.3s0.1-1,0.2-1.6s0.2-1.1,0.4-1.6s0.5-1,0.8-1.5s0.8-0.8,1.3-1s1.1-0.4,1.9-0.4
		c0.7,0,1.3,0.1,1.8,0.3c0.5,0.2,0.9,0.5,1.3,0.9c0.3,0.4,0.6,0.8,0.8,1.3s0.4,1,0.5,1.5s0.2,1,0.2,1.6s0.1,1,0.1,1.4
		c0,1.6-0.2,3-0.5,3.9c-0.3,1-0.8,1.8-1.4,2.4c-0.2,0.2-0.5,0.4-0.8,0.5s-0.5,0.2-0.8,0.3c-0.2,0.1-0.5,0.1-0.7,0.2
		c-0.2,0-0.4,0-0.6,0c-0.5,0-0.9-0.1-1.3-0.2c-0.4-0.1-0.7-0.3-1-0.5s-0.6-0.5-0.8-0.7c-0.2-0.3-0.4-0.6-0.6-0.9
		c-0.2-0.5-0.4-1-0.6-1.8C49.3,501.6,49.2,500.6,49.2,499.4z M51.1,499.3c0,0.8,0,1.5,0.1,2.2s0.2,1.2,0.4,1.7s0.5,0.9,0.8,1.2
		c0.3,0.3,0.8,0.4,1.3,0.4c0.6,0,1-0.2,1.4-0.5s0.6-0.8,0.8-1.3s0.3-1.1,0.4-1.8c0.1-0.6,0.1-1.3,0.1-1.9c0-0.8,0-1.6-0.1-2.3
		s-0.2-1.3-0.4-1.8s-0.5-0.9-0.8-1.2c-0.3-0.3-0.8-0.4-1.3-0.4c-0.6,0-1.1,0.2-1.5,0.5c-0.4,0.4-0.6,0.8-0.8,1.4
		c-0.2,0.5-0.3,1.2-0.4,1.8C51.1,498,51.1,498.7,51.1,499.3z"/>
</g>
<g class="st1">
	<path d="M40.2,548.8c0,0.6,0.2,1.1,0.5,1.5s0.9,0.6,1.7,0.6s1.3-0.2,1.8-0.6c0.4-0.4,0.7-0.9,0.9-1.5s0.3-1.2,0.3-1.9s0-1.3,0-1.8
		c-0.2,0.3-0.4,0.6-0.6,0.8c-0.2,0.2-0.5,0.4-0.8,0.5s-0.6,0.2-0.9,0.3c-0.3,0.1-0.6,0.1-0.8,0.1c-0.5,0-1.1-0.1-1.6-0.3
		s-1-0.5-1.3-0.8c-0.4-0.4-0.7-0.8-0.9-1.4c-0.2-0.5-0.4-1.2-0.4-1.9c0-0.8,0.1-1.5,0.4-2c0.3-0.6,0.6-1,1-1.4s0.9-0.6,1.4-0.8
		s1.1-0.2,1.6-0.2c0.4,0,0.8,0,1.2,0.1s0.9,0.3,1.3,0.5c0.4,0.2,0.8,0.6,1.2,1s0.6,1,0.8,1.7c0.1,0.4,0.2,0.9,0.3,1.5
		s0.1,1.3,0.1,2.2c0,0.3,0,0.8,0,1.2c0,0.5-0.1,1-0.2,1.6c-0.1,0.5-0.3,1.1-0.5,1.6s-0.5,1-0.9,1.4s-0.9,0.8-1.4,1
		c-0.6,0.3-1.3,0.4-2.1,0.4c-0.5,0-0.9-0.1-1.4-0.2c-0.5-0.1-0.9-0.3-1.3-0.6c-0.4-0.3-0.7-0.6-1-1.1s-0.4-1.1-0.4-1.8h2V548.8z
		 M45.2,542.5c0-0.5-0.1-0.9-0.2-1.3c-0.1-0.4-0.3-0.7-0.6-0.9s-0.5-0.4-0.9-0.6c-0.3-0.1-0.6-0.2-1-0.2s-0.8,0.1-1.1,0.2
		c-0.3,0.2-0.6,0.4-0.8,0.6c-0.2,0.3-0.4,0.6-0.5,0.9c-0.1,0.4-0.2,0.7-0.2,1.2c0,0.9,0.2,1.6,0.7,2.1s1.1,0.7,1.9,0.7
		c0.8,0,1.4-0.3,1.9-0.8C44.9,544.1,45.2,543.4,45.2,542.5z"/>
	<path d="M49.2,545.4c0-0.3,0-0.8,0-1.3s0.1-1,0.2-1.6s0.2-1.1,0.4-1.6s0.5-1,0.8-1.5s0.8-0.8,1.3-1s1.1-0.4,1.9-0.4
		c0.7,0,1.3,0.1,1.8,0.3s0.9,0.5,1.3,0.9c0.3,0.4,0.6,0.8,0.8,1.3s0.4,1,0.5,1.5s0.2,1,0.2,1.6s0.1,1,0.1,1.4c0,1.6-0.2,3-0.5,3.9
		c-0.3,1-0.8,1.8-1.4,2.4c-0.2,0.2-0.5,0.4-0.8,0.5s-0.5,0.2-0.8,0.3c-0.2,0.1-0.5,0.1-0.7,0.2c-0.2,0-0.4,0-0.6,0
		c-0.5,0-0.9-0.1-1.3-0.2c-0.4-0.1-0.7-0.3-1-0.5s-0.6-0.5-0.8-0.7c-0.2-0.3-0.4-0.6-0.6-0.9c-0.2-0.5-0.4-1-0.6-1.8
		C49.3,547.6,49.2,546.6,49.2,545.4z M51.1,545.3c0,0.8,0,1.5,0.1,2.2s0.2,1.2,0.4,1.7s0.5,0.9,0.8,1.2s0.8,0.4,1.3,0.4
		c0.6,0,1-0.2,1.4-0.5s0.6-0.8,0.8-1.3s0.3-1.1,0.4-1.8c0.1-0.6,0.1-1.3,0.1-1.9c0-0.8,0-1.6-0.1-2.3s-0.2-1.3-0.4-1.8
		s-0.5-0.9-0.8-1.2s-0.8-0.4-1.3-0.4c-0.6,0-1.1,0.2-1.5,0.5c-0.4,0.4-0.6,0.8-0.8,1.4c-0.2,0.5-0.3,1.2-0.4,1.8
		C51.1,544,51.1,544.7,51.1,545.3z"/>
</g>
<g class="st1">
	<path d="M32.9,587.5c-0.2,0.2-0.5,0.4-0.7,0.6c-0.3,0.2-0.6,0.4-0.8,0.5c-0.3,0.2-0.6,0.3-0.9,0.5c-0.3,0.2-0.6,0.3-0.8,0.4v-2
		c0.7-0.3,1.3-0.7,1.9-1.1s1.1-0.7,1.5-1.1h1.7v13.8h-1.9V587.5z"/>
	<path d="M38.5,592.4c0-0.3,0-0.8,0-1.3s0.1-1,0.2-1.6s0.2-1.1,0.4-1.6s0.5-1,0.8-1.5s0.8-0.8,1.3-1s1.1-0.4,1.9-0.4
		c0.7,0,1.3,0.1,1.8,0.3s0.9,0.5,1.3,0.9c0.3,0.4,0.6,0.8,0.8,1.3s0.4,1,0.5,1.5s0.2,1,0.2,1.6s0.1,1,0.1,1.4c0,1.6-0.2,3-0.5,3.9
		c-0.3,1-0.8,1.8-1.4,2.4c-0.2,0.2-0.5,0.4-0.8,0.5s-0.5,0.2-0.8,0.3c-0.2,0.1-0.5,0.1-0.7,0.2c-0.2,0-0.4,0-0.6,0
		c-0.5,0-0.9-0.1-1.3-0.2c-0.4-0.1-0.7-0.3-1-0.5s-0.6-0.5-0.8-0.7c-0.2-0.3-0.4-0.6-0.6-0.9c-0.2-0.5-0.4-1-0.6-1.8
		C38.6,594.6,38.5,593.6,38.5,592.4z M40.4,592.3c0,0.8,0,1.5,0.1,2.2s0.2,1.2,0.4,1.7s0.5,0.9,0.8,1.2s0.8,0.4,1.3,0.4
		c0.6,0,1-0.2,1.4-0.5s0.6-0.8,0.8-1.3s0.3-1.1,0.4-1.8c0.1-0.6,0.1-1.3,0.1-1.9c0-0.8,0-1.6-0.1-2.3s-0.2-1.3-0.4-1.8
		s-0.5-0.9-0.8-1.2s-0.8-0.4-1.3-0.4c-0.6,0-1.1,0.2-1.5,0.5c-0.4,0.4-0.6,0.8-0.8,1.4c-0.2,0.5-0.3,1.2-0.4,1.8
		C40.5,591,40.4,591.7,40.4,592.3z"/>
	<path d="M49.6,592.4c0-0.3,0-0.8,0-1.3s0.1-1,0.2-1.6s0.2-1.1,0.4-1.6s0.5-1,0.8-1.5s0.8-0.8,1.3-1s1.1-0.4,1.9-0.4
		c0.7,0,1.3,0.1,1.8,0.3s0.9,0.5,1.3,0.9c0.3,0.4,0.6,0.8,0.8,1.3s0.4,1,0.5,1.5s0.2,1,0.2,1.6s0.1,1,0.1,1.4c0,1.6-0.2,3-0.5,3.9
		c-0.3,1-0.8,1.8-1.4,2.4c-0.2,0.2-0.5,0.4-0.8,0.5s-0.5,0.2-0.8,0.3c-0.2,0.1-0.5,0.1-0.7,0.2c-0.2,0-0.4,0-0.6,0
		c-0.5,0-0.9-0.1-1.3-0.2c-0.4-0.1-0.7-0.3-1-0.5s-0.6-0.5-0.8-0.7c-0.2-0.3-0.4-0.6-0.6-0.9c-0.2-0.5-0.4-1-0.6-1.8
		C49.7,594.6,49.6,593.6,49.6,592.4z M51.6,592.3c0,0.8,0,1.5,0.1,2.2s0.2,1.2,0.4,1.7s0.5,0.9,0.8,1.2s0.8,0.4,1.3,0.4
		c0.6,0,1-0.2,1.4-0.5s0.6-0.8,0.8-1.3s0.3-1.1,0.4-1.8c0.1-0.6,0.1-1.3,0.1-1.9c0-0.8,0-1.6-0.1-2.3s-0.2-1.3-0.4-1.8
		s-0.5-0.9-0.8-1.2s-0.8-0.4-1.3-0.4c-0.6,0-1.1,0.2-1.5,0.5c-0.4,0.4-0.6,0.8-0.8,1.4c-0.2,0.5-0.3,1.2-0.4,1.8
		C51.6,591,51.6,591.7,51.6,592.3z"/>
</g>
<g class="st1">
	<path d="M34,635.1c-0.2,0.2-0.5,0.4-0.7,0.6c-0.3,0.2-0.6,0.4-0.8,0.5c-0.3,0.2-0.6,0.3-0.9,0.5c-0.3,0.2-0.6,0.3-0.8,0.4v-2
		c0.7-0.3,1.3-0.7,1.9-1.1s1.1-0.7,1.5-1.1H36v13.8h-1.9L34,635.1L34,635.1z"/>
	<path d="M42.4,635.1c-0.2,0.2-0.5,0.4-0.7,0.6c-0.3,0.2-0.6,0.4-0.8,0.5c-0.3,0.2-0.6,0.3-0.9,0.5c-0.3,0.2-0.6,0.3-0.8,0.4v-2
		c0.7-0.3,1.3-0.7,1.9-1.1s1.1-0.7,1.5-1.1h1.8v13.8h-1.9L42.4,635.1L42.4,635.1z"/>
	<path d="M48,640c0-0.3,0-0.8,0-1.3s0.1-1,0.2-1.6s0.2-1.1,0.4-1.6s0.5-1,0.8-1.5s0.8-0.8,1.3-1s1.1-0.4,1.9-0.4
		c0.7,0,1.3,0.1,1.8,0.3s0.9,0.5,1.3,0.9c0.3,0.4,0.6,0.8,0.8,1.3s0.4,1,0.5,1.5s0.2,1,0.2,1.6s0.1,1,0.1,1.4c0,1.6-0.2,3-0.5,3.9
		c-0.3,1-0.8,1.8-1.4,2.4c-0.2,0.2-0.5,0.4-0.8,0.5s-0.5,0.2-0.8,0.3c-0.2,0.1-0.5,0.1-0.7,0.2c-0.2,0-0.4,0-0.6,0
		c-0.5,0-0.9-0.1-1.3-0.2c-0.4-0.1-0.7-0.3-1-0.5s-0.6-0.5-0.8-0.7c-0.2-0.3-0.4-0.6-0.6-0.9c-0.2-0.5-0.4-1-0.6-1.8
		C48.1,642.3,48,641.3,48,640z M50,639.9c0,0.8,0,1.5,0.1,2.2s0.2,1.2,0.4,1.7s0.5,0.9,0.8,1.2s0.8,0.4,1.3,0.4c0.6,0,1-0.2,1.4-0.5
		s0.6-0.8,0.8-1.3s0.3-1.1,0.4-1.8c0.1-0.6,0.1-1.3,0.1-1.9c0-0.8,0-1.6-0.1-2.3s-0.2-1.3-0.4-1.8s-0.5-0.9-0.8-1.2
		s-0.8-0.4-1.3-0.4c-0.6,0-1.1,0.2-1.5,0.5c-0.4,0.4-0.6,0.8-0.8,1.4c-0.2,0.5-0.3,1.2-0.4,1.8C50,638.7,50,639.3,50,639.9z"/>
</g>
<g class="st1">
	<path d="M208,51.5c0,0.3,0.1,0.6,0.2,0.9c0.1,0.2,0.3,0.4,0.5,0.6c0.2,0.2,0.5,0.3,0.7,0.4c0.3,0.1,0.5,0.1,0.8,0.1
		c0.6,0,1.1-0.1,1.5-0.4c0.4-0.2,0.6-0.5,0.8-0.9c0.2-0.3,0.3-0.7,0.4-1c0.1-0.3,0.1-0.7,0.1-0.9c0-0.9-0.2-1.7-0.7-2.2
		s-1.1-0.8-1.9-0.8c-0.4,0-0.8,0.1-1.1,0.2c-0.3,0.1-0.6,0.3-0.8,0.5c-0.2,0.2-0.4,0.4-0.4,0.6c-0.1,0.2-0.1,0.4-0.2,0.5h-1.8
		l0.4-8.2h7.8v1.6h-6.1l-0.3,4.5c0.1-0.1,0.2-0.2,0.4-0.4c0.2-0.1,0.4-0.3,0.6-0.4c0.2-0.1,0.5-0.2,0.8-0.3s0.7-0.1,1.1-0.1
		c0.7,0,1.3,0.1,1.8,0.4c0.5,0.3,1,0.6,1.3,1s0.6,0.9,0.8,1.5s0.3,1.1,0.3,1.7c0,0.7-0.1,1.3-0.4,1.9c-0.2,0.6-0.6,1.1-1,1.5
		s-0.9,0.8-1.5,1c-0.6,0.2-1.3,0.4-2,0.4c-0.6,0-1.1-0.1-1.6-0.2c-0.5-0.1-0.9-0.4-1.3-0.7c-0.4-0.3-0.7-0.7-0.9-1.1
		c-0.2-0.5-0.3-1-0.4-1.6L208,51.5L208,51.5z"/>
	<path d="M216.8,48c0-0.3,0-0.8,0-1.3s0.1-1,0.2-1.6s0.2-1.1,0.4-1.6s0.5-1,0.8-1.5s0.8-0.8,1.3-1c0.5-0.2,1.1-0.4,1.9-0.4
		c0.7,0,1.3,0.1,1.8,0.3c0.5,0.2,0.9,0.5,1.3,0.9c0.3,0.4,0.6,0.8,0.8,1.3s0.4,1,0.5,1.5s0.2,1,0.2,1.6s0.1,1,0.1,1.4
		c0,1.6-0.2,3-0.5,3.9c-0.3,1-0.8,1.8-1.4,2.4c-0.2,0.2-0.5,0.4-0.8,0.5s-0.5,0.2-0.8,0.3c-0.2,0.1-0.5,0.1-0.7,0.2
		c-0.2,0-0.4,0-0.6,0c-0.5,0-0.9-0.1-1.3-0.2c-0.4-0.1-0.7-0.3-1-0.5c-0.3-0.2-0.6-0.5-0.8-0.7c-0.2-0.3-0.4-0.6-0.6-0.9
		c-0.2-0.5-0.4-1-0.6-1.8C216.9,50.3,216.8,49.3,216.8,48z M218.7,47.9c0,0.8,0,1.5,0.1,2.2c0.1,0.7,0.2,1.2,0.4,1.7
		s0.5,0.9,0.8,1.2c0.3,0.3,0.8,0.4,1.3,0.4c0.6,0,1-0.2,1.4-0.5c0.4-0.3,0.6-0.8,0.8-1.3s0.3-1.1,0.4-1.8c0.1-0.6,0.1-1.3,0.1-1.9
		c0-0.8,0-1.6-0.1-2.3c-0.1-0.7-0.2-1.3-0.4-1.8s-0.5-0.9-0.8-1.2c-0.3-0.3-0.8-0.4-1.3-0.4c-0.6,0-1.1,0.2-1.5,0.5
		c-0.4,0.4-0.6,0.8-0.8,1.4c-0.2,0.5-0.3,1.2-0.4,1.8C218.8,46.7,218.7,47.3,218.7,47.9z"/>
	<path d="M227.9,48c0-0.3,0-0.8,0-1.3s0.1-1,0.2-1.6s0.2-1.1,0.4-1.6s0.5-1,0.8-1.5s0.8-0.8,1.3-1c0.5-0.2,1.1-0.4,1.9-0.4
		c0.7,0,1.3,0.1,1.8,0.3c0.5,0.2,0.9,0.5,1.3,0.9c0.3,0.4,0.6,0.8,0.8,1.3s0.4,1,0.5,1.5s0.2,1,0.2,1.6s0.1,1,0.1,1.4
		c0,1.6-0.2,3-0.5,3.9c-0.3,1-0.8,1.8-1.4,2.4c-0.2,0.2-0.5,0.4-0.8,0.5s-0.5,0.2-0.8,0.3c-0.2,0.1-0.5,0.1-0.7,0.2
		c-0.2,0-0.4,0-0.6,0c-0.5,0-0.9-0.1-1.3-0.2c-0.4-0.1-0.7-0.3-1-0.5c-0.3-0.2-0.6-0.5-0.8-0.7c-0.2-0.3-0.4-0.6-0.6-0.9
		c-0.2-0.5-0.4-1-0.6-1.8C228,50.3,227.9,49.3,227.9,48z M229.9,47.9c0,0.8,0,1.5,0.1,2.2c0.1,0.7,0.2,1.2,0.4,1.7s0.5,0.9,0.8,1.2
		c0.3,0.3,0.8,0.4,1.3,0.4c0.6,0,1-0.2,1.4-0.5c0.4-0.3,0.6-0.8,0.8-1.3s0.3-1.1,0.4-1.8c0.1-0.6,0.1-1.3,0.1-1.9
		c0-0.8,0-1.6-0.1-2.3c-0.1-0.7-0.2-1.3-0.4-1.8s-0.5-0.9-0.8-1.2c-0.3-0.3-0.8-0.4-1.3-0.4c-0.6,0-1.1,0.2-1.5,0.5
		c-0.4,0.4-0.6,0.8-0.8,1.4c-0.2,0.5-0.3,1.2-0.4,1.8C229.9,46.7,229.9,47.3,229.9,47.9z"/>
</g>
<g class="st1">
	<path d="M93.2,53l3.6-3.6c0.4-0.4,0.8-0.8,1.1-1.2c0.4-0.4,0.7-0.8,1-1.2c0.4-0.5,0.7-1,0.8-1.4c0.1-0.4,0.2-0.7,0.2-1.1
		c0-0.2,0-0.4-0.1-0.6c0-0.3-0.1-0.5-0.3-0.7c-0.2-0.2-0.4-0.4-0.7-0.6c-0.3-0.2-0.7-0.3-1.2-0.3c-0.6,0-1,0.1-1.3,0.3
		c-0.3,0.2-0.3,0.5-0.5,0.7c-0.2,0.2-0.2,0.5-0.3,0.8c0,0.3,0,0.5,0,0.6h-2.1c0-0.2,0-0.4,0-0.6s0.1-0.5,0.2-0.8
		c0.1-0.3,0.2-0.5,0.4-0.8c0.2-0.3,0.4-0.6,0.7-0.8c0.5-0.4,1-0.7,1.5-0.8s1-0.2,1.5-0.2s1.1,0.1,1.6,0.2c0.5,0.1,1,0.4,1.4,0.7
		c0.4,0.3,0.7,0.7,1,1.2c0.2,0.5,0.4,1.1,0.4,1.9c0,0.2,0,0.4,0,0.6c0,0.2-0.1,0.4-0.2,0.7c-0.1,0.3-0.3,0.6-0.5,0.9
		c-0.2,0.3-0.5,0.7-0.9,1.2c-0.1,0.1-0.3,0.3-0.5,0.6c-0.2,0.3-0.5,0.5-0.8,0.8c-0.3,0.3-0.5,0.5-0.8,0.8c-0.2,0.3-0.4,0.4-0.5,0.5
		l-2.4,2.3h6.6v1.6h-8.8L93.2,53L93.2,53z"/>
	<path d="M106.5,51.5c0,0.3,0.1,0.6,0.2,0.9c0.1,0.2,0.3,0.4,0.5,0.6c0.2,0.2,0.5,0.3,0.7,0.4c0.3,0.1,0.5,0.1,0.8,0.1
		c0.6,0,1.1-0.1,1.5-0.4c0.4-0.2,0.6-0.5,0.8-0.9c0.2-0.3,0.3-0.7,0.4-1c0.1-0.3,0.1-0.7,0.1-0.9c0-0.9-0.2-1.7-0.7-2.2
		s-1.1-0.8-1.9-0.8c-0.4,0-0.8,0.1-1.1,0.2c-0.3,0.1-0.6,0.3-0.8,0.5c-0.2,0.2-0.4,0.4-0.4,0.6c-0.1,0.2-0.1,0.4-0.2,0.5h-1.8
		l0.4-8.2h7.8v1.6h-6.1l-0.3,4.5c0.1-0.1,0.2-0.2,0.4-0.4c0.2-0.1,0.4-0.3,0.6-0.4c0.2-0.1,0.5-0.2,0.8-0.3s0.7-0.1,1.1-0.1
		c0.7,0,1.3,0.1,1.8,0.4c0.5,0.3,1,0.6,1.3,1s0.6,0.9,0.8,1.5s0.3,1.1,0.3,1.7c0,0.7-0.1,1.3-0.4,1.9c-0.2,0.6-0.6,1.1-1,1.5
		s-0.9,0.8-1.5,1c-0.6,0.2-1.3,0.4-2,0.4c-0.6,0-1.1-0.1-1.6-0.2c-0.5-0.1-0.9-0.4-1.3-0.7c-0.4-0.3-0.7-0.7-0.9-1.1
		c-0.2-0.5-0.3-1-0.4-1.6L106.5,51.5L106.5,51.5z"/>
	<path d="M115.3,48c0-0.3,0-0.8,0-1.3s0.1-1,0.2-1.6s0.2-1.1,0.4-1.6s0.5-1,0.8-1.5s0.8-0.8,1.3-1c0.5-0.2,1.1-0.4,1.9-0.4
		c0.7,0,1.3,0.1,1.8,0.3c0.5,0.2,0.9,0.5,1.3,0.9c0.3,0.4,0.6,0.8,0.8,1.3c0.2,0.5,0.4,1,0.5,1.5s0.2,1,0.2,1.6s0.1,1,0.1,1.4
		c0,1.6-0.2,3-0.5,3.9c-0.3,1-0.8,1.8-1.4,2.4c-0.2,0.2-0.5,0.4-0.8,0.5s-0.5,0.2-0.8,0.3c-0.2,0.1-0.5,0.1-0.7,0.2
		c-0.2,0-0.4,0-0.6,0c-0.5,0-0.9-0.1-1.3-0.2c-0.4-0.1-0.7-0.3-1-0.5c-0.3-0.2-0.6-0.5-0.8-0.7c-0.2-0.3-0.4-0.6-0.6-0.9
		c-0.2-0.5-0.4-1-0.6-1.8C115.4,50.3,115.3,49.3,115.3,48z M117.2,47.9c0,0.8,0,1.5,0.1,2.2c0.1,0.7,0.2,1.2,0.4,1.7
		c0.2,0.5,0.5,0.9,0.8,1.2c0.3,0.3,0.8,0.4,1.3,0.4c0.6,0,1-0.2,1.4-0.5c0.4-0.3,0.6-0.8,0.8-1.3s0.3-1.1,0.4-1.8
		c0.1-0.6,0.1-1.3,0.1-1.9c0-0.8,0-1.6-0.1-2.3c-0.1-0.7-0.2-1.3-0.4-1.8c-0.2-0.5-0.5-0.9-0.8-1.2c-0.3-0.3-0.8-0.4-1.3-0.4
		c-0.6,0-1.1,0.2-1.5,0.5c-0.4,0.4-0.6,0.8-0.8,1.4c-0.2,0.5-0.3,1.2-0.4,1.8C117.2,46.7,117.2,47.3,117.2,47.9z"/>
</g>
<g class="st1">
	<path d="M261.5,41h9.1v1.7l-5.1,12.2h-2.3l5.3-12.2h-7.1V41H261.5z"/>
	<path d="M275.1,51.5c0,0.3,0.1,0.6,0.2,0.9c0.1,0.2,0.3,0.4,0.5,0.6c0.2,0.2,0.5,0.3,0.7,0.4c0.3,0.1,0.5,0.1,0.8,0.1
		c0.6,0,1.1-0.1,1.5-0.4c0.4-0.2,0.6-0.5,0.8-0.9c0.2-0.3,0.3-0.7,0.4-1c0.1-0.3,0.1-0.7,0.1-0.9c0-0.9-0.2-1.7-0.7-2.2
		s-1.1-0.8-1.9-0.8c-0.4,0-0.8,0.1-1.1,0.2c-0.3,0.1-0.6,0.3-0.8,0.5c-0.2,0.2-0.4,0.4-0.4,0.6c-0.1,0.2-0.1,0.4-0.2,0.5h-1.8
		l0.4-8.2h7.8v1.6h-6.1L275,47c0.1-0.1,0.2-0.2,0.4-0.4c0.2-0.1,0.4-0.3,0.6-0.4c0.2-0.1,0.5-0.2,0.8-0.3s0.7-0.1,1.1-0.1
		c0.7,0,1.3,0.1,1.8,0.4c0.5,0.3,1,0.6,1.3,1s0.6,0.9,0.8,1.5s0.3,1.1,0.3,1.7c0,0.7-0.1,1.3-0.4,1.9c-0.2,0.6-0.6,1.1-1,1.5
		s-0.9,0.8-1.5,1c-0.6,0.2-1.3,0.4-2,0.4c-0.6,0-1.1-0.1-1.6-0.2c-0.5-0.1-0.9-0.4-1.3-0.7c-0.4-0.3-0.7-0.7-0.9-1.1
		c-0.2-0.5-0.3-1-0.4-1.6L275.1,51.5L275.1,51.5z"/>
	<path d="M283.9,48c0-0.3,0-0.8,0-1.3s0.1-1,0.2-1.6s0.2-1.1,0.4-1.6s0.5-1,0.8-1.5s0.8-0.8,1.3-1c0.5-0.2,1.1-0.4,1.9-0.4
		c0.7,0,1.3,0.1,1.8,0.3c0.5,0.2,0.9,0.5,1.3,0.9c0.3,0.4,0.6,0.8,0.8,1.3c0.2,0.5,0.4,1,0.5,1.5s0.2,1,0.2,1.6s0.1,1,0.1,1.4
		c0,1.6-0.2,3-0.5,3.9c-0.3,1-0.8,1.8-1.4,2.4c-0.2,0.2-0.5,0.4-0.8,0.5s-0.5,0.2-0.8,0.3c-0.2,0.1-0.5,0.1-0.7,0.2
		c-0.2,0-0.4,0-0.6,0c-0.5,0-0.9-0.1-1.3-0.2c-0.4-0.1-0.7-0.3-1-0.5c-0.3-0.2-0.6-0.5-0.8-0.7c-0.2-0.3-0.4-0.6-0.6-0.9
		c-0.2-0.5-0.4-1-0.6-1.8C284,50.3,283.9,49.3,283.9,48z M285.9,47.9c0,0.8,0,1.5,0.1,2.2c0.1,0.7,0.2,1.2,0.4,1.7
		c0.2,0.5,0.5,0.9,0.8,1.2c0.3,0.3,0.8,0.4,1.3,0.4c0.6,0,1-0.2,1.4-0.5c0.4-0.3,0.6-0.8,0.8-1.3s0.3-1.1,0.4-1.8
		c0.1-0.6,0.1-1.3,0.1-1.9c0-0.8,0-1.6-0.1-2.3c-0.1-0.7-0.2-1.3-0.4-1.8c-0.2-0.5-0.5-0.9-0.8-1.2c-0.3-0.3-0.8-0.4-1.3-0.4
		c-0.6,0-1.1,0.2-1.5,0.5c-0.4,0.4-0.6,0.8-0.8,1.4c-0.2,0.5-0.3,1.2-0.4,1.8C285.9,46.7,285.9,47.3,285.9,47.9z"/>
</g>
<g class="st1">
	<path d="M314.7,43.1c-0.2,0.2-0.5,0.4-0.7,0.6c-0.3,0.2-0.6,0.4-0.8,0.5c-0.3,0.2-0.6,0.3-0.9,0.5c-0.3,0.2-0.6,0.3-0.8,0.4v-2
		c0.7-0.3,1.3-0.7,1.9-1.1c0.6-0.4,1.1-0.7,1.5-1.1h1.8v13.8h-1.9V43.1H314.7z"/>
	<path d="M320.3,48c0-0.3,0-0.8,0-1.3s0.1-1,0.2-1.6s0.2-1.1,0.4-1.6s0.5-1,0.8-1.5s0.8-0.8,1.3-1c0.5-0.2,1.1-0.4,1.9-0.4
		c0.7,0,1.3,0.1,1.8,0.3c0.5,0.2,0.9,0.5,1.3,0.9c0.3,0.4,0.6,0.8,0.8,1.3c0.2,0.5,0.4,1,0.5,1.5s0.2,1,0.2,1.6s0.1,1,0.1,1.4
		c0,1.6-0.2,3-0.5,3.9c-0.3,1-0.8,1.8-1.4,2.4c-0.2,0.2-0.5,0.4-0.8,0.5s-0.5,0.2-0.8,0.3c-0.2,0.1-0.5,0.1-0.7,0.2
		c-0.2,0-0.4,0-0.6,0c-0.5,0-0.9-0.1-1.3-0.2c-0.4-0.1-0.7-0.3-1-0.5c-0.3-0.2-0.6-0.5-0.8-0.7c-0.2-0.3-0.4-0.6-0.6-0.9
		c-0.2-0.5-0.4-1-0.6-1.8C320.4,50.3,320.3,49.3,320.3,48z M322.2,47.9c0,0.8,0,1.5,0.1,2.2c0.1,0.7,0.2,1.2,0.4,1.7
		c0.2,0.5,0.5,0.9,0.8,1.2c0.3,0.3,0.8,0.4,1.3,0.4c0.6,0,1-0.2,1.4-0.5c0.4-0.3,0.6-0.8,0.8-1.3s0.3-1.1,0.4-1.8
		c0.1-0.6,0.1-1.3,0.1-1.9c0-0.8,0-1.6-0.1-2.3c-0.1-0.7-0.2-1.3-0.4-1.8c-0.2-0.5-0.5-0.9-0.8-1.2c-0.3-0.3-0.8-0.4-1.3-0.4
		c-0.6,0-1.1,0.2-1.5,0.5c-0.4,0.4-0.6,0.8-0.8,1.4c-0.2,0.5-0.3,1.2-0.4,1.8C322.3,46.7,322.2,47.3,322.2,47.9z"/>
	<path d="M331.4,48c0-0.3,0-0.8,0-1.3s0.1-1,0.2-1.6s0.2-1.1,0.4-1.6s0.5-1,0.8-1.5s0.8-0.8,1.3-1c0.5-0.2,1.1-0.4,1.9-0.4
		c0.7,0,1.3,0.1,1.8,0.3c0.5,0.2,0.9,0.5,1.3,0.9c0.3,0.4,0.6,0.8,0.8,1.3c0.2,0.5,0.4,1,0.5,1.5s0.2,1,0.2,1.6s0.1,1,0.1,1.4
		c0,1.6-0.2,3-0.5,3.9c-0.3,1-0.8,1.8-1.4,2.4c-0.2,0.2-0.5,0.4-0.8,0.5s-0.5,0.2-0.8,0.3c-0.2,0.1-0.5,0.1-0.7,0.2
		c-0.2,0-0.4,0-0.6,0c-0.5,0-0.9-0.1-1.3-0.2c-0.4-0.1-0.7-0.3-1-0.5c-0.3-0.2-0.6-0.5-0.8-0.7c-0.2-0.3-0.4-0.6-0.6-0.9
		c-0.2-0.5-0.4-1-0.6-1.8C331.5,50.3,331.4,49.3,331.4,48z M333.3,47.9c0,0.8,0,1.5,0.1,2.2c0.1,0.7,0.2,1.2,0.4,1.7
		c0.2,0.5,0.5,0.9,0.8,1.2c0.3,0.3,0.8,0.4,1.3,0.4c0.6,0,1-0.2,1.4-0.5c0.4-0.3,0.6-0.8,0.8-1.3s0.3-1.1,0.4-1.8
		c0.1-0.6,0.1-1.3,0.1-1.9c0-0.8,0-1.6-0.1-2.3c-0.1-0.7-0.2-1.3-0.4-1.8c-0.2-0.5-0.5-0.9-0.8-1.2c-0.3-0.3-0.8-0.4-1.3-0.4
		c-0.6,0-1.1,0.2-1.5,0.5c-0.4,0.4-0.6,0.8-0.8,1.4c-0.2,0.5-0.3,1.2-0.4,1.8C333.4,46.7,333.3,47.3,333.3,47.9z"/>
	<path d="M342.5,48c0-0.3,0-0.8,0-1.3s0.1-1,0.2-1.6s0.2-1.1,0.4-1.6s0.5-1,0.8-1.5s0.8-0.8,1.3-1c0.5-0.2,1.1-0.4,1.9-0.4
		c0.7,0,1.3,0.1,1.8,0.3c0.5,0.2,0.9,0.5,1.3,0.9c0.3,0.4,0.6,0.8,0.8,1.3c0.2,0.5,0.4,1,0.5,1.5s0.2,1,0.2,1.6s0.1,1,0.1,1.4
		c0,1.6-0.2,3-0.5,3.9c-0.3,1-0.8,1.8-1.4,2.4c-0.2,0.2-0.5,0.4-0.8,0.5s-0.5,0.2-0.8,0.3c-0.2,0.1-0.5,0.1-0.7,0.2
		c-0.2,0-0.4,0-0.6,0c-0.5,0-0.9-0.1-1.3-0.2c-0.4-0.1-0.7-0.3-1-0.5c-0.3-0.2-0.6-0.5-0.8-0.7c-0.2-0.3-0.4-0.6-0.6-0.9
		c-0.2-0.5-0.4-1-0.6-1.8C342.6,50.3,342.5,49.3,342.5,48z M344.5,47.9c0,0.8,0,1.5,0.1,2.2c0.1,0.7,0.2,1.2,0.4,1.7
		c0.2,0.5,0.5,0.9,0.8,1.2c0.3,0.3,0.8,0.4,1.3,0.4c0.6,0,1-0.2,1.4-0.5c0.4-0.3,0.6-0.8,0.8-1.3s0.3-1.1,0.4-1.8
		c0.1-0.6,0.1-1.3,0.1-1.9c0-0.8,0-1.6-0.1-2.3c-0.1-0.7-0.2-1.3-0.4-1.8c-0.2-0.5-0.5-0.9-0.8-1.2c-0.3-0.3-0.8-0.4-1.3-0.4
		c-0.6,0-1.1,0.2-1.5,0.5c-0.4,0.4-0.6,0.8-0.8,1.4c-0.2,0.5-0.3,1.2-0.4,1.8C344.5,46.7,344.5,47.3,344.5,47.9z"/>
</g>
<g class="st1">
	<path d="M370.7,43.1c-0.2,0.2-0.5,0.4-0.7,0.6c-0.3,0.2-0.6,0.4-0.8,0.5c-0.3,0.2-0.6,0.3-0.9,0.5c-0.3,0.2-0.5,0.3-0.8,0.4v-2
		c0.7-0.3,1.3-0.7,1.9-1.1s1.1-0.7,1.5-1.1h1.8v13.8h-1.9V43.1H370.7z"/>
	<path d="M379.3,51.5c0,0.3,0.1,0.6,0.2,0.9c0.1,0.2,0.3,0.4,0.5,0.6s0.5,0.3,0.7,0.4c0.3,0.1,0.5,0.1,0.8,0.1
		c0.6,0,1.1-0.1,1.5-0.4c0.4-0.2,0.6-0.5,0.8-0.9c0.2-0.3,0.3-0.7,0.4-1c0.1-0.4,0.1-0.7,0.1-0.9c0-0.9-0.2-1.7-0.7-2.2
		s-1.1-0.8-1.9-0.8c-0.4,0-0.8,0.1-1.1,0.2c-0.3,0.1-0.6,0.3-0.8,0.5c-0.2,0.2-0.4,0.4-0.4,0.6c-0.1,0.2-0.1,0.4-0.2,0.5h-1.8
		l0.4-8.2h7.8v1.6h-6.1l-0.3,4.5c0.1-0.1,0.2-0.2,0.4-0.4c0.2-0.1,0.4-0.3,0.6-0.4c0.2-0.1,0.5-0.2,0.8-0.3s0.7-0.1,1.1-0.1
		c0.7,0,1.3,0.1,1.8,0.4c0.5,0.3,1,0.6,1.3,1s0.6,0.9,0.8,1.5c0.2,0.5,0.3,1.1,0.3,1.7c0,0.7-0.1,1.3-0.3,1.9
		c-0.2,0.6-0.6,1.1-1,1.5s-0.9,0.8-1.5,1c-0.6,0.2-1.3,0.4-2,0.4c-0.6,0-1.1-0.1-1.6-0.2c-0.5-0.2-0.9-0.4-1.3-0.7
		c-0.4-0.3-0.7-0.7-0.9-1.1c-0.2-0.5-0.3-1-0.4-1.6L379.3,51.5L379.3,51.5z"/>
	<path d="M388.1,48c0-0.3,0-0.8,0-1.3s0.1-1,0.2-1.6c0.1-0.5,0.2-1.1,0.4-1.6s0.5-1,0.8-1.5s0.8-0.8,1.3-1c0.5-0.3,1.1-0.4,1.9-0.4
		c0.7,0,1.3,0.1,1.8,0.3c0.5,0.2,0.9,0.5,1.3,0.9s0.6,0.8,0.8,1.3c0.2,0.5,0.4,1,0.5,1.5s0.2,1,0.2,1.6s0.1,1,0.1,1.4
		c0,1.6-0.2,3-0.5,3.9c-0.3,1-0.8,1.8-1.4,2.4c-0.2,0.2-0.5,0.4-0.8,0.5s-0.5,0.2-0.8,0.3s-0.5,0.1-0.7,0.2c-0.2,0-0.4,0-0.6,0
		c-0.5,0-0.9-0.1-1.3-0.2c-0.4-0.1-0.7-0.3-1-0.5c-0.3-0.2-0.6-0.5-0.8-0.7c-0.2-0.3-0.4-0.6-0.6-0.9c-0.2-0.5-0.4-1-0.6-1.8
		C388.2,50.3,388.1,49.3,388.1,48z M390,47.9c0,0.8,0,1.5,0.1,2.2c0.1,0.7,0.2,1.2,0.4,1.7c0.2,0.5,0.5,0.9,0.8,1.2
		c0.3,0.3,0.8,0.4,1.3,0.4c0.6,0,1-0.2,1.4-0.5c0.4-0.3,0.6-0.8,0.8-1.3s0.3-1.1,0.4-1.8c0.1-0.6,0.1-1.3,0.1-1.9
		c0-0.8,0-1.6-0.1-2.3c-0.1-0.7-0.2-1.3-0.4-1.8c-0.2-0.5-0.5-0.9-0.8-1.2c-0.3-0.3-0.8-0.4-1.3-0.4c-0.6,0-1.1,0.2-1.5,0.5
		c-0.4,0.4-0.6,0.8-0.8,1.4c-0.2,0.6-0.3,1.2-0.4,1.8C390,46.7,390,47.3,390,47.9z"/>
	<path d="M399.2,48c0-0.3,0-0.8,0-1.3s0.1-1,0.2-1.6c0.1-0.5,0.2-1.1,0.4-1.6s0.5-1,0.8-1.5s0.8-0.8,1.3-1c0.5-0.3,1.1-0.4,1.9-0.4
		c0.7,0,1.3,0.1,1.8,0.3c0.5,0.2,0.9,0.5,1.3,0.9s0.6,0.8,0.8,1.3c0.2,0.5,0.4,1,0.5,1.5s0.2,1,0.2,1.6s0.1,1,0.1,1.4
		c0,1.6-0.2,3-0.5,3.9c-0.3,1-0.8,1.8-1.4,2.4c-0.2,0.2-0.5,0.4-0.8,0.5s-0.5,0.2-0.8,0.3s-0.5,0.1-0.7,0.2c-0.2,0-0.4,0-0.6,0
		c-0.5,0-0.9-0.1-1.3-0.2c-0.4-0.1-0.7-0.3-1-0.5c-0.3-0.2-0.6-0.5-0.8-0.7c-0.2-0.3-0.4-0.6-0.6-0.9c-0.2-0.5-0.4-1-0.6-1.8
		C399.3,50.3,399.2,49.3,399.2,48z M401.1,47.9c0,0.8,0,1.5,0.1,2.2c0.1,0.7,0.2,1.2,0.4,1.7c0.2,0.5,0.5,0.9,0.8,1.2
		c0.3,0.3,0.8,0.4,1.3,0.4c0.6,0,1-0.2,1.4-0.5c0.4-0.3,0.6-0.8,0.8-1.3s0.3-1.1,0.4-1.8c0.1-0.6,0.1-1.3,0.1-1.9
		c0-0.8,0-1.6-0.1-2.3c-0.1-0.7-0.2-1.3-0.4-1.8c-0.2-0.5-0.5-0.9-0.8-1.2c-0.3-0.3-0.8-0.4-1.3-0.4c-0.6,0-1.1,0.2-1.5,0.5
		c-0.4,0.4-0.6,0.8-0.8,1.4c-0.2,0.6-0.3,1.2-0.4,1.8C401.2,46.7,401.1,47.3,401.1,47.9z"/>
</g>
<g class="st1">
	<path d="M419.3,53l3.6-3.6c0.4-0.4,0.8-0.8,1.1-1.2c0.4-0.4,0.7-0.8,1-1.2c0.4-0.5,0.7-1,0.8-1.4c0.1-0.4,0.2-0.7,0.2-1.1
		c0-0.2,0-0.4-0.1-0.6c0-0.3-0.1-0.5-0.3-0.7c-0.2-0.2-0.4-0.4-0.7-0.6c-0.3-0.2-0.7-0.3-1.2-0.3c-0.6,0-1,0.1-1.3,0.3
		c-0.3,0.2-0.5,0.4-0.7,0.7c-0.1,0.3-0.2,0.5-0.3,0.8c-0.1,0.3,0,0.5,0,0.6h-2.1c0-0.2,0-0.4,0-0.6c0-0.2,0.1-0.5,0.2-0.8
		c0.1-0.3,0.2-0.5,0.4-0.8c0.2-0.3,0.4-0.6,0.7-0.8c0.5-0.4,1-0.7,1.5-0.8s1-0.2,1.5-0.2s1.1,0.1,1.6,0.2c0.5,0.1,1,0.4,1.4,0.7
		c0.4,0.3,0.7,0.7,1,1.2c0.2,0.5,0.4,1.1,0.4,1.9c0,0.2,0,0.4,0,0.6s-0.1,0.4-0.2,0.7c-0.1,0.3-0.3,0.6-0.5,0.9s-0.5,0.7-0.9,1.2
		c-0.1,0.1-0.3,0.3-0.5,0.6c-0.2,0.3-0.5,0.5-0.8,0.8c-0.3,0.3-0.5,0.5-0.8,0.8c-0.2,0.3-0.4,0.4-0.5,0.5l-2.4,2.3h6.6v1.6h-8.8
		L419.3,53L419.3,53z"/>
	<path d="M430.3,48c0-0.3,0-0.8,0-1.3s0.1-1,0.2-1.6c0.1-0.5,0.2-1.1,0.4-1.6s0.5-1,0.8-1.5s0.8-0.8,1.3-1c0.5-0.3,1.1-0.4,1.9-0.4
		c0.7,0,1.3,0.1,1.8,0.3c0.5,0.2,0.9,0.5,1.3,0.9s0.6,0.8,0.8,1.3c0.2,0.5,0.4,1,0.5,1.5s0.2,1,0.2,1.6s0.1,1,0.1,1.4
		c0,1.6-0.2,3-0.5,3.9c-0.3,1-0.8,1.8-1.4,2.4c-0.2,0.2-0.5,0.4-0.8,0.5s-0.5,0.2-0.8,0.3s-0.5,0.1-0.7,0.2c-0.2,0-0.4,0-0.6,0
		c-0.5,0-0.9-0.1-1.3-0.2c-0.4-0.1-0.7-0.3-1-0.5c-0.3-0.2-0.6-0.5-0.8-0.7c-0.2-0.3-0.4-0.6-0.6-0.9c-0.2-0.5-0.4-1-0.6-1.8
		C430.4,50.3,430.3,49.3,430.3,48z M432.2,47.9c0,0.8,0,1.5,0.1,2.2c0.1,0.7,0.2,1.2,0.4,1.7c0.2,0.5,0.5,0.9,0.8,1.2
		c0.3,0.3,0.8,0.4,1.3,0.4c0.6,0,1-0.2,1.4-0.5c0.4-0.3,0.6-0.8,0.8-1.3s0.3-1.1,0.4-1.8c0.1-0.6,0.1-1.3,0.1-1.9
		c0-0.8,0-1.6-0.1-2.3c-0.1-0.7-0.2-1.3-0.4-1.8c-0.2-0.5-0.5-0.9-0.8-1.2c-0.3-0.3-0.8-0.4-1.3-0.4c-0.6,0-1.1,0.2-1.5,0.5
		c-0.4,0.4-0.6,0.8-0.8,1.4c-0.2,0.6-0.3,1.2-0.4,1.8C432.2,46.7,432.2,47.3,432.2,47.9z"/>
	<path d="M441.4,48c0-0.3,0-0.8,0-1.3s0.1-1,0.2-1.6c0.1-0.5,0.2-1.1,0.4-1.6s0.5-1,0.8-1.5s0.8-0.8,1.3-1c0.5-0.3,1.1-0.4,1.9-0.4
		c0.7,0,1.3,0.1,1.8,0.3c0.5,0.2,0.9,0.5,1.3,0.9s0.6,0.8,0.8,1.3c0.2,0.5,0.4,1,0.5,1.5s0.2,1,0.2,1.6s0.1,1,0.1,1.4
		c0,1.6-0.2,3-0.5,3.9c-0.3,1-0.8,1.8-1.4,2.4c-0.2,0.2-0.5,0.4-0.8,0.5s-0.5,0.2-0.8,0.3s-0.5,0.1-0.7,0.2c-0.2,0-0.4,0-0.6,0
		c-0.5,0-0.9-0.1-1.3-0.2c-0.4-0.1-0.7-0.3-1-0.5c-0.3-0.2-0.6-0.5-0.8-0.7c-0.2-0.3-0.4-0.6-0.6-0.9c-0.2-0.5-0.4-1-0.6-1.8
		C441.5,50.3,441.4,49.3,441.4,48z M443.3,47.9c0,0.8,0,1.5,0.1,2.2c0.1,0.7,0.2,1.2,0.4,1.7c0.2,0.5,0.5,0.9,0.8,1.2
		c0.3,0.3,0.8,0.4,1.3,0.4c0.6,0,1-0.2,1.4-0.5c0.4-0.3,0.6-0.8,0.8-1.3s0.3-1.1,0.4-1.8c0.1-0.6,0.1-1.3,0.1-1.9
		c0-0.8,0-1.6-0.1-2.3c-0.1-0.7-0.2-1.3-0.4-1.8c-0.2-0.5-0.5-0.9-0.8-1.2c-0.3-0.3-0.8-0.4-1.3-0.4c-0.6,0-1.1,0.2-1.5,0.5
		c-0.4,0.4-0.6,0.8-0.8,1.4c-0.2,0.6-0.3,1.2-0.4,1.8C443.3,46.7,443.3,47.3,443.3,47.9z"/>
	<path d="M452.5,48c0-0.3,0-0.8,0-1.3s0.1-1,0.2-1.6c0.1-0.5,0.2-1.1,0.4-1.6s0.5-1,0.8-1.5s0.8-0.8,1.3-1c0.5-0.3,1.1-0.4,1.9-0.4
		c0.7,0,1.3,0.1,1.8,0.3c0.5,0.2,0.9,0.5,1.3,0.9c0.3,0.4,0.6,0.8,0.8,1.3c0.2,0.5,0.4,1,0.5,1.5s0.2,1,0.2,1.6s0.1,1,0.1,1.4
		c0,1.6-0.2,3-0.5,3.9c-0.3,1-0.8,1.8-1.4,2.4c-0.2,0.2-0.5,0.4-0.8,0.5s-0.5,0.2-0.8,0.3c-0.2,0.1-0.5,0.1-0.7,0.2
		c-0.2,0-0.4,0-0.6,0c-0.5,0-0.9-0.1-1.3-0.2c-0.4-0.1-0.7-0.3-1-0.5c-0.3-0.2-0.6-0.5-0.8-0.7c-0.2-0.3-0.4-0.6-0.6-0.9
		c-0.2-0.5-0.4-1-0.6-1.8C452.5,50,452.5,49.3,452.5,48z M454.4,47.9c0,0.8,0,1.5,0.1,2.2c0.1,0.7,0.2,1.2,0.4,1.7s0.5,0.9,0.8,1.2
		c0.3,0.3,0.8,0.4,1.3,0.4c0.6,0,1-0.2,1.4-0.5c0.4-0.3,0.6-0.8,0.8-1.3s0.3-1.1,0.4-1.8c0.1-0.6,0.1-1.3,0.1-1.9
		c0-0.8,0-1.6-0.1-2.3c-0.1-0.7-0.2-1.3-0.4-1.8s-0.5-0.9-0.8-1.2c-0.3-0.3-0.8-0.4-1.3-0.4c-0.6,0-1.1,0.2-1.5,0.5
		c-0.4,0.4-0.6,0.8-0.8,1.4c-0.2,0.5-0.3,1.2-0.4,1.8C454.4,46.7,454.4,47.3,454.4,47.9z"/>
</g>
<g class="st1">
	<path d="M477.1,51.2c0,0.7,0.2,1.2,0.6,1.6c0.4,0.4,1.1,0.6,1.9,0.6c0.5,0,0.9-0.1,1.2-0.2c0.4-0.1,0.6-0.3,0.9-0.6
		c0.2-0.2,0.4-0.5,0.5-0.8c0.1-0.3,0.2-0.6,0.2-0.9c0-0.4-0.1-0.7-0.2-1c-0.1-0.3-0.3-0.5-0.4-0.7c-0.2-0.2-0.4-0.4-0.6-0.5
		s-0.5-0.2-0.7-0.3c-0.4-0.1-0.7-0.1-1-0.1s-0.6,0-1,0v-1.6c0.3,0,0.7,0,1.2,0s0.8-0.1,1.2-0.3c0.4-0.2,0.7-0.4,1-0.8
		c0.3-0.3,0.4-0.8,0.4-1.3c0-0.8-0.2-1.3-0.7-1.7s-1-0.5-1.7-0.5c-0.3,0-0.5,0-0.8,0.1s-0.5,0.2-0.8,0.4c-0.2,0.2-0.4,0.4-0.6,0.7
		c-0.2,0.3-0.3,0.6-0.3,1.1h-2c0-0.9,0.2-1.5,0.6-2s0.8-0.9,1.3-1.1c0.5-0.3,1-0.4,1.5-0.5s0.9-0.1,1.2-0.1c0.8,0,1.4,0.1,2,0.3
		c0.6,0.2,1,0.5,1.4,0.8c0.4,0.4,0.7,0.8,0.8,1.2c0.2,0.4,0.3,0.9,0.3,1.4c0,0.3,0,0.6-0.1,0.9s-0.2,0.7-0.5,1
		c-0.2,0.3-0.5,0.6-0.9,0.8c-0.4,0.2-0.8,0.4-1.3,0.6c0.7,0.1,1.3,0.3,1.7,0.7c0.4,0.3,0.7,0.7,0.9,1.1c0.2,0.4,0.3,0.7,0.3,1
		c0,0.3,0.1,0.5,0.1,0.6c0,0.5-0.1,1-0.3,1.5c-0.2,0.5-0.5,0.9-0.9,1.3s-0.9,0.7-1.5,1c-0.6,0.2-1.3,0.4-2.1,0.4
		c-0.7,0-1.4-0.1-2.1-0.3c-0.7-0.2-1.2-0.6-1.7-1.1c-0.2-0.2-0.4-0.4-0.5-0.7c-0.1-0.3-0.2-0.5-0.2-0.7c-0.1-0.2-0.1-0.4-0.1-0.6
		s0-0.4,0-0.5h1.8V51.2z"/>
	<path d="M486.3,48c0-0.3,0-0.8,0-1.3s0.1-1,0.2-1.6c0.1-0.5,0.2-1.1,0.4-1.6s0.5-1,0.8-1.5s0.8-0.8,1.3-1c0.5-0.3,1.1-0.4,1.9-0.4
		c0.7,0,1.3,0.1,1.8,0.3c0.5,0.2,0.9,0.5,1.3,0.9c0.3,0.4,0.6,0.8,0.8,1.3c0.2,0.5,0.4,1,0.5,1.5s0.2,1,0.2,1.6s0.1,1,0.1,1.4
		c0,1.6-0.2,3-0.5,3.9c-0.3,1-0.8,1.8-1.4,2.4c-0.2,0.2-0.5,0.4-0.8,0.5s-0.5,0.2-0.8,0.3c-0.2,0.1-0.5,0.1-0.7,0.2
		c-0.2,0-0.4,0-0.6,0c-0.5,0-0.9-0.1-1.3-0.2c-0.4-0.1-0.7-0.3-1-0.5c-0.3-0.2-0.6-0.5-0.8-0.7c-0.2-0.3-0.4-0.6-0.6-0.9
		c-0.2-0.5-0.4-1-0.6-1.8C486.3,50,486.3,49.3,486.3,48z M488.2,47.9c0,0.8,0,1.5,0.1,2.2c0.1,0.7,0.2,1.2,0.4,1.7s0.5,0.9,0.8,1.2
		c0.3,0.3,0.8,0.4,1.3,0.4c0.6,0,1-0.2,1.4-0.5c0.4-0.3,0.6-0.8,0.8-1.3s0.3-1.1,0.4-1.8c0.1-0.6,0.1-1.3,0.1-1.9
		c0-0.8,0-1.6-0.1-2.3c-0.1-0.7-0.2-1.3-0.4-1.8s-0.5-0.9-0.8-1.2c-0.3-0.3-0.8-0.4-1.3-0.4c-0.6,0-1.1,0.2-1.5,0.5
		c-0.4,0.4-0.6,0.8-0.8,1.4c-0.2,0.5-0.3,1.2-0.4,1.8C488.2,46.7,488.2,47.3,488.2,47.9z"/>
	<path d="M497.4,48c0-0.3,0-0.8,0-1.3s0.1-1,0.2-1.6c0.1-0.5,0.2-1.1,0.4-1.6s0.5-1,0.8-1.5s0.8-0.8,1.3-1c0.5-0.3,1.1-0.4,1.9-0.4
		c0.7,0,1.3,0.1,1.8,0.3c0.5,0.2,0.9,0.5,1.3,0.9c0.3,0.4,0.6,0.8,0.8,1.3c0.2,0.5,0.4,1,0.5,1.5s0.2,1,0.2,1.6s0.1,1,0.1,1.4
		c0,1.6-0.2,3-0.5,3.9c-0.3,1-0.8,1.8-1.4,2.4c-0.2,0.2-0.5,0.4-0.8,0.5s-0.5,0.2-0.8,0.3c-0.2,0.1-0.5,0.1-0.7,0.2
		c-0.2,0-0.4,0-0.6,0c-0.5,0-0.9-0.1-1.3-0.2c-0.4-0.1-0.7-0.3-1-0.5c-0.3-0.2-0.6-0.5-0.8-0.7c-0.2-0.3-0.4-0.6-0.6-0.9
		c-0.2-0.5-0.4-1-0.6-1.8C497.4,50,497.4,49.3,497.4,48z M499.3,47.9c0,0.8,0,1.5,0.1,2.2c0.1,0.7,0.2,1.2,0.4,1.7s0.5,0.9,0.8,1.2
		c0.3,0.3,0.8,0.4,1.3,0.4c0.6,0,1-0.2,1.4-0.5c0.4-0.3,0.6-0.8,0.8-1.3s0.3-1.1,0.4-1.8c0.1-0.6,0.1-1.3,0.1-1.9
		c0-0.8,0-1.6-0.1-2.3c-0.1-0.7-0.2-1.3-0.4-1.8s-0.5-0.9-0.8-1.2c-0.3-0.3-0.8-0.4-1.3-0.4c-0.6,0-1.1,0.2-1.5,0.5
		c-0.4,0.4-0.6,0.8-0.8,1.4c-0.2,0.5-0.3,1.2-0.4,1.8C499.3,46.7,499.3,47.3,499.3,47.9z"/>
	<path d="M508.5,48c0-0.3,0-0.8,0-1.3s0.1-1,0.2-1.6c0.1-0.5,0.2-1.1,0.4-1.6s0.5-1,0.8-1.5s0.8-0.8,1.3-1c0.5-0.3,1.1-0.4,1.9-0.4
		c0.7,0,1.3,0.1,1.8,0.3c0.5,0.2,0.9,0.5,1.3,0.9s0.6,0.8,0.8,1.3s0.4,1,0.5,1.5s0.2,1,0.2,1.6s0.1,1,0.1,1.4c0,1.6-0.2,3-0.5,3.9
		c-0.3,1-0.8,1.8-1.4,2.4c-0.2,0.2-0.5,0.4-0.8,0.5s-0.5,0.2-0.8,0.3s-0.5,0.1-0.7,0.2c-0.2,0-0.4,0-0.6,0c-0.5,0-0.9-0.1-1.3-0.2
		c-0.4-0.1-0.7-0.3-1-0.5c-0.3-0.2-0.6-0.5-0.8-0.7c-0.2-0.3-0.4-0.6-0.6-0.9c-0.2-0.5-0.4-1-0.6-1.8
		C508.6,50.3,508.5,49.3,508.5,48z M510.4,47.9c0,0.8,0,1.5,0.1,2.2c0.1,0.7,0.2,1.2,0.4,1.7s0.5,0.9,0.8,1.2
		c0.3,0.3,0.8,0.4,1.3,0.4c0.6,0,1-0.2,1.4-0.5c0.4-0.3,0.6-0.8,0.8-1.3s0.3-1.1,0.4-1.8c0.1-0.6,0.1-1.3,0.1-1.9
		c0-0.8,0-1.6-0.1-2.3c-0.1-0.7-0.2-1.3-0.4-1.8s-0.5-0.9-0.8-1.2c-0.3-0.3-0.8-0.4-1.3-0.4c-0.6,0-1.1,0.2-1.5,0.5
		c-0.4,0.4-0.6,0.8-0.8,1.4c-0.2,0.6-0.3,1.2-0.4,1.8C510.5,46.7,510.4,47.3,510.4,47.9z"/>
</g>
<g class="st1">
	<path d="M534.1,51.8h-6.3v-2.4l6-8.6h2.2v9.4h2v1.6h-2v3h-1.9V51.8z M534.1,50.2v-7.3l-4.8,7.3H534.1z"/>
	<path d="M539.3,48c0-0.3,0-0.8,0-1.3s0.1-1,0.2-1.6s0.2-1.1,0.4-1.6s0.5-1,0.8-1.5s0.8-0.8,1.3-1c0.5-0.2,1.1-0.4,1.9-0.4
		c0.7,0,1.3,0.1,1.8,0.3c0.5,0.2,0.9,0.5,1.3,0.9s0.6,0.8,0.8,1.3s0.4,1,0.5,1.5s0.2,1,0.2,1.6s0.1,1,0.1,1.4c0,1.6-0.2,3-0.5,3.9
		c-0.3,1-0.8,1.8-1.4,2.4c-0.2,0.2-0.5,0.4-0.8,0.5s-0.5,0.2-0.8,0.3s-0.5,0.1-0.7,0.2c-0.2,0-0.4,0-0.6,0c-0.5,0-0.9-0.1-1.3-0.2
		c-0.4-0.1-0.7-0.3-1-0.5c-0.3-0.2-0.6-0.5-0.8-0.7c-0.2-0.3-0.4-0.6-0.6-0.9c-0.2-0.5-0.4-1-0.6-1.8
		C539.4,50.3,539.3,49.3,539.3,48z M541.2,47.9c0,0.8,0,1.5,0.1,2.2c0.1,0.7,0.2,1.2,0.4,1.7s0.5,0.9,0.8,1.2
		c0.3,0.3,0.8,0.4,1.3,0.4c0.6,0,1-0.2,1.4-0.5c0.4-0.3,0.6-0.8,0.8-1.3s0.3-1.1,0.4-1.8c0.1-0.6,0.1-1.3,0.1-1.9
		c0-0.8,0-1.6-0.1-2.3c-0.1-0.7-0.2-1.3-0.4-1.8s-0.5-0.9-0.8-1.2c-0.3-0.3-0.8-0.4-1.3-0.4c-0.6,0-1.1,0.2-1.4,0.5
		c-0.4,0.4-0.6,0.8-0.8,1.4c-0.2,0.5-0.3,1.2-0.4,1.8C541.2,46.7,541.2,47.3,541.2,47.9z"/>
	<path d="M550.4,48c0-0.3,0-0.8,0-1.3s0.1-1,0.2-1.6s0.2-1.1,0.4-1.6s0.5-1,0.8-1.5s0.8-0.8,1.3-1c0.5-0.2,1.1-0.4,1.9-0.4
		c0.7,0,1.3,0.1,1.8,0.3c0.5,0.2,0.9,0.5,1.3,0.9c0.3,0.4,0.6,0.8,0.8,1.3s0.4,1,0.5,1.5s0.2,1,0.2,1.6s0.1,1,0.1,1.4
		c0,1.6-0.2,3-0.5,3.9c-0.3,1-0.8,1.8-1.4,2.4c-0.2,0.2-0.5,0.4-0.8,0.5s-0.5,0.2-0.8,0.3c-0.2,0.1-0.5,0.1-0.7,0.2
		c-0.2,0-0.4,0-0.6,0c-0.5,0-0.9-0.1-1.3-0.2c-0.4-0.1-0.7-0.3-1-0.5c-0.3-0.2-0.6-0.5-0.8-0.7c-0.2-0.3-0.4-0.6-0.6-0.9
		c-0.2-0.5-0.4-1-0.6-1.8C550.5,50.3,550.4,49.3,550.4,48z M552.3,47.9c0,0.8,0,1.5,0.1,2.2c0.1,0.7,0.2,1.2,0.4,1.7
		s0.5,0.9,0.8,1.2c0.3,0.3,0.8,0.4,1.3,0.4c0.6,0,1-0.2,1.4-0.5c0.4-0.3,0.6-0.8,0.8-1.3s0.3-1.1,0.4-1.8c0.1-0.6,0.1-1.3,0.1-1.9
		c0-0.8,0-1.6-0.1-2.3c-0.1-0.7-0.2-1.3-0.4-1.8s-0.5-0.9-0.8-1.2c-0.3-0.3-0.8-0.4-1.3-0.4c-0.6,0-1.1,0.2-1.5,0.5
		c-0.4,0.4-0.6,0.8-0.8,1.4c-0.2,0.5-0.3,1.2-0.4,1.8C552.3,46.7,552.3,47.3,552.3,47.9z"/>
	<path d="M561.5,48c0-0.3,0-0.8,0-1.3s0.1-1,0.2-1.6c0.1-0.5,0.2-1.1,0.4-1.6s0.5-1,0.8-1.5c0.3-0.4,0.8-0.8,1.3-1
		c0.5-0.3,1.1-0.4,1.9-0.4c0.7,0,1.3,0.1,1.8,0.3c0.5,0.2,0.9,0.5,1.3,0.9c0.3,0.4,0.6,0.8,0.8,1.3s0.4,1,0.5,1.5s0.2,1,0.2,1.6
		c0,0.5,0.1,1,0.1,1.4c0,1.6-0.2,3-0.5,3.9c-0.3,1-0.8,1.8-1.4,2.4c-0.2,0.2-0.5,0.4-0.8,0.5s-0.5,0.2-0.8,0.3
		c-0.2,0.1-0.5,0.1-0.7,0.2c-0.2,0-0.4,0-0.6,0c-0.5,0-0.9-0.1-1.3-0.2c-0.4-0.1-0.7-0.3-1-0.5c-0.3-0.2-0.6-0.5-0.8-0.7
		c-0.2-0.3-0.4-0.6-0.6-0.9c-0.2-0.5-0.4-1-0.6-1.8C561.5,50,561.5,49.3,561.5,48z M563.4,47.9c0,0.8,0,1.5,0.1,2.2
		c0.1,0.7,0.2,1.2,0.4,1.7s0.5,0.9,0.8,1.2c0.3,0.3,0.8,0.4,1.3,0.4c0.6,0,1-0.2,1.4-0.5c0.4-0.3,0.6-0.8,0.8-1.3s0.3-1.1,0.4-1.8
		c0.1-0.6,0.1-1.3,0.1-1.9c0-0.8,0-1.6-0.1-2.3c-0.1-0.7-0.2-1.3-0.4-1.8s-0.5-0.9-0.8-1.2c-0.3-0.3-0.8-0.4-1.3-0.4
		c-0.6,0-1.1,0.2-1.5,0.5c-0.4,0.4-0.6,0.8-0.8,1.4c-0.2,0.6-0.3,1.2-0.4,1.8C563.4,46.7,563.4,47.3,563.4,47.9z"/>
</g>
<g class="st1">
	<path d="M586.5,51.5c0,0.3,0.1,0.6,0.2,0.9c0.1,0.2,0.3,0.4,0.5,0.6c0.2,0.2,0.5,0.3,0.7,0.4c0.2,0.1,0.5,0.1,0.8,0.1
		c0.6,0,1.1-0.1,1.5-0.4c0.4-0.2,0.6-0.5,0.8-0.9s0.3-0.7,0.4-1c0.1-0.4,0.1-0.7,0.1-0.9c0-0.9-0.2-1.7-0.7-2.2s-1.1-0.8-1.9-0.8
		c-0.4,0-0.8,0.1-1.1,0.2c-0.3,0.1-0.6,0.3-0.8,0.5c-0.2,0.2-0.4,0.4-0.4,0.6c-0.1,0.2-0.1,0.4-0.2,0.5h-1.8l0.4-8.2h7.8v1.6h-6.1
		l-0.3,4.5c0.1-0.1,0.2-0.2,0.4-0.4c0.2-0.1,0.4-0.3,0.6-0.4c0.2-0.1,0.5-0.2,0.8-0.3s0.7-0.1,1.1-0.1c0.7,0,1.3,0.1,1.8,0.4
		c0.5,0.3,1,0.6,1.3,1s0.6,0.9,0.8,1.5c0.2,0.5,0.3,1.1,0.3,1.7c0,0.7-0.1,1.3-0.4,1.9c-0.3,0.6-0.6,1.1-1,1.5s-0.9,0.8-1.5,1
		c-0.6,0.2-1.3,0.4-2,0.4c-0.6,0-1.1-0.1-1.6-0.2c-0.5-0.2-0.9-0.4-1.3-0.7c-0.4-0.3-0.7-0.7-0.9-1.1c-0.2-0.4-0.3-1-0.4-1.6
		L586.5,51.5L586.5,51.5z"/>
	<path d="M595.3,48c0-0.3,0-0.8,0-1.3s0.1-1,0.2-1.6c0.1-0.5,0.2-1.1,0.4-1.6s0.5-1,0.8-1.5s0.8-0.8,1.3-1c0.5-0.3,1.1-0.4,1.9-0.4
		c0.7,0,1.3,0.1,1.8,0.3c0.5,0.2,0.9,0.5,1.3,0.9c0.3,0.4,0.6,0.8,0.8,1.3s0.4,1,0.5,1.5s0.2,1,0.2,1.6s0.1,1,0.1,1.4
		c0,1.6-0.2,3-0.5,3.9c-0.3,1-0.8,1.8-1.4,2.4c-0.2,0.2-0.5,0.4-0.8,0.5s-0.5,0.2-0.8,0.3c-0.2,0.1-0.5,0.1-0.7,0.2
		c-0.2,0-0.4,0-0.6,0c-0.5,0-0.9-0.1-1.3-0.2c-0.4-0.1-0.7-0.3-1-0.5c-0.3-0.2-0.6-0.5-0.8-0.7c-0.2-0.3-0.4-0.6-0.6-0.9
		c-0.2-0.5-0.4-1-0.6-1.8C595.3,50,595.3,49.3,595.3,48z M597.2,47.9c0,0.8,0,1.5,0.1,2.2c0.1,0.7,0.2,1.2,0.4,1.7s0.5,0.9,0.8,1.2
		c0.3,0.3,0.8,0.4,1.3,0.4c0.6,0,1-0.2,1.4-0.5c0.4-0.3,0.6-0.8,0.8-1.3s0.3-1.1,0.4-1.8c0.1-0.6,0.1-1.3,0.1-1.9
		c0-0.8,0-1.6-0.1-2.3c-0.1-0.7-0.2-1.3-0.4-1.8s-0.5-0.9-0.8-1.2c-0.3-0.3-0.8-0.4-1.3-0.4c-0.6,0-1.1,0.2-1.5,0.5
		c-0.4,0.4-0.6,0.8-0.8,1.4c-0.2,0.5-0.3,1.2-0.4,1.8C597.2,46.7,597.2,47.3,597.2,47.9z"/>
	<path d="M606.4,48c0-0.3,0-0.8,0-1.3s0.1-1,0.2-1.6c0.1-0.5,0.2-1.1,0.4-1.6s0.5-1,0.8-1.5s0.8-0.8,1.3-1c0.5-0.3,1.1-0.4,1.9-0.4
		c0.7,0,1.3,0.1,1.8,0.3c0.5,0.2,0.9,0.5,1.3,0.9c0.3,0.4,0.6,0.8,0.8,1.3s0.4,1,0.5,1.5s0.2,1,0.2,1.6s0.1,1,0.1,1.4
		c0,1.6-0.2,3-0.5,3.9c-0.3,1-0.8,1.8-1.4,2.4c-0.2,0.2-0.5,0.4-0.8,0.5s-0.5,0.2-0.8,0.3c-0.2,0.1-0.5,0.1-0.7,0.2
		c-0.2,0-0.4,0-0.6,0c-0.5,0-0.9-0.1-1.3-0.2c-0.4-0.1-0.7-0.3-1-0.5c-0.3-0.2-0.6-0.5-0.8-0.7c-0.2-0.3-0.4-0.6-0.6-0.9
		c-0.2-0.5-0.4-1-0.6-1.8C606.4,50,606.4,49.3,606.4,48z M608.3,47.9c0,0.8,0,1.5,0.1,2.2c0.1,0.7,0.2,1.2,0.4,1.7s0.5,0.9,0.8,1.2
		c0.3,0.3,0.8,0.4,1.3,0.4c0.6,0,1-0.2,1.4-0.5c0.4-0.3,0.6-0.8,0.8-1.3s0.3-1.1,0.4-1.8c0.1-0.6,0.1-1.3,0.1-1.9
		c0-0.8,0-1.6-0.1-2.3c-0.1-0.7-0.2-1.3-0.4-1.8s-0.5-0.9-0.8-1.2c-0.3-0.3-0.8-0.4-1.3-0.4c-0.6,0-1.1,0.2-1.5,0.5
		c-0.4,0.4-0.6,0.8-0.8,1.4c-0.2,0.5-0.3,1.2-0.4,1.8C608.3,46.7,608.3,47.3,608.3,47.9z"/>
	<path d="M617.5,48c0-0.3,0-0.8,0-1.3s0.1-1,0.2-1.6c0.1-0.5,0.2-1.1,0.4-1.6s0.5-1,0.8-1.5s0.8-0.8,1.3-1c0.5-0.3,1.1-0.4,1.9-0.4
		c0.7,0,1.3,0.1,1.8,0.3c0.5,0.2,0.9,0.5,1.3,0.9s0.6,0.8,0.8,1.3s0.4,1,0.5,1.5s0.2,1,0.2,1.6s0.1,1,0.1,1.4c0,1.6-0.2,3-0.5,3.9
		c-0.3,1-0.8,1.8-1.4,2.4c-0.2,0.2-0.5,0.4-0.8,0.5s-0.5,0.2-0.8,0.3s-0.5,0.1-0.7,0.2c-0.2,0-0.4,0-0.6,0c-0.5,0-0.9-0.1-1.3-0.2
		c-0.4-0.1-0.7-0.3-1-0.5c-0.3-0.2-0.6-0.5-0.8-0.7c-0.2-0.3-0.4-0.6-0.6-0.9c-0.2-0.5-0.4-1-0.6-1.8
		C617.6,50.3,617.5,49.3,617.5,48z M619.4,47.9c0,0.8,0,1.5,0.1,2.2c0.1,0.7,0.2,1.2,0.4,1.7s0.5,0.9,0.8,1.2
		c0.3,0.3,0.8,0.4,1.3,0.4c0.6,0,1-0.2,1.4-0.5c0.4-0.3,0.6-0.8,0.8-1.3s0.3-1.1,0.4-1.8c0.1-0.6,0.1-1.3,0.1-1.9
		c0-0.8,0-1.6-0.1-2.3c-0.1-0.7-0.2-1.3-0.4-1.8s-0.5-0.9-0.8-1.2c-0.3-0.3-0.8-0.4-1.3-0.4c-0.6,0-1.1,0.2-1.5,0.5
		c-0.4,0.4-0.6,0.8-0.8,1.4c-0.2,0.6-0.3,1.2-0.4,1.8C619.5,46.7,619.4,47.3,619.4,47.9z"/>
</g>
<g class="st1">
	<path d="M644.4,44.2c0-0.4-0.1-0.7-0.2-1c-0.1-0.3-0.3-0.5-0.5-0.6s-0.4-0.3-0.7-0.3c-0.2-0.1-0.5-0.1-0.7-0.1
		c-1,0-1.7,0.4-2.2,1.3c-0.5,0.9-0.8,2.2-0.8,4.1c0.1-0.2,0.2-0.3,0.4-0.5c0.2-0.2,0.4-0.4,0.6-0.6s0.6-0.3,0.9-0.5
		c0.3-0.2,0.8-0.2,1.3-0.2c0.6,0,1.1,0.1,1.6,0.3c0.5,0.2,1,0.5,1.3,0.8c0.4,0.4,0.7,0.8,0.9,1.4c0.2,0.6,0.3,1.2,0.3,1.9
		c0,0.8-0.1,1.5-0.4,2.1c-0.3,0.6-0.6,1.1-1,1.5s-0.9,0.7-1.5,0.9c-0.6,0.2-1.1,0.3-1.7,0.3c-0.7,0-1.3-0.1-1.9-0.4
		s-1.1-0.6-1.5-1.1c-0.3-0.3-0.5-0.7-0.6-1.1c-0.2-0.4-0.3-0.8-0.4-1.3c-0.1-0.4-0.2-0.9-0.2-1.4s0-0.9,0-1.3c0-0.5,0-1,0.1-1.6
		s0.1-1.2,0.3-1.7c0.1-0.6,0.3-1.1,0.6-1.7c0.3-0.6,0.5-1,0.9-1.4s0.8-0.7,1.4-1c0.5-0.2,1.2-0.4,1.9-0.4c0.5,0,0.9,0,1.2,0.1
		c0.4,0.1,0.7,0.2,0.9,0.3c0.3,0.1,0.5,0.3,0.7,0.4c0.2,0.2,0.3,0.3,0.5,0.4c0.2,0.2,0.3,0.4,0.4,0.6c0.1,0.2,0.2,0.4,0.2,0.6
		s0.1,0.4,0.1,0.6s0,0.3,0,0.5L644.4,44.2L644.4,44.2z M642,53.6c0.3,0,0.6-0.1,0.9-0.2c0.3-0.1,0.6-0.3,0.9-0.6
		c0.3-0.3,0.5-0.6,0.6-1c0.2-0.4,0.2-0.9,0.2-1.4c0-0.2,0-0.5-0.1-0.9s-0.2-0.7-0.3-1c-0.2-0.3-0.4-0.6-0.8-0.8
		c-0.4-0.2-0.8-0.3-1.4-0.3c-0.5,0-0.9,0.1-1.2,0.3c-0.3,0.2-0.6,0.4-0.9,0.7c-0.2,0.3-0.4,0.6-0.5,1s-0.2,0.8-0.2,1.2
		c0,0.5,0.1,0.9,0.2,1.2c0.1,0.4,0.3,0.7,0.5,1c0.2,0.3,0.5,0.5,0.8,0.6C641.3,53.5,641.7,53.6,642,53.6z"/>
	<path d="M648.3,48c0-0.3,0-0.8,0-1.3s0.1-1,0.2-1.6c0.1-0.5,0.2-1.1,0.4-1.6s0.5-1,0.8-1.5s0.8-0.8,1.3-1c0.5-0.3,1.1-0.4,1.9-0.4
		c0.7,0,1.3,0.1,1.8,0.3c0.5,0.2,0.9,0.5,1.3,0.9c0.3,0.4,0.6,0.8,0.8,1.3s0.4,1,0.5,1.5s0.2,1,0.2,1.6s0.1,1,0.1,1.4
		c0,1.6-0.2,3-0.5,3.9c-0.3,1-0.8,1.8-1.4,2.4c-0.2,0.2-0.5,0.4-0.8,0.5s-0.5,0.2-0.8,0.3c-0.2,0.1-0.5,0.1-0.7,0.2
		c-0.2,0-0.4,0-0.6,0c-0.5,0-0.9-0.1-1.3-0.2c-0.4-0.1-0.7-0.3-1-0.5c-0.3-0.2-0.6-0.5-0.8-0.7c-0.2-0.3-0.4-0.6-0.6-0.9
		c-0.2-0.5-0.4-1-0.6-1.8C648.3,50,648.3,49.3,648.3,48z M650.2,47.9c0,0.8,0,1.5,0.1,2.2c0.1,0.7,0.2,1.2,0.4,1.7s0.5,0.9,0.8,1.2
		c0.3,0.3,0.8,0.4,1.3,0.4c0.6,0,1-0.2,1.4-0.5c0.4-0.3,0.6-0.8,0.8-1.3s0.3-1.1,0.4-1.8c0.1-0.6,0.1-1.3,0.1-1.9
		c0-0.8,0-1.6-0.1-2.3c-0.1-0.7-0.2-1.3-0.4-1.8s-0.5-0.9-0.8-1.2c-0.3-0.3-0.8-0.4-1.3-0.4c-0.6,0-1.1,0.2-1.5,0.5
		c-0.4,0.4-0.6,0.8-0.8,1.4c-0.2,0.5-0.3,1.2-0.4,1.8C650.2,46.7,650.2,47.3,650.2,47.9z"/>
	<path d="M659.4,48c0-0.3,0-0.8,0-1.3s0.1-1,0.2-1.6c0.1-0.5,0.2-1.1,0.4-1.6s0.5-1,0.8-1.5s0.8-0.8,1.3-1c0.5-0.3,1.1-0.4,1.9-0.4
		c0.7,0,1.3,0.1,1.8,0.3c0.5,0.2,0.9,0.5,1.3,0.9c0.3,0.4,0.6,0.8,0.8,1.3s0.4,1,0.5,1.5s0.2,1,0.2,1.6s0.1,1,0.1,1.4
		c0,1.6-0.2,3-0.5,3.9c-0.3,1-0.8,1.8-1.4,2.4c-0.2,0.2-0.5,0.4-0.8,0.5s-0.5,0.2-0.8,0.3c-0.2,0.1-0.5,0.1-0.7,0.2
		c-0.2,0-0.4,0-0.6,0c-0.5,0-0.9-0.1-1.3-0.2c-0.4-0.1-0.7-0.3-1-0.5c-0.3-0.2-0.6-0.5-0.8-0.7c-0.2-0.3-0.4-0.6-0.6-0.9
		c-0.2-0.5-0.4-1-0.6-1.8C659.4,50,659.4,49.3,659.4,48z M661.3,47.9c0,0.8,0,1.5,0.1,2.2c0.1,0.7,0.2,1.2,0.4,1.7s0.5,0.9,0.8,1.2
		c0.3,0.3,0.8,0.4,1.3,0.4c0.6,0,1-0.2,1.4-0.5c0.4-0.3,0.6-0.8,0.8-1.3s0.3-1.1,0.4-1.8c0.1-0.6,0.1-1.3,0.1-1.9
		c0-0.8,0-1.6-0.1-2.3c-0.1-0.7-0.2-1.3-0.4-1.8s-0.5-0.9-0.8-1.2c-0.3-0.3-0.8-0.4-1.3-0.4c-0.6,0-1.1,0.2-1.5,0.5
		c-0.4,0.4-0.6,0.8-0.8,1.4c-0.2,0.5-0.3,1.2-0.4,1.8C661.3,46.7,661.3,47.3,661.3,47.9z"/>
	<path d="M670.5,48c0-0.3,0-0.8,0-1.3s0.1-1,0.2-1.6c0.1-0.5,0.2-1.1,0.4-1.6s0.5-1,0.8-1.5s0.8-0.8,1.3-1c0.5-0.3,1.1-0.4,1.9-0.4
		c0.7,0,1.3,0.1,1.8,0.3c0.5,0.2,0.9,0.5,1.3,0.9s0.6,0.8,0.8,1.3s0.4,1,0.5,1.5s0.2,1,0.2,1.6s0.1,1,0.1,1.4c0,1.6-0.2,3-0.5,3.9
		c-0.3,1-0.8,1.8-1.4,2.4c-0.2,0.2-0.5,0.4-0.8,0.5s-0.5,0.2-0.8,0.3s-0.5,0.1-0.7,0.2c-0.2,0-0.4,0-0.6,0c-0.5,0-0.9-0.1-1.3-0.2
		c-0.4-0.1-0.7-0.3-1-0.5c-0.3-0.2-0.6-0.5-0.8-0.7c-0.2-0.3-0.4-0.6-0.6-0.9c-0.2-0.5-0.4-1-0.6-1.8
		C670.6,50.3,670.5,49.3,670.5,48z M672.4,47.9c0,0.8,0,1.5,0.1,2.2c0.1,0.7,0.2,1.2,0.4,1.7s0.5,0.9,0.8,1.2
		c0.3,0.3,0.8,0.4,1.3,0.4c0.6,0,1-0.2,1.4-0.5c0.4-0.3,0.6-0.8,0.8-1.3s0.3-1.1,0.4-1.8c0.1-0.6,0.1-1.3,0.1-1.9
		c0-0.8,0-1.6-0.1-2.3c-0.1-0.7-0.2-1.3-0.4-1.8s-0.5-0.9-0.8-1.2c-0.3-0.3-0.8-0.4-1.3-0.4c-0.6,0-1.1,0.2-1.5,0.5
		c-0.4,0.4-0.6,0.8-0.8,1.4c-0.2,0.6-0.3,1.2-0.4,1.8C672.5,46.7,672.4,47.3,672.4,47.9z"/>
</g>
<g class="st1">
	<path d="M737.6,110.2h2.1l5.8,14.4h-2.2l-1.6-3.8H735l-1.6,3.8h-2.1L737.6,110.2z M735.8,119.3h5.5l-2.7-7.1L735.8,119.3z"/>
	<path d="M749.4,125.4c0,0.3,0.1,0.5,0.1,0.8c0.1,0.2,0.2,0.4,0.4,0.6c0.2,0.2,0.4,0.3,0.7,0.4c0.3,0.1,0.7,0.2,1.1,0.2
		c0.7,0,1.2-0.1,1.5-0.3c0.4-0.2,0.6-0.5,0.8-1c0.2-0.4,0.3-0.9,0.3-1.5s0.1-1.2,0.1-1.9c-0.2,0.4-0.5,0.7-0.8,1s-0.6,0.4-1,0.5
		c-0.3,0.1-0.6,0.2-0.9,0.2c-0.3,0-0.5,0-0.7,0s-0.5,0-0.8-0.1c-0.3,0-0.5-0.1-0.8-0.2s-0.5-0.2-0.8-0.4c-0.3-0.2-0.5-0.4-0.7-0.6
		c-0.4-0.5-0.7-1.1-0.9-1.7s-0.2-1.3-0.2-2c0-0.9,0.1-1.6,0.4-2.2c0.2-0.6,0.6-1.2,1-1.6s0.9-0.7,1.4-0.9c0.5-0.2,1.1-0.3,1.7-0.3
		c0.5,0,0.9,0.1,1.3,0.2c0.4,0.1,0.7,0.2,0.9,0.4c0.2,0.2,0.4,0.3,0.6,0.5c0.1,0.2,0.3,0.3,0.4,0.5v-1.4h1.8v1.8v6.3
		c0,0.6,0,1.1,0,1.6c0,0.4,0,0.8-0.1,1.1c0,0.3-0.1,0.6-0.1,0.8c-0.1,0.2-0.1,0.4-0.2,0.6c-0.2,0.4-0.5,0.7-0.8,1
		c-0.3,0.2-0.7,0.4-1.1,0.5c-0.4,0.1-0.8,0.2-1.2,0.2s-0.8,0.1-1.1,0.1c-0.7,0-1.2,0-1.7-0.1s-0.9-0.2-1.2-0.4
		c-0.3-0.2-0.5-0.4-0.7-0.6c-0.2-0.2-0.3-0.5-0.4-0.7c-0.1-0.2-0.2-0.5-0.2-0.7s0-0.5-0.1-0.7L749.4,125.4L749.4,125.4z
		 M751.6,123.1c0.6,0,1-0.1,1.3-0.3c0.3-0.2,0.6-0.4,0.8-0.7c0.1-0.1,0.2-0.3,0.3-0.4s0.2-0.3,0.2-0.5c0.1-0.2,0.1-0.5,0.1-0.8
		s0-0.7,0-1.1c0-0.6-0.1-1.2-0.2-1.5s-0.3-0.7-0.6-1s-0.6-0.5-0.9-0.6c-0.4-0.2-0.8-0.2-1.2-0.2c-0.6,0-1.1,0.1-1.4,0.4
		c-0.4,0.3-0.6,0.6-0.8,1s-0.3,0.8-0.4,1.2c-0.1,0.4-0.1,0.8-0.1,1.1c0,0.4,0,0.8,0.1,1.2s0.2,0.8,0.4,1.2s0.5,0.6,0.8,0.9
		C750.5,122.9,751,123.1,751.6,123.1z"/>
	<path d="M760.9,120c0,0.5,0,1,0.1,1.4s0.3,0.8,0.5,1.2c0.2,0.3,0.5,0.6,0.9,0.8s0.8,0.3,1.3,0.3c0.6,0,1.1-0.2,1.6-0.5
		c0.4-0.3,0.7-0.9,0.8-1.6h1.9c0,0.3-0.1,0.6-0.2,0.9c-0.1,0.4-0.3,0.8-0.7,1.2c-0.1,0.1-0.3,0.3-0.4,0.4s-0.4,0.3-0.7,0.4
		s-0.6,0.2-1,0.3c-0.4,0.1-0.8,0.1-1.3,0.1c-1.6,0-2.8-0.5-3.5-1.4s-1.1-2.2-1.1-3.8c0-1,0.1-1.9,0.4-2.7c0.3-0.8,0.8-1.5,1.6-2
		c0.2-0.2,0.5-0.3,0.8-0.4s0.5-0.2,0.8-0.2c0.2-0.1,0.5-0.1,0.7-0.1s0.4,0,0.5,0c0.7,0,1.4,0.1,1.9,0.3s0.9,0.5,1.2,0.8
		s0.6,0.7,0.7,1.1c0.2,0.4,0.3,0.8,0.4,1.2c0.1,0.4,0.1,0.8,0.1,1.2s0,0.7,0,1L760.9,120L760.9,120z M766.2,118.6
		c0-0.2,0-0.5-0.1-0.9s-0.1-0.7-0.3-1s-0.4-0.6-0.8-0.8c-0.3-0.2-0.8-0.3-1.4-0.3c-0.3,0-0.6,0-0.9,0.2c-0.3,0.1-0.6,0.3-0.9,0.5
		c-0.3,0.2-0.5,0.5-0.7,0.9s-0.3,0.8-0.3,1.4C760.8,118.6,766.2,118.6,766.2,118.6z"/>
	<path d="M775.7,122.8l3.6-3.6c0.4-0.4,0.8-0.8,1.1-1.2c0.4-0.4,0.7-0.8,1-1.2c0.4-0.5,0.7-1,0.8-1.4s0.2-0.7,0.2-1.1
		c0-0.2,0-0.4-0.1-0.6c0-0.3-0.1-0.5-0.3-0.7s-0.4-0.4-0.7-0.6s-0.7-0.3-1.2-0.3c-0.6,0-1,0.1-1.3,0.3s-0.5,0.4-0.7,0.7
		s-0.2,0.5-0.3,0.8s0,0.5,0,0.6h-2.1c0-0.2,0-0.4,0-0.6s0.1-0.5,0.2-0.8c0.1-0.3,0.2-0.5,0.4-0.8s0.4-0.6,0.7-0.8
		c0.5-0.4,1-0.7,1.5-0.8c0.5-0.1,1-0.2,1.5-0.2s1.1,0.1,1.6,0.2s1,0.4,1.4,0.7c0.4,0.3,0.7,0.7,1,1.2c0.2,0.5,0.4,1.1,0.4,1.9
		c0,0.2,0,0.4,0,0.6s-0.1,0.4-0.2,0.7s-0.3,0.6-0.5,0.9s-0.5,0.7-0.9,1.2c-0.1,0.1-0.3,0.3-0.5,0.6c-0.2,0.3-0.5,0.5-0.8,0.8
		s-0.5,0.5-0.8,0.8c-0.2,0.3-0.4,0.4-0.5,0.5l-2.4,2.3h6.6v1.6h-8.8L775.7,122.8L775.7,122.8z"/>
	<path d="M786.7,117.9c0-0.3,0-0.8,0-1.3s0.1-1,0.2-1.6s0.2-1.1,0.4-1.6s0.5-1,0.8-1.5s0.8-0.8,1.3-1s1.1-0.4,1.9-0.4
		c0.7,0,1.3,0.1,1.8,0.3c0.5,0.2,0.9,0.5,1.3,0.9c0.3,0.4,0.6,0.8,0.8,1.3s0.4,1,0.5,1.5s0.2,1,0.2,1.6s0.1,1,0.1,1.4
		c0,1.6-0.2,3-0.5,3.9c-0.3,1-0.8,1.8-1.4,2.4c-0.2,0.2-0.5,0.4-0.8,0.5s-0.5,0.2-0.8,0.3c-0.2,0.1-0.5,0.1-0.7,0.2
		c-0.2,0-0.4,0-0.6,0c-0.5,0-0.9-0.1-1.3-0.2c-0.4-0.1-0.7-0.3-1-0.5s-0.6-0.5-0.8-0.7c-0.2-0.3-0.4-0.6-0.6-0.9
		c-0.2-0.5-0.4-1-0.6-1.8C786.8,120.1,786.7,119.1,786.7,117.9z M788.6,117.8c0,0.8,0,1.5,0.1,2.2s0.2,1.2,0.4,1.7s0.5,0.9,0.8,1.2
		c0.3,0.3,0.8,0.4,1.3,0.4c0.6,0,1-0.2,1.4-0.5s0.6-0.8,0.8-1.3s0.3-1.1,0.4-1.8c0.1-0.6,0.1-1.3,0.1-1.9c0-0.8,0-1.6-0.1-2.3
		s-0.2-1.3-0.4-1.8s-0.5-0.9-0.8-1.2c-0.3-0.3-0.8-0.4-1.3-0.4c-0.6,0-1.1,0.2-1.5,0.5c-0.4,0.4-0.6,0.8-0.8,1.4
		c-0.2,0.5-0.3,1.2-0.4,1.8C788.7,116.5,788.6,117.2,788.6,117.8z"/>
</g>
<g class="st1">
	<path d="M737.6,231.8h2.1l5.8,14.4h-2.2l-1.6-3.8H735l-1.6,3.8h-2.1L737.6,231.8z M735.8,240.9h5.5l-2.7-7.1L735.8,240.9z"/>
	<path d="M749.4,247c0,0.3,0.1,0.5,0.1,0.8c0.1,0.2,0.2,0.4,0.4,0.6c0.2,0.2,0.4,0.3,0.7,0.4c0.3,0.1,0.7,0.2,1.1,0.2
		c0.7,0,1.2-0.1,1.5-0.3c0.4-0.2,0.6-0.5,0.8-1c0.2-0.4,0.3-0.9,0.3-1.5s0.1-1.2,0.1-1.9c-0.2,0.4-0.5,0.7-0.8,1s-0.6,0.4-1,0.5
		c-0.3,0.1-0.6,0.2-0.9,0.2c-0.3,0-0.5,0-0.7,0s-0.5,0-0.8-0.1c-0.3,0-0.5-0.1-0.8-0.2c-0.3-0.1-0.5-0.2-0.8-0.4s-0.5-0.4-0.7-0.6
		c-0.4-0.5-0.7-1.1-0.9-1.7c-0.2-0.6-0.2-1.3-0.2-2c0-0.9,0.1-1.6,0.4-2.2c0.2-0.6,0.6-1.2,1-1.6s0.9-0.7,1.4-0.9s1.1-0.3,1.7-0.3
		c0.5,0,0.9,0.1,1.3,0.2c0.4,0.1,0.7,0.2,0.9,0.4s0.4,0.3,0.6,0.5c0.1,0.2,0.3,0.3,0.4,0.5v-1.4h1.8v1.8v6.3c0,0.6,0,1.1,0,1.6
		c0,0.4,0,0.8-0.1,1.1c0,0.3-0.1,0.6-0.1,0.8c-0.1,0.2-0.1,0.4-0.2,0.6c-0.2,0.4-0.5,0.7-0.8,1c-0.3,0.2-0.7,0.4-1.1,0.5
		c-0.4,0.1-0.8,0.2-1.2,0.2s-0.8,0.1-1.1,0.1c-0.7,0-1.2,0-1.7-0.1s-0.9-0.2-1.2-0.4s-0.5-0.4-0.7-0.6c-0.2-0.2-0.3-0.5-0.4-0.7
		c-0.1-0.2-0.2-0.5-0.2-0.7s0-0.5-0.1-0.7L749.4,247L749.4,247z M751.6,244.7c0.6,0,1-0.1,1.3-0.3s0.6-0.4,0.8-0.7
		c0.1-0.1,0.2-0.3,0.3-0.4s0.2-0.3,0.2-0.5c0.1-0.2,0.1-0.5,0.1-0.8s0-0.7,0-1.1c0-0.6-0.1-1.2-0.2-1.5s-0.3-0.7-0.6-1
		s-0.6-0.5-0.9-0.6c-0.4-0.2-0.8-0.2-1.2-0.2c-0.6,0-1.1,0.1-1.4,0.4c-0.4,0.3-0.6,0.6-0.8,1s-0.3,0.8-0.4,1.2
		c-0.1,0.4-0.1,0.8-0.1,1.1c0,0.4,0,0.8,0.1,1.2s0.2,0.8,0.4,1.2s0.5,0.6,0.8,0.9C750.5,244.6,751,244.7,751.6,244.7z"/>
	<path d="M760.9,241.6c0,0.5,0,1,0.1,1.4s0.3,0.8,0.5,1.2c0.2,0.3,0.5,0.6,0.9,0.8s0.8,0.3,1.3,0.3c0.6,0,1.1-0.2,1.6-0.5
		c0.4-0.3,0.7-0.9,0.8-1.6h1.9c0,0.3-0.1,0.6-0.2,0.9c-0.1,0.4-0.3,0.8-0.7,1.2c-0.1,0.1-0.3,0.3-0.4,0.4s-0.4,0.3-0.7,0.4
		c-0.3,0.1-0.6,0.2-1,0.3s-0.8,0.1-1.3,0.1c-1.6,0-2.8-0.5-3.5-1.4s-1.1-2.2-1.1-3.8c0-1,0.1-1.9,0.4-2.7c0.3-0.8,0.8-1.5,1.6-2
		c0.2-0.2,0.5-0.3,0.8-0.4c0.3-0.1,0.5-0.2,0.8-0.2c0.2-0.1,0.5-0.1,0.7-0.1s0.4,0,0.5,0c0.7,0,1.4,0.1,1.9,0.3s0.9,0.5,1.2,0.8
		s0.6,0.7,0.7,1.1c0.2,0.4,0.3,0.8,0.4,1.2c0.1,0.4,0.1,0.8,0.1,1.2s0,0.7,0,1h-7.3V241.6z M766.2,240.2c0-0.2,0-0.5-0.1-0.9
		s-0.1-0.7-0.3-1s-0.4-0.6-0.8-0.8c-0.3-0.2-0.8-0.3-1.4-0.3c-0.3,0-0.6,0-0.9,0.2c-0.3,0.1-0.6,0.3-0.9,0.5
		c-0.3,0.2-0.5,0.5-0.7,0.9s-0.3,0.8-0.3,1.4L766.2,240.2L766.2,240.2z"/>
	<path d="M777.9,243c0,0.3,0.1,0.6,0.2,0.9c0.1,0.2,0.3,0.4,0.5,0.6s0.5,0.3,0.7,0.4c0.3,0.1,0.5,0.1,0.8,0.1c0.6,0,1.1-0.1,1.4-0.4
		c0.4-0.2,0.6-0.5,0.8-0.9c0.2-0.3,0.3-0.7,0.4-1s0.1-0.7,0.1-0.9c0-0.9-0.2-1.7-0.7-2.2s-1.1-0.8-1.9-0.8c-0.4,0-0.8,0.1-1.1,0.2
		c-0.3,0.1-0.6,0.3-0.8,0.5s-0.4,0.4-0.4,0.6c-0.1,0.2-0.1,0.4-0.2,0.5h-1.8l0.4-8.2h7.8v1.6H778l-0.3,4.5c0.1-0.1,0.2-0.2,0.4-0.4
		c0.2-0.1,0.4-0.3,0.6-0.4c0.2-0.1,0.5-0.2,0.8-0.3s0.7-0.1,1.1-0.1c0.7,0,1.3,0.1,1.8,0.4c0.5,0.3,1,0.6,1.3,1s0.6,0.9,0.8,1.5
		c0.2,0.5,0.3,1.1,0.3,1.7c0,0.7-0.1,1.3-0.3,1.9c-0.2,0.6-0.6,1.1-1,1.5s-0.9,0.8-1.6,1c-0.6,0.2-1.3,0.4-2,0.4
		c-0.6,0-1.1-0.1-1.6-0.2c-0.5-0.2-0.9-0.4-1.3-0.7s-0.7-0.7-0.9-1.1c-0.2-0.5-0.3-1-0.4-1.6h2.2V243z"/>
	<path d="M786.7,239.5c0-0.3,0-0.8,0-1.3s0.1-1,0.2-1.6s0.2-1.1,0.4-1.6s0.5-1,0.8-1.5s0.8-0.8,1.3-1s1.1-0.4,1.9-0.4
		c0.7,0,1.3,0.1,1.8,0.3s0.9,0.5,1.3,0.9c0.3,0.4,0.6,0.8,0.8,1.3s0.4,1,0.5,1.5s0.2,1,0.2,1.6s0.1,1,0.1,1.4c0,1.6-0.2,3-0.5,3.9
		c-0.3,1-0.8,1.8-1.4,2.4c-0.2,0.2-0.5,0.4-0.8,0.5s-0.5,0.2-0.8,0.3c-0.2,0.1-0.5,0.1-0.7,0.2c-0.2,0-0.4,0-0.6,0
		c-0.5,0-0.9-0.1-1.3-0.2c-0.4-0.1-0.7-0.3-1-0.5s-0.6-0.5-0.8-0.7c-0.2-0.3-0.4-0.6-0.6-0.9c-0.2-0.5-0.4-1-0.6-1.8
		C786.8,241.7,786.7,240.7,786.7,239.5z M788.6,239.4c0,0.8,0,1.5,0.1,2.2s0.2,1.2,0.4,1.7s0.5,0.9,0.8,1.2s0.8,0.4,1.3,0.4
		c0.6,0,1-0.2,1.4-0.5s0.6-0.8,0.8-1.3s0.3-1.1,0.4-1.8c0.1-0.6,0.1-1.3,0.1-1.9c0-0.8,0-1.6-0.1-2.3s-0.2-1.3-0.4-1.8
		s-0.5-0.9-0.8-1.2s-0.8-0.4-1.3-0.4c-0.6,0-1.1,0.2-1.5,0.5c-0.4,0.4-0.6,0.8-0.8,1.4c-0.2,0.5-0.3,1.2-0.4,1.8
		C788.7,238.1,788.6,238.8,788.6,239.4z"/>
</g>
<g class="st1">
	<path d="M737.6,286.9h2.1l5.8,14.4h-2.2l-1.6-3.8H735l-1.6,3.8h-2.1L737.6,286.9z M735.8,296h5.5l-2.7-7.1L735.8,296z"/>
	<path d="M749.4,302.2c0,0.3,0.1,0.5,0.1,0.8c0.1,0.2,0.2,0.4,0.4,0.6s0.4,0.3,0.7,0.4s0.7,0.2,1.1,0.2c0.7,0,1.2-0.1,1.5-0.3
		c0.4-0.2,0.6-0.5,0.8-1c0.2-0.4,0.3-0.9,0.3-1.5s0.1-1.2,0.1-1.9c-0.2,0.4-0.5,0.7-0.8,1s-0.6,0.4-1,0.5c-0.3,0.1-0.6,0.2-0.9,0.2
		c-0.3,0-0.5,0-0.7,0s-0.5,0-0.8-0.1c-0.3,0-0.5-0.1-0.8-0.2s-0.5-0.2-0.8-0.4c-0.3-0.2-0.5-0.4-0.7-0.6c-0.4-0.5-0.7-1.1-0.9-1.7
		s-0.2-1.3-0.2-2c0-0.9,0.1-1.6,0.4-2.2c0.2-0.6,0.6-1.2,1-1.6s0.9-0.7,1.4-0.9c0.5-0.2,1.1-0.3,1.7-0.3c0.5,0,0.9,0.1,1.3,0.2
		c0.4,0.1,0.7,0.2,0.9,0.4c0.2,0.2,0.4,0.3,0.6,0.5c0.1,0.2,0.3,0.3,0.4,0.5v-1.4h1.8v1.8v6.3c0,0.6,0,1.1,0,1.6
		c0,0.4,0,0.8-0.1,1.1c0,0.3-0.1,0.6-0.1,0.8c-0.1,0.2-0.1,0.4-0.2,0.6c-0.2,0.4-0.5,0.7-0.8,1c-0.3,0.2-0.7,0.4-1.1,0.5
		c-0.4,0.1-0.8,0.2-1.2,0.2s-0.8,0.1-1.1,0.1c-0.7,0-1.2,0-1.7-0.1s-0.9-0.2-1.2-0.4c-0.3-0.2-0.5-0.4-0.7-0.6s-0.3-0.5-0.4-0.7
		c-0.1-0.2-0.2-0.5-0.2-0.7s0-0.5-0.1-0.7L749.4,302.2L749.4,302.2z M751.6,299.8c0.6,0,1-0.1,1.3-0.3c0.3-0.2,0.6-0.4,0.8-0.7
		c0.1-0.1,0.2-0.3,0.3-0.4s0.2-0.3,0.2-0.5c0.1-0.2,0.1-0.5,0.1-0.8s0-0.7,0-1.1c0-0.6-0.1-1.2-0.2-1.5s-0.3-0.7-0.6-1
		s-0.6-0.5-0.9-0.6c-0.4-0.2-0.8-0.2-1.2-0.2c-0.6,0-1.1,0.1-1.4,0.4c-0.4,0.3-0.6,0.6-0.8,1s-0.3,0.8-0.4,1.2
		c-0.1,0.4-0.1,0.8-0.1,1.1c0,0.4,0,0.8,0.1,1.2s0.2,0.8,0.4,1.2s0.5,0.6,0.8,0.9C750.5,299.7,751,299.8,751.6,299.8z"/>
	<path d="M760.9,296.7c0,0.5,0,1,0.1,1.4s0.3,0.8,0.5,1.2c0.2,0.3,0.5,0.6,0.9,0.8s0.8,0.3,1.3,0.3c0.6,0,1.1-0.2,1.6-0.5
		c0.4-0.3,0.7-0.9,0.8-1.6h1.9c0,0.3-0.1,0.6-0.2,0.9c-0.1,0.4-0.3,0.8-0.7,1.2c-0.1,0.1-0.3,0.3-0.4,0.4s-0.4,0.3-0.7,0.4
		s-0.6,0.2-1,0.3c-0.4,0.1-0.8,0.1-1.3,0.1c-1.6,0-2.8-0.5-3.5-1.4s-1.1-2.2-1.1-3.8c0-1,0.1-1.9,0.4-2.7c0.3-0.8,0.8-1.5,1.6-2
		c0.2-0.2,0.5-0.3,0.8-0.4s0.5-0.2,0.8-0.2c0.2-0.1,0.5-0.1,0.7-0.1s0.4,0,0.5,0c0.7,0,1.4,0.1,1.9,0.3s0.9,0.5,1.2,0.8
		s0.6,0.7,0.7,1.1c0.2,0.4,0.3,0.8,0.4,1.2c0.1,0.4,0.1,0.8,0.1,1.2s0,0.7,0,1h-7.3V296.7z M766.2,295.4c0-0.2,0-0.5-0.1-0.9
		s-0.1-0.7-0.3-1s-0.4-0.6-0.8-0.8c-0.3-0.2-0.8-0.3-1.4-0.3c-0.3,0-0.6,0-0.9,0.2c-0.3,0.1-0.6,0.3-0.9,0.5
		c-0.3,0.2-0.5,0.5-0.7,0.9s-0.3,0.8-0.3,1.4L766.2,295.4L766.2,295.4z"/>
	<path d="M782.8,290.8c0-0.4-0.1-0.7-0.2-1c-0.1-0.3-0.3-0.5-0.5-0.6c-0.2-0.2-0.4-0.3-0.7-0.3c-0.2-0.1-0.5-0.1-0.7-0.1
		c-1,0-1.7,0.4-2.2,1.3s-0.8,2.2-0.9,4.1c0.1-0.2,0.2-0.3,0.4-0.5s0.4-0.4,0.6-0.6c0.3-0.2,0.6-0.3,0.9-0.5c0.4-0.1,0.8-0.2,1.3-0.2
		c0.6,0,1.1,0.1,1.6,0.3c0.5,0.2,1,0.5,1.3,0.8c0.4,0.4,0.7,0.8,0.9,1.4s0.3,1.2,0.3,1.9c0,0.8-0.1,1.5-0.4,2.1s-0.6,1.1-1,1.5
		s-0.9,0.7-1.5,0.9s-1.1,0.3-1.7,0.3c-0.7,0-1.3-0.1-1.9-0.4s-1.1-0.6-1.5-1.1c-0.3-0.3-0.5-0.7-0.6-1.1c-0.2-0.4-0.3-0.8-0.4-1.3
		c-0.1-0.4-0.2-0.9-0.2-1.4s0-0.9,0-1.3c0-0.5,0-1,0.1-1.6s0.1-1.2,0.3-1.7c0.1-0.6,0.3-1.1,0.6-1.7s0.6-1,0.9-1.4
		c0.4-0.4,0.8-0.7,1.4-1c0.5-0.2,1.2-0.4,1.9-0.4c0.5,0,0.9,0,1.2,0.1c0.4,0.1,0.7,0.2,0.9,0.3c0.3,0.1,0.5,0.3,0.7,0.4
		c0.2,0.2,0.3,0.3,0.5,0.4c0.2,0.2,0.3,0.4,0.4,0.6c0.1,0.2,0.2,0.4,0.2,0.6s0.1,0.4,0.1,0.6s0,0.3,0,0.5h-2.1V290.8z M780.5,300.2
		c0.3,0,0.6-0.1,0.9-0.2c0.3-0.1,0.6-0.3,0.9-0.6c0.3-0.3,0.5-0.6,0.6-1c0.2-0.4,0.2-0.9,0.2-1.4c0-0.2,0-0.5-0.1-0.9
		s-0.2-0.7-0.3-1c-0.2-0.3-0.4-0.6-0.8-0.8s-0.8-0.3-1.4-0.3c-0.5,0-0.9,0.1-1.2,0.3c-0.3,0.2-0.6,0.4-0.9,0.7
		c-0.2,0.3-0.4,0.6-0.5,1s-0.2,0.8-0.2,1.2c0,0.5,0.1,0.9,0.2,1.2s0.3,0.7,0.5,1s0.5,0.5,0.8,0.6
		C779.7,300.1,780.1,300.2,780.5,300.2z"/>
	<path d="M786.7,294.6c0-0.3,0-0.8,0-1.3s0.1-1,0.2-1.6s0.2-1.1,0.4-1.6s0.5-1,0.8-1.5s0.8-0.8,1.3-1s1.1-0.4,1.9-0.4
		c0.7,0,1.3,0.1,1.8,0.3c0.5,0.2,0.9,0.5,1.3,0.9c0.3,0.4,0.6,0.8,0.8,1.3s0.4,1,0.5,1.5s0.2,1,0.2,1.6s0.1,1,0.1,1.4
		c0,1.6-0.2,3-0.5,3.9c-0.3,1-0.8,1.8-1.4,2.4c-0.2,0.2-0.5,0.4-0.8,0.5s-0.5,0.2-0.8,0.3c-0.2,0.1-0.5,0.1-0.7,0.2
		c-0.2,0-0.4,0-0.6,0c-0.5,0-0.9-0.1-1.3-0.2c-0.4-0.1-0.7-0.3-1-0.5s-0.6-0.5-0.8-0.7c-0.2-0.3-0.4-0.6-0.6-0.9
		c-0.2-0.5-0.4-1-0.6-1.8C786.8,296.8,786.7,295.9,786.7,294.6z M788.6,294.5c0,0.8,0,1.5,0.1,2.2s0.2,1.2,0.4,1.7s0.5,0.9,0.8,1.2
		c0.3,0.3,0.8,0.4,1.3,0.4c0.6,0,1-0.2,1.4-0.5s0.6-0.8,0.8-1.3s0.3-1.1,0.4-1.8c0.1-0.6,0.1-1.3,0.1-1.9c0-0.8,0-1.6-0.1-2.3
		s-0.2-1.3-0.4-1.8s-0.5-0.9-0.8-1.2c-0.3-0.3-0.8-0.4-1.3-0.4c-0.6,0-1.1,0.2-1.5,0.5c-0.4,0.4-0.6,0.8-0.8,1.4
		c-0.2,0.5-0.3,1.2-0.4,1.8C788.7,293.3,788.6,293.9,788.6,294.5z"/>
</g>
<g class="st1">
	<path d="M737.6,384.3h2.1l5.8,14.4h-2.2l-1.6-3.8H735l-1.6,3.8h-2.1L737.6,384.3z M735.8,393.4h5.5l-2.7-7.1L735.8,393.4z"/>
	<path d="M749.4,399.5c0,0.3,0.1,0.5,0.1,0.8c0.1,0.2,0.2,0.4,0.4,0.6s0.4,0.3,0.7,0.4s0.7,0.2,1.1,0.2c0.7,0,1.2-0.1,1.5-0.3
		c0.4-0.2,0.6-0.5,0.8-1c0.2-0.4,0.3-0.9,0.3-1.5s0.1-1.2,0.1-1.9c-0.2,0.4-0.5,0.7-0.8,1s-0.6,0.4-1,0.5c-0.3,0.1-0.6,0.2-0.9,0.2
		c-0.3,0-0.5,0-0.7,0s-0.5,0-0.8-0.1c-0.3,0-0.5-0.1-0.8-0.2s-0.5-0.2-0.8-0.4c-0.3-0.2-0.5-0.4-0.7-0.6c-0.4-0.5-0.7-1.1-0.9-1.7
		s-0.2-1.3-0.2-2c0-0.9,0.1-1.6,0.4-2.2c0.2-0.6,0.6-1.2,1-1.6s0.9-0.7,1.4-0.9c0.5-0.2,1.1-0.3,1.7-0.3c0.5,0,0.9,0.1,1.3,0.2
		c0.4,0.1,0.7,0.2,0.9,0.4c0.2,0.2,0.4,0.3,0.6,0.5c0.1,0.2,0.3,0.3,0.4,0.5v-1.4h1.8v1.8v6.3c0,0.6,0,1.1,0,1.6
		c0,0.4,0,0.8-0.1,1.1c0,0.3-0.1,0.6-0.1,0.8c-0.1,0.2-0.1,0.4-0.2,0.6c-0.2,0.4-0.5,0.7-0.8,1c-0.3,0.2-0.7,0.4-1.1,0.5
		c-0.4,0.1-0.8,0.2-1.2,0.2s-0.8,0.1-1.1,0.1c-0.7,0-1.2,0-1.7-0.1s-0.9-0.2-1.2-0.4c-0.3-0.2-0.5-0.4-0.7-0.6s-0.3-0.5-0.4-0.7
		c-0.1-0.2-0.2-0.5-0.2-0.7s0-0.5-0.1-0.7L749.4,399.5L749.4,399.5z M751.6,397.2c0.6,0,1-0.1,1.3-0.3c0.3-0.2,0.6-0.4,0.8-0.7
		c0.1-0.1,0.2-0.3,0.3-0.4s0.2-0.3,0.2-0.5c0.1-0.2,0.1-0.5,0.1-0.8s0-0.7,0-1.1c0-0.6-0.1-1.2-0.2-1.5s-0.3-0.7-0.6-1
		s-0.6-0.5-0.9-0.6c-0.4-0.2-0.8-0.2-1.2-0.2c-0.6,0-1.1,0.1-1.4,0.4c-0.4,0.3-0.6,0.6-0.8,1s-0.3,0.8-0.4,1.2
		c-0.1,0.4-0.1,0.8-0.1,1.1c0,0.4,0,0.8,0.1,1.2s0.2,0.8,0.4,1.2s0.5,0.6,0.8,0.9C750.5,397.1,751,397.2,751.6,397.2z"/>
	<path d="M760.9,394.1c0,0.5,0,1,0.1,1.4s0.3,0.8,0.5,1.2c0.2,0.3,0.5,0.6,0.9,0.8s0.8,0.3,1.3,0.3c0.6,0,1.1-0.2,1.6-0.5
		c0.4-0.3,0.7-0.9,0.8-1.6h1.9c0,0.3-0.1,0.6-0.2,0.9c-0.1,0.4-0.3,0.8-0.7,1.2c-0.1,0.1-0.3,0.3-0.4,0.4s-0.4,0.3-0.7,0.4
		s-0.6,0.2-1,0.3c-0.4,0.1-0.8,0.1-1.3,0.1c-1.6,0-2.8-0.5-3.5-1.4s-1.1-2.2-1.1-3.8c0-1,0.1-1.9,0.4-2.7c0.3-0.8,0.8-1.5,1.6-2
		c0.2-0.2,0.5-0.3,0.8-0.4s0.5-0.2,0.8-0.2c0.2-0.1,0.5-0.1,0.7-0.1s0.4,0,0.5,0c0.7,0,1.4,0.1,1.9,0.3s0.9,0.5,1.2,0.8
		s0.6,0.7,0.7,1.1c0.2,0.4,0.3,0.8,0.4,1.2c0.1,0.4,0.1,0.8,0.1,1.2s0,0.7,0,1h-7.3V394.1z M766.2,392.8c0-0.2,0-0.5-0.1-0.9
		s-0.1-0.7-0.3-1s-0.4-0.6-0.8-0.8c-0.3-0.2-0.8-0.3-1.4-0.3c-0.3,0-0.6,0-0.9,0.2c-0.3,0.1-0.6,0.3-0.9,0.5
		c-0.3,0.2-0.5,0.5-0.7,0.9s-0.3,0.8-0.3,1.4L766.2,392.8L766.2,392.8z"/>
	<path d="M775.4,384.9h9.1v1.7l-5.1,12.2h-2.3l5.3-12.2h-7.1L775.4,384.9L775.4,384.9z"/>
	<path d="M786.7,392c0-0.3,0-0.8,0-1.3s0.1-1,0.2-1.6s0.2-1.1,0.4-1.6s0.5-1,0.8-1.5s0.8-0.8,1.3-1s1.1-0.4,1.9-0.4
		c0.7,0,1.3,0.1,1.8,0.3c0.5,0.2,0.9,0.5,1.3,0.9c0.3,0.4,0.6,0.8,0.8,1.3s0.4,1,0.5,1.5s0.2,1,0.2,1.6s0.1,1,0.1,1.4
		c0,1.6-0.2,3-0.5,3.9c-0.3,1-0.8,1.8-1.4,2.4c-0.2,0.2-0.5,0.4-0.8,0.5s-0.5,0.2-0.8,0.3c-0.2,0.1-0.5,0.1-0.7,0.2
		c-0.2,0-0.4,0-0.6,0c-0.5,0-0.9-0.1-1.3-0.2c-0.4-0.1-0.7-0.3-1-0.5s-0.6-0.5-0.8-0.7c-0.2-0.3-0.4-0.6-0.6-0.9
		c-0.2-0.5-0.4-1-0.6-1.8C786.8,394.2,786.7,393.2,786.7,392z M788.6,391.9c0,0.8,0,1.5,0.1,2.2s0.2,1.2,0.4,1.7s0.5,0.9,0.8,1.2
		c0.3,0.3,0.8,0.4,1.3,0.4c0.6,0,1-0.2,1.4-0.5s0.6-0.8,0.8-1.3s0.3-1.1,0.4-1.8c0.1-0.6,0.1-1.3,0.1-1.9c0-0.8,0-1.6-0.1-2.3
		s-0.2-1.3-0.4-1.8s-0.5-0.9-0.8-1.2c-0.3-0.3-0.8-0.4-1.3-0.4c-0.6,0-1.1,0.2-1.5,0.5c-0.4,0.4-0.6,0.8-0.8,1.4
		c-0.2,0.5-0.3,1.2-0.4,1.8C788.7,390.6,788.6,391.3,788.6,391.9z"/>
</g>
<g class="st1">
	<path class="st2" d="M737.6,481.3h2.1l5.8,14.4h-2.2l-1.6-3.8H735l-1.6,3.8h-2.1L737.6,481.3z M735.8,490.4h5.5l-2.7-7.1
		L735.8,490.4z"/>
	<path class="st2" d="M749.4,496.5c0,0.3,0.1,0.5,0.1,0.8c0.1,0.2,0.2,0.4,0.4,0.6s0.4,0.3,0.7,0.4s0.7,0.2,1.1,0.2
		c0.7,0,1.2-0.1,1.5-0.3c0.4-0.2,0.6-0.5,0.8-1c0.2-0.4,0.3-0.9,0.3-1.5s0.1-1.2,0.1-1.9c-0.2,0.4-0.5,0.7-0.8,1s-0.6,0.4-1,0.5
		c-0.3,0.1-0.6,0.2-0.9,0.2c-0.3,0-0.5,0-0.7,0s-0.5,0-0.8-0.1c-0.3,0-0.5-0.1-0.8-0.2s-0.5-0.2-0.8-0.4c-0.3-0.2-0.5-0.4-0.7-0.6
		c-0.4-0.5-0.7-1.1-0.9-1.7s-0.2-1.3-0.2-2c0-0.9,0.1-1.6,0.4-2.2c0.2-0.6,0.6-1.2,1-1.6s0.9-0.7,1.4-0.9c0.5-0.2,1.1-0.3,1.7-0.3
		c0.5,0,0.9,0.1,1.3,0.2c0.4,0.1,0.7,0.2,0.9,0.4c0.2,0.2,0.4,0.3,0.6,0.5c0.1,0.2,0.3,0.3,0.4,0.5v-1.4h1.8v1.8v6.3
		c0,0.6,0,1.1,0,1.6c0,0.4,0,0.8-0.1,1.1c0,0.3-0.1,0.6-0.1,0.8c-0.1,0.2-0.1,0.4-0.2,0.6c-0.2,0.4-0.5,0.7-0.8,1
		c-0.3,0.2-0.7,0.4-1.1,0.5c-0.4,0.1-0.8,0.2-1.2,0.2s-0.8,0.1-1.1,0.1c-0.7,0-1.2,0-1.7-0.1s-0.9-0.2-1.2-0.4
		c-0.3-0.2-0.5-0.4-0.7-0.6s-0.3-0.5-0.4-0.7c-0.1-0.2-0.2-0.5-0.2-0.7s0-0.5-0.1-0.7L749.4,496.5L749.4,496.5z M751.6,494.2
		c0.6,0,1-0.1,1.3-0.3c0.3-0.2,0.6-0.4,0.8-0.7c0.1-0.1,0.2-0.3,0.3-0.4s0.2-0.3,0.2-0.5c0.1-0.2,0.1-0.5,0.1-0.8s0-0.7,0-1.1
		c0-0.6-0.1-1.2-0.2-1.5s-0.3-0.7-0.6-1s-0.6-0.5-0.9-0.6c-0.4-0.2-0.8-0.2-1.2-0.2c-0.6,0-1.1,0.1-1.4,0.4c-0.4,0.3-0.6,0.6-0.8,1
		s-0.3,0.8-0.4,1.2c-0.1,0.4-0.1,0.8-0.1,1.1c0,0.4,0,0.8,0.1,1.2s0.2,0.8,0.4,1.2s0.5,0.6,0.8,0.9
		C750.5,494.1,751,494.2,751.6,494.2z"/>
	<path class="st2" d="M760.9,491.1c0,0.5,0,1,0.1,1.4s0.3,0.8,0.5,1.2c0.2,0.3,0.5,0.6,0.9,0.8s0.8,0.3,1.3,0.3
		c0.6,0,1.1-0.2,1.6-0.5c0.4-0.3,0.7-0.9,0.8-1.6h1.9c0,0.3-0.1,0.6-0.2,0.9c-0.1,0.4-0.3,0.8-0.7,1.2c-0.1,0.1-0.3,0.3-0.4,0.4
		s-0.4,0.3-0.7,0.4s-0.6,0.2-1,0.3c-0.4,0.1-0.8,0.1-1.3,0.1c-1.6,0-2.8-0.5-3.5-1.4s-1.1-2.2-1.1-3.8c0-1,0.1-1.9,0.4-2.7
		c0.3-0.8,0.8-1.5,1.6-2c0.2-0.2,0.5-0.3,0.8-0.4s0.5-0.2,0.8-0.2c0.2-0.1,0.5-0.1,0.7-0.1s0.4,0,0.5,0c0.7,0,1.4,0.1,1.9,0.3
		s0.9,0.5,1.2,0.8s0.6,0.7,0.7,1.1c0.2,0.4,0.3,0.8,0.4,1.2c0.1,0.4,0.1,0.8,0.1,1.2s0,0.7,0,1h-7.3V491.1z M766.2,489.8
		c0-0.2,0-0.5-0.1-0.9s-0.1-0.7-0.3-1s-0.4-0.6-0.8-0.8c-0.3-0.2-0.8-0.3-1.4-0.3c-0.3,0-0.6,0-0.9,0.2c-0.3,0.1-0.6,0.3-0.9,0.5
		c-0.3,0.2-0.5,0.5-0.7,0.9s-0.3,0.8-0.3,1.4L766.2,489.8L766.2,489.8z"/>
	<path class="st2" d="M778.5,488.5c-0.9-0.2-1.6-0.6-2.1-1.2s-0.7-1.2-0.7-1.9c0-0.3,0.1-0.7,0.2-1.1c0.1-0.4,0.4-0.8,0.7-1.2
		c0.3-0.4,0.8-0.7,1.4-1s1.3-0.4,2.2-0.4c0.7,0,1.4,0.1,1.9,0.3c0.6,0.2,1,0.4,1.4,0.8s0.7,0.7,0.9,1.2c0.2,0.4,0.3,0.9,0.3,1.5
		c0,0.3-0.1,0.7-0.2,1c-0.1,0.3-0.3,0.6-0.5,0.9s-0.5,0.5-0.9,0.7s-0.8,0.4-1.3,0.4c0.2,0.1,0.5,0.1,0.8,0.3s0.7,0.3,1,0.6
		c0.3,0.3,0.6,0.6,0.8,1s0.4,1,0.4,1.6c0,0.5-0.1,1-0.3,1.4c-0.2,0.5-0.4,0.9-0.8,1.3c-0.4,0.4-0.9,0.7-1.5,1
		c-0.6,0.2-1.3,0.4-2.2,0.4c-0.6,0-1.2-0.1-1.9-0.2s-1.2-0.5-1.7-0.9c-0.4-0.3-0.7-0.8-0.9-1.3s-0.3-1-0.3-1.5s0.1-0.9,0.3-1.4
		c0.2-0.4,0.4-0.8,0.8-1.2c0.3-0.3,0.7-0.6,1-0.7C777.9,488.7,778.2,488.6,778.5,488.5z M777.5,491.9c0,0.3,0,0.5,0.1,0.8
		s0.2,0.6,0.5,0.8c0.2,0.3,0.5,0.5,0.9,0.6c0.4,0.2,0.8,0.2,1.3,0.2c0.6,0,1-0.1,1.4-0.3c0.4-0.2,0.6-0.4,0.8-0.7
		c0.2-0.3,0.3-0.5,0.4-0.8s0.1-0.6,0.1-0.9c0-0.8-0.3-1.4-0.8-1.8c-0.5-0.5-1.2-0.7-2-0.7c-0.4,0-0.8,0.1-1.2,0.2
		c-0.3,0.1-0.6,0.3-0.9,0.5c-0.2,0.2-0.4,0.5-0.6,0.8C777.5,491.2,777.5,491.5,777.5,491.9z M782.9,485.3c0-0.6-0.2-1.2-0.7-1.6
		c-0.4-0.4-1.1-0.6-1.9-0.6c-0.4,0-0.7,0.1-1,0.2s-0.6,0.3-0.8,0.4c-0.2,0.2-0.4,0.4-0.5,0.7c-0.1,0.3-0.2,0.6-0.2,0.9
		s0.1,0.6,0.2,0.9c0.1,0.3,0.3,0.5,0.5,0.7s0.5,0.4,0.8,0.5s0.7,0.2,1,0.2c0.8,0,1.4-0.2,1.9-0.6C782.6,486.6,782.9,486,782.9,485.3
		z"/>
	<path class="st2" d="M786.7,489c0-0.3,0-0.8,0-1.3s0.1-1,0.2-1.6s0.2-1.1,0.4-1.6s0.5-1,0.8-1.5s0.8-0.8,1.3-1s1.1-0.4,1.9-0.4
		c0.7,0,1.3,0.1,1.8,0.3c0.5,0.2,0.9,0.5,1.3,0.9c0.3,0.4,0.6,0.8,0.8,1.3s0.4,1,0.5,1.5s0.2,1,0.2,1.6s0.1,1,0.1,1.4
		c0,1.6-0.2,3-0.5,3.9c-0.3,1-0.8,1.8-1.4,2.4c-0.2,0.2-0.5,0.4-0.8,0.5s-0.5,0.2-0.8,0.3c-0.2,0.1-0.5,0.1-0.7,0.2
		c-0.2,0-0.4,0-0.6,0c-0.5,0-0.9-0.1-1.3-0.2c-0.4-0.1-0.7-0.3-1-0.5s-0.6-0.5-0.8-0.7c-0.2-0.3-0.4-0.6-0.6-0.9
		c-0.2-0.5-0.4-1-0.6-1.8C786.8,491.2,786.7,490.2,786.7,489z M788.6,488.9c0,0.8,0,1.5,0.1,2.2s0.2,1.2,0.4,1.7s0.5,0.9,0.8,1.2
		c0.3,0.3,0.8,0.4,1.3,0.4c0.6,0,1-0.2,1.4-0.5s0.6-0.8,0.8-1.3s0.3-1.1,0.4-1.8c0.1-0.6,0.1-1.3,0.1-1.9c0-0.8,0-1.6-0.1-2.3
		s-0.2-1.3-0.4-1.8s-0.5-0.9-0.8-1.2c-0.3-0.3-0.8-0.4-1.3-0.4c-0.6,0-1.1,0.2-1.5,0.5c-0.4,0.4-0.6,0.8-0.8,1.4
		c-0.2,0.5-0.3,1.2-0.4,1.8C788.7,487.6,788.6,488.3,788.6,488.9z"/>
</g>
<rect x="256.6" y="0.3" class="st3" width="457.5" height="31.5"/>
<g class="st1">
	<path d="M529.7,2h-5.3v3.8h5.3v1.8h-5.3v6.3h-2V0.3h7.3V2z"/>
	<path d="M533.2,4.9V7c0.6-0.9,1.4-2.2,2.7-2.2c0.3,0,1.1,0,2.1,1l-0.9,1.6c-0.2-0.2-1-0.9-1.7-0.9s-2.1,0.7-2.1,2.8V14h-1.8V5h1.7
		V4.9z"/>
	<path d="M546.2,13c-0.6,0.4-1.6,1.1-3.5,1.1c-0.9,0-2-0.1-3.1-1.3c-1.2-1.2-1.3-2.6-1.3-3.5c0-2.8,1.8-4.6,4.2-4.6
		c2.1,0,3.5,1.5,3.8,3.5c0.1,0.6,0.1,1,0.1,1.3h-6.3c0.1,1.3,0.9,2.8,2.9,2.8c1.2,0,2.3-0.4,3.3-1.1V13H546.2z M544.6,8.5
		c0-0.4-0.2-2.2-2.2-2.2c-0.6,0-1.2,0.2-1.7,0.8c-0.5,0.5-0.6,1.1-0.6,1.5h4.5V8.5z"/>
	<path d="M555.9,18.5h-1.8v-4.8c-0.4,0.1-1.1,0.3-2,0.3c-2.4,0-4.4-1.8-4.4-4.6c0-1.7,0.9-4.6,4.8-4.6h3.3v13.7H555.9z M554.1,6.6
		H553c-0.8,0-1.6,0-2.1,0.4c-0.4,0.3-1.3,1-1.3,2.5c0,1.8,1.1,3.1,3,3.1c0.5,0,0.6,0,1.6-0.4V6.6H554.1z"/>
	<path d="M564,13.9v-1.1c-0.8,0.9-1.9,1.3-2.7,1.3c-0.6,0-1.8-0.2-2.5-1.4c-0.3-0.4-0.5-1-0.5-2.6V4.9h1.8v5.2c0,1,0,2.6,1.8,2.6
		c0.8,0,1.6-0.5,2.1-1.3V4.9h1.8v9H564z"/>
	<path d="M575.8,13c-0.6,0.4-1.6,1.1-3.5,1.1c-0.9,0-2-0.1-3.1-1.3c-1.2-1.2-1.3-2.6-1.3-3.5c0-2.8,1.8-4.6,4.2-4.6
		c2.1,0,3.5,1.5,3.8,3.5c0.1,0.6,0.1,1,0.1,1.3h-6.3c0.1,1.3,0.9,2.8,2.9,2.8c1.2,0,2.3-0.4,3.3-1.1V13H575.8z M574.2,8.5
		c0-0.4-0.2-2.2-2.2-2.2c-0.6,0-1.2,0.2-1.7,0.8c-0.5,0.5-0.6,1.1-0.6,1.5h4.5V8.5z"/>
	<path d="M579.7,4.9v1.2c0.8-0.9,1.9-1.3,2.7-1.3c0.6,0,1.8,0.2,2.5,1.4c0.3,0.4,0.5,1,0.5,2.6v5.1h-1.8V8.8c0-1,0-1.5-0.5-2
		c-0.3-0.4-0.7-0.6-1.3-0.6c-0.8,0-1.6,0.5-2.1,1.3v6.4h-1.9v-9C577.8,4.9,579.7,4.9,579.7,4.9z"/>
	<path d="M594.4,7.3c-0.5-0.3-1.3-0.9-2.5-0.9c-1.9,0-2.7,1.6-2.7,3c0,1.5,0.9,3,3.1,3c0.9,0,1.7-0.3,2.4-0.6v1.8
		c-0.4,0.1-1.3,0.5-2.6,0.5c-3.1,0-4.6-2.2-4.6-4.6c0-2.2,1.2-4.7,4.4-4.7c1.2,0,1.9,0.3,2.6,0.6v1.9H594.4z"/>
	<path d="M597.8,18.5h-2l3.1-6.5l-3.5-7.1h2l2.4,5.1l2.3-5.1h2L597.8,18.5z"/>
	<path d="M612.9,2.2c0,0.6-0.5,1.1-1.1,1.1c-0.7,0-1-0.6-1-1.1s0.4-1,1-1S612.9,1.6,612.9,2.2z M612.7,13.9h-1.8v-9h1.8V13.9z"/>
	<path d="M617.1,4.9v1.2c0.8-0.9,1.9-1.3,2.7-1.3c0.6,0,1.8,0.2,2.5,1.4c0.3,0.4,0.5,1,0.5,2.6v5.1H621V8.8c0-1,0-1.5-0.5-2
		c-0.3-0.4-0.7-0.6-1.3-0.6c-0.8,0-1.6,0.5-2.1,1.3v6.4h-1.8v-9C615.3,4.9,617.1,4.9,617.1,4.9z"/>
	<path d="M632.6,6.1c0.7-0.8,1.7-1.4,2.8-1.4c1.3,0,2.3,0.8,2.7,1.7c0.2,0.6,0.3,1.5,0.3,2.3v5.1h-1.8V8.2c0-0.7-0.2-1.1-0.3-1.4
		C636,6.3,635.4,6,634.9,6c-0.9,0-1.5,0.4-2.3,1.3v6.4h-1.8V0.3h1.8V6.1z"/>
	<path d="M648.4,13c-0.6,0.4-1.6,1.1-3.5,1.1c-0.9,0-2-0.1-3.1-1.3c-1.2-1.2-1.3-2.6-1.3-3.5c0-2.8,1.8-4.6,4.2-4.6
		c2.1,0,3.5,1.5,3.8,3.5c0.1,0.6,0.1,1,0.1,1.3h-6.3c0.1,1.3,0.9,2.8,2.9,2.8c1.2,0,2.3-0.4,3.3-1.1V13H648.4z M646.8,8.5
		c0-0.4-0.2-2.2-2.2-2.2c-0.6,0-1.2,0.2-1.7,0.8c-0.5,0.5-0.6,1.1-0.6,1.5h4.5V8.5z"/>
	<path d="M652.1,4.9V7c0.6-0.9,1.4-2.2,2.7-2.2c0.3,0,1.1,0,2.1,1L656,7.4c-0.2-0.2-1-0.9-1.7-0.9s-2.1,0.7-2.1,2.8V14h-1.8V5h1.7
		V4.9z"/>
	<path d="M660.6,4.9h2.8v1.6h-2.8v3.9c0,1.1,0,1.3,0.3,1.6c0.3,0.4,0.8,0.4,1,0.4c0.4,0,1,0,2-0.6v1.7c-0.8,0.5-1.8,0.6-2.3,0.6
		c-0.6,0-1.7-0.3-2.3-1.1c-0.4-0.7-0.4-1.6-0.4-2.4v-4h-1.6V6.4l3.3-3.3V4.9z"/>
	<path d="M667.6,12.3h4.8v1.6h-7.9l4.7-7.3h-4.5V4.9h7.7L667.6,12.3z"/>
	<path d="M683.3,18.5c-1.5-1.9-2.2-2.8-2.9-4.6c-0.7-1.7-0.9-3.3-0.9-4.6c0-4.4,2.2-7.2,3.8-9.2h1.1c-1.2,1.9-2.9,4.3-2.9,9.3
		c0,3.3,0.9,6.5,2.9,9.1H683.3z"/>
	<path d="M697.7,13.9h-2V8h-7.6v5.9h-2V0.3h2v5.9h7.6V0.3h2V13.9z"/>
	<path d="M702.5,12.3h4.8v1.6h-7.9l4.7-7.3h-4.5V4.9h7.7L702.5,12.3z"/>
	<path d="M708.9,0.1c1.5,1.9,2.2,2.8,2.9,4.6c0.7,1.7,0.9,3.3,0.9,4.6c0,4.4-2.2,7.2-3.8,9.2h-1.1c1.2-1.9,2.9-4.3,2.9-9.3
		c0-3.3-0.9-6.5-2.9-9.2h1.1V0.1z"/>
</g>
<g class="st1">
	<path d="M13.6,255.3v2H7.7v7.6h5.9v2H0v-2h5.9v-7.6H0v-2H13.6z"/>
	<path d="M12.7,245.1c0.4,0.6,1.1,1.6,1.1,3.5c0,0.9-0.1,2-1.3,3.1c-1.2,1.2-2.6,1.3-3.5,1.3c-2.8,0-4.6-1.8-4.6-4.2
		c0-2.1,1.5-3.5,3.5-3.8c0.6-0.1,1-0.1,1.3-0.1v6.3c1.3-0.1,2.8-0.9,2.8-2.9c0-1.2-0.4-2.3-1.1-3.3L12.7,245.1L12.7,245.1z
		 M8.2,246.7c-0.4,0-2.2,0.2-2.2,2.2c0,0.6,0.2,1.2,0.8,1.7c0.5,0.5,1.1,0.6,1.5,0.6v-4.5H8.2z"/>
	<path d="M13.1,235.9c0.5,0.8,0.7,1.2,0.7,1.7c0,0.8-0.3,1.2-0.9,1.4c0.6,0.8,0.9,1.6,0.9,2.4c0,1.3-1,2.2-2.2,2.2
		c-1.8,0-2.3-1.6-2.8-3.1l-0.6-1.6H7.7c-1.1,0-1.6,0.5-1.6,1.6c0,1,0.5,2,1.5,2.8H5.7c-0.8-0.7-1.2-1.7-1.2-3c0-1.8,0.9-3.3,3-3.3
		h4.6c0.3,0,0.5-0.1,0.5-0.3s-0.2-0.5-0.5-0.9h1V235.9z M9.2,239c0.5,1.5,1,2.8,2.1,2.8c0.7,0,1.3-0.5,1.3-1.3
		c0-0.6-0.3-1.1-0.7-1.6H9.2V239z"/>
	<path d="M4.6,232.8h2.1c-0.9-0.6-2.2-1.4-2.2-2.7c0-0.3,0-1.1,1-2.1l1.6,0.9c-0.2,0.2-0.9,1-0.9,1.7s0.7,2.1,2.8,2.1h4.7v1.8h-9
		v-1.7H4.6z"/>
	<path d="M1.9,224.8c0.6,0,1.1,0.5,1.1,1.1c0,0.7-0.6,1-1.1,1s-1-0.4-1-1S1.3,224.8,1.9,224.8z M13.6,224.9v1.8h-9v-1.8H13.6z"/>
	<path d="M4.6,220.6h1.2c-0.9-0.8-1.3-1.9-1.3-2.7c0-0.6,0.2-1.8,1.4-2.5c0.4-0.3,1-0.5,2.6-0.5h5.1v1.8H8.5c-1,0-1.5,0-2,0.5
		c-0.4,0.3-0.6,0.7-0.6,1.3c0,0.8,0.5,1.6,1.3,2.1h6.4v1.8h-9C4.6,222.4,4.6,220.6,4.6,220.6z"/>
	<path d="M6,205.2v1.8c0.7-0.7,1.2-0.9,2-0.9c0.7,0,1.6,0.4,2,0.8c1.3,1.2,0.6,3.6,1.7,3.6c0.5,0,0.8-0.9,1.2-2.7
		c0.4-1.9,1.4-2.6,2.5-2.6c1.8,0,2.9,1.6,2.9,4.2c0,2.4-1.1,4.1-2.7,4.1c-1.3,0-2.1-0.7-2.5-2.3c-0.4,0.6-0.7,0.9-1.1,0.9
		c-0.6,0-1.1-0.6-1.3-1.4l0,0c-0.3,0.7-0.7,1.2-1.1,1.5c-0.5,0.3-1,0.5-1.7,0.5c-1.9,0-3.1-1.5-3.1-3.9v-3.7L6,205.2L6,205.2z
		 M6.2,209.4c0,1,0.7,1.8,1.6,1.8c1,0,1.6-0.7,1.6-1.8c0-1-0.7-1.7-1.7-1.7C6.9,207.7,6.2,208.5,6.2,209.4z M14.1,209.9
		c0,1.2,0.6,2,1.4,2c0.9,0,1.4-0.9,1.4-2.5s-0.5-2.5-1.3-2.5C14.4,207,14.1,208.8,14.1,209.9z"/>
	<path d="M1.7,187.8v4.8h11.9v2H1.7v4.7H0v-11.4h1.7V187.8z"/>
	<path d="M5.8,184.4c-0.8-0.7-1.4-1.7-1.4-2.8c0-1.3,0.8-2.3,1.7-2.7c0.6-0.2,1.5-0.3,2.3-0.3h5.1v1.8H7.9c-0.7,0-1.1,0.2-1.4,0.3
		c-0.5,0.3-0.8,0.9-0.8,1.4c0,0.9,0.4,1.5,1.3,2.3h6.4v1.8H0v-1.8H5.8z"/>
	<path d="M4.6,174.5h2.1c-0.9-0.6-2.2-1.4-2.2-2.7c0-0.3,0-1.1,1-2.1l1.6,0.9c-0.2,0.2-0.9,1-0.9,1.7s0.7,2.1,2.8,2.1h4.7v1.8h-9
		v-1.7H4.6z"/>
	<path d="M12.7,161.5c0.4,0.6,1.1,1.6,1.1,3.5c0,0.9-0.1,2-1.3,3.1c-1.2,1.2-2.6,1.3-3.5,1.3c-2.8,0-4.6-1.8-4.6-4.2
		c0-2.1,1.5-3.5,3.5-3.8c0.6-0.1,1-0.1,1.3-0.1v6.3c1.3-0.1,2.8-0.9,2.8-2.9c0-1.2-0.4-2.3-1.1-3.3L12.7,161.5L12.7,161.5z
		 M8.2,163.1c-0.4,0-2.2,0.2-2.2,2.2c0,0.6,0.2,1.2,0.8,1.7c0.5,0.5,1.1,0.6,1.5,0.6v-4.5H8.2z"/>
	<path d="M7,154.2c-0.6,1-1,1.8-1,2.6s0.5,1.1,0.8,1.1c0.6,0,0.9-0.6,1.6-1.9c0.7-1.3,1.6-2.2,2.8-2.2c0.8,0,2.5,0.6,2.5,3.1
		c0,1.3-0.4,2.1-0.8,3H11c0.9-1.3,1.2-2.4,1.2-2.9c0-0.6-0.3-1.4-0.9-1.4c-0.6,0-0.9,0.5-1.4,1.4c-0.8,1.5-1.6,2.8-3.1,2.8
		c-1.3,0-2.3-1.1-2.3-2.9c0-1.3,0.5-2.3,0.7-2.7L7,154.2L7,154.2z"/>
	<path d="M5.8,149.9c-0.8-0.7-1.4-1.7-1.4-2.8c0-1.3,0.8-2.3,1.7-2.7c0.6-0.2,1.5-0.3,2.3-0.3h5.1v1.8H7.9c-0.7,0-1.1,0.2-1.4,0.3
		c-0.5,0.3-0.8,0.9-0.8,1.4c0,0.9,0.4,1.5,1.3,2.3h6.4v1.8H0v-1.8H5.8z"/>
	<path d="M9.2,132.6c3.2,0,4.6,2.6,4.6,4.8c0,2.9-2.1,4.8-4.7,4.8c-2.5,0-4.7-1.8-4.7-4.8C4.5,134.7,6.3,132.6,9.2,132.6z
		 M9.1,140.4c2.3,0,3.1-1.7,3.1-3c0-1.8-1.3-3-3.1-3c-2.3,0-3.1,1.8-3.1,3C6.1,139.1,7.2,140.4,9.1,140.4z"/>
	<path d="M13.6,128.8v1.8H0v-1.8H13.6z"/>
	<path d="M13.6,118.5v3.8c0,3.5-2.9,4.4-4.6,4.4c-2.9,0-4.5-2.2-4.5-4.4c0-0.9,0.2-1.6,0.4-1.9H0v-1.8L13.6,118.5L13.6,118.5z
		 M6.4,120.3C6.2,120.6,6,121.1,6,122c0,1.5,1,2.9,3.2,2.9c1.5,0,2.3-0.6,2.6-1.3c0.2-0.5,0.3-0.9,0.3-1.9v-1.4
		C12.1,120.3,6.4,120.3,6.4,120.3z"/>
	<path d="M1.9,108.5c0.6,0,1.1,0.5,1.1,1.1c0,0.7-0.6,1-1.1,1s-1-0.4-1-1S1.3,108.5,1.9,108.5z M13.6,108.7v1.8h-9v-1.8H13.6z"/>
	<path d="M4.6,104.3h1.2c-0.9-0.8-1.3-1.9-1.3-2.7c0-0.6,0.2-1.8,1.4-2.5c0.4-0.3,1-0.5,2.6-0.5h5.1v1.8H8.5c-1,0-1.5,0-2,0.5
		c-0.4,0.3-0.6,0.7-0.6,1.3c0,0.8,0.5,1.6,1.3,2.1h6.4v1.8h-9C4.6,106.1,4.6,104.3,4.6,104.3z"/>
	<path d="M13.6,82.8v3.8c0,3.5-2.9,4.4-4.6,4.4c-2.9,0-4.5-2.2-4.5-4.4c0-0.9,0.2-1.6,0.4-1.9H0v-1.8L13.6,82.8L13.6,82.8z
		 M6.4,84.6C6.2,84.9,6,85.4,6,86.3c0,1.5,1,2.9,3.2,2.9c1.5,0,2.3-0.6,2.6-1.3c0.2-0.5,0.3-0.9,0.3-1.9v-1.4
		C12.1,84.6,6.4,84.6,6.4,84.6z"/>
	<path d="M5.3,78.7c-0.2-0.3-0.8-1.1-0.8-2.5c0-2.4,2.1-3.9,4.6-3.9c3.2,0,4.8,2.2,4.8,4.6c0,1.1-0.3,2.6-0.7,3.5H0v-1.8h5.3V78.7z
		 M11.8,78.7c0.2-0.7,0.3-1.6,0.3-1.9c0-1.1-0.8-2.7-3-2.7c-2,0-3,1.2-3,2.5c0,1,0.6,1.7,0.9,2L11.8,78.7L11.8,78.7z"/>
</g>
<g id="Graphs">
	<polyline class="st4" points="89.5,212.7 328.5,223.7 497.5,351.7 551.5,373.7 675.5,489.7 	"/>
	<polyline class="st5" points="89.5,177.5 331.5,188.7 440.5,232.7 496.5,288.7 550.5,314.7 604.5,338.7 675.5,392.7 	"/>
	<polyline class="st5" points="89.5,152.7 329.5,156.7 442.5,193.7 498.5,224.7 606.5,265.7 659.5,284.7 674.5,295.7 	"/>
	<polyline class="st5" points="89.5,137.7 330.5,138.7 439.5,162.7 550.5,206.7 603.5,226.7 676.5,239.7 	"/>
	<polyline class="st5" points="89.5,126.7 331.5,126.7 495.5,154.7 605.5,172.7 676.5,179.7 	"/>
	<line class="st5" x1="89.5" y1="118.7" x2="675.5" y2="118.7"/>
	<g class="st1">
		<path d="M737.6,171.3h2.1l5.8,14.4h-2.2l-1.6-3.8H735l-1.6,3.8h-2.1L737.6,171.3z M735.8,180.4h5.5l-2.7-7.1L735.8,180.4z"/>
		<path d="M749.4,186.5c0,0.3,0.1,0.5,0.1,0.8c0.1,0.2,0.2,0.4,0.4,0.6c0.2,0.2,0.4,0.3,0.7,0.4c0.3,0.1,0.7,0.2,1.1,0.2
			c0.7,0,1.2-0.1,1.5-0.3c0.4-0.2,0.6-0.5,0.8-1c0.2-0.4,0.3-0.9,0.3-1.5s0.1-1.2,0.1-1.9c-0.2,0.4-0.5,0.7-0.8,1s-0.6,0.4-1,0.5
			c-0.3,0.1-0.6,0.2-0.9,0.2c-0.3,0-0.5,0-0.7,0s-0.5,0-0.8-0.1c-0.3,0-0.5-0.1-0.8-0.2c-0.3-0.1-0.5-0.2-0.8-0.4s-0.5-0.4-0.7-0.6
			c-0.4-0.5-0.7-1.1-0.9-1.7c-0.2-0.6-0.2-1.3-0.2-2c0-0.9,0.1-1.6,0.4-2.2c0.2-0.6,0.6-1.2,1-1.6s0.9-0.7,1.4-0.9s1.1-0.3,1.7-0.3
			c0.5,0,0.9,0.1,1.3,0.2c0.4,0.1,0.7,0.2,0.9,0.4s0.4,0.3,0.6,0.5c0.1,0.2,0.3,0.3,0.4,0.5v-1.4h1.8v1.8v6.3c0,0.6,0,1.1,0,1.6
			c0,0.4,0,0.8-0.1,1.1c0,0.3-0.1,0.6-0.1,0.8c-0.1,0.2-0.1,0.4-0.2,0.6c-0.2,0.4-0.5,0.7-0.8,1c-0.3,0.2-0.7,0.4-1.1,0.5
			c-0.4,0.1-0.8,0.2-1.2,0.2s-0.8,0.1-1.1,0.1c-0.7,0-1.2,0-1.7-0.1s-0.9-0.2-1.2-0.4s-0.5-0.4-0.7-0.6c-0.2-0.2-0.3-0.5-0.4-0.7
			c-0.1-0.2-0.2-0.5-0.2-0.7s0-0.5-0.1-0.7L749.4,186.5L749.4,186.5z M751.6,184.2c0.6,0,1-0.1,1.3-0.3s0.6-0.4,0.8-0.7
			c0.1-0.1,0.2-0.3,0.3-0.4s0.2-0.3,0.2-0.5c0.1-0.2,0.1-0.5,0.1-0.8s0-0.7,0-1.1c0-0.6-0.1-1.2-0.2-1.5s-0.3-0.7-0.6-1
			s-0.6-0.5-0.9-0.6c-0.4-0.2-0.8-0.2-1.2-0.2c-0.6,0-1.1,0.1-1.4,0.4c-0.4,0.3-0.6,0.6-0.8,1s-0.3,0.8-0.4,1.2
			c-0.1,0.4-0.1,0.8-0.1,1.1c0,0.4,0,0.8,0.1,1.2s0.2,0.8,0.4,1.2s0.5,0.6,0.8,0.9C750.5,184.1,751,184.2,751.6,184.2z"/>
		<path d="M760.9,181.1c0,0.5,0,1,0.1,1.4s0.3,0.8,0.5,1.2c0.2,0.3,0.5,0.6,0.9,0.8s0.8,0.3,1.3,0.3c0.6,0,1.1-0.2,1.6-0.5
			c0.4-0.3,0.7-0.9,0.8-1.6h1.9c0,0.3-0.1,0.6-0.2,0.9c-0.1,0.4-0.3,0.8-0.7,1.2c-0.1,0.1-0.3,0.3-0.4,0.4s-0.4,0.3-0.7,0.4
			c-0.3,0.1-0.6,0.2-1,0.3s-0.8,0.1-1.3,0.1c-1.6,0-2.8-0.5-3.5-1.4s-1.1-2.2-1.1-3.8c0-1,0.1-1.9,0.4-2.7c0.3-0.8,0.8-1.5,1.6-2
			c0.2-0.2,0.5-0.3,0.8-0.4c0.3-0.1,0.5-0.2,0.8-0.2c0.2-0.1,0.5-0.1,0.7-0.1s0.4,0,0.5,0c0.7,0,1.4,0.1,1.9,0.3s0.9,0.5,1.2,0.8
			s0.6,0.7,0.7,1.1c0.2,0.4,0.3,0.8,0.4,1.2c0.1,0.4,0.1,0.8,0.1,1.2s0,0.7,0,1h-7.3V181.1z M766.2,179.8c0-0.2,0-0.5-0.1-0.9
			s-0.1-0.7-0.3-1s-0.4-0.6-0.8-0.8c-0.3-0.2-0.8-0.3-1.4-0.3c-0.3,0-0.6,0-0.9,0.2c-0.3,0.1-0.6,0.3-0.9,0.5
			c-0.3,0.2-0.5,0.5-0.7,0.9s-0.3,0.8-0.3,1.4L766.2,179.8L766.2,179.8z"/>
		<path d="M781.5,182.8h-6.2v-2.4l6-8.6h2.2v9.4h2v1.6h-2v3h-1.9L781.5,182.8L781.5,182.8z M781.6,181.1v-7.3l-4.8,7.3H781.6z"/>
		<path d="M786.7,179c0-0.3,0-0.8,0-1.3s0.1-1,0.2-1.6s0.2-1.1,0.4-1.6s0.5-1,0.8-1.5s0.8-0.8,1.3-1s1.1-0.4,1.9-0.4
			c0.7,0,1.3,0.1,1.8,0.3s0.9,0.5,1.3,0.9c0.3,0.4,0.6,0.8,0.8,1.3s0.4,1,0.5,1.5s0.2,1,0.2,1.6s0.1,1,0.1,1.4c0,1.6-0.2,3-0.5,3.9
			c-0.3,1-0.8,1.8-1.4,2.4c-0.2,0.2-0.5,0.4-0.8,0.5s-0.5,0.2-0.8,0.3c-0.2,0.1-0.5,0.1-0.7,0.2c-0.2,0-0.4,0-0.6,0
			c-0.5,0-0.9-0.1-1.3-0.2c-0.4-0.1-0.7-0.3-1-0.5s-0.6-0.5-0.8-0.7c-0.2-0.3-0.4-0.6-0.6-0.9c-0.2-0.5-0.4-1-0.6-1.8
			C786.8,181.2,786.7,180.2,786.7,179z M788.6,178.9c0,0.8,0,1.5,0.1,2.2s0.2,1.2,0.4,1.7s0.5,0.9,0.8,1.2s0.8,0.4,1.3,0.4
			c0.6,0,1-0.2,1.4-0.5s0.6-0.8,0.8-1.3s0.3-1.1,0.4-1.8c0.1-0.6,0.1-1.3,0.1-1.9c0-0.8,0-1.6-0.1-2.3s-0.2-1.3-0.4-1.8
			s-0.5-0.9-0.8-1.2s-0.8-0.4-1.3-0.4c-0.6,0-1.1,0.2-1.5,0.5c-0.4,0.4-0.6,0.8-0.8,1.4c-0.2,0.5-0.3,1.2-0.4,1.8
			C788.7,177.6,788.6,178.3,788.6,178.9z"/>
	</g>
</g>
</svg>
