<?xml version="1.0" encoding="utf-8"?>
<!-- Generator: Adobe Illustrator 22.0.1, SVG Export Plug-In . SVG Version: 6.00 Build 0)  -->
<svg version="1.1" id="Ebene_1" xmlns="http://www.w3.org/2000/svg" xmlns:xlink="http://www.w3.org/1999/xlink" x="0px" y="0px"
	 viewBox="0 0 815.2 654.7" style="enable-background:new 0 0 815.2 654.7;" xml:space="preserve">
<style type="text/css">
	.st0{fill:none;stroke:#A3A19E;stroke-miterlimit:10;}
	.st1{enable-background:new    ;}
	.st2{fill:#CC1122;}
	.st3{fill:none;}
	.st4{fill:none;stroke:#A3A19E;stroke-width:3;stroke-linecap:round;stroke-linejoin:round;stroke-miterlimit:10;}
	.st5{fill:none;stroke:#CC1122;stroke-width:3;stroke-linecap:round;stroke-linejoin:round;stroke-miterlimit:10;}
</style>
<g id="Grid">
</g>
<g id="Labels">
	<rect x="74.7" y="73.6" class="st0" width="644" height="571"/>
	<line class="st0" x1="111.7" y1="73.6" x2="111.7" y2="644.6"/>
	<line class="st0" x1="224.7" y1="73.6" x2="224.7" y2="644.6"/>
	<line class="st0" x1="280.7" y1="73.6" x2="280.7" y2="644.6"/>
	<line class="st0" x1="334.7" y1="73.6" x2="334.7" y2="644.6"/>
	<line class="st0" x1="390.7" y1="73.6" x2="390.7" y2="644.6"/>
	<line class="st0" x1="443.7" y1="73.6" x2="443.7" y2="644.6"/>
	<line class="st0" x1="499.7" y1="73.6" x2="499.7" y2="644.6"/>
	<line class="st0" x1="552.7" y1="73.6" x2="552.7" y2="644.6"/>
	<line class="st0" x1="608.7" y1="73.6" x2="608.7" y2="644.6"/>
	<line class="st0" x1="661.7" y1="73.6" x2="661.7" y2="644.6"/>
	<line class="st0" x1="74.7" y1="124.6" x2="718.7" y2="124.6"/>
	<line class="st0" x1="74.7" y1="171.6" x2="718.7" y2="171.6"/>
	<line class="st0" x1="74.7" y1="218.6" x2="718.7" y2="218.6"/>
	<line class="st0" x1="74.7" y1="265.6" x2="718.7" y2="265.6"/>
	<line class="st0" x1="74.7" y1="310.6" x2="718.7" y2="310.6"/>
	<line class="st0" x1="74.7" y1="359.1" x2="718.7" y2="359.1"/>
	<line class="st0" x1="74.7" y1="407.5" x2="718.7" y2="407.5"/>
	<line class="st0" x1="74.7" y1="452.6" x2="718.7" y2="452.6"/>
	<line class="st0" x1="74.7" y1="504.4" x2="718.7" y2="504.4"/>
	<line class="st0" x1="74.7" y1="550.6" x2="718.7" y2="550.6"/>
	<line class="st0" x1="74.7" y1="596.8" x2="718.7" y2="596.8"/>
	<g class="st1">
		<path d="M35.6,73.4h5v1.5h-5V73.4z"/>
		<path d="M46.8,67.7c-0.2,0.2-0.5,0.4-0.7,0.6c-0.3,0.2-0.6,0.4-0.8,0.5c-0.3,0.2-0.6,0.3-0.9,0.5c-0.3,0.2-0.6,0.3-0.8,0.4v-2
			c0.7-0.3,1.3-0.7,1.9-1.1s1.1-0.7,1.5-1.1h1.8v13.8h-1.9V67.7z"/>
		<path d="M52.4,72.6c0-0.3,0-0.8,0-1.3s0.1-1,0.2-1.6s0.2-1.1,0.4-1.6s0.5-1,0.8-1.5s0.8-0.8,1.3-1s1.1-0.4,1.9-0.4
			c0.7,0,1.3,0.1,1.8,0.3c0.5,0.2,0.9,0.5,1.3,0.9c0.3,0.4,0.6,0.8,0.8,1.3c0.2,0.5,0.4,1,0.5,1.5c0.1,0.5,0.2,1,0.2,1.6
			s0.1,1,0.1,1.4c0,1.6-0.2,3-0.5,3.9c-0.3,1-0.8,1.8-1.4,2.4c-0.2,0.2-0.5,0.4-0.8,0.5c-0.3,0.1-0.5,0.2-0.8,0.3
			c-0.2,0.1-0.5,0.1-0.7,0.2c-0.2,0-0.4,0-0.6,0c-0.5,0-0.9-0.1-1.3-0.2c-0.4-0.1-0.7-0.3-1-0.5c-0.3-0.2-0.6-0.5-0.8-0.7
			c-0.2-0.3-0.4-0.6-0.6-0.9c-0.2-0.5-0.4-1-0.6-1.8C52.5,74.8,52.4,73.9,52.4,72.6z M54.3,72.5c0,0.8,0,1.5,0.1,2.2
			c0.1,0.7,0.2,1.2,0.4,1.7c0.2,0.5,0.5,0.9,0.8,1.2c0.3,0.3,0.8,0.4,1.3,0.4c0.6,0,1-0.2,1.4-0.5c0.4-0.3,0.6-0.8,0.8-1.3
			s0.3-1.1,0.4-1.8c0.1-0.6,0.1-1.3,0.1-1.9c0-0.8,0-1.6-0.1-2.3s-0.2-1.3-0.4-1.8c-0.2-0.5-0.5-0.9-0.8-1.2
			c-0.3-0.3-0.8-0.4-1.3-0.4c-0.6,0-1.1,0.2-1.5,0.5c-0.4,0.4-0.6,0.8-0.8,1.4c-0.2,0.5-0.3,1.2-0.4,1.8
			C54.4,71.3,54.3,71.9,54.3,72.5z"/>
	</g>
	<g class="st1">
		<path d="M51.3,122.3c0-0.3,0-0.8,0-1.3s0.1-1,0.2-1.6s0.2-1.1,0.4-1.6s0.5-1,0.8-1.5s0.8-0.8,1.3-1s1.1-0.4,1.9-0.4
			c0.7,0,1.3,0.1,1.8,0.3c0.5,0.2,0.9,0.5,1.3,0.9c0.3,0.4,0.6,0.8,0.8,1.3c0.2,0.5,0.4,1,0.5,1.5c0.1,0.5,0.2,1,0.2,1.6
			s0.1,1,0.1,1.4c0,1.6-0.2,3-0.5,3.9c-0.3,1-0.8,1.8-1.4,2.4c-0.2,0.2-0.5,0.4-0.8,0.5c-0.3,0.1-0.5,0.2-0.8,0.3
			c-0.2,0.1-0.5,0.1-0.7,0.2c-0.2,0-0.4,0-0.6,0c-0.5,0-0.9-0.1-1.3-0.2c-0.4-0.1-0.7-0.3-1-0.5c-0.3-0.2-0.6-0.5-0.8-0.7
			c-0.2-0.3-0.4-0.6-0.6-0.9c-0.2-0.5-0.4-1-0.6-1.8C51.4,124.5,51.3,123.5,51.3,122.3z M53.3,122.2c0,0.8,0,1.5,0.1,2.2
			c0.1,0.7,0.2,1.2,0.4,1.7c0.2,0.5,0.5,0.9,0.8,1.2c0.3,0.3,0.8,0.4,1.3,0.4c0.6,0,1-0.2,1.4-0.5c0.4-0.3,0.6-0.8,0.8-1.3
			s0.3-1.1,0.4-1.8c0.1-0.6,0.1-1.3,0.1-1.9c0-0.8,0-1.6-0.1-2.3s-0.2-1.3-0.4-1.8c-0.2-0.5-0.5-0.9-0.8-1.2
			c-0.3-0.3-0.8-0.4-1.3-0.4c-0.6,0-1.1,0.2-1.5,0.5c-0.4,0.4-0.6,0.8-0.8,1.4c-0.2,0.5-0.3,1.2-0.4,1.8
			C53.3,120.9,53.3,121.6,53.3,122.2z"/>
	</g>
	<g class="st1">
		<path d="M46.2,164.7c-0.2,0.2-0.5,0.4-0.7,0.6c-0.3,0.2-0.6,0.4-0.8,0.5c-0.3,0.2-0.6,0.3-0.9,0.5c-0.3,0.2-0.6,0.3-0.8,0.4v-2
			c0.7-0.3,1.3-0.7,1.9-1.1s1.1-0.7,1.5-1.1h1.8v13.8h-1.9V164.7z"/>
		<path d="M51.8,169.6c0-0.3,0-0.8,0-1.3s0.1-1,0.2-1.6s0.2-1.1,0.4-1.6s0.5-1,0.8-1.5s0.8-0.8,1.3-1s1.1-0.4,1.9-0.4
			c0.7,0,1.3,0.1,1.8,0.3c0.5,0.2,0.9,0.5,1.3,0.9c0.3,0.4,0.6,0.8,0.8,1.3c0.2,0.5,0.4,1,0.5,1.5c0.1,0.5,0.2,1,0.2,1.6
			s0.1,1,0.1,1.4c0,1.6-0.2,3-0.5,3.9c-0.3,1-0.8,1.8-1.4,2.4c-0.2,0.2-0.5,0.4-0.8,0.5c-0.3,0.1-0.5,0.2-0.8,0.3
			c-0.2,0.1-0.5,0.1-0.7,0.2c-0.2,0-0.4,0-0.6,0c-0.5,0-0.9-0.1-1.3-0.2c-0.4-0.1-0.7-0.3-1-0.5c-0.3-0.2-0.6-0.5-0.8-0.7
			c-0.2-0.3-0.4-0.6-0.6-0.9c-0.2-0.5-0.4-1-0.6-1.8C51.9,171.8,51.8,170.9,51.8,169.6z M53.7,169.5c0,0.8,0,1.5,0.1,2.2
			c0.1,0.7,0.2,1.2,0.4,1.7c0.2,0.5,0.5,0.9,0.8,1.2c0.3,0.3,0.8,0.4,1.3,0.4c0.6,0,1-0.2,1.4-0.5c0.4-0.3,0.6-0.8,0.8-1.3
			s0.3-1.1,0.4-1.8c0.1-0.6,0.1-1.3,0.1-1.9c0-0.8,0-1.6-0.1-2.3s-0.2-1.3-0.4-1.8c-0.2-0.5-0.5-0.9-0.8-1.2
			c-0.3-0.3-0.8-0.4-1.3-0.4c-0.6,0-1.1,0.2-1.5,0.5c-0.4,0.4-0.6,0.8-0.8,1.4c-0.2,0.5-0.3,1.2-0.4,1.8
			C53.8,168.3,53.7,168.9,53.7,169.5z"/>
	</g>
	<g class="st1">
		<path d="M41.4,221.9l3.6-3.6c0.4-0.4,0.8-0.8,1.1-1.2c0.4-0.4,0.7-0.8,1-1.2c0.4-0.5,0.7-1,0.8-1.4c0.1-0.4,0.2-0.7,0.2-1.1
			c0-0.2,0-0.4-0.1-0.6c0-0.3-0.1-0.5-0.3-0.7c-0.2-0.2-0.4-0.4-0.7-0.6c-0.3-0.2-0.7-0.3-1.2-0.3c-0.6,0-1,0.1-1.3,0.3
			s-0.5,0.4-0.7,0.7s-0.2,0.5-0.3,0.8c0,0.3,0,0.5,0,0.6h-2.1c0-0.2,0-0.4,0-0.6c0-0.2,0.1-0.5,0.2-0.8c0.1-0.3,0.2-0.5,0.4-0.8
			c0.2-0.3,0.4-0.6,0.7-0.8c0.5-0.4,1-0.7,1.5-0.8c0.5-0.1,1-0.2,1.5-0.2c0.5,0,1.1,0.1,1.6,0.2s1,0.4,1.4,0.7
			c0.4,0.3,0.7,0.7,1,1.2c0.2,0.5,0.4,1.1,0.4,1.9c0,0.2,0,0.4,0,0.6c0,0.2-0.1,0.4-0.2,0.7s-0.3,0.6-0.5,0.9
			c-0.2,0.3-0.5,0.7-0.9,1.2c-0.1,0.1-0.3,0.3-0.5,0.6c-0.2,0.3-0.5,0.5-0.8,0.8c-0.3,0.3-0.5,0.5-0.8,0.8c-0.2,0.3-0.4,0.4-0.5,0.5
			l-2.4,2.3h6.6v1.6h-8.8V221.9z"/>
		<path d="M52.4,216.9c0-0.3,0-0.8,0-1.3s0.1-1,0.2-1.6s0.2-1.1,0.4-1.6s0.5-1,0.8-1.5s0.8-0.8,1.3-1s1.1-0.4,1.9-0.4
			c0.7,0,1.3,0.1,1.8,0.3c0.5,0.2,0.9,0.5,1.3,0.9c0.3,0.4,0.6,0.8,0.8,1.3c0.2,0.5,0.4,1,0.5,1.5c0.1,0.5,0.2,1,0.2,1.6
			s0.1,1,0.1,1.4c0,1.6-0.2,3-0.5,3.9c-0.3,1-0.8,1.8-1.4,2.4c-0.2,0.2-0.5,0.4-0.8,0.5c-0.3,0.1-0.5,0.2-0.8,0.3
			c-0.2,0.1-0.5,0.1-0.7,0.2c-0.2,0-0.4,0-0.6,0c-0.5,0-0.9-0.1-1.3-0.2c-0.4-0.1-0.7-0.3-1-0.5c-0.3-0.2-0.6-0.5-0.8-0.7
			c-0.2-0.3-0.4-0.6-0.6-0.9c-0.2-0.5-0.4-1-0.6-1.8C52.5,219.2,52.4,218.2,52.4,216.9z M54.3,216.8c0,0.8,0,1.5,0.1,2.2
			c0.1,0.7,0.2,1.2,0.4,1.7c0.2,0.5,0.5,0.9,0.8,1.2c0.3,0.3,0.8,0.4,1.3,0.4c0.6,0,1-0.2,1.4-0.5c0.4-0.3,0.6-0.8,0.8-1.3
			s0.3-1.1,0.4-1.8c0.1-0.6,0.1-1.3,0.1-1.9c0-0.8,0-1.6-0.1-2.3s-0.2-1.3-0.4-1.8c-0.2-0.5-0.5-0.9-0.8-1.2
			c-0.3-0.3-0.8-0.4-1.3-0.4c-0.6,0-1.1,0.2-1.5,0.5c-0.4,0.4-0.6,0.8-0.8,1.4c-0.2,0.5-0.3,1.2-0.4,1.8
			C54.3,215.6,54.3,216.2,54.3,216.8z"/>
	</g>
	<g class="st1">
		<path d="M43.3,267.1c0,0.7,0.2,1.2,0.6,1.6s1.1,0.6,1.9,0.6c0.5,0,0.9-0.1,1.2-0.2c0.4-0.1,0.6-0.3,0.9-0.6
			c0.2-0.2,0.4-0.5,0.5-0.8c0.1-0.3,0.2-0.6,0.2-0.9c0-0.4-0.1-0.7-0.2-1c-0.1-0.3-0.3-0.5-0.4-0.7c-0.2-0.2-0.4-0.4-0.6-0.5
			c-0.2-0.1-0.5-0.2-0.7-0.3c-0.4-0.1-0.7-0.1-1-0.1s-0.6,0-1,0v-1.6c0.3,0,0.7,0,1.2,0s0.8-0.1,1.2-0.3c0.4-0.2,0.7-0.4,1-0.8
			c0.3-0.3,0.4-0.8,0.4-1.3c0-0.8-0.2-1.3-0.7-1.7s-1-0.5-1.7-0.5c-0.3,0-0.5,0-0.8,0.1c-0.3,0.1-0.5,0.2-0.8,0.4
			c-0.2,0.2-0.4,0.4-0.6,0.7s-0.3,0.6-0.3,1.1h-2c0-0.9,0.2-1.5,0.6-2c0.4-0.5,0.8-0.9,1.3-1.1c0.5-0.3,1-0.4,1.5-0.5
			s0.9-0.1,1.2-0.1c0.8,0,1.4,0.1,2,0.3c0.6,0.2,1,0.5,1.4,0.8c0.4,0.4,0.7,0.8,0.8,1.2c0.2,0.4,0.3,0.9,0.3,1.4
			c0,0.3,0,0.6-0.1,0.9c-0.1,0.3-0.2,0.7-0.5,1c-0.2,0.3-0.5,0.6-0.9,0.8c-0.4,0.2-0.8,0.4-1.3,0.6c0.7,0.1,1.3,0.3,1.7,0.7
			c0.4,0.3,0.7,0.7,0.9,1.1s0.3,0.7,0.3,1c0,0.3,0.1,0.5,0.1,0.6c0,0.5-0.1,1-0.3,1.5c-0.2,0.5-0.5,0.9-0.9,1.3s-0.9,0.7-1.5,1
			c-0.6,0.2-1.3,0.4-2.1,0.4c-0.7,0-1.4-0.1-2.1-0.3c-0.7-0.2-1.2-0.6-1.7-1.1c-0.2-0.2-0.4-0.4-0.5-0.7c-0.1-0.2-0.2-0.5-0.2-0.7
			c-0.1-0.2-0.1-0.4-0.1-0.6s0-0.4,0-0.5H43.3z"/>
		<path d="M52.4,263.9c0-0.3,0-0.8,0-1.3s0.1-1,0.2-1.6s0.2-1.1,0.4-1.6s0.5-1,0.8-1.5s0.8-0.8,1.3-1s1.1-0.4,1.9-0.4
			c0.7,0,1.3,0.1,1.8,0.3c0.5,0.2,0.9,0.5,1.3,0.9c0.3,0.4,0.6,0.8,0.8,1.3c0.2,0.5,0.4,1,0.5,1.5c0.1,0.5,0.2,1,0.2,1.6
			s0.1,1,0.1,1.4c0,1.6-0.2,3-0.5,3.9c-0.3,1-0.8,1.8-1.4,2.4c-0.2,0.2-0.5,0.4-0.8,0.5c-0.3,0.1-0.5,0.2-0.8,0.3
			c-0.2,0.1-0.5,0.1-0.7,0.2c-0.2,0-0.4,0-0.6,0c-0.5,0-0.9-0.1-1.3-0.2c-0.4-0.1-0.7-0.3-1-0.5c-0.3-0.2-0.6-0.5-0.8-0.7
			c-0.2-0.3-0.4-0.6-0.6-0.9c-0.2-0.5-0.4-1-0.6-1.8C52.5,266.2,52.4,265.2,52.4,263.9z M54.3,263.8c0,0.8,0,1.5,0.1,2.2
			c0.1,0.7,0.2,1.2,0.4,1.7c0.2,0.5,0.5,0.9,0.8,1.2c0.3,0.3,0.8,0.4,1.3,0.4c0.6,0,1-0.2,1.4-0.5c0.4-0.3,0.6-0.8,0.8-1.3
			s0.3-1.1,0.4-1.8c0.1-0.6,0.1-1.3,0.1-1.9c0-0.8,0-1.6-0.1-2.3s-0.2-1.3-0.4-1.8c-0.2-0.5-0.5-0.9-0.8-1.2
			c-0.3-0.3-0.8-0.4-1.3-0.4c-0.6,0-1.1,0.2-1.5,0.5c-0.4,0.4-0.6,0.8-0.8,1.4c-0.2,0.5-0.3,1.2-0.4,1.8
			C54.3,262.6,54.3,263.2,54.3,263.8z"/>
	</g>
	<g class="st1">
		<path d="M47.2,312.7h-6.2v-2.4l6-8.6h2.2v9.4h2v1.6h-2v3h-1.9V312.7z M47.2,311.1v-7.3l-4.8,7.3H47.2z"/>
		<path d="M52.4,308.9c0-0.3,0-0.8,0-1.3s0.1-1,0.2-1.6s0.2-1.1,0.4-1.6s0.5-1,0.8-1.5s0.8-0.8,1.3-1s1.1-0.4,1.9-0.4
			c0.7,0,1.3,0.1,1.8,0.3c0.5,0.2,0.9,0.5,1.3,0.9c0.3,0.4,0.6,0.8,0.8,1.3c0.2,0.5,0.4,1,0.5,1.5c0.1,0.5,0.2,1,0.2,1.6
			s0.1,1,0.1,1.4c0,1.6-0.2,3-0.5,3.9c-0.3,1-0.8,1.8-1.4,2.4c-0.2,0.2-0.5,0.4-0.8,0.5c-0.3,0.1-0.5,0.2-0.8,0.3
			c-0.2,0.1-0.5,0.1-0.7,0.2c-0.2,0-0.4,0-0.6,0c-0.5,0-0.9-0.1-1.3-0.2c-0.4-0.1-0.7-0.3-1-0.5c-0.3-0.2-0.6-0.5-0.8-0.7
			c-0.2-0.3-0.4-0.6-0.6-0.9c-0.2-0.5-0.4-1-0.6-1.8C52.5,311.2,52.4,310.2,52.4,308.9z M54.3,308.8c0,0.8,0,1.5,0.1,2.2
			c0.1,0.7,0.2,1.2,0.4,1.7c0.2,0.5,0.5,0.9,0.8,1.2c0.3,0.3,0.8,0.4,1.3,0.4c0.6,0,1-0.2,1.4-0.5c0.4-0.3,0.6-0.8,0.8-1.3
			s0.3-1.1,0.4-1.8c0.1-0.6,0.1-1.3,0.1-1.9c0-0.8,0-1.6-0.1-2.3s-0.2-1.3-0.4-1.8c-0.2-0.5-0.5-0.9-0.8-1.2
			c-0.3-0.3-0.8-0.4-1.3-0.4c-0.6,0-1.1,0.2-1.5,0.5c-0.4,0.4-0.6,0.8-0.8,1.4c-0.2,0.5-0.3,1.2-0.4,1.8
			C54.3,307.6,54.3,308.2,54.3,308.8z"/>
	</g>
	<g class="st1">
		<path d="M43.6,360.8c0,0.3,0.1,0.6,0.2,0.9c0.1,0.2,0.3,0.4,0.5,0.6c0.2,0.2,0.5,0.3,0.7,0.4c0.3,0.1,0.5,0.1,0.8,0.1
			c0.6,0,1.1-0.1,1.5-0.4c0.4-0.2,0.6-0.5,0.8-0.9c0.2-0.3,0.3-0.7,0.4-1s0.1-0.7,0.1-0.9c0-0.9-0.2-1.7-0.7-2.2
			c-0.5-0.5-1.1-0.8-1.9-0.8c-0.4,0-0.8,0.1-1.1,0.2c-0.3,0.1-0.6,0.3-0.8,0.5s-0.4,0.4-0.4,0.6c-0.1,0.2-0.1,0.4-0.2,0.5h-1.8
			l0.4-8.2h7.8v1.6h-6.1l-0.3,4.5c0.1-0.1,0.2-0.2,0.4-0.4c0.2-0.1,0.4-0.3,0.6-0.4c0.2-0.1,0.5-0.2,0.8-0.3
			c0.3-0.1,0.7-0.1,1.1-0.1c0.7,0,1.3,0.1,1.8,0.4c0.5,0.3,1,0.6,1.3,1c0.3,0.4,0.6,0.9,0.8,1.5s0.3,1.1,0.3,1.7
			c0,0.7-0.1,1.3-0.4,1.9c-0.2,0.6-0.6,1.1-1,1.5s-0.9,0.8-1.5,1c-0.6,0.2-1.3,0.4-2,0.4c-0.6,0-1.1-0.1-1.6-0.2s-0.9-0.4-1.3-0.7
			c-0.4-0.3-0.7-0.7-0.9-1.1c-0.2-0.5-0.3-1-0.4-1.6H43.6z"/>
		<path d="M52.4,357.3c0-0.3,0-0.8,0-1.3s0.1-1,0.2-1.6s0.2-1.1,0.4-1.6s0.5-1,0.8-1.5s0.8-0.8,1.3-1s1.1-0.4,1.9-0.4
			c0.7,0,1.3,0.1,1.8,0.3c0.5,0.2,0.9,0.5,1.3,0.9c0.3,0.4,0.6,0.8,0.8,1.3c0.2,0.5,0.4,1,0.5,1.5c0.1,0.5,0.2,1,0.2,1.6
			s0.1,1,0.1,1.4c0,1.6-0.2,3-0.5,3.9c-0.3,1-0.8,1.8-1.4,2.4c-0.2,0.2-0.5,0.4-0.8,0.5c-0.3,0.1-0.5,0.2-0.8,0.3
			c-0.2,0.1-0.5,0.1-0.7,0.2c-0.2,0-0.4,0-0.6,0c-0.5,0-0.9-0.1-1.3-0.2c-0.4-0.1-0.7-0.3-1-0.5c-0.3-0.2-0.6-0.5-0.8-0.7
			c-0.2-0.3-0.4-0.6-0.6-0.9c-0.2-0.5-0.4-1-0.6-1.8C52.5,359.5,52.4,358.5,52.4,357.3z M54.3,357.2c0,0.8,0,1.5,0.1,2.2
			c0.1,0.7,0.2,1.2,0.4,1.7c0.2,0.5,0.5,0.9,0.8,1.2c0.3,0.3,0.8,0.4,1.3,0.4c0.6,0,1-0.2,1.4-0.5c0.4-0.3,0.6-0.8,0.8-1.3
			s0.3-1.1,0.4-1.8c0.1-0.6,0.1-1.3,0.1-1.9c0-0.8,0-1.6-0.1-2.3s-0.2-1.3-0.4-1.8c-0.2-0.5-0.5-0.9-0.8-1.2
			c-0.3-0.3-0.8-0.4-1.3-0.4c-0.6,0-1.1,0.2-1.5,0.5c-0.4,0.4-0.6,0.8-0.8,1.4c-0.2,0.5-0.3,1.2-0.4,1.8
			C54.3,355.9,54.3,356.6,54.3,357.2z"/>
	</g>
	<g class="st1">
		<path d="M48.5,402.1c0-0.4-0.1-0.7-0.2-1c-0.1-0.3-0.3-0.5-0.5-0.6c-0.2-0.2-0.4-0.3-0.7-0.3c-0.2-0.1-0.5-0.1-0.7-0.1
			c-1,0-1.7,0.4-2.2,1.3c-0.5,0.9-0.8,2.2-0.9,4.1c0.1-0.2,0.2-0.3,0.4-0.5c0.2-0.2,0.4-0.4,0.6-0.6c0.3-0.2,0.6-0.3,0.9-0.5
			c0.4-0.1,0.8-0.2,1.3-0.2c0.6,0,1.1,0.1,1.6,0.3c0.5,0.2,1,0.5,1.3,0.8c0.4,0.4,0.7,0.8,0.9,1.4c0.2,0.6,0.3,1.2,0.3,1.9
			c0,0.8-0.1,1.5-0.4,2.1c-0.3,0.6-0.6,1.1-1,1.5c-0.4,0.4-0.9,0.7-1.5,0.9s-1.1,0.3-1.7,0.3c-0.7,0-1.3-0.1-1.9-0.4
			s-1.1-0.6-1.5-1.1c-0.3-0.3-0.5-0.7-0.6-1.1c-0.2-0.4-0.3-0.8-0.4-1.3c-0.1-0.4-0.2-0.9-0.2-1.4s0-0.9,0-1.3c0-0.5,0-1,0.1-1.6
			c0.1-0.6,0.1-1.2,0.3-1.7s0.3-1.1,0.6-1.7c0.2-0.5,0.6-1,0.9-1.4s0.8-0.7,1.4-1c0.5-0.2,1.2-0.4,1.9-0.4c0.5,0,0.9,0,1.2,0.1
			c0.4,0.1,0.7,0.2,0.9,0.3c0.3,0.1,0.5,0.3,0.7,0.4c0.2,0.2,0.3,0.3,0.5,0.4c0.2,0.2,0.3,0.4,0.4,0.6c0.1,0.2,0.2,0.4,0.2,0.6
			c0,0.2,0.1,0.4,0.1,0.6c0,0.2,0,0.3,0,0.5H48.5z M46.2,411.5c0.3,0,0.6-0.1,0.9-0.2c0.3-0.1,0.6-0.3,0.9-0.6
			c0.3-0.3,0.5-0.6,0.6-1c0.2-0.4,0.2-0.9,0.2-1.4c0-0.2,0-0.5-0.1-0.9s-0.2-0.7-0.4-1c-0.2-0.3-0.4-0.6-0.8-0.8s-0.8-0.3-1.4-0.3
			c-0.5,0-0.9,0.1-1.2,0.3c-0.3,0.2-0.6,0.4-0.9,0.7c-0.2,0.3-0.4,0.6-0.5,1c-0.1,0.4-0.2,0.8-0.2,1.2c0,0.5,0.1,0.9,0.2,1.2
			s0.3,0.7,0.6,1c0.2,0.3,0.5,0.5,0.8,0.6S45.8,411.5,46.2,411.5z"/>
		<path d="M52.4,405.9c0-0.3,0-0.8,0-1.3s0.1-1,0.2-1.6s0.2-1.1,0.4-1.6s0.5-1,0.8-1.5s0.8-0.8,1.3-1s1.1-0.4,1.9-0.4
			c0.7,0,1.3,0.1,1.8,0.3c0.5,0.2,0.9,0.5,1.3,0.9c0.3,0.4,0.6,0.8,0.8,1.3c0.2,0.5,0.4,1,0.5,1.5c0.1,0.5,0.2,1,0.2,1.6
			s0.1,1,0.1,1.4c0,1.6-0.2,3-0.5,3.9c-0.3,1-0.8,1.8-1.4,2.4c-0.2,0.2-0.5,0.4-0.8,0.5c-0.3,0.1-0.5,0.2-0.8,0.3
			c-0.2,0.1-0.5,0.1-0.7,0.2c-0.2,0-0.4,0-0.6,0c-0.5,0-0.9-0.1-1.3-0.2c-0.4-0.1-0.7-0.3-1-0.5c-0.3-0.2-0.6-0.5-0.8-0.7
			c-0.2-0.3-0.4-0.6-0.6-0.9c-0.2-0.5-0.4-1-0.6-1.8C52.5,408.2,52.4,407.2,52.4,405.9z M54.3,405.8c0,0.8,0,1.5,0.1,2.2
			c0.1,0.7,0.2,1.2,0.4,1.7c0.2,0.5,0.5,0.9,0.8,1.2c0.3,0.3,0.8,0.4,1.3,0.4c0.6,0,1-0.2,1.4-0.5c0.4-0.3,0.6-0.8,0.8-1.3
			s0.3-1.1,0.4-1.8c0.1-0.6,0.1-1.3,0.1-1.9c0-0.8,0-1.6-0.1-2.3s-0.2-1.3-0.4-1.8c-0.2-0.5-0.5-0.9-0.8-1.2
			c-0.3-0.3-0.8-0.4-1.3-0.4c-0.6,0-1.1,0.2-1.5,0.5c-0.4,0.4-0.6,0.8-0.8,1.4c-0.2,0.5-0.3,1.2-0.4,1.8
			C54.3,404.6,54.3,405.2,54.3,405.8z"/>
	</g>
	<g class="st1">
		<path d="M41.1,444.5h9.1v1.7l-5.1,12.2h-2.3l5.3-12.2h-7.1V444.5z"/>
		<path d="M52.4,451.6c0-0.3,0-0.8,0-1.3s0.1-1,0.2-1.6s0.2-1.1,0.4-1.6s0.5-1,0.8-1.5s0.8-0.8,1.3-1s1.1-0.4,1.9-0.4
			c0.7,0,1.3,0.1,1.8,0.3c0.5,0.2,0.9,0.5,1.3,0.9c0.3,0.4,0.6,0.8,0.8,1.3c0.2,0.5,0.4,1,0.5,1.5c0.1,0.5,0.2,1,0.2,1.6
			s0.1,1,0.1,1.4c0,1.6-0.2,3-0.5,3.9c-0.3,1-0.8,1.8-1.4,2.4c-0.2,0.2-0.5,0.4-0.8,0.5c-0.3,0.1-0.5,0.2-0.8,0.3
			c-0.2,0.1-0.5,0.1-0.7,0.2c-0.2,0-0.4,0-0.6,0c-0.5,0-0.9-0.1-1.3-0.2c-0.4-0.1-0.7-0.3-1-0.5c-0.3-0.2-0.6-0.5-0.8-0.7
			c-0.2-0.3-0.4-0.6-0.6-0.9c-0.2-0.5-0.4-1-0.6-1.8C52.5,453.8,52.4,452.9,52.4,451.6z M54.3,451.5c0,0.8,0,1.5,0.1,2.2
			c0.1,0.7,0.2,1.2,0.4,1.7c0.2,0.5,0.5,0.9,0.8,1.2c0.3,0.3,0.8,0.4,1.3,0.4c0.6,0,1-0.2,1.4-0.5c0.4-0.3,0.6-0.8,0.8-1.3
			s0.3-1.1,0.4-1.8c0.1-0.6,0.1-1.3,0.1-1.9c0-0.8,0-1.6-0.1-2.3s-0.2-1.3-0.4-1.8c-0.2-0.5-0.5-0.9-0.8-1.2
			c-0.3-0.3-0.8-0.4-1.3-0.4c-0.6,0-1.1,0.2-1.5,0.5c-0.4,0.4-0.6,0.8-0.8,1.4c-0.2,0.5-0.3,1.2-0.4,1.8
			C54.3,450.3,54.3,450.9,54.3,451.5z"/>
	</g>
	<g class="st1">
		<path d="M44.2,501.7c-0.9-0.2-1.6-0.6-2.1-1.2c-0.5-0.6-0.7-1.2-0.7-1.9c0-0.3,0.1-0.7,0.2-1.1c0.1-0.4,0.4-0.8,0.7-1.2
			c0.3-0.4,0.8-0.7,1.4-1s1.3-0.4,2.2-0.4c0.7,0,1.4,0.1,2,0.3c0.6,0.2,1,0.4,1.4,0.8c0.4,0.3,0.7,0.7,0.9,1.2
			c0.2,0.4,0.3,0.9,0.3,1.5c0,0.3-0.1,0.7-0.2,1c-0.1,0.3-0.3,0.6-0.5,0.9c-0.2,0.3-0.5,0.5-0.9,0.7c-0.4,0.2-0.8,0.4-1.3,0.4
			c0.2,0.1,0.5,0.1,0.8,0.3s0.7,0.3,1,0.6c0.3,0.3,0.6,0.6,0.8,1c0.2,0.4,0.4,1,0.4,1.6c0,0.5-0.1,1-0.3,1.4
			c-0.2,0.5-0.4,0.9-0.8,1.3c-0.4,0.4-0.9,0.7-1.5,1c-0.6,0.2-1.3,0.4-2.2,0.4c-0.6,0-1.2-0.1-1.9-0.2s-1.2-0.5-1.7-0.9
			c-0.4-0.3-0.7-0.8-0.9-1.3c-0.2-0.5-0.3-1-0.3-1.5c0-0.5,0.1-0.9,0.3-1.4c0.2-0.4,0.4-0.8,0.8-1.2c0.3-0.3,0.7-0.6,1-0.7
			C43.6,502,43.9,501.8,44.2,501.7z M43.1,505.2c0,0.3,0,0.5,0.1,0.8s0.2,0.6,0.5,0.8c0.2,0.3,0.5,0.5,0.9,0.6
			c0.4,0.2,0.8,0.2,1.3,0.2c0.6,0,1-0.1,1.4-0.3c0.4-0.2,0.6-0.4,0.8-0.7c0.2-0.3,0.4-0.5,0.4-0.8c0.1-0.3,0.1-0.6,0.1-0.9
			c0-0.8-0.3-1.4-0.8-1.8c-0.5-0.5-1.2-0.7-2-0.7c-0.4,0-0.8,0.1-1.2,0.2c-0.3,0.1-0.6,0.3-0.9,0.5c-0.2,0.2-0.4,0.5-0.6,0.8
			C43.2,504.5,43.1,504.8,43.1,505.2z M48.6,498.6c0-0.6-0.2-1.2-0.7-1.6c-0.4-0.4-1.1-0.6-1.9-0.6c-0.4,0-0.7,0.1-1,0.2
			s-0.6,0.3-0.8,0.4c-0.2,0.2-0.4,0.4-0.5,0.7c-0.1,0.3-0.2,0.6-0.2,0.9c0,0.3,0.1,0.6,0.2,0.9c0.1,0.3,0.3,0.5,0.5,0.7
			c0.2,0.2,0.5,0.4,0.8,0.5c0.3,0.1,0.7,0.2,1,0.2c0.8,0,1.4-0.2,1.9-0.6C48.3,499.8,48.6,499.3,48.6,498.6z"/>
		<path d="M52.4,502.3c0-0.3,0-0.8,0-1.3s0.1-1,0.2-1.6s0.2-1.1,0.4-1.6s0.5-1,0.8-1.5s0.8-0.8,1.3-1s1.1-0.4,1.9-0.4
			c0.7,0,1.3,0.1,1.8,0.3c0.5,0.2,0.9,0.5,1.3,0.9c0.3,0.4,0.6,0.8,0.8,1.3c0.2,0.5,0.4,1,0.5,1.5c0.1,0.5,0.2,1,0.2,1.6
			s0.1,1,0.1,1.4c0,1.6-0.2,3-0.5,3.9c-0.3,1-0.8,1.8-1.4,2.4c-0.2,0.2-0.5,0.4-0.8,0.5c-0.3,0.1-0.5,0.2-0.8,0.3
			c-0.2,0.1-0.5,0.1-0.7,0.2c-0.2,0-0.4,0-0.6,0c-0.5,0-0.9-0.1-1.3-0.2c-0.4-0.1-0.7-0.3-1-0.5c-0.3-0.2-0.6-0.5-0.8-0.7
			c-0.2-0.3-0.4-0.6-0.6-0.9c-0.2-0.5-0.4-1-0.6-1.8C52.5,504.5,52.4,503.5,52.4,502.3z M54.3,502.2c0,0.8,0,1.5,0.1,2.2
			c0.1,0.7,0.2,1.2,0.4,1.7c0.2,0.5,0.5,0.9,0.8,1.2c0.3,0.3,0.8,0.4,1.3,0.4c0.6,0,1-0.2,1.4-0.5c0.4-0.3,0.6-0.8,0.8-1.3
			s0.3-1.1,0.4-1.8c0.1-0.6,0.1-1.3,0.1-1.9c0-0.8,0-1.6-0.1-2.3s-0.2-1.3-0.4-1.8c-0.2-0.5-0.5-0.9-0.8-1.2
			c-0.3-0.3-0.8-0.4-1.3-0.4c-0.6,0-1.1,0.2-1.5,0.5c-0.4,0.4-0.6,0.8-0.8,1.4c-0.2,0.5-0.3,1.2-0.4,1.8
			C54.3,500.9,54.3,501.6,54.3,502.2z"/>
	</g>
	<g class="st1">
		<path d="M43.4,551.7c0,0.6,0.2,1.1,0.5,1.5s0.9,0.6,1.7,0.6c0.8,0,1.3-0.2,1.8-0.6c0.4-0.4,0.7-0.9,0.9-1.5
			c0.2-0.6,0.3-1.2,0.3-1.9c0-0.7,0-1.3,0-1.8c-0.2,0.3-0.4,0.6-0.6,0.8c-0.2,0.2-0.5,0.4-0.8,0.5c-0.3,0.1-0.6,0.2-0.9,0.3
			c-0.3,0.1-0.6,0.1-0.8,0.1c-0.5,0-1.1-0.1-1.6-0.3s-1-0.5-1.3-0.8c-0.4-0.4-0.7-0.8-0.9-1.4c-0.2-0.5-0.4-1.2-0.4-1.9
			c0-0.8,0.1-1.5,0.4-2c0.3-0.6,0.6-1,1-1.4c0.4-0.4,0.9-0.6,1.4-0.8c0.5-0.2,1.1-0.2,1.6-0.2c0.4,0,0.8,0,1.2,0.1
			c0.4,0.1,0.9,0.3,1.3,0.5c0.4,0.2,0.8,0.6,1.2,1c0.4,0.4,0.6,1,0.8,1.7c0.1,0.4,0.2,0.9,0.3,1.5c0.1,0.6,0.1,1.3,0.1,2.2
			c0,0.3,0,0.8,0,1.2c0,0.5-0.1,1-0.2,1.6c-0.1,0.5-0.3,1.1-0.5,1.6c-0.2,0.5-0.5,1-0.9,1.4s-0.9,0.8-1.4,1
			c-0.6,0.3-1.3,0.4-2.1,0.4c-0.5,0-0.9-0.1-1.4-0.2c-0.5-0.1-0.9-0.3-1.3-0.6c-0.4-0.3-0.7-0.6-1-1.1s-0.4-1.1-0.4-1.8H43.4z
			 M48.4,545.4c0-0.5-0.1-0.9-0.2-1.3c-0.1-0.4-0.3-0.7-0.6-0.9c-0.3-0.2-0.5-0.4-0.9-0.6c-0.3-0.1-0.6-0.2-1-0.2
			c-0.4,0-0.8,0.1-1.1,0.2c-0.3,0.2-0.6,0.4-0.8,0.6c-0.2,0.3-0.4,0.6-0.5,0.9c-0.1,0.4-0.2,0.7-0.2,1.2c0,0.9,0.2,1.6,0.7,2.1
			c0.5,0.5,1.1,0.7,1.9,0.7c0.8,0,1.4-0.3,1.9-0.8C48.1,547,48.4,546.3,48.4,545.4z"/>
		<path d="M52.4,548.3c0-0.3,0-0.8,0-1.3s0.1-1,0.2-1.6s0.2-1.1,0.4-1.6s0.5-1,0.8-1.5s0.8-0.8,1.3-1s1.1-0.4,1.9-0.4
			c0.7,0,1.3,0.1,1.8,0.3c0.5,0.2,0.9,0.5,1.3,0.9c0.3,0.4,0.6,0.8,0.8,1.3c0.2,0.5,0.4,1,0.5,1.5c0.1,0.5,0.2,1,0.2,1.6
			s0.1,1,0.1,1.4c0,1.6-0.2,3-0.5,3.9c-0.3,1-0.8,1.8-1.4,2.4c-0.2,0.2-0.5,0.4-0.8,0.5c-0.3,0.1-0.5,0.2-0.8,0.3
			c-0.2,0.1-0.5,0.1-0.7,0.2c-0.2,0-0.4,0-0.6,0c-0.5,0-0.9-0.1-1.3-0.2c-0.4-0.1-0.7-0.3-1-0.5c-0.3-0.2-0.6-0.5-0.8-0.7
			c-0.2-0.3-0.4-0.6-0.6-0.9c-0.2-0.5-0.4-1-0.6-1.8C52.5,550.5,52.4,549.5,52.4,548.3z M54.3,548.2c0,0.8,0,1.5,0.1,2.2
			c0.1,0.7,0.2,1.2,0.4,1.7c0.2,0.5,0.5,0.9,0.8,1.2c0.3,0.3,0.8,0.4,1.3,0.4c0.6,0,1-0.2,1.4-0.5c0.4-0.3,0.6-0.8,0.8-1.3
			s0.3-1.1,0.4-1.8c0.1-0.6,0.1-1.3,0.1-1.9c0-0.8,0-1.6-0.1-2.3s-0.2-1.3-0.4-1.8c-0.2-0.5-0.5-0.9-0.8-1.2
			c-0.3-0.3-0.8-0.4-1.3-0.4c-0.6,0-1.1,0.2-1.5,0.5c-0.4,0.4-0.6,0.8-0.8,1.4c-0.2,0.5-0.3,1.2-0.4,1.8
			C54.3,546.9,54.3,547.6,54.3,548.2z"/>
	</g>
	<g class="st1">
		<path d="M36.1,590.4c-0.2,0.2-0.5,0.4-0.7,0.6c-0.3,0.2-0.6,0.4-0.8,0.5c-0.3,0.2-0.6,0.3-0.9,0.5c-0.3,0.2-0.6,0.3-0.8,0.4v-2
			c0.7-0.3,1.3-0.7,1.9-1.1s1.1-0.7,1.5-1.1H38V602h-1.9V590.4z"/>
		<path d="M41.7,595.3c0-0.3,0-0.8,0-1.3s0.1-1,0.2-1.6s0.2-1.1,0.4-1.6s0.5-1,0.8-1.5s0.8-0.8,1.3-1s1.1-0.4,1.9-0.4
			c0.7,0,1.3,0.1,1.8,0.3c0.5,0.2,0.9,0.5,1.3,0.9c0.3,0.4,0.6,0.8,0.8,1.3c0.2,0.5,0.4,1,0.5,1.5c0.1,0.5,0.2,1,0.2,1.6
			s0.1,1,0.1,1.4c0,1.6-0.2,3-0.5,3.9c-0.3,1-0.8,1.8-1.4,2.4c-0.2,0.2-0.5,0.4-0.8,0.5c-0.3,0.1-0.5,0.2-0.8,0.3
			c-0.2,0.1-0.5,0.1-0.7,0.2c-0.2,0-0.4,0-0.6,0c-0.5,0-0.9-0.1-1.3-0.2c-0.4-0.1-0.7-0.3-1-0.5c-0.3-0.2-0.6-0.5-0.8-0.7
			c-0.2-0.3-0.4-0.6-0.6-0.9c-0.2-0.5-0.4-1-0.6-1.8C41.8,597.5,41.7,596.5,41.7,595.3z M43.6,595.2c0,0.8,0,1.5,0.1,2.2
			c0.1,0.7,0.2,1.2,0.4,1.7c0.2,0.5,0.5,0.9,0.8,1.2c0.3,0.3,0.8,0.4,1.3,0.4c0.6,0,1-0.2,1.4-0.5c0.4-0.3,0.6-0.8,0.8-1.3
			s0.3-1.1,0.4-1.8c0.1-0.6,0.1-1.3,0.1-1.9c0-0.8,0-1.6-0.1-2.3s-0.2-1.3-0.4-1.8c-0.2-0.5-0.5-0.9-0.8-1.2
			c-0.3-0.3-0.8-0.4-1.3-0.4c-0.6,0-1.1,0.2-1.5,0.5c-0.4,0.4-0.6,0.8-0.8,1.4c-0.2,0.5-0.3,1.2-0.4,1.8
			C43.7,593.9,43.6,594.6,43.6,595.2z"/>
		<path d="M52.8,595.3c0-0.3,0-0.8,0-1.3s0.1-1,0.2-1.6s0.2-1.1,0.4-1.6s0.5-1,0.8-1.5s0.8-0.8,1.3-1s1.1-0.4,1.9-0.4
			c0.7,0,1.3,0.1,1.8,0.3c0.5,0.2,0.9,0.5,1.3,0.9c0.3,0.4,0.6,0.8,0.8,1.3c0.2,0.5,0.4,1,0.5,1.5c0.1,0.5,0.2,1,0.2,1.6
			s0.1,1,0.1,1.4c0,1.6-0.2,3-0.5,3.9c-0.3,1-0.8,1.8-1.4,2.4c-0.2,0.2-0.5,0.4-0.8,0.5c-0.3,0.1-0.5,0.2-0.8,0.3
			c-0.2,0.1-0.5,0.1-0.7,0.2c-0.2,0-0.4,0-0.6,0c-0.5,0-0.9-0.1-1.3-0.2c-0.4-0.1-0.7-0.3-1-0.5c-0.3-0.2-0.6-0.5-0.8-0.7
			c-0.2-0.3-0.4-0.6-0.6-0.9c-0.2-0.5-0.4-1-0.6-1.8C52.9,597.5,52.8,596.5,52.8,595.3z M54.8,595.2c0,0.8,0,1.5,0.1,2.2
			c0.1,0.7,0.2,1.2,0.4,1.7c0.2,0.5,0.5,0.9,0.8,1.2c0.3,0.3,0.8,0.4,1.3,0.4c0.6,0,1-0.2,1.4-0.5c0.4-0.3,0.6-0.8,0.8-1.3
			s0.3-1.1,0.4-1.8c0.1-0.6,0.1-1.3,0.1-1.9c0-0.8,0-1.6-0.1-2.3s-0.2-1.3-0.4-1.8c-0.2-0.5-0.5-0.9-0.8-1.2
			c-0.3-0.3-0.8-0.4-1.3-0.4c-0.6,0-1.1,0.2-1.5,0.5c-0.4,0.4-0.6,0.8-0.8,1.4c-0.2,0.5-0.3,1.2-0.4,1.8
			C54.8,593.9,54.8,594.6,54.8,595.2z"/>
	</g>
	<g class="st1">
		<path d="M37.2,638c-0.2,0.2-0.5,0.4-0.7,0.6c-0.3,0.2-0.6,0.4-0.8,0.5c-0.3,0.2-0.6,0.3-0.9,0.5c-0.3,0.2-0.6,0.3-0.8,0.4v-2
			c0.7-0.3,1.3-0.7,1.9-1.1s1.1-0.7,1.5-1.1h1.8v13.8h-1.9V638z"/>
		<path d="M45.6,638c-0.2,0.2-0.5,0.4-0.7,0.6c-0.3,0.2-0.6,0.4-0.8,0.5c-0.3,0.2-0.6,0.3-0.9,0.5c-0.3,0.2-0.6,0.3-0.8,0.4v-2
			c0.7-0.3,1.3-0.7,1.9-1.1s1.1-0.7,1.5-1.1h1.8v13.8h-1.9V638z"/>
		<path d="M51.2,642.9c0-0.3,0-0.8,0-1.3s0.1-1,0.2-1.6s0.2-1.1,0.4-1.6s0.5-1,0.8-1.5s0.8-0.8,1.3-1s1.1-0.4,1.9-0.4
			c0.7,0,1.3,0.1,1.8,0.3c0.5,0.2,0.9,0.5,1.3,0.9c0.3,0.4,0.6,0.8,0.8,1.3c0.2,0.5,0.4,1,0.5,1.5c0.1,0.5,0.2,1,0.2,1.6
			s0.1,1,0.1,1.4c0,1.6-0.2,3-0.5,3.9c-0.3,1-0.8,1.8-1.4,2.4c-0.2,0.2-0.5,0.4-0.8,0.5c-0.3,0.1-0.5,0.2-0.8,0.3
			c-0.2,0.1-0.5,0.1-0.7,0.2c-0.2,0-0.4,0-0.6,0c-0.5,0-0.9-0.1-1.3-0.2c-0.4-0.1-0.7-0.3-1-0.5c-0.3-0.2-0.6-0.5-0.8-0.7
			c-0.2-0.3-0.4-0.6-0.6-0.9c-0.2-0.5-0.4-1-0.6-1.8C51.3,645.2,51.2,644.2,51.2,642.9z M53.2,642.8c0,0.8,0,1.5,0.1,2.2
			c0.1,0.7,0.2,1.2,0.4,1.7c0.2,0.5,0.5,0.9,0.8,1.2c0.3,0.3,0.8,0.4,1.3,0.4c0.6,0,1-0.2,1.4-0.5c0.4-0.3,0.6-0.8,0.8-1.3
			s0.3-1.1,0.4-1.8c0.1-0.6,0.1-1.3,0.1-1.9c0-0.8,0-1.6-0.1-2.3s-0.2-1.3-0.4-1.8c-0.2-0.5-0.5-0.9-0.8-1.2
			c-0.3-0.3-0.8-0.4-1.3-0.4c-0.6,0-1.1,0.2-1.5,0.5c-0.4,0.4-0.6,0.8-0.8,1.4c-0.2,0.5-0.3,1.2-0.4,1.8
			C53.2,641.6,53.2,642.2,53.2,642.8z"/>
	</g>
	<g class="st1">
		<path d="M211.2,54.4c0,0.3,0.1,0.6,0.2,0.9c0.1,0.2,0.3,0.4,0.5,0.6c0.2,0.2,0.5,0.3,0.7,0.4c0.3,0.1,0.5,0.1,0.8,0.1
			c0.6,0,1.1-0.1,1.5-0.4c0.4-0.2,0.6-0.5,0.8-0.9c0.2-0.3,0.3-0.7,0.4-1s0.1-0.7,0.1-0.9c0-0.9-0.2-1.7-0.7-2.2
			c-0.5-0.5-1.1-0.8-1.9-0.8c-0.4,0-0.8,0.1-1.1,0.2c-0.3,0.1-0.6,0.3-0.8,0.5s-0.4,0.4-0.4,0.6c-0.1,0.2-0.1,0.4-0.2,0.5h-1.8
			l0.4-8.2h7.8v1.6h-6.1l-0.3,4.5c0.1-0.1,0.2-0.2,0.4-0.4c0.2-0.1,0.4-0.3,0.6-0.4c0.2-0.1,0.5-0.2,0.8-0.3
			c0.3-0.1,0.7-0.1,1.1-0.1c0.7,0,1.3,0.1,1.8,0.4c0.5,0.3,1,0.6,1.3,1c0.3,0.4,0.6,0.9,0.8,1.5s0.3,1.1,0.3,1.7
			c0,0.7-0.1,1.3-0.4,1.9c-0.2,0.6-0.6,1.1-1,1.5s-0.9,0.8-1.5,1c-0.6,0.2-1.3,0.4-2,0.4c-0.6,0-1.1-0.1-1.6-0.2s-0.9-0.4-1.3-0.7
			c-0.4-0.3-0.7-0.7-0.9-1.1c-0.2-0.5-0.3-1-0.4-1.6H211.2z"/>
		<path d="M220,50.9c0-0.3,0-0.8,0-1.3s0.1-1,0.2-1.6s0.2-1.1,0.4-1.6s0.5-1,0.8-1.5s0.8-0.8,1.3-1s1.1-0.4,1.9-0.4
			c0.7,0,1.3,0.1,1.8,0.3c0.5,0.2,0.9,0.5,1.3,0.9c0.3,0.4,0.6,0.8,0.8,1.3c0.2,0.5,0.4,1,0.5,1.5c0.1,0.5,0.2,1,0.2,1.6
			s0.1,1,0.1,1.4c0,1.6-0.2,3-0.5,3.9c-0.3,1-0.8,1.8-1.4,2.4c-0.2,0.2-0.5,0.4-0.8,0.5c-0.3,0.1-0.5,0.2-0.8,0.3
			c-0.2,0.1-0.5,0.1-0.7,0.2c-0.2,0-0.4,0-0.6,0c-0.5,0-0.9-0.1-1.3-0.2c-0.4-0.1-0.7-0.3-1-0.5c-0.3-0.2-0.6-0.5-0.8-0.7
			c-0.2-0.3-0.4-0.6-0.6-0.9c-0.2-0.5-0.4-1-0.6-1.8C220.1,53.2,220,52.2,220,50.9z M221.9,50.8c0,0.8,0,1.5,0.1,2.2
			c0.1,0.7,0.2,1.2,0.4,1.7c0.2,0.5,0.5,0.9,0.8,1.2c0.3,0.3,0.8,0.4,1.3,0.4c0.6,0,1-0.2,1.4-0.5c0.4-0.3,0.6-0.8,0.8-1.3
			s0.3-1.1,0.4-1.8c0.1-0.6,0.1-1.3,0.1-1.9c0-0.8,0-1.6-0.1-2.3s-0.2-1.3-0.4-1.8c-0.2-0.5-0.5-0.9-0.8-1.2
			c-0.3-0.3-0.8-0.4-1.3-0.4c-0.6,0-1.1,0.2-1.5,0.5c-0.4,0.4-0.6,0.8-0.8,1.4c-0.2,0.5-0.3,1.2-0.4,1.8
			C222,49.6,221.9,50.2,221.9,50.8z"/>
		<path d="M231.1,50.9c0-0.3,0-0.8,0-1.3s0.1-1,0.2-1.6s0.2-1.1,0.4-1.6s0.5-1,0.8-1.5s0.8-0.8,1.3-1s1.1-0.4,1.9-0.4
			c0.7,0,1.3,0.1,1.8,0.3c0.5,0.2,0.9,0.5,1.3,0.9c0.3,0.4,0.6,0.8,0.8,1.3c0.2,0.5,0.4,1,0.5,1.5c0.1,0.5,0.2,1,0.2,1.6
			s0.1,1,0.1,1.4c0,1.6-0.2,3-0.5,3.9c-0.3,1-0.8,1.8-1.4,2.4c-0.2,0.2-0.5,0.4-0.8,0.5c-0.3,0.1-0.5,0.2-0.8,0.3
			c-0.2,0.1-0.5,0.1-0.7,0.2c-0.2,0-0.4,0-0.6,0c-0.5,0-0.9-0.1-1.3-0.2c-0.4-0.1-0.7-0.3-1-0.5c-0.3-0.2-0.6-0.5-0.8-0.7
			c-0.2-0.3-0.4-0.6-0.6-0.9c-0.2-0.5-0.4-1-0.6-1.8C231.2,53.2,231.1,52.2,231.1,50.9z M233.1,50.8c0,0.8,0,1.5,0.1,2.2
			c0.1,0.7,0.2,1.2,0.4,1.7c0.2,0.5,0.5,0.9,0.8,1.2c0.3,0.3,0.8,0.4,1.3,0.4c0.6,0,1-0.2,1.4-0.5c0.4-0.3,0.6-0.8,0.8-1.3
			s0.3-1.1,0.4-1.8c0.1-0.6,0.1-1.3,0.1-1.9c0-0.8,0-1.6-0.1-2.3s-0.2-1.3-0.4-1.8c-0.2-0.5-0.5-0.9-0.8-1.2
			c-0.3-0.3-0.8-0.4-1.3-0.4c-0.6,0-1.1,0.2-1.5,0.5c-0.4,0.4-0.6,0.8-0.8,1.4c-0.2,0.5-0.3,1.2-0.4,1.8
			C233.1,49.6,233.1,50.2,233.1,50.8z"/>
	</g>
	<g class="st1">
		<path d="M96.4,55.9l3.6-3.6c0.4-0.4,0.8-0.8,1.1-1.2c0.4-0.4,0.7-0.8,1-1.2c0.4-0.5,0.7-1,0.8-1.4c0.1-0.4,0.2-0.7,0.2-1.1
			c0-0.2,0-0.4-0.1-0.6c0-0.3-0.1-0.5-0.3-0.7c-0.2-0.2-0.4-0.4-0.7-0.6c-0.3-0.2-0.7-0.3-1.2-0.3c-0.6,0-1,0.1-1.3,0.3
			S99.2,46,99,46.2s-0.2,0.5-0.3,0.8c0,0.3,0,0.5,0,0.6h-2.1c0-0.2,0-0.4,0-0.6c0-0.2,0.1-0.5,0.2-0.8c0.1-0.3,0.2-0.5,0.4-0.8
			c0.2-0.3,0.4-0.6,0.7-0.8c0.5-0.4,1-0.7,1.5-0.8c0.5-0.1,1-0.2,1.5-0.2c0.5,0,1.1,0.1,1.6,0.2s1,0.4,1.4,0.7
			c0.4,0.3,0.7,0.7,1,1.2c0.2,0.5,0.4,1.1,0.4,1.9c0,0.2,0,0.4,0,0.6c0,0.2-0.1,0.4-0.2,0.7s-0.3,0.6-0.5,0.9
			c-0.2,0.3-0.5,0.7-0.9,1.2c-0.1,0.1-0.3,0.3-0.5,0.6c-0.2,0.3-0.5,0.5-0.8,0.8c-0.3,0.3-0.5,0.5-0.8,0.8c-0.2,0.3-0.4,0.4-0.5,0.5
			l-2.4,2.3h6.6v1.6h-8.8V55.9z"/>
		<path d="M109.7,54.4c0,0.3,0.1,0.6,0.2,0.9c0.1,0.2,0.3,0.4,0.5,0.6c0.2,0.2,0.5,0.3,0.7,0.4c0.3,0.1,0.5,0.1,0.8,0.1
			c0.6,0,1.1-0.1,1.5-0.4c0.4-0.2,0.6-0.5,0.8-0.9c0.2-0.3,0.3-0.7,0.4-1s0.1-0.7,0.1-0.9c0-0.9-0.2-1.7-0.7-2.2
			c-0.5-0.5-1.1-0.8-1.9-0.8c-0.4,0-0.8,0.1-1.1,0.2c-0.3,0.1-0.6,0.3-0.8,0.5s-0.4,0.4-0.4,0.6c-0.1,0.2-0.1,0.4-0.2,0.5h-1.8
			l0.4-8.2h7.8v1.6h-6.1l-0.3,4.5c0.1-0.1,0.2-0.2,0.4-0.4c0.2-0.1,0.4-0.3,0.6-0.4c0.2-0.1,0.5-0.2,0.8-0.3
			c0.3-0.1,0.7-0.1,1.1-0.1c0.7,0,1.3,0.1,1.8,0.4c0.5,0.3,1,0.6,1.3,1c0.3,0.4,0.6,0.9,0.8,1.5s0.3,1.1,0.3,1.7
			c0,0.7-0.1,1.3-0.4,1.9c-0.2,0.6-0.6,1.1-1,1.5s-0.9,0.8-1.5,1c-0.6,0.2-1.3,0.4-2,0.4c-0.6,0-1.1-0.1-1.6-0.2s-0.9-0.4-1.3-0.7
			c-0.4-0.3-0.7-0.7-0.9-1.1c-0.2-0.5-0.3-1-0.4-1.6H109.7z"/>
		<path d="M118.5,50.9c0-0.3,0-0.8,0-1.3s0.1-1,0.2-1.6s0.2-1.1,0.4-1.6s0.5-1,0.8-1.5s0.8-0.8,1.3-1s1.1-0.4,1.9-0.4
			c0.7,0,1.3,0.1,1.8,0.3c0.5,0.2,0.9,0.5,1.3,0.9c0.3,0.4,0.6,0.8,0.8,1.3c0.2,0.5,0.4,1,0.5,1.5c0.1,0.5,0.2,1,0.2,1.6
			s0.1,1,0.1,1.4c0,1.6-0.2,3-0.5,3.9c-0.3,1-0.8,1.8-1.4,2.4c-0.2,0.2-0.5,0.4-0.8,0.5c-0.3,0.1-0.5,0.2-0.8,0.3
			c-0.2,0.1-0.5,0.1-0.7,0.2c-0.2,0-0.4,0-0.6,0c-0.5,0-0.9-0.1-1.3-0.2c-0.4-0.1-0.7-0.3-1-0.5c-0.3-0.2-0.6-0.5-0.8-0.7
			c-0.2-0.3-0.4-0.6-0.6-0.9c-0.2-0.5-0.4-1-0.6-1.8C118.6,53.2,118.5,52.2,118.5,50.9z M120.4,50.8c0,0.8,0,1.5,0.1,2.2
			c0.1,0.7,0.2,1.2,0.4,1.7c0.2,0.5,0.5,0.9,0.8,1.2c0.3,0.3,0.8,0.4,1.3,0.4c0.6,0,1-0.2,1.4-0.5c0.4-0.3,0.6-0.8,0.8-1.3
			s0.3-1.1,0.4-1.8c0.1-0.6,0.1-1.3,0.1-1.9c0-0.8,0-1.6-0.1-2.3s-0.2-1.3-0.4-1.8c-0.2-0.5-0.5-0.9-0.8-1.2
			c-0.3-0.3-0.8-0.4-1.3-0.4c-0.6,0-1.1,0.2-1.5,0.5c-0.4,0.4-0.6,0.8-0.8,1.4c-0.2,0.5-0.3,1.2-0.4,1.8
			C120.4,49.6,120.4,50.2,120.4,50.8z"/>
	</g>
	<g class="st1">
		<path d="M264.7,43.9h9.1v1.7l-5.1,12.2h-2.3l5.3-12.2h-7.1V43.9z"/>
		<path d="M278.3,54.4c0,0.3,0.1,0.6,0.2,0.9c0.1,0.2,0.3,0.4,0.5,0.6c0.2,0.2,0.5,0.3,0.7,0.4c0.3,0.1,0.5,0.1,0.8,0.1
			c0.6,0,1.1-0.1,1.5-0.4c0.4-0.2,0.6-0.5,0.8-0.9c0.2-0.3,0.3-0.7,0.4-1s0.1-0.7,0.1-0.9c0-0.9-0.2-1.7-0.7-2.2
			c-0.5-0.5-1.1-0.8-1.9-0.8c-0.4,0-0.8,0.1-1.1,0.2c-0.3,0.1-0.6,0.3-0.8,0.5s-0.4,0.4-0.4,0.6c-0.1,0.2-0.1,0.4-0.2,0.5h-1.8
			l0.4-8.2h7.8v1.6h-6.1l-0.3,4.5c0.1-0.1,0.2-0.2,0.4-0.4c0.2-0.1,0.4-0.3,0.6-0.4c0.2-0.1,0.5-0.2,0.8-0.3
			c0.3-0.1,0.7-0.1,1.1-0.1c0.7,0,1.3,0.1,1.8,0.4c0.5,0.3,1,0.6,1.3,1c0.3,0.4,0.6,0.9,0.8,1.5s0.3,1.1,0.3,1.7
			c0,0.7-0.1,1.3-0.4,1.9c-0.2,0.6-0.6,1.1-1,1.5s-0.9,0.8-1.5,1c-0.6,0.2-1.3,0.4-2,0.4c-0.6,0-1.1-0.1-1.6-0.2s-0.9-0.4-1.3-0.7
			c-0.4-0.3-0.7-0.7-0.9-1.1c-0.2-0.5-0.3-1-0.4-1.6H278.3z"/>
		<path d="M287.1,50.9c0-0.3,0-0.8,0-1.3s0.1-1,0.2-1.6s0.2-1.1,0.4-1.6s0.5-1,0.8-1.5s0.8-0.8,1.3-1s1.1-0.4,1.9-0.4
			c0.7,0,1.3,0.1,1.8,0.3c0.5,0.2,0.9,0.5,1.3,0.9c0.3,0.4,0.6,0.8,0.8,1.3c0.2,0.5,0.4,1,0.5,1.5c0.1,0.5,0.2,1,0.2,1.6
			s0.1,1,0.1,1.4c0,1.6-0.2,3-0.5,3.9c-0.3,1-0.8,1.8-1.4,2.4c-0.2,0.2-0.5,0.4-0.8,0.5c-0.3,0.1-0.5,0.2-0.8,0.3
			c-0.2,0.1-0.5,0.1-0.7,0.2c-0.2,0-0.4,0-0.6,0c-0.5,0-0.9-0.1-1.3-0.2c-0.4-0.1-0.7-0.3-1-0.5c-0.3-0.2-0.6-0.5-0.8-0.7
			c-0.2-0.3-0.4-0.6-0.6-0.9c-0.2-0.5-0.4-1-0.6-1.8C287.2,53.2,287.1,52.2,287.1,50.9z M289.1,50.8c0,0.8,0,1.5,0.1,2.2
			c0.1,0.7,0.2,1.2,0.4,1.7c0.2,0.5,0.5,0.9,0.8,1.2c0.3,0.3,0.8,0.4,1.3,0.4c0.6,0,1-0.2,1.4-0.5c0.4-0.3,0.6-0.8,0.8-1.3
			s0.3-1.1,0.4-1.8c0.1-0.6,0.1-1.3,0.1-1.9c0-0.8,0-1.6-0.1-2.3s-0.2-1.3-0.4-1.8c-0.2-0.5-0.5-0.9-0.8-1.2
			c-0.3-0.3-0.8-0.4-1.3-0.4c-0.6,0-1.1,0.2-1.5,0.5c-0.4,0.4-0.6,0.8-0.8,1.4c-0.2,0.5-0.3,1.2-0.4,1.8
			C289.1,49.6,289.1,50.2,289.1,50.8z"/>
	</g>
	<g class="st1">
		<path d="M317.9,46c-0.2,0.2-0.5,0.4-0.7,0.6c-0.3,0.2-0.6,0.4-0.8,0.5c-0.3,0.2-0.6,0.3-0.9,0.5c-0.3,0.2-0.6,0.3-0.8,0.4v-2
			c0.7-0.3,1.3-0.7,1.9-1.1s1.1-0.7,1.5-1.1h1.8v13.8h-1.9V46z"/>
		<path d="M323.5,50.9c0-0.3,0-0.8,0-1.3s0.1-1,0.2-1.6s0.2-1.1,0.4-1.6s0.5-1,0.8-1.5s0.8-0.8,1.3-1s1.1-0.4,1.9-0.4
			c0.7,0,1.3,0.1,1.8,0.3c0.5,0.2,0.9,0.5,1.3,0.9c0.3,0.4,0.6,0.8,0.8,1.3c0.2,0.5,0.4,1,0.5,1.5c0.1,0.5,0.2,1,0.2,1.6
			s0.1,1,0.1,1.4c0,1.6-0.2,3-0.5,3.9c-0.3,1-0.8,1.8-1.4,2.4c-0.2,0.2-0.5,0.4-0.8,0.5c-0.3,0.1-0.5,0.2-0.8,0.3
			c-0.2,0.1-0.5,0.1-0.7,0.2c-0.2,0-0.4,0-0.6,0c-0.5,0-0.9-0.1-1.3-0.2c-0.4-0.1-0.7-0.3-1-0.5c-0.3-0.2-0.6-0.5-0.8-0.7
			c-0.2-0.3-0.4-0.6-0.6-0.9c-0.2-0.5-0.4-1-0.6-1.8C323.6,53.2,323.5,52.2,323.5,50.9z M325.4,50.8c0,0.8,0,1.5,0.1,2.2
			c0.1,0.7,0.2,1.2,0.4,1.7c0.2,0.5,0.5,0.9,0.8,1.2c0.3,0.3,0.8,0.4,1.3,0.4c0.6,0,1-0.2,1.4-0.5c0.4-0.3,0.6-0.8,0.8-1.3
			s0.3-1.1,0.4-1.8c0.1-0.6,0.1-1.3,0.1-1.9c0-0.8,0-1.6-0.1-2.3s-0.2-1.3-0.4-1.8c-0.2-0.5-0.5-0.9-0.8-1.2
			c-0.3-0.3-0.8-0.4-1.3-0.4c-0.6,0-1.1,0.2-1.5,0.5c-0.4,0.4-0.6,0.8-0.8,1.4c-0.2,0.5-0.3,1.2-0.4,1.8
			C325.5,49.6,325.4,50.2,325.4,50.8z"/>
		<path d="M334.6,50.9c0-0.3,0-0.8,0-1.3s0.1-1,0.2-1.6s0.2-1.1,0.4-1.6s0.5-1,0.8-1.5s0.8-0.8,1.3-1s1.1-0.4,1.9-0.4
			c0.7,0,1.3,0.1,1.8,0.3c0.5,0.2,0.9,0.5,1.3,0.9c0.3,0.4,0.6,0.8,0.8,1.3c0.2,0.5,0.4,1,0.5,1.5c0.1,0.5,0.2,1,0.2,1.6
			s0.1,1,0.1,1.4c0,1.6-0.2,3-0.5,3.9c-0.3,1-0.8,1.8-1.4,2.4c-0.2,0.2-0.5,0.4-0.8,0.5c-0.3,0.1-0.5,0.2-0.8,0.3
			c-0.2,0.1-0.5,0.1-0.7,0.2c-0.2,0-0.4,0-0.6,0c-0.5,0-0.9-0.1-1.3-0.2c-0.4-0.1-0.7-0.3-1-0.5c-0.3-0.2-0.6-0.5-0.8-0.7
			c-0.2-0.3-0.4-0.6-0.6-0.9c-0.2-0.5-0.4-1-0.6-1.8C334.7,53.2,334.6,52.2,334.6,50.9z M336.5,50.8c0,0.8,0,1.5,0.1,2.2
			c0.1,0.7,0.2,1.2,0.4,1.7c0.2,0.5,0.5,0.9,0.8,1.2c0.3,0.3,0.8,0.4,1.3,0.4c0.6,0,1-0.2,1.4-0.5c0.4-0.3,0.6-0.8,0.8-1.3
			s0.3-1.1,0.4-1.8c0.1-0.6,0.1-1.3,0.1-1.9c0-0.8,0-1.6-0.1-2.3s-0.2-1.3-0.4-1.8c-0.2-0.5-0.5-0.9-0.8-1.2
			c-0.3-0.3-0.8-0.4-1.3-0.4c-0.6,0-1.1,0.2-1.5,0.5c-0.4,0.4-0.6,0.8-0.8,1.4c-0.2,0.5-0.3,1.2-0.4,1.8
			C336.6,49.6,336.5,50.2,336.5,50.8z"/>
		<path d="M345.7,50.9c0-0.3,0-0.8,0-1.3s0.1-1,0.2-1.6s0.2-1.1,0.4-1.6s0.5-1,0.8-1.5s0.8-0.8,1.3-1s1.1-0.4,1.9-0.4
			c0.7,0,1.3,0.1,1.8,0.3c0.5,0.2,0.9,0.5,1.3,0.9c0.3,0.4,0.6,0.8,0.8,1.3c0.2,0.5,0.4,1,0.5,1.5c0.1,0.5,0.2,1,0.2,1.6
			s0.1,1,0.1,1.4c0,1.6-0.2,3-0.5,3.9c-0.3,1-0.8,1.8-1.4,2.4c-0.2,0.2-0.5,0.4-0.8,0.5c-0.3,0.1-0.5,0.2-0.8,0.3
			c-0.2,0.1-0.5,0.1-0.7,0.2c-0.2,0-0.4,0-0.6,0c-0.5,0-0.9-0.1-1.3-0.2c-0.4-0.1-0.7-0.3-1-0.5c-0.3-0.2-0.6-0.5-0.8-0.7
			c-0.2-0.3-0.4-0.6-0.6-0.9c-0.2-0.5-0.4-1-0.6-1.8C345.8,53.2,345.7,52.2,345.7,50.9z M347.7,50.8c0,0.8,0,1.5,0.1,2.2
			c0.1,0.7,0.2,1.2,0.4,1.7c0.2,0.5,0.5,0.9,0.8,1.2c0.3,0.3,0.8,0.4,1.3,0.4c0.6,0,1-0.2,1.4-0.5c0.4-0.3,0.6-0.8,0.8-1.3
			s0.3-1.1,0.4-1.8c0.1-0.6,0.1-1.3,0.1-1.9c0-0.8,0-1.6-0.1-2.3s-0.2-1.3-0.4-1.8c-0.2-0.5-0.5-0.9-0.8-1.2
			c-0.3-0.3-0.8-0.4-1.3-0.4c-0.6,0-1.1,0.2-1.5,0.5c-0.4,0.4-0.6,0.8-0.8,1.4c-0.2,0.5-0.3,1.2-0.4,1.8
			C347.7,49.6,347.7,50.2,347.7,50.8z"/>
	</g>
	<g class="st1">
		<path d="M373.9,46c-0.2,0.2-0.5,0.4-0.7,0.6c-0.3,0.2-0.6,0.4-0.8,0.5c-0.3,0.2-0.6,0.3-0.9,0.5c-0.3,0.2-0.6,0.3-0.8,0.4v-2
			c0.7-0.3,1.3-0.7,1.9-1.1s1.1-0.7,1.5-1.1h1.8v13.8h-1.9V46z"/>
		<path d="M382.5,54.4c0,0.3,0.1,0.6,0.2,0.9c0.1,0.2,0.3,0.4,0.5,0.6c0.2,0.2,0.5,0.3,0.7,0.4c0.3,0.1,0.5,0.1,0.8,0.1
			c0.6,0,1.1-0.1,1.5-0.4c0.4-0.2,0.6-0.5,0.8-0.9c0.2-0.3,0.3-0.7,0.4-1s0.1-0.7,0.1-0.9c0-0.9-0.2-1.7-0.7-2.2
			c-0.5-0.5-1.1-0.8-1.9-0.8c-0.4,0-0.8,0.1-1.1,0.2c-0.3,0.1-0.6,0.3-0.8,0.5s-0.4,0.4-0.4,0.6c-0.1,0.2-0.1,0.4-0.2,0.5h-1.8
			l0.4-8.2h7.8v1.6h-6.1l-0.3,4.5c0.1-0.1,0.2-0.2,0.4-0.4c0.2-0.1,0.4-0.3,0.6-0.4c0.2-0.1,0.5-0.2,0.8-0.3
			c0.3-0.1,0.7-0.1,1.1-0.1c0.7,0,1.3,0.1,1.8,0.4c0.5,0.3,1,0.6,1.3,1c0.3,0.4,0.6,0.9,0.8,1.5s0.3,1.1,0.3,1.7
			c0,0.7-0.1,1.3-0.4,1.9c-0.2,0.6-0.6,1.1-1,1.5s-0.9,0.8-1.5,1c-0.6,0.2-1.3,0.4-2,0.4c-0.6,0-1.1-0.1-1.6-0.2s-0.9-0.4-1.3-0.7
			c-0.4-0.3-0.7-0.7-0.9-1.1c-0.2-0.5-0.3-1-0.4-1.6H382.5z"/>
		<path d="M391.3,50.9c0-0.3,0-0.8,0-1.3s0.1-1,0.2-1.6s0.2-1.1,0.4-1.6s0.5-1,0.8-1.5s0.8-0.8,1.3-1s1.1-0.4,1.9-0.4
			c0.7,0,1.3,0.1,1.8,0.3c0.5,0.2,0.9,0.5,1.3,0.9c0.3,0.4,0.6,0.8,0.8,1.3c0.2,0.5,0.4,1,0.5,1.5c0.1,0.5,0.2,1,0.2,1.6
			s0.1,1,0.1,1.4c0,1.6-0.2,3-0.5,3.9c-0.3,1-0.8,1.8-1.4,2.4c-0.2,0.2-0.5,0.4-0.8,0.5c-0.3,0.1-0.5,0.2-0.8,0.3
			c-0.2,0.1-0.5,0.1-0.7,0.2c-0.2,0-0.4,0-0.6,0c-0.5,0-0.9-0.1-1.3-0.2c-0.4-0.1-0.7-0.3-1-0.5c-0.3-0.2-0.6-0.5-0.8-0.7
			c-0.2-0.3-0.4-0.6-0.6-0.9c-0.2-0.5-0.4-1-0.6-1.8C391.4,53.2,391.3,52.2,391.3,50.9z M393.2,50.8c0,0.8,0,1.5,0.1,2.2
			c0.1,0.7,0.2,1.2,0.4,1.7c0.2,0.5,0.5,0.9,0.8,1.2c0.3,0.3,0.8,0.4,1.3,0.4c0.6,0,1-0.2,1.4-0.5c0.4-0.3,0.6-0.8,0.8-1.3
			s0.3-1.1,0.4-1.8c0.1-0.6,0.1-1.3,0.1-1.9c0-0.8,0-1.6-0.1-2.3s-0.2-1.3-0.4-1.8c-0.2-0.5-0.5-0.9-0.8-1.2
			c-0.3-0.3-0.8-0.4-1.3-0.4c-0.6,0-1.1,0.2-1.5,0.5c-0.4,0.4-0.6,0.8-0.8,1.4c-0.2,0.5-0.3,1.2-0.4,1.8
			C393.2,49.6,393.2,50.2,393.2,50.8z"/>
		<path d="M402.4,50.9c0-0.3,0-0.8,0-1.3s0.1-1,0.2-1.6s0.2-1.1,0.4-1.6s0.5-1,0.8-1.5s0.8-0.8,1.3-1s1.1-0.4,1.9-0.4
			c0.7,0,1.3,0.1,1.8,0.3c0.5,0.2,0.9,0.5,1.3,0.9c0.3,0.4,0.6,0.8,0.8,1.3c0.2,0.5,0.4,1,0.5,1.5c0.1,0.5,0.2,1,0.2,1.6
			s0.1,1,0.1,1.4c0,1.6-0.2,3-0.5,3.9c-0.3,1-0.8,1.8-1.4,2.4c-0.2,0.2-0.5,0.4-0.8,0.5c-0.3,0.1-0.5,0.2-0.8,0.3
			c-0.2,0.1-0.5,0.1-0.7,0.2c-0.2,0-0.4,0-0.6,0c-0.5,0-0.9-0.1-1.3-0.2c-0.4-0.1-0.7-0.3-1-0.5c-0.3-0.2-0.6-0.5-0.8-0.7
			c-0.2-0.3-0.4-0.6-0.6-0.9c-0.2-0.5-0.4-1-0.6-1.8C402.5,53.2,402.4,52.2,402.4,50.9z M404.3,50.8c0,0.8,0,1.5,0.1,2.2
			c0.1,0.7,0.2,1.2,0.4,1.7c0.2,0.5,0.5,0.9,0.8,1.2c0.3,0.3,0.8,0.4,1.3,0.4c0.6,0,1-0.2,1.4-0.5c0.4-0.3,0.6-0.8,0.8-1.3
			s0.3-1.1,0.4-1.8c0.1-0.6,0.1-1.3,0.1-1.9c0-0.8,0-1.6-0.1-2.3s-0.2-1.3-0.4-1.8c-0.2-0.5-0.5-0.9-0.8-1.2
			c-0.3-0.3-0.8-0.4-1.3-0.4c-0.6,0-1.1,0.2-1.5,0.5c-0.4,0.4-0.6,0.8-0.8,1.4c-0.2,0.5-0.3,1.2-0.4,1.8
			C404.4,49.6,404.3,50.2,404.3,50.8z"/>
	</g>
	<g class="st1">
		<path d="M422.5,55.9l3.6-3.6c0.4-0.4,0.8-0.8,1.1-1.2c0.4-0.4,0.7-0.8,1-1.2c0.4-0.5,0.7-1,0.8-1.4c0.1-0.4,0.2-0.7,0.2-1.1
			c0-0.2,0-0.4-0.1-0.6c0-0.3-0.1-0.5-0.3-0.7c-0.2-0.2-0.4-0.4-0.7-0.6c-0.3-0.2-0.7-0.3-1.2-0.3c-0.6,0-1,0.1-1.3,0.3
			s-0.5,0.4-0.7,0.7c-0.1,0.3-0.2,0.5-0.3,0.8s0,0.5,0,0.6h-2.1c0-0.2,0-0.4,0-0.6c0-0.2,0.1-0.5,0.2-0.8c0.1-0.3,0.2-0.5,0.4-0.8
			c0.2-0.3,0.4-0.6,0.7-0.8c0.5-0.4,1-0.7,1.5-0.8c0.5-0.1,1-0.2,1.5-0.2c0.5,0,1.1,0.1,1.6,0.2c0.5,0.1,1,0.4,1.4,0.7
			c0.4,0.3,0.7,0.7,1,1.2c0.2,0.5,0.4,1.1,0.4,1.9c0,0.2,0,0.4,0,0.6c0,0.2-0.1,0.4-0.2,0.7c-0.1,0.3-0.3,0.6-0.5,0.9
			c-0.2,0.3-0.5,0.7-0.9,1.2c-0.1,0.1-0.3,0.3-0.5,0.6c-0.2,0.3-0.5,0.5-0.8,0.8s-0.5,0.5-0.8,0.8c-0.2,0.3-0.4,0.4-0.5,0.5
			l-2.4,2.3h6.6v1.6h-8.8V55.9z"/>
		<path d="M433.5,50.9c0-0.3,0-0.8,0-1.3c0-0.5,0.1-1,0.2-1.6c0.1-0.5,0.2-1.1,0.4-1.6s0.5-1,0.8-1.5s0.8-0.8,1.3-1
			c0.5-0.3,1.1-0.4,1.9-0.4c0.7,0,1.3,0.1,1.8,0.3c0.5,0.2,0.9,0.5,1.3,0.9s0.6,0.8,0.8,1.3c0.2,0.5,0.4,1,0.5,1.5
			c0.1,0.5,0.2,1,0.2,1.6s0.1,1,0.1,1.4c0,1.6-0.2,3-0.5,3.9c-0.3,1-0.8,1.8-1.4,2.4c-0.2,0.2-0.5,0.4-0.8,0.5
			c-0.3,0.1-0.5,0.2-0.8,0.3s-0.5,0.1-0.7,0.2c-0.2,0-0.4,0-0.6,0c-0.5,0-0.9-0.1-1.3-0.2c-0.4-0.1-0.7-0.3-1-0.5
			c-0.3-0.2-0.6-0.5-0.8-0.7c-0.2-0.3-0.4-0.6-0.6-0.9c-0.2-0.5-0.4-1-0.6-1.8C433.6,53.2,433.5,52.2,433.5,50.9z M435.4,50.8
			c0,0.8,0,1.5,0.1,2.2c0.1,0.7,0.2,1.2,0.4,1.7c0.2,0.5,0.5,0.9,0.8,1.2c0.3,0.3,0.8,0.4,1.3,0.4c0.6,0,1-0.2,1.4-0.5
			c0.4-0.3,0.6-0.8,0.8-1.3s0.3-1.1,0.4-1.8c0.1-0.6,0.1-1.3,0.1-1.9c0-0.8,0-1.6-0.1-2.3s-0.2-1.3-0.4-1.8
			c-0.2-0.5-0.5-0.9-0.8-1.2c-0.3-0.3-0.8-0.4-1.3-0.4c-0.6,0-1.1,0.2-1.5,0.5c-0.4,0.4-0.6,0.8-0.8,1.4s-0.3,1.2-0.4,1.8
			C435.4,49.6,435.4,50.2,435.4,50.8z"/>
		<path d="M444.6,50.9c0-0.3,0-0.8,0-1.3c0-0.5,0.1-1,0.2-1.6c0.1-0.5,0.2-1.1,0.4-1.6s0.5-1,0.8-1.5s0.8-0.8,1.3-1
			c0.5-0.3,1.1-0.4,1.9-0.4c0.7,0,1.3,0.1,1.8,0.3c0.5,0.2,0.9,0.5,1.3,0.9s0.6,0.8,0.8,1.3c0.2,0.5,0.4,1,0.5,1.5
			c0.1,0.5,0.2,1,0.2,1.6s0.1,1,0.1,1.4c0,1.6-0.2,3-0.5,3.9c-0.3,1-0.8,1.8-1.4,2.4c-0.2,0.2-0.5,0.4-0.8,0.5
			c-0.3,0.1-0.5,0.2-0.8,0.3s-0.5,0.1-0.7,0.2c-0.2,0-0.4,0-0.6,0c-0.5,0-0.9-0.1-1.3-0.2c-0.4-0.1-0.7-0.3-1-0.5
			c-0.3-0.2-0.6-0.5-0.8-0.7c-0.2-0.3-0.4-0.6-0.6-0.9c-0.2-0.5-0.4-1-0.6-1.8C444.7,53.2,444.6,52.2,444.6,50.9z M446.5,50.8
			c0,0.8,0,1.5,0.1,2.2c0.1,0.7,0.2,1.2,0.4,1.7c0.2,0.5,0.5,0.9,0.8,1.2c0.3,0.3,0.8,0.4,1.3,0.4c0.6,0,1-0.2,1.4-0.5
			c0.4-0.3,0.6-0.8,0.8-1.3s0.3-1.1,0.4-1.8c0.1-0.6,0.1-1.3,0.1-1.9c0-0.8,0-1.6-0.1-2.3s-0.2-1.3-0.4-1.8
			c-0.2-0.5-0.5-0.9-0.8-1.2c-0.3-0.3-0.8-0.4-1.3-0.4c-0.6,0-1.1,0.2-1.5,0.5c-0.4,0.4-0.6,0.8-0.8,1.4s-0.3,1.2-0.4,1.8
			C446.5,49.6,446.5,50.2,446.5,50.8z"/>
		<path d="M455.7,50.9c0-0.3,0-0.8,0-1.3c0-0.5,0.1-1,0.2-1.6c0.1-0.5,0.2-1.1,0.4-1.6s0.5-1,0.8-1.5s0.8-0.8,1.3-1
			c0.5-0.3,1.1-0.4,1.9-0.4c0.7,0,1.3,0.1,1.8,0.3c0.5,0.2,0.9,0.5,1.3,0.9c0.3,0.4,0.6,0.8,0.8,1.3c0.2,0.5,0.4,1,0.5,1.5
			c0.1,0.5,0.2,1,0.2,1.6s0.1,1,0.1,1.4c0,1.6-0.2,3-0.5,3.9c-0.3,1-0.8,1.8-1.4,2.4c-0.2,0.2-0.5,0.4-0.8,0.5
			c-0.3,0.1-0.5,0.2-0.8,0.3c-0.2,0.1-0.5,0.1-0.7,0.2c-0.2,0-0.4,0-0.6,0c-0.5,0-0.9-0.1-1.3-0.2c-0.4-0.1-0.7-0.3-1-0.5
			c-0.3-0.2-0.6-0.5-0.8-0.7c-0.2-0.3-0.4-0.6-0.6-0.9c-0.2-0.5-0.4-1-0.6-1.8S455.7,52.2,455.7,50.9z M457.6,50.8
			c0,0.8,0,1.5,0.1,2.2c0.1,0.7,0.2,1.2,0.4,1.7s0.5,0.9,0.8,1.2s0.8,0.4,1.3,0.4c0.6,0,1-0.2,1.4-0.5c0.4-0.3,0.6-0.8,0.8-1.3
			s0.3-1.1,0.4-1.8c0.1-0.6,0.1-1.3,0.1-1.9c0-0.8,0-1.6-0.1-2.3s-0.2-1.3-0.4-1.8s-0.5-0.9-0.8-1.2c-0.3-0.3-0.8-0.4-1.3-0.4
			c-0.6,0-1.1,0.2-1.5,0.5c-0.4,0.4-0.6,0.8-0.8,1.4c-0.2,0.5-0.3,1.2-0.4,1.8C457.6,49.6,457.6,50.2,457.6,50.8z"/>
	</g>
	<g class="st1">
		<path d="M480.3,54.1c0,0.7,0.2,1.2,0.6,1.6s1.1,0.6,1.9,0.6c0.5,0,0.9-0.1,1.2-0.2c0.4-0.1,0.6-0.3,0.9-0.6
			c0.2-0.2,0.4-0.5,0.5-0.8c0.1-0.3,0.2-0.6,0.2-0.9c0-0.4-0.1-0.7-0.2-1c-0.1-0.3-0.3-0.5-0.4-0.7c-0.2-0.2-0.4-0.4-0.6-0.5
			s-0.5-0.2-0.7-0.3c-0.4-0.1-0.7-0.1-1-0.1c-0.3,0-0.6,0-1,0v-1.6c0.3,0,0.7,0,1.2,0s0.8-0.1,1.2-0.3c0.4-0.2,0.7-0.4,1-0.8
			c0.3-0.3,0.4-0.8,0.4-1.3c0-0.8-0.2-1.3-0.7-1.7s-1-0.5-1.7-0.5c-0.3,0-0.5,0-0.8,0.1c-0.3,0.1-0.5,0.2-0.8,0.4
			c-0.2,0.2-0.4,0.4-0.6,0.7c-0.2,0.3-0.3,0.6-0.3,1.1h-2c0-0.9,0.2-1.5,0.6-2c0.4-0.5,0.8-0.9,1.3-1.1c0.5-0.3,1-0.4,1.5-0.5
			s0.9-0.1,1.2-0.1c0.8,0,1.4,0.1,2,0.3c0.6,0.2,1,0.5,1.4,0.8c0.4,0.4,0.7,0.8,0.8,1.2c0.2,0.4,0.3,0.9,0.3,1.4
			c0,0.3,0,0.6-0.1,0.9c-0.1,0.3-0.2,0.7-0.5,1c-0.2,0.3-0.5,0.6-0.9,0.8c-0.4,0.2-0.8,0.4-1.3,0.6c0.7,0.1,1.3,0.3,1.7,0.7
			c0.4,0.3,0.7,0.7,0.9,1.1c0.2,0.4,0.3,0.7,0.3,1c0,0.3,0.1,0.5,0.1,0.6c0,0.5-0.1,1-0.3,1.5c-0.2,0.5-0.5,0.9-0.9,1.3
			c-0.4,0.4-0.9,0.7-1.5,1c-0.6,0.2-1.3,0.4-2.1,0.4c-0.7,0-1.4-0.1-2.1-0.3c-0.7-0.2-1.2-0.6-1.7-1.1c-0.2-0.2-0.4-0.4-0.5-0.7
			s-0.2-0.5-0.2-0.7c-0.1-0.2-0.1-0.4-0.1-0.6c0-0.2,0-0.4,0-0.5H480.3z"/>
		<path d="M489.5,50.9c0-0.3,0-0.8,0-1.3c0-0.5,0.1-1,0.2-1.6c0.1-0.5,0.2-1.1,0.4-1.6s0.5-1,0.8-1.5s0.8-0.8,1.3-1
			c0.5-0.3,1.1-0.4,1.9-0.4c0.7,0,1.3,0.1,1.8,0.3c0.5,0.2,0.9,0.5,1.3,0.9c0.3,0.4,0.6,0.8,0.8,1.3c0.2,0.5,0.4,1,0.5,1.5
			c0.1,0.5,0.2,1,0.2,1.6s0.1,1,0.1,1.4c0,1.6-0.2,3-0.5,3.9c-0.3,1-0.8,1.8-1.4,2.4c-0.2,0.2-0.5,0.4-0.8,0.5
			c-0.3,0.1-0.5,0.2-0.8,0.3c-0.2,0.1-0.5,0.1-0.7,0.2c-0.2,0-0.4,0-0.6,0c-0.5,0-0.9-0.1-1.3-0.2c-0.4-0.1-0.7-0.3-1-0.5
			c-0.3-0.2-0.6-0.5-0.8-0.7c-0.2-0.3-0.4-0.6-0.6-0.9c-0.2-0.5-0.4-1-0.6-1.8S489.5,52.2,489.5,50.9z M491.4,50.8
			c0,0.8,0,1.5,0.1,2.2c0.1,0.7,0.2,1.2,0.4,1.7s0.5,0.9,0.8,1.2s0.8,0.4,1.3,0.4c0.6,0,1-0.2,1.4-0.5c0.4-0.3,0.6-0.8,0.8-1.3
			s0.3-1.1,0.4-1.8c0.1-0.6,0.1-1.3,0.1-1.9c0-0.8,0-1.6-0.1-2.3s-0.2-1.3-0.4-1.8s-0.5-0.9-0.8-1.2c-0.3-0.3-0.8-0.4-1.3-0.4
			c-0.6,0-1.1,0.2-1.5,0.5c-0.4,0.4-0.6,0.8-0.8,1.4c-0.2,0.5-0.3,1.2-0.4,1.8C491.4,49.6,491.4,50.2,491.4,50.8z"/>
		<path d="M500.6,50.9c0-0.3,0-0.8,0-1.3c0-0.5,0.1-1,0.2-1.6c0.1-0.5,0.2-1.1,0.4-1.6s0.5-1,0.8-1.5s0.8-0.8,1.3-1
			c0.5-0.3,1.1-0.4,1.9-0.4c0.7,0,1.3,0.1,1.8,0.3c0.5,0.2,0.9,0.5,1.3,0.9c0.3,0.4,0.6,0.8,0.8,1.3c0.2,0.5,0.4,1,0.5,1.5
			c0.1,0.5,0.2,1,0.2,1.6s0.1,1,0.1,1.4c0,1.6-0.2,3-0.5,3.9c-0.3,1-0.8,1.8-1.4,2.4c-0.2,0.2-0.5,0.4-0.8,0.5
			c-0.3,0.1-0.5,0.2-0.8,0.3c-0.2,0.1-0.5,0.1-0.7,0.2c-0.2,0-0.4,0-0.6,0c-0.5,0-0.9-0.1-1.3-0.2c-0.4-0.1-0.7-0.3-1-0.5
			c-0.3-0.2-0.6-0.5-0.8-0.7c-0.2-0.3-0.4-0.6-0.6-0.9c-0.2-0.5-0.4-1-0.6-1.8S500.6,52.2,500.6,50.9z M502.5,50.8
			c0,0.8,0,1.5,0.1,2.2c0.1,0.7,0.2,1.2,0.4,1.7s0.5,0.9,0.8,1.2s0.8,0.4,1.3,0.4c0.6,0,1-0.2,1.4-0.5c0.4-0.3,0.6-0.8,0.8-1.3
			s0.3-1.1,0.4-1.8c0.1-0.6,0.1-1.3,0.1-1.9c0-0.8,0-1.6-0.1-2.3s-0.2-1.3-0.4-1.8s-0.5-0.9-0.8-1.2c-0.3-0.3-0.8-0.4-1.3-0.4
			c-0.6,0-1.1,0.2-1.5,0.5c-0.4,0.4-0.6,0.8-0.8,1.4c-0.2,0.5-0.3,1.2-0.4,1.8C502.5,49.6,502.5,50.2,502.5,50.8z"/>
		<path d="M511.7,50.9c0-0.3,0-0.8,0-1.3c0-0.5,0.1-1,0.2-1.6c0.1-0.5,0.2-1.1,0.4-1.6s0.5-1,0.8-1.5s0.8-0.8,1.3-1
			c0.5-0.3,1.1-0.4,1.9-0.4c0.7,0,1.3,0.1,1.8,0.3c0.5,0.2,0.9,0.5,1.3,0.9s0.6,0.8,0.8,1.3c0.2,0.5,0.4,1,0.5,1.5
			c0.1,0.5,0.2,1,0.2,1.6s0.1,1,0.1,1.4c0,1.6-0.2,3-0.5,3.9c-0.3,1-0.8,1.8-1.4,2.4c-0.2,0.2-0.5,0.4-0.8,0.5
			c-0.3,0.1-0.5,0.2-0.8,0.3s-0.5,0.1-0.7,0.2c-0.2,0-0.4,0-0.6,0c-0.5,0-0.9-0.1-1.3-0.2c-0.4-0.1-0.7-0.3-1-0.5
			c-0.3-0.2-0.6-0.5-0.8-0.7c-0.2-0.3-0.4-0.6-0.6-0.9c-0.2-0.5-0.4-1-0.6-1.8C511.8,53.2,511.7,52.2,511.7,50.9z M513.6,50.8
			c0,0.8,0,1.5,0.1,2.2c0.1,0.7,0.2,1.2,0.4,1.7c0.2,0.5,0.5,0.9,0.8,1.2c0.3,0.3,0.8,0.4,1.3,0.4c0.6,0,1-0.2,1.4-0.5
			c0.4-0.3,0.6-0.8,0.8-1.3s0.3-1.1,0.4-1.8c0.1-0.6,0.1-1.3,0.1-1.9c0-0.8,0-1.6-0.1-2.3s-0.2-1.3-0.4-1.8
			c-0.2-0.5-0.5-0.9-0.8-1.2c-0.3-0.3-0.8-0.4-1.3-0.4c-0.6,0-1.1,0.2-1.5,0.5c-0.4,0.4-0.6,0.8-0.8,1.4s-0.3,1.2-0.4,1.8
			C513.7,49.6,513.6,50.2,513.6,50.8z"/>
	</g>
	<g class="st1">
		<path d="M537.3,54.7H531v-2.4l6-8.6h2.2v9.4h2v1.6h-2v3h-1.9V54.7z M537.3,53.1v-7.3l-4.8,7.3H537.3z"/>
		<path d="M542.5,50.9c0-0.3,0-0.8,0-1.3c0-0.5,0.1-1,0.2-1.6s0.2-1.1,0.4-1.6s0.5-1,0.8-1.5s0.8-0.8,1.3-1s1.1-0.4,1.9-0.4
			c0.7,0,1.3,0.1,1.8,0.3c0.5,0.2,0.9,0.5,1.3,0.9s0.6,0.8,0.8,1.3c0.2,0.5,0.4,1,0.5,1.5c0.1,0.5,0.2,1,0.2,1.6s0.1,1,0.1,1.4
			c0,1.6-0.2,3-0.5,3.9c-0.3,1-0.8,1.8-1.4,2.4c-0.2,0.2-0.5,0.4-0.8,0.5c-0.3,0.1-0.5,0.2-0.8,0.3s-0.5,0.1-0.7,0.2
			c-0.2,0-0.4,0-0.6,0c-0.5,0-0.9-0.1-1.3-0.2c-0.4-0.1-0.7-0.3-1-0.5c-0.3-0.2-0.6-0.5-0.8-0.7c-0.2-0.3-0.4-0.6-0.6-0.9
			c-0.2-0.5-0.4-1-0.6-1.8C542.6,53.2,542.5,52.2,542.5,50.9z M544.4,50.8c0,0.8,0,1.5,0.1,2.2c0.1,0.7,0.2,1.2,0.4,1.7
			s0.5,0.9,0.8,1.2s0.8,0.4,1.3,0.4c0.6,0,1-0.2,1.4-0.5c0.4-0.3,0.6-0.8,0.8-1.3s0.3-1.1,0.4-1.8c0.1-0.6,0.1-1.3,0.1-1.9
			c0-0.8,0-1.6-0.1-2.3s-0.2-1.3-0.4-1.8c-0.2-0.5-0.5-0.9-0.8-1.2c-0.3-0.3-0.8-0.4-1.3-0.4c-0.6,0-1.1,0.2-1.4,0.5
			c-0.4,0.4-0.6,0.8-0.8,1.4c-0.2,0.5-0.3,1.2-0.4,1.8C544.4,49.6,544.4,50.2,544.4,50.8z"/>
		<path d="M553.6,50.9c0-0.3,0-0.8,0-1.3c0-0.5,0.1-1,0.2-1.6s0.2-1.1,0.4-1.6s0.5-1,0.8-1.5s0.8-0.8,1.3-1s1.1-0.4,1.9-0.4
			c0.7,0,1.3,0.1,1.8,0.3c0.5,0.2,0.9,0.5,1.3,0.9c0.3,0.4,0.6,0.8,0.8,1.3c0.2,0.5,0.4,1,0.5,1.5c0.1,0.5,0.2,1,0.2,1.6
			s0.1,1,0.1,1.4c0,1.6-0.2,3-0.5,3.9c-0.3,1-0.8,1.8-1.4,2.4c-0.2,0.2-0.5,0.4-0.8,0.5c-0.3,0.1-0.5,0.2-0.8,0.3
			c-0.2,0.1-0.5,0.1-0.7,0.2c-0.2,0-0.4,0-0.6,0c-0.5,0-0.9-0.1-1.3-0.2c-0.4-0.1-0.7-0.3-1-0.5c-0.3-0.2-0.6-0.5-0.8-0.7
			c-0.2-0.3-0.4-0.6-0.6-0.9c-0.2-0.5-0.4-1-0.6-1.8C553.7,53.2,553.6,52.2,553.6,50.9z M555.5,50.8c0,0.8,0,1.5,0.1,2.2
			c0.1,0.7,0.2,1.2,0.4,1.7c0.2,0.5,0.5,0.9,0.8,1.2c0.3,0.3,0.8,0.4,1.3,0.4c0.6,0,1-0.2,1.4-0.5c0.4-0.3,0.6-0.8,0.8-1.3
			s0.3-1.1,0.4-1.8c0.1-0.6,0.1-1.3,0.1-1.9c0-0.8,0-1.6-0.1-2.3s-0.2-1.3-0.4-1.8s-0.5-0.9-0.8-1.2c-0.3-0.3-0.8-0.4-1.3-0.4
			c-0.6,0-1.1,0.2-1.5,0.5c-0.4,0.4-0.6,0.8-0.8,1.4c-0.2,0.5-0.3,1.2-0.4,1.8C555.5,49.6,555.5,50.2,555.5,50.8z"/>
		<path d="M564.7,50.9c0-0.3,0-0.8,0-1.3s0.1-1,0.2-1.6c0.1-0.5,0.2-1.1,0.4-1.6s0.5-1,0.8-1.5c0.3-0.4,0.8-0.8,1.3-1
			c0.5-0.3,1.1-0.4,1.9-0.4c0.7,0,1.3,0.1,1.8,0.3c0.5,0.2,0.9,0.5,1.3,0.9c0.3,0.4,0.6,0.8,0.8,1.3c0.2,0.5,0.4,1,0.5,1.5
			c0.1,0.5,0.2,1,0.2,1.6c0,0.5,0.1,1,0.1,1.4c0,1.6-0.2,3-0.5,3.9c-0.3,1-0.8,1.8-1.4,2.4c-0.2,0.2-0.5,0.4-0.8,0.5
			c-0.3,0.1-0.5,0.2-0.8,0.3c-0.2,0.1-0.5,0.1-0.7,0.2c-0.2,0-0.4,0-0.6,0c-0.5,0-0.9-0.1-1.3-0.2c-0.4-0.1-0.7-0.3-1-0.5
			c-0.3-0.2-0.6-0.5-0.8-0.7c-0.2-0.3-0.4-0.6-0.6-0.9c-0.2-0.5-0.4-1-0.6-1.8S564.7,52.2,564.7,50.9z M566.6,50.8
			c0,0.8,0,1.5,0.1,2.2c0.1,0.7,0.2,1.2,0.4,1.7s0.5,0.9,0.8,1.2c0.3,0.3,0.8,0.4,1.3,0.4c0.6,0,1-0.2,1.4-0.5
			c0.4-0.3,0.6-0.8,0.8-1.3s0.3-1.1,0.4-1.8c0.1-0.6,0.1-1.3,0.1-1.9c0-0.8,0-1.6-0.1-2.3s-0.2-1.3-0.4-1.8
			c-0.2-0.5-0.5-0.9-0.8-1.2c-0.3-0.3-0.8-0.4-1.3-0.4c-0.6,0-1.1,0.2-1.5,0.5c-0.4,0.4-0.6,0.8-0.8,1.4s-0.3,1.2-0.4,1.8
			C566.6,49.6,566.6,50.2,566.6,50.8z"/>
	</g>
	<g class="st1">
		<path d="M589.7,54.4c0,0.3,0.1,0.6,0.2,0.9c0.1,0.2,0.3,0.4,0.5,0.6s0.5,0.3,0.7,0.4c0.3,0.1,0.5,0.1,0.8,0.1
			c0.6,0,1.1-0.1,1.5-0.4c0.4-0.2,0.6-0.5,0.8-0.9c0.2-0.3,0.3-0.7,0.4-1c0.1-0.4,0.1-0.7,0.1-0.9c0-0.9-0.2-1.7-0.7-2.2
			c-0.5-0.5-1.1-0.8-1.9-0.8c-0.4,0-0.8,0.1-1.1,0.2c-0.3,0.1-0.6,0.3-0.8,0.5c-0.2,0.2-0.4,0.4-0.4,0.6c-0.1,0.2-0.1,0.4-0.2,0.5
			h-1.8l0.4-8.2h7.8v1.6h-6.1l-0.3,4.5c0.1-0.1,0.2-0.2,0.4-0.4c0.2-0.1,0.4-0.3,0.6-0.4c0.2-0.1,0.5-0.2,0.8-0.3
			c0.3-0.1,0.7-0.1,1.1-0.1c0.7,0,1.3,0.1,1.8,0.4c0.5,0.3,1,0.6,1.3,1c0.3,0.4,0.6,0.9,0.8,1.5c0.2,0.5,0.3,1.1,0.3,1.7
			c0,0.7-0.1,1.3-0.3,1.9c-0.2,0.6-0.6,1.1-1,1.5s-0.9,0.8-1.5,1c-0.6,0.2-1.3,0.4-2,0.4c-0.6,0-1.1-0.1-1.6-0.2
			c-0.5-0.2-0.9-0.4-1.3-0.7c-0.4-0.3-0.7-0.7-0.9-1.1c-0.2-0.5-0.3-1-0.4-1.6H589.7z"/>
		<path d="M598.5,50.9c0-0.3,0-0.8,0-1.3c0-0.5,0.1-1,0.2-1.6c0.1-0.5,0.2-1.1,0.4-1.6s0.5-1,0.8-1.5s0.8-0.8,1.3-1
			c0.5-0.3,1.1-0.4,1.9-0.4c0.7,0,1.3,0.1,1.8,0.3c0.5,0.2,0.9,0.5,1.3,0.9s0.6,0.8,0.8,1.3c0.2,0.5,0.4,1,0.5,1.5
			c0.1,0.5,0.2,1,0.2,1.6s0.1,1,0.1,1.4c0,1.6-0.2,3-0.5,3.9c-0.3,1-0.8,1.8-1.4,2.4c-0.2,0.2-0.5,0.4-0.8,0.5
			c-0.3,0.1-0.5,0.2-0.8,0.3s-0.5,0.1-0.7,0.2c-0.2,0-0.4,0-0.6,0c-0.5,0-0.9-0.1-1.3-0.2c-0.4-0.1-0.7-0.3-1-0.5
			c-0.3-0.2-0.6-0.5-0.8-0.7c-0.2-0.3-0.4-0.6-0.6-0.9c-0.2-0.5-0.4-1-0.6-1.8C598.6,53.2,598.5,52.2,598.5,50.9z M600.4,50.8
			c0,0.8,0,1.5,0.1,2.2c0.1,0.7,0.2,1.2,0.4,1.7c0.2,0.5,0.5,0.9,0.8,1.2c0.3,0.3,0.8,0.4,1.3,0.4c0.6,0,1-0.2,1.4-0.5
			c0.4-0.3,0.6-0.8,0.8-1.3s0.3-1.1,0.4-1.8c0.1-0.6,0.1-1.3,0.1-1.9c0-0.8,0-1.6-0.1-2.3s-0.2-1.3-0.4-1.8
			c-0.2-0.5-0.5-0.9-0.8-1.2c-0.3-0.3-0.8-0.4-1.3-0.4c-0.6,0-1.1,0.2-1.5,0.5c-0.4,0.4-0.6,0.8-0.8,1.4s-0.3,1.2-0.4,1.8
			C600.4,49.6,600.4,50.2,600.4,50.8z"/>
		<path d="M609.6,50.9c0-0.3,0-0.8,0-1.3c0-0.5,0.1-1,0.2-1.6c0.1-0.5,0.2-1.1,0.4-1.6s0.5-1,0.8-1.5s0.8-0.8,1.3-1
			c0.5-0.3,1.1-0.4,1.9-0.4c0.7,0,1.3,0.1,1.8,0.3c0.5,0.2,0.9,0.5,1.3,0.9s0.6,0.8,0.8,1.3c0.2,0.5,0.4,1,0.5,1.5
			c0.1,0.5,0.2,1,0.2,1.6s0.1,1,0.1,1.4c0,1.6-0.2,3-0.5,3.9c-0.3,1-0.8,1.8-1.4,2.4c-0.2,0.2-0.5,0.4-0.8,0.5
			c-0.3,0.1-0.5,0.2-0.8,0.3s-0.5,0.1-0.7,0.2c-0.2,0-0.4,0-0.6,0c-0.5,0-0.9-0.1-1.3-0.2c-0.4-0.1-0.7-0.3-1-0.5
			c-0.3-0.2-0.6-0.5-0.8-0.7c-0.2-0.3-0.4-0.6-0.6-0.9c-0.2-0.5-0.4-1-0.6-1.8C609.7,53.2,609.6,52.2,609.6,50.9z M611.5,50.8
			c0,0.8,0,1.5,0.1,2.2c0.1,0.7,0.2,1.2,0.4,1.7c0.2,0.5,0.5,0.9,0.8,1.2c0.3,0.3,0.8,0.4,1.3,0.4c0.6,0,1-0.2,1.4-0.5
			c0.4-0.3,0.6-0.8,0.8-1.3s0.3-1.1,0.4-1.8c0.1-0.6,0.1-1.3,0.1-1.9c0-0.8,0-1.6-0.1-2.3s-0.2-1.3-0.4-1.8
			c-0.2-0.5-0.5-0.9-0.8-1.2c-0.3-0.3-0.8-0.4-1.3-0.4c-0.6,0-1.1,0.2-1.5,0.5c-0.4,0.4-0.6,0.8-0.8,1.4s-0.3,1.2-0.4,1.8
			C611.5,49.6,611.5,50.2,611.5,50.8z"/>
		<path d="M620.7,50.9c0-0.3,0-0.8,0-1.3c0-0.5,0.1-1,0.2-1.6c0.1-0.5,0.2-1.1,0.4-1.6s0.5-1,0.8-1.5s0.8-0.8,1.3-1
			c0.5-0.3,1.1-0.4,1.9-0.4c0.7,0,1.3,0.1,1.8,0.3c0.5,0.2,0.9,0.5,1.3,0.9c0.3,0.4,0.6,0.8,0.8,1.3c0.2,0.5,0.4,1,0.5,1.5
			c0.1,0.5,0.2,1,0.2,1.6s0.1,1,0.1,1.4c0,1.6-0.2,3-0.5,3.9c-0.3,1-0.8,1.8-1.4,2.4c-0.2,0.2-0.5,0.4-0.8,0.5
			c-0.3,0.1-0.5,0.2-0.8,0.3c-0.2,0.1-0.5,0.1-0.7,0.2c-0.2,0-0.4,0-0.6,0c-0.5,0-0.9-0.1-1.3-0.2c-0.4-0.1-0.7-0.3-1-0.5
			c-0.3-0.2-0.6-0.5-0.8-0.7c-0.2-0.3-0.4-0.6-0.6-0.9c-0.2-0.5-0.4-1-0.6-1.8S620.7,52.2,620.7,50.9z M622.6,50.8
			c0,0.8,0,1.5,0.1,2.2c0.1,0.7,0.2,1.2,0.4,1.7s0.5,0.9,0.8,1.2s0.8,0.4,1.3,0.4c0.6,0,1-0.2,1.4-0.5c0.4-0.3,0.6-0.8,0.8-1.3
			s0.3-1.1,0.4-1.8c0.1-0.6,0.1-1.3,0.1-1.9c0-0.8,0-1.6-0.1-2.3s-0.2-1.3-0.4-1.8s-0.5-0.9-0.8-1.2c-0.3-0.3-0.8-0.4-1.3-0.4
			c-0.6,0-1.1,0.2-1.5,0.5c-0.4,0.4-0.6,0.8-0.8,1.4c-0.2,0.5-0.3,1.2-0.4,1.8C622.6,49.6,622.6,50.2,622.6,50.8z"/>
	</g>
	<g class="st1">
		<path d="M647.6,47.1c0-0.4-0.1-0.7-0.2-1c-0.1-0.3-0.3-0.5-0.5-0.6s-0.4-0.3-0.7-0.3c-0.2-0.1-0.5-0.1-0.7-0.1
			c-1,0-1.7,0.4-2.2,1.3c-0.5,0.9-0.8,2.2-0.8,4.1c0.1-0.2,0.2-0.3,0.4-0.5c0.2-0.2,0.4-0.4,0.6-0.6s0.6-0.3,0.9-0.5
			s0.8-0.2,1.3-0.2c0.6,0,1.1,0.1,1.6,0.3c0.5,0.2,1,0.5,1.3,0.8c0.4,0.4,0.7,0.8,0.9,1.4c0.2,0.6,0.3,1.2,0.3,1.9
			c0,0.8-0.1,1.5-0.4,2.1c-0.3,0.6-0.6,1.1-1,1.5c-0.4,0.4-0.9,0.7-1.5,0.9c-0.6,0.2-1.1,0.3-1.7,0.3c-0.7,0-1.3-0.1-1.9-0.4
			s-1.1-0.6-1.5-1.1c-0.3-0.3-0.5-0.7-0.6-1.1c-0.2-0.4-0.3-0.8-0.4-1.3c-0.1-0.4-0.2-0.9-0.2-1.4s0-0.9,0-1.3c0-0.5,0-1,0.1-1.6
			c0.1-0.6,0.1-1.2,0.3-1.7c0.1-0.6,0.3-1.1,0.6-1.7s0.5-1,0.9-1.4s0.8-0.7,1.4-1c0.5-0.2,1.2-0.4,1.9-0.4c0.5,0,0.9,0,1.2,0.1
			c0.4,0.1,0.7,0.2,0.9,0.3c0.3,0.1,0.5,0.3,0.7,0.4c0.2,0.2,0.3,0.3,0.5,0.4c0.2,0.2,0.3,0.4,0.4,0.6c0.1,0.2,0.2,0.4,0.2,0.6
			c0,0.2,0.1,0.4,0.1,0.6c0,0.2,0,0.3,0,0.5H647.6z M645.2,56.5c0.3,0,0.6-0.1,0.9-0.2c0.3-0.1,0.6-0.3,0.9-0.6
			c0.3-0.3,0.5-0.6,0.6-1c0.2-0.4,0.2-0.9,0.2-1.4c0-0.2,0-0.5-0.1-0.9c-0.1-0.4-0.2-0.7-0.3-1c-0.2-0.3-0.4-0.6-0.8-0.8
			s-0.8-0.3-1.4-0.3c-0.5,0-0.9,0.1-1.2,0.3c-0.3,0.2-0.6,0.4-0.9,0.7c-0.2,0.3-0.4,0.6-0.5,1c-0.1,0.4-0.2,0.8-0.2,1.2
			c0,0.5,0.1,0.9,0.2,1.2c0.1,0.4,0.3,0.7,0.5,1c0.2,0.3,0.5,0.5,0.8,0.6C644.5,56.4,644.9,56.5,645.2,56.5z"/>
		<path d="M651.5,50.9c0-0.3,0-0.8,0-1.3c0-0.5,0.1-1,0.2-1.6c0.1-0.5,0.2-1.1,0.4-1.6s0.5-1,0.8-1.5s0.8-0.8,1.3-1
			c0.5-0.3,1.1-0.4,1.9-0.4c0.7,0,1.3,0.1,1.8,0.3c0.5,0.2,0.9,0.5,1.3,0.9c0.3,0.4,0.6,0.8,0.8,1.3c0.2,0.5,0.4,1,0.5,1.5
			c0.1,0.5,0.2,1,0.2,1.6s0.1,1,0.1,1.4c0,1.6-0.2,3-0.5,3.9c-0.3,1-0.8,1.8-1.4,2.4c-0.2,0.2-0.5,0.4-0.8,0.5
			c-0.3,0.1-0.5,0.2-0.8,0.3c-0.2,0.1-0.5,0.1-0.7,0.2c-0.2,0-0.4,0-0.6,0c-0.5,0-0.9-0.1-1.3-0.2c-0.4-0.1-0.7-0.3-1-0.5
			c-0.3-0.2-0.6-0.5-0.8-0.7c-0.2-0.3-0.4-0.6-0.6-0.9c-0.2-0.5-0.4-1-0.6-1.8S651.5,52.2,651.5,50.9z M653.4,50.8
			c0,0.8,0,1.5,0.1,2.2c0.1,0.7,0.2,1.2,0.4,1.7s0.5,0.9,0.8,1.2s0.8,0.4,1.3,0.4c0.6,0,1-0.2,1.4-0.5c0.4-0.3,0.6-0.8,0.8-1.3
			s0.3-1.1,0.4-1.8c0.1-0.6,0.1-1.3,0.1-1.9c0-0.8,0-1.6-0.1-2.3s-0.2-1.3-0.4-1.8s-0.5-0.9-0.8-1.2c-0.3-0.3-0.8-0.4-1.3-0.4
			c-0.6,0-1.1,0.2-1.5,0.5c-0.4,0.4-0.6,0.8-0.8,1.4c-0.2,0.5-0.3,1.2-0.4,1.8C653.4,49.6,653.4,50.2,653.4,50.8z"/>
		<path d="M662.6,50.9c0-0.3,0-0.8,0-1.3c0-0.5,0.1-1,0.2-1.6c0.1-0.5,0.2-1.1,0.4-1.6s0.5-1,0.8-1.5s0.8-0.8,1.3-1
			c0.5-0.3,1.1-0.4,1.9-0.4c0.7,0,1.3,0.1,1.8,0.3c0.5,0.2,0.9,0.5,1.3,0.9c0.3,0.4,0.6,0.8,0.8,1.3c0.2,0.5,0.4,1,0.5,1.5
			c0.1,0.5,0.2,1,0.2,1.6s0.1,1,0.1,1.4c0,1.6-0.2,3-0.5,3.9c-0.3,1-0.8,1.8-1.4,2.4c-0.2,0.2-0.5,0.4-0.8,0.5
			c-0.3,0.1-0.5,0.2-0.8,0.3c-0.2,0.1-0.5,0.1-0.7,0.2c-0.2,0-0.4,0-0.6,0c-0.5,0-0.9-0.1-1.3-0.2c-0.4-0.1-0.7-0.3-1-0.5
			c-0.3-0.2-0.6-0.5-0.8-0.7c-0.2-0.3-0.4-0.6-0.6-0.9c-0.2-0.5-0.4-1-0.6-1.8S662.6,52.2,662.6,50.9z M664.5,50.8
			c0,0.8,0,1.5,0.1,2.2c0.1,0.7,0.2,1.2,0.4,1.7s0.5,0.9,0.8,1.2s0.8,0.4,1.3,0.4c0.6,0,1-0.2,1.4-0.5c0.4-0.3,0.6-0.8,0.8-1.3
			s0.3-1.1,0.4-1.8c0.1-0.6,0.1-1.3,0.1-1.9c0-0.8,0-1.6-0.1-2.3s-0.2-1.3-0.4-1.8s-0.5-0.9-0.8-1.2c-0.3-0.3-0.8-0.4-1.3-0.4
			c-0.6,0-1.1,0.2-1.5,0.5c-0.4,0.4-0.6,0.8-0.8,1.4c-0.2,0.5-0.3,1.2-0.4,1.8C664.5,49.6,664.5,50.2,664.5,50.8z"/>
		<path d="M673.7,50.9c0-0.3,0-0.8,0-1.3c0-0.5,0.1-1,0.2-1.6c0.1-0.5,0.2-1.1,0.4-1.6s0.5-1,0.8-1.5s0.8-0.8,1.3-1
			c0.5-0.3,1.1-0.4,1.9-0.4c0.7,0,1.3,0.1,1.8,0.3c0.5,0.2,0.9,0.5,1.3,0.9s0.6,0.8,0.8,1.3c0.2,0.5,0.4,1,0.5,1.5
			c0.1,0.5,0.2,1,0.2,1.6s0.1,1,0.1,1.4c0,1.6-0.2,3-0.5,3.9c-0.3,1-0.8,1.8-1.4,2.4c-0.2,0.2-0.5,0.4-0.8,0.5
			c-0.3,0.1-0.5,0.2-0.8,0.3s-0.5,0.1-0.7,0.2c-0.2,0-0.4,0-0.6,0c-0.5,0-0.9-0.1-1.3-0.2c-0.4-0.1-0.7-0.3-1-0.5
			c-0.3-0.2-0.6-0.5-0.8-0.7c-0.2-0.3-0.4-0.6-0.6-0.9c-0.2-0.5-0.4-1-0.6-1.8C673.8,53.2,673.7,52.2,673.7,50.9z M675.6,50.8
			c0,0.8,0,1.5,0.1,2.2c0.1,0.7,0.2,1.2,0.4,1.7c0.2,0.5,0.5,0.9,0.8,1.2c0.3,0.3,0.8,0.4,1.3,0.4c0.6,0,1-0.2,1.4-0.5
			c0.4-0.3,0.6-0.8,0.8-1.3s0.3-1.1,0.4-1.8c0.1-0.6,0.1-1.3,0.1-1.9c0-0.8,0-1.6-0.1-2.3s-0.2-1.3-0.4-1.8
			c-0.2-0.5-0.5-0.9-0.8-1.2c-0.3-0.3-0.8-0.4-1.3-0.4c-0.6,0-1.1,0.2-1.5,0.5c-0.4,0.4-0.6,0.8-0.8,1.4s-0.3,1.2-0.4,1.8
			C675.7,49.6,675.6,50.2,675.6,50.8z"/>
	</g>
	<g class="st1">
		<path class="st2" d="M735.6,122.7l3.6-3.6c0.4-0.4,0.8-0.8,1.1-1.2c0.4-0.4,0.7-0.8,1-1.2c0.4-0.5,0.7-1,0.8-1.4
			c0.1-0.4,0.2-0.7,0.2-1.1c0-0.2,0-0.4-0.1-0.6c0-0.3-0.1-0.5-0.3-0.7c-0.2-0.2-0.4-0.4-0.7-0.6c-0.3-0.2-0.7-0.3-1.2-0.3
			c-0.6,0-1,0.1-1.3,0.3s-0.5,0.4-0.7,0.7c-0.1,0.3-0.2,0.5-0.3,0.8c0,0.3,0,0.5,0,0.6h-2.1c0-0.2,0-0.4,0-0.6
			c0-0.2,0.1-0.5,0.2-0.8c0.1-0.3,0.2-0.5,0.4-0.8c0.2-0.3,0.4-0.6,0.7-0.8c0.5-0.4,1-0.7,1.5-0.8c0.5-0.1,1-0.2,1.5-0.2
			c0.5,0,1.1,0.1,1.6,0.2c0.5,0.1,1,0.4,1.4,0.7c0.4,0.3,0.7,0.7,1,1.2c0.2,0.5,0.4,1.1,0.4,1.9c0,0.2,0,0.4,0,0.6
			c0,0.2-0.1,0.4-0.2,0.7c-0.1,0.3-0.3,0.6-0.5,0.9c-0.2,0.3-0.5,0.7-0.9,1.2c-0.1,0.1-0.3,0.3-0.5,0.6s-0.5,0.5-0.8,0.8
			c-0.3,0.3-0.5,0.5-0.8,0.8c-0.2,0.3-0.4,0.4-0.5,0.5l-2.4,2.3h6.6v1.6h-8.8V122.7z"/>
		<path class="st2" d="M746.6,117.8c0-0.3,0-0.8,0-1.3s0.1-1,0.2-1.6c0.1-0.5,0.2-1.1,0.4-1.6s0.5-1,0.8-1.5c0.3-0.4,0.8-0.8,1.3-1
			c0.5-0.3,1.1-0.4,1.9-0.4c0.7,0,1.3,0.1,1.8,0.3c0.5,0.2,0.9,0.5,1.3,0.9c0.3,0.4,0.6,0.8,0.8,1.3c0.2,0.5,0.4,1,0.5,1.5
			c0.1,0.5,0.2,1,0.2,1.6c0,0.5,0.1,1,0.1,1.4c0,1.6-0.2,3-0.5,3.9c-0.3,1-0.8,1.8-1.4,2.4c-0.2,0.2-0.5,0.4-0.8,0.5
			c-0.3,0.1-0.5,0.2-0.8,0.3c-0.2,0.1-0.5,0.1-0.7,0.2c-0.2,0-0.4,0-0.6,0c-0.5,0-0.9-0.1-1.3-0.2c-0.4-0.1-0.7-0.3-1-0.5
			c-0.3-0.2-0.6-0.5-0.8-0.7c-0.2-0.3-0.4-0.6-0.6-0.9c-0.2-0.5-0.4-1-0.6-1.8S746.6,119,746.6,117.8z M748.5,117.7
			c0,0.8,0,1.5,0.1,2.2c0.1,0.7,0.2,1.2,0.4,1.7s0.5,0.9,0.8,1.2c0.3,0.3,0.8,0.4,1.3,0.4c0.6,0,1-0.2,1.4-0.5
			c0.4-0.3,0.6-0.8,0.8-1.3s0.3-1.1,0.4-1.8c0.1-0.6,0.1-1.3,0.1-1.9c0-0.8,0-1.6-0.1-2.3s-0.2-1.3-0.4-1.8
			c-0.2-0.5-0.5-0.9-0.8-1.2c-0.3-0.3-0.8-0.4-1.3-0.4c-0.6,0-1.1,0.2-1.5,0.5c-0.4,0.4-0.6,0.8-0.8,1.4s-0.3,1.2-0.4,1.8
			C748.5,116.4,748.5,117.1,748.5,117.7z"/>
		<path class="st2" d="M764.9,120.6c0,0.3,0,0.5,0.1,0.8c0,0.3,0.1,0.5,0.3,0.8c0.1,0.2,0.3,0.4,0.6,0.6s0.7,0.3,1.2,0.3
			c0.4,0,0.8-0.1,1.2-0.2s0.6-0.4,0.8-0.8c0.1-0.1,0.1-0.3,0.2-0.5c0-0.2,0.1-0.4,0.1-0.5c0-0.2,0-0.4,0-0.5c0-0.2,0-0.3,0-0.4v-10
			h2v10.6c0,0.7-0.1,1.3-0.4,1.8c-0.2,0.5-0.6,0.9-1,1.3s-0.9,0.6-1.4,0.8c-0.5,0.2-1.1,0.3-1.7,0.3c-0.2,0-0.4,0-0.7,0
			c-0.3,0-0.6-0.1-0.9-0.2c-0.3-0.1-0.6-0.3-1-0.5s-0.6-0.5-0.9-0.8c-0.2-0.2-0.3-0.5-0.4-0.7c-0.1-0.3-0.2-0.5-0.2-0.7
			c0-0.2-0.1-0.5-0.1-0.7c0-0.2,0-0.4,0-0.5H764.9z"/>
		<path class="st2" d="M780.9,124.5c-0.1-0.3-0.1-0.5-0.1-0.7s0-0.5,0-0.8c-0.2,0.4-0.5,0.7-0.8,1c-0.3,0.2-0.6,0.4-0.8,0.5
			c-0.3,0.1-0.6,0.2-0.8,0.2s-0.5,0.1-0.7,0.1c-0.6,0-1.1-0.1-1.5-0.2c-0.4-0.2-0.8-0.4-1.1-0.6c-0.3-0.3-0.5-0.6-0.7-0.9
			c-0.2-0.4-0.2-0.7-0.2-1.2c0-0.2,0-0.4,0.1-0.7c0-0.3,0.1-0.5,0.3-0.8s0.3-0.5,0.5-0.8s0.5-0.5,0.9-0.7c0.3-0.1,0.6-0.3,0.9-0.3
			c0.3-0.1,0.6-0.2,1-0.2s0.6-0.1,0.9-0.1c0.3,0,0.5,0,0.7,0c0.2,0,0.5,0,0.6,0c0.2,0,0.4,0,0.7,0.1c0-0.3,0-0.6,0-0.8
			c0-0.2,0-0.4,0-0.6s-0.1-0.3-0.1-0.5c0-0.1-0.1-0.3-0.2-0.4c-0.2-0.3-0.5-0.4-0.8-0.5c-0.4-0.1-0.7-0.1-0.9-0.1
			c-0.5,0-0.9,0.1-1.1,0.2c-0.3,0.1-0.5,0.3-0.6,0.5c-0.1,0.2-0.2,0.4-0.2,0.6s0,0.3,0,0.4h-1.9c0-0.3,0.1-0.6,0.2-0.9
			c0.1-0.3,0.3-0.7,0.5-1c0.2-0.2,0.4-0.4,0.7-0.5c0.3-0.1,0.5-0.2,0.8-0.3c0.3-0.1,0.6-0.1,0.9-0.2c0.3,0,0.6,0,0.9,0
			c0.4,0,0.7,0,1.1,0.1s0.7,0.2,1,0.3c0.3,0.1,0.6,0.3,0.9,0.5c0.3,0.2,0.4,0.4,0.6,0.7c0.2,0.3,0.3,0.6,0.3,0.8c0,0.2,0,0.5,0,0.7
			l-0.1,4.8c0,0,0,0.1,0,0.3c0,0.2,0,0.4,0,0.6c0,0.2,0,0.5,0,0.8s0.1,0.5,0.1,0.8H780.9z M780.7,119.7c-0.2,0-0.3,0-0.5,0
			s-0.4,0-0.6,0c-0.2,0-0.5,0-0.9,0c-0.4,0-0.8,0.1-1.2,0.2c-0.4,0.1-0.8,0.3-1.1,0.6s-0.5,0.7-0.5,1.2c0,0.2,0,0.3,0.1,0.5
			c0.1,0.2,0.2,0.4,0.3,0.6c0.2,0.2,0.4,0.3,0.6,0.5c0.3,0.1,0.6,0.2,1,0.2c1,0,1.7-0.4,2.1-1.1c0.1-0.2,0.2-0.3,0.2-0.5
			s0.1-0.3,0.1-0.5c0-0.2,0-0.4,0.1-0.7C780.6,120.3,780.7,120,780.7,119.7z"/>
		<path class="st2" d="M785.9,110.1h1.9v5.9c0.3-0.5,0.8-0.9,1.3-1.2c0.6-0.3,1.2-0.4,1.9-0.4c0.3,0,0.6,0,0.9,0.1
			c0.3,0.1,0.6,0.1,0.9,0.3s0.6,0.3,0.8,0.5c0.2,0.2,0.4,0.5,0.6,0.8c0.1,0.1,0.1,0.2,0.1,0.3s0.1,0.3,0.1,0.4c0,0.2,0,0.4,0.1,0.6
			c0,0.3,0,0.6,0,0.9v6.3h-1.9v-5.9c0-0.2,0-0.5,0-0.8c0-0.3-0.1-0.6-0.2-0.9c-0.1-0.3-0.4-0.6-0.6-0.8c-0.3-0.2-0.7-0.3-1.2-0.3
			c-0.3,0-0.7,0-0.9,0.1c-0.3,0.1-0.5,0.2-0.7,0.3s-0.4,0.3-0.5,0.4c-0.1,0.2-0.2,0.3-0.3,0.4c-0.2,0.3-0.3,0.6-0.3,1
			c0,0.4,0,0.8,0,1.1v5.3h-1.9V110.1z"/>
		<path class="st2" d="M798.2,116.5c0-0.3,0-0.7,0-1c0-0.3,0-0.7-0.1-1h1.9l0,1.9c0.1-0.3,0.2-0.6,0.4-0.9c0.2-0.2,0.4-0.4,0.6-0.6
			c0.2-0.2,0.5-0.3,0.7-0.3c0.2-0.1,0.5-0.1,0.7-0.2c0.3,0,0.5-0.1,0.7-0.1c0.2,0,0.4,0,0.6,0v1.8c-0.1,0-0.2-0.1-0.4-0.1
			c-0.1,0-0.1,0-0.2,0c-0.1,0-0.2,0-0.3,0c-0.6,0-1,0.1-1.4,0.2c-0.4,0.2-0.6,0.4-0.8,0.6c-0.2,0.3-0.3,0.6-0.4,1s-0.1,0.8-0.1,1.2
			v5.3h-1.9V116.5z"/>
		<path class="st2" d="M807,119.9c0,0.5,0,1,0.1,1.4c0.1,0.4,0.3,0.8,0.5,1.2s0.5,0.6,0.9,0.8c0.4,0.2,0.8,0.3,1.3,0.3
			c0.6,0,1.1-0.2,1.6-0.5c0.4-0.3,0.7-0.9,0.8-1.6h1.9c0,0.3-0.1,0.6-0.2,0.9c-0.1,0.4-0.3,0.8-0.7,1.2c-0.1,0.1-0.3,0.3-0.4,0.4
			c-0.2,0.2-0.4,0.3-0.7,0.4c-0.3,0.1-0.6,0.2-1,0.3c-0.4,0.1-0.8,0.1-1.3,0.1c-1.6,0-2.8-0.5-3.5-1.4c-0.8-0.9-1.1-2.2-1.1-3.8
			c0-1,0.1-1.9,0.4-2.7c0.3-0.8,0.8-1.5,1.6-2c0.2-0.2,0.5-0.3,0.8-0.4c0.3-0.1,0.5-0.2,0.8-0.2c0.2-0.1,0.5-0.1,0.7-0.1
			c0.2,0,0.4,0,0.5,0c0.7,0,1.4,0.1,1.9,0.3c0.5,0.2,0.9,0.5,1.2,0.8c0.3,0.3,0.6,0.7,0.7,1.1c0.2,0.4,0.3,0.8,0.4,1.2
			s0.1,0.8,0.1,1.2s0,0.7,0,1H807z M812.3,118.5c0-0.2,0-0.5-0.1-0.9c0-0.3-0.1-0.7-0.3-1s-0.4-0.6-0.8-0.8s-0.8-0.3-1.4-0.3
			c-0.3,0-0.6,0-0.9,0.2c-0.3,0.1-0.6,0.3-0.9,0.5c-0.3,0.2-0.5,0.5-0.7,0.9c-0.2,0.4-0.3,0.8-0.3,1.4H812.3z"/>
	</g>
	<g class="st1">
		<path d="M737.8,243.9c0,0.3,0.1,0.6,0.2,0.9c0.1,0.2,0.3,0.4,0.5,0.6c0.2,0.2,0.5,0.3,0.7,0.4s0.5,0.1,0.8,0.1
			c0.6,0,1.1-0.1,1.5-0.4c0.4-0.2,0.6-0.5,0.8-0.9c0.2-0.3,0.3-0.7,0.4-1c0.1-0.4,0.1-0.7,0.1-0.9c0-0.9-0.2-1.7-0.7-2.2
			c-0.5-0.5-1.1-0.8-1.9-0.8c-0.4,0-0.8,0.1-1.1,0.2c-0.3,0.1-0.6,0.3-0.8,0.5s-0.4,0.4-0.4,0.6c-0.1,0.2-0.1,0.4-0.2,0.5h-1.8
			l0.4-8.2h7.8v1.6H738l-0.3,4.5c0.1-0.1,0.2-0.2,0.4-0.4c0.2-0.1,0.4-0.3,0.6-0.4c0.2-0.1,0.5-0.2,0.8-0.3c0.3-0.1,0.7-0.1,1.1-0.1
			c0.7,0,1.3,0.1,1.8,0.4c0.5,0.3,1,0.6,1.3,1s0.6,0.9,0.8,1.5s0.3,1.1,0.3,1.7c0,0.7-0.1,1.3-0.3,1.9c-0.2,0.6-0.6,1.1-1,1.5
			s-0.9,0.8-1.5,1s-1.3,0.4-2,0.4c-0.6,0-1.1-0.1-1.6-0.2s-0.9-0.4-1.3-0.7c-0.4-0.3-0.7-0.7-0.9-1.1c-0.2-0.5-0.3-1-0.4-1.6H737.8z
			"/>
		<path d="M746.6,240.4c0-0.3,0-0.8,0-1.3s0.1-1,0.2-1.6c0.1-0.5,0.2-1.1,0.4-1.6s0.5-1,0.8-1.5c0.3-0.4,0.8-0.8,1.3-1
			c0.5-0.3,1.1-0.4,1.9-0.4c0.7,0,1.3,0.1,1.8,0.3c0.5,0.2,0.9,0.5,1.3,0.9c0.3,0.4,0.6,0.8,0.8,1.3c0.2,0.5,0.4,1,0.5,1.5
			c0.1,0.5,0.2,1,0.2,1.6c0,0.5,0.1,1,0.1,1.4c0,1.6-0.2,3-0.5,3.9c-0.3,1-0.8,1.8-1.4,2.4c-0.2,0.2-0.5,0.4-0.8,0.5
			c-0.3,0.1-0.5,0.2-0.8,0.3c-0.2,0.1-0.5,0.1-0.7,0.2c-0.2,0-0.4,0-0.6,0c-0.5,0-0.9-0.1-1.3-0.2c-0.4-0.1-0.7-0.3-1-0.5
			c-0.3-0.2-0.6-0.5-0.8-0.7c-0.2-0.3-0.4-0.6-0.6-0.9c-0.2-0.5-0.4-1-0.6-1.8S746.6,241.6,746.6,240.4z M748.5,240.3
			c0,0.8,0,1.5,0.1,2.2c0.1,0.7,0.2,1.2,0.4,1.7s0.5,0.9,0.8,1.2c0.3,0.3,0.8,0.4,1.3,0.4c0.6,0,1-0.2,1.4-0.5
			c0.4-0.3,0.6-0.8,0.8-1.3s0.3-1.1,0.4-1.8c0.1-0.6,0.1-1.3,0.1-1.9c0-0.8,0-1.6-0.1-2.3s-0.2-1.3-0.4-1.8
			c-0.2-0.5-0.5-0.9-0.8-1.2c-0.3-0.3-0.8-0.4-1.3-0.4c-0.6,0-1.1,0.2-1.5,0.5c-0.4,0.4-0.6,0.8-0.8,1.4s-0.3,1.2-0.4,1.8
			C748.5,239,748.5,239.7,748.5,240.3z"/>
		<path d="M764.9,243.2c0,0.3,0,0.5,0.1,0.8c0,0.3,0.1,0.5,0.3,0.8c0.1,0.2,0.3,0.4,0.6,0.6s0.7,0.3,1.2,0.3c0.4,0,0.8-0.1,1.2-0.2
			s0.6-0.4,0.8-0.8c0.1-0.1,0.1-0.3,0.2-0.5c0-0.2,0.1-0.4,0.1-0.5c0-0.2,0-0.4,0-0.5c0-0.2,0-0.3,0-0.4v-10h2v10.6
			c0,0.7-0.1,1.3-0.4,1.8c-0.2,0.5-0.6,0.9-1,1.3s-0.9,0.6-1.4,0.8c-0.5,0.2-1.1,0.3-1.7,0.3c-0.2,0-0.4,0-0.7,0
			c-0.3,0-0.6-0.1-0.9-0.2c-0.3-0.1-0.6-0.3-1-0.5s-0.6-0.5-0.9-0.8c-0.2-0.2-0.3-0.5-0.4-0.7c-0.1-0.3-0.2-0.5-0.2-0.7
			c0-0.2-0.1-0.5-0.1-0.7c0-0.2,0-0.4,0-0.5H764.9z"/>
		<path d="M780.9,247.1c-0.1-0.3-0.1-0.5-0.1-0.7s0-0.5,0-0.8c-0.2,0.4-0.5,0.7-0.8,1c-0.3,0.2-0.6,0.4-0.8,0.5
			c-0.3,0.1-0.6,0.2-0.8,0.2s-0.5,0.1-0.7,0.1c-0.6,0-1.1-0.1-1.5-0.2c-0.4-0.2-0.8-0.4-1.1-0.6c-0.3-0.3-0.5-0.6-0.7-0.9
			c-0.2-0.4-0.2-0.7-0.2-1.2c0-0.2,0-0.4,0.1-0.7c0-0.3,0.1-0.5,0.3-0.8s0.3-0.5,0.5-0.8s0.5-0.5,0.9-0.7c0.3-0.1,0.6-0.3,0.9-0.3
			c0.3-0.1,0.6-0.2,1-0.2s0.6-0.1,0.9-0.1c0.3,0,0.5,0,0.7,0c0.2,0,0.5,0,0.6,0c0.2,0,0.4,0,0.7,0.1c0-0.3,0-0.6,0-0.8
			c0-0.2,0-0.4,0-0.6s-0.1-0.3-0.1-0.5c0-0.1-0.1-0.3-0.2-0.4c-0.2-0.3-0.5-0.4-0.8-0.5c-0.4-0.1-0.7-0.1-0.9-0.1
			c-0.5,0-0.9,0.1-1.1,0.2c-0.3,0.1-0.5,0.3-0.6,0.5c-0.1,0.2-0.2,0.4-0.2,0.6s0,0.3,0,0.4h-1.9c0-0.3,0.1-0.6,0.2-0.9
			c0.1-0.3,0.3-0.7,0.5-1c0.2-0.2,0.4-0.4,0.7-0.5c0.3-0.1,0.5-0.2,0.8-0.3c0.3-0.1,0.6-0.1,0.9-0.2c0.3,0,0.6,0,0.9,0
			c0.4,0,0.7,0,1.1,0.1s0.7,0.2,1,0.3c0.3,0.1,0.6,0.3,0.9,0.5c0.3,0.2,0.4,0.4,0.6,0.7c0.2,0.3,0.3,0.6,0.3,0.8c0,0.2,0,0.5,0,0.7
			l-0.1,4.8c0,0,0,0.1,0,0.3c0,0.2,0,0.4,0,0.6c0,0.2,0,0.5,0,0.8s0.1,0.5,0.1,0.8H780.9z M780.7,242.3c-0.2,0-0.3,0-0.5,0
			s-0.4,0-0.6,0c-0.2,0-0.5,0-0.9,0c-0.4,0-0.8,0.1-1.2,0.2c-0.4,0.1-0.8,0.3-1.1,0.6s-0.5,0.7-0.5,1.2c0,0.2,0,0.3,0.1,0.5
			c0.1,0.2,0.2,0.4,0.3,0.6c0.2,0.2,0.4,0.3,0.6,0.5c0.3,0.1,0.6,0.2,1,0.2c1,0,1.7-0.4,2.1-1.1c0.1-0.2,0.2-0.3,0.2-0.5
			s0.1-0.3,0.1-0.5c0-0.2,0-0.4,0.1-0.7C780.6,242.9,780.7,242.6,780.7,242.3z"/>
		<path d="M785.9,232.7h1.9v5.9c0.3-0.5,0.8-0.9,1.3-1.2c0.6-0.3,1.2-0.4,1.9-0.4c0.3,0,0.6,0,0.9,0.1c0.3,0.1,0.6,0.1,0.9,0.3
			s0.6,0.3,0.8,0.5c0.2,0.2,0.4,0.5,0.6,0.8c0.1,0.1,0.1,0.2,0.1,0.3s0.1,0.3,0.1,0.4c0,0.2,0,0.4,0.1,0.6c0,0.3,0,0.6,0,0.9v6.3
			h-1.9v-5.9c0-0.2,0-0.5,0-0.8c0-0.3-0.1-0.6-0.2-0.9c-0.1-0.3-0.4-0.6-0.6-0.8c-0.3-0.2-0.7-0.3-1.2-0.3c-0.3,0-0.7,0-0.9,0.1
			c-0.3,0.1-0.5,0.2-0.7,0.3s-0.4,0.3-0.5,0.4c-0.1,0.2-0.2,0.3-0.3,0.4c-0.2,0.3-0.3,0.6-0.3,1c0,0.4,0,0.8,0,1.1v5.3h-1.9V232.7z"
			/>
		<path d="M798.2,239.1c0-0.3,0-0.7,0-1c0-0.3,0-0.7-0.1-1h1.9l0,1.9c0.1-0.3,0.2-0.6,0.4-0.9c0.2-0.2,0.4-0.4,0.6-0.6
			c0.2-0.2,0.5-0.3,0.7-0.3c0.2-0.1,0.5-0.1,0.7-0.2c0.3,0,0.5-0.1,0.7-0.1c0.2,0,0.4,0,0.6,0v1.8c-0.1,0-0.2-0.1-0.4-0.1
			c-0.1,0-0.1,0-0.2,0c-0.1,0-0.2,0-0.3,0c-0.6,0-1,0.1-1.4,0.2c-0.4,0.2-0.6,0.4-0.8,0.6c-0.2,0.3-0.3,0.6-0.4,1s-0.1,0.8-0.1,1.2
			v5.3h-1.9V239.1z"/>
		<path d="M807,242.5c0,0.5,0,1,0.1,1.4c0.1,0.4,0.3,0.8,0.5,1.2s0.5,0.6,0.9,0.8c0.4,0.2,0.8,0.3,1.3,0.3c0.6,0,1.1-0.2,1.6-0.5
			c0.4-0.3,0.7-0.9,0.8-1.6h1.9c0,0.3-0.1,0.6-0.2,0.9c-0.1,0.4-0.3,0.8-0.7,1.2c-0.1,0.1-0.3,0.3-0.4,0.4c-0.2,0.2-0.4,0.3-0.7,0.4
			c-0.3,0.1-0.6,0.2-1,0.3c-0.4,0.1-0.8,0.1-1.3,0.1c-1.6,0-2.8-0.5-3.5-1.4c-0.8-0.9-1.1-2.2-1.1-3.8c0-1,0.1-1.9,0.4-2.7
			c0.3-0.8,0.8-1.5,1.6-2c0.2-0.2,0.5-0.3,0.8-0.4c0.3-0.1,0.5-0.2,0.8-0.2c0.2-0.1,0.5-0.1,0.7-0.1c0.2,0,0.4,0,0.5,0
			c0.7,0,1.4,0.1,1.9,0.3c0.5,0.2,0.9,0.5,1.2,0.8c0.3,0.3,0.6,0.7,0.7,1.1c0.2,0.4,0.3,0.8,0.4,1.2s0.1,0.8,0.1,1.2s0,0.7,0,1H807z
			 M812.3,241.1c0-0.2,0-0.5-0.1-0.9c0-0.3-0.1-0.7-0.3-1s-0.4-0.6-0.8-0.8s-0.8-0.3-1.4-0.3c-0.3,0-0.6,0-0.9,0.2
			c-0.3,0.1-0.6,0.3-0.9,0.5c-0.3,0.2-0.5,0.5-0.7,0.9c-0.2,0.4-0.3,0.8-0.3,1.4H812.3z"/>
	</g>
	<g class="st1">
		<path d="M742.7,295.7c0-0.4-0.1-0.7-0.2-1c-0.1-0.3-0.3-0.5-0.5-0.6s-0.4-0.3-0.7-0.3c-0.2-0.1-0.5-0.1-0.7-0.1
			c-1,0-1.7,0.4-2.2,1.3c-0.5,0.9-0.8,2.2-0.8,4.1c0.1-0.2,0.2-0.3,0.4-0.5c0.2-0.2,0.4-0.4,0.6-0.6c0.3-0.2,0.6-0.3,0.9-0.5
			s0.8-0.2,1.3-0.2c0.6,0,1.1,0.1,1.6,0.3c0.5,0.2,1,0.5,1.3,0.8c0.4,0.4,0.7,0.8,0.9,1.4c0.2,0.6,0.3,1.2,0.3,1.9
			c0,0.8-0.1,1.5-0.4,2.1c-0.3,0.6-0.6,1.1-1.1,1.5c-0.4,0.4-0.9,0.7-1.5,0.9c-0.6,0.2-1.1,0.3-1.7,0.3c-0.7,0-1.3-0.1-1.9-0.4
			s-1.1-0.6-1.5-1.1c-0.3-0.3-0.5-0.7-0.6-1.1c-0.2-0.4-0.3-0.8-0.4-1.3c-0.1-0.4-0.2-0.9-0.2-1.4c0-0.5-0.1-0.9-0.1-1.3
			c0-0.5,0-1,0.1-1.6c0.1-0.6,0.1-1.2,0.3-1.7s0.3-1.1,0.6-1.7c0.2-0.5,0.6-1,0.9-1.4s0.8-0.7,1.4-1c0.5-0.2,1.2-0.4,1.9-0.4
			c0.5,0,0.9,0,1.2,0.1c0.4,0.1,0.7,0.2,0.9,0.3c0.3,0.1,0.5,0.3,0.7,0.4c0.2,0.2,0.3,0.3,0.5,0.4c0.2,0.2,0.3,0.4,0.4,0.6
			c0.1,0.2,0.2,0.4,0.2,0.6c0,0.2,0.1,0.4,0.1,0.6c0,0.2,0,0.3,0,0.5H742.7z M740.3,305.1c0.3,0,0.6-0.1,0.9-0.2
			c0.3-0.1,0.6-0.3,0.9-0.6c0.3-0.3,0.5-0.6,0.6-1c0.2-0.4,0.2-0.9,0.2-1.4c0-0.2,0-0.5-0.1-0.9c-0.1-0.4-0.2-0.7-0.4-1
			c-0.2-0.3-0.4-0.6-0.8-0.8s-0.8-0.3-1.4-0.3c-0.5,0-0.9,0.1-1.2,0.3c-0.3,0.2-0.6,0.4-0.9,0.7c-0.2,0.3-0.4,0.6-0.5,1
			c-0.1,0.4-0.2,0.8-0.2,1.2c0,0.5,0.1,0.9,0.2,1.2c0.1,0.4,0.3,0.7,0.5,1c0.2,0.3,0.5,0.5,0.8,0.6S740,305.1,740.3,305.1z"/>
		<path d="M746.6,299.5c0-0.3,0-0.8,0-1.3s0.1-1,0.2-1.6c0.1-0.5,0.2-1.1,0.4-1.6s0.5-1,0.8-1.5c0.3-0.4,0.8-0.8,1.3-1
			c0.5-0.3,1.1-0.4,1.9-0.4c0.7,0,1.3,0.1,1.8,0.3c0.5,0.2,0.9,0.5,1.3,0.9c0.3,0.4,0.6,0.8,0.8,1.3c0.2,0.5,0.4,1,0.5,1.5
			c0.1,0.5,0.2,1,0.2,1.6c0,0.5,0.1,1,0.1,1.4c0,1.6-0.2,3-0.5,3.9c-0.3,1-0.8,1.8-1.4,2.4c-0.2,0.2-0.5,0.4-0.8,0.5
			c-0.3,0.1-0.5,0.2-0.8,0.3c-0.2,0.1-0.5,0.1-0.7,0.2c-0.2,0-0.4,0-0.6,0c-0.5,0-0.9-0.1-1.3-0.2c-0.4-0.1-0.7-0.3-1-0.5
			c-0.3-0.2-0.6-0.5-0.8-0.7c-0.2-0.3-0.4-0.6-0.6-0.9c-0.2-0.5-0.4-1-0.6-1.8S746.6,300.8,746.6,299.5z M748.5,299.4
			c0,0.8,0,1.5,0.1,2.2c0.1,0.7,0.2,1.2,0.4,1.7s0.5,0.9,0.8,1.2c0.3,0.3,0.8,0.4,1.3,0.4c0.6,0,1-0.2,1.4-0.5
			c0.4-0.3,0.6-0.8,0.8-1.3s0.3-1.1,0.4-1.8c0.1-0.6,0.1-1.3,0.1-1.9c0-0.8,0-1.6-0.1-2.3s-0.2-1.3-0.4-1.8
			c-0.2-0.5-0.5-0.9-0.8-1.2c-0.3-0.3-0.8-0.4-1.3-0.4c-0.6,0-1.1,0.2-1.5,0.5c-0.4,0.4-0.6,0.8-0.8,1.4s-0.3,1.2-0.4,1.8
			C748.5,298.2,748.5,298.8,748.5,299.4z"/>
		<path d="M764.9,302.4c0,0.3,0,0.5,0.1,0.8c0,0.3,0.1,0.5,0.3,0.8c0.1,0.2,0.3,0.4,0.6,0.6s0.7,0.3,1.2,0.3c0.4,0,0.8-0.1,1.2-0.2
			s0.6-0.4,0.8-0.8c0.1-0.1,0.1-0.3,0.2-0.5c0-0.2,0.1-0.4,0.1-0.5c0-0.2,0-0.4,0-0.5c0-0.2,0-0.3,0-0.4v-10h2v10.6
			c0,0.7-0.1,1.3-0.4,1.8c-0.2,0.5-0.6,0.9-1,1.3s-0.9,0.6-1.4,0.8c-0.5,0.2-1.1,0.3-1.7,0.3c-0.2,0-0.4,0-0.7,0
			c-0.3,0-0.6-0.1-0.9-0.2c-0.3-0.1-0.6-0.3-1-0.5s-0.6-0.5-0.9-0.8c-0.2-0.2-0.3-0.5-0.4-0.7c-0.1-0.3-0.2-0.5-0.2-0.7
			c0-0.2-0.1-0.5-0.1-0.7c0-0.2,0-0.4,0-0.5H764.9z"/>
		<path d="M780.9,306.3c-0.1-0.3-0.1-0.5-0.1-0.7s0-0.5,0-0.8c-0.2,0.4-0.5,0.7-0.8,1c-0.3,0.2-0.6,0.4-0.8,0.5
			c-0.3,0.1-0.6,0.2-0.8,0.2s-0.5,0.1-0.7,0.1c-0.6,0-1.1-0.1-1.5-0.2c-0.4-0.2-0.8-0.4-1.1-0.6c-0.3-0.3-0.5-0.6-0.7-0.9
			c-0.2-0.4-0.2-0.7-0.2-1.2c0-0.2,0-0.4,0.1-0.7c0-0.3,0.1-0.5,0.3-0.8s0.3-0.5,0.5-0.8c0.2-0.3,0.5-0.5,0.9-0.7
			c0.3-0.1,0.6-0.3,0.9-0.3c0.3-0.1,0.6-0.2,1-0.2s0.6-0.1,0.9-0.1c0.3,0,0.5,0,0.7,0c0.2,0,0.5,0,0.6,0c0.2,0,0.4,0,0.7,0.1
			c0-0.3,0-0.6,0-0.8c0-0.2,0-0.4,0-0.6s-0.1-0.3-0.1-0.5c0-0.1-0.1-0.3-0.2-0.4c-0.2-0.3-0.5-0.4-0.8-0.5c-0.4-0.1-0.7-0.1-0.9-0.1
			c-0.5,0-0.9,0.1-1.1,0.2c-0.3,0.1-0.5,0.3-0.6,0.5c-0.1,0.2-0.2,0.4-0.2,0.6s0,0.3,0,0.4h-1.9c0-0.3,0.1-0.6,0.2-0.9
			c0.1-0.3,0.3-0.7,0.5-1c0.2-0.2,0.4-0.4,0.7-0.5c0.3-0.1,0.5-0.2,0.8-0.3c0.3-0.1,0.6-0.1,0.9-0.2c0.3,0,0.6,0,0.9,0
			c0.4,0,0.7,0,1.1,0.1s0.7,0.2,1,0.3c0.3,0.1,0.6,0.3,0.9,0.5c0.3,0.2,0.4,0.4,0.6,0.7c0.2,0.3,0.3,0.6,0.3,0.8c0,0.2,0,0.5,0,0.7
			l-0.1,4.8c0,0,0,0.1,0,0.3c0,0.2,0,0.4,0,0.6c0,0.2,0,0.5,0,0.8s0.1,0.5,0.1,0.8H780.9z M780.7,301.4c-0.2,0-0.3,0-0.5-0.1
			s-0.4,0-0.6,0c-0.2,0-0.5,0-0.9,0c-0.4,0-0.8,0.1-1.2,0.2c-0.4,0.1-0.8,0.3-1.1,0.6s-0.5,0.7-0.5,1.2c0,0.2,0,0.3,0.1,0.5
			c0.1,0.2,0.2,0.4,0.3,0.6c0.2,0.2,0.4,0.3,0.6,0.5c0.3,0.1,0.6,0.2,1,0.2c1,0,1.7-0.4,2.1-1.1c0.1-0.2,0.2-0.3,0.2-0.5
			s0.1-0.3,0.1-0.5c0-0.2,0-0.4,0.1-0.7C780.6,302,780.7,301.7,780.7,301.4z"/>
		<path d="M785.9,291.9h1.9v5.9c0.3-0.5,0.8-0.9,1.3-1.2c0.6-0.3,1.2-0.4,1.9-0.4c0.3,0,0.6,0,0.9,0.1c0.3,0.1,0.6,0.1,0.9,0.3
			s0.6,0.3,0.8,0.5c0.2,0.2,0.4,0.5,0.6,0.8c0.1,0.1,0.1,0.2,0.1,0.3s0.1,0.3,0.1,0.4c0,0.2,0,0.4,0.1,0.6c0,0.3,0,0.6,0,0.9v6.3
			h-1.9v-5.9c0-0.2,0-0.5,0-0.8c0-0.3-0.1-0.6-0.2-0.9c-0.1-0.3-0.4-0.6-0.6-0.8c-0.3-0.2-0.7-0.3-1.2-0.3c-0.3,0-0.7,0-0.9,0.1
			c-0.3,0.1-0.5,0.2-0.7,0.3s-0.4,0.3-0.5,0.4c-0.1,0.2-0.2,0.3-0.3,0.4c-0.2,0.3-0.3,0.6-0.3,1c0,0.4,0,0.8,0,1.1v5.3h-1.9V291.9z"
			/>
		<path d="M798.2,298.3c0-0.3,0-0.7,0-1c0-0.3,0-0.7-0.1-1h1.9l0,1.9c0.1-0.3,0.2-0.6,0.4-0.9c0.2-0.2,0.4-0.4,0.6-0.6
			c0.2-0.2,0.5-0.3,0.7-0.3c0.2-0.1,0.5-0.1,0.7-0.2c0.3,0,0.5-0.1,0.7-0.1c0.2,0,0.4,0,0.6,0v1.8c-0.1,0-0.2-0.1-0.4-0.1
			c-0.1,0-0.1,0-0.2,0c-0.1,0-0.2,0-0.3,0c-0.6,0-1,0.1-1.4,0.2c-0.4,0.2-0.6,0.4-0.8,0.6c-0.2,0.3-0.3,0.6-0.4,1s-0.1,0.8-0.1,1.2
			v5.3h-1.9V298.3z"/>
		<path d="M807,301.6c0,0.5,0,1,0.1,1.4c0.1,0.4,0.3,0.8,0.5,1.2s0.5,0.6,0.9,0.8c0.4,0.2,0.8,0.3,1.3,0.3c0.6,0,1.1-0.2,1.6-0.5
			c0.4-0.3,0.7-0.9,0.8-1.6h1.9c0,0.3-0.1,0.6-0.2,0.9c-0.1,0.4-0.3,0.8-0.7,1.2c-0.1,0.1-0.3,0.3-0.4,0.4c-0.2,0.2-0.4,0.3-0.7,0.4
			c-0.3,0.1-0.6,0.2-1,0.3c-0.4,0.1-0.8,0.1-1.3,0.1c-1.6,0-2.8-0.5-3.5-1.4c-0.8-0.9-1.1-2.2-1.1-3.8c0-1,0.1-1.9,0.4-2.7
			c0.3-0.8,0.8-1.5,1.6-2c0.2-0.2,0.5-0.3,0.8-0.4c0.3-0.1,0.5-0.2,0.8-0.2c0.2-0.1,0.5-0.1,0.7-0.1c0.2,0,0.4,0,0.5,0
			c0.7,0,1.4,0.1,1.9,0.3c0.5,0.2,0.9,0.5,1.2,0.8c0.3,0.3,0.6,0.7,0.7,1.1c0.2,0.4,0.3,0.8,0.4,1.2s0.1,0.8,0.1,1.2s0,0.7,0,1H807z
			 M812.3,300.3c0-0.2,0-0.5-0.1-0.9c0-0.3-0.1-0.7-0.3-1s-0.4-0.6-0.8-0.8s-0.8-0.3-1.4-0.3c-0.3,0-0.6,0-0.9,0.2
			c-0.3,0.1-0.6,0.3-0.9,0.5c-0.3,0.2-0.5,0.5-0.7,0.9c-0.2,0.4-0.3,0.8-0.3,1.4H812.3z"/>
	</g>
	<g class="st1">
		<path d="M735.3,388.8h9.1v1.7l-5.1,12.2h-2.3l5.3-12.2h-7.1V388.8z"/>
		<path d="M746.6,395.9c0-0.3,0-0.8,0-1.3s0.1-1,0.2-1.6c0.1-0.5,0.2-1.1,0.4-1.6s0.5-1,0.8-1.5c0.3-0.4,0.8-0.8,1.3-1
			c0.5-0.3,1.1-0.4,1.9-0.4c0.7,0,1.3,0.1,1.8,0.3c0.5,0.2,0.9,0.5,1.3,0.9c0.3,0.4,0.6,0.8,0.8,1.3c0.2,0.5,0.4,1,0.5,1.5
			c0.1,0.5,0.2,1,0.2,1.6c0,0.5,0.1,1,0.1,1.4c0,1.6-0.2,3-0.5,3.9c-0.3,1-0.8,1.8-1.4,2.4c-0.2,0.2-0.5,0.4-0.8,0.5
			c-0.3,0.1-0.5,0.2-0.8,0.3c-0.2,0.1-0.5,0.1-0.7,0.2c-0.2,0-0.4,0-0.6,0c-0.5,0-0.9-0.1-1.3-0.2c-0.4-0.1-0.7-0.3-1-0.5
			c-0.3-0.2-0.6-0.5-0.8-0.7c-0.2-0.3-0.4-0.6-0.6-0.9c-0.2-0.5-0.4-1-0.6-1.8S746.6,397.1,746.6,395.9z M748.5,395.8
			c0,0.8,0,1.5,0.1,2.2c0.1,0.7,0.2,1.2,0.4,1.7s0.5,0.9,0.8,1.2c0.3,0.3,0.8,0.4,1.3,0.4c0.6,0,1-0.2,1.4-0.5
			c0.4-0.3,0.6-0.8,0.8-1.3s0.3-1.1,0.4-1.8c0.1-0.6,0.1-1.3,0.1-1.9c0-0.8,0-1.6-0.1-2.3s-0.2-1.3-0.4-1.8
			c-0.2-0.5-0.5-0.9-0.8-1.2c-0.3-0.3-0.8-0.4-1.3-0.4c-0.6,0-1.1,0.2-1.5,0.5c-0.4,0.4-0.6,0.8-0.8,1.4s-0.3,1.2-0.4,1.8
			C748.5,394.5,748.5,395.2,748.5,395.8z"/>
		<path d="M764.9,398.7c0,0.3,0,0.5,0.1,0.8c0,0.3,0.1,0.5,0.3,0.8c0.1,0.2,0.3,0.4,0.6,0.6s0.7,0.3,1.2,0.3c0.4,0,0.8-0.1,1.2-0.2
			s0.6-0.4,0.8-0.8c0.1-0.1,0.1-0.3,0.2-0.5c0-0.2,0.1-0.4,0.1-0.5c0-0.2,0-0.4,0-0.5c0-0.2,0-0.3,0-0.4v-10h2v10.6
			c0,0.7-0.1,1.3-0.4,1.8c-0.2,0.5-0.6,0.9-1,1.3s-0.9,0.6-1.4,0.8c-0.5,0.2-1.1,0.3-1.7,0.3c-0.2,0-0.4,0-0.7,0
			c-0.3,0-0.6-0.1-0.9-0.2c-0.3-0.1-0.6-0.3-1-0.5s-0.6-0.5-0.9-0.8c-0.2-0.2-0.3-0.5-0.4-0.7c-0.1-0.3-0.2-0.5-0.2-0.7
			c0-0.2-0.1-0.5-0.1-0.7c0-0.2,0-0.4,0-0.5H764.9z"/>
		<path d="M780.9,402.7c-0.1-0.3-0.1-0.5-0.1-0.7s0-0.5,0-0.8c-0.2,0.4-0.5,0.7-0.8,1c-0.3,0.2-0.6,0.4-0.8,0.5
			c-0.3,0.1-0.6,0.2-0.8,0.2s-0.5,0.1-0.7,0.1c-0.6,0-1.1-0.1-1.5-0.2c-0.4-0.2-0.8-0.4-1.1-0.6c-0.3-0.3-0.5-0.6-0.7-0.9
			c-0.2-0.4-0.2-0.7-0.2-1.2c0-0.2,0-0.4,0.1-0.7c0-0.3,0.1-0.5,0.3-0.8s0.3-0.5,0.5-0.8s0.5-0.5,0.9-0.7c0.3-0.1,0.6-0.3,0.9-0.3
			c0.3-0.1,0.6-0.2,1-0.2s0.6-0.1,0.9-0.1c0.3,0,0.5,0,0.7,0c0.2,0,0.5,0,0.6,0c0.2,0,0.4,0,0.7,0.1c0-0.3,0-0.6,0-0.8
			c0-0.2,0-0.4,0-0.6s-0.1-0.3-0.1-0.5c0-0.1-0.1-0.3-0.2-0.4c-0.2-0.3-0.5-0.4-0.8-0.5c-0.4-0.1-0.7-0.1-0.9-0.1
			c-0.5,0-0.9,0.1-1.1,0.2c-0.3,0.1-0.5,0.3-0.6,0.5c-0.1,0.2-0.2,0.4-0.2,0.6s0,0.3,0,0.4h-1.9c0-0.3,0.1-0.6,0.2-0.9
			c0.1-0.3,0.3-0.7,0.5-1c0.2-0.2,0.4-0.4,0.7-0.5c0.3-0.1,0.5-0.2,0.8-0.3c0.3-0.1,0.6-0.1,0.9-0.2c0.3,0,0.6,0,0.9,0
			c0.4,0,0.7,0,1.1,0.1s0.7,0.2,1,0.3c0.3,0.1,0.6,0.3,0.9,0.5c0.3,0.2,0.4,0.4,0.6,0.7c0.2,0.3,0.3,0.6,0.3,0.8c0,0.2,0,0.5,0,0.7
			l-0.1,4.8c0,0,0,0.1,0,0.3c0,0.2,0,0.4,0,0.6c0,0.2,0,0.5,0,0.8s0.1,0.5,0.1,0.8H780.9z M780.7,397.8c-0.2,0-0.3,0-0.5,0
			s-0.4,0-0.6,0c-0.2,0-0.5,0-0.9,0c-0.4,0-0.8,0.1-1.2,0.2c-0.4,0.1-0.8,0.3-1.1,0.6s-0.5,0.7-0.5,1.2c0,0.2,0,0.3,0.1,0.5
			c0.1,0.2,0.2,0.4,0.3,0.6c0.2,0.2,0.4,0.3,0.6,0.5c0.3,0.1,0.6,0.2,1,0.2c1,0,1.7-0.4,2.1-1.1c0.1-0.2,0.2-0.3,0.2-0.5
			s0.1-0.3,0.1-0.5c0-0.2,0-0.4,0.1-0.7C780.6,398.4,780.7,398.1,780.7,397.8z"/>
		<path d="M785.9,388.2h1.9v5.9c0.3-0.5,0.8-0.9,1.3-1.2c0.6-0.3,1.2-0.4,1.9-0.4c0.3,0,0.6,0,0.9,0.1c0.3,0.1,0.6,0.1,0.9,0.3
			s0.6,0.3,0.8,0.5c0.2,0.2,0.4,0.5,0.6,0.8c0.1,0.1,0.1,0.2,0.1,0.3s0.1,0.3,0.1,0.4c0,0.2,0,0.4,0.1,0.6c0,0.3,0,0.6,0,0.9v6.3
			h-1.9v-5.9c0-0.2,0-0.5,0-0.8c0-0.3-0.1-0.6-0.2-0.9c-0.1-0.3-0.4-0.6-0.6-0.8c-0.3-0.2-0.7-0.3-1.2-0.3c-0.3,0-0.7,0-0.9,0.1
			c-0.3,0.1-0.5,0.2-0.7,0.3s-0.4,0.3-0.5,0.4c-0.1,0.2-0.2,0.3-0.3,0.4c-0.2,0.3-0.3,0.6-0.3,1c0,0.4,0,0.8,0,1.1v5.3h-1.9V388.2z"
			/>
		<path d="M798.2,394.7c0-0.3,0-0.7,0-1c0-0.3,0-0.7-0.1-1h1.9l0,1.9c0.1-0.3,0.2-0.6,0.4-0.9c0.2-0.2,0.4-0.4,0.6-0.6
			c0.2-0.2,0.5-0.3,0.7-0.3c0.2-0.1,0.5-0.1,0.7-0.2c0.3,0,0.5-0.1,0.7-0.1c0.2,0,0.4,0,0.6,0v1.8c-0.1,0-0.2-0.1-0.4-0.1
			c-0.1,0-0.1,0-0.2,0c-0.1,0-0.2,0-0.3,0c-0.6,0-1,0.1-1.4,0.2c-0.4,0.2-0.6,0.4-0.8,0.6c-0.2,0.3-0.3,0.6-0.4,1s-0.1,0.8-0.1,1.2
			v5.3h-1.9V394.7z"/>
		<path d="M807,398c0,0.5,0,1,0.1,1.4c0.1,0.4,0.3,0.8,0.5,1.2s0.5,0.6,0.9,0.8c0.4,0.2,0.8,0.3,1.3,0.3c0.6,0,1.1-0.2,1.6-0.5
			c0.4-0.3,0.7-0.9,0.8-1.6h1.9c0,0.3-0.1,0.6-0.2,0.9c-0.1,0.4-0.3,0.8-0.7,1.2c-0.1,0.1-0.3,0.3-0.4,0.4c-0.2,0.2-0.4,0.3-0.7,0.4
			c-0.3,0.1-0.6,0.2-1,0.3c-0.4,0.1-0.8,0.1-1.3,0.1c-1.6,0-2.8-0.5-3.5-1.4c-0.8-0.9-1.1-2.2-1.1-3.8c0-1,0.1-1.9,0.4-2.7
			c0.3-0.8,0.8-1.5,1.6-2c0.2-0.2,0.5-0.3,0.8-0.4c0.3-0.1,0.5-0.2,0.8-0.2c0.2-0.1,0.5-0.1,0.7-0.1c0.2,0,0.4,0,0.5,0
			c0.7,0,1.4,0.1,1.9,0.3c0.5,0.2,0.9,0.5,1.2,0.8c0.3,0.3,0.6,0.7,0.7,1.1c0.2,0.4,0.3,0.8,0.4,1.2s0.1,0.8,0.1,1.2s0,0.7,0,1H807z
			 M812.3,396.7c0-0.2,0-0.5-0.1-0.9c0-0.3-0.1-0.7-0.3-1s-0.4-0.6-0.8-0.8s-0.8-0.3-1.4-0.3c-0.3,0-0.6,0-0.9,0.2
			c-0.3,0.1-0.6,0.3-0.9,0.5c-0.3,0.2-0.5,0.5-0.7,0.9c-0.2,0.4-0.3,0.8-0.3,1.4H812.3z"/>
	</g>
	<g class="st1">
		<path d="M738.4,491.4c-0.9-0.2-1.6-0.6-2.1-1.2c-0.5-0.6-0.7-1.2-0.7-1.9c0-0.3,0.1-0.7,0.2-1.1c0.1-0.4,0.4-0.8,0.7-1.2
			c0.3-0.4,0.8-0.7,1.4-1s1.3-0.4,2.2-0.4c0.7,0,1.4,0.1,2,0.3c0.6,0.2,1,0.4,1.4,0.8c0.4,0.3,0.7,0.7,0.9,1.2
			c0.2,0.4,0.3,0.9,0.3,1.5c0,0.3-0.1,0.7-0.2,1c-0.1,0.3-0.3,0.6-0.5,0.9c-0.2,0.3-0.5,0.5-0.9,0.7s-0.8,0.4-1.3,0.4
			c0.2,0.1,0.5,0.1,0.8,0.3c0.3,0.1,0.7,0.3,1,0.6c0.3,0.3,0.6,0.6,0.8,1c0.2,0.4,0.4,1,0.4,1.6c0,0.5-0.1,1-0.3,1.4
			c-0.2,0.5-0.4,0.9-0.8,1.3c-0.4,0.4-0.9,0.7-1.5,1c-0.6,0.2-1.3,0.4-2.2,0.4c-0.6,0-1.2-0.1-1.9-0.2s-1.2-0.5-1.7-0.9
			c-0.4-0.3-0.7-0.8-0.9-1.3c-0.2-0.5-0.3-1-0.3-1.5c0-0.5,0.1-0.9,0.3-1.4c0.2-0.4,0.4-0.8,0.8-1.2c0.3-0.3,0.7-0.6,1-0.7
			C737.8,491.6,738.1,491.5,738.4,491.4z M737.3,494.8c0,0.3,0,0.5,0.1,0.8c0.1,0.3,0.2,0.6,0.5,0.8c0.2,0.3,0.5,0.5,0.9,0.6
			c0.4,0.2,0.8,0.2,1.3,0.2c0.6,0,1-0.1,1.4-0.3c0.4-0.2,0.6-0.4,0.8-0.7s0.3-0.5,0.4-0.8s0.1-0.6,0.1-0.9c0-0.8-0.3-1.4-0.8-1.8
			s-1.2-0.7-2-0.7c-0.4,0-0.8,0.1-1.2,0.2c-0.3,0.1-0.6,0.3-0.9,0.5c-0.2,0.2-0.4,0.5-0.6,0.8C737.4,494.1,737.3,494.4,737.3,494.8z
			 M742.8,488.2c0-0.6-0.2-1.2-0.7-1.6c-0.4-0.4-1.1-0.6-1.9-0.6c-0.4,0-0.7,0.1-1,0.2s-0.6,0.3-0.8,0.4c-0.2,0.2-0.4,0.4-0.5,0.7
			c-0.1,0.3-0.2,0.6-0.2,0.9c0,0.3,0.1,0.6,0.2,0.9c0.1,0.3,0.3,0.5,0.5,0.7c0.2,0.2,0.5,0.4,0.8,0.5c0.3,0.1,0.7,0.2,1,0.2
			c0.8,0,1.4-0.2,1.9-0.6C742.5,489.5,742.8,488.9,742.8,488.2z"/>
		<path d="M746.6,491.9c0-0.3,0-0.8,0-1.3s0.1-1,0.2-1.6c0.1-0.5,0.2-1.1,0.4-1.6s0.5-1,0.8-1.5c0.3-0.4,0.8-0.8,1.3-1
			c0.5-0.3,1.1-0.4,1.9-0.4c0.7,0,1.3,0.1,1.8,0.3c0.5,0.2,0.9,0.5,1.3,0.9c0.3,0.4,0.6,0.8,0.8,1.3c0.2,0.5,0.4,1,0.5,1.5
			c0.1,0.5,0.2,1,0.2,1.6c0,0.5,0.1,1,0.1,1.4c0,1.6-0.2,3-0.5,3.9c-0.3,1-0.8,1.8-1.4,2.4c-0.2,0.2-0.5,0.4-0.8,0.5
			c-0.3,0.1-0.5,0.2-0.8,0.3c-0.2,0.1-0.5,0.1-0.7,0.2c-0.2,0-0.4,0-0.6,0c-0.5,0-0.9-0.1-1.3-0.2c-0.4-0.1-0.7-0.3-1-0.5
			c-0.3-0.2-0.6-0.5-0.8-0.7c-0.2-0.3-0.4-0.6-0.6-0.9c-0.2-0.5-0.4-1-0.6-1.8S746.6,493.1,746.6,491.9z M748.5,491.8
			c0,0.8,0,1.5,0.1,2.2c0.1,0.7,0.2,1.2,0.4,1.7s0.5,0.9,0.8,1.2c0.3,0.3,0.8,0.4,1.3,0.4c0.6,0,1-0.2,1.4-0.5
			c0.4-0.3,0.6-0.8,0.8-1.3s0.3-1.1,0.4-1.8c0.1-0.6,0.1-1.3,0.1-1.9c0-0.8,0-1.6-0.1-2.3s-0.2-1.3-0.4-1.8
			c-0.2-0.5-0.5-0.9-0.8-1.2c-0.3-0.3-0.8-0.4-1.3-0.4c-0.6,0-1.1,0.2-1.5,0.5c-0.4,0.4-0.6,0.8-0.8,1.4s-0.3,1.2-0.4,1.8
			C748.5,490.5,748.5,491.2,748.5,491.8z"/>
		<path d="M764.9,494.7c0,0.3,0,0.5,0.1,0.8c0,0.3,0.1,0.5,0.3,0.8c0.1,0.2,0.3,0.4,0.6,0.6s0.7,0.3,1.2,0.3c0.4,0,0.8-0.1,1.2-0.2
			s0.6-0.4,0.8-0.8c0.1-0.1,0.1-0.3,0.2-0.5c0-0.2,0.1-0.4,0.1-0.5c0-0.2,0-0.4,0-0.5c0-0.2,0-0.3,0-0.4v-10h2v10.6
			c0,0.7-0.1,1.3-0.4,1.8c-0.2,0.5-0.6,0.9-1,1.3s-0.9,0.6-1.4,0.8c-0.5,0.2-1.1,0.3-1.7,0.3c-0.2,0-0.4,0-0.7,0
			c-0.3,0-0.6-0.1-0.9-0.2c-0.3-0.1-0.6-0.3-1-0.5s-0.6-0.5-0.9-0.8c-0.2-0.2-0.3-0.5-0.4-0.7c-0.1-0.3-0.2-0.5-0.2-0.7
			c0-0.2-0.1-0.5-0.1-0.7c0-0.2,0-0.4,0-0.5H764.9z"/>
		<path d="M780.9,498.7c-0.1-0.3-0.1-0.5-0.1-0.7s0-0.5,0-0.8c-0.2,0.4-0.5,0.7-0.8,1c-0.3,0.2-0.6,0.4-0.8,0.5
			c-0.3,0.1-0.6,0.2-0.8,0.2s-0.5,0.1-0.7,0.1c-0.6,0-1.1-0.1-1.5-0.2c-0.4-0.2-0.8-0.4-1.1-0.6c-0.3-0.3-0.5-0.6-0.7-0.9
			c-0.2-0.4-0.2-0.7-0.2-1.2c0-0.2,0-0.4,0.1-0.7c0-0.3,0.1-0.5,0.3-0.8s0.3-0.5,0.5-0.8s0.5-0.5,0.9-0.7c0.3-0.1,0.6-0.3,0.9-0.3
			c0.3-0.1,0.6-0.2,1-0.2s0.6-0.1,0.9-0.1c0.3,0,0.5,0,0.7,0c0.2,0,0.5,0,0.6,0c0.2,0,0.4,0,0.7,0.1c0-0.3,0-0.6,0-0.8
			c0-0.2,0-0.4,0-0.6s-0.1-0.3-0.1-0.5c0-0.1-0.1-0.3-0.2-0.4c-0.2-0.3-0.5-0.4-0.8-0.5c-0.4-0.1-0.7-0.1-0.9-0.1
			c-0.5,0-0.9,0.1-1.1,0.2c-0.3,0.1-0.5,0.3-0.6,0.5c-0.1,0.2-0.2,0.4-0.2,0.6s0,0.3,0,0.4h-1.9c0-0.3,0.1-0.6,0.2-0.9
			c0.1-0.3,0.3-0.7,0.5-1c0.2-0.2,0.4-0.4,0.7-0.5c0.3-0.1,0.5-0.2,0.8-0.3c0.3-0.1,0.6-0.1,0.9-0.2c0.3,0,0.6,0,0.9,0
			c0.4,0,0.7,0,1.1,0.1s0.7,0.2,1,0.3c0.3,0.1,0.6,0.3,0.9,0.5c0.3,0.2,0.4,0.4,0.6,0.7c0.2,0.3,0.3,0.6,0.3,0.8c0,0.2,0,0.5,0,0.7
			l-0.1,4.8c0,0,0,0.1,0,0.3c0,0.2,0,0.4,0,0.6c0,0.2,0,0.5,0,0.8s0.1,0.5,0.1,0.8H780.9z M780.7,493.8c-0.2,0-0.3,0-0.5,0
			s-0.4,0-0.6,0c-0.2,0-0.5,0-0.9,0c-0.4,0-0.8,0.1-1.2,0.2c-0.4,0.1-0.8,0.3-1.1,0.6s-0.5,0.7-0.5,1.2c0,0.2,0,0.3,0.1,0.5
			c0.1,0.2,0.2,0.4,0.3,0.6c0.2,0.2,0.4,0.3,0.6,0.5c0.3,0.1,0.6,0.2,1,0.2c1,0,1.7-0.4,2.1-1.1c0.1-0.2,0.2-0.3,0.2-0.5
			s0.1-0.3,0.1-0.5c0-0.2,0-0.4,0.1-0.7C780.6,494.4,780.7,494.1,780.7,493.8z"/>
		<path d="M785.9,484.2h1.9v5.9c0.3-0.5,0.8-0.9,1.3-1.2c0.6-0.3,1.2-0.4,1.9-0.4c0.3,0,0.6,0,0.9,0.1c0.3,0.1,0.6,0.1,0.9,0.3
			s0.6,0.3,0.8,0.5c0.2,0.2,0.4,0.5,0.6,0.8c0.1,0.1,0.1,0.2,0.1,0.3s0.1,0.3,0.1,0.4c0,0.2,0,0.4,0.1,0.6c0,0.3,0,0.6,0,0.9v6.3
			h-1.9v-5.9c0-0.2,0-0.5,0-0.8c0-0.3-0.1-0.6-0.2-0.9c-0.1-0.3-0.4-0.6-0.6-0.8c-0.3-0.2-0.7-0.3-1.2-0.3c-0.3,0-0.7,0-0.9,0.1
			c-0.3,0.1-0.5,0.2-0.7,0.3s-0.4,0.3-0.5,0.4c-0.1,0.2-0.2,0.3-0.3,0.4c-0.2,0.3-0.3,0.6-0.3,1c0,0.4,0,0.8,0,1.1v5.3h-1.9V484.2z"
			/>
		<path d="M798.2,490.7c0-0.3,0-0.7,0-1c0-0.3,0-0.7-0.1-1h1.9l0,1.9c0.1-0.3,0.2-0.6,0.4-0.9c0.2-0.2,0.4-0.4,0.6-0.6
			c0.2-0.2,0.5-0.3,0.7-0.3c0.2-0.1,0.5-0.1,0.7-0.2c0.3,0,0.5-0.1,0.7-0.1c0.2,0,0.4,0,0.6,0v1.8c-0.1,0-0.2-0.1-0.4-0.1
			c-0.1,0-0.1,0-0.2,0c-0.1,0-0.2,0-0.3,0c-0.6,0-1,0.1-1.4,0.2c-0.4,0.2-0.6,0.4-0.8,0.6c-0.2,0.3-0.3,0.6-0.4,1s-0.1,0.8-0.1,1.2
			v5.3h-1.9V490.7z"/>
		<path d="M807,494c0,0.5,0,1,0.1,1.4c0.1,0.4,0.3,0.8,0.5,1.2s0.5,0.6,0.9,0.8c0.4,0.2,0.8,0.3,1.3,0.3c0.6,0,1.1-0.2,1.6-0.5
			c0.4-0.3,0.7-0.9,0.8-1.6h1.9c0,0.3-0.1,0.6-0.2,0.9c-0.1,0.4-0.3,0.8-0.7,1.2c-0.1,0.1-0.3,0.3-0.4,0.4c-0.2,0.2-0.4,0.3-0.7,0.4
			c-0.3,0.1-0.6,0.2-1,0.3c-0.4,0.1-0.8,0.1-1.3,0.1c-1.6,0-2.8-0.5-3.5-1.4c-0.8-0.9-1.1-2.2-1.1-3.8c0-1,0.1-1.9,0.4-2.7
			c0.3-0.8,0.8-1.5,1.6-2c0.2-0.2,0.5-0.3,0.8-0.4c0.3-0.1,0.5-0.2,0.8-0.2c0.2-0.1,0.5-0.1,0.7-0.1c0.2,0,0.4,0,0.5,0
			c0.7,0,1.4,0.1,1.9,0.3c0.5,0.2,0.9,0.5,1.2,0.8c0.3,0.3,0.6,0.7,0.7,1.1c0.2,0.4,0.3,0.8,0.4,1.2s0.1,0.8,0.1,1.2s0,0.7,0,1H807z
			 M812.3,492.7c0-0.2,0-0.5-0.1-0.9c0-0.3-0.1-0.7-0.3-1s-0.4-0.6-0.8-0.8s-0.8-0.3-1.4-0.3c-0.3,0-0.6,0-0.9,0.2
			c-0.3,0.1-0.6,0.3-0.9,0.5c-0.3,0.2-0.5,0.5-0.7,0.9c-0.2,0.4-0.3,0.8-0.3,1.4H812.3z"/>
	</g>
	<rect x="259.8" y="3.2" class="st3" width="457.5" height="31.5"/>
	<g class="st1">
		<path d="M611.6,4.9h-5.3v3.8h5.3v1.8h-5.3v6.3h-2V3.2h7.3V4.9z"/>
		<path d="M615.2,7.8v2.1c0.6-0.9,1.4-2.2,2.7-2.2c0.3,0,1.1,0,2.1,1l-0.9,1.6c-0.2-0.2-1-0.9-1.7-0.9c-0.7,0-2.1,0.7-2.1,2.8v4.7
			h-1.8v-9H615.2z"/>
		<path d="M628.2,15.9c-0.6,0.4-1.6,1.1-3.5,1.1c-0.9,0-2-0.1-3.1-1.3c-1.2-1.2-1.3-2.6-1.3-3.5c0-2.8,1.8-4.6,4.2-4.6
			c2.1,0,3.5,1.5,3.8,3.5c0.1,0.6,0.1,1,0.1,1.3H622c0.1,1.3,0.9,2.8,2.9,2.8c1.2,0,2.3-0.4,3.3-1.1V15.9z M626.6,11.4
			c0-0.4-0.2-2.2-2.2-2.2c-0.6,0-1.2,0.2-1.7,0.8c-0.5,0.5-0.6,1.1-0.6,1.5H626.6z"/>
		<path d="M637.8,21.4h-1.8v-4.8c-0.4,0.1-1.1,0.3-2,0.3c-2.4,0-4.4-1.8-4.4-4.6c0-1.7,0.9-4.6,4.8-4.6h3.3V21.4z M636.1,9.5H635
			c-0.8,0-1.6,0-2.1,0.4c-0.4,0.3-1.3,1-1.3,2.5c0,1.8,1.1,3.1,3,3.1c0.5,0,0.6,0,1.6-0.4V9.5z"/>
		<path d="M646,16.8v-1.1c-0.8,0.9-1.9,1.3-2.7,1.3c-0.6,0-1.8-0.2-2.5-1.4c-0.3-0.4-0.5-1-0.5-2.6V7.8h1.8V13c0,1,0,2.6,1.8,2.6
			c0.8,0,1.6-0.5,2.1-1.3V7.8h1.8v9H646z"/>
		<path d="M657.8,15.9c-0.6,0.4-1.6,1.1-3.5,1.1c-0.9,0-2-0.1-3.1-1.3c-1.2-1.2-1.3-2.6-1.3-3.5c0-2.8,1.8-4.6,4.2-4.6
			c2.1,0,3.5,1.5,3.8,3.5c0.1,0.6,0.1,1,0.1,1.3h-6.3c0.1,1.3,0.9,2.8,2.9,2.8c1.2,0,2.3-0.4,3.3-1.1V15.9z M656.2,11.4
			c0-0.4-0.2-2.2-2.2-2.2c-0.6,0-1.2,0.2-1.7,0.8c-0.5,0.5-0.6,1.1-0.6,1.5H656.2z"/>
		<path d="M661.6,7.8V9c0.8-0.9,1.9-1.3,2.7-1.3c0.6,0,1.8,0.2,2.5,1.4c0.3,0.4,0.5,1,0.5,2.6v5.1h-1.8v-5.1c0-1,0-1.5-0.5-2
			c-0.3-0.4-0.7-0.6-1.3-0.6c-0.8,0-1.6,0.5-2.1,1.3v6.4h-1.8v-9H661.6z"/>
		<path d="M671.9,15.2h4.8v1.6h-7.9l4.7-7.3H669V7.8h7.7L671.9,15.2z"/>
		<path d="M687.6,21.4c-1.5-1.9-2.2-2.8-2.9-4.6c-0.7-1.7-0.9-3.3-0.9-4.6c0-4.4,2.2-7.2,3.8-9.2h1.1c-1.2,1.9-2.9,4.3-2.9,9.3
			c0,3.3,0.9,6.5,2.9,9.1H687.6z"/>
		<path d="M702,16.8h-2v-5.9h-7.6v5.9h-2V3.2h2v5.9h7.6V3.2h2V16.8z"/>
		<path d="M706.9,15.2h4.8v1.6h-7.9l4.7-7.3h-4.5V7.8h7.7L706.9,15.2z"/>
		<path d="M713.2,3c1.5,1.9,2.2,2.8,2.9,4.6c0.7,1.7,0.9,3.3,0.9,4.6c0,4.4-2.2,7.2-3.8,9.2h-1.1c1.2-1.9,2.9-4.3,2.9-9.3
			c0-3.3-0.9-6.5-2.9-9.2H713.2z"/>
	</g>
	<g class="st1">
		<path d="M16.8,188.4v2h-5.9v7.6h5.9v2H3.2v-2h5.9v-7.6H3.2v-2H16.8z"/>
		<path d="M5.2,178.3c0.5,0,0.9,0.4,0.9,0.9s-0.4,0.9-0.9,0.9s-0.9-0.4-0.9-0.9S4.7,178.3,5.2,178.3z M5.2,182.1
			c0.5,0,0.9,0.4,0.9,0.9s-0.4,0.9-0.9,0.9s-0.9-0.4-0.9-0.9S4.7,182.1,5.2,182.1z M12.4,176.5c3.2,0,4.6,2.6,4.6,4.8
			c0,2.9-2.1,4.8-4.7,4.8c-2.5,0-4.7-1.8-4.7-4.8C7.7,178.6,9.5,176.5,12.4,176.5z M12.3,184.3c2.3,0,3.1-1.7,3.1-3
			c0-1.8-1.3-3-3.1-3c-2.3,0-3.1,1.8-3.1,3C9.3,183,10.4,184.3,12.3,184.3z"/>
		<path d="M7.8,172.9h2.1c-0.9-0.6-2.2-1.4-2.2-2.7c0-0.3,0-1.1,1-2.1l1.6,0.9c-0.2,0.2-0.9,1-0.9,1.7c0,0.7,0.7,2.1,2.8,2.1h4.7
			v1.8h-9V172.9z"/>
		<path d="M7.8,165.2H9c-0.9-0.8-1.3-1.9-1.3-2.7c0-0.6,0.2-1.8,1.4-2.5c0.4-0.3,1-0.5,2.6-0.5h5.1v1.8h-5.1c-1,0-1.5,0-2,0.5
			c-0.4,0.3-0.6,0.7-0.6,1.3c0,0.8,0.5,1.6,1.3,2.1h6.4v1.8h-9V165.2z"/>
		<path d="M5.1,155c0.6,0,1.1,0.5,1.1,1.1c0,0.7-0.6,1-1.1,1c-0.5,0-1-0.4-1-1S4.5,155,5.1,155z M16.8,155.2v1.8h-9v-1.8H16.8z"/>
		<path d="M17,149.2v0.6l-9.2,4.1v-1.9l5.5-2.4l-5.5-2.3v-1.9L17,149.2z"/>
		<path d="M15.9,136.7c0.4,0.6,1.1,1.6,1.1,3.5c0,0.9-0.1,2-1.3,3.1c-1.2,1.2-2.6,1.3-3.5,1.3c-2.8,0-4.6-1.8-4.6-4.2
			c0-2.1,1.5-3.5,3.5-3.8c0.6-0.1,1-0.1,1.3-0.1v6.3c1.3-0.1,2.8-0.9,2.8-2.9c0-1.2-0.4-2.3-1.1-3.3H15.9z M11.4,138.3
			c-0.4,0-2.2,0.2-2.2,2.2c0,0.6,0.2,1.2,0.8,1.7c0.5,0.5,1.1,0.6,1.5,0.6V138.3z"/>
		<path d="M16.3,127.6c0.5,0.8,0.7,1.2,0.7,1.7c0,0.8-0.3,1.2-0.9,1.4c0.6,0.8,0.9,1.6,0.9,2.4c0,1.3-1,2.2-2.2,2.2
			c-1.8,0-2.3-1.6-2.8-3.1l-0.6-1.6h-0.5c-1.1,0-1.6,0.5-1.6,1.6c0,1,0.5,2,1.5,2.8H8.9c-0.8-0.7-1.2-1.7-1.2-3c0-1.8,0.9-3.3,3-3.3
			h4.6c0.3,0,0.5-0.1,0.5-0.3c0-0.2-0.2-0.5-0.5-0.9H16.3z M12.4,130.6c0.5,1.5,1,2.8,2.1,2.8c0.7,0,1.3-0.5,1.3-1.3
			c0-0.6-0.3-1.1-0.7-1.6H12.4z"/>
		<path d="M16.8,120.4h-1.1c0.9,0.8,1.3,1.9,1.3,2.7c0,0.6-0.2,1.8-1.4,2.5c-0.4,0.3-1,0.5-2.6,0.5H7.8v-1.8H13c1,0,2.6,0,2.6-1.8
			c0-0.8-0.5-1.6-1.3-2.1H7.8v-1.8h9V120.4z"/>
		<path d="M21.4,106.6c-1.9,1.5-2.8,2.2-4.6,2.9c-1.7,0.7-3.3,0.9-4.6,0.9c-4.4,0-7.2-2.2-9.2-3.8v-1.1c1.9,1.2,4.3,2.9,9.3,2.9
			c3.3,0,6.5-0.9,9.1-2.9V106.6z"/>
		<path d="M16.8,96.3v3.8c0,3.5-2.9,4.4-4.6,4.4c-2.9,0-4.5-2.2-4.5-4.4c0-0.9,0.2-1.6,0.4-1.9H3.2v-1.8H16.8z M9.6,98.1
			c-0.2,0.3-0.4,0.8-0.4,1.7c0,1.5,1,2.9,3.2,2.9c1.5,0,2.3-0.6,2.6-1.3c0.2-0.5,0.3-0.9,0.3-1.9v-1.4H9.6z"/>
		<path d="M3.2,90c0-1,0.1-1.6,0.3-2.3C4,86.4,5,85.4,6.7,85.4c1.2,0,2.2,0.5,2.9,2.1c0.4-2,1.8-3.3,3.5-3.3c2.2,0,3.2,1.8,3.4,2.7
			c0.3,0.8,0.3,1.4,0.3,2.9v3.8H3.2V90z M4.9,91.7H9v-1.3c0-0.5,0-1.4-0.3-1.8c-0.2-0.4-0.7-1.1-1.8-1.1c-0.8,0-1.4,0.4-1.7,1
			c-0.3,0.6-0.3,1.4-0.3,1.9V91.7z M10.8,91.7h4.3v-1.9c0-0.6,0-1.5-0.2-2c-0.4-1-1.2-1.4-2-1.4c-0.6,0-1.4,0.3-1.9,1.3
			c-0.2,0.5-0.3,1.2-0.3,2.2V91.7z"/>
		<path d="M3,82.5c1.9-1.5,2.8-2.2,4.6-2.9c1.7-0.7,3.3-0.9,4.6-0.9c4.4,0,7.2,2.2,9.2,3.8v1.1c-1.9-1.2-4.3-2.9-9.3-2.9
			c-3.3,0-6.5,0.9-9.2,2.9V82.5z"/>
	</g>
</g>
<g id="Graphs">
	<polyline class="st4" points="92.7,215.6 331.7,226.6 500.7,354.6 554.7,376.6 678.7,492.6 	"/>
	<polyline class="st4" points="92.7,180.4 334.7,191.6 443.7,235.6 499.7,291.6 553.7,317.6 607.7,341.6 678.7,395.6 	"/>
	<polyline class="st4" points="92.7,155.6 332.7,159.6 445.7,196.6 501.7,227.6 609.7,268.6 662.7,287.6 677.7,298.6 	"/>
	<polyline class="st4" points="92.7,140.6 333.7,141.6 442.7,165.6 553.7,209.6 606.7,229.6 679.7,242.6 	"/>
	<polyline class="st4" points="92.7,129.6 334.7,129.6 498.7,157.6 608.7,175.6 679.7,182.6 	"/>
	<line class="st5" x1="92.7" y1="121.6" x2="678.7" y2="121.6"/>
	<g class="st1">
		<path d="M741.4,185.7h-6.2v-2.4l6-8.6h2.2v9.4h2v1.6h-2v3h-1.9V185.7z M741.4,184v-7.3l-4.8,7.3H741.4z"/>
		<path d="M746.6,181.9c0-0.3,0-0.8,0-1.3s0.1-1,0.2-1.6c0.1-0.5,0.2-1.1,0.4-1.6s0.5-1,0.8-1.5c0.3-0.4,0.8-0.8,1.3-1
			c0.5-0.3,1.1-0.4,1.9-0.4c0.7,0,1.3,0.1,1.8,0.3c0.5,0.2,0.9,0.5,1.3,0.9c0.3,0.4,0.6,0.8,0.8,1.3c0.2,0.5,0.4,1,0.5,1.5
			c0.1,0.5,0.2,1,0.2,1.6c0,0.5,0.1,1,0.1,1.4c0,1.6-0.2,3-0.5,3.9c-0.3,1-0.8,1.8-1.4,2.4c-0.2,0.2-0.5,0.4-0.8,0.5
			c-0.3,0.1-0.5,0.2-0.8,0.3c-0.2,0.1-0.5,0.1-0.7,0.2c-0.2,0-0.4,0-0.6,0c-0.5,0-0.9-0.1-1.3-0.2c-0.4-0.1-0.7-0.3-1-0.5
			c-0.3-0.2-0.6-0.5-0.8-0.7c-0.2-0.3-0.4-0.6-0.6-0.9c-0.2-0.5-0.4-1-0.6-1.8S746.6,183.1,746.6,181.9z M748.5,181.8
			c0,0.8,0,1.5,0.1,2.2c0.1,0.7,0.2,1.2,0.4,1.7s0.5,0.9,0.8,1.2c0.3,0.3,0.8,0.4,1.3,0.4c0.6,0,1-0.2,1.4-0.5
			c0.4-0.3,0.6-0.8,0.8-1.3s0.3-1.1,0.4-1.8c0.1-0.6,0.1-1.3,0.1-1.9c0-0.8,0-1.6-0.1-2.3s-0.2-1.3-0.4-1.8
			c-0.2-0.5-0.5-0.9-0.8-1.2c-0.3-0.3-0.8-0.4-1.3-0.4c-0.6,0-1.1,0.2-1.5,0.5c-0.4,0.4-0.6,0.8-0.8,1.4s-0.3,1.2-0.4,1.8
			C748.5,180.5,748.5,181.2,748.5,181.8z"/>
		<path d="M764.9,184.7c0,0.3,0,0.5,0.1,0.8c0,0.3,0.1,0.5,0.3,0.8c0.1,0.2,0.3,0.4,0.6,0.6s0.7,0.3,1.2,0.3c0.4,0,0.8-0.1,1.2-0.2
			s0.6-0.4,0.8-0.8c0.1-0.1,0.1-0.3,0.2-0.5c0-0.2,0.1-0.4,0.1-0.5c0-0.2,0-0.4,0-0.5c0-0.2,0-0.3,0-0.4v-10h2v10.6
			c0,0.7-0.1,1.3-0.4,1.8c-0.2,0.5-0.6,0.9-1,1.3s-0.9,0.6-1.4,0.8c-0.5,0.2-1.1,0.3-1.7,0.3c-0.2,0-0.4,0-0.7,0
			c-0.3,0-0.6-0.1-0.9-0.2c-0.3-0.1-0.6-0.3-1-0.5s-0.6-0.5-0.9-0.8c-0.2-0.2-0.3-0.5-0.4-0.7c-0.1-0.3-0.2-0.5-0.2-0.7
			c0-0.2-0.1-0.5-0.1-0.7c0-0.2,0-0.4,0-0.5H764.9z"/>
		<path d="M780.9,188.7c-0.1-0.3-0.1-0.5-0.1-0.7s0-0.5,0-0.8c-0.2,0.4-0.5,0.7-0.8,1c-0.3,0.2-0.6,0.4-0.8,0.5
			c-0.3,0.1-0.6,0.2-0.8,0.2s-0.5,0.1-0.7,0.1c-0.6,0-1.1-0.1-1.5-0.2c-0.4-0.2-0.8-0.4-1.1-0.6c-0.3-0.3-0.5-0.6-0.7-0.9
			c-0.2-0.4-0.2-0.7-0.2-1.2c0-0.2,0-0.4,0.1-0.7c0-0.3,0.1-0.5,0.3-0.8s0.3-0.5,0.5-0.8s0.5-0.5,0.9-0.7c0.3-0.1,0.6-0.3,0.9-0.3
			c0.3-0.1,0.6-0.2,1-0.2s0.6-0.1,0.9-0.1c0.3,0,0.5,0,0.7,0c0.2,0,0.5,0,0.6,0c0.2,0,0.4,0,0.7,0.1c0-0.3,0-0.6,0-0.8
			c0-0.2,0-0.4,0-0.6s-0.1-0.3-0.1-0.5c0-0.1-0.1-0.3-0.2-0.4c-0.2-0.3-0.5-0.4-0.8-0.5c-0.4-0.1-0.7-0.1-0.9-0.1
			c-0.5,0-0.9,0.1-1.1,0.2c-0.3,0.1-0.5,0.3-0.6,0.5c-0.1,0.2-0.2,0.4-0.2,0.6s0,0.3,0,0.4h-1.9c0-0.3,0.1-0.6,0.2-0.9
			c0.1-0.3,0.3-0.7,0.5-1c0.2-0.2,0.4-0.4,0.7-0.5c0.3-0.1,0.5-0.2,0.8-0.3c0.3-0.1,0.6-0.1,0.9-0.2c0.3,0,0.6,0,0.9,0
			c0.4,0,0.7,0,1.1,0.1s0.7,0.2,1,0.3c0.3,0.1,0.6,0.3,0.9,0.5c0.3,0.2,0.4,0.4,0.6,0.7c0.2,0.3,0.3,0.6,0.3,0.8c0,0.2,0,0.5,0,0.7
			l-0.1,4.8c0,0,0,0.1,0,0.3c0,0.2,0,0.4,0,0.6c0,0.2,0,0.5,0,0.8s0.1,0.5,0.1,0.8H780.9z M780.7,183.8c-0.2,0-0.3,0-0.5,0
			s-0.4,0-0.6,0c-0.2,0-0.5,0-0.9,0c-0.4,0-0.8,0.1-1.2,0.2c-0.4,0.1-0.8,0.3-1.1,0.6s-0.5,0.7-0.5,1.2c0,0.2,0,0.3,0.1,0.5
			c0.1,0.2,0.2,0.4,0.3,0.6c0.2,0.2,0.4,0.3,0.6,0.5c0.3,0.1,0.6,0.2,1,0.2c1,0,1.7-0.4,2.1-1.1c0.1-0.2,0.2-0.3,0.2-0.5
			s0.1-0.3,0.1-0.5c0-0.2,0-0.4,0.1-0.7C780.6,184.4,780.7,184.1,780.7,183.8z"/>
		<path d="M785.9,174.2h1.9v5.9c0.3-0.5,0.8-0.9,1.3-1.2c0.6-0.3,1.2-0.4,1.9-0.4c0.3,0,0.6,0,0.9,0.1c0.3,0.1,0.6,0.1,0.9,0.3
			s0.6,0.3,0.8,0.5c0.2,0.2,0.4,0.5,0.6,0.8c0.1,0.1,0.1,0.2,0.1,0.3s0.1,0.3,0.1,0.4c0,0.2,0,0.4,0.1,0.6c0,0.3,0,0.6,0,0.9v6.3
			h-1.9v-5.9c0-0.2,0-0.5,0-0.8c0-0.3-0.1-0.6-0.2-0.9c-0.1-0.3-0.4-0.6-0.6-0.8c-0.3-0.2-0.7-0.3-1.2-0.3c-0.3,0-0.7,0-0.9,0.1
			c-0.3,0.1-0.5,0.2-0.7,0.3s-0.4,0.3-0.5,0.4c-0.1,0.2-0.2,0.3-0.3,0.4c-0.2,0.3-0.3,0.6-0.3,1c0,0.4,0,0.8,0,1.1v5.3h-1.9V174.2z"
			/>
		<path d="M798.2,180.7c0-0.3,0-0.7,0-1c0-0.3,0-0.7-0.1-1h1.9l0,1.9c0.1-0.3,0.2-0.6,0.4-0.9c0.2-0.2,0.4-0.4,0.6-0.6
			c0.2-0.2,0.5-0.3,0.7-0.3c0.2-0.1,0.5-0.1,0.7-0.2c0.3,0,0.5-0.1,0.7-0.1c0.2,0,0.4,0,0.6,0v1.8c-0.1,0-0.2-0.1-0.4-0.1
			c-0.1,0-0.1,0-0.2,0c-0.1,0-0.2,0-0.3,0c-0.6,0-1,0.1-1.4,0.2c-0.4,0.2-0.6,0.4-0.8,0.6c-0.2,0.3-0.3,0.6-0.4,1s-0.1,0.8-0.1,1.2
			v5.3h-1.9V180.7z"/>
		<path d="M807,184c0,0.5,0,1,0.1,1.4c0.1,0.4,0.3,0.8,0.5,1.2s0.5,0.6,0.9,0.8c0.4,0.2,0.8,0.3,1.3,0.3c0.6,0,1.1-0.2,1.6-0.5
			c0.4-0.3,0.7-0.9,0.8-1.6h1.9c0,0.3-0.1,0.6-0.2,0.9c-0.1,0.4-0.3,0.8-0.7,1.2c-0.1,0.1-0.3,0.3-0.4,0.4c-0.2,0.2-0.4,0.3-0.7,0.4
			c-0.3,0.1-0.6,0.2-1,0.3c-0.4,0.1-0.8,0.1-1.3,0.1c-1.6,0-2.8-0.5-3.5-1.4c-0.8-0.9-1.1-2.2-1.1-3.8c0-1,0.1-1.9,0.4-2.7
			c0.3-0.8,0.8-1.5,1.6-2c0.2-0.2,0.5-0.3,0.8-0.4c0.3-0.1,0.5-0.2,0.8-0.2c0.2-0.1,0.5-0.1,0.7-0.1c0.2,0,0.4,0,0.5,0
			c0.7,0,1.4,0.1,1.9,0.3c0.5,0.2,0.9,0.5,1.2,0.8c0.3,0.3,0.6,0.7,0.7,1.1c0.2,0.4,0.3,0.8,0.4,1.2s0.1,0.8,0.1,1.2s0,0.7,0,1H807z
			 M812.3,182.7c0-0.2,0-0.5-0.1-0.9c0-0.3-0.1-0.7-0.3-1s-0.4-0.6-0.8-0.8s-0.8-0.3-1.4-0.3c-0.3,0-0.6,0-0.9,0.2
			c-0.3,0.1-0.6,0.3-0.9,0.5c-0.3,0.2-0.5,0.5-0.7,0.9c-0.2,0.4-0.3,0.8-0.3,1.4H812.3z"/>
	</g>
</g>
</svg>
