<?xml version="1.0" encoding="utf-8"?>
<!-- Generator: Adobe Illustrator 22.0.1, SVG Export Plug-In . SVG Version: 6.00 Build 0)  -->
<svg version="1.1" id="Ebene_1" xmlns="http://www.w3.org/2000/svg" xmlns:xlink="http://www.w3.org/1999/xlink" x="0px" y="0px"
	 viewBox="0 0 482.4 467.3" style="enable-background:new 0 0 482.4 467.3;" xml:space="preserve">
<style type="text/css">
	.st0{fill:none;stroke:#000000;stroke-width:0.5;stroke-miterlimit:10;}
	.st1{fill:none;stroke:#6E6E6E;stroke-width:0.5;stroke-miterlimit:10;}
	.st2{fill:none;stroke:#6E6E6E;stroke-width:0.5;stroke-miterlimit:10;stroke-dasharray:1.990338e-02,1.9804,1.9903,0;}
	
		.st3{fill:none;stroke:#6E6E6E;stroke-width:0.5;stroke-miterlimit:10;stroke-dasharray:1.9903,1.9804,1.990338e-02,1.9804,1.9903,0;}
	.st4{enable-background:new    ;}
	.st5{fill:none;stroke:#2E2382;stroke-miterlimit:10;}
	.st6{fill:none;stroke:#E3000B;stroke-miterlimit:10;}
</style>
<g id="Grid">
	<g>
		<rect x="53" y="50.3" class="st0" width="428" height="414"/>
		<line class="st0" x1="87.7" y1="50.3" x2="87.7" y2="464.3"/>
		<line class="st0" x1="159" y1="50.3" x2="159" y2="464.3"/>
		<line class="st0" x1="230.7" y1="50.3" x2="230.7" y2="464.3"/>
		<line class="st0" x1="302.3" y1="50.3" x2="302.3" y2="464.3"/>
		<line class="st0" x1="373.7" y1="50.3" x2="373.7" y2="464.3"/>
		<line class="st0" x1="445.7" y1="50.3" x2="445.7" y2="464.3"/>
		<line class="st0" x1="53" y1="75.7" x2="481" y2="75.7"/>
		<line class="st0" x1="53" y1="105" x2="481" y2="105"/>
		<line class="st0" x1="53" y1="135.3" x2="481" y2="135.3"/>
		<line class="st0" x1="53" y1="165.3" x2="481" y2="165.3"/>
		<line class="st0" x1="53" y1="197.3" x2="481" y2="197.3"/>
		<line class="st0" x1="53" y1="225.7" x2="481" y2="225.7"/>
		<line class="st0" x1="53" y1="254" x2="481" y2="254"/>
		<line class="st0" x1="53" y1="284.3" x2="481" y2="284.3"/>
		<line class="st0" x1="53" y1="315.7" x2="481" y2="315.7"/>
		<line class="st0" x1="53" y1="345" x2="481" y2="345"/>
		<line class="st0" x1="53" y1="375.3" x2="481" y2="375.3"/>
		<line class="st0" x1="53" y1="405.7" x2="481" y2="405.7"/>
		<line class="st0" x1="53" y1="436" x2="481" y2="436"/>
	</g>
	<g>
		<g>
			<line class="st1" x1="337" y1="50.3" x2="337" y2="51.3"/>
			<line class="st2" x1="337" y1="53.3" x2="337" y2="57.3"/>
			<line class="st3" x1="337" y1="57.3" x2="337" y2="463.3"/>
			<line class="st1" x1="337" y1="463.3" x2="337" y2="464.3"/>
		</g>
	</g>
	<g>
		<g>
			<line class="st1" x1="409.7" y1="50.3" x2="409.7" y2="51.3"/>
			<line class="st2" x1="409.7" y1="53.3" x2="409.7" y2="57.3"/>
			<line class="st3" x1="409.7" y1="57.3" x2="409.7" y2="463.3"/>
			<line class="st1" x1="409.7" y1="463.3" x2="409.7" y2="464.3"/>
		</g>
	</g>
</g>
<g id="Labels">
	<g>
		<g class="st4">
			<path d="M78.3,36.4v-0.8c0.8-0.7,1.5-1.4,2.2-2c0.7-0.6,1.2-1.2,1.6-1.8c0.4-0.6,0.6-1.1,0.6-1.7c0-0.3,0-0.5-0.1-0.7
				c-0.1-0.2-0.2-0.3-0.4-0.5c-0.2-0.1-0.3-0.2-0.5-0.3c-0.2-0.1-0.4-0.1-0.6-0.1c-0.2,0-0.5,0-0.7,0.1s-0.4,0.2-0.5,0.3
				c-0.1,0.1-0.3,0.3-0.3,0.5c-0.1,0.2-0.1,0.4-0.1,0.7h-0.8c0-0.4,0.1-0.7,0.2-1s0.3-0.5,0.5-0.7s0.5-0.4,0.8-0.5
				c0.3-0.1,0.6-0.2,1-0.2c0.3,0,0.7,0,1,0.1c0.3,0.1,0.6,0.2,0.8,0.4c0.2,0.2,0.4,0.4,0.5,0.7c0.1,0.3,0.2,0.6,0.2,1
				c0,0.3-0.1,0.7-0.2,1c-0.1,0.3-0.3,0.7-0.6,1c-0.2,0.3-0.4,0.6-0.7,0.9s-0.5,0.6-0.8,0.9c-0.3,0.3-0.6,0.6-0.9,0.9
				s-0.6,0.6-0.9,0.9h4.3v0.7H78.3z"/>
			<path d="M85.4,28.1H90v0.7h-3.8l-0.1,3l0,0c0.2-0.3,0.5-0.5,0.8-0.6c0.3-0.2,0.6-0.2,1-0.2c0.4,0,0.7,0.1,1.1,0.2
				c0.3,0.1,0.6,0.3,0.8,0.6c0.2,0.3,0.4,0.6,0.5,0.9c0.1,0.3,0.2,0.7,0.2,1.1c0,0.4-0.1,0.8-0.2,1.1c-0.1,0.3-0.3,0.7-0.5,0.9
				s-0.5,0.5-0.8,0.6c-0.3,0.2-0.7,0.2-1.1,0.2c-0.4,0-0.7,0-1-0.1s-0.6-0.2-0.8-0.4c-0.2-0.2-0.4-0.4-0.6-0.7
				c-0.2-0.3-0.2-0.6-0.2-1h0.8c0,0.2,0.1,0.5,0.2,0.7c0.1,0.2,0.2,0.3,0.4,0.5c0.2,0.1,0.3,0.2,0.5,0.3c0.2,0.1,0.4,0.1,0.7,0.1
				c0.3,0,0.6-0.1,0.8-0.2c0.2-0.1,0.4-0.3,0.6-0.5c0.2-0.2,0.3-0.4,0.4-0.7c0.1-0.3,0.1-0.5,0.1-0.9c0-0.6-0.2-1.1-0.5-1.5
				s-0.8-0.6-1.4-0.6c-0.4,0-0.8,0.1-1.1,0.3s-0.5,0.5-0.6,0.9h-0.8L85.4,28.1z"/>
			<path d="M94.3,28c0.6,0,1,0.1,1.4,0.4c0.4,0.3,0.6,0.6,0.8,1c0.2,0.4,0.3,0.9,0.4,1.4c0.1,0.5,0.1,1,0.1,1.6c0,0.5,0,1.1-0.1,1.6
				s-0.2,1-0.4,1.4c-0.2,0.4-0.5,0.7-0.8,1c-0.4,0.3-0.8,0.4-1.4,0.4s-1-0.1-1.4-0.4c-0.4-0.3-0.6-0.6-0.8-1
				c-0.2-0.4-0.3-0.9-0.4-1.4s-0.1-1-0.1-1.6c0-0.5,0-1,0.1-1.6c0.1-0.5,0.2-1,0.4-1.4c0.2-0.4,0.5-0.7,0.8-1
				C93.3,28.1,93.8,28,94.3,28z M94.3,28.7c-0.4,0-0.8,0.1-1,0.4c-0.3,0.3-0.4,0.6-0.6,1s-0.2,0.8-0.2,1.2c0,0.4-0.1,0.8-0.1,1.1
				c0,0.3,0,0.7,0.1,1.1c0,0.4,0.1,0.8,0.2,1.2s0.3,0.7,0.6,1c0.3,0.3,0.6,0.4,1,0.4s0.8-0.1,1-0.4s0.4-0.6,0.6-1s0.2-0.8,0.2-1.2
				c0-0.4,0.1-0.8,0.1-1.1c0-0.3,0-0.7-0.1-1.1c0-0.4-0.1-0.8-0.2-1.2s-0.3-0.7-0.6-1S94.8,28.7,94.3,28.7z"/>
		</g>
		<g class="st4">
			<path d="M24.4,75.3h3V76h-3V75.3z"/>
			<path d="M29,71.9c0.4-0.1,0.7-0.3,1-0.6c0.3-0.2,0.6-0.5,0.9-0.8h0.7v8.3h-0.8v-7.5c-0.3,0.3-0.6,0.5-0.9,0.7
				c-0.3,0.2-0.6,0.4-1,0.5V71.9z"/>
			<path d="M36.7,70.4c0.6,0,1,0.1,1.4,0.4c0.4,0.3,0.6,0.6,0.8,1c0.2,0.4,0.3,0.9,0.4,1.4c0.1,0.5,0.1,1,0.1,1.6
				c0,0.5,0,1.1-0.1,1.6s-0.2,1-0.4,1.4c-0.2,0.4-0.5,0.7-0.8,1c-0.4,0.3-0.8,0.4-1.4,0.4s-1-0.1-1.4-0.4c-0.4-0.3-0.6-0.6-0.8-1
				c-0.2-0.4-0.3-0.9-0.4-1.4s-0.1-1-0.1-1.6c0-0.5,0-1,0.1-1.6c0.1-0.5,0.2-1,0.4-1.4c0.2-0.4,0.5-0.7,0.8-1
				C35.7,70.5,36.1,70.4,36.7,70.4z M36.7,71.1c-0.4,0-0.8,0.1-1,0.4c-0.3,0.3-0.4,0.6-0.6,1s-0.2,0.8-0.2,1.2
				c0,0.4-0.1,0.8-0.1,1.1c0,0.3,0,0.7,0.1,1.1c0,0.4,0.1,0.8,0.2,1.2s0.3,0.7,0.6,1c0.3,0.3,0.6,0.4,1,0.4s0.8-0.1,1-0.4
				s0.4-0.6,0.6-1s0.2-0.8,0.2-1.2c0-0.4,0.1-0.8,0.1-1.1c0-0.3,0-0.7-0.1-1.1c0-0.4-0.1-0.8-0.2-1.2s-0.3-0.7-0.6-1
				S37.2,71.1,36.7,71.1z"/>
		</g>
		<g class="st4">
			<path d="M32.6,99.2c0.6,0,1,0.1,1.4,0.4c0.4,0.3,0.6,0.6,0.8,1c0.2,0.4,0.3,0.9,0.4,1.4c0.1,0.5,0.1,1,0.1,1.6
				c0,0.5,0,1.1-0.1,1.6s-0.2,1-0.4,1.4c-0.2,0.4-0.5,0.7-0.8,1c-0.4,0.3-0.8,0.4-1.4,0.4s-1-0.1-1.4-0.4c-0.4-0.3-0.6-0.6-0.8-1
				c-0.2-0.4-0.3-0.9-0.4-1.4s-0.1-1-0.1-1.6c0-0.5,0-1,0.1-1.6c0.1-0.5,0.2-1,0.4-1.4c0.2-0.4,0.5-0.7,0.8-1
				C31.6,99.3,32,99.2,32.6,99.2z M32.6,99.9c-0.4,0-0.8,0.1-1,0.4c-0.3,0.3-0.4,0.6-0.6,1s-0.2,0.8-0.2,1.2c0,0.4-0.1,0.8-0.1,1.1
				c0,0.3,0,0.7,0.1,1.1c0,0.4,0.1,0.8,0.2,1.2s0.3,0.7,0.6,1c0.3,0.3,0.6,0.4,1,0.4s0.8-0.1,1-0.4s0.4-0.6,0.6-1s0.2-0.8,0.2-1.2
				c0-0.4,0.1-0.8,0.1-1.1c0-0.3,0-0.7-0.1-1.1c0-0.4-0.1-0.8-0.2-1.2s-0.3-0.7-0.6-1S33,99.9,32.6,99.9z"/>
		</g>
		<g class="st4">
			<path d="M27.3,130c0.4-0.1,0.7-0.3,1-0.6c0.3-0.2,0.6-0.5,0.9-0.8H30v8.3h-0.8v-7.5c-0.3,0.3-0.6,0.5-0.9,0.7
				c-0.3,0.2-0.6,0.4-1,0.5V130z"/>
			<path d="M35,128.5c0.6,0,1,0.1,1.4,0.4c0.4,0.3,0.6,0.6,0.8,1c0.2,0.4,0.3,0.9,0.4,1.4c0.1,0.5,0.1,1,0.1,1.6
				c0,0.5,0,1.1-0.1,1.6s-0.2,1-0.4,1.4c-0.2,0.4-0.5,0.7-0.8,1c-0.4,0.3-0.8,0.4-1.4,0.4s-1-0.1-1.4-0.4c-0.4-0.3-0.6-0.6-0.8-1
				c-0.2-0.4-0.3-0.9-0.4-1.4s-0.1-1-0.1-1.6c0-0.5,0-1,0.1-1.6c0.1-0.5,0.2-1,0.4-1.4c0.2-0.4,0.5-0.7,0.8-1
				C34,128.6,34.5,128.5,35,128.5z M35,129.2c-0.4,0-0.8,0.1-1,0.4c-0.3,0.3-0.4,0.6-0.6,1s-0.2,0.8-0.2,1.2c0,0.4-0.1,0.8-0.1,1.1
				c0,0.3,0,0.7,0.1,1.1c0,0.4,0.1,0.8,0.2,1.2s0.3,0.7,0.6,1c0.3,0.3,0.6,0.4,1,0.4s0.8-0.1,1-0.4s0.4-0.6,0.6-1s0.2-0.8,0.2-1.2
				c0-0.4,0.1-0.8,0.1-1.1c0-0.3,0-0.7-0.1-1.1c0-0.4-0.1-0.8-0.2-1.2s-0.3-0.7-0.6-1S35.5,129.2,35,129.2z"/>
		</g>
		<g class="st4">
			<path d="M26.5,165.3v-0.8c0.8-0.7,1.5-1.4,2.2-2c0.7-0.6,1.2-1.2,1.6-1.8c0.4-0.6,0.6-1.1,0.6-1.7c0-0.3,0-0.5-0.1-0.7
				c-0.1-0.2-0.2-0.3-0.4-0.5c-0.2-0.1-0.3-0.2-0.5-0.3c-0.2-0.1-0.4-0.1-0.6-0.1c-0.2,0-0.5,0-0.7,0.1s-0.4,0.2-0.5,0.3
				c-0.1,0.1-0.3,0.3-0.3,0.5c-0.1,0.2-0.1,0.4-0.1,0.7h-0.8c0-0.4,0.1-0.7,0.2-1s0.3-0.5,0.5-0.7s0.5-0.4,0.8-0.5
				c0.3-0.1,0.6-0.2,1-0.2c0.3,0,0.7,0,1,0.1c0.3,0.1,0.6,0.2,0.8,0.4c0.2,0.2,0.4,0.4,0.5,0.7c0.1,0.3,0.2,0.6,0.2,1
				c0,0.3-0.1,0.7-0.2,1c-0.1,0.3-0.3,0.7-0.6,1c-0.2,0.3-0.4,0.6-0.7,0.9s-0.5,0.6-0.8,0.9c-0.3,0.3-0.6,0.6-0.9,0.9
				s-0.6,0.6-0.9,0.9h4.3v0.7H26.5z"/>
			<path d="M35.9,156.8c0.6,0,1,0.1,1.4,0.4c0.4,0.3,0.6,0.6,0.8,1c0.2,0.4,0.3,0.9,0.4,1.4c0.1,0.5,0.1,1,0.1,1.6
				c0,0.5,0,1.1-0.1,1.6s-0.2,1-0.4,1.4c-0.2,0.4-0.5,0.7-0.8,1c-0.4,0.3-0.8,0.4-1.4,0.4s-1-0.1-1.4-0.4c-0.4-0.3-0.6-0.6-0.8-1
				c-0.2-0.4-0.3-0.9-0.4-1.4s-0.1-1-0.1-1.6c0-0.5,0-1,0.1-1.6c0.1-0.5,0.2-1,0.4-1.4c0.2-0.4,0.5-0.7,0.8-1
				C34.9,157,35.4,156.8,35.9,156.8z M35.9,157.6c-0.4,0-0.8,0.1-1,0.4c-0.3,0.3-0.4,0.6-0.6,1s-0.2,0.8-0.2,1.2
				c0,0.4-0.1,0.8-0.1,1.1c0,0.3,0,0.7,0.1,1.1c0,0.4,0.1,0.8,0.2,1.2s0.3,0.7,0.6,1c0.3,0.3,0.6,0.4,1,0.4s0.8-0.1,1-0.4
				s0.4-0.6,0.6-1s0.2-0.8,0.2-1.2c0-0.4,0.1-0.8,0.1-1.1c0-0.3,0-0.7-0.1-1.1c0-0.4-0.1-0.8-0.2-1.2s-0.3-0.7-0.6-1
				S36.4,157.6,35.9,157.6z"/>
		</g>
		<g class="st4">
			<path d="M28.6,192.6c0.3,0,0.5,0,0.8,0s0.5-0.1,0.7-0.3c0.2-0.1,0.4-0.3,0.5-0.5c0.1-0.2,0.2-0.5,0.2-0.8c0-0.2-0.1-0.5-0.2-0.6
				c-0.1-0.2-0.2-0.3-0.4-0.5s-0.4-0.2-0.6-0.3c-0.2-0.1-0.5-0.1-0.7-0.1c-0.5,0-0.9,0.1-1.3,0.4c-0.3,0.3-0.5,0.6-0.6,1.1h-0.8
				c0-0.4,0.1-0.7,0.2-0.9c0.1-0.3,0.3-0.5,0.6-0.7c0.2-0.2,0.5-0.3,0.8-0.4c0.3-0.1,0.6-0.2,0.9-0.2c0.4,0,0.7,0,1,0.1
				c0.3,0.1,0.6,0.2,0.9,0.4c0.3,0.2,0.5,0.4,0.6,0.7s0.2,0.6,0.2,1c0,0.3,0,0.5-0.1,0.7c-0.1,0.2-0.2,0.4-0.4,0.5
				c-0.2,0.2-0.3,0.3-0.5,0.4c-0.2,0.1-0.4,0.2-0.7,0.2v0c0.3,0.1,0.5,0.1,0.7,0.3c0.2,0.1,0.4,0.3,0.6,0.4c0.2,0.2,0.3,0.4,0.4,0.6
				c0.1,0.2,0.1,0.5,0.1,0.8c0,0.4-0.1,0.7-0.2,1c-0.2,0.3-0.4,0.5-0.7,0.8c-0.3,0.2-0.6,0.4-0.9,0.5c-0.3,0.1-0.7,0.2-1,0.2
				c-0.4,0-0.7,0-1-0.1c-0.3-0.1-0.6-0.2-0.9-0.4c-0.2-0.2-0.4-0.4-0.6-0.7c-0.2-0.3-0.2-0.6-0.2-1h0.8c0,0.3,0.1,0.5,0.2,0.7
				c0.1,0.2,0.2,0.4,0.4,0.5c0.2,0.1,0.4,0.3,0.6,0.3c0.2,0.1,0.5,0.1,0.7,0.1c0.3,0,0.5,0,0.8-0.1c0.2-0.1,0.5-0.2,0.6-0.3
				c0.2-0.1,0.3-0.3,0.4-0.6c0.1-0.2,0.2-0.5,0.2-0.8c0-0.3-0.1-0.6-0.2-0.8c-0.1-0.2-0.3-0.4-0.6-0.5c-0.2-0.1-0.5-0.2-0.8-0.3
				s-0.6,0-0.9,0V192.6z"/>
			<path d="M35.9,188.8c0.6,0,1,0.1,1.4,0.4c0.4,0.3,0.6,0.6,0.8,1c0.2,0.4,0.3,0.9,0.4,1.4c0.1,0.5,0.1,1,0.1,1.6
				c0,0.5,0,1.1-0.1,1.6s-0.2,1-0.4,1.4c-0.2,0.4-0.5,0.7-0.8,1c-0.4,0.3-0.8,0.4-1.4,0.4s-1-0.1-1.4-0.4c-0.4-0.3-0.6-0.6-0.8-1
				c-0.2-0.4-0.3-0.9-0.4-1.4s-0.1-1-0.1-1.6c0-0.5,0-1,0.1-1.6c0.1-0.5,0.2-1,0.4-1.4c0.2-0.4,0.5-0.7,0.8-1
				C34.9,189,35.4,188.8,35.9,188.8z M35.9,189.6c-0.4,0-0.8,0.1-1,0.4c-0.3,0.3-0.4,0.6-0.6,1s-0.2,0.8-0.2,1.2
				c0,0.4-0.1,0.8-0.1,1.1c0,0.3,0,0.7,0.1,1.1c0,0.4,0.1,0.8,0.2,1.2s0.3,0.7,0.6,1c0.3,0.3,0.6,0.4,1,0.4s0.8-0.1,1-0.4
				s0.4-0.6,0.6-1s0.2-0.8,0.2-1.2c0-0.4,0.1-0.8,0.1-1.1c0-0.3,0-0.7-0.1-1.1c0-0.4-0.1-0.8-0.2-1.2s-0.3-0.7-0.6-1
				S36.4,189.6,35.9,189.6z"/>
		</g>
		<g class="st4">
			<path d="M30.1,223.7h-3.9V223l3.6-5.6h1v5.7h1.3v0.6h-1.3v1.9h-0.8V223.7z M30.1,218.1L30.1,218.1l-3.2,4.9h3.2V218.1z"/>
			<path d="M35.9,217.2c0.6,0,1,0.1,1.4,0.4c0.4,0.3,0.6,0.6,0.8,1c0.2,0.4,0.3,0.9,0.4,1.4c0.1,0.5,0.1,1,0.1,1.6
				c0,0.5,0,1.1-0.1,1.6s-0.2,1-0.4,1.4c-0.2,0.4-0.5,0.7-0.8,1c-0.4,0.3-0.8,0.4-1.4,0.4s-1-0.1-1.4-0.4c-0.4-0.3-0.6-0.6-0.8-1
				c-0.2-0.4-0.3-0.9-0.4-1.4s-0.1-1-0.1-1.6c0-0.5,0-1,0.1-1.6c0.1-0.5,0.2-1,0.4-1.4c0.2-0.4,0.5-0.7,0.8-1
				C34.9,217.3,35.4,217.2,35.9,217.2z M35.9,217.9c-0.4,0-0.8,0.1-1,0.4c-0.3,0.3-0.4,0.6-0.6,1s-0.2,0.8-0.2,1.2
				c0,0.4-0.1,0.8-0.1,1.1c0,0.3,0,0.7,0.1,1.1c0,0.4,0.1,0.8,0.2,1.2s0.3,0.7,0.6,1c0.3,0.3,0.6,0.4,1,0.4s0.8-0.1,1-0.4
				s0.4-0.6,0.6-1s0.2-0.8,0.2-1.2c0-0.4,0.1-0.8,0.1-1.1c0-0.3,0-0.7-0.1-1.1c0-0.4-0.1-0.8-0.2-1.2s-0.3-0.7-0.6-1
				S36.4,217.9,35.9,217.9z"/>
		</g>
		<g class="st4">
			<path d="M27,245.7h4.6v0.7h-3.8l-0.1,3l0,0c0.2-0.3,0.5-0.5,0.8-0.6c0.3-0.2,0.6-0.2,1-0.2c0.4,0,0.7,0.1,1.1,0.2
				c0.3,0.1,0.6,0.3,0.8,0.6c0.2,0.3,0.4,0.6,0.5,0.9c0.1,0.3,0.2,0.7,0.2,1.1c0,0.4-0.1,0.8-0.2,1.1c-0.1,0.3-0.3,0.7-0.5,0.9
				s-0.5,0.5-0.8,0.6c-0.3,0.2-0.7,0.2-1.1,0.2c-0.4,0-0.7,0-1-0.1s-0.6-0.2-0.8-0.4c-0.2-0.2-0.4-0.4-0.6-0.7
				c-0.2-0.3-0.2-0.6-0.2-1h0.8c0,0.2,0.1,0.5,0.2,0.7c0.1,0.2,0.2,0.3,0.4,0.5c0.2,0.1,0.3,0.2,0.5,0.3c0.2,0.1,0.4,0.1,0.7,0.1
				c0.3,0,0.6-0.1,0.8-0.2c0.2-0.1,0.4-0.3,0.6-0.5c0.2-0.2,0.3-0.4,0.4-0.7c0.1-0.3,0.1-0.5,0.1-0.9c0-0.6-0.2-1.1-0.5-1.5
				s-0.8-0.6-1.4-0.6c-0.4,0-0.8,0.1-1.1,0.3s-0.5,0.5-0.6,0.9h-0.8L27,245.7z"/>
			<path d="M35.9,245.5c0.6,0,1,0.1,1.4,0.4c0.4,0.3,0.6,0.6,0.8,1c0.2,0.4,0.3,0.9,0.4,1.4c0.1,0.5,0.1,1,0.1,1.6
				c0,0.5,0,1.1-0.1,1.6s-0.2,1-0.4,1.4c-0.2,0.4-0.5,0.7-0.8,1c-0.4,0.3-0.8,0.4-1.4,0.4s-1-0.1-1.4-0.4c-0.4-0.3-0.6-0.6-0.8-1
				c-0.2-0.4-0.3-0.9-0.4-1.4s-0.1-1-0.1-1.6c0-0.5,0-1,0.1-1.6c0.1-0.5,0.2-1,0.4-1.4c0.2-0.4,0.5-0.7,0.8-1
				C34.9,245.6,35.4,245.5,35.9,245.5z M35.9,246.2c-0.4,0-0.8,0.1-1,0.4c-0.3,0.3-0.4,0.6-0.6,1s-0.2,0.8-0.2,1.2
				c0,0.4-0.1,0.8-0.1,1.1c0,0.3,0,0.7,0.1,1.1c0,0.4,0.1,0.8,0.2,1.2s0.3,0.7,0.6,1c0.3,0.3,0.6,0.4,1,0.4s0.8-0.1,1-0.4
				s0.4-0.6,0.6-1s0.2-0.8,0.2-1.2c0-0.4,0.1-0.8,0.1-1.1c0-0.3,0-0.7-0.1-1.1c0-0.4-0.1-0.8-0.2-1.2s-0.3-0.7-0.6-1
				S36.4,246.2,35.9,246.2z"/>
		</g>
		<g class="st4">
			<path d="M29.5,275.8c0.3,0,0.7,0,0.9,0.1c0.3,0.1,0.6,0.2,0.8,0.4s0.4,0.4,0.5,0.7s0.2,0.6,0.2,0.9h-0.8c0-0.2-0.1-0.4-0.1-0.6
				c-0.1-0.2-0.2-0.3-0.3-0.4c-0.1-0.1-0.3-0.2-0.5-0.3s-0.4-0.1-0.6-0.1c-0.5,0-0.9,0.1-1.2,0.4c-0.3,0.2-0.5,0.6-0.7,0.9
				c-0.2,0.4-0.3,0.8-0.3,1.2c0,0.4-0.1,0.9-0.1,1.2h0c0.2-0.5,0.5-0.8,0.9-1c0.4-0.2,0.8-0.3,1.3-0.3c0.4,0,0.8,0.1,1.1,0.2
				c0.3,0.1,0.6,0.3,0.8,0.6c0.2,0.2,0.4,0.5,0.5,0.9c0.1,0.3,0.2,0.7,0.2,1.1c0,0.4-0.1,0.8-0.2,1.1c-0.1,0.3-0.3,0.6-0.5,0.9
				c-0.2,0.3-0.5,0.5-0.8,0.6c-0.3,0.1-0.7,0.2-1.1,0.2c-0.6,0-1.1-0.1-1.4-0.3c-0.4-0.2-0.7-0.5-0.9-0.9c-0.2-0.4-0.4-0.8-0.5-1.3
				c-0.1-0.5-0.1-1-0.1-1.5c0-0.4,0-0.7,0-1.1c0-0.4,0.1-0.7,0.1-1.1c0.1-0.4,0.2-0.7,0.3-1s0.3-0.6,0.5-0.8s0.5-0.4,0.8-0.6
				C28.7,275.9,29.1,275.8,29.5,275.8z M29.5,279.6c-0.3,0-0.6,0.1-0.9,0.2s-0.5,0.3-0.6,0.5c-0.2,0.2-0.3,0.4-0.4,0.7
				c-0.1,0.3-0.1,0.6-0.1,0.9c0,0.3,0,0.5,0.1,0.8c0.1,0.2,0.2,0.5,0.4,0.6c0.2,0.2,0.4,0.3,0.6,0.4c0.2,0.1,0.5,0.2,0.8,0.2
				c0.3,0,0.6-0.1,0.8-0.2c0.2-0.1,0.4-0.2,0.6-0.4s0.3-0.4,0.4-0.6c0.1-0.2,0.1-0.5,0.1-0.8c0-0.3,0-0.5-0.1-0.8s-0.2-0.5-0.3-0.7
				c-0.1-0.2-0.3-0.4-0.5-0.5C30.1,279.7,29.8,279.6,29.5,279.6z"/>
			<path d="M35.9,275.8c0.6,0,1,0.1,1.4,0.4c0.4,0.3,0.6,0.6,0.8,1c0.2,0.4,0.3,0.9,0.4,1.4s0.1,1,0.1,1.6s0,1.1-0.1,1.6
				s-0.2,1-0.4,1.4c-0.2,0.4-0.5,0.7-0.8,1c-0.4,0.3-0.8,0.4-1.4,0.4s-1-0.1-1.4-0.4c-0.4-0.3-0.6-0.6-0.8-1
				c-0.2-0.4-0.3-0.9-0.4-1.4s-0.1-1-0.1-1.6s0-1.1,0.1-1.6s0.2-1,0.4-1.4c0.2-0.4,0.5-0.7,0.8-1C34.9,276,35.4,275.8,35.9,275.8z
				 M35.9,276.6c-0.4,0-0.8,0.1-1,0.4c-0.3,0.3-0.4,0.6-0.6,1c-0.1,0.4-0.2,0.8-0.2,1.2c0,0.4-0.1,0.8-0.1,1.1s0,0.7,0.1,1.1
				c0,0.4,0.1,0.8,0.2,1.2c0.1,0.4,0.3,0.7,0.6,1c0.3,0.3,0.6,0.4,1,0.4s0.8-0.1,1-0.4s0.4-0.6,0.6-1c0.1-0.4,0.2-0.8,0.2-1.2
				c0-0.4,0.1-0.8,0.1-1.1s0-0.7-0.1-1.1c0-0.4-0.1-0.8-0.2-1.2c-0.1-0.4-0.3-0.7-0.6-1S36.4,276.6,35.9,276.6z"/>
		</g>
		<g class="st4">
			<path d="M31.8,308l-3.2,7.6h-0.9l3.3-7.6h-4.5v-0.7h5.3V308z"/>
			<path d="M35.9,307.2c0.6,0,1,0.1,1.4,0.4c0.4,0.3,0.6,0.6,0.8,1c0.2,0.4,0.3,0.9,0.4,1.4c0.1,0.5,0.1,1,0.1,1.6
				c0,0.5,0,1.1-0.1,1.6s-0.2,1-0.4,1.4c-0.2,0.4-0.5,0.7-0.8,1c-0.4,0.3-0.8,0.4-1.4,0.4s-1-0.1-1.4-0.4c-0.4-0.3-0.6-0.6-0.8-1
				c-0.2-0.4-0.3-0.9-0.4-1.4s-0.1-1-0.1-1.6c0-0.5,0-1,0.1-1.6c0.1-0.5,0.2-1,0.4-1.4c0.2-0.4,0.5-0.7,0.8-1
				C34.9,307.3,35.4,307.2,35.9,307.2z M35.9,307.9c-0.4,0-0.8,0.1-1,0.4c-0.3,0.3-0.4,0.6-0.6,1s-0.2,0.8-0.2,1.2
				c0,0.4-0.1,0.8-0.1,1.1c0,0.3,0,0.7,0.1,1.1c0,0.4,0.1,0.8,0.2,1.2s0.3,0.7,0.6,1c0.3,0.3,0.6,0.4,1,0.4s0.8-0.1,1-0.4
				s0.4-0.6,0.6-1s0.2-0.8,0.2-1.2c0-0.4,0.1-0.8,0.1-1.1c0-0.3,0-0.7-0.1-1.1c0-0.4-0.1-0.8-0.2-1.2s-0.3-0.7-0.6-1
				S36.4,307.9,35.9,307.9z"/>
		</g>
		<g class="st4">
			<path d="M28.3,340.7c-0.2,0-0.5-0.1-0.7-0.2c-0.2-0.1-0.4-0.3-0.5-0.4c-0.2-0.2-0.3-0.4-0.4-0.6s-0.1-0.5-0.1-0.7
				c0-0.4,0.1-0.7,0.2-1c0.2-0.3,0.4-0.5,0.6-0.7c0.3-0.2,0.5-0.3,0.9-0.4c0.3-0.1,0.6-0.1,1-0.1s0.7,0,1,0.1s0.6,0.2,0.9,0.4
				c0.3,0.2,0.5,0.4,0.6,0.7c0.2,0.3,0.2,0.6,0.2,1c0,0.3,0,0.5-0.1,0.7s-0.2,0.4-0.4,0.6c-0.2,0.2-0.3,0.3-0.5,0.4
				c-0.2,0.1-0.4,0.2-0.7,0.3v0c0.6,0.1,1,0.4,1.3,0.7c0.3,0.3,0.5,0.8,0.5,1.3c0,0.4-0.1,0.8-0.2,1.1c-0.2,0.3-0.4,0.6-0.6,0.8
				c-0.3,0.2-0.6,0.3-0.9,0.4c-0.3,0.1-0.7,0.1-1,0.1c-0.4,0-0.7,0-1-0.1c-0.3-0.1-0.6-0.2-0.9-0.4c-0.3-0.2-0.5-0.5-0.6-0.8
				c-0.2-0.3-0.2-0.7-0.2-1.1c0-0.3,0-0.5,0.1-0.7c0.1-0.2,0.2-0.4,0.4-0.6s0.4-0.3,0.6-0.4S28,340.7,28.3,340.7L28.3,340.7z
				 M27.3,342.7c0,0.3,0.1,0.6,0.2,0.8s0.3,0.4,0.4,0.5c0.2,0.1,0.4,0.2,0.6,0.3c0.2,0.1,0.5,0.1,0.7,0.1s0.5,0,0.7-0.1
				c0.2-0.1,0.5-0.2,0.6-0.3c0.2-0.1,0.3-0.3,0.4-0.5c0.1-0.2,0.2-0.5,0.2-0.8s-0.1-0.6-0.2-0.8c-0.1-0.2-0.3-0.4-0.4-0.5
				c-0.2-0.1-0.4-0.2-0.6-0.3c-0.2-0.1-0.5-0.1-0.7-0.1s-0.5,0-0.7,0.1c-0.2,0.1-0.5,0.2-0.6,0.3c-0.2,0.1-0.3,0.3-0.4,0.5
				C27.3,342.2,27.3,342.4,27.3,342.7z M27.4,338.7c0,0.5,0.2,0.9,0.5,1.2s0.8,0.4,1.4,0.4c0.6,0,1-0.1,1.4-0.4
				c0.4-0.3,0.5-0.6,0.5-1.2c0-0.3-0.1-0.5-0.2-0.7s-0.3-0.4-0.4-0.5s-0.4-0.2-0.6-0.3c-0.2-0.1-0.5-0.1-0.7-0.1s-0.5,0-0.7,0.1
				c-0.2,0.1-0.4,0.2-0.6,0.3s-0.3,0.3-0.4,0.5C27.4,338.2,27.4,338.5,27.4,338.7z"/>
			<path d="M35.9,336.5c0.6,0,1,0.1,1.4,0.4c0.4,0.3,0.6,0.6,0.8,1c0.2,0.4,0.3,0.9,0.4,1.4c0.1,0.5,0.1,1,0.1,1.6
				c0,0.5,0,1.1-0.1,1.6s-0.2,1-0.4,1.4c-0.2,0.4-0.5,0.7-0.8,1c-0.4,0.3-0.8,0.4-1.4,0.4s-1-0.1-1.4-0.4c-0.4-0.3-0.6-0.6-0.8-1
				c-0.2-0.4-0.3-0.9-0.4-1.4s-0.1-1-0.1-1.6c0-0.5,0-1,0.1-1.6c0.1-0.5,0.2-1,0.4-1.4c0.2-0.4,0.5-0.7,0.8-1
				C34.9,336.6,35.4,336.5,35.9,336.5z M35.9,337.2c-0.4,0-0.8,0.1-1,0.4c-0.3,0.3-0.4,0.6-0.6,1s-0.2,0.8-0.2,1.2
				c0,0.4-0.1,0.8-0.1,1.1c0,0.3,0,0.7,0.1,1.1c0,0.4,0.1,0.8,0.2,1.2s0.3,0.7,0.6,1c0.3,0.3,0.6,0.4,1,0.4s0.8-0.1,1-0.4
				s0.4-0.6,0.6-1s0.2-0.8,0.2-1.2c0-0.4,0.1-0.8,0.1-1.1c0-0.3,0-0.7-0.1-1.1c0-0.4-0.1-0.8-0.2-1.2s-0.3-0.7-0.6-1
				S36.4,337.2,35.9,337.2z"/>
		</g>
		<g class="st4">
			<path d="M27.3,373.3c0,0.3,0.1,0.5,0.2,0.7c0.1,0.2,0.2,0.3,0.4,0.5c0.2,0.1,0.3,0.2,0.6,0.3c0.2,0.1,0.5,0.1,0.7,0.1
				c0.3,0,0.6-0.1,0.8-0.2c0.2-0.1,0.4-0.3,0.6-0.5c0.2-0.2,0.3-0.5,0.4-0.8c0.1-0.3,0.2-0.6,0.2-0.9c0.1-0.3,0.1-0.6,0.1-0.9
				c0-0.3,0-0.5,0-0.7h0c-0.2,0.4-0.5,0.7-0.9,0.9c-0.4,0.2-0.8,0.3-1.3,0.3c-0.4,0-0.7-0.1-1-0.2c-0.3-0.1-0.6-0.3-0.8-0.5
				c-0.2-0.2-0.4-0.5-0.5-0.8c-0.1-0.3-0.2-0.7-0.2-1c0-0.4,0.1-0.8,0.2-1.1c0.1-0.3,0.3-0.6,0.5-0.9s0.5-0.4,0.8-0.6
				c0.3-0.1,0.7-0.2,1.1-0.2c0.6,0,1.1,0.1,1.5,0.4s0.7,0.5,0.9,0.9c0.2,0.4,0.4,0.8,0.4,1.3s0.1,1,0.1,1.5c0,0.6,0,1.1-0.1,1.7
				s-0.2,1-0.5,1.5c-0.2,0.4-0.5,0.8-1,1c-0.4,0.3-1,0.4-1.6,0.4c-0.7,0-1.3-0.2-1.7-0.6c-0.4-0.4-0.6-0.9-0.7-1.6H27.3z
				 M29.1,367.6c-0.3,0-0.6,0.1-0.8,0.2c-0.2,0.1-0.4,0.3-0.6,0.4c-0.1,0.2-0.3,0.4-0.3,0.7c-0.1,0.2-0.1,0.5-0.1,0.8
				c0,0.6,0.2,1,0.5,1.3s0.8,0.5,1.3,0.5c0.3,0,0.6,0,0.8-0.1c0.2-0.1,0.5-0.2,0.6-0.4c0.2-0.2,0.3-0.4,0.4-0.6
				c0.1-0.2,0.2-0.5,0.2-0.8s0-0.5-0.1-0.8c-0.1-0.2-0.2-0.4-0.4-0.6s-0.4-0.3-0.6-0.4C29.7,367.6,29.4,367.6,29.1,367.6z"/>
			<path d="M35.9,366.8c0.6,0,1,0.1,1.4,0.4c0.4,0.3,0.6,0.6,0.8,1c0.2,0.4,0.3,0.9,0.4,1.4c0.1,0.5,0.1,1,0.1,1.6
				c0,0.5,0,1.1-0.1,1.6s-0.2,1-0.4,1.4c-0.2,0.4-0.5,0.7-0.8,1c-0.4,0.3-0.8,0.4-1.4,0.4s-1-0.1-1.4-0.4c-0.4-0.3-0.6-0.6-0.8-1
				c-0.2-0.4-0.3-0.9-0.4-1.4s-0.1-1-0.1-1.6c0-0.5,0-1,0.1-1.6c0.1-0.5,0.2-1,0.4-1.4c0.2-0.4,0.5-0.7,0.8-1
				C34.9,367,35.4,366.8,35.9,366.8z M35.9,367.6c-0.4,0-0.8,0.1-1,0.4c-0.3,0.3-0.4,0.6-0.6,1s-0.2,0.8-0.2,1.2
				c0,0.4-0.1,0.8-0.1,1.1c0,0.3,0,0.7,0.1,1.1c0,0.4,0.1,0.8,0.2,1.2s0.3,0.7,0.6,1c0.3,0.3,0.6,0.4,1,0.4s0.8-0.1,1-0.4
				s0.4-0.6,0.6-1s0.2-0.8,0.2-1.2c0-0.4,0.1-0.8,0.1-1.1c0-0.3,0-0.7-0.1-1.1c0-0.4-0.1-0.8-0.2-1.2s-0.3-0.7-0.6-1
				S36.4,367.6,35.9,367.6z"/>
		</g>
		<g class="st4">
			<path d="M24,398.7c0.4-0.1,0.7-0.3,1-0.6c0.3-0.2,0.6-0.5,0.9-0.8h0.7v8.3h-0.8v-7.5c-0.3,0.3-0.6,0.5-0.9,0.7
				c-0.3,0.2-0.6,0.4-1,0.5V398.7z"/>
			<path d="M31.7,397.2c0.6,0,1,0.1,1.4,0.4c0.4,0.3,0.6,0.6,0.8,1c0.2,0.4,0.3,0.9,0.4,1.4c0.1,0.5,0.1,1,0.1,1.6
				c0,0.5,0,1.1-0.1,1.6s-0.2,1-0.4,1.4c-0.2,0.4-0.5,0.7-0.8,1c-0.4,0.3-0.8,0.4-1.4,0.4s-1-0.1-1.4-0.4c-0.4-0.3-0.6-0.6-0.8-1
				c-0.2-0.4-0.3-0.9-0.4-1.4s-0.1-1-0.1-1.6c0-0.5,0-1,0.1-1.6c0.1-0.5,0.2-1,0.4-1.4c0.2-0.4,0.5-0.7,0.8-1
				C30.7,397.3,31.1,397.2,31.7,397.2z M31.7,397.9c-0.4,0-0.8,0.1-1,0.4c-0.3,0.3-0.4,0.6-0.6,1s-0.2,0.8-0.2,1.2
				c0,0.4-0.1,0.8-0.1,1.1c0,0.3,0,0.7,0.1,1.1c0,0.4,0.1,0.8,0.2,1.2s0.3,0.7,0.6,1c0.3,0.3,0.6,0.4,1,0.4s0.8-0.1,1-0.4
				s0.4-0.6,0.6-1s0.2-0.8,0.2-1.2c0-0.4,0.1-0.8,0.1-1.1c0-0.3,0-0.7-0.1-1.1c0-0.4-0.1-0.8-0.2-1.2s-0.3-0.7-0.6-1
				S32.1,397.9,31.7,397.9z"/>
			<path d="M38.4,397.2c0.6,0,1,0.1,1.4,0.4c0.4,0.3,0.6,0.6,0.8,1c0.2,0.4,0.3,0.9,0.4,1.4c0.1,0.5,0.1,1,0.1,1.6
				c0,0.5,0,1.1-0.1,1.6s-0.2,1-0.4,1.4c-0.2,0.4-0.5,0.7-0.8,1c-0.4,0.3-0.8,0.4-1.4,0.4s-1-0.1-1.4-0.4c-0.4-0.3-0.6-0.6-0.8-1
				c-0.2-0.4-0.3-0.9-0.4-1.4s-0.1-1-0.1-1.6c0-0.5,0-1,0.1-1.6c0.1-0.5,0.2-1,0.4-1.4c0.2-0.4,0.5-0.7,0.8-1
				C37.3,397.3,37.8,397.2,38.4,397.2z M38.4,397.9c-0.4,0-0.8,0.1-1,0.4c-0.3,0.3-0.4,0.6-0.6,1s-0.2,0.8-0.2,1.2
				c0,0.4-0.1,0.8-0.1,1.1c0,0.3,0,0.7,0.1,1.1c0,0.4,0.1,0.8,0.2,1.2s0.3,0.7,0.6,1c0.3,0.3,0.6,0.4,1,0.4s0.8-0.1,1-0.4
				s0.4-0.6,0.6-1s0.2-0.8,0.2-1.2c0-0.4,0.1-0.8,0.1-1.1c0-0.3,0-0.7-0.1-1.1c0-0.4-0.1-0.8-0.2-1.2s-0.3-0.7-0.6-1
				S38.8,397.9,38.4,397.9z"/>
		</g>
		<g class="st4">
			<path d="M24,429c0.4-0.1,0.7-0.3,1-0.6c0.3-0.2,0.6-0.5,0.9-0.8h0.7v8.3h-0.8v-7.5c-0.3,0.3-0.6,0.5-0.9,0.7
				c-0.3,0.2-0.6,0.4-1,0.5V429z"/>
			<path d="M29.3,429c0.4-0.1,0.7-0.3,1-0.6c0.3-0.2,0.6-0.5,0.9-0.8h0.7v8.3h-0.8v-7.5c-0.3,0.3-0.6,0.5-0.9,0.7
				c-0.3,0.2-0.6,0.4-1,0.5V429z"/>
			<path d="M37,427.5c0.6,0,1,0.1,1.4,0.4c0.4,0.3,0.6,0.6,0.8,1c0.2,0.4,0.3,0.9,0.4,1.4c0.1,0.5,0.1,1,0.1,1.6
				c0,0.5,0,1.1-0.1,1.6s-0.2,1-0.4,1.4c-0.2,0.4-0.5,0.7-0.8,1c-0.4,0.3-0.8,0.4-1.4,0.4s-1-0.1-1.4-0.4c-0.4-0.3-0.6-0.6-0.8-1
				c-0.2-0.4-0.3-0.9-0.4-1.4s-0.1-1-0.1-1.6c0-0.5,0-1,0.1-1.6c0.1-0.5,0.2-1,0.4-1.4c0.2-0.4,0.5-0.7,0.8-1
				C36,427.6,36.4,427.5,37,427.5z M37,428.2c-0.4,0-0.8,0.1-1,0.4c-0.3,0.3-0.4,0.6-0.6,1s-0.2,0.8-0.2,1.2c0,0.4-0.1,0.8-0.1,1.1
				c0,0.3,0,0.7,0.1,1.1c0,0.4,0.1,0.8,0.2,1.2s0.3,0.7,0.6,1c0.3,0.3,0.6,0.4,1,0.4s0.8-0.1,1-0.4s0.4-0.6,0.6-1s0.2-0.8,0.2-1.2
				c0-0.4,0.1-0.8,0.1-1.1c0-0.3,0-0.7-0.1-1.1c0-0.4-0.1-0.8-0.2-1.2s-0.3-0.7-0.6-1S37.4,428.2,37,428.2z"/>
		</g>
		<g class="st4">
			<path d="M24,457.3c0.4-0.1,0.7-0.3,1-0.6c0.3-0.2,0.6-0.5,0.9-0.8h0.7v8.3h-0.8v-7.5c-0.3,0.3-0.6,0.5-0.9,0.7
				c-0.3,0.2-0.6,0.4-1,0.5V457.3z"/>
			<path d="M29.3,464.3v-0.8c0.8-0.7,1.5-1.4,2.2-2c0.7-0.6,1.2-1.2,1.6-1.8c0.4-0.6,0.6-1.1,0.6-1.7c0-0.3,0-0.5-0.1-0.7
				c-0.1-0.2-0.2-0.3-0.4-0.5c-0.2-0.1-0.3-0.2-0.5-0.3c-0.2-0.1-0.4-0.1-0.6-0.1c-0.2,0-0.5,0-0.7,0.1s-0.4,0.2-0.5,0.3
				c-0.1,0.1-0.3,0.3-0.3,0.5c-0.1,0.2-0.1,0.4-0.1,0.7h-0.8c0-0.4,0.1-0.7,0.2-1s0.3-0.5,0.5-0.7s0.5-0.4,0.8-0.5
				c0.3-0.1,0.6-0.2,1-0.2c0.3,0,0.7,0,1,0.1c0.3,0.1,0.6,0.2,0.8,0.4c0.2,0.2,0.4,0.4,0.5,0.7c0.1,0.3,0.2,0.6,0.2,1
				c0,0.3-0.1,0.7-0.2,1c-0.1,0.3-0.3,0.7-0.6,1c-0.2,0.3-0.4,0.6-0.7,0.9s-0.5,0.6-0.8,0.9c-0.3,0.3-0.6,0.6-0.9,0.9
				s-0.6,0.6-0.9,0.9h4.3v0.7H29.3z"/>
			<path d="M38.7,455.8c0.6,0,1,0.1,1.4,0.4c0.4,0.3,0.6,0.6,0.8,1c0.2,0.4,0.3,0.9,0.4,1.4c0.1,0.5,0.1,1,0.1,1.6
				c0,0.5,0,1.1-0.1,1.6s-0.2,1-0.4,1.4c-0.2,0.4-0.5,0.7-0.8,1c-0.4,0.3-0.8,0.4-1.4,0.4s-1-0.1-1.4-0.4c-0.4-0.3-0.6-0.6-0.8-1
				c-0.2-0.4-0.3-0.9-0.4-1.4s-0.1-1-0.1-1.6c0-0.5,0-1,0.1-1.6c0.1-0.5,0.2-1,0.4-1.4c0.2-0.4,0.5-0.7,0.8-1
				C37.6,456,38.1,455.8,38.7,455.8z M38.7,456.6c-0.4,0-0.8,0.1-1,0.4c-0.3,0.3-0.4,0.6-0.6,1s-0.2,0.8-0.2,1.2
				c0,0.4-0.1,0.8-0.1,1.1c0,0.3,0,0.7,0.1,1.1c0,0.4,0.1,0.8,0.2,1.2s0.3,0.7,0.6,1c0.3,0.3,0.6,0.4,1,0.4s0.8-0.1,1-0.4
				s0.4-0.6,0.6-1s0.2-0.8,0.2-1.2c0-0.4,0.1-0.8,0.1-1.1c0-0.3,0-0.7-0.1-1.1c0-0.4-0.1-0.8-0.2-1.2s-0.3-0.7-0.6-1
				S39.1,456.6,38.7,456.6z"/>
		</g>
		<g class="st4">
			<path d="M150.1,28.1h4.6v0.7h-3.8l-0.1,3l0,0c0.2-0.3,0.5-0.5,0.8-0.6c0.3-0.2,0.6-0.2,1-0.2c0.4,0,0.7,0.1,1.1,0.2
				c0.3,0.1,0.6,0.3,0.8,0.6c0.2,0.3,0.4,0.6,0.5,0.9c0.1,0.3,0.2,0.7,0.2,1.1c0,0.4-0.1,0.8-0.2,1.1c-0.1,0.3-0.3,0.7-0.5,0.9
				s-0.5,0.5-0.8,0.6c-0.3,0.2-0.7,0.2-1.1,0.2c-0.4,0-0.7,0-1-0.1s-0.6-0.2-0.8-0.4c-0.2-0.2-0.4-0.4-0.6-0.7
				c-0.2-0.3-0.2-0.6-0.2-1h0.8c0,0.2,0.1,0.5,0.2,0.7c0.1,0.2,0.2,0.3,0.4,0.5c0.2,0.1,0.3,0.2,0.5,0.3c0.2,0.1,0.4,0.1,0.7,0.1
				c0.3,0,0.6-0.1,0.8-0.2c0.2-0.1,0.4-0.3,0.6-0.5c0.2-0.2,0.3-0.4,0.4-0.7c0.1-0.3,0.1-0.5,0.1-0.9c0-0.6-0.2-1.1-0.5-1.5
				s-0.8-0.6-1.4-0.6c-0.4,0-0.8,0.1-1.1,0.3s-0.5,0.5-0.6,0.9h-0.8L150.1,28.1z"/>
			<path d="M159,28c0.6,0,1,0.1,1.4,0.4c0.4,0.3,0.6,0.6,0.8,1c0.2,0.4,0.3,0.9,0.4,1.4c0.1,0.5,0.1,1,0.1,1.6c0,0.5,0,1.1-0.1,1.6
				s-0.2,1-0.4,1.4c-0.2,0.4-0.5,0.7-0.8,1c-0.4,0.3-0.8,0.4-1.4,0.4s-1-0.1-1.4-0.4c-0.4-0.3-0.6-0.6-0.8-1
				c-0.2-0.4-0.3-0.9-0.4-1.4s-0.1-1-0.1-1.6c0-0.5,0-1,0.1-1.6c0.1-0.5,0.2-1,0.4-1.4c0.2-0.4,0.5-0.7,0.8-1
				C158,28.1,158.4,28,159,28z M159,28.7c-0.4,0-0.8,0.1-1,0.4c-0.3,0.3-0.4,0.6-0.6,1s-0.2,0.8-0.2,1.2c0,0.4-0.1,0.8-0.1,1.1
				c0,0.3,0,0.7,0.1,1.1c0,0.4,0.1,0.8,0.2,1.2s0.3,0.7,0.6,1c0.3,0.3,0.6,0.4,1,0.4s0.8-0.1,1-0.4s0.4-0.6,0.6-1s0.2-0.8,0.2-1.2
				c0-0.4,0.1-0.8,0.1-1.1c0-0.3,0-0.7-0.1-1.1c0-0.4-0.1-0.8-0.2-1.2s-0.3-0.7-0.6-1S159.5,28.7,159,28.7z"/>
			<path d="M165.7,28c0.6,0,1,0.1,1.4,0.4c0.4,0.3,0.6,0.6,0.8,1c0.2,0.4,0.3,0.9,0.4,1.4c0.1,0.5,0.1,1,0.1,1.6
				c0,0.5,0,1.1-0.1,1.6s-0.2,1-0.4,1.4c-0.2,0.4-0.5,0.7-0.8,1c-0.4,0.3-0.8,0.4-1.4,0.4s-1-0.1-1.4-0.4c-0.4-0.3-0.6-0.6-0.8-1
				c-0.2-0.4-0.3-0.9-0.4-1.4s-0.1-1-0.1-1.6c0-0.5,0-1,0.1-1.6c0.1-0.5,0.2-1,0.4-1.4c0.2-0.4,0.5-0.7,0.8-1
				C164.7,28.1,165.1,28,165.7,28z M165.7,28.7c-0.4,0-0.8,0.1-1,0.4c-0.3,0.3-0.4,0.6-0.6,1s-0.2,0.8-0.2,1.2
				c0,0.4-0.1,0.8-0.1,1.1c0,0.3,0,0.7,0.1,1.1c0,0.4,0.1,0.8,0.2,1.2s0.3,0.7,0.6,1c0.3,0.3,0.6,0.4,1,0.4s0.8-0.1,1-0.4
				s0.4-0.6,0.6-1s0.2-0.8,0.2-1.2c0-0.4,0.1-0.8,0.1-1.1c0-0.3,0-0.7-0.1-1.1c0-0.4-0.1-0.8-0.2-1.2s-0.3-0.7-0.6-1
				S166.1,28.7,165.7,28.7z"/>
		</g>
		<g class="st4">
			<path d="M218.7,29.4c0.4-0.1,0.7-0.3,1-0.6c0.3-0.2,0.6-0.5,0.9-0.8h0.7v8.3h-0.8V29c-0.3,0.3-0.6,0.5-0.9,0.7
				c-0.3,0.2-0.6,0.4-1,0.5V29.4z"/>
			<path d="M226.4,28c0.6,0,1,0.1,1.4,0.4c0.4,0.3,0.6,0.6,0.8,1c0.2,0.4,0.3,0.9,0.4,1.4c0.1,0.5,0.1,1,0.1,1.6
				c0,0.5,0,1.1-0.1,1.6s-0.2,1-0.4,1.4c-0.2,0.4-0.5,0.7-0.8,1c-0.4,0.3-0.8,0.4-1.4,0.4s-1-0.1-1.4-0.4c-0.4-0.3-0.6-0.6-0.8-1
				c-0.2-0.4-0.3-0.9-0.4-1.4s-0.1-1-0.1-1.6c0-0.5,0-1,0.1-1.6c0.1-0.5,0.2-1,0.4-1.4c0.2-0.4,0.5-0.7,0.8-1
				C225.4,28.1,225.9,28,226.4,28z M226.4,28.7c-0.4,0-0.8,0.1-1,0.4c-0.3,0.3-0.4,0.6-0.6,1s-0.2,0.8-0.2,1.2
				c0,0.4-0.1,0.8-0.1,1.1c0,0.3,0,0.7,0.1,1.1c0,0.4,0.1,0.8,0.2,1.2s0.3,0.7,0.6,1c0.3,0.3,0.6,0.4,1,0.4s0.8-0.1,1-0.4
				s0.4-0.6,0.6-1s0.2-0.8,0.2-1.2c0-0.4,0.1-0.8,0.1-1.1c0-0.3,0-0.7-0.1-1.1c0-0.4-0.1-0.8-0.2-1.2s-0.3-0.7-0.6-1
				S226.9,28.7,226.4,28.7z"/>
			<path d="M233.1,28c0.6,0,1,0.1,1.4,0.4c0.4,0.3,0.6,0.6,0.8,1c0.2,0.4,0.3,0.9,0.4,1.4c0.1,0.5,0.1,1,0.1,1.6
				c0,0.5,0,1.1-0.1,1.6s-0.2,1-0.4,1.4c-0.2,0.4-0.5,0.7-0.8,1c-0.4,0.3-0.8,0.4-1.4,0.4s-1-0.1-1.4-0.4c-0.4-0.3-0.6-0.6-0.8-1
				c-0.2-0.4-0.3-0.9-0.4-1.4s-0.1-1-0.1-1.6c0-0.5,0-1,0.1-1.6c0.1-0.5,0.2-1,0.4-1.4c0.2-0.4,0.5-0.7,0.8-1
				C232.1,28.1,232.5,28,233.1,28z M233.1,28.7c-0.4,0-0.8,0.1-1,0.4c-0.3,0.3-0.4,0.6-0.6,1s-0.2,0.8-0.2,1.2
				c0,0.4-0.1,0.8-0.1,1.1c0,0.3,0,0.7,0.1,1.1c0,0.4,0.1,0.8,0.2,1.2s0.3,0.7,0.6,1c0.3,0.3,0.6,0.4,1,0.4s0.8-0.1,1-0.4
				s0.4-0.6,0.6-1s0.2-0.8,0.2-1.2c0-0.4,0.1-0.8,0.1-1.1c0-0.3,0-0.7-0.1-1.1c0-0.4-0.1-0.8-0.2-1.2s-0.3-0.7-0.6-1
				S233.6,28.7,233.1,28.7z"/>
			<path d="M239.8,28c0.6,0,1,0.1,1.4,0.4c0.4,0.3,0.6,0.6,0.8,1c0.2,0.4,0.3,0.9,0.4,1.4c0.1,0.5,0.1,1,0.1,1.6
				c0,0.5,0,1.1-0.1,1.6s-0.2,1-0.4,1.4c-0.2,0.4-0.5,0.7-0.8,1c-0.4,0.3-0.8,0.4-1.4,0.4s-1-0.1-1.4-0.4c-0.4-0.3-0.6-0.6-0.8-1
				c-0.2-0.4-0.3-0.9-0.4-1.4s-0.1-1-0.1-1.6c0-0.5,0-1,0.1-1.6c0.1-0.5,0.2-1,0.4-1.4c0.2-0.4,0.5-0.7,0.8-1
				C238.8,28.1,239.2,28,239.8,28z M239.8,28.7c-0.4,0-0.8,0.1-1,0.4c-0.3,0.3-0.4,0.6-0.6,1s-0.2,0.8-0.2,1.2
				c0,0.4-0.1,0.8-0.1,1.1c0,0.3,0,0.7,0.1,1.1c0,0.4,0.1,0.8,0.2,1.2s0.3,0.7,0.6,1c0.3,0.3,0.6,0.4,1,0.4s0.8-0.1,1-0.4
				s0.4-0.6,0.6-1s0.2-0.8,0.2-1.2c0-0.4,0.1-0.8,0.1-1.1c0-0.3,0-0.7-0.1-1.1c0-0.4-0.1-0.8-0.2-1.2s-0.3-0.7-0.6-1
				S240.2,28.7,239.8,28.7z"/>
		</g>
		<g class="st4">
			<path d="M289.6,36.4v-0.8c0.8-0.7,1.5-1.4,2.2-2c0.7-0.6,1.2-1.2,1.6-1.8c0.4-0.6,0.6-1.1,0.6-1.7c0-0.3,0-0.5-0.1-0.7
				c-0.1-0.2-0.2-0.3-0.4-0.5c-0.2-0.1-0.3-0.2-0.5-0.3c-0.2-0.1-0.4-0.1-0.6-0.1c-0.2,0-0.5,0-0.7,0.1s-0.4,0.2-0.5,0.3
				c-0.1,0.1-0.3,0.3-0.3,0.5c-0.1,0.2-0.1,0.4-0.1,0.7h-0.8c0-0.4,0.1-0.7,0.2-1s0.3-0.5,0.5-0.7c0.2-0.2,0.5-0.4,0.8-0.5
				c0.3-0.1,0.6-0.2,1-0.2c0.3,0,0.7,0,1,0.1c0.3,0.1,0.6,0.2,0.8,0.4c0.2,0.2,0.4,0.4,0.5,0.7c0.1,0.3,0.2,0.6,0.2,1
				c0,0.3-0.1,0.7-0.2,1c-0.1,0.3-0.3,0.7-0.6,1c-0.2,0.3-0.4,0.6-0.7,0.9c-0.3,0.3-0.5,0.6-0.8,0.9s-0.6,0.6-0.9,0.9
				c-0.3,0.3-0.6,0.6-0.9,0.9h4.3v0.7H289.6z"/>
			<path d="M299,28c0.6,0,1,0.1,1.4,0.4c0.4,0.3,0.6,0.6,0.8,1c0.2,0.4,0.3,0.9,0.4,1.4c0.1,0.5,0.1,1,0.1,1.6c0,0.5,0,1.1-0.1,1.6
				s-0.2,1-0.4,1.4c-0.2,0.4-0.5,0.7-0.8,1c-0.4,0.3-0.8,0.4-1.4,0.4c-0.6,0-1-0.1-1.4-0.4c-0.4-0.3-0.6-0.6-0.8-1
				c-0.2-0.4-0.3-0.9-0.4-1.4s-0.1-1-0.1-1.6c0-0.5,0-1,0.1-1.6c0.1-0.5,0.2-1,0.4-1.4c0.2-0.4,0.5-0.7,0.8-1
				C298,28.1,298.4,28,299,28z M299,28.7c-0.4,0-0.8,0.1-1,0.4s-0.4,0.6-0.6,1s-0.2,0.8-0.2,1.2c0,0.4-0.1,0.8-0.1,1.1
				c0,0.3,0,0.7,0.1,1.1c0,0.4,0.1,0.8,0.2,1.2s0.3,0.7,0.6,1s0.6,0.4,1,0.4c0.4,0,0.8-0.1,1-0.4s0.4-0.6,0.6-1s0.2-0.8,0.2-1.2
				c0-0.4,0.1-0.8,0.1-1.1c0-0.3,0-0.7-0.1-1.1s-0.1-0.8-0.2-1.2s-0.3-0.7-0.6-1S299.4,28.7,299,28.7z"/>
			<path d="M305.7,28c0.6,0,1,0.1,1.4,0.4c0.4,0.3,0.6,0.6,0.8,1c0.2,0.4,0.3,0.9,0.4,1.4c0.1,0.5,0.1,1,0.1,1.6
				c0,0.5,0,1.1-0.1,1.6s-0.2,1-0.4,1.4c-0.2,0.4-0.5,0.7-0.8,1c-0.4,0.3-0.8,0.4-1.4,0.4c-0.6,0-1-0.1-1.4-0.4
				c-0.4-0.3-0.6-0.6-0.8-1c-0.2-0.4-0.3-0.9-0.4-1.4s-0.1-1-0.1-1.6c0-0.5,0-1,0.1-1.6c0.1-0.5,0.2-1,0.4-1.4
				c0.2-0.4,0.5-0.7,0.8-1C304.6,28.1,305.1,28,305.7,28z M305.7,28.7c-0.4,0-0.8,0.1-1,0.4s-0.4,0.6-0.6,1s-0.2,0.8-0.2,1.2
				c0,0.4-0.1,0.8-0.1,1.1c0,0.3,0,0.7,0.1,1.1c0,0.4,0.1,0.8,0.2,1.2s0.3,0.7,0.6,1s0.6,0.4,1,0.4c0.4,0,0.8-0.1,1-0.4
				s0.4-0.6,0.6-1s0.2-0.8,0.2-1.2c0-0.4,0.1-0.8,0.1-1.1c0-0.3,0-0.7-0.1-1.1s-0.1-0.8-0.2-1.2s-0.3-0.7-0.6-1
				S306.1,28.7,305.7,28.7z"/>
			<path d="M312.4,28c0.6,0,1,0.1,1.4,0.4c0.4,0.3,0.6,0.6,0.8,1c0.2,0.4,0.3,0.9,0.4,1.4c0.1,0.5,0.1,1,0.1,1.6
				c0,0.5,0,1.1-0.1,1.6s-0.2,1-0.4,1.4c-0.2,0.4-0.5,0.7-0.8,1c-0.4,0.3-0.8,0.4-1.4,0.4c-0.6,0-1-0.1-1.4-0.4
				c-0.4-0.3-0.6-0.6-0.8-1c-0.2-0.4-0.3-0.9-0.4-1.4s-0.1-1-0.1-1.6c0-0.5,0-1,0.1-1.6c0.1-0.5,0.2-1,0.4-1.4
				c0.2-0.4,0.5-0.7,0.8-1C311.3,28.1,311.8,28,312.4,28z M312.4,28.7c-0.4,0-0.8,0.1-1,0.4c-0.3,0.3-0.4,0.6-0.6,1
				s-0.2,0.8-0.2,1.2s-0.1,0.8-0.1,1.1c0,0.3,0,0.7,0.1,1.1c0,0.4,0.1,0.8,0.2,1.2s0.3,0.7,0.6,1c0.3,0.3,0.6,0.4,1,0.4
				c0.4,0,0.8-0.1,1-0.4s0.4-0.6,0.6-1s0.2-0.8,0.2-1.2c0-0.4,0.1-0.8,0.1-1.1c0-0.3,0-0.7-0.1-1.1c0-0.4-0.1-0.8-0.2-1.2
				s-0.3-0.7-0.6-1S312.8,28.7,312.4,28.7z"/>
		</g>
		<g class="st4">
			<path d="M364.5,34.5h-3.9v-0.8l3.6-5.6h1v5.7h1.3v0.6h-1.3v1.9h-0.8V34.5z M364.5,28.9L364.5,28.9l-3.2,4.9h3.2V28.9z"/>
			<path d="M370.3,28c0.6,0,1,0.1,1.4,0.4c0.4,0.3,0.6,0.6,0.8,1c0.2,0.4,0.3,0.9,0.4,1.4c0.1,0.5,0.1,1,0.1,1.6
				c0,0.5,0,1.1-0.1,1.6s-0.2,1-0.4,1.4c-0.2,0.4-0.5,0.7-0.8,1c-0.4,0.3-0.8,0.4-1.4,0.4c-0.6,0-1-0.1-1.4-0.4
				c-0.4-0.3-0.6-0.6-0.8-1c-0.2-0.4-0.3-0.9-0.4-1.4s-0.1-1-0.1-1.6c0-0.5,0-1,0.1-1.6c0.1-0.5,0.2-1,0.4-1.4
				c0.2-0.4,0.5-0.7,0.8-1C369.3,28.1,369.8,28,370.3,28z M370.3,28.7c-0.4,0-0.8,0.1-1,0.4c-0.3,0.3-0.4,0.6-0.6,1
				s-0.2,0.8-0.2,1.2s-0.1,0.8-0.1,1.1c0,0.3,0,0.7,0.1,1.1c0,0.4,0.1,0.8,0.2,1.2s0.3,0.7,0.6,1c0.3,0.3,0.6,0.4,1,0.4
				c0.4,0,0.8-0.1,1-0.4s0.4-0.6,0.6-1s0.2-0.8,0.2-1.2c0-0.4,0.1-0.8,0.1-1.1c0-0.3,0-0.7-0.1-1.1c0-0.4-0.1-0.8-0.2-1.2
				s-0.3-0.7-0.6-1S370.8,28.7,370.3,28.7z"/>
			<path d="M377,28c0.6,0,1,0.1,1.4,0.4c0.4,0.3,0.6,0.6,0.8,1c0.2,0.4,0.3,0.9,0.4,1.4c0.1,0.5,0.1,1,0.1,1.6c0,0.5,0,1.1-0.1,1.6
				s-0.2,1-0.4,1.4c-0.2,0.4-0.5,0.7-0.8,1c-0.4,0.3-0.8,0.4-1.4,0.4c-0.6,0-1-0.1-1.4-0.4c-0.4-0.3-0.6-0.6-0.8-1
				c-0.2-0.4-0.3-0.9-0.4-1.4s-0.1-1-0.1-1.6c0-0.5,0-1,0.1-1.6c0.1-0.5,0.2-1,0.4-1.4c0.2-0.4,0.5-0.7,0.8-1
				C376,28.1,376.4,28,377,28z M377,28.7c-0.4,0-0.8,0.1-1,0.4c-0.3,0.3-0.4,0.6-0.6,1s-0.2,0.8-0.2,1.2s-0.1,0.8-0.1,1.1
				c0,0.3,0,0.7,0.1,1.1c0,0.4,0.1,0.8,0.2,1.2s0.3,0.7,0.6,1c0.3,0.3,0.6,0.4,1,0.4c0.4,0,0.8-0.1,1-0.4s0.4-0.6,0.6-1
				s0.2-0.8,0.2-1.2c0-0.4,0.1-0.8,0.1-1.1c0-0.3,0-0.7-0.1-1.1c0-0.4-0.1-0.8-0.2-1.2s-0.3-0.7-0.6-1S377.5,28.7,377,28.7z"/>
			<path d="M383.7,28c0.6,0,1,0.1,1.4,0.4c0.4,0.3,0.6,0.6,0.8,1c0.2,0.4,0.3,0.9,0.4,1.4c0.1,0.5,0.1,1,0.1,1.6
				c0,0.5,0,1.1-0.1,1.6s-0.2,1-0.4,1.4c-0.2,0.4-0.5,0.7-0.8,1c-0.4,0.3-0.8,0.4-1.4,0.4c-0.6,0-1-0.1-1.4-0.4
				c-0.4-0.3-0.6-0.6-0.8-1c-0.2-0.4-0.3-0.9-0.4-1.4s-0.1-1-0.1-1.6c0-0.5,0-1,0.1-1.6c0.1-0.5,0.2-1,0.4-1.4
				c0.2-0.4,0.5-0.7,0.8-1C382.7,28.1,383.1,28,383.7,28z M383.7,28.7c-0.4,0-0.8,0.1-1,0.4s-0.4,0.6-0.6,1s-0.2,0.8-0.2,1.2
				c0,0.4-0.1,0.8-0.1,1.1c0,0.3,0,0.7,0.1,1.1c0,0.4,0.1,0.8,0.2,1.2s0.3,0.7,0.6,1s0.6,0.4,1,0.4c0.4,0,0.8-0.1,1-0.4
				s0.4-0.6,0.6-1s0.2-0.8,0.2-1.2c0-0.4,0.1-0.8,0.1-1.1c0-0.3,0-0.7-0.1-1.1s-0.1-0.8-0.2-1.2s-0.3-0.7-0.6-1
				S384.1,28.7,383.7,28.7z"/>
		</g>
		<g class="st4">
			<path d="M434.7,32.1c-0.2,0-0.5-0.1-0.7-0.2c-0.2-0.1-0.4-0.3-0.5-0.4s-0.3-0.4-0.4-0.6s-0.1-0.5-0.1-0.7c0-0.4,0.1-0.7,0.2-1
				s0.4-0.5,0.6-0.7c0.3-0.2,0.5-0.3,0.9-0.4c0.3-0.1,0.6-0.1,1-0.1s0.7,0,1,0.1c0.3,0.1,0.6,0.2,0.9,0.4c0.3,0.2,0.5,0.4,0.6,0.7
				c0.2,0.3,0.2,0.6,0.2,1c0,0.3,0,0.5-0.1,0.7s-0.2,0.4-0.4,0.6c-0.2,0.2-0.3,0.3-0.5,0.4s-0.4,0.2-0.7,0.3v0
				c0.6,0.1,1,0.4,1.3,0.7c0.3,0.3,0.5,0.8,0.5,1.3c0,0.4-0.1,0.8-0.2,1.1s-0.4,0.6-0.6,0.8c-0.3,0.2-0.6,0.3-0.9,0.4
				s-0.7,0.1-1,0.1c-0.4,0-0.7,0-1-0.1c-0.3-0.1-0.6-0.2-0.9-0.4c-0.3-0.2-0.5-0.5-0.6-0.8c-0.2-0.3-0.2-0.7-0.2-1.1
				c0-0.3,0-0.5,0.1-0.7c0.1-0.2,0.2-0.4,0.4-0.6s0.4-0.3,0.6-0.4C434.1,32.3,434.4,32.2,434.7,32.1L434.7,32.1z M433.7,34.2
				c0,0.3,0.1,0.6,0.2,0.8c0.1,0.2,0.3,0.4,0.4,0.5c0.2,0.1,0.4,0.2,0.6,0.3c0.2,0.1,0.5,0.1,0.7,0.1s0.5,0,0.7-0.1
				c0.2-0.1,0.5-0.2,0.6-0.3c0.2-0.1,0.3-0.3,0.4-0.5s0.2-0.5,0.2-0.8s-0.1-0.6-0.2-0.8c-0.1-0.2-0.3-0.4-0.4-0.5
				c-0.2-0.1-0.4-0.2-0.6-0.3c-0.2-0.1-0.5-0.1-0.7-0.1s-0.5,0-0.7,0.1c-0.2,0.1-0.5,0.2-0.6,0.3c-0.2,0.1-0.3,0.3-0.4,0.5
				C433.7,33.6,433.7,33.9,433.7,34.2z M433.7,30.2c0,0.5,0.2,0.9,0.5,1.2s0.8,0.4,1.4,0.4c0.6,0,1-0.1,1.4-0.4s0.5-0.6,0.5-1.2
				c0-0.3-0.1-0.5-0.2-0.7c-0.1-0.2-0.3-0.4-0.4-0.5c-0.2-0.1-0.4-0.2-0.6-0.3c-0.2-0.1-0.5-0.1-0.7-0.1c-0.2,0-0.5,0-0.7,0.1
				c-0.2,0.1-0.4,0.2-0.6,0.3c-0.2,0.1-0.3,0.3-0.4,0.5S433.7,29.9,433.7,30.2z"/>
			<path d="M442.3,28c0.6,0,1,0.1,1.4,0.4c0.4,0.3,0.6,0.6,0.8,1c0.2,0.4,0.3,0.9,0.4,1.4c0.1,0.5,0.1,1,0.1,1.6
				c0,0.5,0,1.1-0.1,1.6s-0.2,1-0.4,1.4c-0.2,0.4-0.5,0.7-0.8,1c-0.4,0.3-0.8,0.4-1.4,0.4c-0.6,0-1-0.1-1.4-0.4
				c-0.4-0.3-0.6-0.6-0.8-1c-0.2-0.4-0.3-0.9-0.4-1.4s-0.1-1-0.1-1.6c0-0.5,0-1,0.1-1.6c0.1-0.5,0.2-1,0.4-1.4
				c0.2-0.4,0.5-0.7,0.8-1C441.3,28.1,441.8,28,442.3,28z M442.3,28.7c-0.4,0-0.8,0.1-1,0.4s-0.4,0.6-0.6,1s-0.2,0.8-0.2,1.2
				c0,0.4-0.1,0.8-0.1,1.1c0,0.3,0,0.7,0.1,1.1c0,0.4,0.1,0.8,0.2,1.2s0.3,0.7,0.6,1s0.6,0.4,1,0.4c0.4,0,0.8-0.1,1-0.4
				s0.4-0.6,0.6-1s0.2-0.8,0.2-1.2c0-0.4,0.1-0.8,0.1-1.1c0-0.3,0-0.7-0.1-1.1s-0.1-0.8-0.2-1.2s-0.3-0.7-0.6-1
				S442.8,28.7,442.3,28.7z"/>
			<path d="M449,28c0.6,0,1,0.1,1.4,0.4c0.4,0.3,0.6,0.6,0.8,1c0.2,0.4,0.3,0.9,0.4,1.4c0.1,0.5,0.1,1,0.1,1.6c0,0.5,0,1.1-0.1,1.6
				s-0.2,1-0.4,1.4c-0.2,0.4-0.5,0.7-0.8,1c-0.4,0.3-0.8,0.4-1.4,0.4c-0.6,0-1-0.1-1.4-0.4c-0.4-0.3-0.6-0.6-0.8-1
				c-0.2-0.4-0.3-0.9-0.4-1.4s-0.1-1-0.1-1.6c0-0.5,0-1,0.1-1.6c0.1-0.5,0.2-1,0.4-1.4c0.2-0.4,0.5-0.7,0.8-1
				C448,28.1,448.4,28,449,28z M449,28.7c-0.4,0-0.8,0.1-1,0.4s-0.4,0.6-0.6,1s-0.2,0.8-0.2,1.2c0,0.4-0.1,0.8-0.1,1.1
				c0,0.3,0,0.7,0.1,1.1c0,0.4,0.1,0.8,0.2,1.2s0.3,0.7,0.6,1s0.6,0.4,1,0.4c0.4,0,0.8-0.1,1-0.4s0.4-0.6,0.6-1s0.2-0.8,0.2-1.2
				c0-0.4,0.1-0.8,0.1-1.1c0-0.3,0-0.7-0.1-1.1s-0.1-0.8-0.2-1.2s-0.3-0.7-0.6-1S449.5,28.7,449,28.7z"/>
			<path d="M455.7,28c0.6,0,1,0.1,1.4,0.4c0.4,0.3,0.6,0.6,0.8,1c0.2,0.4,0.3,0.9,0.4,1.4c0.1,0.5,0.1,1,0.1,1.6
				c0,0.5,0,1.1-0.1,1.6s-0.2,1-0.4,1.4c-0.2,0.4-0.5,0.7-0.8,1c-0.4,0.3-0.8,0.4-1.4,0.4c-0.6,0-1-0.1-1.4-0.4
				c-0.4-0.3-0.6-0.6-0.8-1c-0.2-0.4-0.3-0.9-0.4-1.4s-0.1-1-0.1-1.6c0-0.5,0-1,0.1-1.6c0.1-0.5,0.2-1,0.4-1.4
				c0.2-0.4,0.5-0.7,0.8-1C454.7,28.1,455.1,28,455.7,28z M455.7,28.7c-0.4,0-0.8,0.1-1,0.4c-0.3,0.3-0.4,0.6-0.6,1
				s-0.2,0.8-0.2,1.2s-0.1,0.8-0.1,1.1c0,0.3,0,0.7,0.1,1.1c0,0.4,0.1,0.8,0.2,1.2s0.3,0.7,0.6,1c0.3,0.3,0.6,0.4,1,0.4
				c0.4,0,0.8-0.1,1-0.4s0.4-0.6,0.6-1s0.2-0.8,0.2-1.2c0-0.4,0.1-0.8,0.1-1.1c0-0.3,0-0.7-0.1-1.1c0-0.4-0.1-0.8-0.2-1.2
				s-0.3-0.7-0.6-1S456.1,28.7,455.7,28.7z"/>
		</g>
		<g class="st4">
			<path d="M391.3,12.9V2.1h6.1V3h-5.1v3.8h5v0.9h-5v5.2H391.3z"/>
			<path d="M399.4,12.9h-0.9V7.1c0-0.3,0-0.6,0-0.9s0-0.6-0.1-0.8h0.9l0,1.1h0c0.1-0.4,0.4-0.7,0.7-1c0.4-0.3,0.8-0.4,1.3-0.4
				c0.2,0,0.3,0,0.4,0s0.2,0,0.2,0v0.8c-0.1,0-0.2,0-0.3,0s-0.2,0-0.3,0c-0.7,0-1.2,0.2-1.5,0.7c-0.3,0.4-0.5,1-0.5,1.7V12.9z"/>
			<path d="M404.1,9.4c0,0.4,0.1,0.8,0.2,1.1c0.1,0.4,0.3,0.7,0.5,0.9c0.2,0.3,0.5,0.5,0.8,0.6c0.3,0.2,0.7,0.2,1.2,0.2
				c0.3,0,0.5,0,0.8-0.1c0.2-0.1,0.5-0.2,0.6-0.4c0.2-0.2,0.4-0.3,0.5-0.6c0.1-0.2,0.2-0.5,0.3-0.7h0.9c-0.2,0.9-0.6,1.6-1.2,2
				c-0.6,0.4-1.3,0.6-2.2,0.6c-0.6,0-1-0.1-1.5-0.3c-0.4-0.2-0.8-0.5-1-0.9c-0.3-0.4-0.5-0.8-0.6-1.3c-0.1-0.5-0.2-1-0.2-1.5
				c0-0.5,0.1-1,0.2-1.5c0.1-0.5,0.4-0.9,0.6-1.3c0.3-0.4,0.6-0.7,1.1-0.9c0.4-0.2,0.9-0.3,1.5-0.3c0.6,0,1.2,0.1,1.6,0.3
				c0.4,0.2,0.8,0.5,1.1,0.9c0.3,0.4,0.5,0.8,0.6,1.3s0.2,1.1,0.2,1.7H404.1z M408.9,8.6c0-0.4-0.1-0.7-0.2-1
				c-0.1-0.3-0.3-0.6-0.5-0.8c-0.2-0.2-0.4-0.4-0.7-0.5c-0.3-0.1-0.6-0.2-1-0.2c-0.4,0-0.7,0.1-1,0.2c-0.3,0.1-0.5,0.3-0.7,0.6
				c-0.2,0.2-0.3,0.5-0.5,0.8c-0.1,0.3-0.2,0.6-0.2,1H408.9z"/>
			<path d="M417.1,5.4h0.9c0,0.3,0,0.5-0.1,0.8c0,0.3,0,0.6,0,0.9v8.7h-0.9v-4h0c-0.3,0.5-0.7,0.8-1.1,1c-0.4,0.2-0.9,0.4-1.5,0.4
				s-1-0.1-1.4-0.4s-0.7-0.6-0.9-0.9c-0.2-0.4-0.4-0.8-0.5-1.3c-0.1-0.5-0.2-1-0.2-1.4c0-0.5,0.1-1,0.2-1.4c0.1-0.5,0.3-0.9,0.5-1.3
				s0.6-0.7,1-0.9c0.4-0.2,0.9-0.3,1.4-0.3c0.5,0,1,0.1,1.5,0.3c0.5,0.2,0.8,0.6,1.1,1v0h0v0L417.1,5.4z M417.1,9
				c0-0.4,0-0.8-0.1-1.1c-0.1-0.4-0.2-0.7-0.4-1c-0.2-0.3-0.4-0.5-0.8-0.7S415.1,6,414.6,6c-0.4,0-0.8,0.1-1.1,0.3S413,6.7,412.9,7
				s-0.3,0.6-0.4,1c-0.1,0.4-0.1,0.7-0.1,1.1c0,0.4,0,0.7,0.1,1.1c0.1,0.4,0.2,0.7,0.3,1.1s0.4,0.6,0.7,0.8c0.3,0.2,0.6,0.3,1.1,0.3
				c0.5,0,0.9-0.1,1.2-0.3c0.3-0.2,0.6-0.4,0.8-0.8c0.2-0.3,0.3-0.7,0.4-1.1C417,9.8,417.1,9.4,417.1,9z"/>
			<path d="M425.3,5.4h0.9v5.8c0,0.3,0,0.6,0,0.9c0,0.3,0,0.6,0.1,0.8h-0.9l0-1.1l0,0c-0.3,0.5-0.6,0.8-1,1
				c-0.4,0.2-0.9,0.3-1.4,0.3c-0.4,0-0.8-0.1-1-0.2c-0.3-0.1-0.5-0.3-0.7-0.4s-0.4-0.4-0.5-0.6c-0.1-0.2-0.2-0.5-0.3-0.7
				c-0.1-0.2-0.1-0.4-0.1-0.6c0-0.2,0-0.4,0-0.5V5.4h0.9v4.9c0,0.7,0.2,1.2,0.5,1.5c0.3,0.4,0.8,0.5,1.5,0.5c0.4,0,0.7-0.1,1-0.2
				c0.3-0.1,0.5-0.3,0.7-0.6c0.2-0.2,0.3-0.5,0.4-0.8c0.1-0.3,0.1-0.6,0.1-1V5.4z"/>
			<path d="M429.1,9.4c0,0.4,0.1,0.8,0.2,1.1s0.3,0.7,0.5,0.9c0.2,0.3,0.5,0.5,0.8,0.6c0.3,0.2,0.7,0.2,1.2,0.2c0.3,0,0.5,0,0.8-0.1
				c0.2-0.1,0.5-0.2,0.6-0.4c0.2-0.2,0.4-0.3,0.5-0.6s0.2-0.5,0.3-0.7h0.9c-0.2,0.9-0.6,1.6-1.2,2c-0.6,0.4-1.3,0.6-2.2,0.6
				c-0.6,0-1-0.1-1.5-0.3c-0.4-0.2-0.8-0.5-1-0.9c-0.3-0.4-0.5-0.8-0.6-1.3c-0.1-0.5-0.2-1-0.2-1.5c0-0.5,0.1-1,0.2-1.5
				c0.1-0.5,0.3-0.9,0.6-1.3c0.3-0.4,0.6-0.7,1-0.9c0.4-0.2,0.9-0.3,1.5-0.3c0.6,0,1.2,0.1,1.6,0.3c0.4,0.2,0.8,0.5,1.1,0.9
				c0.3,0.4,0.5,0.8,0.6,1.3c0.1,0.5,0.2,1.1,0.2,1.7H429.1z M433.9,8.6c0-0.4-0.1-0.7-0.2-1c-0.1-0.3-0.3-0.6-0.5-0.8
				c-0.2-0.2-0.4-0.4-0.7-0.5c-0.3-0.1-0.6-0.2-1-0.2c-0.4,0-0.7,0.1-1,0.2c-0.3,0.1-0.5,0.3-0.7,0.6c-0.2,0.2-0.4,0.5-0.5,0.8
				c-0.1,0.3-0.2,0.6-0.2,1H433.9z"/>
			<path d="M437.8,12.9h-0.9V7.1c0-0.3,0-0.6,0-0.9s0-0.6-0.1-0.8h0.9l0,1.1l0,0c0.3-0.5,0.6-0.8,1-1s0.9-0.3,1.4-0.3
				c0.4,0,0.8,0.1,1,0.2s0.5,0.3,0.7,0.4s0.4,0.4,0.5,0.6s0.2,0.5,0.3,0.7c0.1,0.2,0.1,0.4,0.1,0.7c0,0.2,0,0.4,0,0.5v4.7h-0.9V8.1
				c0-0.7-0.2-1.2-0.5-1.5C441.1,6.2,440.6,6,440,6c-0.4,0-0.7,0.1-1,0.2c-0.3,0.1-0.5,0.3-0.7,0.6c-0.2,0.2-0.3,0.5-0.4,0.8
				c-0.1,0.3-0.1,0.6-0.1,1V12.9z"/>
			<path d="M444.6,12.1l4.4-5.9h-4.4V5.4h5.5v0.8l-4.4,5.9h4.4v0.8h-5.5V12.1z"/>
			<path d="M457.6,14.4c-0.2-0.5-0.4-1-0.6-1.5c-0.2-0.5-0.4-1-0.5-1.5c-0.2-0.5-0.3-1-0.4-1.5c-0.1-0.5-0.2-1-0.2-1.6
				c0-0.5,0-1.1,0.1-1.6c0.1-0.5,0.2-1,0.4-1.6c0.2-0.5,0.3-1,0.5-1.5c0.2-0.5,0.4-1,0.6-1.5h0.8c-0.4,1-0.7,2.1-1,3.1
				c-0.2,1-0.4,2.1-0.4,3c0,0.5,0,1,0.1,1.6c0.1,0.5,0.2,1.1,0.3,1.6s0.3,1,0.4,1.5s0.3,1,0.5,1.4H457.6z"/>
			<path d="M460.5,12.9V2.1h1v4.8h5.9V2.1h1v10.8h-1V7.8h-5.9v5.2H460.5z"/>
			<path d="M470.5,12.1l4.4-5.9h-4.4V5.4h5.5v0.8l-4.4,5.9h4.4v0.8h-5.5V12.1z"/>
			<path d="M477.2,14.4c0.2-0.4,0.3-0.9,0.5-1.4s0.3-1,0.4-1.5s0.2-1.1,0.3-1.6c0.1-0.5,0.1-1.1,0.1-1.6c0-1-0.1-2-0.4-3
				c-0.2-1.1-0.6-2.1-1-3.1h0.8c0.2,0.5,0.4,1,0.6,1.5c0.2,0.5,0.4,1,0.5,1.5c0.2,0.5,0.3,1,0.4,1.6c0.1,0.5,0.1,1,0.1,1.6
				c0,0.5,0,1.1-0.2,1.6c-0.1,0.5-0.2,1-0.4,1.5c-0.2,0.5-0.3,1-0.5,1.5c-0.2,0.5-0.4,1-0.6,1.5H477.2z"/>
		</g>
		<g class="st4">
			<path d="M12.9,465.7H2.1v-1h4.8v-5.9H2.1v-1h10.8v1H7.8v5.9h5.2V465.7z"/>
			<path d="M3.3,451.4H2.2v-1h1.2V451.4z M3.3,453.9H2.2v-1h1.2V453.9z M5.2,452.2c0-0.6,0.1-1.1,0.3-1.6c0.2-0.4,0.5-0.8,0.9-1.1
				c0.4-0.3,0.8-0.5,1.3-0.6c0.5-0.1,1-0.2,1.5-0.2c0.5,0,1,0.1,1.5,0.2c0.5,0.1,0.9,0.4,1.3,0.6c0.4,0.3,0.7,0.7,0.9,1.1
				c0.2,0.4,0.3,1,0.3,1.6c0,0.6-0.1,1.1-0.3,1.6c-0.2,0.4-0.5,0.8-0.9,1.1c-0.4,0.3-0.8,0.5-1.3,0.6c-0.5,0.1-1,0.2-1.5,0.2
				c-0.5,0-1-0.1-1.5-0.2c-0.5-0.1-0.9-0.4-1.3-0.6c-0.4-0.3-0.7-0.7-0.9-1.1C5.3,453.3,5.2,452.8,5.2,452.2z M9.2,449.6
				c-0.4,0-0.7,0-1.1,0.1c-0.4,0.1-0.7,0.2-1,0.4c-0.3,0.2-0.6,0.5-0.8,0.8S6,451.7,6,452.2c0,0.4,0.1,0.8,0.3,1.2
				c0.2,0.3,0.5,0.6,0.8,0.8c0.3,0.2,0.6,0.3,1,0.4c0.4,0.1,0.7,0.1,1.1,0.1c0.3,0,0.7,0,1.1-0.1c0.4-0.1,0.7-0.2,1-0.4
				c0.3-0.2,0.6-0.5,0.8-0.8c0.2-0.3,0.3-0.7,0.3-1.2c0-0.5-0.1-0.8-0.3-1.2c-0.2-0.3-0.5-0.6-0.8-0.8c-0.3-0.2-0.6-0.3-1-0.4
				C9.9,449.7,9.5,449.6,9.2,449.6z"/>
			<path d="M12.9,445.9v0.9H7.1c-0.3,0-0.6,0-0.9,0c-0.3,0-0.6,0-0.8,0.1V446l1.1,0v0c-0.4-0.1-0.7-0.4-1-0.7
				c-0.3-0.4-0.4-0.8-0.4-1.3c0-0.2,0-0.3,0-0.4c0-0.1,0-0.2,0-0.2h0.8c0,0.1,0,0.2,0,0.3s0,0.2,0,0.3c0,0.7,0.2,1.2,0.7,1.5
				c0.4,0.3,1,0.5,1.7,0.5H12.9z"/>
			<path d="M12.9,440.9v0.9H7.1c-0.3,0-0.6,0-0.9,0c-0.3,0-0.6,0-0.8,0.1V441l1.1,0l0,0c-0.5-0.3-0.8-0.6-1-1s-0.3-0.9-0.3-1.3
				c0-0.4,0.1-0.8,0.2-1.1c0.1-0.3,0.3-0.5,0.4-0.7s0.4-0.4,0.6-0.5c0.2-0.1,0.5-0.2,0.7-0.3c0.2-0.1,0.4-0.1,0.7-0.1
				c0.2,0,0.4,0,0.5,0h4.7v0.9H8.1c-0.7,0-1.2,0.2-1.5,0.5c-0.4,0.4-0.5,0.8-0.5,1.5c0,0.4,0.1,0.7,0.2,1c0.1,0.3,0.3,0.5,0.6,0.7
				c0.2,0.2,0.5,0.3,0.8,0.4c0.3,0.1,0.6,0.1,1,0.1H12.9z"/>
			<path d="M3.2,432.5v1H2.1v-1H3.2z M5.4,432.6h7.5v0.9H5.4V432.6z"/>
			<path d="M5.4,430.1l6.3-2.5L5.4,425v-1l7.5,3.1v0.9l-7.5,3.1V430.1z"/>
			<path d="M9.4,422.4c0.4,0,0.8-0.1,1.1-0.2s0.7-0.3,0.9-0.5c0.3-0.2,0.5-0.5,0.6-0.8c0.2-0.3,0.2-0.7,0.2-1.2c0-0.3,0-0.5-0.1-0.8
				c-0.1-0.2-0.2-0.5-0.4-0.6c-0.2-0.2-0.3-0.4-0.6-0.5s-0.5-0.2-0.7-0.3v-0.9c0.9,0.2,1.6,0.6,2,1.2c0.4,0.6,0.6,1.3,0.6,2.2
				c0,0.6-0.1,1-0.3,1.5c-0.2,0.4-0.5,0.8-0.9,1s-0.8,0.5-1.3,0.6c-0.5,0.1-1,0.2-1.5,0.2c-0.5,0-1-0.1-1.5-0.2
				c-0.5-0.1-0.9-0.3-1.3-0.6c-0.4-0.3-0.7-0.6-0.9-1.1c-0.2-0.4-0.3-0.9-0.3-1.5c0-0.6,0.1-1.2,0.3-1.6s0.5-0.8,0.9-1.1
				c0.4-0.3,0.8-0.5,1.3-0.6c0.5-0.1,1.1-0.2,1.7-0.2V422.4z M8.6,417.6c-0.4,0-0.7,0.1-1,0.2c-0.3,0.1-0.6,0.3-0.8,0.5
				c-0.2,0.2-0.4,0.4-0.5,0.7c-0.1,0.3-0.2,0.6-0.2,1c0,0.4,0.1,0.7,0.2,1c0.1,0.3,0.3,0.5,0.6,0.7c0.2,0.2,0.5,0.3,0.8,0.5
				c0.3,0.1,0.6,0.2,1,0.2V417.6z"/>
			<path d="M7.6,410.3c-0.3,0-0.6,0-0.8,0.1s-0.4,0.2-0.5,0.4s-0.2,0.3-0.3,0.6C6,411.6,6,411.9,6,412.1c0,0.2,0,0.5,0.1,0.7
				c0,0.2,0.1,0.4,0.2,0.6c0.1,0.2,0.2,0.3,0.4,0.4s0.4,0.2,0.6,0.2v1c-0.4-0.1-0.7-0.2-1-0.3c-0.3-0.2-0.5-0.4-0.7-0.6
				c-0.2-0.2-0.3-0.5-0.4-0.8s-0.1-0.7-0.1-1c0-0.8,0.2-1.5,0.6-2c0.4-0.5,1-0.7,1.9-0.7h3.6c0.3,0,0.6,0,0.9,0c0.3,0,0.6,0,0.8-0.1
				v0.9l-1.1,0v0l0.1,0c0.3,0.2,0.6,0.4,0.9,0.8c0.2,0.4,0.4,0.9,0.4,1.5c0,0.3-0.1,0.7-0.2,1c-0.1,0.3-0.3,0.6-0.5,0.8
				c-0.2,0.2-0.4,0.4-0.7,0.5s-0.6,0.2-1,0.2c-0.5,0-0.9-0.1-1.3-0.4c-0.4-0.3-0.6-0.6-0.8-1.1c-0.1-0.2-0.2-0.5-0.2-0.8
				c-0.1-0.3-0.1-0.6-0.1-0.9c0-0.3,0-0.6,0-0.9s0-0.6,0-0.8H7.6z M10.8,414.3c0.5,0,0.9-0.2,1.1-0.5c0.2-0.3,0.4-0.7,0.4-1.2
				c0-0.4-0.1-0.8-0.2-1.1c-0.1-0.3-0.3-0.5-0.6-0.7s-0.5-0.3-0.9-0.4c-0.3-0.1-0.7-0.1-1-0.1c-0.1,0-0.2,0-0.3,0s-0.2,0-0.3,0
				c0,0.2,0,0.3,0,0.5c0,0.2,0,0.4,0,0.6c0,0.3,0,0.7,0.1,1c0.1,0.3,0.1,0.7,0.3,0.9s0.3,0.5,0.5,0.7
				C10.2,414.2,10.5,414.3,10.8,414.3z"/>
			<path d="M5.4,402.1v-0.9h5.8c0.3,0,0.6,0,0.9,0s0.6,0,0.8-0.1v0.9l-1.1,0l0,0c0.5,0.3,0.8,0.6,1,1c0.2,0.4,0.3,0.9,0.3,1.3
				c0,0.4-0.1,0.8-0.2,1c-0.1,0.3-0.3,0.5-0.4,0.7s-0.4,0.4-0.6,0.5c-0.2,0.1-0.5,0.2-0.7,0.3c-0.2,0.1-0.4,0.1-0.6,0.1
				c-0.2,0-0.4,0-0.5,0H5.4v-0.9h4.9c0.7,0,1.2-0.2,1.5-0.5c0.4-0.4,0.5-0.8,0.5-1.5c0-0.4-0.1-0.7-0.2-1c-0.1-0.3-0.3-0.5-0.6-0.7
				c-0.2-0.2-0.5-0.3-0.8-0.4c-0.3-0.1-0.6-0.1-1-0.1H5.4z"/>
			<path d="M14.4,393.1c-0.5,0.2-1,0.4-1.5,0.6c-0.5,0.2-1,0.4-1.5,0.5c-0.5,0.2-1,0.3-1.5,0.4c-0.5,0.1-1,0.2-1.6,0.2
				c-0.5,0-1.1,0-1.6-0.1c-0.5-0.1-1-0.2-1.6-0.4c-0.5-0.2-1-0.3-1.5-0.5s-1-0.4-1.5-0.6v-0.8c1,0.4,2.1,0.7,3.1,1
				c1,0.2,2.1,0.4,3,0.4c0.5,0,1,0,1.6-0.1s1.1-0.2,1.6-0.3c0.5-0.1,1-0.3,1.5-0.4s1-0.3,1.4-0.5V393.1z"/>
			<path d="M11.8,385.2L11.8,385.2c0.4,0.3,0.7,0.7,1,1.2c0.2,0.4,0.4,0.9,0.4,1.5c0,0.6-0.1,1-0.4,1.4c-0.2,0.4-0.6,0.7-0.9,1
				s-0.8,0.4-1.3,0.5c-0.5,0.1-1,0.2-1.4,0.2c-0.5,0-1-0.1-1.4-0.2c-0.5-0.1-0.9-0.3-1.3-0.5s-0.7-0.6-0.9-1
				c-0.2-0.4-0.3-0.9-0.3-1.4c0-0.5,0.1-1,0.4-1.5s0.6-0.8,1-1.1l0,0H2.1v-0.9h9.1c0.3,0,0.6,0,0.9,0s0.6,0,0.8-0.1v0.9L11.8,385.2z
				 M9,385.3c-0.4,0-0.8,0-1.1,0.1c-0.4,0.1-0.7,0.2-1,0.4c-0.3,0.2-0.5,0.4-0.7,0.8c-0.2,0.3-0.3,0.7-0.3,1.1
				c0,0.4,0.1,0.8,0.3,1.1c0.2,0.3,0.4,0.5,0.7,0.7s0.6,0.3,1,0.4c0.4,0.1,0.7,0.1,1.1,0.1c0.4,0,0.7,0,1.1-0.1
				c0.4-0.1,0.7-0.2,1.1-0.3s0.6-0.4,0.8-0.7c0.2-0.3,0.3-0.6,0.3-1.1c0-0.5-0.1-0.9-0.3-1.2c-0.2-0.3-0.4-0.6-0.8-0.8
				c-0.3-0.2-0.7-0.3-1.1-0.4C9.8,385.3,9.4,385.3,9,385.3z"/>
			<path d="M12.9,381.8H2.1l0-3.9c0-0.4,0.1-0.8,0.2-1.1s0.3-0.7,0.5-1c0.2-0.3,0.5-0.5,0.8-0.7s0.7-0.2,1.1-0.2
				c0.3,0,0.6,0.1,0.8,0.2c0.3,0.1,0.5,0.2,0.7,0.4c0.2,0.2,0.4,0.4,0.5,0.6s0.3,0.5,0.3,0.8h0c0.1-0.7,0.4-1.3,0.9-1.8
				c0.5-0.5,1.1-0.7,1.9-0.7c0.4,0,0.7,0.1,1.1,0.2c0.3,0.1,0.7,0.3,0.9,0.6c0.3,0.3,0.5,0.6,0.7,1s0.3,0.9,0.3,1.5V381.8z
				 M6.9,378.5c0-0.3,0-0.6-0.1-0.9c-0.1-0.3-0.2-0.6-0.3-0.8s-0.4-0.4-0.6-0.6c-0.2-0.1-0.6-0.2-0.9-0.2c-0.4,0-0.7,0.1-1,0.2
				c-0.2,0.1-0.4,0.3-0.6,0.6s-0.2,0.5-0.3,0.8C3,377.9,3,378.2,3,378.5v2.3h3.9V378.5z M12,380.8v-2.4c0-0.5,0-0.9-0.1-1.2
				c-0.1-0.4-0.2-0.7-0.3-0.9s-0.4-0.4-0.7-0.6c-0.3-0.1-0.6-0.2-1-0.2c-0.5,0-0.8,0.1-1.1,0.3c-0.3,0.2-0.5,0.4-0.6,0.7
				c-0.1,0.3-0.2,0.7-0.3,1.1s-0.1,0.9-0.1,1.4v1.8H12z"/>
			<path d="M14.4,372.6c-0.4-0.2-0.9-0.3-1.4-0.5c-0.5-0.2-1-0.3-1.5-0.4s-1.1-0.2-1.6-0.3c-0.5-0.1-1.1-0.1-1.6-0.1
				c-1,0-2,0.1-3,0.4c-1.1,0.2-2.1,0.6-3.1,1v-0.8c0.5-0.2,1-0.4,1.5-0.6c0.5-0.2,1-0.4,1.5-0.5c0.5-0.2,1-0.3,1.6-0.4
				c0.5-0.1,1-0.1,1.6-0.1c0.5,0,1.1,0,1.6,0.1c0.5,0.1,1,0.2,1.5,0.4c0.5,0.2,1,0.3,1.5,0.5c0.5,0.2,1,0.4,1.5,0.6V372.6z"/>
			<path d="M12.9,362.4v1H2.1v-3.5c0-0.5,0-0.9,0.1-1.3s0.2-0.8,0.5-1.2c0.2-0.4,0.5-0.7,0.9-0.8s0.8-0.3,1.3-0.3
				c0.6,0,1.1,0.2,1.5,0.6c0.4,0.4,0.7,0.9,0.8,1.5h0c0.1-0.3,0.2-0.6,0.3-0.8c0.1-0.2,0.3-0.4,0.5-0.5c0.2-0.1,0.5-0.2,0.7-0.3
				c0.3-0.1,0.6-0.1,0.9-0.1c0.4-0.1,0.8-0.1,1.2-0.1c0.3,0,0.6-0.1,0.9-0.1c0.2,0,0.5-0.1,0.7-0.1c0.2-0.1,0.4-0.1,0.5-0.2v1.1
				c-0.4,0.1-0.7,0.2-1.1,0.3c-0.4,0-0.8,0.1-1.1,0.1c-0.6,0.1-1.1,0.1-1.5,0.2s-0.7,0.2-0.9,0.3c-0.2,0.2-0.4,0.4-0.4,0.7
				c-0.1,0.3-0.1,0.7-0.1,1.2v2.7H12.9z M6.9,360.3c0-0.3,0-0.7,0-1.1c0-0.4-0.1-0.7-0.2-1c-0.1-0.3-0.3-0.5-0.6-0.7
				s-0.6-0.3-1.1-0.3c-0.5,0-0.9,0.1-1.2,0.3c-0.3,0.2-0.5,0.5-0.6,0.8c-0.1,0.3-0.2,0.6-0.2,1c0,0.3,0,0.6,0,0.9v2.2h3.9V360.3z"/>
			<path d="M9.4,353.5c0.4,0,0.8-0.1,1.1-0.2c0.4-0.1,0.7-0.3,0.9-0.5c0.3-0.2,0.5-0.5,0.6-0.8c0.2-0.3,0.2-0.7,0.2-1.2
				c0-0.3,0-0.5-0.1-0.8c-0.1-0.2-0.2-0.5-0.4-0.6c-0.2-0.2-0.3-0.4-0.6-0.5c-0.2-0.1-0.5-0.2-0.7-0.3v-0.9c0.9,0.2,1.6,0.6,2,1.2
				c0.4,0.6,0.6,1.3,0.6,2.2c0,0.6-0.1,1-0.3,1.5c-0.2,0.4-0.5,0.8-0.9,1c-0.4,0.3-0.8,0.5-1.3,0.6c-0.5,0.1-1,0.2-1.5,0.2
				c-0.5,0-1-0.1-1.5-0.2s-0.9-0.4-1.3-0.6c-0.4-0.3-0.7-0.6-0.9-1.1c-0.2-0.4-0.3-0.9-0.3-1.5c0-0.6,0.1-1.2,0.3-1.6
				c0.2-0.4,0.5-0.8,0.9-1.1s0.8-0.5,1.3-0.6c0.5-0.1,1.1-0.2,1.7-0.2V353.5z M8.6,348.7c-0.4,0-0.7,0.1-1,0.2
				c-0.3,0.1-0.6,0.3-0.8,0.5c-0.2,0.2-0.4,0.4-0.5,0.7c-0.1,0.3-0.2,0.6-0.2,1c0,0.4,0.1,0.7,0.2,1c0.1,0.3,0.3,0.5,0.6,0.7
				c0.2,0.2,0.5,0.3,0.8,0.5c0.3,0.1,0.6,0.2,1,0.2V348.7z"/>
			<path d="M12.9,345.1H6.2v1.5H5.4v-1.5H3.8c-0.7,0-1.1-0.2-1.4-0.5c-0.3-0.3-0.5-0.8-0.5-1.5c0-0.1,0-0.2,0-0.3
				c0-0.1,0-0.2,0.1-0.4h0.8c0,0.2,0,0.4,0,0.6c0,0.3,0,0.6,0.1,0.7S3,344,3.2,344c0.1,0.1,0.3,0.1,0.5,0.1c0.2,0,0.5,0,0.7,0h1
				v-1.7h0.8v1.7h6.7V345.1z"/>
			<path d="M12.9,341.2h-1.3V340h1.3V341.2z"/>
			<path d="M5.4,335.9h1.3v1.2H5.4V335.9z M11.6,335.9h1.3v1.2h-1.3V335.9z"/>
			<path d="M12.9,330.5l-10.8-4.3V325l10.8-4.3v1.1l-2.9,1.2v5.4l2.9,1.1V330.5z M9.1,323.3L3,325.6l6.1,2.4V323.3z"/>
			<path d="M2.1,319.2v-1.1l9.5-6v0H2.1v-1h10.8v1.2l-9.4,5.8v0h9.4v1H2.1z"/>
			<path d="M10,301.5c0.5,0,1,0.1,1.4,0.3s0.7,0.5,1,0.8c0.3,0.4,0.4,0.8,0.6,1.2c0.1,0.5,0.2,1,0.2,1.5c0,0.5-0.1,0.9-0.2,1.4
				c-0.1,0.4-0.3,0.8-0.5,1.1s-0.6,0.6-1,0.8c-0.4,0.2-0.8,0.3-1.4,0.3v-1.1c0.4,0,0.8-0.1,1-0.2c0.3-0.1,0.5-0.3,0.7-0.6
				s0.3-0.5,0.3-0.9c0.1-0.3,0.1-0.7,0.1-1c0-0.3,0-0.6-0.1-0.9c-0.1-0.3-0.2-0.6-0.4-0.8c-0.2-0.2-0.4-0.5-0.7-0.6
				c-0.3-0.2-0.6-0.2-1-0.2c-0.3,0-0.6,0.1-0.8,0.2s-0.4,0.3-0.6,0.5c-0.2,0.2-0.3,0.5-0.4,0.9c-0.1,0.3-0.3,0.7-0.4,1.1
				c-0.2,0.5-0.3,1-0.5,1.4s-0.4,0.8-0.6,1.1c-0.2,0.3-0.5,0.5-0.8,0.7c-0.3,0.2-0.7,0.2-1.2,0.2c-0.5,0-0.9-0.1-1.3-0.3
				c-0.4-0.2-0.7-0.5-0.9-0.8c-0.2-0.3-0.4-0.7-0.6-1.1c-0.1-0.4-0.2-0.8-0.2-1.3c0-0.4,0-0.8,0.1-1.2c0.1-0.4,0.2-0.8,0.4-1.1
				c0.2-0.3,0.5-0.6,0.8-0.8c0.3-0.2,0.8-0.3,1.3-0.4v1.1c-0.3,0-0.6,0.1-0.8,0.2c-0.2,0.1-0.4,0.3-0.5,0.5s-0.2,0.5-0.3,0.8
				c0,0.3-0.1,0.6-0.1,0.8s0,0.6,0.1,0.9c0.1,0.3,0.2,0.6,0.3,0.8s0.3,0.4,0.6,0.6s0.5,0.2,0.9,0.2c0.4,0,0.7-0.1,0.9-0.2
				c0.2-0.1,0.4-0.3,0.6-0.6c0.2-0.2,0.3-0.5,0.4-0.9c0.1-0.3,0.2-0.7,0.3-1c0.1-0.4,0.3-0.8,0.4-1.2c0.1-0.4,0.3-0.8,0.6-1.1
				c0.2-0.3,0.5-0.6,0.8-0.8S9.5,301.5,10,301.5z"/>
			<path d="M12.9,299H2.1v-1h10.8V299z"/>
			<path d="M8.5,296.2v-3.8h0.9v3.8H8.5z"/>
			<path d="M12.9,291.5h-1c-0.9-1-1.7-1.9-2.5-2.7s-1.5-1.5-2.3-1.9c-0.7-0.5-1.4-0.7-2.1-0.7c-0.3,0-0.6,0.1-0.9,0.2
				c-0.2,0.1-0.4,0.3-0.6,0.5c-0.1,0.2-0.2,0.4-0.3,0.7c-0.1,0.3-0.1,0.5-0.1,0.8c0,0.3,0,0.6,0.2,0.9c0.1,0.3,0.2,0.5,0.4,0.7
				c0.2,0.2,0.4,0.3,0.7,0.4c0.3,0.1,0.5,0.2,0.8,0.2v1c-0.5,0-0.9-0.1-1.2-0.2c-0.4-0.2-0.7-0.4-0.9-0.7c-0.3-0.3-0.5-0.6-0.6-1
				c-0.1-0.4-0.2-0.8-0.2-1.3c0-0.4,0.1-0.8,0.2-1.2c0.1-0.4,0.3-0.7,0.5-1c0.2-0.3,0.5-0.5,0.8-0.7c0.3-0.2,0.7-0.2,1.2-0.2
				c0.4,0,0.9,0.1,1.3,0.2c0.4,0.2,0.9,0.4,1.3,0.7c0.4,0.3,0.8,0.6,1.1,0.9s0.8,0.7,1.1,1.1s0.7,0.8,1.1,1.2s0.7,0.8,1.1,1.2V285
				h0.9V291.5z"/>
			<path d="M2.3,279.7c0-0.7,0.2-1.3,0.5-1.7c0.3-0.4,0.7-0.8,1.2-1.1c0.5-0.3,1.1-0.4,1.7-0.5c0.6-0.1,1.3-0.1,2-0.1
				c0.7,0,1.3,0,2,0.1c0.6,0.1,1.2,0.3,1.7,0.5c0.5,0.3,0.9,0.6,1.2,1.1c0.3,0.4,0.5,1,0.5,1.7c0,0.7-0.2,1.3-0.5,1.7
				c-0.3,0.4-0.7,0.8-1.2,1c-0.5,0.3-1.1,0.4-1.7,0.5c-0.6,0.1-1.3,0.1-2,0.1c-0.7,0-1.3,0-2-0.1c-0.6-0.1-1.2-0.3-1.7-0.5
				c-0.5-0.3-0.9-0.6-1.2-1C2.5,281,2.3,280.5,2.3,279.7z M3.2,279.7c0,0.5,0.2,1,0.5,1.3c0.3,0.3,0.7,0.6,1.2,0.7
				c0.5,0.2,1,0.3,1.5,0.3c0.5,0,1,0.1,1.4,0.1c0.4,0,0.8,0,1.4-0.1c0.5,0,1-0.1,1.5-0.3c0.5-0.2,0.9-0.4,1.2-0.7
				c0.3-0.3,0.5-0.8,0.5-1.3c0-0.6-0.2-1-0.5-1.3c-0.3-0.3-0.7-0.6-1.2-0.7c-0.5-0.2-1-0.3-1.5-0.3c-0.5,0-1-0.1-1.4-0.1
				c-0.4,0-0.8,0-1.4,0.1c-0.5,0-1,0.1-1.5,0.3c-0.5,0.2-0.9,0.4-1.2,0.7C3.4,278.8,3.2,279.2,3.2,279.7z"/>
			<path d="M4.2,275c-0.2-0.5-0.4-0.9-0.7-1.3s-0.6-0.8-0.9-1.1v-0.9h10.4v1H3.6c0.3,0.4,0.6,0.7,0.9,1.1c0.3,0.4,0.5,0.8,0.7,1.2
				H4.2z"/>
			<path d="M2.3,265.3c0-0.7,0.2-1.3,0.5-1.7c0.3-0.4,0.7-0.8,1.2-1c0.5-0.3,1.1-0.4,1.7-0.5c0.6-0.1,1.3-0.1,2-0.1
				c0.7,0,1.3,0,2,0.1c0.6,0.1,1.2,0.3,1.7,0.5c0.5,0.3,0.9,0.6,1.2,1c0.3,0.4,0.5,1,0.5,1.7s-0.2,1.3-0.5,1.7
				c-0.3,0.4-0.7,0.8-1.2,1c-0.5,0.3-1.1,0.4-1.7,0.5c-0.6,0.1-1.3,0.1-2,0.1c-0.7,0-1.3,0-2-0.1c-0.6-0.1-1.2-0.3-1.7-0.5
				c-0.5-0.3-0.9-0.6-1.2-1C2.5,266.6,2.3,266,2.3,265.3z M3.2,265.3c0,0.5,0.2,1,0.5,1.3c0.3,0.3,0.7,0.6,1.2,0.7
				c0.5,0.2,1,0.3,1.5,0.3c0.5,0,1,0.1,1.4,0.1c0.4,0,0.8,0,1.4-0.1c0.5,0,1-0.1,1.5-0.3c0.5-0.2,0.9-0.4,1.2-0.7
				c0.3-0.3,0.5-0.8,0.5-1.3s-0.2-1-0.5-1.3c-0.3-0.3-0.7-0.6-1.2-0.7c-0.5-0.2-1-0.3-1.5-0.3c-0.5,0-1-0.1-1.4-0.1
				c-0.4,0-0.8,0-1.4,0.1c-0.5,0-1,0.1-1.5,0.3c-0.5,0.2-0.9,0.4-1.2,0.7C3.4,264.3,3.2,264.8,3.2,265.3z"/>
		</g>
	</g>
</g>
<g id="Ebene_3">
	<polyline class="st5" points="87.7,105 157,105 230.7,121 302.3,150.5 337,150.5 373.7,181 409.7,211.5 445.7,211.5 	"/>
	<g>
		<line class="st5" x1="78.7" y1="96" x2="96.6" y2="113.9"/>
		<line class="st5" x1="96.6" y1="96" x2="78.7" y2="113.9"/>
	</g>
	<g>
		<line class="st5" x1="150.1" y1="96" x2="167.9" y2="113.9"/>
		<line class="st5" x1="167.9" y1="96" x2="150.1" y2="113.9"/>
	</g>
	<g>
		<line class="st5" x1="221.7" y1="112.1" x2="239.6" y2="130"/>
		<line class="st5" x1="239.6" y1="112.1" x2="221.7" y2="130"/>
	</g>
	<g>
		<line class="st5" x1="293.4" y1="141.4" x2="311.3" y2="159.2"/>
		<line class="st5" x1="311.3" y1="141.4" x2="293.4" y2="159.2"/>
	</g>
	<g>
		<line class="st5" x1="328.1" y1="141.4" x2="345.9" y2="159.2"/>
		<line class="st5" x1="345.9" y1="141.4" x2="328.1" y2="159.2"/>
	</g>
	<g>
		<line class="st5" x1="364.7" y1="171.9" x2="382.6" y2="189.7"/>
		<line class="st5" x1="382.6" y1="171.9" x2="364.7" y2="189.7"/>
	</g>
	<g>
		<line class="st5" x1="400.7" y1="202.4" x2="418.6" y2="220.2"/>
		<line class="st5" x1="418.6" y1="202.4" x2="400.7" y2="220.2"/>
	</g>
	<g>
		<line class="st5" x1="436.7" y1="202.4" x2="454.6" y2="220.2"/>
		<line class="st5" x1="454.6" y1="202.4" x2="436.7" y2="220.2"/>
	</g>
	<polyline class="st6" points="87.7,137 156,150.3 302.3,150.5 337,165.3 373.7,195 409.7,240 445.7,254 	"/>
	<circle class="st6" cx="87.7" cy="137" r="9.8"/>
	<circle class="st6" cx="159" cy="150.3" r="9.8"/>
	<circle class="st6" cx="230.7" cy="150.3" r="9.8"/>
	<circle class="st6" cx="302.3" cy="150.3" r="9.8"/>
	<circle class="st6" cx="337" cy="165.3" r="9.8"/>
	<circle class="st6" cx="373.7" cy="195.5" r="9.8"/>
	<circle class="st6" cx="409.7" cy="240.2" r="9.8"/>
	<circle class="st6" cx="445.7" cy="254" r="9.8"/>
</g>
</svg>
