<?xml version="1.0" encoding="utf-8"?>
<!-- Generator: Adobe Illustrator 22.0.1, SVG Export Plug-In . SVG Version: 6.00 Build 0)  -->
<svg version="1.1" id="Ebene_1" xmlns="http://www.w3.org/2000/svg" xmlns:xlink="http://www.w3.org/1999/xlink" x="0px" y="0px"
	 viewBox="0 0 366.1 161.4" style="enable-background:new 0 0 366.1 161.4;" xml:space="preserve">
<style type="text/css">
	.st0{fill:#6E6E6E;}
	.st1{fill:#FDDAAC;}
	.st2{fill:#4D6BB2;stroke:#4D6BB2;stroke-miterlimit:10;}
	.st3{fill:#E9E218;}
	.st4{fill:#DBAFAA;}
	.st5{fill:#F7BB63;}
	.st6{fill:#B29879;}
	.st7{fill:#FFFFFF;}
	.st8{fill:#020203;}
	.st9{enable-background:new    ;}
	.st10{fill:none;stroke:#E4003E;stroke-width:0.2475;stroke-miterlimit:10;}
	.st11{fill:none;stroke:#E4003E;stroke-width:0.2345;stroke-miterlimit:10;}
	.st12{fill:none;stroke:#E4003E;stroke-width:0.2408;stroke-miterlimit:10;}
	.st13{fill:none;stroke:#E4003E;stroke-width:0.2177;stroke-miterlimit:10;}
	.st14{fill:none;stroke:#E4003E;stroke-width:0.2346;stroke-miterlimit:10;}
	.st15{opacity:0.8;fill:#FFFFFF;enable-background:new    ;}
</style>
<g id="Ebene_3">
</g>
<g>
	<path class="st0" d="M294.5,16.4c-10,6.5-23.2,6-26.5,5.8c8.9,5.4,12.8,15.8,13.7,23.2l0.1,0.1c6.2-21.6,16.1-24.6,16.1-24.6
		S296.5,19.2,294.5,16.4z"/>
	<path class="st1" d="M136.6,48.8l-34.9,0.8c0,0-8.8,0.8-13.2-9.2c-1.3-4-1.5-15-1.5-15s-0.2-11.2-7.7-15.5S62.7,1.3,62.7,1.3
		s-5.2-2.5-8.5-0.5s-8.7,4.5-8.8,13.8c-0.2,9.3-0.7,12.7-2.7,18.2s-5,18.8-2.2,25.2c2.8,6.3,12.8,18,13.7,20.7
		c0.8,2.7,2.5,9.5,2.3,13.3c0,2.2,3.5,11.3,12.2,11.3s14.7-5,17-10s5.3-13.5,6-19.5c1-3,1.2-5.8,5-5.7c3.8,0.2,42.5,0.1,42.5,0.1
		L136.6,48.8z"/>
	<path class="st2" d="M254.8,18.1c-18,0-27.9,11.5-27.9,24.6c-3.4-3.4-4.4-6.6-4.4-6.6s10.5-17.8-1.2-25c-8-4.2-15.7,2.6-15.7,2.6
		s-6.1-1.6-9.6,1.4s-4.9,5.9-6.3,10.5c-3,0.5-7.5,0-6.3,8.4c0.7,3.7,3.3,8.2,7.5,8.9c0,0,0.8,22.2,16,33.5c0,0,16.8,19.2,50.7,6.8
		c22-8.2,24.6-29.1,24.6-35.1C282.2,38.2,275.6,18.1,254.8,18.1z M192.9,39.1c-1.8-0.2-4.3-2-5.3-3.9c-2.1-4.1-1.2-5.7,0.6-5.7
		c0,0,1.5-0.2,1.5,1.8c0.4,2.8,2.1,4.8,3.2,5.7C194,37.9,193.7,39.1,192.9,39.1z M196.9,33.6c-1.8,1.3-2.1-2.5-2.1-2.5
		C196,31.3,198,32.8,196.9,33.6z M200.2,29.5c-2.7-2-4.3-3.4-6.2-3.6c0.5-3.9,3-8.7,8.1-8.4C202.2,17.6,199.3,21.5,200.2,29.5z
		 M204.2,29.1c-0.1-5.2,1.1-8.8,3-11.1c1.9,1,5.6,3.8,5.7,11.5C208.7,28.5,204.2,29.1,204.2,29.1z M217.4,31.4L217.4,31.4
		c0,0-0.3-12.7-7-16.1c2.3-1.2,5-1.2,7.4-0.5c8.6,3,4,13,1.2,18.2C218.5,32.4,218,31.9,217.4,31.4z"/>
	<path class="st3" d="M201.6,59.4c0.5-4-2.3-8.7-10.3-8.3c-8,0.3-10.3,1.5-14.7-2.3c-4.3-3.8-7.5-6.8-6-10s4.8-9,4.8-9
		s-0.5-1.8-2.8-1.7c-3-0.2-3.8-2.3-3.8-2.3s-1.3-2.8-5.2-2.8c-3.8,0-3.7,2.3-4.2,3s-1.7,15.7,4.8,19.2s11.3,4.8,13,8.2
		s4.2,9.5,10.3,9.8c5.8,0.3,6.8,0.8,6.8,0.8S201.1,63.4,201.6,59.4z"/>
	
		<ellipse transform="matrix(0.9971 -7.612666e-02 7.612666e-02 0.9971 -4.0215 10.7047)" class="st4" cx="138.4" cy="58.1" rx="6.5" ry="10.2"/>
	<path class="st5" d="M165.4,34.1c0,0-0.7-10.8-10.5-10.8c-4.3,0-6.7,4.8-6.2,8.3s1.5,8.8-0.8,11s-4,6.3-9.7,5.2c1.3,2,5.7,5,5.5,12
		c1.3-2.5,3.7-9.3,6-11.5s6.3-1.7,6.3-1.7s5.5,1.8,8.5-5.3C165.6,38.1,165.4,34.1,165.4,34.1z"/>
	<g>
		<path class="st6" d="M77.7,78.9c1-1.1,1.9-2.3,2.7-3.5c0.4-0.6,0.8-1.3,1-1.9c0.3-0.7,0.5-1.4,0.5-2l0,0c-0.1-0.7-0.7-1.3-1.3-1.8
			c-0.6-0.5-1.3-1.1-2-1.5h0.1c-1.7-0.6-3.1-1.6-4-3.2c-0.9-1.5-1-3.3-0.7-5c0.6-3.2,1-6.3,1.3-9.5c0.7-6.4,1-12.7,0.8-19.1
			C76,28.2,75.7,25,75,22c-0.8-3-2-6-4.2-8.2L69.9,13c-0.1-0.1-0.3-0.3-0.4-0.4l-0.4-0.3l-1-0.6c-0.3-0.2-0.7-0.3-1.1-0.5
			c-0.4-0.1-0.7-0.3-1.1-0.4c-0.4-0.1-0.8-0.2-1.1-0.3c-0.7-0.2-1.5-0.3-2.3-0.4c-1.6-0.2-3.2-0.5-4.7-0.1s-2.8,1.4-4.1,2.3
			c1.2-1.1,2.4-2.2,4-2.8s3.3-0.4,4.9-0.3c3.2,0.1,6.6,1.4,9,3.7c2.3,2.4,3.7,5.6,4.4,8.7c0.7,3.2,1,6.4,1.1,9.6
			c0.3,6.4-0.1,12.9-0.8,19.3c-0.3,3.2-0.8,6.4-1.4,9.5c-0.2,1.5-0.1,3.1,0.6,4.3c0.7,1.3,2,2.2,3.4,2.7l0,0c0,0,0,0,0.1,0
			c0.8,0.5,1.5,0.9,2.2,1.6c0.3,0.3,0.6,0.7,0.9,1.1s0.5,0.9,0.5,1.4l0,0l0,0c0,0.9-0.4,1.6-0.7,2.3c-0.4,0.7-0.8,1.3-1.3,1.9
			C79.9,76.8,78.8,77.9,77.7,78.9z"/>
	</g>
	<g>
		<path class="st6" d="M50.9,30.8c-0.9,3.2-1.6,6.4-2,9.6s-0.7,6.5-0.2,9.7c0,0.4,0.1,0.8,0.2,1.2c0.1,0.4,0.2,0.8,0.3,1.1l0.4,1.1
			c0.2,0.4,0.4,0.7,0.5,1.1c0.7,1.5,1.5,2.9,2.3,4.4c1.6,2.9,3.2,5.7,4.9,8.5l-0.1-0.1c0.7,0.7,1.4,1.4,2,2.2
			c0.6,0.8,1.2,1.6,1.7,2.5s0.9,1.8,1.2,2.7c0.3,0.9,0.5,1.9,0.7,2.9c-0.2-1-0.5-1.9-0.9-2.8s-0.9-1.8-1.4-2.6
			c-1.1-1.6-2.3-3.1-3.8-4.4c0,0,0,0-0.1-0.1l0,0c-1.9-2.7-3.5-5.6-5.1-8.4c-0.8-1.4-1.6-2.9-2.3-4.4c-0.2-0.4-0.4-0.7-0.5-1.1
			l-0.5-1.2c-0.2-0.4-0.2-0.8-0.3-1.2s-0.2-0.8-0.2-1.2L47.5,49v-1.3c-0.1-0.8,0-1.7,0-2.5c0.1-1.7,0.3-3.3,0.7-4.9
			C48.8,37,49.7,33.8,50.9,30.8z"/>
	</g>
	<path class="st6" d="M79.9,76.1l0.4-0.1c1.1-1.4,2.1-3.2,2.1-4.6c-0.2-1.8-3.5-3.7-3.5-3.7s-5.5-1.5-4.3-7.8s2.3-16.8,2.2-25.2
		c-2,4.7-8.2,7.5-11.7,9.7s-2.8,6.8-2.8,6.8s1.3,5.5,2,7.7c0.8,2.2,0.3,4.2,0.2,5.5c-0.2,1.3-0.7,4.2-0.5,5.2
		c1.5,2.2,3.5,1.5,3.5,1.5s0.8-0.7,5.8,0S79.9,76.1,79.9,76.1z"/>
	<g>
		<path class="st7" d="M226.4,39.5c0,3,0.4,6.1,1.2,9.1c0.8,2.9,2,5.8,3.9,8.2c1.8,2.4,4.3,4.3,7.2,5.3c2.8,1.1,6,1.3,9,1.1
			c3.1-0.2,6.1-0.9,8.8-2.4c1.4-0.7,2.5-1.7,3.6-2.8c1-1.1,1.9-2.4,2.6-3.8c1.4-2.7,1.9-5.8,1.9-8.9c0-1.5-0.1-3.1-0.5-4.5
			c-0.4-1.5-1-2.9-1.9-4.1c-0.9-1.3-1.9-2.4-3.2-3.2c-1.3-0.9-2.7-1.4-4.2-1.8c-1.5-0.4-3-0.5-4.6-0.4c-1.5,0.1-3,0.4-4.4,1.2
			c-2.6,1.6-4,4.7-4.3,7.7c-0.2,1.5,0.1,3.1,0.7,4.5s1.5,2.7,2.8,3.5c1.3,0.9,2.8,1.2,4.4,1.2c1.5,0,3.1-0.3,4.3-1.3
			c1.2-0.9,1.9-2.5,2.1-4s0.3-3.1-0.1-4.6c-0.2-0.7-0.6-1.4-1.2-1.9s-1.3-0.9-2-1.1s-1.5-0.2-2.3-0.1s-1.5,0.3-2.1,0.9
			c-0.6,0.5-0.8,1.3-0.9,2.1c-0.1,0.8-0.1,1.6,0.1,2.3c0.2,0.8,0.6,1.5,1.2,2s1.4,0.7,2.2,0.7c-0.8,0-1.6-0.2-2.2-0.7s-1-1.2-1.2-2
			s-0.2-1.6-0.1-2.3c0.1-0.8,0.4-1.6,0.9-2.1c0.6-0.6,1.4-0.8,2.1-0.9c0.8-0.1,1.6-0.1,2.3,0.1c0.8,0.2,1.5,0.5,2.1,1.1
			c0.6,0.5,1,1.2,1.2,2c0.5,1.5,0.4,3.1,0.2,4.6c-0.3,1.5-0.9,3.1-2.2,4.1s-2.9,1.3-4.4,1.3c-1.6,0-3.2-0.3-4.5-1.2
			s-2.3-2.2-2.9-3.7s-0.9-3-0.7-4.6c0.1-1.6,0.6-3.1,1.3-4.5s1.8-2.7,3.2-3.5s3-1.2,4.5-1.3c1.6-0.1,3.2,0,4.7,0.4
			c1.5,0.4,3,0.9,4.3,1.8s2.5,2,3.4,3.3s1.6,2.8,2,4.3s0.6,3.1,0.5,4.7c-0.1,3.1-0.6,6.3-1.9,9.2c-0.7,1.4-1.6,2.7-2.6,3.9
			c-1.1,1.1-2.3,2.2-3.7,2.9c-2.8,1.6-5.9,2.3-9,2.5s-6.4,0-9.3-1.1c-3-1.1-5.6-3.1-7.6-5.6c-1.9-2.5-3.2-5.5-4.1-8.5
			c-0.8-3-1.3-6.2-1.3-9.3L226.4,39.5z"/>
	</g>
	<g id="Musik">
		<path class="st8" d="M58.5,56.6v-0.9l-8.7,1.9v0.9v8c-0.4-0.2-1-0.4-1.6-0.4c-1.4,0-2.5,0.8-2.5,1.9s1.1,1.9,2.5,1.9
			s2.5-0.8,2.5-1.9v-9.7l6.9-1.5v7.5c-0.4-0.2-1-0.4-1.6-0.4c-1.4,0-2.5,0.8-2.5,1.9s1.1,1.9,2.5,1.9s2.5-0.8,2.5-1.9L58.5,56.6
			L58.5,56.6z"/>
	</g>
	<g id="Musik_1_">
		<path class="st8" d="M41.2,47.4v-1.3l-12.3,2.6V50v11.3c-0.6-0.4-1.4-0.6-2.2-0.6c-1.9,0-3.5,1.2-3.5,2.6s1.6,2.6,3.5,2.6
			s3.5-1.2,3.5-2.6V49.8l9.7-2.1v10.6c-0.6-0.4-1.4-0.6-2.2-0.6c-1.9,0-3.5,1.2-3.5,2.6s1.6,2.6,3.5,2.6s3.5-1.2,3.5-2.6V47.4
			L41.2,47.4z"/>
	</g>
	<g class="st9">
		<path d="M23.9,156.2c0,0.3-0.1,0.5-0.2,0.7c-0.1,0.2-0.3,0.4-0.4,0.5c-0.2,0.1-0.4,0.2-0.7,0.3c-0.3,0.1-0.5,0.1-0.8,0.1
			c-0.3,0-0.5,0-0.7-0.1c-0.2-0.1-0.4-0.2-0.6-0.3c-0.2-0.1-0.3-0.3-0.4-0.5c-0.1-0.2-0.2-0.4-0.2-0.7h0.6c0,0.2,0,0.4,0.1,0.6
			c0.1,0.1,0.2,0.3,0.3,0.4s0.3,0.1,0.5,0.2c0.2,0,0.4,0.1,0.5,0.1c0.2,0,0.3,0,0.5-0.1s0.3-0.1,0.4-0.2c0.1-0.1,0.2-0.2,0.3-0.4
			c0.1-0.1,0.1-0.3,0.1-0.5c0-0.2,0-0.3-0.1-0.4c-0.1-0.1-0.2-0.2-0.3-0.3c-0.1-0.1-0.3-0.2-0.5-0.2c-0.2-0.1-0.4-0.1-0.6-0.2
			c-0.3-0.1-0.5-0.2-0.8-0.3c-0.2-0.1-0.4-0.2-0.6-0.3c-0.2-0.1-0.3-0.3-0.4-0.4s-0.1-0.4-0.1-0.6c0-0.3,0.1-0.5,0.2-0.7
			c0.1-0.2,0.2-0.4,0.4-0.5c0.2-0.1,0.4-0.2,0.6-0.3s0.4-0.1,0.7-0.1c0.2,0,0.4,0,0.7,0.1c0.2,0,0.4,0.1,0.6,0.2s0.3,0.2,0.4,0.4
			s0.2,0.4,0.2,0.7h-0.6c0-0.2,0-0.3-0.1-0.4s-0.2-0.2-0.3-0.3c-0.1-0.1-0.3-0.1-0.4-0.1c-0.1,0-0.3,0-0.4,0s-0.3,0-0.5,0.1
			s-0.3,0.1-0.4,0.2s-0.2,0.2-0.3,0.3c-0.1,0.1-0.1,0.3-0.1,0.5c0,0.2,0,0.4,0.1,0.5s0.2,0.2,0.3,0.3s0.3,0.2,0.5,0.2
			c0.2,0.1,0.3,0.1,0.5,0.2c0.2,0.1,0.4,0.2,0.7,0.2c0.2,0.1,0.4,0.2,0.6,0.3c0.2,0.1,0.3,0.3,0.4,0.4S23.9,155.9,23.9,156.2z"/>
		<path d="M26.6,153.6c0.3,0,0.6,0.1,0.8,0.2c0.2,0.1,0.4,0.3,0.6,0.5c0.2,0.2,0.3,0.4,0.3,0.7s0.1,0.5,0.1,0.8c0,0.3,0,0.5-0.1,0.8
			c-0.1,0.3-0.2,0.5-0.3,0.7c-0.2,0.2-0.3,0.4-0.6,0.5c-0.2,0.1-0.5,0.2-0.8,0.2c-0.3,0-0.6-0.1-0.8-0.2c-0.2-0.1-0.4-0.3-0.6-0.5
			c-0.2-0.2-0.3-0.4-0.3-0.7c-0.1-0.3-0.1-0.5-0.1-0.8c0-0.3,0-0.5,0.1-0.8s0.2-0.5,0.3-0.7c0.2-0.2,0.3-0.4,0.6-0.5
			C26,153.7,26.3,153.6,26.6,153.6z M28,155.7c0-0.2,0-0.4-0.1-0.6s-0.1-0.4-0.2-0.5c-0.1-0.2-0.2-0.3-0.4-0.4
			c-0.2-0.1-0.4-0.2-0.6-0.2c-0.2,0-0.4,0.1-0.6,0.2s-0.3,0.2-0.4,0.4c-0.1,0.2-0.2,0.3-0.2,0.5c-0.1,0.2-0.1,0.4-0.1,0.6
			s0,0.4,0.1,0.6c0.1,0.2,0.1,0.4,0.2,0.5c0.1,0.2,0.2,0.3,0.4,0.4c0.2,0.1,0.4,0.2,0.6,0.2c0.2,0,0.4-0.1,0.6-0.2
			c0.2-0.1,0.3-0.2,0.4-0.4c0.1-0.2,0.2-0.3,0.2-0.5S28,155.9,28,155.7z"/>
		<path d="M32.2,153.7h0.5v3.1c0,0.2,0,0.3,0,0.5c0,0.2,0,0.3,0,0.4h-0.5l0-0.6l0,0c-0.1,0.3-0.3,0.4-0.5,0.6s-0.5,0.2-0.7,0.2
			c-0.2,0-0.4,0-0.6-0.1c-0.2-0.1-0.3-0.1-0.4-0.2c-0.1-0.1-0.2-0.2-0.3-0.3c-0.1-0.1-0.1-0.2-0.1-0.4c0-0.1-0.1-0.2-0.1-0.3
			c0-0.1,0-0.2,0-0.3v-2.5H30v2.6c0,0.4,0.1,0.6,0.3,0.8c0.2,0.2,0.4,0.3,0.8,0.3c0.2,0,0.4,0,0.5-0.1c0.1-0.1,0.3-0.2,0.4-0.3
			c0.1-0.1,0.2-0.3,0.2-0.4c0-0.2,0.1-0.3,0.1-0.5V153.7z"/>
		<path d="M34.4,157.7h-0.5v-3.1c0-0.2,0-0.3,0-0.5c0-0.2,0-0.3,0-0.4h0.5l0,0.6l0,0c0.1-0.2,0.3-0.4,0.5-0.6s0.5-0.2,0.7-0.2
			c0.2,0,0.4,0,0.6,0.1c0.2,0.1,0.3,0.1,0.4,0.2c0.1,0.1,0.2,0.2,0.3,0.3s0.1,0.2,0.1,0.4c0,0.1,0.1,0.2,0.1,0.3c0,0.1,0,0.2,0,0.3
			v2.5h-0.5v-2.6c0-0.4-0.1-0.6-0.3-0.8c-0.2-0.2-0.4-0.3-0.8-0.3c-0.2,0-0.4,0-0.5,0.1c-0.1,0.1-0.3,0.2-0.4,0.3
			c-0.1,0.1-0.2,0.3-0.2,0.4s-0.1,0.3-0.1,0.5V157.7z"/>
		<path d="M41.1,157.1L41.1,157.1c-0.2,0.2-0.4,0.4-0.6,0.5s-0.5,0.2-0.8,0.2c-0.3,0-0.6-0.1-0.8-0.2s-0.4-0.3-0.5-0.5
			c-0.1-0.2-0.2-0.4-0.3-0.7s-0.1-0.5-0.1-0.8c0-0.3,0-0.5,0.1-0.8s0.2-0.5,0.3-0.7s0.3-0.4,0.5-0.5c0.2-0.1,0.5-0.2,0.8-0.2
			c0.3,0,0.5,0.1,0.8,0.2c0.3,0.1,0.5,0.3,0.6,0.5l0,0V152h0.5v4.9c0,0.2,0,0.3,0,0.5c0,0.2,0,0.3,0,0.4h-0.5L41.1,157.1z
			 M41.1,155.6c0-0.2,0-0.4-0.1-0.6c0-0.2-0.1-0.4-0.2-0.5s-0.2-0.3-0.4-0.4c-0.2-0.1-0.4-0.1-0.6-0.1c-0.2,0-0.4,0-0.6,0.1
			c-0.2,0.1-0.3,0.2-0.4,0.4c-0.1,0.2-0.2,0.3-0.2,0.5c0,0.2-0.1,0.4-0.1,0.6c0,0.2,0,0.4,0,0.6c0,0.2,0.1,0.4,0.2,0.6
			c0.1,0.2,0.2,0.3,0.3,0.4c0.1,0.1,0.3,0.2,0.6,0.2c0.3,0,0.5-0.1,0.7-0.2c0.2-0.1,0.3-0.2,0.4-0.4s0.2-0.4,0.2-0.6
			C41.1,156.1,41.1,155.9,41.1,155.6z"/>
	</g>
	<g class="st9">
		<path d="M72.6,157.7V152h3.4v0.5h-2.9v2.1h2.8v0.5h-2.8v2.3h3v0.5H72.6z"/>
		<path d="M79.9,153.7h0.6l-1.4,1.9l1.6,2.1h-0.6l-1.3-1.7l-1.2,1.7h-0.6l0,0l1.5-2l-1.5-2h0.6l1.2,1.6L79.9,153.7z"/>
		<path d="M81.7,154.2h-0.8v-0.4h0.8v-0.9l0.5-0.2v1.1h0.9v0.4h-0.9v2.7c0,0.4,0.2,0.6,0.6,0.6c0.1,0,0.1,0,0.2,0c0.1,0,0.1,0,0.2,0
			v0.4c-0.1,0-0.2,0-0.2,0.1c-0.1,0-0.2,0-0.2,0c-0.3,0-0.4,0-0.6-0.1c-0.1-0.1-0.2-0.2-0.3-0.3c-0.1-0.1-0.1-0.2-0.1-0.4
			c0-0.1,0-0.3,0-0.4V154.2z"/>
		<path d="M84.3,155.8c0,0.2,0,0.4,0.1,0.6s0.1,0.4,0.2,0.5c0.1,0.1,0.3,0.3,0.4,0.3c0.2,0.1,0.4,0.1,0.6,0.1c0.1,0,0.3,0,0.4-0.1
			c0.1,0,0.2-0.1,0.3-0.2c0.1-0.1,0.2-0.2,0.3-0.3c0.1-0.1,0.1-0.2,0.2-0.4h0.5c-0.1,0.5-0.3,0.8-0.6,1.1c-0.3,0.2-0.7,0.3-1.2,0.3
			c-0.3,0-0.6-0.1-0.8-0.2c-0.2-0.1-0.4-0.3-0.5-0.5s-0.3-0.4-0.3-0.7c-0.1-0.3-0.1-0.5-0.1-0.8c0-0.3,0-0.5,0.1-0.8
			c0.1-0.3,0.2-0.5,0.3-0.7c0.1-0.2,0.3-0.4,0.6-0.5c0.2-0.1,0.5-0.2,0.8-0.2c0.3,0,0.6,0.1,0.9,0.2c0.2,0.1,0.4,0.3,0.6,0.5
			c0.1,0.2,0.3,0.4,0.3,0.7c0.1,0.3,0.1,0.6,0.1,0.9H84.3z M86.9,155.4c0-0.2-0.1-0.4-0.1-0.5c-0.1-0.2-0.1-0.3-0.2-0.4
			c-0.1-0.1-0.2-0.2-0.4-0.3s-0.3-0.1-0.5-0.1c-0.2,0-0.4,0-0.5,0.1c-0.1,0.1-0.3,0.2-0.4,0.3s-0.2,0.3-0.2,0.4
			c-0.1,0.2-0.1,0.3-0.1,0.5H86.9z"/>
		<path d="M88.9,157.7h-0.5v-3.1c0-0.2,0-0.3,0-0.5c0-0.2,0-0.3,0-0.4h0.5l0,0.6h0c0.1-0.2,0.2-0.4,0.4-0.5c0.2-0.1,0.4-0.2,0.7-0.2
			c0.1,0,0.1,0,0.2,0s0.1,0,0.1,0v0.4c0,0-0.1,0-0.1,0c-0.1,0-0.1,0-0.1,0c-0.4,0-0.6,0.1-0.8,0.4c-0.2,0.2-0.3,0.5-0.3,0.9V157.7z"
			/>
		<path d="M91.6,157.7h-0.5v-3.1c0-0.2,0-0.3,0-0.5c0-0.2,0-0.3,0-0.4h0.5l0,0.6l0,0c0.1-0.2,0.3-0.4,0.5-0.6s0.5-0.2,0.7-0.2
			c0.2,0,0.4,0,0.6,0.1c0.2,0.1,0.3,0.1,0.4,0.2c0.1,0.1,0.2,0.2,0.3,0.3s0.1,0.2,0.1,0.4c0,0.1,0.1,0.2,0.1,0.3c0,0.1,0,0.2,0,0.3
			v2.5h-0.5v-2.6c0-0.4-0.1-0.6-0.3-0.8c-0.2-0.2-0.4-0.3-0.8-0.3c-0.2,0-0.4,0-0.5,0.1c-0.1,0.1-0.3,0.2-0.4,0.3
			c-0.1,0.1-0.2,0.3-0.2,0.4s-0.1,0.3-0.1,0.5V157.7z"/>
		<path d="M97.8,154.9c0-0.2,0-0.3-0.1-0.4c0-0.1-0.1-0.2-0.2-0.3s-0.2-0.1-0.3-0.1c-0.1,0-0.2,0-0.4,0c-0.1,0-0.2,0-0.4,0
			c-0.1,0-0.2,0.1-0.3,0.1c-0.1,0.1-0.2,0.1-0.2,0.2s-0.1,0.2-0.1,0.3h-0.5c0-0.2,0.1-0.4,0.2-0.5c0.1-0.1,0.2-0.3,0.3-0.4
			c0.1-0.1,0.3-0.2,0.5-0.2c0.2,0,0.4-0.1,0.5-0.1c0.4,0,0.8,0.1,1,0.3c0.3,0.2,0.4,0.5,0.4,1v1.9c0,0.2,0,0.3,0,0.5
			c0,0.2,0,0.3,0,0.4h-0.5l0-0.6h0l0,0.1c-0.1,0.2-0.2,0.3-0.4,0.5c-0.2,0.1-0.5,0.2-0.8,0.2c-0.2,0-0.4,0-0.5-0.1
			c-0.2-0.1-0.3-0.1-0.4-0.2c-0.1-0.1-0.2-0.2-0.3-0.4c-0.1-0.2-0.1-0.3-0.1-0.5c0-0.3,0.1-0.5,0.2-0.7c0.1-0.2,0.3-0.3,0.6-0.4
			c0.1-0.1,0.3-0.1,0.4-0.1s0.3,0,0.5-0.1c0.2,0,0.3,0,0.5,0s0.3,0,0.5,0V154.9z M95.7,156.6c0,0.3,0.1,0.5,0.3,0.6
			c0.2,0.1,0.4,0.2,0.6,0.2c0.2,0,0.4,0,0.6-0.1c0.2-0.1,0.3-0.2,0.4-0.3c0.1-0.1,0.2-0.3,0.2-0.5c0-0.2,0.1-0.4,0.1-0.5
			c0,0,0-0.1,0-0.1s0-0.1,0-0.1c-0.1,0-0.2,0-0.3,0s-0.2,0-0.3,0c-0.2,0-0.4,0-0.5,0c-0.2,0-0.3,0.1-0.5,0.1s-0.3,0.2-0.4,0.3
			C95.8,156.3,95.7,156.4,95.7,156.6z"/>
		<path d="M100,157.7h-0.5V152h0.5V157.7z"/>
		<path d="M103.8,155.8c0,0.2,0,0.4,0.1,0.6s0.1,0.4,0.2,0.5c0.1,0.1,0.3,0.3,0.4,0.3c0.2,0.1,0.4,0.1,0.6,0.1c0.1,0,0.3,0,0.4-0.1
			c0.1,0,0.2-0.1,0.3-0.2c0.1-0.1,0.2-0.2,0.3-0.3c0.1-0.1,0.1-0.2,0.2-0.4h0.5c-0.1,0.5-0.3,0.8-0.6,1.1c-0.3,0.2-0.7,0.3-1.2,0.3
			c-0.3,0-0.6-0.1-0.8-0.2c-0.2-0.1-0.4-0.3-0.5-0.5s-0.3-0.4-0.3-0.7c-0.1-0.3-0.1-0.5-0.1-0.8c0-0.3,0-0.5,0.1-0.8
			c0.1-0.3,0.2-0.5,0.3-0.7c0.1-0.2,0.3-0.4,0.6-0.5c0.2-0.1,0.5-0.2,0.8-0.2c0.3,0,0.6,0.1,0.9,0.2c0.2,0.1,0.4,0.3,0.6,0.5
			c0.1,0.2,0.3,0.4,0.3,0.7c0.1,0.3,0.1,0.6,0.1,0.9H103.8z M106.4,155.4c0-0.2-0.1-0.4-0.1-0.5c-0.1-0.2-0.1-0.3-0.2-0.4
			c-0.1-0.1-0.2-0.2-0.4-0.3s-0.3-0.1-0.5-0.1c-0.2,0-0.4,0-0.5,0.1c-0.1,0.1-0.3,0.2-0.4,0.3s-0.2,0.3-0.2,0.4
			c-0.1,0.2-0.1,0.3-0.1,0.5H106.4z"/>
		<path d="M110.3,154.9c0-0.2,0-0.3-0.1-0.4c0-0.1-0.1-0.2-0.2-0.3s-0.2-0.1-0.3-0.1c-0.1,0-0.2,0-0.4,0c-0.1,0-0.2,0-0.4,0
			c-0.1,0-0.2,0.1-0.3,0.1c-0.1,0.1-0.2,0.1-0.2,0.2s-0.1,0.2-0.1,0.3h-0.5c0-0.2,0.1-0.4,0.2-0.5c0.1-0.1,0.2-0.3,0.3-0.4
			c0.1-0.1,0.3-0.2,0.5-0.2c0.2,0,0.4-0.1,0.5-0.1c0.4,0,0.8,0.1,1,0.3c0.3,0.2,0.4,0.5,0.4,1v1.9c0,0.2,0,0.3,0,0.5
			c0,0.2,0,0.3,0,0.4h-0.5l0-0.6h0l0,0.1c-0.1,0.2-0.2,0.3-0.4,0.5c-0.2,0.1-0.5,0.2-0.8,0.2c-0.2,0-0.4,0-0.5-0.1
			c-0.2-0.1-0.3-0.1-0.4-0.2c-0.1-0.1-0.2-0.2-0.3-0.4c-0.1-0.2-0.1-0.3-0.1-0.5c0-0.3,0.1-0.5,0.2-0.7c0.1-0.2,0.3-0.3,0.6-0.4
			c0.1-0.1,0.3-0.1,0.4-0.1s0.3,0,0.5-0.1c0.2,0,0.3,0,0.5,0s0.3,0,0.5,0V154.9z M108.2,156.6c0,0.3,0.1,0.5,0.3,0.6
			c0.2,0.1,0.4,0.2,0.6,0.2c0.2,0,0.4,0,0.6-0.1c0.2-0.1,0.3-0.2,0.4-0.3c0.1-0.1,0.2-0.3,0.2-0.5c0-0.2,0.1-0.4,0.1-0.5
			c0,0,0-0.1,0-0.1s0-0.1,0-0.1c-0.1,0-0.2,0-0.3,0s-0.2,0-0.3,0c-0.2,0-0.4,0-0.5,0c-0.2,0-0.3,0.1-0.5,0.1s-0.3,0.2-0.4,0.3
			C108.2,156.3,108.2,156.4,108.2,156.6z"/>
		<path d="M112.5,157.7H112v-3.1c0-0.2,0-0.3,0-0.5c0-0.2,0-0.3,0-0.4h0.5l0,0.6h0c0.1-0.2,0.2-0.4,0.4-0.5c0.2-0.1,0.4-0.2,0.7-0.2
			c0.1,0,0.1,0,0.2,0s0.1,0,0.1,0v0.4c0,0-0.1,0-0.1,0c-0.1,0-0.1,0-0.1,0c-0.4,0-0.6,0.1-0.8,0.4c-0.2,0.2-0.3,0.5-0.3,0.9V157.7z"
			/>
	</g>
	<g class="st9">
		<path d="M137.2,157.7V152h0.8l2.2,5l2.2-5h0.8v5.8h-0.5v-5.3h0l-2.2,5.3h-0.5l-2.2-5.3h0v5.3H137.2z"/>
		<path d="M145.1,152.6h-0.6V152h0.6V152.6z M145.1,153.7v4h-0.5v-4H145.1z"/>
		<path d="M149.1,157.1L149.1,157.1c-0.2,0.2-0.4,0.4-0.6,0.5s-0.5,0.2-0.8,0.2c-0.3,0-0.6-0.1-0.8-0.2s-0.4-0.3-0.5-0.5
			c-0.1-0.2-0.2-0.4-0.3-0.7s-0.1-0.5-0.1-0.8c0-0.3,0-0.5,0.1-0.8s0.2-0.5,0.3-0.7s0.3-0.4,0.5-0.5c0.2-0.1,0.5-0.2,0.8-0.2
			c0.3,0,0.5,0.1,0.8,0.2c0.3,0.1,0.5,0.3,0.6,0.5l0,0V152h0.5v4.9c0,0.2,0,0.3,0,0.5c0,0.2,0,0.3,0,0.4h-0.5L149.1,157.1z
			 M149.1,155.6c0-0.2,0-0.4-0.1-0.6c0-0.2-0.1-0.4-0.2-0.5s-0.2-0.3-0.4-0.4c-0.2-0.1-0.4-0.1-0.6-0.1c-0.2,0-0.4,0-0.6,0.1
			c-0.2,0.1-0.3,0.2-0.4,0.4c-0.1,0.2-0.2,0.3-0.2,0.5c0,0.2-0.1,0.4-0.1,0.6c0,0.2,0,0.4,0,0.6c0,0.2,0.1,0.4,0.2,0.6
			c0.1,0.2,0.2,0.3,0.3,0.4c0.1,0.1,0.3,0.2,0.6,0.2c0.3,0,0.5-0.1,0.7-0.2c0.2-0.1,0.3-0.2,0.4-0.4s0.2-0.4,0.2-0.6
			C149.1,156.1,149.1,155.9,149.1,155.6z"/>
		<path d="M153.6,157.1L153.6,157.1c-0.2,0.2-0.4,0.4-0.6,0.5s-0.5,0.2-0.8,0.2c-0.3,0-0.6-0.1-0.8-0.2s-0.4-0.3-0.5-0.5
			c-0.1-0.2-0.2-0.4-0.3-0.7s-0.1-0.5-0.1-0.8c0-0.3,0-0.5,0.1-0.8s0.2-0.5,0.3-0.7s0.3-0.4,0.5-0.5c0.2-0.1,0.5-0.2,0.8-0.2
			c0.3,0,0.5,0.1,0.8,0.2c0.3,0.1,0.5,0.3,0.6,0.5l0,0V152h0.5v4.9c0,0.2,0,0.3,0,0.5c0,0.2,0,0.3,0,0.4h-0.5L153.6,157.1z
			 M153.6,155.6c0-0.2,0-0.4-0.1-0.6c0-0.2-0.1-0.4-0.2-0.5s-0.2-0.3-0.4-0.4c-0.2-0.1-0.4-0.1-0.6-0.1c-0.2,0-0.4,0-0.6,0.1
			c-0.2,0.1-0.3,0.2-0.4,0.4c-0.1,0.2-0.2,0.3-0.2,0.5c0,0.2-0.1,0.4-0.1,0.6c0,0.2,0,0.4,0,0.6c0,0.2,0.1,0.4,0.2,0.6
			c0.1,0.2,0.2,0.3,0.3,0.4c0.1,0.1,0.3,0.2,0.6,0.2c0.3,0,0.5-0.1,0.7-0.2c0.2-0.1,0.3-0.2,0.4-0.4s0.2-0.4,0.2-0.6
			C153.5,156.1,153.6,155.9,153.6,155.6z"/>
		<path d="M155.7,157.7h-0.5V152h0.5V157.7z"/>
		<path d="M157.3,155.8c0,0.2,0,0.4,0.1,0.6s0.1,0.4,0.2,0.5c0.1,0.1,0.3,0.3,0.4,0.3c0.2,0.1,0.4,0.1,0.6,0.1c0.1,0,0.3,0,0.4-0.1
			c0.1,0,0.2-0.1,0.3-0.2c0.1-0.1,0.2-0.2,0.3-0.3c0.1-0.1,0.1-0.2,0.2-0.4h0.5c-0.1,0.5-0.3,0.8-0.6,1.1c-0.3,0.2-0.7,0.3-1.2,0.3
			c-0.3,0-0.6-0.1-0.8-0.2c-0.2-0.1-0.4-0.3-0.5-0.5s-0.3-0.4-0.3-0.7c-0.1-0.3-0.1-0.5-0.1-0.8c0-0.3,0-0.5,0.1-0.8
			c0.1-0.3,0.2-0.5,0.3-0.7c0.1-0.2,0.3-0.4,0.6-0.5c0.2-0.1,0.5-0.2,0.8-0.2c0.3,0,0.6,0.1,0.9,0.2c0.2,0.1,0.4,0.3,0.6,0.5
			c0.1,0.2,0.3,0.4,0.3,0.7c0.1,0.3,0.1,0.6,0.1,0.9H157.3z M159.9,155.4c0-0.2-0.1-0.4-0.1-0.5c-0.1-0.2-0.1-0.3-0.2-0.4
			c-0.1-0.1-0.2-0.2-0.4-0.3s-0.3-0.1-0.5-0.1c-0.2,0-0.4,0-0.5,0.1c-0.1,0.1-0.3,0.2-0.4,0.3s-0.2,0.3-0.2,0.4
			c-0.1,0.2-0.1,0.3-0.1,0.5H159.9z"/>
		<path d="M164,155.8c0,0.2,0,0.4,0.1,0.6s0.1,0.4,0.2,0.5c0.1,0.1,0.3,0.3,0.4,0.3c0.2,0.1,0.4,0.1,0.6,0.1c0.1,0,0.3,0,0.4-0.1
			c0.1,0,0.2-0.1,0.3-0.2c0.1-0.1,0.2-0.2,0.3-0.3c0.1-0.1,0.1-0.2,0.2-0.4h0.5c-0.1,0.5-0.3,0.8-0.6,1.1c-0.3,0.2-0.7,0.3-1.2,0.3
			c-0.3,0-0.6-0.1-0.8-0.2c-0.2-0.1-0.4-0.3-0.5-0.5s-0.3-0.4-0.3-0.7c-0.1-0.3-0.1-0.5-0.1-0.8c0-0.3,0-0.5,0.1-0.8
			c0.1-0.3,0.2-0.5,0.3-0.7c0.1-0.2,0.3-0.4,0.6-0.5c0.2-0.1,0.5-0.2,0.8-0.2c0.3,0,0.6,0.1,0.9,0.2c0.2,0.1,0.4,0.3,0.6,0.5
			c0.1,0.2,0.3,0.4,0.3,0.7c0.1,0.3,0.1,0.6,0.1,0.9H164z M166.6,155.4c0-0.2-0.1-0.4-0.1-0.5c-0.1-0.2-0.1-0.3-0.2-0.4
			c-0.1-0.1-0.2-0.2-0.4-0.3s-0.3-0.1-0.5-0.1c-0.2,0-0.4,0-0.5,0.1c-0.1,0.1-0.3,0.2-0.4,0.3s-0.2,0.3-0.2,0.4
			c-0.1,0.2-0.1,0.3-0.1,0.5H166.6z"/>
		<path d="M170.4,154.9c0-0.2,0-0.3-0.1-0.4c0-0.1-0.1-0.2-0.2-0.3s-0.2-0.1-0.3-0.1c-0.1,0-0.2,0-0.4,0c-0.1,0-0.2,0-0.4,0
			c-0.1,0-0.2,0.1-0.3,0.1c-0.1,0.1-0.2,0.1-0.2,0.2s-0.1,0.2-0.1,0.3H168c0-0.2,0.1-0.4,0.2-0.5c0.1-0.1,0.2-0.3,0.3-0.4
			c0.1-0.1,0.3-0.2,0.5-0.2c0.2,0,0.4-0.1,0.5-0.1c0.4,0,0.8,0.1,1,0.3c0.3,0.2,0.4,0.5,0.4,1v1.9c0,0.2,0,0.3,0,0.5
			c0,0.2,0,0.3,0,0.4h-0.5l0-0.6h0l0,0.1c-0.1,0.2-0.2,0.3-0.4,0.5c-0.2,0.1-0.5,0.2-0.8,0.2c-0.2,0-0.4,0-0.5-0.1
			c-0.2-0.1-0.3-0.1-0.4-0.2c-0.1-0.1-0.2-0.2-0.3-0.4c-0.1-0.2-0.1-0.3-0.1-0.5c0-0.3,0.1-0.5,0.2-0.7c0.1-0.2,0.3-0.3,0.6-0.4
			c0.1-0.1,0.3-0.1,0.4-0.1s0.3,0,0.5-0.1c0.2,0,0.3,0,0.5,0s0.3,0,0.5,0V154.9z M168.3,156.6c0,0.3,0.1,0.5,0.3,0.6
			c0.2,0.1,0.4,0.2,0.6,0.2c0.2,0,0.4,0,0.6-0.1c0.2-0.1,0.3-0.2,0.4-0.3c0.1-0.1,0.2-0.3,0.2-0.5c0-0.2,0.1-0.4,0.1-0.5
			c0,0,0-0.1,0-0.1s0-0.1,0-0.1c-0.1,0-0.2,0-0.3,0s-0.2,0-0.3,0c-0.2,0-0.4,0-0.5,0c-0.2,0-0.3,0.1-0.5,0.1s-0.3,0.2-0.4,0.3
			C168.4,156.3,168.3,156.4,168.3,156.6z"/>
		<path d="M172.6,157.7h-0.5v-3.1c0-0.2,0-0.3,0-0.5c0-0.2,0-0.3,0-0.4h0.5l0,0.6h0c0.1-0.2,0.2-0.4,0.4-0.5
			c0.2-0.1,0.4-0.2,0.7-0.2c0.1,0,0.1,0,0.2,0s0.1,0,0.1,0v0.4c0,0-0.1,0-0.1,0c-0.1,0-0.1,0-0.1,0c-0.4,0-0.6,0.1-0.8,0.4
			c-0.2,0.2-0.3,0.5-0.3,0.9V157.7z"/>
	</g>
	<g class="st9">
		<path d="M201,157.7V152h0.5v5.8H201z"/>
		<path d="M203.4,157.7H203v-3.1c0-0.2,0-0.3,0-0.5c0-0.2,0-0.3,0-0.4h0.5l0,0.6l0,0c0.1-0.2,0.3-0.4,0.5-0.6s0.5-0.2,0.7-0.2
			c0.2,0,0.4,0,0.6,0.1c0.2,0.1,0.3,0.1,0.4,0.2c0.1,0.1,0.2,0.2,0.3,0.3c0.1,0.1,0.1,0.2,0.1,0.4c0,0.1,0.1,0.2,0.1,0.3
			s0,0.2,0,0.3v2.5h-0.5v-2.6c0-0.4-0.1-0.6-0.3-0.8c-0.2-0.2-0.4-0.3-0.8-0.3c-0.2,0-0.4,0-0.5,0.1s-0.3,0.2-0.4,0.3
			c-0.1,0.1-0.2,0.3-0.2,0.4c0,0.2-0.1,0.3-0.1,0.5V157.7z"/>
		<path d="M207.9,157.7h-0.5v-3.1c0-0.2,0-0.3,0-0.5c0-0.2,0-0.3,0-0.4h0.5l0,0.6l0,0c0.1-0.2,0.3-0.4,0.5-0.6s0.5-0.2,0.7-0.2
			c0.2,0,0.4,0,0.6,0.1s0.3,0.1,0.4,0.2c0.1,0.1,0.2,0.2,0.3,0.3c0.1,0.1,0.1,0.2,0.1,0.4s0.1,0.2,0.1,0.3c0,0.1,0,0.2,0,0.3v2.5
			h-0.5v-2.6c0-0.4-0.1-0.6-0.3-0.8c-0.2-0.2-0.4-0.3-0.8-0.3c-0.2,0-0.4,0-0.5,0.1c-0.1,0.1-0.3,0.2-0.4,0.3
			c-0.1,0.1-0.2,0.3-0.2,0.4c0,0.2-0.1,0.3-0.1,0.5V157.7z"/>
		<path d="M212.1,155.8c0,0.2,0,0.4,0.1,0.6c0.1,0.2,0.1,0.4,0.2,0.5c0.1,0.1,0.3,0.3,0.4,0.3c0.2,0.1,0.4,0.1,0.6,0.1
			c0.1,0,0.3,0,0.4-0.1c0.1,0,0.2-0.1,0.3-0.2c0.1-0.1,0.2-0.2,0.3-0.3c0.1-0.1,0.1-0.2,0.2-0.4h0.5c-0.1,0.5-0.3,0.8-0.6,1.1
			c-0.3,0.2-0.7,0.3-1.2,0.3c-0.3,0-0.6-0.1-0.8-0.2c-0.2-0.1-0.4-0.3-0.5-0.5c-0.1-0.2-0.3-0.4-0.3-0.7c-0.1-0.3-0.1-0.5-0.1-0.8
			c0-0.3,0-0.5,0.1-0.8c0.1-0.3,0.2-0.5,0.3-0.7c0.1-0.2,0.3-0.4,0.6-0.5s0.5-0.2,0.8-0.2c0.3,0,0.6,0.1,0.9,0.2
			c0.2,0.1,0.4,0.3,0.6,0.5c0.1,0.2,0.3,0.4,0.3,0.7c0.1,0.3,0.1,0.6,0.1,0.9H212.1z M214.7,155.4c0-0.2-0.1-0.4-0.1-0.5
			c-0.1-0.2-0.1-0.3-0.2-0.4c-0.1-0.1-0.2-0.2-0.4-0.3s-0.3-0.1-0.5-0.1c-0.2,0-0.4,0-0.5,0.1c-0.1,0.1-0.3,0.2-0.4,0.3
			c-0.1,0.1-0.2,0.3-0.2,0.4c-0.1,0.2-0.1,0.3-0.1,0.5H214.7z"/>
		<path d="M216.8,157.7h-0.5v-3.1c0-0.2,0-0.3,0-0.5c0-0.2,0-0.3,0-0.4h0.5l0,0.6h0c0.1-0.2,0.2-0.4,0.4-0.5
			c0.2-0.1,0.4-0.2,0.7-0.2c0.1,0,0.1,0,0.2,0c0,0,0.1,0,0.1,0v0.4c0,0-0.1,0-0.1,0c-0.1,0-0.1,0-0.1,0c-0.4,0-0.6,0.1-0.8,0.4
			c-0.2,0.2-0.3,0.5-0.3,0.9V157.7z"/>
		<path d="M221.5,155.8c0,0.2,0,0.4,0.1,0.6c0.1,0.2,0.1,0.4,0.2,0.5c0.1,0.1,0.3,0.3,0.4,0.3c0.2,0.1,0.4,0.1,0.6,0.1
			c0.1,0,0.3,0,0.4-0.1c0.1,0,0.2-0.1,0.3-0.2c0.1-0.1,0.2-0.2,0.3-0.3c0.1-0.1,0.1-0.2,0.2-0.4h0.5c-0.1,0.5-0.3,0.8-0.6,1.1
			c-0.3,0.2-0.7,0.3-1.2,0.3c-0.3,0-0.6-0.1-0.8-0.2c-0.2-0.1-0.4-0.3-0.5-0.5c-0.1-0.2-0.3-0.4-0.3-0.7c-0.1-0.3-0.1-0.5-0.1-0.8
			c0-0.3,0-0.5,0.1-0.8c0.1-0.3,0.2-0.5,0.3-0.7c0.1-0.2,0.3-0.4,0.6-0.5s0.5-0.2,0.8-0.2c0.3,0,0.6,0.1,0.9,0.2
			c0.2,0.1,0.4,0.3,0.6,0.5c0.1,0.2,0.3,0.4,0.3,0.7c0.1,0.3,0.1,0.6,0.1,0.9H221.5z M224.1,155.4c0-0.2-0.1-0.4-0.1-0.5
			c-0.1-0.2-0.1-0.3-0.2-0.4c-0.1-0.1-0.2-0.2-0.4-0.3s-0.3-0.1-0.5-0.1c-0.2,0-0.4,0-0.5,0.1c-0.1,0.1-0.3,0.2-0.4,0.3
			c-0.1,0.1-0.2,0.3-0.2,0.4c-0.1,0.2-0.1,0.3-0.1,0.5H224.1z"/>
		<path d="M227.9,154.9c0-0.2,0-0.3-0.1-0.4s-0.1-0.2-0.2-0.3c-0.1-0.1-0.2-0.1-0.3-0.1s-0.2,0-0.4,0c-0.1,0-0.2,0-0.4,0
			s-0.2,0.1-0.3,0.1c-0.1,0.1-0.2,0.1-0.2,0.2c-0.1,0.1-0.1,0.2-0.1,0.3h-0.5c0-0.2,0.1-0.4,0.2-0.5c0.1-0.1,0.2-0.3,0.3-0.4
			s0.3-0.2,0.5-0.2s0.4-0.1,0.5-0.1c0.4,0,0.8,0.1,1,0.3s0.4,0.5,0.4,1v1.9c0,0.2,0,0.3,0,0.5c0,0.2,0,0.3,0,0.4h-0.5l0-0.6h0l0,0.1
			c-0.1,0.2-0.2,0.3-0.4,0.5c-0.2,0.1-0.5,0.2-0.8,0.2c-0.2,0-0.4,0-0.5-0.1s-0.3-0.1-0.4-0.2s-0.2-0.2-0.3-0.4
			c-0.1-0.2-0.1-0.3-0.1-0.5c0-0.3,0.1-0.5,0.2-0.7c0.1-0.2,0.3-0.3,0.6-0.4c0.1-0.1,0.3-0.1,0.4-0.1c0.2,0,0.3,0,0.5-0.1
			c0.2,0,0.3,0,0.5,0s0.3,0,0.5,0V154.9z M225.8,156.6c0,0.3,0.1,0.5,0.3,0.6c0.2,0.1,0.4,0.2,0.6,0.2c0.2,0,0.4,0,0.6-0.1
			c0.2-0.1,0.3-0.2,0.4-0.3c0.1-0.1,0.2-0.3,0.2-0.5c0-0.2,0.1-0.4,0.1-0.5c0,0,0-0.1,0-0.1s0-0.1,0-0.1c-0.1,0-0.2,0-0.3,0
			c-0.1,0-0.2,0-0.3,0c-0.2,0-0.4,0-0.5,0c-0.2,0-0.3,0.1-0.5,0.1s-0.3,0.2-0.4,0.3C225.9,156.3,225.8,156.4,225.8,156.6z"/>
		<path d="M230.1,157.7h-0.5v-3.1c0-0.2,0-0.3,0-0.5c0-0.2,0-0.3,0-0.4h0.5l0,0.6h0c0.1-0.2,0.2-0.4,0.4-0.5
			c0.2-0.1,0.4-0.2,0.7-0.2c0.1,0,0.1,0,0.2,0c0,0,0.1,0,0.1,0v0.4c0,0-0.1,0-0.1,0c-0.1,0-0.1,0-0.1,0c-0.4,0-0.6,0.1-0.8,0.4
			c-0.2,0.2-0.3,0.5-0.3,0.9V157.7z"/>
	</g>
	<g class="st9">
		<path d="M254.9,157.7l2.3-5.8h0.6l2.3,5.8h-0.6l-0.6-1.6H256l-0.6,1.6H254.9z M258.7,155.7l-1.2-3.3l-1.3,3.3H258.7z"/>
		<path d="M263.3,153.7h0.5v3.1c0,0.2,0,0.3,0,0.5c0,0.2,0,0.3,0,0.4h-0.5l0-0.6l0,0c-0.1,0.3-0.3,0.4-0.5,0.6s-0.5,0.2-0.7,0.2
			c-0.2,0-0.4,0-0.6-0.1s-0.3-0.1-0.4-0.2c-0.1-0.1-0.2-0.2-0.3-0.3c-0.1-0.1-0.1-0.2-0.1-0.4c0-0.1-0.1-0.2-0.1-0.3s0-0.2,0-0.3
			v-2.5h0.5v2.6c0,0.4,0.1,0.6,0.3,0.8c0.2,0.2,0.4,0.3,0.8,0.3c0.2,0,0.4,0,0.5-0.1c0.1-0.1,0.3-0.2,0.4-0.3
			c0.1-0.1,0.2-0.3,0.2-0.4c0-0.2,0.1-0.3,0.1-0.5V153.7z"/>
		<path d="M267.8,157.1L267.8,157.1c-0.2,0.2-0.4,0.4-0.6,0.5c-0.2,0.1-0.5,0.2-0.8,0.2c-0.3,0-0.6-0.1-0.8-0.2s-0.4-0.3-0.5-0.5
			c-0.1-0.2-0.2-0.4-0.3-0.7s-0.1-0.5-0.1-0.8c0-0.3,0-0.5,0.1-0.8s0.2-0.5,0.3-0.7c0.1-0.2,0.3-0.4,0.5-0.5
			c0.2-0.1,0.5-0.2,0.8-0.2c0.3,0,0.5,0.1,0.8,0.2c0.3,0.1,0.5,0.3,0.6,0.5l0,0V152h0.5v4.9c0,0.2,0,0.3,0,0.5c0,0.2,0,0.3,0,0.4
			h-0.5L267.8,157.1z M267.8,155.6c0-0.2,0-0.4-0.1-0.6c0-0.2-0.1-0.4-0.2-0.5c-0.1-0.1-0.2-0.3-0.4-0.4c-0.2-0.1-0.4-0.1-0.6-0.1
			c-0.2,0-0.4,0-0.6,0.1c-0.2,0.1-0.3,0.2-0.4,0.4c-0.1,0.2-0.2,0.3-0.2,0.5c0,0.2-0.1,0.4-0.1,0.6c0,0.2,0,0.4,0,0.6
			c0,0.2,0.1,0.4,0.2,0.6c0.1,0.2,0.2,0.3,0.3,0.4c0.1,0.1,0.3,0.2,0.6,0.2c0.3,0,0.5-0.1,0.7-0.2c0.2-0.1,0.3-0.2,0.4-0.4
			c0.1-0.2,0.2-0.4,0.2-0.6C267.8,156.1,267.8,155.9,267.8,155.6z"/>
		<path d="M270,152.6h-0.6V152h0.6V152.6z M270,153.7v4h-0.5v-4H270z"/>
		<path d="M271.6,154.2h-0.8v-0.4h0.8v-0.9l0.5-0.2v1.1h0.9v0.4h-0.9v2.7c0,0.4,0.2,0.6,0.6,0.6c0.1,0,0.1,0,0.2,0
			c0.1,0,0.1,0,0.2,0v0.4c-0.1,0-0.2,0-0.2,0.1c-0.1,0-0.2,0-0.2,0c-0.3,0-0.4,0-0.6-0.1c-0.1-0.1-0.2-0.2-0.3-0.3
			c-0.1-0.1-0.1-0.2-0.1-0.4c0-0.1,0-0.3,0-0.4V154.2z"/>
		<path d="M275.5,153.6c0.3,0,0.6,0.1,0.8,0.2c0.2,0.1,0.4,0.3,0.6,0.5c0.2,0.2,0.3,0.4,0.3,0.7c0.1,0.3,0.1,0.5,0.1,0.8
			c0,0.3,0,0.5-0.1,0.8c-0.1,0.3-0.2,0.5-0.3,0.7c-0.2,0.2-0.3,0.4-0.6,0.5c-0.2,0.1-0.5,0.2-0.8,0.2c-0.3,0-0.6-0.1-0.8-0.2
			c-0.2-0.1-0.4-0.3-0.6-0.5c-0.2-0.2-0.3-0.4-0.3-0.7c-0.1-0.3-0.1-0.5-0.1-0.8c0-0.3,0-0.5,0.1-0.8c0.1-0.3,0.2-0.5,0.3-0.7
			c0.2-0.2,0.3-0.4,0.6-0.5C274.9,153.7,275.2,153.6,275.5,153.6z M276.9,155.7c0-0.2,0-0.4-0.1-0.6s-0.1-0.4-0.2-0.5
			c-0.1-0.2-0.2-0.3-0.4-0.4c-0.2-0.1-0.4-0.2-0.6-0.2c-0.2,0-0.4,0.1-0.6,0.2c-0.2,0.1-0.3,0.2-0.4,0.4c-0.1,0.2-0.2,0.3-0.2,0.5
			s-0.1,0.4-0.1,0.6s0,0.4,0.1,0.6s0.1,0.4,0.2,0.5c0.1,0.2,0.2,0.3,0.4,0.4c0.2,0.1,0.4,0.2,0.6,0.2c0.2,0,0.4-0.1,0.6-0.2
			c0.2-0.1,0.3-0.2,0.4-0.4c0.1-0.2,0.2-0.3,0.2-0.5S276.9,155.9,276.9,155.7z"/>
		<path d="M278.9,157.7h-0.5v-3.1c0-0.2,0-0.3,0-0.5c0-0.2,0-0.3,0-0.4h0.5l0,0.6h0c0.1-0.2,0.2-0.4,0.4-0.5
			c0.2-0.1,0.4-0.2,0.7-0.2c0.1,0,0.1,0,0.2,0c0,0,0.1,0,0.1,0v0.4c0,0-0.1,0-0.1,0c-0.1,0-0.1,0-0.1,0c-0.4,0-0.6,0.1-0.8,0.4
			c-0.2,0.2-0.3,0.5-0.3,0.9V157.7z"/>
		<path d="M281.1,153.7l1.4,3.4l1.3-3.4h0.5l-2.2,5.6h-0.5l0.6-1.5l-1.7-4H281.1z"/>
		<path d="M287.7,157.7h-0.5v-3.1c0-0.2,0-0.3,0-0.5c0-0.2,0-0.3,0-0.4h0.5l0,0.6l0,0c0.1-0.2,0.3-0.4,0.5-0.6s0.5-0.2,0.7-0.2
			c0.2,0,0.4,0,0.6,0.1s0.3,0.1,0.4,0.2c0.1,0.1,0.2,0.2,0.3,0.3c0.1,0.1,0.1,0.2,0.1,0.4s0.1,0.2,0.1,0.3c0,0.1,0,0.2,0,0.3v2.5
			H290v-2.6c0-0.4-0.1-0.6-0.3-0.8c-0.2-0.2-0.4-0.3-0.8-0.3c-0.2,0-0.4,0-0.5,0.1c-0.1,0.1-0.3,0.2-0.4,0.3
			c-0.1,0.1-0.2,0.3-0.2,0.4c0,0.2-0.1,0.3-0.1,0.5V157.7z"/>
		<path d="M292,155.8c0,0.2,0,0.4,0.1,0.6c0.1,0.2,0.1,0.4,0.2,0.5c0.1,0.1,0.3,0.3,0.4,0.3c0.2,0.1,0.4,0.1,0.6,0.1
			c0.1,0,0.3,0,0.4-0.1c0.1,0,0.2-0.1,0.3-0.2c0.1-0.1,0.2-0.2,0.3-0.3c0.1-0.1,0.1-0.2,0.2-0.4h0.5c-0.1,0.5-0.3,0.8-0.6,1.1
			c-0.3,0.2-0.7,0.3-1.2,0.3c-0.3,0-0.6-0.1-0.8-0.2c-0.2-0.1-0.4-0.3-0.5-0.5c-0.1-0.2-0.3-0.4-0.3-0.7c-0.1-0.3-0.1-0.5-0.1-0.8
			c0-0.3,0-0.5,0.1-0.8c0.1-0.3,0.2-0.5,0.3-0.7c0.1-0.2,0.3-0.4,0.6-0.5s0.5-0.2,0.8-0.2c0.3,0,0.6,0.1,0.9,0.2
			c0.2,0.1,0.4,0.3,0.6,0.5c0.1,0.2,0.3,0.4,0.3,0.7c0.1,0.3,0.1,0.6,0.1,0.9H292z M294.6,155.4c0-0.2-0.1-0.4-0.1-0.5
			c-0.1-0.2-0.1-0.3-0.2-0.4c-0.1-0.1-0.2-0.2-0.4-0.3s-0.3-0.1-0.5-0.1c-0.2,0-0.4,0-0.5,0.1c-0.1,0.1-0.3,0.2-0.4,0.3
			c-0.1,0.1-0.2,0.3-0.2,0.4c-0.1,0.2-0.1,0.3-0.1,0.5H294.6z"/>
		<path d="M296.6,157.7h-0.5v-3.1c0-0.2,0-0.3,0-0.5c0-0.2,0-0.3,0-0.4h0.5l0,0.6h0c0.1-0.2,0.2-0.4,0.4-0.5
			c0.2-0.1,0.4-0.2,0.7-0.2c0.1,0,0.1,0,0.2,0c0,0,0.1,0,0.1,0v0.4c0,0-0.1,0-0.1,0c-0.1,0-0.1,0-0.1,0c-0.4,0-0.6,0.1-0.8,0.4
			c-0.2,0.2-0.3,0.5-0.3,0.9V157.7z"/>
		<path d="M298.9,153.7l1.3,3.4l1.3-3.4h0.5l-1.7,4h-0.5l-1.6-4H298.9z"/>
		<path d="M302.9,155.8c0,0.2,0,0.4,0.1,0.6c0.1,0.2,0.1,0.4,0.2,0.5c0.1,0.1,0.3,0.3,0.4,0.3c0.2,0.1,0.4,0.1,0.6,0.1
			c0.1,0,0.3,0,0.4-0.1c0.1,0,0.2-0.1,0.3-0.2c0.1-0.1,0.2-0.2,0.3-0.3c0.1-0.1,0.1-0.2,0.2-0.4h0.5c-0.1,0.5-0.3,0.8-0.6,1.1
			c-0.3,0.2-0.7,0.3-1.2,0.3c-0.3,0-0.6-0.1-0.8-0.2c-0.2-0.1-0.4-0.3-0.5-0.5c-0.1-0.2-0.3-0.4-0.3-0.7c-0.1-0.3-0.1-0.5-0.1-0.8
			c0-0.3,0-0.5,0.1-0.8c0.1-0.3,0.2-0.5,0.3-0.7c0.1-0.2,0.3-0.4,0.6-0.5s0.5-0.2,0.8-0.2c0.3,0,0.6,0.1,0.9,0.2
			c0.2,0.1,0.4,0.3,0.6,0.5c0.1,0.2,0.3,0.4,0.3,0.7c0.1,0.3,0.1,0.6,0.1,0.9H302.9z M305.5,155.4c0-0.2-0.1-0.4-0.1-0.5
			c-0.1-0.2-0.1-0.3-0.2-0.4c-0.1-0.1-0.2-0.2-0.4-0.3s-0.3-0.1-0.5-0.1c-0.2,0-0.4,0-0.5,0.1c-0.1,0.1-0.3,0.2-0.4,0.3
			c-0.1,0.1-0.2,0.3-0.2,0.4c-0.1,0.2-0.1,0.3-0.1,0.5H305.5z"/>
	</g>
	<g class="st9">
		<path d="M333,157.7V152l2.1,0c0.2,0,0.4,0,0.6,0.1c0.2,0.1,0.4,0.2,0.5,0.3c0.1,0.1,0.3,0.3,0.4,0.5c0.1,0.2,0.1,0.4,0.1,0.6
			c0,0.2,0,0.3-0.1,0.5s-0.1,0.3-0.2,0.4c-0.1,0.1-0.2,0.2-0.3,0.3s-0.3,0.1-0.4,0.2v0c0.4,0.1,0.7,0.2,1,0.5c0.2,0.2,0.4,0.6,0.4,1
			c0,0.2,0,0.4-0.1,0.6c-0.1,0.2-0.2,0.3-0.3,0.5c-0.1,0.1-0.3,0.3-0.5,0.4s-0.5,0.1-0.8,0.1H333z M334.8,154.5c0.2,0,0.3,0,0.5-0.1
			c0.2,0,0.3-0.1,0.4-0.2c0.1-0.1,0.2-0.2,0.3-0.3c0.1-0.1,0.1-0.3,0.1-0.5c0-0.2,0-0.4-0.1-0.5c-0.1-0.1-0.2-0.2-0.3-0.3
			c-0.1-0.1-0.3-0.1-0.4-0.2c-0.2,0-0.3,0-0.5,0h-1.2v2.1H334.8z M333.5,157.3h1.3c0.2,0,0.5,0,0.7,0c0.2,0,0.4-0.1,0.5-0.2
			c0.1-0.1,0.2-0.2,0.3-0.4c0.1-0.1,0.1-0.3,0.1-0.6c0-0.2,0-0.4-0.1-0.6s-0.2-0.3-0.4-0.3s-0.4-0.1-0.6-0.2c-0.2,0-0.5,0-0.8,0h-1
			V157.3z"/>
		<path d="M338.6,157.7h-0.5v-3.1c0-0.2,0-0.3,0-0.5c0-0.2,0-0.3,0-0.4h0.5l0,0.6h0c0.1-0.2,0.2-0.4,0.4-0.5
			c0.2-0.1,0.4-0.2,0.7-0.2c0.1,0,0.1,0,0.2,0s0.1,0,0.1,0v0.4c0,0-0.1,0-0.1,0c-0.1,0-0.1,0-0.1,0c-0.4,0-0.6,0.1-0.8,0.4
			c-0.2,0.2-0.3,0.5-0.3,0.9V157.7z"/>
		<path d="M343.1,154.9c0-0.2,0-0.3-0.1-0.4c0-0.1-0.1-0.2-0.2-0.3s-0.2-0.1-0.3-0.1s-0.2,0-0.4,0c-0.1,0-0.2,0-0.4,0
			s-0.2,0.1-0.3,0.1c-0.1,0.1-0.2,0.1-0.2,0.2c-0.1,0.1-0.1,0.2-0.1,0.3h-0.5c0-0.2,0.1-0.4,0.2-0.5c0.1-0.1,0.2-0.3,0.3-0.4
			s0.3-0.2,0.5-0.2c0.2,0,0.4-0.1,0.5-0.1c0.4,0,0.8,0.1,1,0.3s0.4,0.5,0.4,1v1.9c0,0.2,0,0.3,0,0.5c0,0.2,0,0.3,0,0.4h-0.5l0-0.6h0
			l0,0.1c-0.1,0.2-0.2,0.3-0.4,0.5c-0.2,0.1-0.5,0.2-0.8,0.2c-0.2,0-0.4,0-0.5-0.1s-0.3-0.1-0.4-0.2c-0.1-0.1-0.2-0.2-0.3-0.4
			c-0.1-0.2-0.1-0.3-0.1-0.5c0-0.3,0.1-0.5,0.2-0.7c0.1-0.2,0.3-0.3,0.6-0.4c0.1-0.1,0.3-0.1,0.4-0.1s0.3,0,0.5-0.1
			c0.2,0,0.3,0,0.5,0c0.2,0,0.3,0,0.5,0V154.9z M341,156.6c0,0.3,0.1,0.5,0.3,0.6c0.2,0.1,0.4,0.2,0.6,0.2c0.2,0,0.4,0,0.6-0.1
			c0.2-0.1,0.3-0.2,0.4-0.3c0.1-0.1,0.2-0.3,0.2-0.5c0-0.2,0.1-0.4,0.1-0.5c0,0,0-0.1,0-0.1s0-0.1,0-0.1c-0.1,0-0.2,0-0.3,0
			s-0.2,0-0.3,0c-0.2,0-0.4,0-0.5,0c-0.2,0-0.3,0.1-0.5,0.1s-0.3,0.2-0.4,0.3C341,156.3,341,156.4,341,156.6z"/>
		<path d="M345.4,152.6h-0.6V152h0.6V152.6z M345.3,153.7v4h-0.5v-4H345.3z"/>
		<path d="M347.1,157.7h-0.5v-3.1c0-0.2,0-0.3,0-0.5c0-0.2,0-0.3,0-0.4h0.5l0,0.6l0,0c0.1-0.2,0.3-0.4,0.5-0.6s0.5-0.2,0.7-0.2
			c0.2,0,0.4,0,0.6,0.1s0.3,0.1,0.4,0.2c0.1,0.1,0.2,0.2,0.3,0.3s0.1,0.2,0.1,0.4c0,0.1,0.1,0.2,0.1,0.3s0,0.2,0,0.3v2.5h-0.5v-2.6
			c0-0.4-0.1-0.6-0.3-0.8c-0.2-0.2-0.4-0.3-0.8-0.3c-0.2,0-0.4,0-0.5,0.1s-0.3,0.2-0.4,0.3c-0.1,0.1-0.2,0.3-0.2,0.4
			c0,0.2-0.1,0.3-0.1,0.5V157.7z"/>
	</g>
	<polyline class="st10" points="58.6,146.8 58.6,161.3 0.1,161.3 0.1,146.8 	"/>
	<polyline class="st11" points="366,146.8 366,161.3 313.5,161.3 313.5,146.8 	"/>
	<polyline class="st12" points="127.2,146.8 127.2,161.3 58.6,161.3 58.6,146.8 	"/>
	<polyline class="st13" points="183.3,146.8 183.3,161.3 127.2,161.3 127.2,146.8 	"/>
	<polyline class="st14" points="248.4,146.8 248.4,161.3 183.3,161.3 183.3,146.8 	"/>
	<polyline class="st14" points="313.5,146.8 313.5,161.3 248.4,161.3 248.4,146.8 	"/>
</g>
<rect x="183.3" class="st15" width="183.1" height="161.4"/>
</svg>
