<?xml version="1.0" encoding="utf-8"?>
<!-- Generator: Adobe Illustrator 22.0.1, SVG Export Plug-In . SVG Version: 6.00 Build 0)  -->
<svg version="1.1" id="Ebene_1" xmlns="http://www.w3.org/2000/svg" xmlns:xlink="http://www.w3.org/1999/xlink" x="0px" y="0px"
	 viewBox="0 0 406.7 219.2" style="enable-background:new 0 0 406.7 219.2;" xml:space="preserve">
<style type="text/css">
	.st0{fill:#6E6E6E;}
	.st1{fill:#FDDAAC;}
	.st2{fill:#4D6BB2;stroke:#4D6BB2;stroke-miterlimit:10;}
	.st3{fill:#E9E218;}
	.st4{fill:#DBAFAA;}
	.st5{fill:#F7BB63;}
	.st6{fill:#B29879;}
	.st7{fill:#FFFFFF;}
	.st8{fill:#020203;}
	.st9{font-family:'UniversCom-45Light';}
	.st10{font-size:8px;}
	.st11{fill:none;stroke:#E4003E;stroke-width:0.2408;stroke-miterlimit:10;}
	.st12{fill:none;stroke:#E4003E;stroke-width:0.2177;stroke-miterlimit:10;}
	.st13{fill:none;stroke:#E4003E;stroke-width:0.2346;stroke-miterlimit:10;}
</style>
<g id="Ebene_2_1_">
	<path class="st0" d="M314.8,62.1c-10,6.5-23.2,6-26.5,5.8c8.9,5.4,12.8,15.8,13.7,23.2l0.1,0.1c6.2-21.6,16.1-24.6,16.1-24.6
		S316.8,64.9,314.8,62.1z"/>
	<path class="st1" d="M156.9,94.5L122,95.3c0,0-8.8,0.8-13.2-9.2c-1.3-4-1.5-15-1.5-15s-0.2-11.2-7.7-15.5S83,47,83,47
		s-5.2-2.5-8.5-0.5s-8.7,4.5-8.8,13.8C65.5,69.6,65,73,63,78.5s-5,18.8-2.2,25.2c2.8,6.3,12.8,18,13.7,20.7
		c0.8,2.7,2.5,9.5,2.3,13.3c0,2.2,3.5,11.3,12.2,11.3s14.7-5,17-10s5.3-13.5,6-19.5c1-3,1.2-5.8,5-5.7c3.8,0.2,42.5,0.1,42.5,0.1
		L156.9,94.5z"/>
	<path class="st2" d="M275.1,63.8c-18,0-27.9,11.5-27.9,24.6c-3.4-3.4-4.4-6.6-4.4-6.6s10.5-17.8-1.2-25c-8-4.2-15.7,2.6-15.7,2.6
		s-6.1-1.6-9.6,1.4s-4.9,5.9-6.3,10.5c-3,0.5-7.5,0-6.3,8.4c0.7,3.7,3.3,8.2,7.5,8.9c0,0,0.8,22.2,16,33.5c0,0,16.8,19.2,50.7,6.8
		c22-8.2,24.6-29.1,24.6-35.1C302.5,83.9,295.9,63.8,275.1,63.8z M213.2,84.8c-1.8-0.2-4.3-2-5.3-3.9c-2.1-4.1-1.2-5.7,0.6-5.7
		c0,0,1.5-0.2,1.5,1.8c0.4,2.8,2.1,4.8,3.2,5.7C214.3,83.6,214,84.8,213.2,84.8z M217.2,79.3c-1.8,1.3-2.1-2.5-2.1-2.5
		C216.3,77,218.3,78.5,217.2,79.3z M220.5,75.2c-2.7-2-4.3-3.4-6.2-3.6c0.5-3.9,3-8.7,8.1-8.4C222.5,63.3,219.6,67.2,220.5,75.2z
		 M224.5,74.8c-0.1-5.2,1.1-8.8,3-11.1c1.9,1,5.6,3.8,5.7,11.5C229,74.2,224.5,74.8,224.5,74.8z M237.7,77.1L237.7,77.1
		c0,0-0.3-12.7-7-16.1c2.3-1.2,5-1.2,7.4-0.5c8.6,3,4,13,1.2,18.2C238.8,78.1,238.3,77.6,237.7,77.1z"/>
	<path class="st3" d="M221.9,105.1c0.5-4-2.3-8.7-10.3-8.3c-8,0.3-10.3,1.5-14.7-2.3c-4.3-3.8-7.5-6.8-6-10s4.8-9,4.8-9
		s-0.5-1.8-2.8-1.7c-3-0.2-3.8-2.3-3.8-2.3s-1.3-2.8-5.2-2.8c-3.8,0-3.7,2.3-4.2,3s-1.7,15.7,4.8,19.2s11.3,4.8,13,8.2
		s4.2,9.5,10.3,9.8c5.8,0.3,6.8,0.8,6.8,0.8S221.4,109.1,221.9,105.1z"/>
	
		<ellipse transform="matrix(0.9971 -7.612681e-02 7.612681e-02 0.9971 -7.4417 12.3826)" class="st4" cx="158.7" cy="103.8" rx="6.5" ry="10.2"/>
	<path class="st5" d="M185.7,79.8c0,0-0.7-10.8-10.5-10.8c-4.3,0-6.7,4.8-6.2,8.3s1.5,8.8-0.8,11s-4,6.3-9.7,5.2c1.3,2,5.7,5,5.5,12
		c1.3-2.5,3.7-9.3,6-11.5s6.3-1.7,6.3-1.7s5.5,1.8,8.5-5.3C185.9,83.8,185.7,79.8,185.7,79.8z"/>
	<g>
		<path class="st6" d="M98,124.6c1-1.1,1.9-2.3,2.7-3.5c0.4-0.6,0.8-1.3,1-1.9c0.3-0.7,0.5-1.4,0.5-2l0,0c-0.1-0.7-0.7-1.3-1.3-1.8
			c-0.6-0.5-1.3-1.1-2-1.5H99c-1.7-0.6-3.1-1.6-4-3.2c-0.9-1.5-1-3.3-0.7-5c0.6-3.2,1-6.3,1.3-9.5c0.7-6.4,1-12.7,0.8-19.1
			c-0.1-3.2-0.4-6.4-1.1-9.4c-0.8-3-2-6-4.2-8.2l-0.9-0.8c-0.1-0.1-0.3-0.3-0.4-0.4L89.4,58l-1-0.6c-0.3-0.2-0.7-0.3-1.1-0.5
			c-0.4-0.1-0.7-0.3-1.1-0.4c-0.4-0.1-0.8-0.2-1.1-0.3c-0.7-0.2-1.5-0.3-2.3-0.4c-1.6-0.2-3.2-0.5-4.7-0.1S75.3,57.1,74,58
			c1.2-1.1,2.4-2.2,4-2.8s3.3-0.4,4.9-0.3c3.2,0.1,6.6,1.4,9,3.7c2.3,2.4,3.7,5.6,4.4,8.7c0.7,3.2,1,6.4,1.1,9.6
			c0.3,6.4-0.1,12.9-0.8,19.3c-0.3,3.2-0.8,6.4-1.4,9.5c-0.2,1.5-0.1,3.1,0.6,4.3c0.7,1.3,2,2.2,3.4,2.7l0,0c0,0,0,0,0.1,0
			c0.8,0.5,1.5,0.9,2.2,1.6c0.3,0.3,0.6,0.7,0.9,1.1s0.5,0.9,0.5,1.4l0,0l0,0c0,0.9-0.4,1.6-0.7,2.3c-0.4,0.7-0.8,1.3-1.3,1.9
			C100.2,122.5,99.1,123.6,98,124.6z"/>
	</g>
	<g>
		<path class="st6" d="M71.2,76.5c-0.9,3.2-1.6,6.4-2,9.6s-0.7,6.5-0.2,9.7c0,0.4,0.1,0.8,0.2,1.2c0.1,0.4,0.2,0.8,0.3,1.1l0.4,1.1
			c0.2,0.4,0.4,0.7,0.5,1.1c0.7,1.5,1.5,2.9,2.3,4.4c1.6,2.9,3.2,5.7,4.9,8.5l-0.1-0.1c0.7,0.7,1.4,1.4,2,2.2
			c0.6,0.8,1.2,1.6,1.7,2.5s0.9,1.8,1.2,2.7c0.3,0.9,0.5,1.9,0.7,2.9c-0.2-1-0.5-1.9-0.9-2.8s-0.9-1.8-1.4-2.6
			c-1.1-1.6-2.3-3.1-3.8-4.4c0,0,0,0-0.1-0.1l0,0c-1.9-2.7-3.5-5.6-5.1-8.4c-0.8-1.4-1.6-2.9-2.3-4.4c-0.2-0.4-0.4-0.7-0.5-1.1
			l-0.5-1.2c-0.2-0.4-0.2-0.8-0.3-1.2C68.1,96.8,68,96.4,68,96l-0.2-1.3v-1.3c-0.1-0.8,0-1.7,0-2.5c0.1-1.7,0.3-3.3,0.7-4.9
			C69.1,82.7,70,79.5,71.2,76.5z"/>
	</g>
	<path class="st6" d="M100.2,121.8l0.4-0.1c1.1-1.4,2.1-3.2,2.1-4.6c-0.2-1.8-3.5-3.7-3.5-3.7s-5.5-1.5-4.3-7.8s2.3-16.8,2.2-25.2
		c-2,4.7-8.2,7.5-11.7,9.7s-2.8,6.8-2.8,6.8s1.3,5.5,2,7.7c0.8,2.2,0.3,4.2,0.2,5.5c-0.2,1.3-0.7,4.2-0.5,5.2
		c1.5,2.2,3.5,1.5,3.5,1.5s0.8-0.7,5.8,0S100.2,121.8,100.2,121.8z"/>
	<g>
		<path class="st7" d="M246.7,85.2c0,3,0.4,6.1,1.2,9.1c0.8,2.9,2,5.8,3.9,8.2c1.8,2.4,4.3,4.3,7.2,5.3c2.8,1.1,6,1.3,9,1.1
			c3.1-0.2,6.1-0.9,8.8-2.4c1.4-0.7,2.5-1.7,3.6-2.8c1-1.1,1.9-2.4,2.6-3.8c1.4-2.7,1.9-5.8,1.9-8.9c0-1.5-0.1-3.1-0.5-4.5
			c-0.4-1.5-1-2.9-1.9-4.1c-0.9-1.3-1.9-2.4-3.2-3.2c-1.3-0.9-2.7-1.4-4.2-1.8s-3-0.5-4.6-0.4c-1.5,0.1-3,0.4-4.4,1.2
			c-2.6,1.6-4,4.7-4.3,7.7c-0.2,1.5,0.1,3.1,0.7,4.5s1.5,2.7,2.8,3.5c1.3,0.9,2.8,1.2,4.4,1.2c1.5,0,3.1-0.3,4.3-1.3
			c1.2-0.9,1.9-2.5,2.1-4s0.3-3.1-0.1-4.6c-0.2-0.7-0.6-1.4-1.2-1.9s-1.3-0.9-2-1.1s-1.5-0.2-2.3-0.1s-1.5,0.3-2.1,0.9
			c-0.6,0.5-0.8,1.3-0.9,2.1c-0.1,0.8-0.1,1.6,0.1,2.3c0.2,0.8,0.6,1.5,1.2,2s1.4,0.7,2.2,0.7c-0.8,0-1.6-0.2-2.2-0.7s-1-1.2-1.2-2
			s-0.2-1.6-0.1-2.3c0.1-0.8,0.4-1.6,0.9-2.1c0.6-0.6,1.4-0.8,2.1-0.9c0.8-0.1,1.6-0.1,2.3,0.1c0.8,0.2,1.5,0.5,2.1,1.1
			c0.6,0.5,1,1.2,1.2,2c0.5,1.5,0.4,3.1,0.2,4.6c-0.3,1.5-0.9,3.1-2.2,4.1c-1.3,1-2.9,1.3-4.4,1.3c-1.6,0-3.2-0.3-4.5-1.2
			c-1.3-0.9-2.3-2.2-2.9-3.7s-0.9-3-0.7-4.6c0.1-1.6,0.6-3.1,1.3-4.5c0.7-1.4,1.8-2.7,3.2-3.5c1.4-0.8,3-1.2,4.5-1.3
			c1.6-0.1,3.2,0,4.7,0.4s3,0.9,4.3,1.8s2.5,2,3.4,3.3s1.6,2.8,2,4.3s0.6,3.1,0.5,4.7c-0.1,3.1-0.6,6.3-1.9,9.2
			c-0.7,1.4-1.6,2.7-2.6,3.9c-1.1,1.1-2.3,2.2-3.7,2.9c-2.8,1.6-5.9,2.3-9,2.5s-6.4,0-9.3-1.1c-3-1.1-5.6-3.1-7.6-5.6
			c-1.9-2.5-3.2-5.5-4.1-8.5c-0.8-3-1.3-6.2-1.3-9.3L246.7,85.2z"/>
	</g>
	<g id="Musik">
		<path class="st8" d="M78.8,102.3v-0.9l-8.7,1.9v0.9v8c-0.4-0.2-1-0.4-1.6-0.4c-1.4,0-2.5,0.8-2.5,1.9s1.1,1.9,2.5,1.9
			s2.5-0.8,2.5-1.9V104l6.9-1.5v7.5c-0.4-0.2-1-0.4-1.6-0.4c-1.4,0-2.5,0.8-2.5,1.9s1.1,1.9,2.5,1.9s2.5-0.8,2.5-1.9L78.8,102.3
			L78.8,102.3z"/>
	</g>
	<g id="Musik_1_">
		<path class="st8" d="M61.5,93.1v-1.3l-12.3,2.6v1.3V107c-0.6-0.4-1.4-0.6-2.2-0.6c-1.9,0-3.5,1.2-3.5,2.6s1.6,2.6,3.5,2.6
			s3.5-1.2,3.5-2.6V95.5l9.7-2.1V104c-0.6-0.4-1.4-0.6-2.2-0.6c-1.9,0-3.5,1.2-3.5,2.6s1.6,2.6,3.5,2.6s3.5-1.2,3.5-2.6V93.1
			L61.5,93.1z"/>
	</g>
	<text transform="matrix(1 0 0 1 36.7741 203.4652)" class="st9 st10">Sound</text>
	<text transform="matrix(1 0 0 1 89.0854 203.4652)" class="st9 st10">External ear</text>
	<text transform="matrix(1 0 0 1 153.6635 203.4652)" class="st9 st10">Middle ear</text>
	<text transform="matrix(1 0 0 1 217.3755 203.4652)" class="st9 st10">Inner ear</text>
	<text transform="matrix(1 0 0 1 272.0914 203.4652)" class="st9 st10">Auditory nerve</text>
	<text transform="matrix(1 0 0 1 349.4715 203.4652)" class="st9 st10">Brain</text>
	<polyline class="st11" points="75.9,192.5 75.9,207 20.4,207 20.4,192.5 	"/>
	<polyline class="st11" points="386.3,192.5 386.3,207 330.8,207 330.8,192.5 	"/>
	<polyline class="st11" points="144.5,192.5 144.5,207 75.9,207 75.9,192.5 	"/>
	<polyline class="st12" points="200.6,192.5 200.6,207 144.5,207 144.5,192.5 	"/>
	<polyline class="st13" points="265.7,192.5 265.7,207 200.6,207 200.6,192.5 	"/>
	<polyline class="st13" points="330.8,192.5 330.8,207 265.7,207 265.7,192.5 	"/>
</g>
<g id="Ebene_3">
</g>
</svg>
